<?xml version="1.0" standalone="no"?>
<!DOCTYPE svg PUBLIC "-//W3C//DTD SVG 1.1//EN" "http://www.w3.org/Graphics/SVG/1.1/DTD/svg11.dtd" >
<svg xmlns="http://www.w3.org/2000/svg" xmlns:xlink="http://www.w3.org/1999/xlink" version="1.1">
<metadata>
Created by FontForge 20190801 at Fri Mar  3 11:33:16 2017
 By Jimmy Wärting
Copyright (c) 2016 by Jakob Runge and Lisa Fischbach, under exclusive license to TypeMates. All rights reserved.
</metadata>
<defs>
<font id="CeraRoundPro-Medium" horiz-adv-x="560" >
  <font-face 
    font-family="Cera Round Pro Medium"
    font-weight="500"
    font-stretch="normal"
    units-per-em="1000"
    panose-1="0 0 6 0 0 0 0 0 0 0"
    ascent="808"
    descent="-192"
    x-height="491"
    cap-height="671"
    bbox="-153 -241 1336 1022"
    underline-thickness="76"
    underline-position="-100"
    unicode-range="U+0020-FB02"
  />
<missing-glyph horiz-adv-x="710" 
d="M612 645q15 -15 15 -38v-554q0 -22 -15 -37.5t-38 -15.5h-438q-22 0 -37.5 15.5t-15.5 37.5v554q0 23 15.5 38t37.5 15h438q23 0 38 -15zM552 592h-396l396 -528v528z" />
    <glyph glyph-name="fi" unicode="fi" horiz-adv-x="594" 
d="M220 644q-21 -22 -21 -63v-90h79q20 0 33.5 -13t13.5 -33q0 -19 -13.5 -32t-33.5 -13h-79v-357q0 -24 -14.5 -39t-37.5 -15t-38 15.5t-15 38.5v357h-34q-20 0 -33 13t-13 32q0 20 13.5 33t32.5 13h34v99q0 81 44.5 126t124.5 45q33 0 57 -9q14 -5 22.5 -17t8.5 -28
q0 -19 -13 -30.5t-34 -11.5l-24 1q-39 0 -60 -22zM428 4.5q-15 15.5 -15 38.5v405q0 23 15 38.5t38 15.5q22 0 37 -15.5t15 -38.5v-405q0 -23 -15 -38.5t-38 -15.5q-22 0 -37 15.5zM515.5 722q20.5 -20 20.5 -48t-20.5 -48t-49.5 -20t-49.5 20t-20.5 48t20.5 48t49.5 20
t49.5 -20z" />
    <glyph glyph-name="fl" unicode="fl" horiz-adv-x="594" 
d="M220 644q-21 -22 -21 -63v-90h79q20 0 33.5 -13t13.5 -33q0 -19 -13.5 -32t-33.5 -13h-79v-357q0 -24 -14.5 -39t-37.5 -15t-38 15.5t-15 38.5v357h-34q-20 0 -33 13t-13 32q0 20 13.5 33t32.5 13h34v99q0 81 44.5 126t124.5 45q33 0 57 -9q14 -5 22.5 -17t8.5 -28
q0 -19 -13 -30.5t-34 -11.5l-24 1q-39 0 -60 -22zM428 4.5q-15 15.5 -15 38.5v664q0 23 15 38.5t38 15.5q22 0 37 -15.5t15 -38.5v-664q0 -23 -15 -38.5t-37 -15.5q-23 0 -38 15.5z" />
    <glyph glyph-name=".notdef" horiz-adv-x="710" 
d="M612 645q15 -15 15 -38v-554q0 -22 -15 -37.5t-38 -15.5h-438q-22 0 -37.5 15.5t-15.5 37.5v554q0 23 15.5 38t37.5 15h438q23 0 38 -15zM552 592h-396l396 -528v528z" />
    <glyph glyph-name="space" unicode=" " horiz-adv-x="280" 
 />
    <glyph glyph-name="A" unicode="A" horiz-adv-x="663" 
d="M629 40q0 -21 -15 -36t-37 -15q-35 0 -50 37l-41 93h-311l-39 -93q-14 -37 -50 -37q-22 0 -37 15t-15 36q0 14 8 30l239 565q15 36 50 36q36 0 51 -36l239 -565q8 -19 8 -30zM212 209h236l-117 307z" />
    <glyph glyph-name="Aacute" unicode="&#xc1;" horiz-adv-x="663" 
d="M629 40q0 -21 -15 -36t-37 -15q-35 0 -50 37l-41 93h-311l-39 -93q-14 -37 -50 -37q-22 0 -37 15t-15 36q0 14 8 30l239 565q15 36 50 36q36 0 51 -36l239 -565q8 -19 8 -30zM212 209h236l-117 307zM313.5 738q-11.5 14 -11.5 32q0 10 5 22l58 112q15 28 48 28
q22 0 37 -16t15 -37q0 -17 -10 -31l-67 -102q-8 -12 -19.5 -17.5t-22.5 -5.5q-21 1 -32.5 15z" />
    <glyph glyph-name="Abreve" unicode="&#x102;" horiz-adv-x="663" 
d="M629 40q0 -21 -15 -36t-37 -15q-35 0 -50 37l-41 93h-311l-39 -93q-14 -37 -50 -37q-22 0 -37 15t-15 36q0 14 8 30l239 565q15 36 50 36q36 0 51 -36l239 -565q8 -19 8 -30zM212 209h236l-117 307zM253.5 747.5q-36.5 18.5 -59 49t-22.5 65.5q0 18 12 30.5t30 12.5
q28 0 41 -35q9 -29 29 -45t47 -16q28 0 48.5 16t28.5 45q12 35 40 35q18 0 30 -12.5t12 -30.5q0 -34 -22 -65t-59 -49.5t-78 -18.5t-77.5 18.5z" />
    <glyph glyph-name="Acircumflex" unicode="&#xc2;" horiz-adv-x="663" 
d="M629 40q0 -21 -15 -36t-37 -15q-35 0 -50 37l-41 93h-311l-39 -93q-14 -37 -50 -37q-22 0 -37 15t-15 36q0 14 8 30l239 565q15 36 50 36q36 0 51 -36l239 -565q8 -19 8 -30zM212 209h236l-117 307zM488.5 776.5q4.5 -7.5 4.5 -16.5q0 -16 -11 -27.5t-28 -11.5
q-15 0 -31 13l-93 87l-93 -87q-16 -13 -31 -13q-16 0 -27.5 11.5t-11.5 27.5q0 9 4.5 16.5t15.5 18.5l109 108q15 15 34 15t34 -15l109 -108q11 -11 15.5 -18.5z" />
    <glyph glyph-name="Adieresis" unicode="&#xc4;" horiz-adv-x="663" 
d="M629 40q0 -21 -15 -36t-37 -15q-35 0 -50 37l-41 93h-311l-39 -93q-14 -37 -50 -37q-22 0 -37 15t-15 36q0 14 8 30l239 565q15 36 50 36q36 0 51 -36l239 -565q8 -19 8 -30zM212 209h236l-117 307zM160.5 766.5q-20.5 19.5 -20.5 45.5q0 27 20.5 46t47.5 19
q28 0 47.5 -18.5t19.5 -46.5q0 -26 -19.5 -45.5t-47.5 -19.5q-27 0 -47.5 19.5zM405.5 765.5q-20.5 19.5 -20.5 45.5q0 27 20.5 46.5t46.5 19.5q29 0 48.5 -19t19.5 -47q0 -26 -20 -45.5t-48 -19.5q-26 0 -46.5 19.5z" />
    <glyph glyph-name="Agrave" unicode="&#xc0;" horiz-adv-x="663" 
d="M629 40q0 -21 -15 -36t-37 -15q-35 0 -50 37l-41 93h-311l-39 -93q-14 -37 -50 -37q-22 0 -37 15t-15 36q0 14 8 30l239 565q15 36 50 36q36 0 51 -36l239 -565q8 -19 8 -30zM212 209h236l-117 307zM293.5 728.5q-11.5 5.5 -19.5 17.5l-67 102q-10 14 -10 31
q0 21 15.5 37t36.5 16q33 0 48 -28l58 -112q5 -12 5 -22q0 -18 -11.5 -32t-32.5 -15q-11 0 -22.5 5.5z" />
    <glyph glyph-name="Amacron" unicode="&#x100;" horiz-adv-x="663" 
d="M629 40q0 -21 -15 -36t-37 -15q-35 0 -50 37l-41 93h-311l-39 -93q-14 -37 -50 -37q-22 0 -37 15t-15 36q0 14 8 30l239 565q15 36 50 36q36 0 51 -36l239 -565q8 -19 8 -30zM212 209h236l-117 307zM478.5 836q12.5 -12 12.5 -30t-12.5 -30.5t-30.5 -12.5h-233
q-19 0 -31.5 12.5t-12.5 30.5t12.5 30t31.5 12h233q18 0 30.5 -12z" />
    <glyph glyph-name="Aogonek" unicode="&#x104;" horiz-adv-x="663" 
d="M629 40q0 -21 -15 -36t-37 -15q-35 0 -50 37l-41 93h-311l-39 -93q-14 -37 -50 -37q-22 0 -37 15t-15 36q0 14 8 30l239 565q15 36 50 36q36 0 51 -36l239 -565q8 -19 8 -30zM212 209h236l-117 307zM473 -164.5q-31 26.5 -31 71.5q0 35 19.5 61.5t63.5 61.5
q23 18 39.5 27t30.5 9q13 0 23 -9t10 -21q0 -22 -24 -40q-29 -22 -46 -39.5t-17 -36.5q0 -14 11.5 -22.5t32.5 -8.5l25 1q15 0 24.5 -10t9.5 -26q0 -29 -32 -38q-20 -7 -57 -7q-51 0 -82 26.5z" />
    <glyph glyph-name="Aring" unicode="&#xc5;" horiz-adv-x="663" 
d="M629 40q0 -21 -15 -36t-37 -15q-35 0 -50 37l-41 93h-311l-39 -93q-14 -37 -50 -37q-22 0 -37 15t-15 36q0 14 8 30l239 565q15 36 50 36q36 0 51 -36l239 -565q8 -19 8 -30zM212 209h236l-117 307zM415 884q34 -33 34 -82t-34 -82t-85 -33q-50 0 -84 33t-34 82t34 82
t84 33q51 0 85 -33zM298 835q-13 -13 -13 -33q0 -19 13.5 -32.5t32.5 -13.5t32 13t13 33t-13 33t-32 13q-20 0 -33 -13z" />
    <glyph glyph-name="Atilde" unicode="&#xc3;" horiz-adv-x="663" 
d="M629 40q0 -21 -15 -36t-37 -15q-35 0 -50 37l-41 93h-311l-39 -93q-14 -37 -50 -37q-22 0 -37 15t-15 36q0 14 8 30l239 565q15 36 50 36q36 0 51 -36l239 -565q8 -19 8 -30zM212 209h236l-117 307zM161 742q-12 13 -12 34q0 49 28.5 81.5t72.5 32.5q37 0 72 -22l33 -20
q12 -7 23 -12.5t20 -5.5q25 0 30 28q2 16 13 26t28 10q19 0 31.5 -13t12.5 -33q0 -50 -29 -82.5t-73 -32.5q-34 0 -72 22l-32 20q-4 2 -13.5 7.5t-16.5 8t-14 2.5q-26 0 -29 -28q-3 -17 -14 -26.5t-27 -9.5q-20 0 -32 13z" />
    <glyph glyph-name="AE" unicode="&#xc6;" horiz-adv-x="837" 
d="M789 81.5q14 -13.5 14 -33.5t-14.5 -34t-34.5 -14h-248q-20 0 -34.5 12t-17.5 31l-11 67h-262l-46 -88q-16 -33 -47 -33q-22 0 -37 14t-15 35q0 14 6 26l290 560q18 36 57 36h353q21 0 35 -14t14 -34t-14.5 -33.5t-34.5 -13.5h-269l28 -169h162q20 0 33.5 -13t13.5 -33
t-13.5 -33t-33.5 -13h-147l35 -209h203q21 0 35 -13.5zM228 201h199l-48 304z" />
    <glyph glyph-name="AEacute" unicode="&#x1fc;" horiz-adv-x="837" 
d="M789 81.5q14 -13.5 14 -33.5t-14.5 -34t-34.5 -14h-248q-20 0 -34.5 12t-17.5 31l-11 67h-262l-46 -88q-16 -33 -47 -33q-22 0 -37 14t-15 35q0 14 6 26l290 560q18 36 57 36h353q21 0 35 -14t14 -34t-14.5 -33.5t-34.5 -13.5h-269l28 -169h162q20 0 33.5 -13t13.5 -33
t-13.5 -33t-33.5 -13h-147l35 -209h203q21 0 35 -13.5zM228 201h199l-48 304zM401.5 738q-11.5 14 -11.5 32q0 10 5 22l58 112q15 28 48 28q22 0 37 -16t15 -37q0 -17 -10 -31l-67 -102q-8 -12 -19.5 -17.5t-22.5 -5.5q-21 1 -32.5 15z" />
    <glyph glyph-name="B" unicode="B" horiz-adv-x="618" 
d="M547.5 297q32.5 -44 32.5 -105q0 -56 -27 -100t-75.5 -68t-111.5 -24h-228q-24 0 -39.5 15.5t-15.5 39.5v550q0 24 15.5 39.5t39.5 15.5h176q58 0 103 -22t70 -62t25 -92q0 -38 -14 -69.5t-41 -54.5q58 -19 90.5 -63zM187 567v-178h117q47 0 74 23.5t27 66.5
q0 42 -26.5 65t-74.5 23h-117zM441.5 120q30.5 27 30.5 75t-30.5 75.5t-84.5 27.5h-170v-205h170q54 0 84.5 27z" />
    <glyph glyph-name="C" unicode="C" horiz-adv-x="717" 
d="M214.5 34q-79.5 45 -125.5 123t-46 173t46 173t125.5 123t175.5 45q76 0 144 -30.5t113 -84.5q17 -23 17 -42q0 -20 -14.5 -34t-34.5 -14q-24 0 -42 21q-72 87 -182 87q-68 0 -122 -31.5t-85 -87.5t-31 -125t31 -125t85 -87.5t122 -31.5q108 0 181 87q18 21 43 21
q20 0 34.5 -14t14.5 -34q0 -18 -18 -42q-44 -54 -111.5 -84.5t-144.5 -30.5q-96 0 -175.5 45z" />
    <glyph glyph-name="Cacute" unicode="&#x106;" horiz-adv-x="717" 
d="M214.5 34q-79.5 45 -125.5 123t-46 173t46 173t125.5 123t175.5 45q76 0 144 -30.5t113 -84.5q17 -23 17 -42q0 -20 -14.5 -34t-34.5 -14q-24 0 -42 21q-72 87 -182 87q-68 0 -122 -31.5t-85 -87.5t-31 -125t31 -125t85 -87.5t122 -31.5q108 0 181 87q18 21 43 21
q20 0 34.5 -14t14.5 -34q0 -18 -18 -42q-44 -54 -111.5 -84.5t-144.5 -30.5q-96 0 -175.5 45zM372.5 741q-11.5 14 -11.5 32q0 10 5 22l58 112q15 28 48 28q22 0 37 -16t15 -37q0 -17 -10 -31l-67 -102q-8 -12 -19.5 -17.5t-22.5 -5.5q-21 1 -32.5 15z" />
    <glyph glyph-name="Ccaron" unicode="&#x10c;" horiz-adv-x="717" 
d="M214.5 34q-79.5 45 -125.5 123t-46 173t46 173t125.5 123t175.5 45q76 0 144 -30.5t113 -84.5q17 -23 17 -42q0 -20 -14.5 -34t-34.5 -14q-24 0 -42 21q-72 87 -182 87q-68 0 -122 -31.5t-85 -87.5t-31 -125t31 -125t85 -87.5t122 -31.5q108 0 181 87q18 21 43 21
q20 0 34.5 -14t14.5 -34q0 -18 -18 -42q-44 -54 -111.5 -84.5t-144.5 -30.5q-96 0 -175.5 45zM542 910q11 -11 11 -28q0 -9 -4.5 -16.5t-15.5 -18.5l-109 -108q-15 -15 -34 -15t-34 15l-109 108q-11 11 -15.5 18.5t-4.5 16.5q0 17 11.5 28t27.5 11q15 0 31 -13l93 -87l93 87
q16 13 31 13q17 0 28 -11z" />
    <glyph glyph-name="Ccedilla" unicode="&#xc7;" horiz-adv-x="717" 
d="M214.5 34q-79.5 45 -125.5 123t-46 173t46 173t125.5 123t175.5 45q76 0 144 -30.5t113 -84.5q17 -23 17 -42q0 -20 -14.5 -34t-34.5 -14q-24 0 -42 21q-72 87 -182 87q-68 0 -122 -31.5t-85 -87.5t-31 -125t31 -125t85 -87.5t122 -31.5q108 0 181 87q18 21 43 21
q20 0 34.5 -14t14.5 -34q0 -18 -18 -42q-44 -54 -111.5 -84.5t-144.5 -30.5q-96 0 -175.5 45zM282 -183q-28 11 -28 36q0 16 11 27t27 11q8 0 18.5 -1.5t20.5 -1.5q27 0 45.5 12.5t18.5 35.5q0 17 -6 30t-16 27q-3 4 -9.5 12.5t-10 15.5t-3.5 13q0 14 8.5 22t24.5 8
q22 0 46 -21.5t40.5 -53t16.5 -59.5q0 -55 -40 -88t-105 -33q-41 0 -59 8z" />
    <glyph glyph-name="Ccircumflex" unicode="&#x108;" horiz-adv-x="717" 
d="M214.5 34q-79.5 45 -125.5 123t-46 173t46 173t125.5 123t175.5 45q76 0 144 -30.5t113 -84.5q17 -23 17 -42q0 -20 -14.5 -34t-34.5 -14q-24 0 -42 21q-72 87 -182 87q-68 0 -122 -31.5t-85 -87.5t-31 -125t31 -125t85 -87.5t122 -31.5q108 0 181 87q18 21 43 21
q20 0 34.5 -14t14.5 -34q0 -18 -18 -42q-44 -54 -111.5 -84.5t-144.5 -30.5q-96 0 -175.5 45zM547.5 779.5q4.5 -7.5 4.5 -16.5q0 -16 -11 -27.5t-28 -11.5q-15 0 -31 13l-93 87l-93 -87q-16 -13 -31 -13q-16 0 -27.5 11.5t-11.5 27.5q0 9 4.5 16.5t15.5 18.5l109 108
q15 15 34 15t34 -15l109 -108q11 -11 15.5 -18.5z" />
    <glyph glyph-name="Cdotaccent" unicode="&#x10a;" horiz-adv-x="717" 
d="M214.5 34q-79.5 45 -125.5 123t-46 173t46 173t125.5 123t175.5 45q76 0 144 -30.5t113 -84.5q17 -23 17 -42q0 -20 -14.5 -34t-34.5 -14q-24 0 -42 21q-72 87 -182 87q-68 0 -122 -31.5t-85 -87.5t-31 -125t31 -125t85 -87.5t122 -31.5q108 0 181 87q18 21 43 21
q20 0 34.5 -14t14.5 -34q0 -18 -18 -42q-44 -54 -111.5 -84.5t-144.5 -30.5q-96 0 -175.5 45zM439.5 863q20.5 -20 20.5 -48t-20.5 -48t-49.5 -20t-49.5 20t-20.5 48t20.5 48t49.5 20t49.5 -20z" />
    <glyph glyph-name="D" unicode="D" horiz-adv-x="692" 
d="M477.5 619q81.5 -41 126.5 -115.5t45 -172.5q0 -97 -45.5 -172.5t-127.5 -117t-187 -41.5h-151q-24 0 -39.5 15.5t-15.5 39.5v550q0 24 15.5 39.5t39.5 15.5h151q107 0 188.5 -41zM189 564v-469h99q75 0 132 29.5t88 83t31 123.5q0 107 -67.5 170t-183.5 63h-99z" />
    <glyph glyph-name="Eth" unicode="&#xd0;" horiz-adv-x="692" 
d="M477.5 619q81.5 -41 126.5 -115.5t45 -172.5q0 -97 -45.5 -172.5t-127.5 -117t-187 -41.5h-151q-24 0 -39.5 15.5t-15.5 39.5v210h-46q-20 0 -34 13t-14 32t14 32t34 13h46v250q0 24 15.5 39.5t39.5 15.5h151q107 0 188.5 -41zM420 124.5q57 29.5 88 83t31 123.5
q0 107 -67.5 170t-183.5 63h-99v-209h77q20 0 34 -13t14 -32t-14 -32t-34 -13h-77v-170h99q75 0 132 29.5z" />
    <glyph glyph-name="Dcaron" unicode="&#x10e;" horiz-adv-x="692" 
d="M477.5 619q81.5 -41 126.5 -115.5t45 -172.5q0 -97 -45.5 -172.5t-127.5 -117t-187 -41.5h-151q-24 0 -39.5 15.5t-15.5 39.5v550q0 24 15.5 39.5t39.5 15.5h151q107 0 188.5 -41zM189 564v-469h99q75 0 132 29.5t88 83t31 123.5q0 107 -67.5 170t-183.5 63h-99zM443 907
q11 -11 11 -28q0 -9 -4.5 -16.5t-15.5 -18.5l-109 -108q-15 -15 -34 -15t-34 15l-109 108q-11 11 -15.5 18.5t-4.5 16.5q0 17 11.5 28t27.5 11q15 0 31 -13l93 -87l93 87q16 13 31 13q17 0 28 -11z" />
    <glyph glyph-name="Dcroat" unicode="&#x110;" horiz-adv-x="692" 
d="M477.5 619q81.5 -41 126.5 -115.5t45 -172.5q0 -97 -45.5 -172.5t-127.5 -117t-187 -41.5h-151q-24 0 -39.5 15.5t-15.5 39.5v210h-46q-20 0 -34 13t-14 32t14 32t34 13h46v250q0 24 15.5 39.5t39.5 15.5h151q107 0 188.5 -41zM420 124.5q57 29.5 88 83t31 123.5
q0 107 -67.5 170t-183.5 63h-99v-209h77q20 0 34 -13t14 -32t-14 -32t-34 -13h-77v-170h99q75 0 132 29.5z" />
    <glyph glyph-name="E" unicode="E" horiz-adv-x="569" 
d="M97.5 14.5q-14.5 14.5 -14.5 36.5v558q0 22 14.5 36.5t36.5 14.5h339q21 0 35 -14t14 -34t-14 -33.5t-35 -13.5h-284v-169h205q20 0 33.5 -13t13.5 -33t-13.5 -33t-33.5 -13h-205v-209h296q21 0 35 -13.5t14 -33.5t-14 -34t-35 -14h-351q-22 0 -36.5 14.5z" />
    <glyph glyph-name="Eacute" unicode="&#xc9;" horiz-adv-x="569" 
d="M97.5 14.5q-14.5 14.5 -14.5 36.5v558q0 22 14.5 36.5t36.5 14.5h339q21 0 35 -14t14 -34t-14 -33.5t-35 -13.5h-284v-169h205q20 0 33.5 -13t13.5 -33t-13.5 -33t-33.5 -13h-205v-209h296q21 0 35 -13.5t14 -33.5t-14 -34t-35 -14h-351q-22 0 -36.5 14.5zM281.5 738
q-11.5 14 -11.5 32q0 10 5 22l58 112q15 28 48 28q22 0 37 -16t15 -37q0 -17 -10 -31l-67 -102q-8 -12 -19.5 -17.5t-22.5 -5.5q-21 1 -32.5 15z" />
    <glyph glyph-name="Ebreve" unicode="&#x114;" horiz-adv-x="569" 
d="M97.5 14.5q-14.5 14.5 -14.5 36.5v558q0 22 14.5 36.5t36.5 14.5h339q21 0 35 -14t14 -34t-14 -33.5t-35 -13.5h-284v-169h205q20 0 33.5 -13t13.5 -33t-13.5 -33t-33.5 -13h-205v-209h296q21 0 35 -13.5t14 -33.5t-14 -34t-35 -14h-351q-22 0 -36.5 14.5zM221.5 747.5
q-36.5 18.5 -59 49t-22.5 65.5q0 18 12 30.5t30 12.5q28 0 41 -35q9 -29 29 -45t47 -16q28 0 48.5 16t28.5 45q12 35 40 35q18 0 30 -12.5t12 -30.5q0 -34 -22 -65t-59 -49.5t-78 -18.5t-77.5 18.5z" />
    <glyph glyph-name="Ecaron" unicode="&#x11a;" horiz-adv-x="569" 
d="M97.5 14.5q-14.5 14.5 -14.5 36.5v558q0 22 14.5 36.5t36.5 14.5h339q21 0 35 -14t14 -34t-14 -33.5t-35 -13.5h-284v-169h205q20 0 33.5 -13t13.5 -33t-13.5 -33t-33.5 -13h-205v-209h296q21 0 35 -13.5t14 -33.5t-14 -34t-35 -14h-351q-22 0 -36.5 14.5zM451 907
q11 -11 11 -28q0 -9 -4.5 -16.5t-15.5 -18.5l-109 -108q-15 -15 -34 -15t-34 15l-109 108q-11 11 -15.5 18.5t-4.5 16.5q0 17 11.5 28t27.5 11q15 0 31 -13l93 -87l93 87q16 13 31 13q17 0 28 -11z" />
    <glyph glyph-name="Ecircumflex" unicode="&#xca;" horiz-adv-x="569" 
d="M97.5 14.5q-14.5 14.5 -14.5 36.5v558q0 22 14.5 36.5t36.5 14.5h339q21 0 35 -14t14 -34t-14 -33.5t-35 -13.5h-284v-169h205q20 0 33.5 -13t13.5 -33t-13.5 -33t-33.5 -13h-205v-209h296q21 0 35 -13.5t14 -33.5t-14 -34t-35 -14h-351q-22 0 -36.5 14.5zM456.5 776.5
q4.5 -7.5 4.5 -16.5q0 -16 -11 -27.5t-28 -11.5q-15 0 -31 13l-93 87l-93 -87q-16 -13 -31 -13q-16 0 -27.5 11.5t-11.5 27.5q0 9 4.5 16.5t15.5 18.5l109 108q15 15 34 15t34 -15l109 -108q11 -11 15.5 -18.5z" />
    <glyph glyph-name="Edieresis" unicode="&#xcb;" horiz-adv-x="569" 
d="M97.5 14.5q-14.5 14.5 -14.5 36.5v558q0 22 14.5 36.5t36.5 14.5h339q21 0 35 -14t14 -34t-14 -33.5t-35 -13.5h-284v-169h205q20 0 33.5 -13t13.5 -33t-13.5 -33t-33.5 -13h-205v-209h296q21 0 35 -13.5t14 -33.5t-14 -34t-35 -14h-351q-22 0 -36.5 14.5zM128.5 766.5
q-20.5 19.5 -20.5 45.5q0 27 20.5 46t47.5 19q28 0 47.5 -18.5t19.5 -46.5q0 -26 -19.5 -45.5t-47.5 -19.5q-27 0 -47.5 19.5zM373.5 765.5q-20.5 19.5 -20.5 45.5q0 27 20.5 46.5t46.5 19.5q29 0 48.5 -19t19.5 -47q0 -26 -20 -45.5t-48 -19.5q-26 0 -46.5 19.5z" />
    <glyph glyph-name="Edotaccent" unicode="&#x116;" horiz-adv-x="569" 
d="M97.5 14.5q-14.5 14.5 -14.5 36.5v558q0 22 14.5 36.5t36.5 14.5h339q21 0 35 -14t14 -34t-14 -33.5t-35 -13.5h-284v-169h205q20 0 33.5 -13t13.5 -33t-13.5 -33t-33.5 -13h-205v-209h296q21 0 35 -13.5t14 -33.5t-14 -34t-35 -14h-351q-22 0 -36.5 14.5zM348.5 860
q20.5 -20 20.5 -48t-20.5 -48t-49.5 -20t-49.5 20t-20.5 48t20.5 48t49.5 20t49.5 -20z" />
    <glyph glyph-name="Egrave" unicode="&#xc8;" horiz-adv-x="569" 
d="M97.5 14.5q-14.5 14.5 -14.5 36.5v558q0 22 14.5 36.5t36.5 14.5h339q21 0 35 -14t14 -34t-14 -33.5t-35 -13.5h-284v-169h205q20 0 33.5 -13t13.5 -33t-13.5 -33t-33.5 -13h-205v-209h296q21 0 35 -13.5t14 -33.5t-14 -34t-35 -14h-351q-22 0 -36.5 14.5zM261.5 728.5
q-11.5 5.5 -19.5 17.5l-67 102q-10 14 -10 31q0 21 15.5 37t36.5 16q33 0 48 -28l58 -112q5 -12 5 -22q0 -18 -11.5 -32t-32.5 -15q-11 0 -22.5 5.5z" />
    <glyph glyph-name="Emacron" unicode="&#x112;" horiz-adv-x="569" 
d="M97.5 14.5q-14.5 14.5 -14.5 36.5v558q0 22 14.5 36.5t36.5 14.5h339q21 0 35 -14t14 -34t-14 -33.5t-35 -13.5h-284v-169h205q20 0 33.5 -13t13.5 -33t-13.5 -33t-33.5 -13h-205v-209h296q21 0 35 -13.5t14 -33.5t-14 -34t-35 -14h-351q-22 0 -36.5 14.5zM446.5 836
q12.5 -12 12.5 -30t-12.5 -30.5t-30.5 -12.5h-233q-19 0 -31.5 12.5t-12.5 30.5t12.5 30t31.5 12h233q18 0 30.5 -12z" />
    <glyph glyph-name="Eogonek" unicode="&#x118;" horiz-adv-x="569" 
d="M524 -120q10 -10 10 -25q0 -30 -32 -39q-20 -7 -57 -7q-51 0 -82 25.5t-31 67.5q0 24 14.5 49.5t39.5 48.5h-252q-22 0 -36.5 14.5t-14.5 36.5v558q0 22 14.5 36.5t36.5 14.5h339q21 0 35 -14t14 -34t-14 -33.5t-35 -13.5h-284v-169h205q20 0 33.5 -13t13.5 -33
t-13.5 -33t-33.5 -13h-205v-209h296q21 0 35 -13.5t14 -33.5q0 -11 -5 -21q-3 -8 -12 -16l-42 -33q-26 -21 -35 -33t-9 -25q0 -14 12 -22.5t32 -8.5l25 1q14 0 24 -10z" />
    <glyph glyph-name="F" unicode="F" horiz-adv-x="529" 
d="M98 4.5q-15 15.5 -15 38.5v562q0 24 15.5 39.5t39.5 15.5h325q21 0 35 -14t14 -34t-14 -33.5t-35 -13.5h-274v-197h219q21 0 35 -14t14 -34t-14 -34t-35 -14h-219v-229q0 -23 -15 -38.5t-38 -15.5t-38 15.5z" />
    <glyph glyph-name="G" unicode="G" horiz-adv-x="746" 
d="M214.5 34q-79.5 45 -125.5 123t-46 173t46 173t125.5 123t176.5 45q73 0 140 -29t108 -79q25 -26 25 -49q0 -19 -14 -33.5t-35 -14.5q-13 0 -23 5.5t-23 19.5q-40 43 -82.5 63t-96.5 20q-68 0 -122 -31.5t-84.5 -86.5t-30.5 -125q0 -71 31 -127.5t86.5 -88t125.5 -31.5
q62 0 114 25t83 70v76h-157q-22 0 -37 13.5t-15 33.5t15 33.5t37 13.5h209q23 0 38.5 -15.5t15.5 -39.5v-96q0 -37 -18 -65q-46 -66 -124.5 -105t-165.5 -39q-97 0 -176.5 45z" />
    <glyph glyph-name="Gbreve" unicode="&#x11e;" horiz-adv-x="746" 
d="M214.5 34q-79.5 45 -125.5 123t-46 173t46 173t125.5 123t176.5 45q73 0 140 -29t108 -79q25 -26 25 -49q0 -19 -14 -33.5t-35 -14.5q-13 0 -23 5.5t-23 19.5q-40 43 -82.5 63t-96.5 20q-68 0 -122 -31.5t-84.5 -86.5t-30.5 -125q0 -71 31 -127.5t86.5 -88t125.5 -31.5
q62 0 114 25t83 70v76h-157q-22 0 -37 13.5t-15 33.5t15 33.5t37 13.5h209q23 0 38.5 -15.5t15.5 -39.5v-96q0 -37 -18 -65q-46 -66 -124.5 -105t-165.5 -39q-97 0 -176.5 45zM313.5 747.5q-36.5 18.5 -59 49t-22.5 65.5q0 18 12 30.5t30 12.5q28 0 41 -35q9 -29 29 -45
t47 -16q28 0 48.5 16t28.5 45q12 35 40 35q18 0 30 -12.5t12 -30.5q0 -34 -22 -65t-59 -49.5t-78 -18.5t-77.5 18.5z" />
    <glyph glyph-name="Gcircumflex" unicode="&#x11c;" horiz-adv-x="746" 
d="M214.5 34q-79.5 45 -125.5 123t-46 173t46 173t125.5 123t176.5 45q73 0 140 -29t108 -79q25 -26 25 -49q0 -19 -14 -33.5t-35 -14.5q-13 0 -23 5.5t-23 19.5q-40 43 -82.5 63t-96.5 20q-68 0 -122 -31.5t-84.5 -86.5t-30.5 -125q0 -71 31 -127.5t86.5 -88t125.5 -31.5
q62 0 114 25t83 70v76h-157q-22 0 -37 13.5t-15 33.5t15 33.5t37 13.5h209q23 0 38.5 -15.5t15.5 -39.5v-96q0 -37 -18 -65q-46 -66 -124.5 -105t-165.5 -39q-97 0 -176.5 45zM548.5 776.5q4.5 -7.5 4.5 -16.5q0 -16 -11 -27.5t-28 -11.5q-15 0 -31 13l-93 87l-93 -87
q-16 -13 -31 -13q-16 0 -27.5 11.5t-11.5 27.5q0 9 4.5 16.5t15.5 18.5l109 108q15 15 34 15t34 -15l109 -108q11 -11 15.5 -18.5z" />
    <glyph glyph-name="Gcommaaccent" unicode="&#x122;" horiz-adv-x="746" 
d="M214.5 34q-79.5 45 -125.5 123t-46 173t46 173t125.5 123t176.5 45q73 0 140 -29t108 -79q25 -26 25 -49q0 -19 -14 -33.5t-35 -14.5q-13 0 -23 5.5t-23 19.5q-40 43 -82.5 63t-96.5 20q-68 0 -122 -31.5t-84.5 -86.5t-30.5 -125q0 -71 31 -127.5t86.5 -88t125.5 -31.5
q62 0 114 25t83 70v76h-157q-22 0 -37 13.5t-15 33.5t15 33.5t37 13.5h209q23 0 38.5 -15.5t15.5 -39.5v-96q0 -37 -18 -65q-46 -66 -124.5 -105t-165.5 -39q-97 0 -176.5 45zM333 -223.5q-14 13.5 -14 30.5q0 8 4 28q9 34 9 68q0 22 15.5 37.5t37.5 15.5t37.5 -15.5
t15.5 -37.5q0 -29 -8.5 -59t-19.5 -48q-19 -33 -45 -33q-18 0 -32 13.5z" />
    <glyph glyph-name="Gdotaccent" unicode="&#x120;" horiz-adv-x="746" 
d="M214.5 34q-79.5 45 -125.5 123t-46 173t46 173t125.5 123t176.5 45q73 0 140 -29t108 -79q25 -26 25 -49q0 -19 -14 -33.5t-35 -14.5q-13 0 -23 5.5t-23 19.5q-40 43 -82.5 63t-96.5 20q-68 0 -122 -31.5t-84.5 -86.5t-30.5 -125q0 -71 31 -127.5t86.5 -88t125.5 -31.5
q62 0 114 25t83 70v76h-157q-22 0 -37 13.5t-15 33.5t15 33.5t37 13.5h209q23 0 38.5 -15.5t15.5 -39.5v-96q0 -37 -18 -65q-46 -66 -124.5 -105t-165.5 -39q-97 0 -176.5 45zM440.5 860q20.5 -20 20.5 -48t-20.5 -48t-49.5 -20t-49.5 20t-20.5 48t20.5 48t49.5 20t49.5 -20
z" />
    <glyph glyph-name="H" unicode="H" horiz-adv-x="710" 
d="M98 4.5q-15 15.5 -15 38.5v574q0 23 15 38.5t38 15.5t38 -15.5t15 -38.5v-220h332v220q0 23 15 38.5t38 15.5t38 -15.5t15 -38.5v-574q0 -23 -15 -38.5t-38 -15.5t-38 15.5t-15 38.5v259h-332v-259q0 -23 -15 -38.5t-38 -15.5t-38 15.5z" />
    <glyph glyph-name="Hbar" unicode="&#x126;" horiz-adv-x="725" 
d="M105 4.5q-15 15.5 -15 38.5v405h-56q-19 0 -32 13t-13 32t13 31.5t32 12.5h56v80q0 23 15 38.5t38 15.5t38 -15.5t15 -38.5v-80h332v80q0 23 15 38.5t38 15.5t38 -15.5t15 -38.5v-80h56q20 0 33 -12.5t13 -31.5t-13 -32t-33 -13h-56v-405q0 -23 -15 -38.5t-38 -15.5
t-38 15.5t-15 38.5v191h-332v-191q0 -23 -15 -38.5t-38 -15.5t-38 15.5zM528 327v121h-332v-121h332z" />
    <glyph glyph-name="Hcircumflex" unicode="&#x124;" horiz-adv-x="710" 
d="M98 4.5q-15 15.5 -15 38.5v574q0 23 15 38.5t38 15.5t38 -15.5t15 -38.5v-220h332v220q0 23 15 38.5t38 15.5t38 -15.5t15 -38.5v-574q0 -23 -15 -38.5t-38 -15.5t-38 15.5t-15 38.5v259h-332v-259q0 -23 -15 -38.5t-38 -15.5t-38 15.5zM512.5 776.5q4.5 -7.5 4.5 -16.5
q0 -16 -11 -27.5t-28 -11.5q-15 0 -31 13l-93 87l-93 -87q-16 -13 -31 -13q-16 0 -27.5 11.5t-11.5 27.5q0 9 4.5 16.5t15.5 18.5l109 108q15 15 34 15t34 -15l109 -108q11 -11 15.5 -18.5z" />
    <glyph glyph-name="I" unicode="I" horiz-adv-x="272" 
d="M98 4.5q-15 15.5 -15 38.5v574q0 23 15 38.5t38 15.5t38 -15.5t15 -38.5v-574q0 -23 -15 -38.5t-38 -15.5t-38 15.5z" />
    <glyph glyph-name="IJ" unicode="&#x132;" horiz-adv-x="653" 
d="M98 4.5q-15 15.5 -15 38.5v574q0 23 15 38.5t38 15.5t38 -15.5t15 -38.5v-574q0 -23 -15 -38.5t-38 -15.5t-38 15.5zM317 -3q-15 5 -24.5 18t-9.5 29q0 20 14.5 34t36.5 14q9 0 27 -2q13 -3 31 -3q34 0 53 21.5t19 59.5v449q0 23 15 38.5t38 15.5t38 -15.5t15 -38.5v-453
q0 -85 -48.5 -130t-140.5 -45q-41 0 -64 8z" />
    <glyph glyph-name="Iacute" unicode="&#xcd;" horiz-adv-x="272" 
d="M98 4.5q-15 15.5 -15 38.5v574q0 23 15 38.5t38 15.5t38 -15.5t15 -38.5v-574q0 -23 -15 -38.5t-38 -15.5t-38 15.5zM119.5 738q-11.5 14 -11.5 32q0 10 5 22l58 112q15 28 48 28q22 0 37 -16t15 -37q0 -17 -10 -31l-67 -102q-8 -12 -19.5 -17.5t-22.5 -5.5
q-21 1 -32.5 15z" />
    <glyph glyph-name="Ibreve" unicode="&#x12c;" horiz-adv-x="272" 
d="M98 4.5q-15 15.5 -15 38.5v574q0 23 15 38.5t38 15.5t38 -15.5t15 -38.5v-574q0 -23 -15 -38.5t-38 -15.5t-38 15.5zM59.5 747.5q-36.5 18.5 -59 49t-22.5 65.5q0 18 12 30.5t30 12.5q28 0 41 -35q9 -29 29 -45t47 -16q28 0 48.5 16t28.5 45q12 35 40 35q18 0 30 -12.5
t12 -30.5q0 -34 -22 -65t-59 -49.5t-78 -18.5t-77.5 18.5z" />
    <glyph glyph-name="Icircumflex" unicode="&#xce;" horiz-adv-x="272" 
d="M98 4.5q-15 15.5 -15 38.5v574q0 23 15 38.5t38 15.5t38 -15.5t15 -38.5v-574q0 -23 -15 -38.5t-38 -15.5t-38 15.5zM294.5 776.5q4.5 -7.5 4.5 -16.5q0 -16 -11 -27.5t-28 -11.5q-15 0 -31 13l-93 87l-93 -87q-16 -13 -31 -13q-16 0 -27.5 11.5t-11.5 27.5q0 9 4.5 16.5
t15.5 18.5l109 108q15 15 34 15t34 -15l109 -108q11 -11 15.5 -18.5z" />
    <glyph glyph-name="Idieresis" unicode="&#xcf;" horiz-adv-x="272" 
d="M98 4.5q-15 15.5 -15 38.5v574q0 23 15 38.5t38 15.5t38 -15.5t15 -38.5v-574q0 -23 -15 -38.5t-38 -15.5t-38 15.5zM-33.5 766.5q-20.5 19.5 -20.5 45.5q0 27 20.5 46t47.5 19q28 0 47.5 -18.5t19.5 -46.5q0 -26 -19.5 -45.5t-47.5 -19.5q-27 0 -47.5 19.5zM211.5 765.5
q-20.5 19.5 -20.5 45.5q0 27 20.5 46.5t46.5 19.5q29 0 48.5 -19t19.5 -47q0 -26 -20 -45.5t-48 -19.5q-26 0 -46.5 19.5z" />
    <glyph glyph-name="Idotaccent" unicode="&#x130;" horiz-adv-x="272" 
d="M98 4.5q-15 15.5 -15 38.5v574q0 23 15 38.5t38 15.5t38 -15.5t15 -38.5v-574q0 -23 -15 -38.5t-38 -15.5t-38 15.5zM186.5 860q20.5 -20 20.5 -48t-20.5 -48t-49.5 -20t-49.5 20t-20.5 48t20.5 48t49.5 20t49.5 -20z" />
    <glyph glyph-name="Igrave" unicode="&#xcc;" horiz-adv-x="272" 
d="M98 4.5q-15 15.5 -15 38.5v574q0 23 15 38.5t38 15.5t38 -15.5t15 -38.5v-574q0 -23 -15 -38.5t-38 -15.5t-38 15.5zM99.5 728.5q-11.5 5.5 -19.5 17.5l-67 102q-10 14 -10 31q0 21 15.5 37t36.5 16q33 0 48 -28l58 -112q5 -12 5 -22q0 -18 -11.5 -32t-32.5 -15
q-11 0 -22.5 5.5z" />
    <glyph glyph-name="Imacron" unicode="&#x12a;" horiz-adv-x="272" 
d="M98 4.5q-15 15.5 -15 38.5v574q0 23 15 38.5t38 15.5t38 -15.5t15 -38.5v-574q0 -23 -15 -38.5t-38 -15.5t-38 15.5zM284.5 836q12.5 -12 12.5 -30t-12.5 -30.5t-30.5 -12.5h-233q-19 0 -31.5 12.5t-12.5 30.5t12.5 30t31.5 12h233q18 0 30.5 -12z" />
    <glyph glyph-name="Iogonek" unicode="&#x12e;" horiz-adv-x="272" 
d="M98 4.5q-15 15.5 -15 38.5v574q0 23 15 38.5t38 15.5t38 -15.5t15 -38.5v-574q0 -23 -15 -38.5t-38 -15.5t-38 15.5zM34 -164.5q-31 26.5 -31 71.5q0 35 19.5 61.5t63.5 61.5q23 18 39.5 27t30.5 9q13 0 23 -9t10 -21q0 -22 -24 -40q-29 -22 -46 -39.5t-17 -36.5
q0 -14 11.5 -22.5t32.5 -8.5l25 1q15 0 24.5 -10t9.5 -26q0 -29 -32 -38q-20 -7 -57 -7q-51 0 -82 26.5z" />
    <glyph glyph-name="Itilde" unicode="&#x128;" horiz-adv-x="272" 
d="M98 4.5q-15 15.5 -15 38.5v574q0 23 15 38.5t38 15.5t38 -15.5t15 -38.5v-574q0 -23 -15 -38.5t-38 -15.5t-38 15.5zM-33 742q-12 13 -12 34q0 49 28.5 81.5t72.5 32.5q37 0 72 -22l33 -20q12 -7 23 -12.5t20 -5.5q25 0 30 28q2 16 13 26t28 10q19 0 31.5 -13t12.5 -33
q0 -50 -29 -82.5t-73 -32.5q-34 0 -72 22l-32 20q-4 2 -13.5 7.5t-16.5 8t-14 2.5q-26 0 -29 -28q-3 -17 -14 -26.5t-27 -9.5q-20 0 -32 13z" />
    <glyph glyph-name="J" unicode="J" horiz-adv-x="381" 
d="M45 -3q-15 5 -24.5 18t-9.5 29q0 20 14.5 34t36.5 14q9 0 27 -2q13 -3 31 -3q34 0 53 21.5t19 59.5v449q0 23 15 38.5t38 15.5t38 -15.5t15 -38.5v-453q0 -85 -48.5 -130t-140.5 -45q-41 0 -64 8z" />
    <glyph glyph-name="Jcircumflex" unicode="&#x134;" horiz-adv-x="381" 
d="M45 -3q-15 5 -24.5 18t-9.5 29q0 20 14.5 34t36.5 14q9 0 27 -2q13 -3 31 -3q34 0 53 21.5t19 59.5v449q0 23 15 38.5t38 15.5t38 -15.5t15 -38.5v-453q0 -85 -48.5 -130t-140.5 -45q-41 0 -64 8zM389.5 776.5q4.5 -7.5 4.5 -16.5q0 -16 -11 -27.5t-28 -11.5
q-15 0 -31 13l-93 87l-93 -87q-16 -13 -31 -13q-16 0 -27.5 11.5t-11.5 27.5q0 9 4.5 16.5t15.5 18.5l109 108q15 15 34 15t34 -15l109 -108q11 -11 15.5 -18.5z" />
    <glyph glyph-name="K" unicode="K" horiz-adv-x="651" 
d="M174 655.5q15 -15.5 15 -38.5v-574q0 -23 -15 -38.5t-38 -15.5t-38 15.5t-15 38.5v574q0 23 15 38.5t38 15.5t38 -15.5zM604 38q0 -20 -14.5 -34.5t-34.5 -14.5q-23 0 -43 21l-283 306q-16 18 -16 36q0 17 16 35l263 265q19 19 39 19t34 -14t14 -34t-18 -39l-231 -232
l257 -279q17 -17 17 -35z" />
    <glyph glyph-name="Kcommaaccent" unicode="&#x136;" horiz-adv-x="651" 
d="M174 655.5q15 -15.5 15 -38.5v-574q0 -23 -15 -38.5t-38 -15.5t-38 15.5t-15 38.5v574q0 23 15 38.5t38 15.5t38 -15.5zM604 38q0 -20 -14.5 -34.5t-34.5 -14.5q-23 0 -43 21l-283 306q-16 18 -16 36q0 17 16 35l263 265q19 19 39 19t34 -14t14 -34t-18 -39l-231 -232
l257 -279q17 -17 17 -35zM264 -223.5q-14 13.5 -14 30.5q0 8 4 28q9 34 9 68q0 22 15.5 37.5t37.5 15.5t37.5 -15.5t15.5 -37.5q0 -29 -8.5 -59t-19.5 -48q-19 -33 -45 -33q-18 0 -32 13.5z" />
    <glyph glyph-name="L" unicode="L" horiz-adv-x="515" 
d="M98.5 15.5q-15.5 15.5 -15.5 39.5v562q0 23 15 38.5t38 15.5t38 -15.5t15 -38.5v-522h259q21 0 34.5 -13.5t13.5 -33.5t-13.5 -34t-34.5 -14h-310q-24 0 -39.5 15.5z" />
    <glyph glyph-name="Lacute" unicode="&#x139;" horiz-adv-x="515" 
d="M98.5 15.5q-15.5 15.5 -15.5 39.5v562q0 23 15 38.5t38 15.5t38 -15.5t15 -38.5v-522h259q21 0 34.5 -13.5t13.5 -33.5t-13.5 -34t-34.5 -14h-310q-24 0 -39.5 15.5zM118.5 738q-11.5 14 -11.5 32q0 10 5 22l58 112q15 28 48 28q22 0 37 -16t15 -37q0 -17 -10 -31
l-67 -102q-8 -12 -19.5 -17.5t-22.5 -5.5q-21 1 -32.5 15z" />
    <glyph glyph-name="Lcaron" unicode="&#x13d;" horiz-adv-x="515" 
d="M98.5 15.5q-15.5 15.5 -15.5 39.5v562q0 23 15 38.5t38 15.5t38 -15.5t15 -38.5v-522h259q21 0 34.5 -13.5t13.5 -33.5t-13.5 -34t-34.5 -14h-310q-24 0 -39.5 15.5zM379 518q-14 14 -14 35l1 9l19 129q2 20 17.5 34.5t36.5 14.5t37 -14.5t16 -37.5q0 -9 -3 -20l-32 -129
q-4 -13 -15 -24t-30 -11t-33 14z" />
    <glyph glyph-name="Lcommaaccent" unicode="&#x13b;" horiz-adv-x="515" 
d="M98.5 15.5q-15.5 15.5 -15.5 39.5v562q0 23 15 38.5t38 15.5t38 -15.5t15 -38.5v-522h259q21 0 34.5 -13.5t13.5 -33.5t-13.5 -34t-34.5 -14h-310q-24 0 -39.5 15.5zM226 -223.5q-14 13.5 -14 30.5q0 8 4 28q9 34 9 68q0 22 15.5 37.5t37.5 15.5t37.5 -15.5t15.5 -37.5
q0 -29 -8.5 -59t-19.5 -48q-19 -33 -45 -33q-18 0 -32 13.5z" />
    <glyph glyph-name="Ldot" unicode="&#x13f;" horiz-adv-x="515" 
d="M98.5 15.5q-15.5 15.5 -15.5 39.5v562q0 23 15 38.5t38 15.5t38 -15.5t15 -38.5v-522h259q21 0 34.5 -13.5t13.5 -33.5t-13.5 -34t-34.5 -14h-310q-24 0 -39.5 15.5zM339 318.5q-23 22.5 -23 54.5t23 55t56 23q32 0 54.5 -23t22.5 -55t-22.5 -54.5t-54.5 -22.5
q-33 0 -56 22.5z" />
    <glyph glyph-name="Lslash" unicode="&#x141;" horiz-adv-x="515" 
d="M482.5 81.5q13.5 -13.5 13.5 -33.5t-13.5 -34t-34.5 -14h-310q-24 0 -39.5 15.5t-15.5 39.5v174l-13 -6q-12 -5 -22 -5q-19 0 -32.5 12t-13.5 31q0 31 34 46l47 21v289q0 23 15 38.5t38 15.5t38 -15.5t15 -38.5v-248l148 68q12 5 22 5q19 0 32.5 -12t13.5 -31
q0 -31 -34 -46l-182 -82v-176h259q21 0 34.5 -13.5z" />
    <glyph glyph-name="M" unicode="M" horiz-adv-x="792" 
d="M694.5 655.5q14.5 -15.5 14.5 -38.5v-574q0 -23 -15 -38.5t-38 -15.5t-38 15.5t-15 38.5v402l-154 -242q-12 -19 -24.5 -27t-28.5 -8q-17 0 -29.5 8t-23.5 27l-154 242v-402q0 -23 -15 -38.5t-38 -15.5t-38 15.5t-15 38.5v574q0 23 14.5 38.5t36.5 15.5q18 0 30.5 -9.5
t27.5 -33.5l204 -320l204 320q15 24 27.5 33.5t30.5 9.5q22 0 36.5 -15.5z" />
    <glyph glyph-name="N" unicode="N" horiz-adv-x="710" 
d="M612 655.5q15 -15.5 15 -38.5v-576q0 -22 -15 -37t-37 -15q-15 0 -26.5 7.5t-23.5 22.5l-336 443v-419q0 -23 -15 -38.5t-38 -15.5t-38 15.5t-15 38.5v576q0 22 15 37t37 15q17 0 28 -8t25 -27l334 -437l-1 418q0 23 15 38.5t38 15.5t38 -15.5z" />
    <glyph glyph-name="Nacute" unicode="&#x143;" horiz-adv-x="710" 
d="M612 655.5q15 -15.5 15 -38.5v-576q0 -22 -15 -37t-37 -15q-15 0 -26.5 7.5t-23.5 22.5l-336 443v-419q0 -23 -15 -38.5t-38 -15.5t-38 15.5t-15 38.5v576q0 22 15 37t37 15q17 0 28 -8t25 -27l334 -437l-1 418q0 23 15 38.5t38 15.5t38 -15.5zM337.5 738
q-11.5 14 -11.5 32q0 10 5 22l58 112q15 28 48 28q22 0 37 -16t15 -37q0 -17 -10 -31l-67 -102q-8 -12 -19.5 -17.5t-22.5 -5.5q-21 1 -32.5 15z" />
    <glyph glyph-name="Ncaron" unicode="&#x147;" horiz-adv-x="710" 
d="M612 655.5q15 -15.5 15 -38.5v-576q0 -22 -15 -37t-37 -15q-15 0 -26.5 7.5t-23.5 22.5l-336 443v-419q0 -23 -15 -38.5t-38 -15.5t-38 15.5t-15 38.5v576q0 22 15 37t37 15q17 0 28 -8t25 -27l334 -437l-1 418q0 23 15 38.5t38 15.5t38 -15.5zM507 907q11 -11 11 -28
q0 -9 -4.5 -16.5t-15.5 -18.5l-109 -108q-15 -15 -34 -15t-34 15l-109 108q-11 11 -15.5 18.5t-4.5 16.5q0 17 11.5 28t27.5 11q15 0 31 -13l93 -87l93 87q16 13 31 13q17 0 28 -11z" />
    <glyph glyph-name="Ncommaaccent" unicode="&#x145;" horiz-adv-x="710" 
d="M612 655.5q15 -15.5 15 -38.5v-576q0 -22 -15 -37t-37 -15q-15 0 -26.5 7.5t-23.5 22.5l-336 443v-419q0 -23 -15 -38.5t-38 -15.5t-38 15.5t-15 38.5v576q0 22 15 37t37 15q17 0 28 -8t25 -27l334 -437l-1 418q0 23 15 38.5t38 15.5t38 -15.5zM301 -223.5
q-14 13.5 -14 30.5q0 8 4 28q9 34 9 68q0 22 15.5 37.5t37.5 15.5t37.5 -15.5t15.5 -37.5q0 -29 -8.5 -59t-19.5 -48q-19 -33 -45 -33q-18 0 -32 13.5z" />
    <glyph glyph-name="Eng" unicode="&#x14a;" horiz-adv-x="710" 
d="M612 655.5q15 -15.5 15 -38.5v-637q0 -83 -44.5 -127t-129.5 -44q-35 0 -52 7q-14 6 -21.5 17.5t-7.5 25.5q0 21 14 35t36 14h14q44 0 64.5 19.5t20.5 59.5v37l-332 438v-419q0 -23 -15 -38.5t-38 -15.5t-38 15.5t-15 38.5v576q0 22 15 37t37 15q17 0 28 -8t25 -27
l334 -437l-1 418q0 23 15 38.5t38 15.5t38 -15.5z" />
    <glyph glyph-name="Ntilde" unicode="&#xd1;" horiz-adv-x="710" 
d="M612 655.5q15 -15.5 15 -38.5v-576q0 -22 -15 -37t-37 -15q-15 0 -26.5 7.5t-23.5 22.5l-336 443v-419q0 -23 -15 -38.5t-38 -15.5t-38 15.5t-15 38.5v576q0 22 15 37t37 15q17 0 28 -8t25 -27l334 -437l-1 418q0 23 15 38.5t38 15.5t38 -15.5zM185 742q-12 13 -12 34
q0 49 28.5 81.5t72.5 32.5q37 0 72 -22l33 -20q12 -7 23 -12.5t20 -5.5q25 0 30 28q2 16 13 26t28 10q19 0 31.5 -13t12.5 -33q0 -50 -29 -82.5t-73 -32.5q-34 0 -72 22l-32 20q-4 2 -13.5 7.5t-16.5 8t-14 2.5q-26 0 -29 -28q-3 -17 -14 -26.5t-27 -9.5q-20 0 -32 13z" />
    <glyph glyph-name="O" unicode="O" horiz-adv-x="780" 
d="M564 625.5q80 -45.5 126 -123.5t46 -172t-46 -172t-125.5 -123.5t-175.5 -45.5t-175 45.5t-125 123.5t-46 172t46 172t125 123.5t175 45.5q95 0 175 -45.5zM268 542.5q-54 -31.5 -84.5 -87t-30.5 -124.5q0 -70 30.5 -126t84.5 -87.5t122 -31.5q67 0 121 32t85 87.5
t31 125.5q0 69 -31 124.5t-85 87t-121 31.5q-68 0 -122 -31.5z" />
    <glyph glyph-name="Oacute" unicode="&#xd3;" horiz-adv-x="780" 
d="M564 625.5q80 -45.5 126 -123.5t46 -172t-46 -172t-125.5 -123.5t-175.5 -45.5t-175 45.5t-125 123.5t-46 172t46 172t125 123.5t175 45.5q95 0 175 -45.5zM268 542.5q-54 -31.5 -84.5 -87t-30.5 -124.5q0 -70 30.5 -126t84.5 -87.5t122 -31.5q67 0 121 32t85 87.5
t31 125.5q0 69 -31 124.5t-85 87t-121 31.5q-68 0 -122 -31.5zM372.5 738q-11.5 14 -11.5 32q0 10 5 22l58 112q15 28 48 28q22 0 37 -16t15 -37q0 -17 -10 -31l-67 -102q-8 -12 -19.5 -17.5t-22.5 -5.5q-21 1 -32.5 15z" />
    <glyph glyph-name="Obreve" unicode="&#x14e;" horiz-adv-x="780" 
d="M564 625.5q80 -45.5 126 -123.5t46 -172t-46 -172t-125.5 -123.5t-175.5 -45.5t-175 45.5t-125 123.5t-46 172t46 172t125 123.5t175 45.5q95 0 175 -45.5zM268 542.5q-54 -31.5 -84.5 -87t-30.5 -124.5q0 -70 30.5 -126t84.5 -87.5t122 -31.5q67 0 121 32t85 87.5
t31 125.5q0 69 -31 124.5t-85 87t-121 31.5q-68 0 -122 -31.5zM312.5 747.5q-36.5 18.5 -59 49t-22.5 65.5q0 18 12 30.5t30 12.5q28 0 41 -35q9 -29 29 -45t47 -16q28 0 48.5 16t28.5 45q12 35 40 35q18 0 30 -12.5t12 -30.5q0 -34 -22 -65t-59 -49.5t-78 -18.5t-77.5 18.5
z" />
    <glyph glyph-name="Ocircumflex" unicode="&#xd4;" horiz-adv-x="780" 
d="M564 625.5q80 -45.5 126 -123.5t46 -172t-46 -172t-125.5 -123.5t-175.5 -45.5t-175 45.5t-125 123.5t-46 172t46 172t125 123.5t175 45.5q95 0 175 -45.5zM268 542.5q-54 -31.5 -84.5 -87t-30.5 -124.5q0 -70 30.5 -126t84.5 -87.5t122 -31.5q67 0 121 32t85 87.5
t31 125.5q0 69 -31 124.5t-85 87t-121 31.5q-68 0 -122 -31.5zM547.5 776.5q4.5 -7.5 4.5 -16.5q0 -16 -11 -27.5t-28 -11.5q-15 0 -31 13l-93 87l-93 -87q-16 -13 -31 -13q-16 0 -27.5 11.5t-11.5 27.5q0 9 4.5 16.5t15.5 18.5l109 108q15 15 34 15t34 -15l109 -108
q11 -11 15.5 -18.5z" />
    <glyph glyph-name="Odieresis" unicode="&#xd6;" horiz-adv-x="780" 
d="M564 625.5q80 -45.5 126 -123.5t46 -172t-46 -172t-125.5 -123.5t-175.5 -45.5t-175 45.5t-125 123.5t-46 172t46 172t125 123.5t175 45.5q95 0 175 -45.5zM268 542.5q-54 -31.5 -84.5 -87t-30.5 -124.5q0 -70 30.5 -126t84.5 -87.5t122 -31.5q67 0 121 32t85 87.5
t31 125.5q0 69 -31 124.5t-85 87t-121 31.5q-68 0 -122 -31.5zM219.5 766.5q-20.5 19.5 -20.5 45.5q0 27 20.5 46t47.5 19q28 0 47.5 -18.5t19.5 -46.5q0 -26 -19.5 -45.5t-47.5 -19.5q-27 0 -47.5 19.5zM464.5 765.5q-20.5 19.5 -20.5 45.5q0 27 20.5 46.5t46.5 19.5
q29 0 48.5 -19t19.5 -47q0 -26 -20 -45.5t-48 -19.5q-26 0 -46.5 19.5z" />
    <glyph glyph-name="Ograve" unicode="&#xd2;" horiz-adv-x="780" 
d="M564 625.5q80 -45.5 126 -123.5t46 -172t-46 -172t-125.5 -123.5t-175.5 -45.5t-175 45.5t-125 123.5t-46 172t46 172t125 123.5t175 45.5q95 0 175 -45.5zM268 542.5q-54 -31.5 -84.5 -87t-30.5 -124.5q0 -70 30.5 -126t84.5 -87.5t122 -31.5q67 0 121 32t85 87.5
t31 125.5q0 69 -31 124.5t-85 87t-121 31.5q-68 0 -122 -31.5zM352.5 728.5q-11.5 5.5 -19.5 17.5l-67 102q-10 14 -10 31q0 21 15.5 37t36.5 16q33 0 48 -28l58 -112q5 -12 5 -22q0 -18 -11.5 -32t-32.5 -15q-11 0 -22.5 5.5z" />
    <glyph glyph-name="Ohungarumlaut" unicode="&#x150;" horiz-adv-x="780" 
d="M564 625.5q80 -45.5 126 -123.5t46 -172t-46 -172t-125.5 -123.5t-175.5 -45.5t-175 45.5t-125 123.5t-46 172t46 172t125 123.5t175 45.5q95 0 175 -45.5zM268 542.5q-54 -31.5 -84.5 -87t-30.5 -124.5q0 -70 30.5 -126t84.5 -87.5t122 -31.5q67 0 121 32t85 87.5
t31 125.5q0 69 -31 124.5t-85 87t-121 31.5q-68 0 -122 -31.5zM267.5 738q-11.5 14 -11.5 32q0 10 5 22l58 112q15 28 48 28q22 0 37 -16t15 -37q0 -17 -10 -31l-67 -102q-8 -12 -19.5 -17.5t-22.5 -5.5q-21 1 -32.5 15zM465.5 738q-11.5 14 -11.5 32q0 10 5 22l58 112
q15 28 48 28q22 0 37 -16t15 -37q0 -17 -10 -31l-67 -102q-8 -12 -19.5 -17.5t-22.5 -5.5q-21 1 -32.5 15z" />
    <glyph glyph-name="Omacron" unicode="&#x14c;" horiz-adv-x="780" 
d="M564 625.5q80 -45.5 126 -123.5t46 -172t-46 -172t-125.5 -123.5t-175.5 -45.5t-175 45.5t-125 123.5t-46 172t46 172t125 123.5t175 45.5q95 0 175 -45.5zM268 542.5q-54 -31.5 -84.5 -87t-30.5 -124.5q0 -70 30.5 -126t84.5 -87.5t122 -31.5q67 0 121 32t85 87.5
t31 125.5q0 69 -31 124.5t-85 87t-121 31.5q-68 0 -122 -31.5zM537.5 836q12.5 -12 12.5 -30t-12.5 -30.5t-30.5 -12.5h-233q-19 0 -31.5 12.5t-12.5 30.5t12.5 30t31.5 12h233q18 0 30.5 -12z" />
    <glyph glyph-name="Oslash" unicode="&#xd8;" horiz-adv-x="781" 
d="M718 443q19 -54 19 -113q0 -94 -46 -172t-125.5 -123.5t-175.5 -45.5q-58 0 -111.5 17.5t-97.5 49.5l-51 -51q-16 -16 -36 -16q-18 0 -31 13t-13 31q0 20 16 36l50 50q-34 44 -53 98t-19 113q0 94 46 172t125 123.5t175 45.5q58 0 111.5 -17.5t97.5 -50.5l52 52
q16 16 36 16q18 0 31 -13t13 -31q0 -20 -15 -35l-52 -52q35 -43 54 -97zM188 191l343 344q-62 43 -140 43q-69 0 -124 -32t-86.5 -88.5t-31.5 -126.5q0 -79 39 -140zM514 114.5q55 32.5 86.5 89.5t31.5 127q0 77 -39 138l-343 -344q62 -43 141 -43q68 0 123 32.5z" />
    <glyph glyph-name="Oslashacute" unicode="&#x1fe;" horiz-adv-x="781" 
d="M718 443q19 -54 19 -113q0 -94 -46 -172t-125.5 -123.5t-175.5 -45.5q-58 0 -111.5 17.5t-97.5 49.5l-51 -51q-16 -16 -36 -16q-18 0 -31 13t-13 31q0 20 16 36l50 50q-34 44 -53 98t-19 113q0 94 46 172t125 123.5t175 45.5q58 0 111.5 -17.5t97.5 -50.5l52 52
q16 16 36 16q18 0 31 -13t13 -31q0 -20 -15 -35l-52 -52q35 -43 54 -97zM188 191l343 344q-62 43 -140 43q-69 0 -124 -32t-86.5 -88.5t-31.5 -126.5q0 -79 39 -140zM514 114.5q55 32.5 86.5 89.5t31.5 127q0 77 -39 138l-343 -344q62 -43 141 -43q68 0 123 32.5zM373.5 738
q-11.5 14 -11.5 32q0 10 5 22l58 112q15 28 48 28q22 0 37 -16t15 -37q0 -17 -10 -31l-67 -102q-8 -12 -19.5 -17.5t-22.5 -5.5q-21 1 -32.5 15z" />
    <glyph glyph-name="Otilde" unicode="&#xd5;" horiz-adv-x="780" 
d="M564 625.5q80 -45.5 126 -123.5t46 -172t-46 -172t-125.5 -123.5t-175.5 -45.5t-175 45.5t-125 123.5t-46 172t46 172t125 123.5t175 45.5q95 0 175 -45.5zM268 542.5q-54 -31.5 -84.5 -87t-30.5 -124.5q0 -70 30.5 -126t84.5 -87.5t122 -31.5q67 0 121 32t85 87.5
t31 125.5q0 69 -31 124.5t-85 87t-121 31.5q-68 0 -122 -31.5zM220 742q-12 13 -12 34q0 49 28.5 81.5t72.5 32.5q37 0 72 -22l33 -20q12 -7 23 -12.5t20 -5.5q25 0 30 28q2 16 13 26t28 10q19 0 31.5 -13t12.5 -33q0 -50 -29 -82.5t-73 -32.5q-34 0 -72 22l-32 20
q-4 2 -13.5 7.5t-16.5 8t-14 2.5q-26 0 -29 -28q-3 -17 -14 -26.5t-27 -9.5q-20 0 -32 13z" />
    <glyph glyph-name="OE" unicode="&#x152;" horiz-adv-x="1113" 
d="M1064 81.5q14 -13.5 14 -33.5t-14 -34t-35 -14h-351q-22 0 -36.5 14.5t-14.5 36.5v46q-40 -51 -102.5 -79.5t-137.5 -28.5q-95 0 -174 45t-124.5 123t-45.5 173t45.5 173t124.5 123t175 45q74 0 136.5 -28t102.5 -79v45q0 22 14.5 36.5t36.5 14.5h339q21 0 35 -14t14 -34
t-14 -33.5t-35 -13.5h-284v-169h205q20 0 33.5 -13t13.5 -33t-13.5 -33t-33.5 -13h-205v-209h296q21 0 35 -13.5zM510.5 117.5q54.5 31.5 85.5 87.5t31 125t-31 125t-85.5 87.5t-122.5 31.5q-67 0 -120.5 -31.5t-84 -87t-30.5 -125.5t30.5 -125.5t84 -87t120.5 -31.5
q68 0 122.5 31.5z" />
    <glyph glyph-name="P" unicode="P" horiz-adv-x="583" 
d="M98 4.5q-15 15.5 -15 38.5v562q0 24 15.5 39.5t39.5 15.5h185q66 0 117 -25t79 -71t28 -106q0 -59 -28 -105.5t-79 -72t-117 -25.5h-134v-212q0 -23 -15 -38.5t-38 -15.5t-38 15.5zM322 349q54 0 85 29t31 79t-31 79.5t-85 29.5h-133v-217h133z" />
    <glyph glyph-name="Thorn" unicode="&#xde;" horiz-adv-x="583" 
d="M174 655.5q15 -15.5 15 -38.5v-67h134q66 0 117 -25.5t79 -72t28 -107.5q0 -60 -28 -107.5t-79 -73.5t-117 -26h-134v-95q0 -23 -15 -38.5t-38 -15.5t-38 15.5t-15 38.5v574q0 23 15 38.5t38 15.5t38 -15.5zM189 456v-224h133q54 0 85 30t31 82t-31 82t-85 30h-133z" />
    <glyph glyph-name="Q" unicode="Q" horiz-adv-x="780" 
d="M1043 -130q12 -11 12 -31q0 -32 -36 -41q-31 -10 -83 -10q-132 0 -241 56.5t-185 165.5q-57 -21 -121 -21q-96 0 -175 45.5t-125 123.5t-46 172t46 172t125 123.5t175 45.5q95 0 175 -45.5t126 -123.5t46 -172q0 -84 -37 -155.5t-102 -118.5q70 -91 156.5 -134t199.5 -43
l35 1q8 1 21 1q22 0 34 -11zM183.5 205.5q30.5 -55.5 84.5 -87.5t122 -32q67 0 121 31.5t85 87.5t31 125t-31 125t-85 87.5t-122 31.5q-67 0 -121 -31.5t-84.5 -87t-30.5 -124.5q0 -70 30.5 -125.5z" />
    <glyph glyph-name="R" unicode="R" horiz-adv-x="631" 
d="M592 37q0 -20 -14.5 -34t-34.5 -14q-27 0 -47 27l-173 239h-134v-212q0 -23 -15 -38.5t-38 -15.5t-38 15.5t-15 38.5v563q0 23 15.5 38.5t38.5 15.5h186q66 0 117 -25t79 -71t28 -106q0 -62 -31 -110t-85 -72l145 -199q16 -20 16 -40zM189 349h132q54 0 85.5 29t31.5 79
t-31.5 79.5t-85.5 29.5h-132v-217z" />
    <glyph glyph-name="Racute" unicode="&#x154;" horiz-adv-x="631" 
d="M592 37q0 -20 -14.5 -34t-34.5 -14q-27 0 -47 27l-173 239h-134v-212q0 -23 -15 -38.5t-38 -15.5t-38 15.5t-15 38.5v563q0 23 15.5 38.5t38.5 15.5h186q66 0 117 -25t79 -71t28 -106q0 -62 -31 -110t-85 -72l145 -199q16 -20 16 -40zM189 349h132q54 0 85.5 29t31.5 79
t-31.5 79.5t-85.5 29.5h-132v-217zM250.5 738q-11.5 14 -11.5 32q0 10 5 22l58 112q15 28 48 28q22 0 37 -16t15 -37q0 -17 -10 -31l-67 -102q-8 -12 -19.5 -17.5t-22.5 -5.5q-21 1 -32.5 15z" />
    <glyph glyph-name="Rcaron" unicode="&#x158;" horiz-adv-x="631" 
d="M592 37q0 -20 -14.5 -34t-34.5 -14q-27 0 -47 27l-173 239h-134v-212q0 -23 -15 -38.5t-38 -15.5t-38 15.5t-15 38.5v563q0 23 15.5 38.5t38.5 15.5h186q66 0 117 -25t79 -71t28 -106q0 -62 -31 -110t-85 -72l145 -199q16 -20 16 -40zM189 349h132q54 0 85.5 29t31.5 79
t-31.5 79.5t-85.5 29.5h-132v-217zM420 907q11 -11 11 -28q0 -9 -4.5 -16.5t-15.5 -18.5l-109 -108q-15 -15 -34 -15t-34 15l-109 108q-11 11 -15.5 18.5t-4.5 16.5q0 17 11.5 28t27.5 11q15 0 31 -13l93 -87l93 87q16 13 31 13q17 0 28 -11z" />
    <glyph glyph-name="Rcommaaccent" unicode="&#x156;" horiz-adv-x="631" 
d="M592 37q0 -20 -14.5 -34t-34.5 -14q-27 0 -47 27l-173 239h-134v-212q0 -23 -15 -38.5t-38 -15.5t-38 15.5t-15 38.5v563q0 23 15.5 38.5t38.5 15.5h186q66 0 117 -25t79 -71t28 -106q0 -62 -31 -110t-85 -72l145 -199q16 -20 16 -40zM189 349h132q54 0 85.5 29t31.5 79
t-31.5 79.5t-85.5 29.5h-132v-217zM255 -223.5q-14 13.5 -14 30.5q0 8 4 28q9 34 9 68q0 22 15.5 37.5t37.5 15.5t37.5 -15.5t15.5 -37.5q0 -29 -8.5 -59t-19.5 -48q-19 -33 -45 -33q-18 0 -32 13.5z" />
    <glyph glyph-name="S" unicode="S" horiz-adv-x="559" 
d="M163.5 16.5q-59.5 27.5 -97.5 73.5q-16 18 -16 37q0 21 14.5 34.5t34.5 13.5q19 0 32 -14q29 -35 68 -56t85 -21q52 0 83 25t31 67q0 32 -20.5 52.5t-76.5 46.5l-73 34q-80 37 -117 80.5t-37 102.5q0 52 27.5 92.5t75.5 63.5t108 23q59 0 104.5 -21.5t76.5 -56.5
q16 -17 16 -38q0 -19 -15 -33t-34 -14q-16 0 -32 14q-54 54 -119 54q-45 0 -72.5 -21.5t-27.5 -58.5q0 -30 18.5 -49t73.5 -45l74 -34q84 -39 121 -82.5t37 -105.5q0 -57 -28.5 -100t-78.5 -67t-114 -24q-62 0 -121.5 27.5z" />
    <glyph glyph-name="Sacute" unicode="&#x15a;" horiz-adv-x="559" 
d="M163.5 16.5q-59.5 27.5 -97.5 73.5q-16 18 -16 37q0 21 14.5 34.5t34.5 13.5q19 0 32 -14q29 -35 68 -56t85 -21q52 0 83 25t31 67q0 32 -20.5 52.5t-76.5 46.5l-73 34q-80 37 -117 80.5t-37 102.5q0 52 27.5 92.5t75.5 63.5t108 23q59 0 104.5 -21.5t76.5 -56.5
q16 -17 16 -38q0 -19 -15 -33t-34 -14q-16 0 -32 14q-54 54 -119 54q-45 0 -72.5 -21.5t-27.5 -58.5q0 -30 18.5 -49t73.5 -45l74 -34q84 -39 121 -82.5t37 -105.5q0 -57 -28.5 -100t-78.5 -67t-114 -24q-62 0 -121.5 27.5zM263.5 738q-11.5 14 -11.5 32q0 10 5 22l58 112
q15 28 48 28q22 0 37 -16t15 -37q0 -17 -10 -31l-67 -102q-8 -12 -19.5 -17.5t-22.5 -5.5q-21 1 -32.5 15z" />
    <glyph glyph-name="Scaron" unicode="&#x160;" horiz-adv-x="559" 
d="M163.5 16.5q-59.5 27.5 -97.5 73.5q-16 18 -16 37q0 21 14.5 34.5t34.5 13.5q19 0 32 -14q29 -35 68 -56t85 -21q52 0 83 25t31 67q0 32 -20.5 52.5t-76.5 46.5l-73 34q-80 37 -117 80.5t-37 102.5q0 52 27.5 92.5t75.5 63.5t108 23q59 0 104.5 -21.5t76.5 -56.5
q16 -17 16 -38q0 -19 -15 -33t-34 -14q-16 0 -32 14q-54 54 -119 54q-45 0 -72.5 -21.5t-27.5 -58.5q0 -30 18.5 -49t73.5 -45l74 -34q84 -39 121 -82.5t37 -105.5q0 -57 -28.5 -100t-78.5 -67t-114 -24q-62 0 -121.5 27.5zM433 907q11 -11 11 -28q0 -9 -4.5 -16.5
t-15.5 -18.5l-109 -108q-15 -15 -34 -15t-34 15l-109 108q-11 11 -15.5 18.5t-4.5 16.5q0 17 11.5 28t27.5 11q15 0 31 -13l93 -87l93 87q16 13 31 13q17 0 28 -11z" />
    <glyph glyph-name="Scedilla" unicode="&#x15e;" horiz-adv-x="559" 
d="M163.5 16.5q-59.5 27.5 -97.5 73.5q-16 18 -16 37q0 21 14.5 34.5t34.5 13.5q19 0 32 -14q29 -35 68 -56t85 -21q52 0 83 25t31 67q0 32 -20.5 52.5t-76.5 46.5l-73 34q-80 37 -117 80.5t-37 102.5q0 52 27.5 92.5t75.5 63.5t108 23q59 0 104.5 -21.5t76.5 -56.5
q16 -17 16 -38q0 -19 -15 -33t-34 -14q-16 0 -32 14q-54 54 -119 54q-45 0 -72.5 -21.5t-27.5 -58.5q0 -30 18.5 -49t73.5 -45l74 -34q84 -39 121 -82.5t37 -105.5q0 -57 -28.5 -100t-78.5 -67t-114 -24q-62 0 -121.5 27.5zM173 -183q-28 11 -28 36q0 16 11 27t27 11
q8 0 18.5 -1.5t20.5 -1.5q27 0 45.5 12.5t18.5 35.5q0 17 -6 30t-16 27q-3 4 -9.5 12.5t-10 15.5t-3.5 13q0 14 8.5 22t24.5 8q22 0 46 -21.5t40.5 -53t16.5 -59.5q0 -55 -40 -88t-105 -33q-41 0 -59 8z" />
    <glyph glyph-name="Scircumflex" unicode="&#x15c;" horiz-adv-x="559" 
d="M163.5 16.5q-59.5 27.5 -97.5 73.5q-16 18 -16 37q0 21 14.5 34.5t34.5 13.5q19 0 32 -14q29 -35 68 -56t85 -21q52 0 83 25t31 67q0 32 -20.5 52.5t-76.5 46.5l-73 34q-80 37 -117 80.5t-37 102.5q0 52 27.5 92.5t75.5 63.5t108 23q59 0 104.5 -21.5t76.5 -56.5
q16 -17 16 -38q0 -19 -15 -33t-34 -14q-16 0 -32 14q-54 54 -119 54q-45 0 -72.5 -21.5t-27.5 -58.5q0 -30 18.5 -49t73.5 -45l74 -34q84 -39 121 -82.5t37 -105.5q0 -57 -28.5 -100t-78.5 -67t-114 -24q-62 0 -121.5 27.5zM438.5 776.5q4.5 -7.5 4.5 -16.5q0 -16 -11 -27.5
t-28 -11.5q-15 0 -31 13l-93 87l-93 -87q-16 -13 -31 -13q-16 0 -27.5 11.5t-11.5 27.5q0 9 4.5 16.5t15.5 18.5l109 108q15 15 34 15t34 -15l109 -108q11 -11 15.5 -18.5z" />
    <glyph glyph-name="Scommaaccent" unicode="&#x218;" horiz-adv-x="559" 
d="M163.5 16.5q-59.5 27.5 -97.5 73.5q-16 18 -16 37q0 21 14.5 34.5t34.5 13.5q19 0 32 -14q29 -35 68 -56t85 -21q52 0 83 25t31 67q0 32 -20.5 52.5t-76.5 46.5l-73 34q-80 37 -117 80.5t-37 102.5q0 52 27.5 92.5t75.5 63.5t108 23q59 0 104.5 -21.5t76.5 -56.5
q16 -17 16 -38q0 -19 -15 -33t-34 -14q-16 0 -32 14q-54 54 -119 54q-45 0 -72.5 -21.5t-27.5 -58.5q0 -30 18.5 -49t73.5 -45l74 -34q84 -39 121 -82.5t37 -105.5q0 -57 -28.5 -100t-78.5 -67t-114 -24q-62 0 -121.5 27.5zM235 -223.5q-14 13.5 -14 30.5q0 8 4 28
q9 34 9 68q0 22 15.5 37.5t37.5 15.5t37.5 -15.5t15.5 -37.5q0 -29 -8.5 -59t-19.5 -48q-19 -33 -45 -33q-18 0 -32 13.5z" />
    <glyph glyph-name="uni1E9E" unicode="&#x1e9e;" horiz-adv-x="720" 
d="M589 377q41 -30 64 -75t23 -98q0 -61 -29 -110t-80 -77t-113 -28q-72 0 -133 37q-24 15 -35 29t-11 30q0 20 13.5 33.5t33.5 13.5q12 0 19 -3.5t19 -12.5q42 -30 89 -30q52 0 85 33.5t33 86.5q0 57 -40.5 89.5t-112.5 32.5q-21 0 -36 14t-15 35q0 15 14 32l116 156h-304
v-522q0 -23 -15 -38.5t-38 -15.5t-38 15.5t-15 38.5v562q0 24 15.5 39.5t39.5 15.5h446q20 0 33.5 -13.5t13.5 -33.5q0 -18 -18 -40l-117 -157q52 -9 93 -39z" />
    <glyph glyph-name="uni018F" unicode="&#x18f;" horiz-adv-x="732" 
d="M521.5 626q77.5 -45 122 -122.5t44.5 -171.5t-45.5 -173t-123.5 -124.5t-172 -45.5q-86 0 -155.5 38.5t-109 106.5t-39.5 152q0 16 2 28q2 22 15.5 36.5t33.5 14.5h484q-7 60 -38 108t-80 74.5t-109 26.5q-54 0 -102 -22t-82 -63q-12 -14 -22 -20t-23 -6
q-20 0 -33.5 13.5t-13.5 33.5q0 17 18 38q49 60 115 91.5t143 31.5q93 0 170.5 -45zM495.5 137.5q61.5 51.5 78.5 134.5h-427q0 -53 26 -95.5t72 -66.5t105 -24q84 0 145.5 51.5z" />
    <glyph glyph-name="T" unicode="T" horiz-adv-x="583" 
d="M253 4.5q-15 15.5 -15 38.5v522h-178q-21 0 -35 13.5t-14 33.5t14 34t35 14h463q21 0 35 -14t14 -34t-14 -33.5t-35 -13.5h-179v-522q0 -23 -15 -38.5t-38 -15.5t-38 15.5z" />
    <glyph glyph-name="Tbar" unicode="&#x166;" horiz-adv-x="583" 
d="M253 4.5q-15 15.5 -15 38.5v201h-146q-19 0 -32 13t-13 32t13 31.5t32 12.5h146v232h-178q-21 0 -35 13.5t-14 33.5t14 34t35 14h463q21 0 35 -14t14 -34t-14 -33.5t-35 -13.5h-179v-232h147q19 0 32 -12.5t13 -31.5t-13 -32t-32 -13h-147v-201q0 -23 -15 -38.5
t-38 -15.5t-38 15.5z" />
    <glyph glyph-name="Tcaron" unicode="&#x164;" horiz-adv-x="583" 
d="M253 4.5q-15 15.5 -15 38.5v522h-178q-21 0 -35 13.5t-14 33.5t14 34t35 14h463q21 0 35 -14t14 -34t-14 -33.5t-35 -13.5h-179v-522q0 -23 -15 -38.5t-38 -15.5t-38 15.5zM444 907q11 -11 11 -28q0 -9 -4.5 -16.5t-15.5 -18.5l-109 -108q-15 -15 -34 -15t-34 15
l-109 108q-11 11 -15.5 18.5t-4.5 16.5q0 17 11.5 28t27.5 11q15 0 31 -13l93 -87l93 87q16 13 31 13q17 0 28 -11z" />
    <glyph glyph-name="uni0162" unicode="&#x162;" horiz-adv-x="583" 
d="M253 4.5q-15 15.5 -15 38.5v522h-178q-21 0 -35 13.5t-14 33.5t14 34t35 14h463q21 0 35 -14t14 -34t-14 -33.5t-35 -13.5h-179v-522q0 -23 -15 -38.5t-38 -15.5t-38 15.5zM212 -183q-28 11 -28 36q0 16 11 27t27 11q8 0 18.5 -1.5t20.5 -1.5q27 0 45.5 12.5t18.5 35.5
q0 17 -6 30t-16 27q-3 4 -9.5 12.5t-10 15.5t-3.5 13q0 14 8.5 22t24.5 8q22 0 46 -21.5t40.5 -53t16.5 -59.5q0 -55 -40 -88t-105 -33q-41 0 -59 8z" />
    <glyph glyph-name="U" unicode="U" horiz-adv-x="694" 
d="M204.5 23.5q-61.5 34.5 -95 97.5t-33.5 146v350q0 23 15 38.5t38 15.5t38 -15.5t15 -38.5v-357q0 -80 44.5 -127t121.5 -47q76 0 120 47t44 127v357q0 23 15 38.5t38 15.5t38 -15.5t15 -38.5v-350q0 -83 -33.5 -146t-95 -97.5t-141.5 -34.5q-82 0 -143.5 34.5z" />
    <glyph glyph-name="Uacute" unicode="&#xda;" horiz-adv-x="694" 
d="M204.5 23.5q-61.5 34.5 -95 97.5t-33.5 146v350q0 23 15 38.5t38 15.5t38 -15.5t15 -38.5v-357q0 -80 44.5 -127t121.5 -47q76 0 120 47t44 127v357q0 23 15 38.5t38 15.5t38 -15.5t15 -38.5v-350q0 -83 -33.5 -146t-95 -97.5t-141.5 -34.5q-82 0 -143.5 34.5zM329.5 738
q-11.5 14 -11.5 32q0 10 5 22l58 112q15 28 48 28q22 0 37 -16t15 -37q0 -17 -10 -31l-67 -102q-8 -12 -19.5 -17.5t-22.5 -5.5q-21 1 -32.5 15z" />
    <glyph glyph-name="Ubreve" unicode="&#x16c;" horiz-adv-x="694" 
d="M204.5 23.5q-61.5 34.5 -95 97.5t-33.5 146v350q0 23 15 38.5t38 15.5t38 -15.5t15 -38.5v-357q0 -80 44.5 -127t121.5 -47q76 0 120 47t44 127v357q0 23 15 38.5t38 15.5t38 -15.5t15 -38.5v-350q0 -83 -33.5 -146t-95 -97.5t-141.5 -34.5q-82 0 -143.5 34.5z
M269.5 747.5q-36.5 18.5 -59 49t-22.5 65.5q0 18 12 30.5t30 12.5q28 0 41 -35q9 -29 29 -45t47 -16q28 0 48.5 16t28.5 45q12 35 40 35q18 0 30 -12.5t12 -30.5q0 -34 -22 -65t-59 -49.5t-78 -18.5t-77.5 18.5z" />
    <glyph glyph-name="Ucircumflex" unicode="&#xdb;" horiz-adv-x="694" 
d="M204.5 23.5q-61.5 34.5 -95 97.5t-33.5 146v350q0 23 15 38.5t38 15.5t38 -15.5t15 -38.5v-357q0 -80 44.5 -127t121.5 -47q76 0 120 47t44 127v357q0 23 15 38.5t38 15.5t38 -15.5t15 -38.5v-350q0 -83 -33.5 -146t-95 -97.5t-141.5 -34.5q-82 0 -143.5 34.5z
M504.5 776.5q4.5 -7.5 4.5 -16.5q0 -16 -11 -27.5t-28 -11.5q-15 0 -31 13l-93 87l-93 -87q-16 -13 -31 -13q-16 0 -27.5 11.5t-11.5 27.5q0 9 4.5 16.5t15.5 18.5l109 108q15 15 34 15t34 -15l109 -108q11 -11 15.5 -18.5z" />
    <glyph glyph-name="Udieresis" unicode="&#xdc;" horiz-adv-x="694" 
d="M204.5 23.5q-61.5 34.5 -95 97.5t-33.5 146v350q0 23 15 38.5t38 15.5t38 -15.5t15 -38.5v-357q0 -80 44.5 -127t121.5 -47q76 0 120 47t44 127v357q0 23 15 38.5t38 15.5t38 -15.5t15 -38.5v-350q0 -83 -33.5 -146t-95 -97.5t-141.5 -34.5q-82 0 -143.5 34.5z
M176.5 766.5q-20.5 19.5 -20.5 45.5q0 27 20.5 46t47.5 19q28 0 47.5 -18.5t19.5 -46.5q0 -26 -19.5 -45.5t-47.5 -19.5q-27 0 -47.5 19.5zM421.5 765.5q-20.5 19.5 -20.5 45.5q0 27 20.5 46.5t46.5 19.5q29 0 48.5 -19t19.5 -47q0 -26 -20 -45.5t-48 -19.5
q-26 0 -46.5 19.5z" />
    <glyph glyph-name="Ugrave" unicode="&#xd9;" horiz-adv-x="694" 
d="M204.5 23.5q-61.5 34.5 -95 97.5t-33.5 146v350q0 23 15 38.5t38 15.5t38 -15.5t15 -38.5v-357q0 -80 44.5 -127t121.5 -47q76 0 120 47t44 127v357q0 23 15 38.5t38 15.5t38 -15.5t15 -38.5v-350q0 -83 -33.5 -146t-95 -97.5t-141.5 -34.5q-82 0 -143.5 34.5z
M309.5 728.5q-11.5 5.5 -19.5 17.5l-67 102q-10 14 -10 31q0 21 15.5 37t36.5 16q33 0 48 -28l58 -112q5 -12 5 -22q0 -18 -11.5 -32t-32.5 -15q-11 0 -22.5 5.5z" />
    <glyph glyph-name="Uhungarumlaut" unicode="&#x170;" horiz-adv-x="694" 
d="M204.5 23.5q-61.5 34.5 -95 97.5t-33.5 146v350q0 23 15 38.5t38 15.5t38 -15.5t15 -38.5v-357q0 -80 44.5 -127t121.5 -47q76 0 120 47t44 127v357q0 23 15 38.5t38 15.5t38 -15.5t15 -38.5v-350q0 -83 -33.5 -146t-95 -97.5t-141.5 -34.5q-82 0 -143.5 34.5zM224.5 738
q-11.5 14 -11.5 32q0 10 5 22l58 112q15 28 48 28q22 0 37 -16t15 -37q0 -17 -10 -31l-67 -102q-8 -12 -19.5 -17.5t-22.5 -5.5q-21 1 -32.5 15zM422.5 738q-11.5 14 -11.5 32q0 10 5 22l58 112q15 28 48 28q22 0 37 -16t15 -37q0 -17 -10 -31l-67 -102q-8 -12 -19.5 -17.5
t-22.5 -5.5q-21 1 -32.5 15z" />
    <glyph glyph-name="Umacron" unicode="&#x16a;" horiz-adv-x="694" 
d="M204.5 23.5q-61.5 34.5 -95 97.5t-33.5 146v350q0 23 15 38.5t38 15.5t38 -15.5t15 -38.5v-357q0 -80 44.5 -127t121.5 -47q76 0 120 47t44 127v357q0 23 15 38.5t38 15.5t38 -15.5t15 -38.5v-350q0 -83 -33.5 -146t-95 -97.5t-141.5 -34.5q-82 0 -143.5 34.5zM494.5 836
q12.5 -12 12.5 -30t-12.5 -30.5t-30.5 -12.5h-233q-19 0 -31.5 12.5t-12.5 30.5t12.5 30t31.5 12h233q18 0 30.5 -12z" />
    <glyph glyph-name="Uogonek" unicode="&#x172;" horiz-adv-x="694" 
d="M349.5 -166q-31.5 25 -31.5 66q0 22 16.5 47.5t43.5 45.5q-17 -4 -36 -4q-78 0 -138.5 35t-94 98t-33.5 145v350q0 23 15 38.5t38 15.5t38 -15.5t15 -38.5v-357q0 -80 44.5 -127t121.5 -47q76 0 120 47t44 127v357q0 23 15 38.5t38 15.5t38 -15.5t15 -38.5v-350
q0 -66 -23.5 -122.5t-67.5 -95.5l-35 -31q-38 -34 -54.5 -54.5t-16.5 -44.5q0 -31 41 -31q7 0 13.5 1t11.5 1q14 0 23.5 -10t9.5 -25q0 -29 -29 -38q-24 -8 -59 -8q-51 0 -82.5 25z" />
    <glyph glyph-name="Uring" unicode="&#x16e;" horiz-adv-x="694" 
d="M204.5 23.5q-61.5 34.5 -95 97.5t-33.5 146v350q0 23 15 38.5t38 15.5t38 -15.5t15 -38.5v-357q0 -80 44.5 -127t121.5 -47q76 0 120 47t44 127v357q0 23 15 38.5t38 15.5t38 -15.5t15 -38.5v-350q0 -83 -33.5 -146t-95 -97.5t-141.5 -34.5q-82 0 -143.5 34.5zM431 884
q34 -33 34 -82t-34 -82t-85 -33q-50 0 -84 33t-34 82t34 82t84 33q51 0 85 -33zM314 835q-13 -13 -13 -33q0 -19 13.5 -32.5t32.5 -13.5t32 13t13 33t-13 33t-32 13q-20 0 -33 -13z" />
    <glyph glyph-name="Utilde" unicode="&#x168;" horiz-adv-x="694" 
d="M204.5 23.5q-61.5 34.5 -95 97.5t-33.5 146v350q0 23 15 38.5t38 15.5t38 -15.5t15 -38.5v-357q0 -80 44.5 -127t121.5 -47q76 0 120 47t44 127v357q0 23 15 38.5t38 15.5t38 -15.5t15 -38.5v-350q0 -83 -33.5 -146t-95 -97.5t-141.5 -34.5q-82 0 -143.5 34.5zM177 742
q-12 13 -12 34q0 49 28.5 81.5t72.5 32.5q37 0 72 -22l33 -20q12 -7 23 -12.5t20 -5.5q25 0 30 28q2 16 13 26t28 10q19 0 31.5 -13t12.5 -33q0 -50 -29 -82.5t-73 -32.5q-34 0 -72 22l-32 20q-4 2 -13.5 7.5t-16.5 8t-14 2.5q-26 0 -29 -28q-3 -17 -14 -26.5t-27 -9.5
q-20 0 -32 13z" />
    <glyph glyph-name="V" unicode="V" horiz-adv-x="663" 
d="M614 656q15 -15 15 -36q0 -12 -8 -30l-239 -565q-15 -36 -51 -36q-35 0 -50 36l-239 565q-8 15 -8 30q0 21 15 36t37 15q36 0 50 -37l196 -479l195 479q15 37 50 37q22 0 37 -15z" />
    <glyph glyph-name="W" unicode="W" horiz-adv-x="1051" 
d="M989.5 656q15.5 -15 15.5 -37q0 -12 -7 -30l-208 -565q-6 -17 -19 -26t-30 -9q-18 0 -31 9t-19 26l-165 465l-165 -465q-6 -17 -19 -26t-31 -9q-17 0 -30 9t-20 26l-208 565q-6 16 -6 30q0 22 15 37t38 15q17 0 30.5 -9t18.5 -25l164 -460l162 456q6 18 19.5 28t31.5 10
t31.5 -10t19.5 -28l162 -456l163 459q6 16 19 25.5t31 9.5q22 0 37.5 -15z" />
    <glyph glyph-name="Wacute" unicode="&#x1e82;" horiz-adv-x="1051" 
d="M989.5 656q15.5 -15 15.5 -37q0 -12 -7 -30l-208 -565q-6 -17 -19 -26t-30 -9q-18 0 -31 9t-19 26l-165 465l-165 -465q-6 -17 -19 -26t-31 -9q-17 0 -30 9t-20 26l-208 565q-6 16 -6 30q0 22 15 37t38 15q17 0 30.5 -9t18.5 -25l164 -460l162 456q6 18 19.5 28t31.5 10
t31.5 -10t19.5 -28l162 -456l163 459q6 16 19 25.5t31 9.5q22 0 37.5 -15zM508.5 738q-11.5 14 -11.5 32q0 10 5 22l58 112q15 28 48 28q22 0 37 -16t15 -37q0 -17 -10 -31l-67 -102q-8 -12 -19.5 -17.5t-22.5 -5.5q-21 1 -32.5 15z" />
    <glyph glyph-name="Wcircumflex" unicode="&#x174;" horiz-adv-x="1051" 
d="M989.5 656q15.5 -15 15.5 -37q0 -12 -7 -30l-208 -565q-6 -17 -19 -26t-30 -9q-18 0 -31 9t-19 26l-165 465l-165 -465q-6 -17 -19 -26t-31 -9q-17 0 -30 9t-20 26l-208 565q-6 16 -6 30q0 22 15 37t38 15q17 0 30.5 -9t18.5 -25l164 -460l162 456q6 18 19.5 28t31.5 10
t31.5 -10t19.5 -28l162 -456l163 459q6 16 19 25.5t31 9.5q22 0 37.5 -15zM683.5 776.5q4.5 -7.5 4.5 -16.5q0 -16 -11 -27.5t-28 -11.5q-15 0 -31 13l-93 87l-93 -87q-16 -13 -31 -13q-16 0 -27.5 11.5t-11.5 27.5q0 9 4.5 16.5t15.5 18.5l109 108q15 15 34 15t34 -15
l109 -108q11 -11 15.5 -18.5z" />
    <glyph glyph-name="Wdieresis" unicode="&#x1e84;" horiz-adv-x="1051" 
d="M989.5 656q15.5 -15 15.5 -37q0 -12 -7 -30l-208 -565q-6 -17 -19 -26t-30 -9q-18 0 -31 9t-19 26l-165 465l-165 -465q-6 -17 -19 -26t-31 -9q-17 0 -30 9t-20 26l-208 565q-6 16 -6 30q0 22 15 37t38 15q17 0 30.5 -9t18.5 -25l164 -460l162 456q6 18 19.5 28t31.5 10
t31.5 -10t19.5 -28l162 -456l163 459q6 16 19 25.5t31 9.5q22 0 37.5 -15zM355.5 766.5q-20.5 19.5 -20.5 45.5q0 27 20.5 46t47.5 19q28 0 47.5 -18.5t19.5 -46.5q0 -26 -19.5 -45.5t-47.5 -19.5q-27 0 -47.5 19.5zM600.5 765.5q-20.5 19.5 -20.5 45.5q0 27 20.5 46.5
t46.5 19.5q29 0 48.5 -19t19.5 -47q0 -26 -20 -45.5t-48 -19.5q-26 0 -46.5 19.5z" />
    <glyph glyph-name="Wgrave" unicode="&#x1e80;" horiz-adv-x="1051" 
d="M989.5 656q15.5 -15 15.5 -37q0 -12 -7 -30l-208 -565q-6 -17 -19 -26t-30 -9q-18 0 -31 9t-19 26l-165 465l-165 -465q-6 -17 -19 -26t-31 -9q-17 0 -30 9t-20 26l-208 565q-6 16 -6 30q0 22 15 37t38 15q17 0 30.5 -9t18.5 -25l164 -460l162 456q6 18 19.5 28t31.5 10
t31.5 -10t19.5 -28l162 -456l163 459q6 16 19 25.5t31 9.5q22 0 37.5 -15zM488.5 728.5q-11.5 5.5 -19.5 17.5l-67 102q-10 14 -10 31q0 21 15.5 37t36.5 16q33 0 48 -28l58 -112q5 -12 5 -22q0 -18 -11.5 -32t-32.5 -15q-11 0 -22.5 5.5z" />
    <glyph glyph-name="X" unicode="X" horiz-adv-x="606" 
d="M565 40q0 -21 -15 -36t-37 -15q-26 0 -42 22l-168 238l-168 -238q-14 -22 -42 -22q-22 0 -37 15t-15 36q0 19 15 38l185 260l-170 244q-15 21 -15 39q0 21 15 35.5t37 14.5q27 0 43 -22l152 -223l155 223q16 22 43 22q22 0 36.5 -14.5t14.5 -35.5q0 -20 -15 -40
l-171 -243l185 -261q14 -21 14 -37z" />
    <glyph glyph-name="Y" unicode="Y" horiz-adv-x="621" 
d="M566 583l-203 -330v-210q0 -23 -15 -38.5t-38 -15.5t-38 15.5t-15 38.5v212l-202 328q-12 20 -12 38q0 22 15 36t37 14q18 0 29.5 -7t21.5 -24l164 -278l165 278q10 16 22 23.5t29 7.5q22 0 37 -14.5t15 -36.5q0 -18 -12 -37z" />
    <glyph glyph-name="Yacute" unicode="&#xdd;" horiz-adv-x="621" 
d="M566 583l-203 -330v-210q0 -23 -15 -38.5t-38 -15.5t-38 15.5t-15 38.5v212l-202 328q-12 20 -12 38q0 22 15 36t37 14q18 0 29.5 -7t21.5 -24l164 -278l165 278q10 16 22 23.5t29 7.5q22 0 37 -14.5t15 -36.5q0 -18 -12 -37zM290.5 738q-11.5 14 -11.5 32q0 10 5 22
l58 112q15 28 48 28q22 0 37 -16t15 -37q0 -17 -10 -31l-67 -102q-8 -12 -19.5 -17.5t-22.5 -5.5q-21 1 -32.5 15z" />
    <glyph glyph-name="Ycircumflex" unicode="&#x176;" horiz-adv-x="621" 
d="M566 583l-203 -330v-210q0 -23 -15 -38.5t-38 -15.5t-38 15.5t-15 38.5v212l-202 328q-12 20 -12 38q0 22 15 36t37 14q18 0 29.5 -7t21.5 -24l164 -278l165 278q10 16 22 23.5t29 7.5q22 0 37 -14.5t15 -36.5q0 -18 -12 -37zM465.5 776.5q4.5 -7.5 4.5 -16.5
q0 -16 -11 -27.5t-28 -11.5q-15 0 -31 13l-93 87l-93 -87q-16 -13 -31 -13q-16 0 -27.5 11.5t-11.5 27.5q0 9 4.5 16.5t15.5 18.5l109 108q15 15 34 15t34 -15l109 -108q11 -11 15.5 -18.5z" />
    <glyph glyph-name="Ydieresis" unicode="&#x178;" horiz-adv-x="621" 
d="M566 583l-203 -330v-210q0 -23 -15 -38.5t-38 -15.5t-38 15.5t-15 38.5v212l-202 328q-12 20 -12 38q0 22 15 36t37 14q18 0 29.5 -7t21.5 -24l164 -278l165 278q10 16 22 23.5t29 7.5q22 0 37 -14.5t15 -36.5q0 -18 -12 -37zM137.5 766.5q-20.5 19.5 -20.5 45.5
q0 27 20.5 46t47.5 19q28 0 47.5 -18.5t19.5 -46.5q0 -26 -19.5 -45.5t-47.5 -19.5q-27 0 -47.5 19.5zM382.5 765.5q-20.5 19.5 -20.5 45.5q0 27 20.5 46.5t46.5 19.5q29 0 48.5 -19t19.5 -47q0 -26 -20 -45.5t-48 -19.5q-26 0 -46.5 19.5z" />
    <glyph glyph-name="Ygrave" unicode="&#x1ef2;" horiz-adv-x="621" 
d="M566 583l-203 -330v-210q0 -23 -15 -38.5t-38 -15.5t-38 15.5t-15 38.5v212l-202 328q-12 20 -12 38q0 22 15 36t37 14q18 0 29.5 -7t21.5 -24l164 -278l165 278q10 16 22 23.5t29 7.5q22 0 37 -14.5t15 -36.5q0 -18 -12 -37zM270.5 728.5q-11.5 5.5 -19.5 17.5l-67 102
q-10 14 -10 31q0 21 15.5 37t36.5 16q33 0 48 -28l58 -112q5 -12 5 -22q0 -18 -11.5 -32t-32.5 -15q-11 0 -22.5 5.5z" />
    <glyph glyph-name="Z" unicode="Z" horiz-adv-x="588" 
d="M549 81.5q14 -13.5 14 -33.5t-14 -34t-35 -14h-438q-21 0 -35.5 14t-14.5 34q0 13 16 35l369 482h-298q-21 0 -35 13.5t-14 33.5t14 34t35 14h395q20 0 34.5 -14t14.5 -34q0 -14 -15 -34l-369 -483h341q21 0 35 -13.5z" />
    <glyph glyph-name="Zacute" unicode="&#x179;" horiz-adv-x="588" 
d="M549 81.5q14 -13.5 14 -33.5t-14 -34t-35 -14h-438q-21 0 -35.5 14t-14.5 34q0 13 16 35l369 482h-298q-21 0 -35 13.5t-14 33.5t14 34t35 14h395q20 0 34.5 -14t14.5 -34q0 -14 -15 -34l-369 -483h341q21 0 35 -13.5zM282.5 738q-11.5 14 -11.5 32q0 10 5 22l58 112
q15 28 48 28q22 0 37 -16t15 -37q0 -17 -10 -31l-67 -102q-8 -12 -19.5 -17.5t-22.5 -5.5q-21 1 -32.5 15z" />
    <glyph glyph-name="Zcaron" unicode="&#x17d;" horiz-adv-x="588" 
d="M549 81.5q14 -13.5 14 -33.5t-14 -34t-35 -14h-438q-21 0 -35.5 14t-14.5 34q0 13 16 35l369 482h-298q-21 0 -35 13.5t-14 33.5t14 34t35 14h395q20 0 34.5 -14t14.5 -34q0 -14 -15 -34l-369 -483h341q21 0 35 -13.5zM452 907q11 -11 11 -28q0 -9 -4.5 -16.5
t-15.5 -18.5l-109 -108q-15 -15 -34 -15t-34 15l-109 108q-11 11 -15.5 18.5t-4.5 16.5q0 17 11.5 28t27.5 11q15 0 31 -13l93 -87l93 87q16 13 31 13q17 0 28 -11z" />
    <glyph glyph-name="Zdotaccent" unicode="&#x17b;" horiz-adv-x="588" 
d="M549 81.5q14 -13.5 14 -33.5t-14 -34t-35 -14h-438q-21 0 -35.5 14t-14.5 34q0 13 16 35l369 482h-298q-21 0 -35 13.5t-14 33.5t14 34t35 14h395q20 0 34.5 -14t14.5 -34q0 -14 -15 -34l-369 -483h341q21 0 35 -13.5zM349.5 860q20.5 -20 20.5 -48t-20.5 -48t-49.5 -20
t-49.5 20t-20.5 48t20.5 48t49.5 20t49.5 -20z" />
    <glyph glyph-name="uni021A" unicode="&#x21a;" horiz-adv-x="583" 
d="M253 4.5q-15 15.5 -15 38.5v522h-178q-21 0 -35 13.5t-14 33.5t14 34t35 14h463q21 0 35 -14t14 -34t-14 -33.5t-35 -13.5h-179v-522q0 -23 -15 -38.5t-38 -15.5t-38 15.5zM237 -223.5q-14 13.5 -14 30.5q0 8 4 28q9 34 9 68q0 22 15.5 37.5t37.5 15.5t37.5 -15.5
t15.5 -37.5q0 -29 -8.5 -59t-19.5 -48q-19 -33 -45 -33q-18 0 -32 13.5z" />
    <glyph glyph-name="Iacute_J.loclNLD" horiz-adv-x="653" 
d="M98 4.5q-15 15.5 -15 38.5v574q0 23 15 38.5t38 15.5t38 -15.5t15 -38.5v-574q0 -23 -15 -38.5t-38 -15.5t-38 15.5zM119.5 738q-11.5 14 -11.5 32q0 10 5 22l58 112q15 28 48 28q22 0 37 -16t15 -37q0 -17 -10 -31l-67 -102q-8 -12 -19.5 -17.5t-22.5 -5.5
q-21 1 -32.5 15zM317 -3q-15 5 -24.5 18t-9.5 29q0 20 14.5 34t36.5 14q9 0 27 -2q13 -3 31 -3q34 0 53 21.5t19 59.5v449q0 23 15 38.5t38 15.5t38 -15.5t15 -38.5v-453q0 -85 -48.5 -130t-140.5 -45q-41 0 -64 8zM486.5 738q-11.5 14 -11.5 32q0 10 5 22l58 112
q15 28 48 28q22 0 37 -16t15 -37q0 -17 -10 -31l-67 -102q-8 -12 -19.5 -17.5t-22.5 -5.5q-21 1 -32.5 15z" />
    <glyph glyph-name="Cacute.loclPLK" horiz-adv-x="717" 
d="M214.5 34q-79.5 45 -125.5 123t-46 173t46 173t125.5 123t175.5 45q76 0 144 -30.5t113 -84.5q17 -23 17 -42q0 -20 -14.5 -34t-34.5 -14q-24 0 -42 21q-72 87 -182 87q-68 0 -122 -31.5t-85 -87.5t-31 -125t31 -125t85 -87.5t122 -31.5q108 0 181 87q18 21 43 21
q20 0 34.5 -14t14.5 -34q0 -18 -18 -42q-44 -54 -111.5 -84.5t-144.5 -30.5q-96 0 -175.5 45zM361.5 735q-13.5 14 -13.5 35q0 5 2 15l31 110q6 22 21 32t31 10q21 0 37 -15t16 -38q0 -12 -6 -26l-41 -104q-14 -33 -45 -33q-19 0 -32.5 14z" />
    <glyph glyph-name="Nacute.loclPLK" horiz-adv-x="710" 
d="M612 655.5q15 -15.5 15 -38.5v-576q0 -22 -15 -37t-37 -15q-15 0 -26.5 7.5t-23.5 22.5l-336 443v-419q0 -23 -15 -38.5t-38 -15.5t-38 15.5t-15 38.5v576q0 22 15 37t37 15q17 0 28 -8t25 -27l334 -437l-1 418q0 23 15 38.5t38 15.5t38 -15.5zM326.5 732
q-13.5 14 -13.5 35q0 5 2 15l31 110q6 22 21 32t31 10q21 0 37 -15t16 -38q0 -12 -6 -26l-41 -104q-14 -33 -45 -33q-19 0 -32.5 14z" />
    <glyph glyph-name="Oacute.loclPLK" horiz-adv-x="780" 
d="M564 625.5q80 -45.5 126 -123.5t46 -172t-46 -172t-125.5 -123.5t-175.5 -45.5t-175 45.5t-125 123.5t-46 172t46 172t125 123.5t175 45.5q95 0 175 -45.5zM268 542.5q-54 -31.5 -84.5 -87t-30.5 -124.5q0 -70 30.5 -126t84.5 -87.5t122 -31.5q67 0 121 32t85 87.5
t31 125.5q0 69 -31 124.5t-85 87t-121 31.5q-68 0 -122 -31.5zM361.5 732q-13.5 14 -13.5 35q0 5 2 15l31 110q6 22 21 32t31 10q21 0 37 -15t16 -38q0 -12 -6 -26l-41 -104q-14 -33 -45 -33q-19 0 -32.5 14z" />
    <glyph glyph-name="Sacute.loclPLK" horiz-adv-x="559" 
d="M163.5 16.5q-59.5 27.5 -97.5 73.5q-16 18 -16 37q0 21 14.5 34.5t34.5 13.5q19 0 32 -14q29 -35 68 -56t85 -21q52 0 83 25t31 67q0 32 -20.5 52.5t-76.5 46.5l-73 34q-80 37 -117 80.5t-37 102.5q0 52 27.5 92.5t75.5 63.5t108 23q59 0 104.5 -21.5t76.5 -56.5
q16 -17 16 -38q0 -19 -15 -33t-34 -14q-16 0 -32 14q-54 54 -119 54q-45 0 -72.5 -21.5t-27.5 -58.5q0 -30 18.5 -49t73.5 -45l74 -34q84 -39 121 -82.5t37 -105.5q0 -57 -28.5 -100t-78.5 -67t-114 -24q-62 0 -121.5 27.5zM252.5 732q-13.5 14 -13.5 35q0 5 2 15l31 110
q6 22 21 32t31 10q21 0 37 -15t16 -38q0 -12 -6 -26l-41 -104q-14 -33 -45 -33q-19 0 -32.5 14z" />
    <glyph glyph-name="Zacute.loclPLK" horiz-adv-x="588" 
d="M549 81.5q14 -13.5 14 -33.5t-14 -34t-35 -14h-438q-21 0 -35.5 14t-14.5 34q0 13 16 35l369 482h-298q-21 0 -35 13.5t-14 33.5t14 34t35 14h395q20 0 34.5 -14t14.5 -34q0 -14 -15 -34l-369 -483h341q21 0 35 -13.5zM271.5 732q-13.5 14 -13.5 35q0 5 2 15l31 110
q6 22 21 32t31 10q21 0 37 -15t16 -38q0 -12 -6 -26l-41 -104q-14 -33 -45 -33q-19 0 -32.5 14z" />
    <glyph glyph-name="Idotaccent.loclTRK" horiz-adv-x="272" 
d="M98 4.5q-15 15.5 -15 38.5v574q0 23 15 38.5t38 15.5t38 -15.5t15 -38.5v-574q0 -23 -15 -38.5t-38 -15.5t-38 15.5zM186.5 860q20.5 -20 20.5 -48t-20.5 -48t-49.5 -20t-49.5 20t-20.5 48t20.5 48t49.5 20t49.5 -20z" />
    <glyph glyph-name="A.ordn" horiz-adv-x="432" 
d="M409 280q0 -18 -13 -30.5t-31 -12.5q-14 0 -25 7.5t-16 21.5l-18 45h-180l-18 -45q-12 -29 -42 -29q-18 0 -30.5 12.5t-12.5 30.5q0 10 5 20l146 338q13 30 42 30q14 0 25 -8t17 -23l146 -337q5 -10 5 -20zM152 376h128l-64 168z" />
    <glyph glyph-name="C.ordn" horiz-adv-x="468" 
d="M141 265.5q-50 28.5 -79 77.5t-29 109t29 109t79 77.5t111 28.5q51 0 95 -20t70 -55q12 -19 12 -31q0 -16 -11.5 -28t-28.5 -12q-16 0 -36 22q-41 45 -101 45q-58 0 -95 -38.5t-37 -97.5q0 -60 37 -98t95 -38t101 45q20 22 36 22q17 0 28.5 -11.5t11.5 -28.5
q0 -13 -12 -29q-29 -37 -72.5 -57t-92.5 -20q-61 0 -111 28.5z" />
    <glyph glyph-name="D.ordn" horiz-adv-x="457" 
d="M316 634q51 -26 79.5 -73t28.5 -108q0 -60 -28.5 -108t-80 -74.5t-117.5 -26.5h-90q-19 0 -32.5 13.5t-13.5 32.5v324q0 20 13.5 33t32.5 13h90q67 0 118 -26zM147 582v-261h51q62 0 100 36.5t38 95.5q0 60 -37 94.5t-101 34.5h-51z" />
    <glyph glyph-name="E.ordn" horiz-adv-x="378" 
d="M333.5 649q11.5 -11 11.5 -27q0 -17 -11.5 -28t-28.5 -11h-157v-86h118q15 0 25 -10t10 -24q0 -15 -10 -24.5t-25 -9.5h-118v-108h165q17 0 28.5 -11t11.5 -28q0 -16 -11.5 -27t-28.5 -11h-206q-19 0 -32 13t-13 32v326q0 20 13 32.5t32 12.5h198q17 0 28.5 -11z" />
    <glyph glyph-name="Egrave.ordn" horiz-adv-x="378" 
d="M177 714l-44 55q-10 12 -10 26q0 17 12 29t28 12q23 0 34 -20l38 -62q6 -9 6 -20q0 -15 -10 -25.5t-25 -10.5q-17 0 -29 16zM333.5 649q11.5 -11 11.5 -27q0 -17 -11.5 -28t-28.5 -11h-157v-86h118q15 0 25 -10t10 -24q0 -15 -10 -24.5t-25 -9.5h-118v-108h165
q17 0 28.5 -11t11.5 -28q0 -16 -11.5 -27t-28.5 -11h-206q-19 0 -32 13t-13 32v326q0 20 13 32.5t32 12.5h198q17 0 28.5 -11z" />
    <glyph glyph-name="G.ordn" horiz-adv-x="487" 
d="M141 265.5q-50 28.5 -79 77.5t-29 109t29 109t79.5 77.5t112.5 28.5q49 0 89.5 -17.5t66.5 -49.5q14 -17 14 -33t-11.5 -28t-28.5 -12q-15 0 -31 16q-41 45 -101 45q-59 0 -95.5 -37.5t-36.5 -98.5q0 -62 38 -100.5t99 -38.5q34 0 62.5 13.5t47.5 38.5v34h-88
q-14 0 -24.5 10t-10.5 25t10 24.5t25 9.5h129q19 0 31.5 -12.5t12.5 -31.5v-43q0 -32 -19 -58q-27 -39 -76.5 -62.5t-103.5 -23.5q-62 0 -112 28.5z" />
    <glyph glyph-name="H.ordn" horiz-adv-x="477" 
d="M402.5 655q12.5 -12 12.5 -31v-344q0 -19 -12.5 -31t-30.5 -12q-19 0 -31 12t-12 31v144h-182v-144q0 -19 -11.5 -31t-30.5 -12t-31 12t-12 31v344q0 19 12.5 31t30.5 12t30 -12t12 -31v-123h182v123q0 19 12 31t31 12q18 0 30.5 -12z" />
    <glyph glyph-name="I.ordn" horiz-adv-x="209" 
d="M134.5 655q12.5 -12 12.5 -31v-344q0 -19 -12.5 -31t-30.5 -12t-30 12t-12 31v344q0 19 12 31t30 12t30.5 -12z" />
    <glyph glyph-name="L.ordn" horiz-adv-x="342" 
d="M135.5 655q11.5 -12 11.5 -31v-303h149q17 0 28.5 -11t11.5 -28q0 -16 -11.5 -27t-28.5 -11h-189q-19 0 -32 13t-13 32v335q0 19 12 31t31 12t30.5 -12z" />
    <glyph glyph-name="M.ordn" horiz-adv-x="529" 
d="M455 654.5q12 -12.5 12 -30.5v-345q0 -18 -11.5 -30t-30.5 -12t-31 12t-12 30v209l-83 -130q-14 -20 -34 -20q-22 0 -35 20l-83 130v-209q0 -18 -11.5 -30t-30.5 -12t-31 12t-12 30v346q0 18 12.5 30t30.5 12q22 0 35 -21l124 -190l122 186q18 25 39 25q18 0 30 -12.5z
" />
    <glyph glyph-name="N.ordn" horiz-adv-x="477" 
d="M402.5 654.5q12.5 -12.5 12.5 -31.5v-343q0 -19 -12.5 -31t-30.5 -12q-21 0 -40 25l-185 240v-222q0 -19 -11.5 -31t-30.5 -12t-31 12t-12 31v345q0 18 12.5 30t30.5 12q10 0 19 -6t21 -20l184 -234v216q0 19 12 31.5t30 12.5q19 0 31.5 -12.5z" />
    <glyph glyph-name="O.ordn" horiz-adv-x="506" 
d="M363.5 638.5q50.5 -28.5 80 -78t29.5 -108.5t-29.5 -108.5t-80 -78t-111.5 -28.5t-111 28.5t-79 77.5t-29 109t29 109t79 77.5t111 28.5t111.5 -28.5zM157 550q-37 -38 -37 -98t37 -98t96 -38q58 0 95.5 38.5t37.5 97.5t-37.5 97.5t-95.5 38.5q-59 0 -96 -38z" />
    <glyph glyph-name="R.ordn" horiz-adv-x="419" 
d="M394 280q0 -19 -13 -31.5t-31 -12.5q-19 0 -33 17l-101 138h-69v-112q0 -18 -12.5 -30t-30.5 -12t-30 12t-12 30v334q0 20 13.5 33.5t33.5 13.5h108q67 0 108 -37t41 -97q0 -37 -17 -66.5t-47 -47.5l81 -104q11 -14 11 -28zM147 465h70q28 0 45.5 16.5t17.5 43.5
t-17.5 43.5t-45.5 16.5h-70v-120z" />
    <glyph glyph-name="S.ordn" horiz-adv-x="358" 
d="M95.5 255q-38.5 18 -62.5 50q-10 11 -10 28q0 16 11.5 27.5t28.5 11.5q15 0 29 -12q41 -44 88 -44q25 0 40.5 12t15.5 32q0 17 -13 29.5t-39 22.5l-44 17q-101 39 -101 121q0 53 39 85t99 32q43 0 76 -17.5t52 -44.5q6 -9 6 -21q0 -16 -11.5 -28t-28.5 -12q-15 0 -29 14
q-29 30 -65 30q-22 0 -36 -9.5t-14 -29.5q0 -16 11.5 -27t34.5 -19l47 -19q104 -38 104 -122q0 -57 -41 -91t-104 -34q-45 0 -83.5 18z" />
    <glyph glyph-name="T.ordn" horiz-adv-x="379" 
d="M359.5 649q11.5 -11 11.5 -27q0 -17 -11.5 -28.5t-28.5 -11.5h-98v-302q0 -19 -12 -31t-31 -12t-31 12t-12 31v302h-99q-17 0 -28.5 11.5t-11.5 28.5q0 16 11.5 27t28.5 11h283q17 0 28.5 -11z" />
    <glyph glyph-name="U.ordn" horiz-adv-x="463" 
d="M395 655q12 -12 12 -31v-208q0 -52 -22.5 -92.5t-62.5 -63.5t-90 -23t-90 23t-62.5 63.5t-22.5 92.5v208q0 19 12 31t31 12q18 0 30 -12t12 -31v-215q0 -41 25 -67t65 -26q39 0 64 26t25 67v215q0 19 12 31t31 12t31 -12z" />
    <glyph glyph-name="Uacute.ordn" horiz-adv-x="463" 
d="M212 708.5q-10 10.5 -10 25.5q0 8 6 20l38 62q12 20 35 20q16 0 28 -12t12 -29q0 -14 -10 -26l-44 -55q-12 -16 -29 -16q-16 0 -26 10.5zM142.5 259.5q-39.5 22.5 -62.5 63t-23 93.5v210q0 18 12 29.5t31 11.5q18 0 30 -11.5t12 -29.5v-217q0 -42 25.5 -67.5t64.5 -25.5
t64 25.5t25 67.5v217q0 18 12.5 29.5t30.5 11.5q19 0 31 -11.5t12 -29.5v-210q0 -53 -23 -93.5t-62.5 -63t-89.5 -22.5t-89.5 22.5z" />
    <glyph glyph-name="Y.ordn" horiz-adv-x="405" 
d="M363 595l-117 -202v-113q0 -19 -12 -31t-31 -12q-18 0 -30 12t-12 31v109l-120 206q-10 22 -10 31q0 17 12.5 29t30.5 12q24 0 37 -23l92 -160l91 160q13 23 37 23q18 0 30.5 -12t12.5 -29q0 -13 -11 -31z" />
    <glyph glyph-name="Z.ordn" horiz-adv-x="382" 
d="M353 310q12 -11 12 -28q0 -16 -12 -27t-29 -11h-263q-17 0 -29 12t-12 29q0 15 10 28l213 269h-162q-17 0 -29 11.5t-12 28.5q0 16 12 27t29 11h237q17 0 28.5 -11.5t11.5 -28.5q0 -15 -10 -29l-209 -270h185q17 0 29 -11z" />
    <glyph glyph-name="a" unicode="a" horiz-adv-x="536" 
d="M412.5 448q53.5 -54 53.5 -151v-255q0 -23 -14.5 -38t-37.5 -15q-22 0 -37 15t-15 38v6q-56 -59 -151 -59q-77 0 -124 39t-47 103t49 102t132 38h139v32q0 50 -27.5 77.5t-77.5 27.5q-63 0 -109 -46q-19 -16 -36 -16q-19 0 -32.5 13.5t-13.5 30.5q0 22 21 43q31 33 78 51
t101 18q95 0 148.5 -54zM323 103.5q37 33.5 37 82.5v9h-126q-43 0 -65 -15.5t-22 -44.5q0 -30 23.5 -47.5t62.5 -17.5q53 0 90 33.5z" />
    <glyph glyph-name="aacute" unicode="&#xe1;" horiz-adv-x="536" 
d="M412.5 448q53.5 -54 53.5 -151v-255q0 -23 -14.5 -38t-37.5 -15q-22 0 -37 15t-15 38v6q-56 -59 -151 -59q-77 0 -124 39t-47 103t49 102t132 38h139v32q0 50 -27.5 77.5t-77.5 27.5q-63 0 -109 -46q-19 -16 -36 -16q-19 0 -32.5 13.5t-13.5 30.5q0 22 21 43q31 33 78 51
t101 18q95 0 148.5 -54zM323 103.5q37 33.5 37 82.5v9h-126q-43 0 -65 -15.5t-22 -44.5q0 -30 23.5 -47.5t62.5 -17.5q53 0 90 33.5zM250 578q-14 14 -13 33q0 10 7 24l54 125q6 13 20 22t30 9q22 0 37 -15.5t15 -38.5q0 -13 -8 -28l-67 -118q-17 -27 -40 -27q-21 0 -35 14z
" />
    <glyph glyph-name="abreve" unicode="&#x103;" horiz-adv-x="536" 
d="M412.5 448q53.5 -54 53.5 -151v-255q0 -23 -14.5 -38t-37.5 -15q-22 0 -37 15t-15 38v6q-56 -59 -151 -59q-77 0 -124 39t-47 103t49 102t132 38h139v32q0 50 -27.5 77.5t-77.5 27.5q-63 0 -109 -46q-19 -16 -36 -16q-19 0 -32.5 13.5t-13.5 30.5q0 22 21 43q31 33 78 51
t101 18q95 0 148.5 -54zM323 103.5q37 33.5 37 82.5v9h-126q-43 0 -65 -15.5t-22 -44.5q0 -30 23.5 -47.5t62.5 -17.5q53 0 90 33.5zM186 597.5q-37 20.5 -59.5 54t-22.5 70.5q0 19 12 32t30 13q34 0 42 -37q4 -31 26 -50.5t51 -19.5q30 0 51.5 19.5t26.5 50.5q4 17 14.5 27
t26.5 10q18 0 30.5 -13t12.5 -32q0 -38 -22 -71.5t-59 -53.5t-81 -20q-42 0 -79 20.5z" />
    <glyph glyph-name="acircumflex" unicode="&#xe2;" horiz-adv-x="536" 
d="M412.5 448q53.5 -54 53.5 -151v-255q0 -23 -14.5 -38t-37.5 -15q-22 0 -37 15t-15 38v6q-56 -59 -151 -59q-77 0 -124 39t-47 103t49 102t132 38h139v32q0 50 -27.5 77.5t-77.5 27.5q-63 0 -109 -46q-19 -16 -36 -16q-19 0 -32.5 13.5t-13.5 30.5q0 22 21 43q31 33 78 51
t101 18q95 0 148.5 -54zM323 103.5q37 33.5 37 82.5v9h-126q-43 0 -65 -15.5t-22 -44.5q0 -30 23.5 -47.5t62.5 -17.5q53 0 90 33.5zM419 608q0 -18 -12.5 -30t-29.5 -12q-19 0 -31 14l-81 93l-82 -93q-5 -6 -13 -10t-17 -4q-17 0 -29.5 12t-12.5 30q0 17 12 30l102 130
q16 19 40 19t39 -19l103 -130q12 -15 12 -30z" />
    <glyph glyph-name="adieresis" unicode="&#xe4;" horiz-adv-x="536" 
d="M412.5 448q53.5 -54 53.5 -151v-255q0 -23 -14.5 -38t-37.5 -15q-22 0 -37 15t-15 38v6q-56 -59 -151 -59q-77 0 -124 39t-47 103t49 102t132 38h139v32q0 50 -27.5 77.5t-77.5 27.5q-63 0 -109 -46q-19 -16 -36 -16q-19 0 -32.5 13.5t-13.5 30.5q0 22 21 43q31 33 78 51
t101 18q95 0 148.5 -54zM323 103.5q37 33.5 37 82.5v9h-126q-43 0 -65 -15.5t-22 -44.5q0 -30 23.5 -47.5t62.5 -17.5q53 0 90 33.5zM201 721q19 -19 19 -47q0 -26 -19.5 -45.5t-47.5 -19.5q-27 0 -47.5 19.5t-20.5 45.5q0 27 20 46.5t48 19.5q29 0 48 -19zM425.5 721
q19.5 -19 19.5 -47q0 -26 -20 -45.5t-48 -19.5q-27 0 -47.5 19.5t-20.5 45.5q0 27 20 46.5t48 19.5q29 0 48.5 -19z" />
    <glyph glyph-name="agrave" unicode="&#xe0;" horiz-adv-x="536" 
d="M412.5 448q53.5 -54 53.5 -151v-255q0 -23 -14.5 -38t-37.5 -15q-22 0 -37 15t-15 38v6q-56 -59 -151 -59q-77 0 -124 39t-47 103t49 102t132 38h139v32q0 50 -27.5 77.5t-77.5 27.5q-63 0 -109 -46q-19 -16 -36 -16q-19 0 -32.5 13.5t-13.5 30.5q0 22 21 43q31 33 78 51
t101 18q95 0 148.5 -54zM323 103.5q37 33.5 37 82.5v9h-126q-43 0 -65 -15.5t-22 -44.5q0 -30 23.5 -47.5t62.5 -17.5q53 0 90 33.5zM205 591l-67 118q-8 15 -8 28q0 23 15 38.5t37 15.5q16 0 30 -9t20 -22l54 -125q7 -14 7 -24q1 -19 -13 -33t-35 -14q-23 0 -40 27z" />
    <glyph glyph-name="amacron" unicode="&#x101;" horiz-adv-x="536" 
d="M412.5 448q53.5 -54 53.5 -151v-255q0 -23 -14.5 -38t-37.5 -15q-22 0 -37 15t-15 38v6q-56 -59 -151 -59q-77 0 -124 39t-47 103t49 102t132 38h139v32q0 50 -27.5 77.5t-77.5 27.5q-63 0 -109 -46q-19 -16 -36 -16q-19 0 -32.5 13.5t-13.5 30.5q0 22 21 43q31 33 78 51
t101 18q95 0 148.5 -54zM323 103.5q37 33.5 37 82.5v9h-126q-43 0 -65 -15.5t-22 -44.5q0 -30 23.5 -47.5t62.5 -17.5q53 0 90 33.5zM402.5 704q12.5 -12 12.5 -30t-12.5 -30t-31.5 -12h-212q-19 0 -31.5 12t-12.5 30t12.5 30t31.5 12h212q19 0 31.5 -12z" />
    <glyph glyph-name="aogonek" unicode="&#x105;" horiz-adv-x="536" 
d="M412.5 448q53.5 -54 53.5 -151v-255q0 -23 -14.5 -38t-37.5 -15q-22 0 -37 15t-15 38v6q-56 -59 -151 -59q-77 0 -124 39t-47 103t49 102t132 38h139v32q0 50 -27.5 77.5t-77.5 27.5q-63 0 -109 -46q-19 -16 -36 -16q-19 0 -32.5 13.5t-13.5 30.5q0 22 21 43q31 33 78 51
t101 18q95 0 148.5 -54zM323 103.5q37 33.5 37 82.5v9h-126q-43 0 -65 -15.5t-22 -44.5q0 -30 23.5 -47.5t62.5 -17.5q53 0 90 33.5zM311 -164.5q-31 26.5 -31 71.5q0 35 19.5 61.5t63.5 61.5q23 18 39.5 27t30.5 9q13 0 23 -9t10 -21q0 -22 -24 -40q-29 -22 -46 -39.5
t-17 -36.5q0 -14 11.5 -22.5t32.5 -8.5l25 1q15 0 24.5 -10t9.5 -26q0 -29 -32 -38q-20 -7 -57 -7q-51 0 -82 26.5z" />
    <glyph glyph-name="aring" unicode="&#xe5;" horiz-adv-x="536" 
d="M412.5 448q53.5 -54 53.5 -151v-255q0 -23 -14.5 -38t-37.5 -15q-22 0 -37 15t-15 38v6q-56 -59 -151 -59q-77 0 -124 39t-47 103t49 102t132 38h139v32q0 50 -27.5 77.5t-77.5 27.5q-63 0 -109 -46q-19 -16 -36 -16q-19 0 -32.5 13.5t-13.5 30.5q0 22 21 43q31 33 78 51
t101 18q95 0 148.5 -54zM323 103.5q37 33.5 37 82.5v9h-126q-43 0 -65 -15.5t-22 -44.5q0 -30 23.5 -47.5t62.5 -17.5q53 0 90 33.5zM349 755q34 -33 34 -82t-34 -82t-85 -33q-50 0 -84 33t-34 82t34 82t84 33q51 0 85 -33zM232 706q-13 -13 -13 -33q0 -19 13 -32t33 -13
t32.5 13t12.5 32t-13 32.5t-32 13.5q-20 0 -33 -13z" />
    <glyph glyph-name="atilde" unicode="&#xe3;" horiz-adv-x="536" 
d="M412.5 448q53.5 -54 53.5 -151v-255q0 -23 -14.5 -38t-37.5 -15q-22 0 -37 15t-15 38v6q-56 -59 -151 -59q-77 0 -124 39t-47 103t49 102t132 38h139v32q0 50 -27.5 77.5t-77.5 27.5q-63 0 -109 -46q-19 -16 -36 -16q-19 0 -32.5 13.5t-13.5 30.5q0 22 21 43q31 33 78 51
t101 18q95 0 148.5 -54zM323 103.5q37 33.5 37 82.5v9h-126q-43 0 -65 -15.5t-22 -44.5q0 -30 23.5 -47.5t62.5 -17.5q53 0 90 33.5zM270 612l-27 20q-16 13 -24 17.5t-17 4.5q-12 0 -19 -8t-9 -22q-3 -17 -14 -27t-27 -10q-19 0 -31 13.5t-12 34.5q0 51 28 82.5t72 31.5
q36 0 70 -24l26 -20q19 -14 26.5 -18t15.5 -4q23 0 28 30q3 17 14 27t27 10q19 0 31 -13.5t12 -34.5q0 -50 -28 -82.5t-71 -32.5q-38 0 -71 25z" />
    <glyph glyph-name="ae" unicode="&#xe6;" horiz-adv-x="887" 
d="M732.5 472.5q51.5 -29.5 80.5 -81.5t29 -117v-9q0 -29 -15.5 -45t-44.5 -16h-313q12 -56 54.5 -89t104.5 -33q68 0 115 38q14 10 27 10q19 0 32 -12.5t13 -31.5q0 -14 -6 -24t-21 -20q-67 -53 -162 -53q-67 0 -122 29t-89 80q-26 -52 -78 -80.5t-120 -28.5
q-81 0 -129 39.5t-48 104.5q0 67 49 107t132 40h139v23q0 50 -27.5 77.5t-77.5 27.5q-60 0 -109 -46q-19 -16 -35 -16q-18 0 -32 13.5t-14 31.5q0 21 21 42q31 33 77 51t101 18q57 0 99.5 -23t65.5 -65q33 42 82 65t105 23q65 0 116.5 -29.5zM737 280q3 58 -32 95.5
t-93 37.5q-56 0 -95.5 -36.5t-48.5 -96.5h269zM323 104q37 33 37 81v19h-126q-87 0 -87 -63q0 -32 23 -51t63 -19q53 0 90 33z" />
    <glyph glyph-name="aeacute" unicode="&#x1fd;" horiz-adv-x="887" 
d="M732.5 472.5q51.5 -29.5 80.5 -81.5t29 -117v-9q0 -29 -15.5 -45t-44.5 -16h-313q12 -56 54.5 -89t104.5 -33q68 0 115 38q14 10 27 10q19 0 32 -12.5t13 -31.5q0 -14 -6 -24t-21 -20q-67 -53 -162 -53q-67 0 -122 29t-89 80q-26 -52 -78 -80.5t-120 -28.5
q-81 0 -129 39.5t-48 104.5q0 67 49 107t132 40h139v23q0 50 -27.5 77.5t-77.5 27.5q-60 0 -109 -46q-19 -16 -35 -16q-18 0 -32 13.5t-14 31.5q0 21 21 42q31 33 77 51t101 18q57 0 99.5 -23t65.5 -65q33 42 82 65t105 23q65 0 116.5 -29.5zM737 280q3 58 -32 95.5
t-93 37.5q-56 0 -95.5 -36.5t-48.5 -96.5h269zM323 104q37 33 37 81v19h-126q-87 0 -87 -63q0 -32 23 -51t63 -19q53 0 90 33zM414 578q-14 14 -13 33q0 10 7 24l54 125q6 13 20 22t30 9q22 0 37 -15.5t15 -38.5q0 -13 -8 -28l-67 -118q-17 -27 -40 -27q-21 0 -35 14z" />
    <glyph glyph-name="b" unicode="b" horiz-adv-x="631" 
d="M469 468.5q55 -33.5 86 -92t31 -131.5t-31 -131.5t-86 -91.5t-123 -33q-52 0 -95 19t-71 53v-18q0 -24 -14.5 -39t-36.5 -15q-23 0 -38 15.5t-15 38.5v664q0 23 15 38.5t38 15.5t37.5 -15t14.5 -39v-277q28 34 70.5 53t93.5 19q69 0 124 -33.5zM405 106q34 21 53.5 57.5
t19.5 82.5q0 45 -19.5 81.5t-53.5 57.5t-77 21q-67 0 -107.5 -44.5t-40.5 -116.5q0 -71 41 -115.5t107 -44.5q43 0 77 21z" />
    <glyph glyph-name="c" unicode="c" horiz-adv-x="552" 
d="M173.5 23q-59.5 34 -94 93t-34.5 130q0 70 34.5 129t94 93t131.5 34q63 0 116 -27.5t82 -72.5q10 -15 10 -28q0 -20 -13.5 -34t-33.5 -14q-23 0 -37 17q-50 62 -123 62q-43 0 -78.5 -20.5t-55.5 -57t-20 -81.5q0 -46 20 -82.5t55 -57t79 -20.5q71 0 123 61q8 10 17 13.5
t20 3.5q20 0 33.5 -13.5t13.5 -33.5q0 -14 -9 -27q-32 -47 -83.5 -74t-115.5 -27q-72 0 -131.5 34z" />
    <glyph glyph-name="cacute" unicode="&#x107;" horiz-adv-x="552" 
d="M173.5 23q-59.5 34 -94 93t-34.5 130q0 70 34.5 129t94 93t131.5 34q63 0 116 -27.5t82 -72.5q10 -15 10 -28q0 -20 -13.5 -34t-33.5 -14q-23 0 -37 17q-50 62 -123 62q-43 0 -78.5 -20.5t-55.5 -57t-20 -81.5q0 -46 20 -82.5t55 -57t79 -20.5q71 0 123 61q8 10 17 13.5
t20 3.5q20 0 33.5 -13.5t13.5 -33.5q0 -14 -9 -27q-32 -47 -83.5 -74t-115.5 -27q-72 0 -131.5 34zM289 578q-14 14 -13 33q0 10 7 24l54 125q6 13 20 22t30 9q22 0 37 -15.5t15 -38.5q0 -13 -8 -28l-67 -118q-17 -27 -40 -27q-21 0 -35 14z" />
    <glyph glyph-name="ccaron" unicode="&#x10d;" horiz-adv-x="552" 
d="M173.5 23q-59.5 34 -94 93t-34.5 130q0 70 34.5 129t94 93t131.5 34q63 0 116 -27.5t82 -72.5q10 -15 10 -28q0 -20 -13.5 -34t-33.5 -14q-23 0 -37 17q-50 62 -123 62q-43 0 -78.5 -20.5t-55.5 -57t-20 -81.5q0 -46 20 -82.5t55 -57t79 -20.5q71 0 123 61q8 10 17 13.5
t20 3.5q20 0 33.5 -13.5t13.5 -33.5q0 -14 -9 -27q-32 -47 -83.5 -74t-115.5 -27q-72 0 -131.5 34zM445.5 775q12.5 -12 12.5 -30q0 -15 -12 -30l-103 -130q-15 -19 -39 -19t-40 19l-102 130q-12 14 -12 30q0 18 12.5 30t29.5 12q9 0 17 -4t13 -10l82 -93l81 93q12 14 31 14
q17 0 29.5 -12z" />
    <glyph glyph-name="ccedilla" unicode="&#xe7;" horiz-adv-x="552" 
d="M173.5 23q-59.5 34 -94 93t-34.5 130q0 70 34.5 129t94 93t131.5 34q63 0 116 -27.5t82 -72.5q10 -15 10 -28q0 -20 -13.5 -34t-33.5 -14q-23 0 -37 17q-50 62 -123 62q-43 0 -78.5 -20.5t-55.5 -57t-20 -81.5q0 -46 20 -82.5t55 -57t79 -20.5q71 0 123 61q8 10 17 13.5
t20 3.5q20 0 33.5 -13.5t13.5 -33.5q0 -14 -9 -27q-32 -47 -83.5 -74t-115.5 -27q-72 0 -131.5 34zM190 -183q-28 11 -28 36q0 16 11 27t27 11q8 0 18.5 -1.5t20.5 -1.5q27 0 45.5 12.5t18.5 35.5q0 17 -6 30t-16 27q-3 4 -9.5 12.5t-10 15.5t-3.5 13q0 14 8.5 22t24.5 8
q22 0 46 -21.5t40.5 -53t16.5 -59.5q0 -55 -40 -88t-105 -33q-41 0 -59 8z" />
    <glyph glyph-name="ccircumflex" unicode="&#x109;" horiz-adv-x="552" 
d="M173.5 23q-59.5 34 -94 93t-34.5 130q0 70 34.5 129t94 93t131.5 34q63 0 116 -27.5t82 -72.5q10 -15 10 -28q0 -20 -13.5 -34t-33.5 -14q-23 0 -37 17q-50 62 -123 62q-43 0 -78.5 -20.5t-55.5 -57t-20 -81.5q0 -46 20 -82.5t55 -57t79 -20.5q71 0 123 61q8 10 17 13.5
t20 3.5q20 0 33.5 -13.5t13.5 -33.5q0 -14 -9 -27q-32 -47 -83.5 -74t-115.5 -27q-72 0 -131.5 34zM458 608q0 -18 -12.5 -30t-29.5 -12q-19 0 -31 14l-81 93l-82 -93q-5 -6 -13 -10t-17 -4q-17 0 -29.5 12t-12.5 30q0 17 12 30l102 130q16 19 40 19t39 -19l103 -130
q12 -15 12 -30z" />
    <glyph glyph-name="cdotaccent" unicode="&#x10b;" horiz-adv-x="552" 
d="M173.5 23q-59.5 34 -94 93t-34.5 130q0 70 34.5 129t94 93t131.5 34q63 0 116 -27.5t82 -72.5q10 -15 10 -28q0 -20 -13.5 -34t-33.5 -14q-23 0 -37 17q-50 62 -123 62q-43 0 -78.5 -20.5t-55.5 -57t-20 -81.5q0 -46 20 -82.5t55 -57t79 -20.5q71 0 123 61q8 10 17 13.5
t20 3.5q20 0 33.5 -13.5t13.5 -33.5q0 -14 -9 -27q-32 -47 -83.5 -74t-115.5 -27q-72 0 -131.5 34zM353.5 722q20.5 -20 20.5 -48t-20.5 -48t-49.5 -20t-49.5 20t-20.5 48t20.5 48t49.5 20t49.5 -20z" />
    <glyph glyph-name="d" unicode="d" horiz-adv-x="631" 
d="M540 746q15 -15 15 -39v-665q0 -23 -15 -38t-37 -15t-37 15t-15 38v20q-27 -35 -70 -54t-96 -19q-68 0 -123 33t-86 91.5t-31 131.5t31 131.5t86 92t123 33.5q51 0 93.5 -18.5t70.5 -52.5v276q0 23 15 38.5t38 15.5t38 -15zM410 129.5q41 44.5 41 115.5t-41 116t-107 45
q-43 0 -77.5 -21t-54 -57.5t-19.5 -81.5q0 -70 42.5 -115.5t108.5 -45.5t107 44.5z" />
    <glyph glyph-name="eth" unicode="&#xf0;" horiz-adv-x="571" 
d="M502 330.5q24 -51.5 24 -106.5q0 -67 -31 -120.5t-86 -84t-123 -30.5t-123.5 30t-86.5 82t-31 117q0 63 30 114.5t82 81t116 29.5q12 0 34 -2l-80 111l-112 -55q-15 -7 -26 -7q-17 0 -29 12.5t-12 29.5q0 12 6.5 22.5t16.5 14.5l105 51l-43 60q-11 17 -11 32
q0 20 15 34.5t35 14.5q25 0 42 -24l54 -72l121 59q13 8 25 8q17 0 29.5 -12.5t12.5 -29.5q0 -12 -6.5 -22.5t-17.5 -15.5l-113 -55l94 -127q65 -88 89 -139.5zM381 122q38 38 38 97t-37.5 96.5t-96.5 37.5q-58 0 -95.5 -38t-37.5 -97t37.5 -96.5t95.5 -37.5t96 38z" />
    <glyph glyph-name="dcaron" unicode="&#x10f;" horiz-adv-x="773" 
d="M540 746q15 -15 15 -39v-665q0 -23 -15 -38t-37 -15t-37 15t-15 38v20q-27 -35 -70 -54t-96 -19q-68 0 -123 33t-86 91.5t-31 131.5t31 131.5t86 92t123 33.5q51 0 93.5 -18.5t70.5 -52.5v276q0 23 15 38.5t38 15.5t38 -15zM410 129.5q41 44.5 41 115.5t-41 116t-107 45
q-43 0 -77.5 -21t-54 -57.5t-19.5 -81.5q0 -70 42.5 -115.5t108.5 -45.5t107 44.5zM653 548q-14 14 -14 35l1 9l19 129q2 20 17.5 34.5t36.5 14.5t37 -14.5t16 -37.5q0 -9 -3 -20l-32 -129q-4 -13 -15 -24t-30 -11t-33 14z" />
    <glyph glyph-name="dcroat" unicode="&#x111;" horiz-adv-x="635" 
d="M627.5 641q12.5 -12 12.5 -31t-12.5 -31t-31.5 -12h-42v-524q0 -24 -14.5 -39t-37.5 -15q-22 0 -37 15.5t-15 38.5v20q-28 -35 -72 -54.5t-97 -19.5q-67 0 -121 32t-85 88t-31 125q0 70 31 126t85 88.5t121 32.5q52 0 96 -20t72 -55v161h-173q-19 0 -31.5 12t-12.5 31
t12.5 31t31.5 12h173v54q0 23 15 38.5t38 15.5q22 0 37 -15t15 -39v-54h42q19 0 31.5 -12zM409.5 122q40.5 42 40.5 112t-40.5 112.5t-107.5 42.5q-65 0 -107.5 -43.5t-42.5 -111.5t42 -111t108 -43q67 0 107.5 42z" />
    <glyph glyph-name="e" unicode="e" horiz-adv-x="570" 
d="M415 472.5q52 -29.5 81.5 -81.5t29.5 -117v-5q0 -27 -16 -42.5t-44 -15.5h-314q11 -60 53 -94.5t107 -34.5t115 38q15 10 27 10q19 0 31.5 -12.5t12.5 -31.5q0 -14 -6 -24t-20 -20q-71 -53 -163 -53q-75 0 -135 33.5t-94.5 91.5t-34.5 131q0 71 33.5 130t91.5 93t128 34
q65 0 117 -29.5zM204 380q-38 -33 -50 -87h267q-2 54 -36.5 87t-89.5 33q-53 0 -91 -33z" />
    <glyph glyph-name="eacute" unicode="&#xe9;" horiz-adv-x="570" 
d="M415 472.5q52 -29.5 81.5 -81.5t29.5 -117v-5q0 -27 -16 -42.5t-44 -15.5h-314q11 -60 53 -94.5t107 -34.5t115 38q15 10 27 10q19 0 31.5 -12.5t12.5 -31.5q0 -14 -6 -24t-20 -20q-71 -53 -163 -53q-75 0 -135 33.5t-94.5 91.5t-34.5 131q0 71 33.5 130t91.5 93t128 34
q65 0 117 -29.5zM204 380q-38 -33 -50 -87h267q-2 54 -36.5 87t-89.5 33q-53 0 -91 -33zM282 578q-14 14 -13 33q0 10 7 24l54 125q6 13 20 22t30 9q22 0 37 -15.5t15 -38.5q0 -13 -8 -28l-67 -118q-17 -27 -40 -27q-21 0 -35 14z" />
    <glyph glyph-name="ebreve" unicode="&#x115;" horiz-adv-x="570" 
d="M415 472.5q52 -29.5 81.5 -81.5t29.5 -117v-5q0 -27 -16 -42.5t-44 -15.5h-314q11 -60 53 -94.5t107 -34.5t115 38q15 10 27 10q19 0 31.5 -12.5t12.5 -31.5q0 -14 -6 -24t-20 -20q-71 -53 -163 -53q-75 0 -135 33.5t-94.5 91.5t-34.5 131q0 71 33.5 130t91.5 93t128 34
q65 0 117 -29.5zM204 380q-38 -33 -50 -87h267q-2 54 -36.5 87t-89.5 33q-53 0 -91 -33zM218 597.5q-37 20.5 -59.5 54t-22.5 70.5q0 19 12 32t30 13q34 0 42 -37q4 -31 26 -50.5t51 -19.5q30 0 51.5 19.5t26.5 50.5q4 17 14.5 27t26.5 10q18 0 30.5 -13t12.5 -32
q0 -38 -22 -71.5t-59 -53.5t-81 -20q-42 0 -79 20.5z" />
    <glyph glyph-name="ecaron" unicode="&#x11b;" horiz-adv-x="570" 
d="M415 472.5q52 -29.5 81.5 -81.5t29.5 -117v-5q0 -27 -16 -42.5t-44 -15.5h-314q11 -60 53 -94.5t107 -34.5t115 38q15 10 27 10q19 0 31.5 -12.5t12.5 -31.5q0 -14 -6 -24t-20 -20q-71 -53 -163 -53q-75 0 -135 33.5t-94.5 91.5t-34.5 131q0 71 33.5 130t91.5 93t128 34
q65 0 117 -29.5zM204 380q-38 -33 -50 -87h267q-2 54 -36.5 87t-89.5 33q-53 0 -91 -33zM438.5 775q12.5 -12 12.5 -30q0 -15 -12 -30l-103 -130q-15 -19 -39 -19t-40 19l-102 130q-12 14 -12 30q0 18 12.5 30t29.5 12q9 0 17 -4t13 -10l82 -93l81 93q12 14 31 14
q17 0 29.5 -12z" />
    <glyph glyph-name="ecircumflex" unicode="&#xea;" horiz-adv-x="570" 
d="M415 472.5q52 -29.5 81.5 -81.5t29.5 -117v-5q0 -27 -16 -42.5t-44 -15.5h-314q11 -60 53 -94.5t107 -34.5t115 38q15 10 27 10q19 0 31.5 -12.5t12.5 -31.5q0 -14 -6 -24t-20 -20q-71 -53 -163 -53q-75 0 -135 33.5t-94.5 91.5t-34.5 131q0 71 33.5 130t91.5 93t128 34
q65 0 117 -29.5zM204 380q-38 -33 -50 -87h267q-2 54 -36.5 87t-89.5 33q-53 0 -91 -33zM451 608q0 -18 -12.5 -30t-29.5 -12q-19 0 -31 14l-81 93l-82 -93q-5 -6 -13 -10t-17 -4q-17 0 -29.5 12t-12.5 30q0 17 12 30l102 130q16 19 40 19t39 -19l103 -130q12 -15 12 -30z
" />
    <glyph glyph-name="edieresis" unicode="&#xeb;" horiz-adv-x="570" 
d="M415 472.5q52 -29.5 81.5 -81.5t29.5 -117v-5q0 -27 -16 -42.5t-44 -15.5h-314q11 -60 53 -94.5t107 -34.5t115 38q15 10 27 10q19 0 31.5 -12.5t12.5 -31.5q0 -14 -6 -24t-20 -20q-71 -53 -163 -53q-75 0 -135 33.5t-94.5 91.5t-34.5 131q0 71 33.5 130t91.5 93t128 34
q65 0 117 -29.5zM204 380q-38 -33 -50 -87h267q-2 54 -36.5 87t-89.5 33q-53 0 -91 -33zM233 721q19 -19 19 -47q0 -26 -19.5 -45.5t-47.5 -19.5q-27 0 -47.5 19.5t-20.5 45.5q0 27 20 46.5t48 19.5q29 0 48 -19zM457.5 721q19.5 -19 19.5 -47q0 -26 -20 -45.5t-48 -19.5
q-27 0 -47.5 19.5t-20.5 45.5q0 27 20 46.5t48 19.5q29 0 48.5 -19z" />
    <glyph glyph-name="edotaccent" unicode="&#x117;" horiz-adv-x="570" 
d="M415 472.5q52 -29.5 81.5 -81.5t29.5 -117v-5q0 -27 -16 -42.5t-44 -15.5h-314q11 -60 53 -94.5t107 -34.5t115 38q15 10 27 10q19 0 31.5 -12.5t12.5 -31.5q0 -14 -6 -24t-20 -20q-71 -53 -163 -53q-75 0 -135 33.5t-94.5 91.5t-34.5 131q0 71 33.5 130t91.5 93t128 34
q65 0 117 -29.5zM204 380q-38 -33 -50 -87h267q-2 54 -36.5 87t-89.5 33q-53 0 -91 -33zM346.5 722q20.5 -20 20.5 -48t-20.5 -48t-49.5 -20t-49.5 20t-20.5 48t20.5 48t49.5 20t49.5 -20z" />
    <glyph glyph-name="egrave" unicode="&#xe8;" horiz-adv-x="570" 
d="M415 472.5q52 -29.5 81.5 -81.5t29.5 -117v-5q0 -27 -16 -42.5t-44 -15.5h-314q11 -60 53 -94.5t107 -34.5t115 38q15 10 27 10q19 0 31.5 -12.5t12.5 -31.5q0 -14 -6 -24t-20 -20q-71 -53 -163 -53q-75 0 -135 33.5t-94.5 91.5t-34.5 131q0 71 33.5 130t91.5 93t128 34
q65 0 117 -29.5zM204 380q-38 -33 -50 -87h267q-2 54 -36.5 87t-89.5 33q-53 0 -91 -33zM237 591l-67 118q-8 15 -8 28q0 23 15 38.5t37 15.5q16 0 30 -9t20 -22l54 -125q7 -14 7 -24q1 -19 -13 -33t-35 -14q-23 0 -40 27z" />
    <glyph glyph-name="emacron" unicode="&#x113;" horiz-adv-x="570" 
d="M415 472.5q52 -29.5 81.5 -81.5t29.5 -117v-5q0 -27 -16 -42.5t-44 -15.5h-314q11 -60 53 -94.5t107 -34.5t115 38q15 10 27 10q19 0 31.5 -12.5t12.5 -31.5q0 -14 -6 -24t-20 -20q-71 -53 -163 -53q-75 0 -135 33.5t-94.5 91.5t-34.5 131q0 71 33.5 130t91.5 93t128 34
q65 0 117 -29.5zM204 380q-38 -33 -50 -87h267q-2 54 -36.5 87t-89.5 33q-53 0 -91 -33zM434.5 704q12.5 -12 12.5 -30t-12.5 -30t-31.5 -12h-212q-19 0 -31.5 12t-12.5 30t12.5 30t31.5 12h212q19 0 31.5 -12z" />
    <glyph glyph-name="eogonek" unicode="&#x119;" horiz-adv-x="570" 
d="M415 472.5q52 -29.5 81.5 -81.5t29.5 -117v-5q0 -27 -16 -42.5t-44 -15.5h-314q11 -60 53 -94.5t107 -34.5t115 38q15 10 27 10q19 0 31.5 -12.5t12.5 -31.5q0 -14 -6 -24t-20 -20l-5 -4l-5 -4l-35 -25q-39 -26 -59 -45t-20 -42q0 -16 12 -25t32 -9q7 0 13.5 1t10.5 1
q15 0 24.5 -10t9.5 -25q0 -30 -31 -39q-21 -7 -57 -7q-52 0 -83 26t-31 71q0 41 40 84q-70 4 -125 38.5t-86.5 91t-31.5 125.5q0 71 33.5 130t91.5 93t128 34q65 0 117 -29.5zM204 380q-38 -33 -50 -87h267q-2 54 -36.5 87t-89.5 33q-53 0 -91 -33z" />
    <glyph glyph-name="f" unicode="f" horiz-adv-x="322" 
d="M220 644q-21 -22 -21 -63v-90h79q20 0 33.5 -13t13.5 -33q0 -19 -13.5 -32t-33.5 -13h-79v-357q0 -24 -14.5 -39t-37.5 -15t-38 15.5t-15 38.5v357h-34q-20 0 -33 13t-13 32q0 20 13.5 33t32.5 13h34v99q0 81 44.5 126t124.5 45q33 0 57 -9q14 -5 22.5 -17t8.5 -28
q0 -19 -13 -30.5t-34 -11.5l-24 1q-39 0 -60 -22z" />
    <glyph glyph-name="g" unicode="g" horiz-adv-x="634" 
d="M543.5 486.5q14.5 -15.5 14.5 -38.5v-397q0 -113 -65.5 -177.5t-180.5 -64.5q-60 0 -115 19t-98 54q-20 17 -20 38q0 20 14 34t34 14q17 0 30 -10q37 -28 73 -40.5t76 -12.5q70 0 108.5 36.5t38.5 103.5v35q-28 -33 -70.5 -51.5t-95.5 -18.5q-68 0 -122.5 31.5
t-85.5 87.5t-31 127t31 127t85.5 87.5t122.5 31.5q53 0 96.5 -19t70.5 -54v19q0 23 15 38.5t38 15.5q22 0 36.5 -15.5zM413.5 144.5q40.5 42.5 40.5 112.5q0 68 -40.5 109.5t-107.5 41.5q-65 0 -107.5 -42.5t-42.5 -109.5t42.5 -110.5t107.5 -43.5q67 0 107.5 42.5z" />
    <glyph glyph-name="gbreve" unicode="&#x11f;" horiz-adv-x="634" 
d="M543.5 486.5q14.5 -15.5 14.5 -38.5v-397q0 -113 -65.5 -177.5t-180.5 -64.5q-60 0 -115 19t-98 54q-20 17 -20 38q0 20 14 34t34 14q17 0 30 -10q37 -28 73 -40.5t76 -12.5q70 0 108.5 36.5t38.5 103.5v35q-28 -33 -70.5 -51.5t-95.5 -18.5q-68 0 -122.5 31.5
t-85.5 87.5t-31 127t31 127t85.5 87.5t122.5 31.5q53 0 96.5 -19t70.5 -54v19q0 23 15 38.5t38 15.5q22 0 36.5 -15.5zM413.5 144.5q40.5 42.5 40.5 112.5q0 68 -40.5 109.5t-107.5 41.5q-65 0 -107.5 -42.5t-42.5 -109.5t42.5 -110.5t107.5 -43.5q67 0 107.5 42.5z
M231 597.5q-37 20.5 -59.5 54t-22.5 70.5q0 19 12 32t30 13q34 0 42 -37q4 -31 26 -50.5t51 -19.5q30 0 51.5 19.5t26.5 50.5q4 17 14.5 27t26.5 10q18 0 30.5 -13t12.5 -32q0 -38 -22 -71.5t-59 -53.5t-81 -20q-42 0 -79 20.5z" />
    <glyph glyph-name="gcircumflex" unicode="&#x11d;" horiz-adv-x="634" 
d="M543.5 486.5q14.5 -15.5 14.5 -38.5v-397q0 -113 -65.5 -177.5t-180.5 -64.5q-60 0 -115 19t-98 54q-20 17 -20 38q0 20 14 34t34 14q17 0 30 -10q37 -28 73 -40.5t76 -12.5q70 0 108.5 36.5t38.5 103.5v35q-28 -33 -70.5 -51.5t-95.5 -18.5q-68 0 -122.5 31.5
t-85.5 87.5t-31 127t31 127t85.5 87.5t122.5 31.5q53 0 96.5 -19t70.5 -54v19q0 23 15 38.5t38 15.5q22 0 36.5 -15.5zM413.5 144.5q40.5 42.5 40.5 112.5q0 68 -40.5 109.5t-107.5 41.5q-65 0 -107.5 -42.5t-42.5 -109.5t42.5 -110.5t107.5 -43.5q67 0 107.5 42.5zM464 608
q0 -18 -12.5 -30t-29.5 -12q-19 0 -31 14l-81 93l-82 -93q-5 -6 -13 -10t-17 -4q-17 0 -29.5 12t-12.5 30q0 17 12 30l102 130q16 19 40 19t39 -19l103 -130q12 -15 12 -30z" />
    <glyph glyph-name="gcommaaccent" unicode="&#x123;" horiz-adv-x="634" 
d="M543.5 486.5q14.5 -15.5 14.5 -38.5v-397q0 -113 -65.5 -177.5t-180.5 -64.5q-60 0 -115 19t-98 54q-20 17 -20 38q0 20 14 34t34 14q17 0 30 -10q37 -28 73 -40.5t76 -12.5q70 0 108.5 36.5t38.5 103.5v35q-28 -33 -70.5 -51.5t-95.5 -18.5q-68 0 -122.5 31.5
t-85.5 87.5t-31 127t31 127t85.5 87.5t122.5 31.5q53 0 96.5 -19t70.5 -54v19q0 23 15 38.5t38 15.5q22 0 36.5 -15.5zM413.5 144.5q40.5 42.5 40.5 112.5q0 68 -40.5 109.5t-107.5 41.5q-65 0 -107.5 -42.5t-42.5 -109.5t42.5 -110.5t107.5 -43.5q67 0 107.5 42.5zM272 577
q-15 15 -15 37q0 32 9.5 79t20.5 78q14 38 47 38q17 0 30 -12.5t13 -31.5q0 -9 -4 -29q-12 -75 -12 -122q0 -22 -15.5 -37t-36.5 -15q-22 0 -37 15z" />
    <glyph glyph-name="gdotaccent" unicode="&#x121;" horiz-adv-x="634" 
d="M543.5 486.5q14.5 -15.5 14.5 -38.5v-397q0 -113 -65.5 -177.5t-180.5 -64.5q-60 0 -115 19t-98 54q-20 17 -20 38q0 20 14 34t34 14q17 0 30 -10q37 -28 73 -40.5t76 -12.5q70 0 108.5 36.5t38.5 103.5v35q-28 -33 -70.5 -51.5t-95.5 -18.5q-68 0 -122.5 31.5
t-85.5 87.5t-31 127t31 127t85.5 87.5t122.5 31.5q53 0 96.5 -19t70.5 -54v19q0 23 15 38.5t38 15.5q22 0 36.5 -15.5zM413.5 144.5q40.5 42.5 40.5 112.5q0 68 -40.5 109.5t-107.5 41.5q-65 0 -107.5 -42.5t-42.5 -109.5t42.5 -110.5t107.5 -43.5q67 0 107.5 42.5z
M359.5 722q20.5 -20 20.5 -48t-20.5 -48t-49.5 -20t-49.5 20t-20.5 48t20.5 48t49.5 20t49.5 -20z" />
    <glyph glyph-name="h" unicode="h" horiz-adv-x="575" 
d="M455.5 448.5q49.5 -53.5 49.5 -141.5v-264q0 -24 -15 -39t-37 -15q-23 0 -38 15.5t-15 38.5v249q0 52 -29.5 83t-77.5 31q-49 0 -80.5 -32t-31.5 -82v-249q0 -24 -14.5 -39t-37.5 -15t-38 15.5t-15 38.5v664q0 23 15 38.5t38 15.5t37.5 -15t14.5 -39v-265q26 29 62 44.5
t80 15.5q83 0 132.5 -53.5z" />
    <glyph glyph-name="hbar" unicode="&#x127;" horiz-adv-x="581" 
d="M461 427.5q50 -53.5 50 -142.5v-242q0 -24 -15 -39t-38 -15t-38 15.5t-15 38.5v229q0 50 -29.5 81t-76.5 31q-50 0 -81.5 -31.5t-31.5 -80.5v-229q0 -23 -15 -38.5t-37 -15.5t-37 15.5t-15 38.5v522h-41q-19 0 -32.5 13t-13.5 32t13 32t33 13h41v52q0 24 14.5 39t37.5 15
q22 0 37 -15.5t15 -38.5v-52h157q19 0 32 -13t13 -32t-13 -32t-32 -13h-157v-145q25 29 61.5 45t80.5 16q83 0 133 -53.5z" />
    <glyph glyph-name="hcircumflex" unicode="&#x125;" horiz-adv-x="575" 
d="M455.5 448.5q49.5 -53.5 49.5 -141.5v-264q0 -24 -15 -39t-37 -15q-23 0 -38 15.5t-15 38.5v249q0 52 -29.5 83t-77.5 31q-49 0 -80.5 -32t-31.5 -82v-249q0 -24 -14.5 -39t-37.5 -15t-38 15.5t-15 38.5v664q0 23 15 38.5t38 15.5t37.5 -15t14.5 -39v-265q26 29 62 44.5
t80 15.5q83 0 132.5 -53.5zM338.5 866.5q4.5 -7.5 4.5 -16.5q0 -16 -11 -27.5t-28 -11.5q-15 0 -31 13l-93 87l-93 -87q-16 -13 -31 -13q-16 0 -27.5 11.5t-11.5 27.5q0 9 4.5 16.5t15.5 18.5l109 108q15 15 34 15t34 -15l109 -108q11 -11 15.5 -18.5z" />
    <glyph glyph-name="i" unicode="i" horiz-adv-x="257" 
d="M91 4.5q-15 15.5 -15 38.5v405q0 23 15 38.5t38 15.5q22 0 37 -15.5t15 -38.5v-405q0 -23 -15 -38.5t-38 -15.5q-22 0 -37 15.5zM178.5 722q20.5 -20 20.5 -48t-20.5 -48t-49.5 -20t-49.5 20t-20.5 48t20.5 48t49.5 20t49.5 -20z" />
    <glyph glyph-name="dotlessi" unicode="&#x131;" horiz-adv-x="257" 
d="M91 4.5q-15 15.5 -15 38.5v405q0 23 15 38.5t38 15.5q22 0 37 -15.5t15 -38.5v-405q0 -23 -15 -38.5t-38 -15.5q-22 0 -37 15.5z" />
    <glyph glyph-name="iacute" unicode="&#xed;" horiz-adv-x="257" 
d="M91 4.5q-15 15.5 -15 38.5v405q0 23 15 38.5t38 15.5q22 0 37 -15.5t15 -38.5v-405q0 -23 -15 -38.5t-38 -15.5q-22 0 -37 15.5zM106 578q-13 11 -15 28v6q0 9 3 19l31 132q5 17 19.5 29t33.5 12t34 -13t18 -33l1 -8q0 -11 -4 -20l-46 -128q-13 -35 -44 -35q-18 0 -31 11
z" />
    <glyph glyph-name="ibreve" unicode="&#x12d;" horiz-adv-x="257" 
d="M91 4.5q-15 15.5 -15 38.5v405q0 23 15 38.5t38 15.5q22 0 37 -15.5t15 -38.5v-405q0 -23 -15 -38.5t-38 -15.5q-22 0 -37 15.5zM50 597.5q-37 20.5 -59.5 54t-22.5 70.5q0 19 12 32t30 13q34 0 42 -37q4 -31 26 -50.5t51 -19.5q30 0 51.5 19.5t26.5 50.5q4 17 14.5 27
t26.5 10q18 0 30.5 -13t12.5 -32q0 -38 -22 -71.5t-59 -53.5t-81 -20q-42 0 -79 20.5z" />
    <glyph glyph-name="icircumflex" unicode="&#xee;" horiz-adv-x="257" 
d="M91 4.5q-15 15.5 -15 38.5v405q0 23 15 38.5t38 15.5q22 0 37 -15.5t15 -38.5v-405q0 -23 -15 -38.5t-38 -15.5q-22 0 -37 15.5zM283 608q0 -18 -12.5 -30t-29.5 -12q-19 0 -31 14l-81 93l-82 -93q-5 -6 -13 -10t-17 -4q-17 0 -29.5 12t-12.5 30q0 17 12 30l102 130
q16 19 40 19t39 -19l103 -130q12 -15 12 -30z" />
    <glyph glyph-name="idieresis" unicode="&#xef;" horiz-adv-x="257" 
d="M91 4.5q-15 15.5 -15 38.5v405q0 23 15 38.5t38 15.5q22 0 37 -15.5t15 -38.5v-405q0 -23 -15 -38.5t-38 -15.5q-22 0 -37 15.5zM-19 628.5q-20 19.5 -20 45.5q0 27 20 46.5t48 19.5t47.5 -19t19.5 -47q0 -26 -19.5 -45.5t-47.5 -19.5t-48 19.5zM181 628.5
q-20 19.5 -20 45.5q0 27 20 46.5t48 19.5t47.5 -19t19.5 -47q0 -26 -19.5 -45.5t-47.5 -19.5t-48 19.5z" />
    <glyph glyph-name="igrave" unicode="&#xec;" horiz-adv-x="257" 
d="M91 4.5q-15 15.5 -15 38.5v405q0 23 15 38.5t38 15.5q22 0 37 -15.5t15 -38.5v-405q0 -23 -15 -38.5t-38 -15.5q-22 0 -37 15.5zM81 603l-34 131q-2 7 -2 17q0 8 1 12q5 19 19.5 30t31.5 11q20 0 35.5 -13.5t18.5 -31.5l19 -135q2 -12 2 -16q0 -18 -13 -31t-32 -13
q-35 0 -46 39z" />
    <glyph glyph-name="ij" unicode="&#x133;" horiz-adv-x="514" 
d="M91 4.5q-15 15.5 -15 38.5v405q0 23 15 38.5t38 15.5q22 0 37 -15.5t15 -38.5v-405q0 -23 -15 -38.5t-38 -15.5q-22 0 -37 15.5zM178.5 722q20.5 -20 20.5 -48t-20.5 -48t-49.5 -20t-49.5 20t-20.5 48t20.5 48t49.5 20t49.5 -20zM220 -185q-17 5 -27.5 16.5t-10.5 27.5
q0 19 13 32.5t33 13.5l19 -1q41 0 63.5 20t22.5 70v454q0 23 15 38.5t38 15.5q22 0 37 -15.5t15 -38.5v-468q0 -85 -46 -128t-126 -43q-27 0 -46 6zM435.5 722q20.5 -20 20.5 -48t-20.5 -48t-49.5 -20t-49.5 20t-20.5 48t20.5 48t49.5 20t49.5 -20z" />
    <glyph glyph-name="imacron" unicode="&#x12b;" horiz-adv-x="257" 
d="M91 4.5q-15 15.5 -15 38.5v405q0 23 15 38.5t38 15.5q22 0 37 -15.5t15 -38.5v-405q0 -23 -15 -38.5t-38 -15.5q-22 0 -37 15.5zM242 704q12 -12 12 -30t-12 -30t-31 -12h-164q-19 0 -31 12t-12 30t12 30t31 12h164q19 0 31 -12z" />
    <glyph glyph-name="iogonek" unicode="&#x12f;" horiz-adv-x="257" 
d="M91 4.5q-15 15.5 -15 38.5v405q0 23 15 38.5t38 15.5q22 0 37 -15.5t15 -38.5v-405q0 -23 -15 -38.5t-38 -15.5q-22 0 -37 15.5zM178.5 722q20.5 -20 20.5 -48t-20.5 -48t-49.5 -20t-49.5 20t-20.5 48t20.5 48t49.5 20t49.5 -20zM26 -164.5q-31 26.5 -31 71.5
q0 35 19.5 61.5t63.5 61.5q23 18 39.5 27t30.5 9q13 0 23 -9t10 -21q0 -22 -24 -40q-29 -22 -46 -39.5t-17 -36.5q0 -14 11.5 -22.5t32.5 -8.5l25 1q15 0 24.5 -10t9.5 -26q0 -29 -32 -38q-20 -7 -57 -7q-51 0 -82 26.5z" />
    <glyph glyph-name="itilde" unicode="&#x129;" horiz-adv-x="257" 
d="M91 4.5q-15 15.5 -15 38.5v405q0 23 15 38.5t38 15.5q22 0 37 -15.5t15 -38.5v-405q0 -23 -15 -38.5t-38 -15.5q-22 0 -37 15.5zM130 615l-19 17q-23 20 -36 20q-23 0 -26 -29q-3 -17 -14 -27t-27 -10q-19 0 -31 13t-12 35q0 50 27.5 82t70.5 32q32 0 66 -27l19 -17
q13 -12 20.5 -16t15.5 -4q23 0 26 29q3 17 14 27t27 10q19 0 31 -13.5t12 -34.5q0 -50 -27.5 -82.5t-70.5 -32.5q-31 0 -66 28z" />
    <glyph glyph-name="j" unicode="j" horiz-adv-x="257" 
d="M-37 -185q-17 5 -27.5 16.5t-10.5 27.5q0 19 13 32.5t33 13.5l19 -1q41 0 63.5 20t22.5 70v454q0 23 15 38.5t38 15.5q22 0 37 -15.5t15 -38.5v-468q0 -85 -46 -128t-126 -43q-27 0 -46 6zM178.5 722q20.5 -20 20.5 -48t-20.5 -48t-49.5 -20t-49.5 20t-20.5 48t20.5 48
t49.5 20t49.5 -20z" />
    <glyph glyph-name="uni0237" unicode="&#x237;" horiz-adv-x="257" 
d="M-37 -185q-17 5 -27.5 16.5t-10.5 27.5q0 19 13 32.5t33 13.5l19 -1q41 0 63.5 20t22.5 70v454q0 23 15 38.5t38 15.5q22 0 37 -15.5t15 -38.5v-468q0 -85 -46 -128t-126 -43q-27 0 -46 6z" />
    <glyph glyph-name="jcircumflex" unicode="&#x135;" horiz-adv-x="257" 
d="M-37 -185q-17 5 -27.5 16.5t-10.5 27.5q0 19 13 32.5t33 13.5l19 -1q41 0 63.5 20t22.5 70v454q0 23 15 38.5t38 15.5q22 0 37 -15.5t15 -38.5v-468q0 -85 -46 -128t-126 -43q-27 0 -46 6zM283 608q0 -18 -12.5 -30t-29.5 -12q-19 0 -31 14l-81 93l-82 -93q-5 -6 -13 -10
t-17 -4q-17 0 -29.5 12t-12.5 30q0 17 12 30l102 130q16 19 40 19t39 -19l103 -130q12 -15 12 -30z" />
    <glyph glyph-name="k" unicode="k" horiz-adv-x="533" 
d="M166.5 746q14.5 -15 14.5 -39v-664q0 -24 -14.5 -39t-37.5 -15t-38 15.5t-15 38.5v664q0 23 15 38.5t38 15.5t37.5 -15zM506 38q0 -21 -14.5 -35t-34.5 -14q-13 0 -22.5 5t-19.5 16l-193 223q-16 20 -16 38q0 21 17 39l177 176q16 16 38 16q21 0 35.5 -14t14.5 -34
q0 -19 -20 -39l-147 -143l171 -199q14 -15 14 -35z" />
    <glyph glyph-name="kcommaaccent" unicode="&#x137;" horiz-adv-x="533" 
d="M166.5 746q14.5 -15 14.5 -39v-664q0 -24 -14.5 -39t-37.5 -15t-38 15.5t-15 38.5v664q0 23 15 38.5t38 15.5t37.5 -15zM506 38q0 -21 -14.5 -35t-34.5 -14q-13 0 -22.5 5t-19.5 16l-193 223q-16 20 -16 38q0 21 17 39l177 176q16 16 38 16q21 0 35.5 -14t14.5 -34
q0 -19 -20 -39l-147 -143l171 -199q14 -15 14 -35zM215 -223.5q-14 13.5 -14 30.5q0 8 4 28q9 34 9 68q0 22 15.5 37.5t37.5 15.5t37.5 -15.5t15.5 -37.5q0 -29 -8.5 -59t-19.5 -48q-19 -33 -45 -33q-18 0 -32 13.5z" />
    <glyph glyph-name="l" unicode="l" horiz-adv-x="257" 
d="M91 4.5q-15 15.5 -15 38.5v664q0 23 15 38.5t38 15.5q22 0 37 -15.5t15 -38.5v-664q0 -23 -15 -38.5t-37 -15.5q-23 0 -38 15.5z" />
    <glyph glyph-name="lacute" unicode="&#x13a;" horiz-adv-x="257" 
d="M91 4.5q-15 15.5 -15 38.5v664q0 23 15 38.5t38 15.5q22 0 37 -15.5t15 -38.5v-664q0 -23 -15 -38.5t-37 -15.5q-23 0 -38 15.5zM111.5 828q-11.5 14 -11.5 32q0 10 5 22l58 112q15 28 48 28q22 0 37 -16t15 -37q0 -17 -10 -31l-67 -102q-8 -12 -19.5 -17.5t-22.5 -5.5
q-21 1 -32.5 15z" />
    <glyph glyph-name="lcaron" unicode="&#x13e;" horiz-adv-x="400" 
d="M91 4.5q-15 15.5 -15 38.5v664q0 23 15 38.5t38 15.5q22 0 37 -15.5t15 -38.5v-664q0 -23 -15 -38.5t-37 -15.5q-23 0 -38 15.5zM280 548q-14 14 -14 35l1 9l19 129q2 20 17.5 34.5t36.5 14.5t37 -14.5t16 -37.5q0 -9 -3 -20l-32 -129q-4 -13 -15 -24t-30 -11t-33 14z
" />
    <glyph glyph-name="lcommaaccent" unicode="&#x13c;" horiz-adv-x="257" 
d="M91 4.5q-15 15.5 -15 38.5v664q0 23 15 38.5t38 15.5q22 0 37 -15.5t15 -38.5v-664q0 -23 -15 -38.5t-37 -15.5q-23 0 -38 15.5zM75 -223.5q-14 13.5 -14 30.5q0 8 4 28q9 34 9 68q0 22 15.5 37.5t37.5 15.5t37.5 -15.5t15.5 -37.5q0 -29 -8.5 -59t-19.5 -48
q-19 -33 -45 -33q-18 0 -32 13.5z" />
    <glyph glyph-name="ldot" unicode="&#x140;" horiz-adv-x="361" 
d="M91 4.5q-15 15.5 -15 38.5v664q0 23 15 38.5t38 15.5q22 0 37 -15.5t15 -38.5v-664q0 -23 -15 -38.5t-37 -15.5q-23 0 -38 15.5zM252 262.5q-23 22.5 -23 54.5t23 55t56 23q32 0 54.5 -23t22.5 -55t-22.5 -54.5t-54.5 -22.5q-33 0 -56 22.5z" />
    <glyph glyph-name="lslash" unicode="&#x142;" horiz-adv-x="350" 
d="M299.5 423q13.5 -13 12.5 -32q0 -13 -7 -24t-20 -17l-65 -30v-277q0 -23 -15 -38.5t-37 -15.5q-23 0 -38 15.5t-15 38.5v239l-18 -8q-10 -4 -20 -4q-19 0 -32.5 13t-12.5 32q0 13 7 24t20 17l56 26v325q0 23 15 38.5t38 15.5q22 0 37 -15.5t15 -38.5v-288l27 12q8 5 20 5
q19 0 32.5 -13z" />
    <glyph glyph-name="m" unicode="m" horiz-adv-x="883" 
d="M764 449.5q49 -52.5 49 -142.5v-264q0 -24 -15 -39t-38 -15t-38 15.5t-15 38.5v249q0 53 -27.5 83.5t-74.5 30.5t-77.5 -31t-30.5 -78v-254q0 -24 -15 -39t-37 -15q-23 0 -38 15.5t-15 38.5v249q0 52 -28 83t-75 31q-48 0 -78 -31.5t-30 -82.5v-249q0 -24 -14.5 -39
t-37.5 -15t-38 15.5t-15 38.5v405q0 23 15 38.5t38 15.5q21 0 35.5 -14.5t15.5 -36.5q54 51 136 51q50 0 88 -19.5t61 -57.5q28 36 71.5 56.5t94.5 20.5q84 0 133 -52.5z" />
    <glyph glyph-name="n" unicode="n" horiz-adv-x="575" 
d="M455 449q50 -53 50 -142v-264q0 -24 -15 -39t-37 -15q-23 0 -38 15.5t-15 38.5v250q0 51 -29.5 82.5t-77.5 31.5q-49 0 -80.5 -32t-31.5 -82v-250q0 -24 -14.5 -39t-37.5 -15t-38 15.5t-15 38.5v405q0 23 15 38.5t38 15.5q22 0 36.5 -15.5t14.5 -38.5q27 26 63 40t78 14
q84 0 134 -53z" />
    <glyph glyph-name="nacute" unicode="&#x144;" horiz-adv-x="575" 
d="M455 449q50 -53 50 -142v-264q0 -24 -15 -39t-37 -15q-23 0 -38 15.5t-15 38.5v250q0 51 -29.5 82.5t-77.5 31.5q-49 0 -80.5 -32t-31.5 -82v-250q0 -24 -14.5 -39t-37.5 -15t-38 15.5t-15 38.5v405q0 23 15 38.5t38 15.5q22 0 36.5 -15.5t14.5 -38.5q27 26 63 40t78 14
q84 0 134 -53zM268 578q-14 14 -13 33q0 10 7 24l54 125q6 13 20 22t30 9q22 0 37 -15.5t15 -38.5q0 -13 -8 -28l-67 -118q-17 -27 -40 -27q-21 0 -35 14z" />
    <glyph glyph-name="ncaron" unicode="&#x148;" horiz-adv-x="575" 
d="M455 449q50 -53 50 -142v-264q0 -24 -15 -39t-37 -15q-23 0 -38 15.5t-15 38.5v250q0 51 -29.5 82.5t-77.5 31.5q-49 0 -80.5 -32t-31.5 -82v-250q0 -24 -14.5 -39t-37.5 -15t-38 15.5t-15 38.5v405q0 23 15 38.5t38 15.5q22 0 36.5 -15.5t14.5 -38.5q27 26 63 40t78 14
q84 0 134 -53zM424.5 775q12.5 -12 12.5 -30q0 -15 -12 -30l-103 -130q-15 -19 -39 -19t-40 19l-102 130q-12 14 -12 30q0 18 12.5 30t29.5 12q9 0 17 -4t13 -10l82 -93l81 93q12 14 31 14q17 0 29.5 -12z" />
    <glyph glyph-name="ncommaaccent" unicode="&#x146;" horiz-adv-x="575" 
d="M455 449q50 -53 50 -142v-264q0 -24 -15 -39t-37 -15q-23 0 -38 15.5t-15 38.5v250q0 51 -29.5 82.5t-77.5 31.5q-49 0 -80.5 -32t-31.5 -82v-250q0 -24 -14.5 -39t-37.5 -15t-38 15.5t-15 38.5v405q0 23 15 38.5t38 15.5q22 0 36.5 -15.5t14.5 -38.5q27 26 63 40t78 14
q84 0 134 -53zM237 -223.5q-14 13.5 -14 30.5q0 8 4 28q9 34 9 68q0 22 15.5 37.5t37.5 15.5t37.5 -15.5t15.5 -37.5q0 -29 -8.5 -59t-19.5 -48q-19 -33 -45 -33q-18 0 -32 13.5z" />
    <glyph glyph-name="eng" unicode="&#x14b;" horiz-adv-x="575" 
d="M455 449q50 -53 50 -142v-327q0 -83 -47.5 -127t-125.5 -44q-24 0 -46 5q-17 5 -27 17t-10 28q0 20 13 33t32 13l20 -1q86 0 86 85v304q0 51 -29.5 82.5t-77.5 31.5q-49 0 -80.5 -32t-31.5 -82v-250q0 -24 -14.5 -39t-37.5 -15t-38 15.5t-15 38.5v405q0 23 15 38.5
t38 15.5q22 0 36.5 -15.5t14.5 -38.5q27 26 63 40t78 14q84 0 134 -53z" />
    <glyph glyph-name="ntilde" unicode="&#xf1;" horiz-adv-x="575" 
d="M455 449q50 -53 50 -142v-264q0 -24 -15 -39t-37 -15q-23 0 -38 15.5t-15 38.5v250q0 51 -29.5 82.5t-77.5 31.5q-49 0 -80.5 -32t-31.5 -82v-250q0 -24 -14.5 -39t-37.5 -15t-38 15.5t-15 38.5v405q0 23 15 38.5t38 15.5q22 0 36.5 -15.5t14.5 -38.5q27 26 63 40t78 14
q84 0 134 -53zM288 612l-27 20q-16 13 -24 17.5t-17 4.5q-12 0 -19 -8t-9 -22q-3 -17 -14 -27t-27 -10q-19 0 -31 13.5t-12 34.5q0 51 28 82.5t72 31.5q36 0 70 -24l26 -20q19 -14 26.5 -18t15.5 -4q23 0 28 30q3 17 14 27t27 10q19 0 31 -13.5t12 -34.5q0 -50 -28 -82.5
t-71 -32.5q-38 0 -71 25z" />
    <glyph glyph-name="o" unicode="o" horiz-adv-x="609" 
d="M436 468q60 -34 94.5 -93t34.5 -129t-34.5 -129t-94.5 -93.5t-132 -34.5q-71 0 -130.5 34.5t-94 93.5t-34.5 129q0 71 34.5 129.5t94 92.5t130.5 34q72 0 132 -34zM227 385q-35 -21 -55 -58t-20 -82t20 -81.5t54.5 -57t77.5 -20.5t78 21t55 57.5t20 80.5q0 45 -20 81.5
t-54.5 58t-77.5 21.5t-78 -21z" />
    <glyph glyph-name="oacute" unicode="&#xf3;" horiz-adv-x="609" 
d="M436 468q60 -34 94.5 -93t34.5 -129t-34.5 -129t-94.5 -93.5t-132 -34.5q-71 0 -130.5 34.5t-94 93.5t-34.5 129q0 71 34.5 129.5t94 92.5t130.5 34q72 0 132 -34zM227 385q-35 -21 -55 -58t-20 -82t20 -81.5t54.5 -57t77.5 -20.5t78 21t55 57.5t20 80.5q0 45 -20 81.5
t-54.5 58t-77.5 21.5t-78 -21zM290 578q-14 14 -13 33q0 10 7 24l54 125q6 13 20 22t30 9q22 0 37 -15.5t15 -38.5q0 -13 -8 -28l-67 -118q-17 -27 -40 -27q-21 0 -35 14z" />
    <glyph glyph-name="obreve" unicode="&#x14f;" horiz-adv-x="609" 
d="M436 468q60 -34 94.5 -93t34.5 -129t-34.5 -129t-94.5 -93.5t-132 -34.5q-71 0 -130.5 34.5t-94 93.5t-34.5 129q0 71 34.5 129.5t94 92.5t130.5 34q72 0 132 -34zM227 385q-35 -21 -55 -58t-20 -82t20 -81.5t54.5 -57t77.5 -20.5t78 21t55 57.5t20 80.5q0 45 -20 81.5
t-54.5 58t-77.5 21.5t-78 -21zM226 597.5q-37 20.5 -59.5 54t-22.5 70.5q0 19 12 32t30 13q34 0 42 -37q4 -31 26 -50.5t51 -19.5q30 0 51.5 19.5t26.5 50.5q4 17 14.5 27t26.5 10q18 0 30.5 -13t12.5 -32q0 -38 -22 -71.5t-59 -53.5t-81 -20q-42 0 -79 20.5z" />
    <glyph glyph-name="ocircumflex" unicode="&#xf4;" horiz-adv-x="609" 
d="M436 468q60 -34 94.5 -93t34.5 -129t-34.5 -129t-94.5 -93.5t-132 -34.5q-71 0 -130.5 34.5t-94 93.5t-34.5 129q0 71 34.5 129.5t94 92.5t130.5 34q72 0 132 -34zM227 385q-35 -21 -55 -58t-20 -82t20 -81.5t54.5 -57t77.5 -20.5t78 21t55 57.5t20 80.5q0 45 -20 81.5
t-54.5 58t-77.5 21.5t-78 -21zM459 608q0 -18 -12.5 -30t-29.5 -12q-19 0 -31 14l-81 93l-82 -93q-5 -6 -13 -10t-17 -4q-17 0 -29.5 12t-12.5 30q0 17 12 30l102 130q16 19 40 19t39 -19l103 -130q12 -15 12 -30z" />
    <glyph glyph-name="odieresis" unicode="&#xf6;" horiz-adv-x="609" 
d="M436 468q60 -34 94.5 -93t34.5 -129t-34.5 -129t-94.5 -93.5t-132 -34.5q-71 0 -130.5 34.5t-94 93.5t-34.5 129q0 71 34.5 129.5t94 92.5t130.5 34q72 0 132 -34zM227 385q-35 -21 -55 -58t-20 -82t20 -81.5t54.5 -57t77.5 -20.5t78 21t55 57.5t20 80.5q0 45 -20 81.5
t-54.5 58t-77.5 21.5t-78 -21zM241 721q19 -19 19 -47q0 -26 -19.5 -45.5t-47.5 -19.5q-27 0 -47.5 19.5t-20.5 45.5q0 27 20 46.5t48 19.5q29 0 48 -19zM465.5 721q19.5 -19 19.5 -47q0 -26 -20 -45.5t-48 -19.5q-27 0 -47.5 19.5t-20.5 45.5q0 27 20 46.5t48 19.5
q29 0 48.5 -19z" />
    <glyph glyph-name="ograve" unicode="&#xf2;" horiz-adv-x="609" 
d="M436 468q60 -34 94.5 -93t34.5 -129t-34.5 -129t-94.5 -93.5t-132 -34.5q-71 0 -130.5 34.5t-94 93.5t-34.5 129q0 71 34.5 129.5t94 92.5t130.5 34q72 0 132 -34zM227 385q-35 -21 -55 -58t-20 -82t20 -81.5t54.5 -57t77.5 -20.5t78 21t55 57.5t20 80.5q0 45 -20 81.5
t-54.5 58t-77.5 21.5t-78 -21zM245 591l-67 118q-8 15 -8 28q0 23 15 38.5t37 15.5q16 0 30 -9t20 -22l54 -125q7 -14 7 -24q1 -19 -13 -33t-35 -14q-23 0 -40 27z" />
    <glyph glyph-name="ohungarumlaut" unicode="&#x151;" horiz-adv-x="609" 
d="M436 468q60 -34 94.5 -93t34.5 -129t-34.5 -129t-94.5 -93.5t-132 -34.5q-71 0 -130.5 34.5t-94 93.5t-34.5 129q0 71 34.5 129.5t94 92.5t130.5 34q72 0 132 -34zM227 385q-35 -21 -55 -58t-20 -82t20 -81.5t54.5 -57t77.5 -20.5t78 21t55 57.5t20 80.5q0 45 -20 81.5
t-54.5 58t-77.5 21.5t-78 -21zM197 578q-14 14 -13 33q0 10 7 24l54 125q6 13 20 22t30 9q22 0 37 -15.5t15 -38.5q0 -13 -8 -28l-67 -118q-17 -27 -40 -27q-21 0 -35 14zM373 578q-14 14 -13 33q0 10 7 24l54 125q6 13 20 22t30 9q22 0 37 -15.5t15 -38.5q0 -13 -8 -28
l-67 -118q-17 -27 -40 -27q-21 0 -35 14z" />
    <glyph glyph-name="omacron" unicode="&#x14d;" horiz-adv-x="609" 
d="M436 468q60 -34 94.5 -93t34.5 -129t-34.5 -129t-94.5 -93.5t-132 -34.5q-71 0 -130.5 34.5t-94 93.5t-34.5 129q0 71 34.5 129.5t94 92.5t130.5 34q72 0 132 -34zM227 385q-35 -21 -55 -58t-20 -82t20 -81.5t54.5 -57t77.5 -20.5t78 21t55 57.5t20 80.5q0 45 -20 81.5
t-54.5 58t-77.5 21.5t-78 -21zM442.5 704q12.5 -12 12.5 -30t-12.5 -30t-31.5 -12h-212q-19 0 -31.5 12t-12.5 30t12.5 30t31.5 12h212q19 0 31.5 -12z" />
    <glyph glyph-name="oslash" unicode="&#xf8;" horiz-adv-x="617" 
d="M521 394q47 -66 47 -149q0 -70 -35 -128.5t-95 -93t-131 -34.5q-82 0 -147 45l-38 -39q-19 -17 -36 -17q-19 0 -32 13.5t-13 32.5t17 35l37 37q-47 66 -47 149q0 71 34.5 130t94.5 93t131 34q81 0 148 -45l38 38q17 17 35 17q19 0 32.5 -13.5t13.5 -31.5q0 -19 -16 -35z
M225.5 390q-36.5 -21 -57 -59t-20.5 -86q0 -49 21 -85l226 227q-40 24 -87 24q-46 0 -82.5 -21zM389 99.5q37 21.5 58 60t21 85.5t-20 85l-228 -227q39 -25 87 -25q45 0 82 21.5z" />
    <glyph glyph-name="oslashacute" unicode="&#x1ff;" horiz-adv-x="617" 
d="M521 394q47 -66 47 -149q0 -70 -35 -128.5t-95 -93t-131 -34.5q-82 0 -147 45l-38 -39q-19 -17 -36 -17q-19 0 -32 13.5t-13 32.5t17 35l37 37q-47 66 -47 149q0 71 34.5 130t94.5 93t131 34q81 0 148 -45l38 38q17 17 35 17q19 0 32.5 -13.5t13.5 -31.5q0 -19 -16 -35z
M225.5 390q-36.5 -21 -57 -59t-20.5 -86q0 -49 21 -85l226 227q-40 24 -87 24q-46 0 -82.5 -21zM389 99.5q37 21.5 58 60t21 85.5t-20 85l-228 -227q39 -25 87 -25q45 0 82 21.5zM294 578q-14 14 -13 33q0 10 7 24l54 125q6 13 20 22t30 9q22 0 37 -15.5t15 -38.5
q0 -13 -8 -28l-67 -118q-17 -27 -40 -27q-21 0 -35 14z" />
    <glyph glyph-name="otilde" unicode="&#xf5;" horiz-adv-x="609" 
d="M436 468q60 -34 94.5 -93t34.5 -129t-34.5 -129t-94.5 -93.5t-132 -34.5q-71 0 -130.5 34.5t-94 93.5t-34.5 129q0 71 34.5 129.5t94 92.5t130.5 34q72 0 132 -34zM227 385q-35 -21 -55 -58t-20 -82t20 -81.5t54.5 -57t77.5 -20.5t78 21t55 57.5t20 80.5q0 45 -20 81.5
t-54.5 58t-77.5 21.5t-78 -21zM310 612l-27 20q-16 13 -24 17.5t-17 4.5q-12 0 -19 -8t-9 -22q-3 -17 -14 -27t-27 -10q-19 0 -31 13.5t-12 34.5q0 51 28 82.5t72 31.5q36 0 70 -24l26 -20q19 -14 26.5 -18t15.5 -4q23 0 28 30q3 17 14 27t27 10q19 0 31 -13.5t12 -34.5
q0 -50 -28 -82.5t-71 -32.5q-38 0 -71 25z" />
    <glyph glyph-name="oe" unicode="&#x153;" horiz-adv-x="962" 
d="M807 472.5q52 -29.5 81.5 -81.5t29.5 -117v-5q0 -27 -16 -42.5t-44 -15.5h-308q9 -61 49.5 -95t104.5 -34q66 0 115 38q13 10 27 10q19 0 31.5 -12.5t12.5 -31.5q0 -14 -6 -24t-20 -20q-68 -53 -163 -53q-64 0 -117.5 28t-86.5 77q-31 -49 -82.5 -77t-113.5 -28
q-70 0 -129 34t-93 92.5t-34 129.5t34.5 130t93.5 93t129 34q62 0 113 -28t82 -77q33 49 83.5 77t109.5 28q65 0 117 -29.5zM598.5 380.5q-36.5 -32.5 -47.5 -87.5h262q-2 54 -36.5 87t-89.5 33q-52 0 -88.5 -32.5zM407 130.5q41 44.5 41 114.5t-41 115t-104 45
q-43 0 -77.5 -21t-54 -57.5t-19.5 -81.5t19.5 -81.5t54 -57t76.5 -20.5q64 0 105 44.5z" />
    <glyph glyph-name="p" unicode="p" horiz-adv-x="631" 
d="M469 468.5q55 -33.5 86 -91.5t31 -131t-31 -131.5t-86 -92t-124 -33.5q-51 0 -93.5 18.5t-70.5 52.5v-198q0 -23 -15 -38.5t-37 -15.5q-23 0 -38 15.5t-15 38.5v588q0 23 15 38t38 15q22 0 36.5 -15t14.5 -38v-20q27 34 70 53t95 19q69 0 124 -33.5zM405 106
q34 21 53.5 57.5t19.5 81.5q0 46 -19.5 82.5t-53.5 57.5t-77 21q-66 0 -107 -44.5t-41 -115.5q0 -72 40.5 -116.5t107.5 -44.5q43 0 77 21z" />
    <glyph glyph-name="thorn" unicode="&#xfe;" horiz-adv-x="631" 
d="M469 468.5q55 -33.5 86 -91.5t31 -131t-31 -131.5t-86 -92t-124 -33.5q-51 0 -93.5 18.5t-70.5 52.5v-198q0 -23 -15 -38.5t-37 -15.5q-23 0 -38 15.5t-15 38.5v845q0 23 15 38.5t38 15.5t37.5 -15t14.5 -39v-276q27 33 70 52t94 19q69 0 124 -33.5zM405 106
q34 21 53.5 57.5t19.5 81.5q0 46 -19.5 82.5t-53.5 57.5t-77 21q-66 0 -107 -44.5t-41 -115.5q0 -72 40.5 -116.5t107.5 -44.5q43 0 77 21z" />
    <glyph glyph-name="q" unicode="q" horiz-adv-x="631" 
d="M540 486.5q15 -15.5 15 -38.5v-586q0 -23 -15 -38.5t-38 -15.5t-38 15.5t-15 38.5v197q-28 -33 -70.5 -51.5t-93.5 -18.5q-68 0 -123 33.5t-86 92t-31 131.5t31 131t86 91.5t123 33.5q52 0 95.5 -19.5t70.5 -53.5v19q0 23 15 38.5t37 15.5t37 -15.5zM410 130
q41 45 41 116t-41 115.5t-107 44.5q-43 0 -77.5 -21t-54 -57.5t-19.5 -82.5q0 -45 19.5 -81.5t54 -57.5t77.5 -21q66 0 107 45z" />
    <glyph glyph-name="r" unicode="r" horiz-adv-x="375" 
d="M353 482.5q14 -13.5 14 -34.5q0 -22 -14 -35.5t-37 -15.5q-60 -2 -97.5 -39t-37.5 -96v-219q0 -24 -14.5 -39t-37.5 -15t-38 15.5t-15 38.5v405q0 23 15 38.5t38 15.5q22 0 36.5 -15.5t14.5 -38.5v-15q25 30 60.5 46.5t76.5 16.5q22 0 36 -13.5z" />
    <glyph glyph-name="racute" unicode="&#x155;" horiz-adv-x="375" 
d="M353 482.5q14 -13.5 14 -34.5q0 -22 -14 -35.5t-37 -15.5q-60 -2 -97.5 -39t-37.5 -96v-219q0 -24 -14.5 -39t-37.5 -15t-38 15.5t-15 38.5v405q0 23 15 38.5t38 15.5q22 0 36.5 -15.5t14.5 -38.5v-15q25 30 60.5 46.5t76.5 16.5q22 0 36 -13.5zM167 578q-14 14 -13 33
q0 10 7 24l54 125q6 13 20 22t30 9q22 0 37 -15.5t15 -38.5q0 -13 -8 -28l-67 -118q-17 -27 -40 -27q-21 0 -35 14z" />
    <glyph glyph-name="rcaron" unicode="&#x159;" horiz-adv-x="375" 
d="M353 482.5q14 -13.5 14 -34.5q0 -22 -14 -35.5t-37 -15.5q-60 -2 -97.5 -39t-37.5 -96v-219q0 -24 -14.5 -39t-37.5 -15t-38 15.5t-15 38.5v405q0 23 15 38.5t38 15.5q22 0 36.5 -15.5t14.5 -38.5v-15q25 30 60.5 46.5t76.5 16.5q22 0 36 -13.5zM323.5 775
q12.5 -12 12.5 -30q0 -15 -12 -30l-103 -130q-15 -19 -39 -19t-40 19l-102 130q-12 14 -12 30q0 18 12.5 30t29.5 12q9 0 17 -4t13 -10l82 -93l81 93q12 14 31 14q17 0 29.5 -12z" />
    <glyph glyph-name="rcommaaccent" unicode="&#x157;" horiz-adv-x="375" 
d="M353 482.5q14 -13.5 14 -34.5q0 -22 -14 -35.5t-37 -15.5q-60 -2 -97.5 -39t-37.5 -96v-219q0 -24 -14.5 -39t-37.5 -15t-38 15.5t-15 38.5v405q0 23 15 38.5t38 15.5q22 0 36.5 -15.5t14.5 -38.5v-15q25 30 60.5 46.5t76.5 16.5q22 0 36 -13.5zM74 -223.5
q-14 13.5 -14 30.5q0 8 4 28q9 34 9 68q0 22 15.5 37.5t37.5 15.5t37.5 -15.5t15.5 -37.5q0 -29 -8.5 -59t-19.5 -48q-19 -33 -45 -33q-18 0 -32 13.5z" />
    <glyph glyph-name="s" unicode="s" horiz-adv-x="455" 
d="M127 9.5q-46 20.5 -79 55.5q-15 14 -15 34q0 19 14 32.5t33 13.5q18 0 33 -14q55 -51 115 -51q34 0 56.5 14t22.5 41q0 22 -16.5 34t-52.5 27l-50 21q-65 27 -96.5 59t-31.5 84q0 66 49 104t124 38q46 0 86.5 -16t69.5 -44q16 -15 16 -35q0 -19 -13 -32t-31 -13
q-13 0 -33 15q-44 34 -97 34q-31 0 -49 -12t-18 -35q0 -19 14.5 -31.5t50.5 -26.5l47 -19q70 -29 102 -62.5t32 -85.5q0 -71 -52 -110.5t-130 -39.5q-55 0 -101 20.5z" />
    <glyph glyph-name="sacute" unicode="&#x15b;" horiz-adv-x="455" 
d="M127 9.5q-46 20.5 -79 55.5q-15 14 -15 34q0 19 14 32.5t33 13.5q18 0 33 -14q55 -51 115 -51q34 0 56.5 14t22.5 41q0 22 -16.5 34t-52.5 27l-50 21q-65 27 -96.5 59t-31.5 84q0 66 49 104t124 38q46 0 86.5 -16t69.5 -44q16 -15 16 -35q0 -19 -13 -32t-31 -13
q-13 0 -33 15q-44 34 -97 34q-31 0 -49 -12t-18 -35q0 -19 14.5 -31.5t50.5 -26.5l47 -19q70 -29 102 -62.5t32 -85.5q0 -71 -52 -110.5t-130 -39.5q-55 0 -101 20.5zM216 578q-14 14 -13 33q0 10 7 24l54 125q6 13 20 22t30 9q22 0 37 -15.5t15 -38.5q0 -13 -8 -28
l-67 -118q-17 -27 -40 -27q-21 0 -35 14z" />
    <glyph glyph-name="scaron" unicode="&#x161;" horiz-adv-x="455" 
d="M127 9.5q-46 20.5 -79 55.5q-15 14 -15 34q0 19 14 32.5t33 13.5q18 0 33 -14q55 -51 115 -51q34 0 56.5 14t22.5 41q0 22 -16.5 34t-52.5 27l-50 21q-65 27 -96.5 59t-31.5 84q0 66 49 104t124 38q46 0 86.5 -16t69.5 -44q16 -15 16 -35q0 -19 -13 -32t-31 -13
q-13 0 -33 15q-44 34 -97 34q-31 0 -49 -12t-18 -35q0 -19 14.5 -31.5t50.5 -26.5l47 -19q70 -29 102 -62.5t32 -85.5q0 -71 -52 -110.5t-130 -39.5q-55 0 -101 20.5zM372.5 775q12.5 -12 12.5 -30q0 -15 -12 -30l-103 -130q-15 -19 -39 -19t-40 19l-102 130q-12 14 -12 30
q0 18 12.5 30t29.5 12q9 0 17 -4t13 -10l82 -93l81 93q12 14 31 14q17 0 29.5 -12z" />
    <glyph glyph-name="scedilla" unicode="&#x15f;" horiz-adv-x="455" 
d="M127 9.5q-46 20.5 -79 55.5q-15 14 -15 34q0 19 14 32.5t33 13.5q18 0 33 -14q55 -51 115 -51q34 0 56.5 14t22.5 41q0 22 -16.5 34t-52.5 27l-50 21q-65 27 -96.5 59t-31.5 84q0 66 49 104t124 38q46 0 86.5 -16t69.5 -44q16 -15 16 -35q0 -19 -13 -32t-31 -13
q-13 0 -33 15q-44 34 -97 34q-31 0 -49 -12t-18 -35q0 -19 14.5 -31.5t50.5 -26.5l47 -19q70 -29 102 -62.5t32 -85.5q0 -71 -52 -110.5t-130 -39.5q-55 0 -101 20.5zM123 -183q-28 11 -28 36q0 16 11 27t27 11q8 0 18.5 -1.5t20.5 -1.5q27 0 45.5 12.5t18.5 35.5
q0 17 -6 30t-16 27q-3 4 -9.5 12.5t-10 15.5t-3.5 13q0 14 8.5 22t24.5 8q22 0 46 -21.5t40.5 -53t16.5 -59.5q0 -55 -40 -88t-105 -33q-41 0 -59 8z" />
    <glyph glyph-name="scircumflex" unicode="&#x15d;" horiz-adv-x="455" 
d="M127 9.5q-46 20.5 -79 55.5q-15 14 -15 34q0 19 14 32.5t33 13.5q18 0 33 -14q55 -51 115 -51q34 0 56.5 14t22.5 41q0 22 -16.5 34t-52.5 27l-50 21q-65 27 -96.5 59t-31.5 84q0 66 49 104t124 38q46 0 86.5 -16t69.5 -44q16 -15 16 -35q0 -19 -13 -32t-31 -13
q-13 0 -33 15q-44 34 -97 34q-31 0 -49 -12t-18 -35q0 -19 14.5 -31.5t50.5 -26.5l47 -19q70 -29 102 -62.5t32 -85.5q0 -71 -52 -110.5t-130 -39.5q-55 0 -101 20.5zM385 608q0 -18 -12.5 -30t-29.5 -12q-19 0 -31 14l-81 93l-82 -93q-5 -6 -13 -10t-17 -4q-17 0 -29.5 12
t-12.5 30q0 17 12 30l102 130q16 19 40 19t39 -19l103 -130q12 -15 12 -30z" />
    <glyph glyph-name="scommaaccent" unicode="&#x219;" horiz-adv-x="455" 
d="M127 9.5q-46 20.5 -79 55.5q-15 14 -15 34q0 19 14 32.5t33 13.5q18 0 33 -14q55 -51 115 -51q34 0 56.5 14t22.5 41q0 22 -16.5 34t-52.5 27l-50 21q-65 27 -96.5 59t-31.5 84q0 66 49 104t124 38q46 0 86.5 -16t69.5 -44q16 -15 16 -35q0 -19 -13 -32t-31 -13
q-13 0 -33 15q-44 34 -97 34q-31 0 -49 -12t-18 -35q0 -19 14.5 -31.5t50.5 -26.5l47 -19q70 -29 102 -62.5t32 -85.5q0 -71 -52 -110.5t-130 -39.5q-55 0 -101 20.5zM185 -223.5q-14 13.5 -14 30.5q0 8 4 28q9 34 9 68q0 22 15.5 37.5t37.5 15.5t37.5 -15.5t15.5 -37.5
q0 -29 -8.5 -59t-19.5 -48q-19 -33 -45 -33q-18 0 -32 13.5z" />
    <glyph glyph-name="germandbls" unicode="&#xdf;" horiz-adv-x="630" 
d="M342 1q-39 13 -68 37q-20 15 -20 38q0 18 13.5 31.5t32.5 13.5q11 0 28 -10q50 -31 100 -31q34 0 52.5 13.5t18.5 38.5q0 14 -6.5 24.5t-23 23t-52.5 34.5q-58 34 -81.5 61.5t-23.5 61.5q0 29 18 76l38 102q15 41 15 69q0 38 -23.5 59.5t-63.5 21.5q-54 0 -85 -37
t-31 -102v-483q0 -23 -15 -38.5t-37 -15.5t-37 15.5t-15 38.5v488q0 108 59.5 169t163.5 61q87 0 138.5 -41.5t51.5 -112.5q0 -41 -15 -80l-43 -120q-12 -28 -12 -48q0 -14 6 -24t22.5 -22.5t52.5 -34.5q57 -34 80.5 -66.5t23.5 -76.5q0 -66 -49.5 -106.5t-129.5 -40.5
q-44 0 -83 13z" />
    <glyph glyph-name="uni0259" unicode="&#x259;" horiz-adv-x="570" 
d="M396 468.5q60 -33.5 94.5 -91.5t34.5 -131q0 -71 -33.5 -130t-91.5 -93t-128 -34q-65 0 -117 29.5t-81.5 81.5t-29.5 117v5q0 27 16 42.5t44 15.5h314q-11 60 -53 94.5t-107 34.5t-115 -38q-15 -10 -27 -10q-19 0 -31.5 12.5t-12.5 31.5q0 14 6 24t20 20q71 53 163 53
q75 0 135 -33.5zM366 111q38 33 50 87h-267q2 -54 36.5 -87t89.5 -33q53 0 91 33z" />
    <glyph glyph-name="t" unicode="t" horiz-adv-x="398" 
d="M365.5 73.5q12.5 -11.5 12.5 -30.5q0 -33 -31 -44q-24 -10 -66 -10q-88 0 -134.5 44t-46.5 127v240h-39q-20 0 -33.5 13t-13.5 32t13.5 32.5t33.5 13.5h39v86q0 23 15.5 38.5t37.5 15.5q23 0 38 -15.5t15 -38.5v-86h105q20 0 33.5 -13t13.5 -33q0 -19 -13.5 -32
t-33.5 -13h-105v-231q0 -45 23 -65t73 -20l30 1q21 0 33.5 -11.5z" />
    <glyph glyph-name="tbar" unicode="&#x167;" horiz-adv-x="412" 
d="M375.5 73.5q12.5 -11.5 12.5 -30.5q0 -33 -31 -45q-25 -9 -69 -9q-88 0 -134 44t-46 127v48h-40q-19 0 -31.5 12.5t-12.5 30.5q0 19 12.5 31.5t31.5 12.5h40v108h-40q-19 0 -31.5 12.5t-12.5 31.5q0 18 12.5 30.5t31.5 12.5h40v87q0 23 15 38.5t38 15.5q22 0 37 -15.5
t15 -38.5v-87h110q19 0 31.5 -12.5t12.5 -30.5q0 -19 -12.5 -31.5t-31.5 -12.5h-110v-108h110q19 0 31.5 -12.5t12.5 -31.5q0 -18 -12.5 -30.5t-31.5 -12.5h-110v-39q0 -45 23 -65t73 -20l33 1q21 0 33.5 -11.5z" />
    <glyph glyph-name="tcaron" unicode="&#x165;" horiz-adv-x="398" 
d="M365.5 73.5q12.5 -11.5 12.5 -30.5q0 -33 -31 -44q-24 -10 -66 -10q-88 0 -134.5 44t-46.5 127v240h-39q-20 0 -33.5 13t-13.5 32t13.5 32.5t33.5 13.5h39v86q0 23 15.5 38.5t37.5 15.5q23 0 38 -15.5t15 -38.5v-86h105q20 0 33.5 -13t13.5 -33q0 -19 -13.5 -32
t-33.5 -13h-105v-231q0 -45 23 -65t73 -20l30 1q21 0 33.5 -11.5zM307 548q-14 14 -14 35l1 9l19 129q2 20 17.5 34.5t36.5 14.5t37 -14.5t16 -37.5q0 -9 -3 -20l-32 -129q-4 -13 -15 -24t-30 -11t-33 14z" />
    <glyph glyph-name="uni0163" unicode="&#x163;" horiz-adv-x="398" 
d="M365.5 73.5q12.5 -11.5 12.5 -30.5q0 -33 -31 -44q-24 -10 -66 -10q-88 0 -134.5 44t-46.5 127v240h-39q-20 0 -33.5 13t-13.5 32t13.5 32.5t33.5 13.5h39v86q0 23 15.5 38.5t37.5 15.5q23 0 38 -15.5t15 -38.5v-86h105q20 0 33.5 -13t13.5 -33q0 -19 -13.5 -32
t-33.5 -13h-105v-231q0 -45 23 -65t73 -20l30 1q21 0 33.5 -11.5zM110 -183q-28 11 -28 36q0 16 11 27t27 11q8 0 18.5 -1.5t20.5 -1.5q27 0 45.5 12.5t18.5 35.5q0 17 -6 30t-16 27q-3 4 -9.5 12.5t-10 15.5t-3.5 13q0 14 8.5 22t24.5 8q22 0 46 -21.5t40.5 -53t16.5 -59.5
q0 -55 -40 -88t-105 -33q-41 0 -59 8z" />
    <glyph glyph-name="u" unicode="u" horiz-adv-x="570" 
d="M174 16.5q-49 27.5 -76 77t-27 112.5v242q0 23 15 38.5t37 15.5t37 -15.5t15 -38.5v-250q0 -49 31 -80.5t80 -31.5q47 0 77.5 31.5t30.5 80.5v250q0 23 15 38.5t38 15.5q22 0 37 -15.5t15 -38.5v-242q0 -63 -27 -112.5t-75.5 -77t-110.5 -27.5q-63 0 -112 27.5z" />
    <glyph glyph-name="uacute" unicode="&#xfa;" horiz-adv-x="570" 
d="M174 16.5q-49 27.5 -76 77t-27 112.5v242q0 23 15 38.5t37 15.5t37 -15.5t15 -38.5v-250q0 -49 31 -80.5t80 -31.5q47 0 77.5 31.5t30.5 80.5v250q0 23 15 38.5t38 15.5q22 0 37 -15.5t15 -38.5v-242q0 -63 -27 -112.5t-75.5 -77t-110.5 -27.5q-63 0 -112 27.5zM270 578
q-14 14 -13 33q0 10 7 24l54 125q6 13 20 22t30 9q22 0 37 -15.5t15 -38.5q0 -13 -8 -28l-67 -118q-17 -27 -40 -27q-21 0 -35 14z" />
    <glyph glyph-name="ubreve" unicode="&#x16d;" horiz-adv-x="570" 
d="M174 16.5q-49 27.5 -76 77t-27 112.5v242q0 23 15 38.5t37 15.5t37 -15.5t15 -38.5v-250q0 -49 31 -80.5t80 -31.5q47 0 77.5 31.5t30.5 80.5v250q0 23 15 38.5t38 15.5q22 0 37 -15.5t15 -38.5v-242q0 -63 -27 -112.5t-75.5 -77t-110.5 -27.5q-63 0 -112 27.5z
M206 597.5q-37 20.5 -59.5 54t-22.5 70.5q0 19 12 32t30 13q34 0 42 -37q4 -31 26 -50.5t51 -19.5q30 0 51.5 19.5t26.5 50.5q4 17 14.5 27t26.5 10q18 0 30.5 -13t12.5 -32q0 -38 -22 -71.5t-59 -53.5t-81 -20q-42 0 -79 20.5z" />
    <glyph glyph-name="uni01D4" unicode="&#x1d4;" horiz-adv-x="570" 
d="M174 16.5q-49 27.5 -76 77t-27 112.5v242q0 23 15 38.5t37 15.5t37 -15.5t15 -38.5v-250q0 -49 31 -80.5t80 -31.5q47 0 77.5 31.5t30.5 80.5v250q0 23 15 38.5t38 15.5q22 0 37 -15.5t15 -38.5v-242q0 -63 -27 -112.5t-75.5 -77t-110.5 -27.5q-63 0 -112 27.5z
M426.5 775q12.5 -12 12.5 -30q0 -15 -12 -30l-103 -130q-15 -19 -39 -19t-40 19l-102 130q-12 14 -12 30q0 18 12.5 30t29.5 12q9 0 17 -4t13 -10l82 -93l81 93q12 14 31 14q17 0 29.5 -12z" />
    <glyph glyph-name="ucircumflex" unicode="&#xfb;" horiz-adv-x="570" 
d="M174 16.5q-49 27.5 -76 77t-27 112.5v242q0 23 15 38.5t37 15.5t37 -15.5t15 -38.5v-250q0 -49 31 -80.5t80 -31.5q47 0 77.5 31.5t30.5 80.5v250q0 23 15 38.5t38 15.5q22 0 37 -15.5t15 -38.5v-242q0 -63 -27 -112.5t-75.5 -77t-110.5 -27.5q-63 0 -112 27.5zM439 608
q0 -18 -12.5 -30t-29.5 -12q-19 0 -31 14l-81 93l-82 -93q-5 -6 -13 -10t-17 -4q-17 0 -29.5 12t-12.5 30q0 17 12 30l102 130q16 19 40 19t39 -19l103 -130q12 -15 12 -30z" />
    <glyph glyph-name="udieresis" unicode="&#xfc;" horiz-adv-x="570" 
d="M174 16.5q-49 27.5 -76 77t-27 112.5v242q0 23 15 38.5t37 15.5t37 -15.5t15 -38.5v-250q0 -49 31 -80.5t80 -31.5q47 0 77.5 31.5t30.5 80.5v250q0 23 15 38.5t38 15.5q22 0 37 -15.5t15 -38.5v-242q0 -63 -27 -112.5t-75.5 -77t-110.5 -27.5q-63 0 -112 27.5zM221 721
q19 -19 19 -47q0 -26 -19.5 -45.5t-47.5 -19.5q-27 0 -47.5 19.5t-20.5 45.5q0 27 20 46.5t48 19.5q29 0 48 -19zM445.5 721q19.5 -19 19.5 -47q0 -26 -20 -45.5t-48 -19.5q-27 0 -47.5 19.5t-20.5 45.5q0 27 20 46.5t48 19.5q29 0 48.5 -19z" />
    <glyph glyph-name="ugrave" unicode="&#xf9;" horiz-adv-x="570" 
d="M174 16.5q-49 27.5 -76 77t-27 112.5v242q0 23 15 38.5t37 15.5t37 -15.5t15 -38.5v-250q0 -49 31 -80.5t80 -31.5q47 0 77.5 31.5t30.5 80.5v250q0 23 15 38.5t38 15.5q22 0 37 -15.5t15 -38.5v-242q0 -63 -27 -112.5t-75.5 -77t-110.5 -27.5q-63 0 -112 27.5zM225 591
l-67 118q-8 15 -8 28q0 23 15 38.5t37 15.5q16 0 30 -9t20 -22l54 -125q7 -14 7 -24q1 -19 -13 -33t-35 -14q-23 0 -40 27z" />
    <glyph glyph-name="uhungarumlaut" unicode="&#x171;" horiz-adv-x="570" 
d="M174 16.5q-49 27.5 -76 77t-27 112.5v242q0 23 15 38.5t37 15.5t37 -15.5t15 -38.5v-250q0 -49 31 -80.5t80 -31.5q47 0 77.5 31.5t30.5 80.5v250q0 23 15 38.5t38 15.5q22 0 37 -15.5t15 -38.5v-242q0 -63 -27 -112.5t-75.5 -77t-110.5 -27.5q-63 0 -112 27.5zM177 578
q-14 14 -13 33q0 10 7 24l54 125q6 13 20 22t30 9q22 0 37 -15.5t15 -38.5q0 -13 -8 -28l-67 -118q-17 -27 -40 -27q-21 0 -35 14zM353 578q-14 14 -13 33q0 10 7 24l54 125q6 13 20 22t30 9q22 0 37 -15.5t15 -38.5q0 -13 -8 -28l-67 -118q-17 -27 -40 -27q-21 0 -35 14z
" />
    <glyph glyph-name="umacron" unicode="&#x16b;" horiz-adv-x="570" 
d="M174 16.5q-49 27.5 -76 77t-27 112.5v242q0 23 15 38.5t37 15.5t37 -15.5t15 -38.5v-250q0 -49 31 -80.5t80 -31.5q47 0 77.5 31.5t30.5 80.5v250q0 23 15 38.5t38 15.5q22 0 37 -15.5t15 -38.5v-242q0 -63 -27 -112.5t-75.5 -77t-110.5 -27.5q-63 0 -112 27.5z
M422.5 704q12.5 -12 12.5 -30t-12.5 -30t-31.5 -12h-212q-19 0 -31.5 12t-12.5 30t12.5 30t31.5 12h212q19 0 31.5 -12z" />
    <glyph glyph-name="uni021B" unicode="&#x21b;" horiz-adv-x="398" 
d="M365.5 73.5q12.5 -11.5 12.5 -30.5q0 -33 -31 -44q-24 -10 -66 -10q-88 0 -134.5 44t-46.5 127v240h-39q-20 0 -33.5 13t-13.5 32t13.5 32.5t33.5 13.5h39v86q0 23 15.5 38.5t37.5 15.5q23 0 38 -15.5t15 -38.5v-86h105q20 0 33.5 -13t13.5 -33q0 -19 -13.5 -32
t-33.5 -13h-105v-231q0 -45 23 -65t73 -20l30 1q21 0 33.5 -11.5zM172 -223.5q-14 13.5 -14 30.5q0 8 4 28q9 34 9 68q0 22 15.5 37.5t37.5 15.5t37.5 -15.5t15.5 -37.5q0 -29 -8.5 -59t-19.5 -48q-19 -33 -45 -33q-18 0 -32 13.5z" />
    <glyph glyph-name="uogonek" unicode="&#x173;" horiz-adv-x="570" 
d="M484 486.5q15 -15.5 15 -38.5v-242q0 -54 -20 -98t-56 -74l-54 -49q-43 -38 -43 -65q0 -15 12 -23.5t32 -8.5q7 0 13.5 1t11.5 1q14 0 24 -10t10 -25q0 -30 -32 -39q-20 -7 -56 -7q-52 0 -83 25.5t-31 67.5q0 23 10 43.5t33 43.5q-59 4 -104 32.5t-70 76t-25 108.5v242
q0 23 15 38.5t37 15.5t37 -15.5t15 -38.5v-250q0 -49 31 -80.5t80 -31.5q47 0 77.5 31.5t30.5 80.5v250q0 23 15 38.5t38 15.5q22 0 37 -15.5z" />
    <glyph glyph-name="uring" unicode="&#x16f;" horiz-adv-x="570" 
d="M174 16.5q-49 27.5 -76 77t-27 112.5v242q0 23 15 38.5t37 15.5t37 -15.5t15 -38.5v-250q0 -49 31 -80.5t80 -31.5q47 0 77.5 31.5t30.5 80.5v250q0 23 15 38.5t38 15.5q22 0 37 -15.5t15 -38.5v-242q0 -63 -27 -112.5t-75.5 -77t-110.5 -27.5q-63 0 -112 27.5zM369 755
q34 -33 34 -82t-34 -82t-85 -33q-50 0 -84 33t-34 82t34 82t84 33q51 0 85 -33zM252 706q-13 -13 -13 -33q0 -19 13 -32t33 -13t32.5 13t12.5 32t-13 32.5t-32 13.5q-20 0 -33 -13z" />
    <glyph glyph-name="utilde" unicode="&#x169;" horiz-adv-x="570" 
d="M174 16.5q-49 27.5 -76 77t-27 112.5v242q0 23 15 38.5t37 15.5t37 -15.5t15 -38.5v-250q0 -49 31 -80.5t80 -31.5q47 0 77.5 31.5t30.5 80.5v250q0 23 15 38.5t38 15.5q22 0 37 -15.5t15 -38.5v-242q0 -63 -27 -112.5t-75.5 -77t-110.5 -27.5q-63 0 -112 27.5zM290 612
l-27 20q-16 13 -24 17.5t-17 4.5q-12 0 -19 -8t-9 -22q-3 -17 -14 -27t-27 -10q-19 0 -31 13.5t-12 34.5q0 51 28 82.5t72 31.5q36 0 70 -24l26 -20q19 -14 26.5 -18t15.5 -4q23 0 28 30q3 17 14 27t27 10q19 0 31 -13.5t12 -34.5q0 -50 -28 -82.5t-71 -32.5q-38 0 -71 25z
" />
    <glyph glyph-name="v" unicode="v" horiz-adv-x="549" 
d="M510 486.5q15 -15.5 15 -35.5q0 -12 -6 -27l-196 -403q-7 -15 -20 -23.5t-28 -8.5q-16 0 -28.5 8.5t-20.5 23.5l-195 403q-7 14 -7 27q0 20 15 35.5t36 15.5q33 0 48 -31l152 -320l151 320q16 31 48 31q21 0 36 -15.5z" />
    <glyph glyph-name="w" unicode="w" horiz-adv-x="853" 
d="M815.5 487q15.5 -15 15.5 -36q0 -11 -5 -24l-178 -406q-7 -15 -19.5 -23.5t-28.5 -8.5q-15 0 -27.5 8.5t-19.5 22.5l-126 306l-127 -306q-8 -15 -20.5 -23t-27.5 -8q-16 0 -28 8.5t-19 23.5l-178 406q-5 13 -5 24q0 21 15 36t36 15q16 0 28.5 -8.5t18.5 -22.5l136 -310
l120 303q8 18 21 28t29 10q17 0 30 -10t20 -28l121 -303l136 310q6 14 18.5 22.5t27.5 8.5q21 0 36.5 -15z" />
    <glyph glyph-name="wacute" unicode="&#x1e83;" horiz-adv-x="853" 
d="M815.5 487q15.5 -15 15.5 -36q0 -11 -5 -24l-178 -406q-7 -15 -19.5 -23.5t-28.5 -8.5q-15 0 -27.5 8.5t-19.5 22.5l-126 306l-127 -306q-8 -15 -20.5 -23t-27.5 -8q-16 0 -28 8.5t-19 23.5l-178 406q-5 13 -5 24q0 21 15 36t36 15q16 0 28.5 -8.5t18.5 -22.5l136 -310
l120 303q8 18 21 28t29 10q17 0 30 -10t20 -28l121 -303l136 310q6 14 18.5 22.5t27.5 8.5q21 0 36.5 -15zM410 578q-14 14 -13 33q0 10 7 24l54 125q6 13 20 22t30 9q22 0 37 -15.5t15 -38.5q0 -13 -8 -28l-67 -118q-17 -27 -40 -27q-21 0 -35 14z" />
    <glyph glyph-name="wcircumflex" unicode="&#x175;" horiz-adv-x="853" 
d="M815.5 487q15.5 -15 15.5 -36q0 -11 -5 -24l-178 -406q-7 -15 -19.5 -23.5t-28.5 -8.5q-15 0 -27.5 8.5t-19.5 22.5l-126 306l-127 -306q-8 -15 -20.5 -23t-27.5 -8q-16 0 -28 8.5t-19 23.5l-178 406q-5 13 -5 24q0 21 15 36t36 15q16 0 28.5 -8.5t18.5 -22.5l136 -310
l120 303q8 18 21 28t29 10q17 0 30 -10t20 -28l121 -303l136 310q6 14 18.5 22.5t27.5 8.5q21 0 36.5 -15zM579 608q0 -18 -12.5 -30t-29.5 -12q-19 0 -31 14l-81 93l-82 -93q-5 -6 -13 -10t-17 -4q-17 0 -29.5 12t-12.5 30q0 17 12 30l102 130q16 19 40 19t39 -19l103 -130
q12 -15 12 -30z" />
    <glyph glyph-name="wdieresis" unicode="&#x1e85;" horiz-adv-x="853" 
d="M815.5 487q15.5 -15 15.5 -36q0 -11 -5 -24l-178 -406q-7 -15 -19.5 -23.5t-28.5 -8.5q-15 0 -27.5 8.5t-19.5 22.5l-126 306l-127 -306q-8 -15 -20.5 -23t-27.5 -8q-16 0 -28 8.5t-19 23.5l-178 406q-5 13 -5 24q0 21 15 36t36 15q16 0 28.5 -8.5t18.5 -22.5l136 -310
l120 303q8 18 21 28t29 10q17 0 30 -10t20 -28l121 -303l136 310q6 14 18.5 22.5t27.5 8.5q21 0 36.5 -15zM361 721q19 -19 19 -47q0 -26 -19.5 -45.5t-47.5 -19.5q-27 0 -47.5 19.5t-20.5 45.5q0 27 20 46.5t48 19.5q29 0 48 -19zM585.5 721q19.5 -19 19.5 -47
q0 -26 -20 -45.5t-48 -19.5q-27 0 -47.5 19.5t-20.5 45.5q0 27 20 46.5t48 19.5q29 0 48.5 -19z" />
    <glyph glyph-name="wgrave" unicode="&#x1e81;" horiz-adv-x="853" 
d="M815.5 487q15.5 -15 15.5 -36q0 -11 -5 -24l-178 -406q-7 -15 -19.5 -23.5t-28.5 -8.5q-15 0 -27.5 8.5t-19.5 22.5l-126 306l-127 -306q-8 -15 -20.5 -23t-27.5 -8q-16 0 -28 8.5t-19 23.5l-178 406q-5 13 -5 24q0 21 15 36t36 15q16 0 28.5 -8.5t18.5 -22.5l136 -310
l120 303q8 18 21 28t29 10q17 0 30 -10t20 -28l121 -303l136 310q6 14 18.5 22.5t27.5 8.5q21 0 36.5 -15zM365 591l-67 118q-8 15 -8 28q0 23 15 38.5t37 15.5q16 0 30 -9t20 -22l54 -125q7 -14 7 -24q1 -19 -13 -33t-35 -14q-23 0 -40 27z" />
    <glyph glyph-name="x" unicode="x" horiz-adv-x="514" 
d="M472 39q0 -21 -14.5 -35.5t-36.5 -14.5q-26 0 -44 24l-120 158l-121 -158q-19 -24 -43 -24q-22 0 -37 14.5t-15 35.5q0 19 15 38l135 175l-121 159q-18 22 -18 40q0 21 15 36t37 15q25 0 43 -24l110 -147l112 147q19 24 44 24q21 0 36 -15t15 -36q0 -17 -17 -40
l-125 -160l136 -174q14 -18 14 -38z" />
    <glyph glyph-name="y" unicode="y" horiz-adv-x="549" 
d="M510 486.5q15 -15.5 15 -35.5q0 -14 -5 -24l-226 -473q-37 -77 -82 -111t-109 -34q-28 0 -47 6q-15 4 -23.5 16.5t-8.5 27.5q0 19 14 32.5t34 13.5l20 -1q35 0 59.5 17t42.5 55l22 47l-182 403q-6 16 -6 25q0 20 15.5 35.5t36.5 15.5q16 0 29 -8.5t19 -22.5l147 -330
l151 330q6 14 19 22.5t29 8.5q21 0 36 -15.5z" />
    <glyph glyph-name="yacute" unicode="&#xfd;" horiz-adv-x="549" 
d="M510 486.5q15 -15.5 15 -35.5q0 -14 -5 -24l-226 -473q-37 -77 -82 -111t-109 -34q-28 0 -47 6q-15 4 -23.5 16.5t-8.5 27.5q0 19 14 32.5t34 13.5l20 -1q35 0 59.5 17t42.5 55l22 47l-182 403q-6 16 -6 25q0 20 15.5 35.5t36.5 15.5q16 0 29 -8.5t19 -22.5l147 -330
l151 330q6 14 19 22.5t29 8.5q21 0 36 -15.5zM257 578q-14 14 -13 33q0 10 7 24l54 125q6 13 20 22t30 9q22 0 37 -15.5t15 -38.5q0 -13 -8 -28l-67 -118q-17 -27 -40 -27q-21 0 -35 14z" />
    <glyph glyph-name="ycircumflex" unicode="&#x177;" horiz-adv-x="549" 
d="M510 486.5q15 -15.5 15 -35.5q0 -14 -5 -24l-226 -473q-37 -77 -82 -111t-109 -34q-28 0 -47 6q-15 4 -23.5 16.5t-8.5 27.5q0 19 14 32.5t34 13.5l20 -1q35 0 59.5 17t42.5 55l22 47l-182 403q-6 16 -6 25q0 20 15.5 35.5t36.5 15.5q16 0 29 -8.5t19 -22.5l147 -330
l151 330q6 14 19 22.5t29 8.5q21 0 36 -15.5zM426 608q0 -18 -12.5 -30t-29.5 -12q-19 0 -31 14l-81 93l-82 -93q-5 -6 -13 -10t-17 -4q-17 0 -29.5 12t-12.5 30q0 17 12 30l102 130q16 19 40 19t39 -19l103 -130q12 -15 12 -30z" />
    <glyph glyph-name="ydieresis" unicode="&#xff;" horiz-adv-x="549" 
d="M510 486.5q15 -15.5 15 -35.5q0 -14 -5 -24l-226 -473q-37 -77 -82 -111t-109 -34q-28 0 -47 6q-15 4 -23.5 16.5t-8.5 27.5q0 19 14 32.5t34 13.5l20 -1q35 0 59.5 17t42.5 55l22 47l-182 403q-6 16 -6 25q0 20 15.5 35.5t36.5 15.5q16 0 29 -8.5t19 -22.5l147 -330
l151 330q6 14 19 22.5t29 8.5q21 0 36 -15.5zM208 721q19 -19 19 -47q0 -26 -19.5 -45.5t-47.5 -19.5q-27 0 -47.5 19.5t-20.5 45.5q0 27 20 46.5t48 19.5q29 0 48 -19zM432.5 721q19.5 -19 19.5 -47q0 -26 -20 -45.5t-48 -19.5q-27 0 -47.5 19.5t-20.5 45.5q0 27 20 46.5
t48 19.5q29 0 48.5 -19z" />
    <glyph glyph-name="ygrave" unicode="&#x1ef3;" horiz-adv-x="549" 
d="M510 486.5q15 -15.5 15 -35.5q0 -14 -5 -24l-226 -473q-37 -77 -82 -111t-109 -34q-28 0 -47 6q-15 4 -23.5 16.5t-8.5 27.5q0 19 14 32.5t34 13.5l20 -1q35 0 59.5 17t42.5 55l22 47l-182 403q-6 16 -6 25q0 20 15.5 35.5t36.5 15.5q16 0 29 -8.5t19 -22.5l147 -330
l151 330q6 14 19 22.5t29 8.5q21 0 36 -15.5zM212 591l-67 118q-8 15 -8 28q0 23 15 38.5t37 15.5q16 0 30 -9t20 -22l54 -125q7 -14 7 -24q1 -19 -13 -33t-35 -14q-23 0 -40 27z" />
    <glyph glyph-name="z" unicode="z" horiz-adv-x="461" 
d="M432 78q13 -13 13 -33q0 -19 -13.5 -32t-32.5 -13h-330q-19 0 -32.5 13t-13.5 32q0 10 4.5 19t15.5 23l251 313h-208q-20 0 -33 13t-13 32q0 20 13.5 33t32.5 13h305q19 0 32.5 -13t13.5 -32t-17 -39l-253 -316h232q20 0 33 -13z" />
    <glyph glyph-name="zacute" unicode="&#x17a;" horiz-adv-x="461" 
d="M432 78q13 -13 13 -33q0 -19 -13.5 -32t-32.5 -13h-330q-19 0 -32.5 13t-13.5 32q0 10 4.5 19t15.5 23l251 313h-208q-20 0 -33 13t-13 32q0 20 13.5 33t32.5 13h305q19 0 32.5 -13t13.5 -32t-17 -39l-253 -316h232q20 0 33 -13zM223 578q-14 14 -13 33q0 10 7 24l54 125
q6 13 20 22t30 9q22 0 37 -15.5t15 -38.5q0 -13 -8 -28l-67 -118q-17 -27 -40 -27q-21 0 -35 14z" />
    <glyph glyph-name="zcaron" unicode="&#x17e;" horiz-adv-x="461" 
d="M432 78q13 -13 13 -33q0 -19 -13.5 -32t-32.5 -13h-330q-19 0 -32.5 13t-13.5 32q0 10 4.5 19t15.5 23l251 313h-208q-20 0 -33 13t-13 32q0 20 13.5 33t32.5 13h305q19 0 32.5 -13t13.5 -32t-17 -39l-253 -316h232q20 0 33 -13zM379.5 775q12.5 -12 12.5 -30
q0 -15 -12 -30l-103 -130q-15 -19 -39 -19t-40 19l-102 130q-12 14 -12 30q0 18 12.5 30t29.5 12q9 0 17 -4t13 -10l82 -93l81 93q12 14 31 14q17 0 29.5 -12z" />
    <glyph glyph-name="zdotaccent" unicode="&#x17c;" horiz-adv-x="461" 
d="M432 78q13 -13 13 -33q0 -19 -13.5 -32t-32.5 -13h-330q-19 0 -32.5 13t-13.5 32q0 10 4.5 19t15.5 23l251 313h-208q-20 0 -33 13t-13 32q0 20 13.5 33t32.5 13h305q19 0 32.5 -13t13.5 -32t-17 -39l-253 -316h232q20 0 33 -13zM287.5 722q20.5 -20 20.5 -48t-20.5 -48
t-49.5 -20t-49.5 20t-20.5 48t20.5 48t49.5 20t49.5 -20z" />
    <glyph glyph-name="iacute_j.loclNLD" horiz-adv-x="514" 
d="M91 4.5q-15 15.5 -15 38.5v405q0 23 15 38.5t38 15.5q22 0 37 -15.5t15 -38.5v-405q0 -23 -15 -38.5t-38 -15.5q-22 0 -37 15.5zM106 578q-13 11 -15 28v6q0 9 3 19l31 132q5 17 19.5 29t33.5 12t34 -13t18 -33l1 -8q0 -11 -4 -20l-46 -128q-13 -35 -44 -35q-18 0 -31 11
zM220 -185q-17 5 -27.5 16.5t-10.5 27.5q0 19 13 32.5t33 13.5l19 -1q41 0 63.5 20t22.5 70v454q0 23 15 38.5t38 15.5q22 0 37 -15.5t15 -38.5v-468q0 -85 -46 -128t-126 -43q-27 0 -46 6zM363 578q-13 11 -15 28v6q0 9 3 19l31 132q5 17 19.5 29t33.5 12t34 -13t18 -33
l1 -8q0 -11 -4 -20l-46 -128q-13 -35 -44 -35q-18 0 -31 11z" />
    <glyph glyph-name="cacute.loclPLK" horiz-adv-x="552" 
d="M173.5 23q-59.5 34 -94 93t-34.5 130q0 70 34.5 129t94 93t131.5 34q63 0 116 -27.5t82 -72.5q10 -15 10 -28q0 -20 -13.5 -34t-33.5 -14q-23 0 -37 17q-50 62 -123 62q-43 0 -78.5 -20.5t-55.5 -57t-20 -81.5q0 -46 20 -82.5t55 -57t79 -20.5q71 0 123 61q8 10 17 13.5
t20 3.5q20 0 33.5 -13.5t13.5 -33.5q0 -14 -9 -27q-32 -47 -83.5 -74t-115.5 -27q-72 0 -131.5 34zM280.5 574q-12.5 10 -15.5 25q-1 3 -1 9q0 4 2 16l19 135q3 18 18.5 31.5t35.5 13.5q17 0 31.5 -11t19.5 -30q1 -4 1 -12q0 -10 -2 -17l-34 -131q-11 -39 -46 -39
q-16 0 -28.5 10z" />
    <glyph glyph-name="nacute.loclPLK" horiz-adv-x="575" 
d="M455 449q50 -53 50 -142v-264q0 -24 -15 -39t-37 -15q-23 0 -38 15.5t-15 38.5v250q0 51 -29.5 82.5t-77.5 31.5q-49 0 -80.5 -32t-31.5 -82v-250q0 -24 -14.5 -39t-37.5 -15t-38 15.5t-15 38.5v405q0 23 15 38.5t38 15.5q22 0 36.5 -15.5t14.5 -38.5q27 26 63 40t78 14
q84 0 134 -53zM259.5 574q-12.5 10 -15.5 25q-1 3 -1 9q0 4 2 16l19 135q3 18 18.5 31.5t35.5 13.5q17 0 31.5 -11t19.5 -30q1 -4 1 -12q0 -10 -2 -17l-34 -131q-11 -39 -46 -39q-16 0 -28.5 10z" />
    <glyph glyph-name="oacute.loclPLK" horiz-adv-x="609" 
d="M436 468q60 -34 94.5 -93t34.5 -129t-34.5 -129t-94.5 -93.5t-132 -34.5q-71 0 -130.5 34.5t-94 93.5t-34.5 129q0 71 34.5 129.5t94 92.5t130.5 34q72 0 132 -34zM227 385q-35 -21 -55 -58t-20 -82t20 -81.5t54.5 -57t77.5 -20.5t78 21t55 57.5t20 80.5q0 45 -20 81.5
t-54.5 58t-77.5 21.5t-78 -21zM281.5 574q-12.5 10 -15.5 25q-1 3 -1 9q0 4 2 16l19 135q3 18 18.5 31.5t35.5 13.5q17 0 31.5 -11t19.5 -30q1 -4 1 -12q0 -10 -2 -17l-34 -131q-11 -39 -46 -39q-16 0 -28.5 10z" />
    <glyph glyph-name="sacute.loclPLK" horiz-adv-x="455" 
d="M127 9.5q-46 20.5 -79 55.5q-15 14 -15 34q0 19 14 32.5t33 13.5q18 0 33 -14q55 -51 115 -51q34 0 56.5 14t22.5 41q0 22 -16.5 34t-52.5 27l-50 21q-65 27 -96.5 59t-31.5 84q0 66 49 104t124 38q46 0 86.5 -16t69.5 -44q16 -15 16 -35q0 -19 -13 -32t-31 -13
q-13 0 -33 15q-44 34 -97 34q-31 0 -49 -12t-18 -35q0 -19 14.5 -31.5t50.5 -26.5l47 -19q70 -29 102 -62.5t32 -85.5q0 -71 -52 -110.5t-130 -39.5q-55 0 -101 20.5zM207.5 574q-12.5 10 -15.5 25q-1 3 -1 9q0 4 2 16l19 135q3 18 18.5 31.5t35.5 13.5q17 0 31.5 -11
t19.5 -30q1 -4 1 -12q0 -10 -2 -17l-34 -131q-11 -39 -46 -39q-16 0 -28.5 10z" />
    <glyph glyph-name="zacute.loclPLK" horiz-adv-x="461" 
d="M432 78q13 -13 13 -33q0 -19 -13.5 -32t-32.5 -13h-330q-19 0 -32.5 13t-13.5 32q0 10 4.5 19t15.5 23l251 313h-208q-20 0 -33 13t-13 32q0 20 13.5 33t32.5 13h305q19 0 32.5 -13t13.5 -32t-17 -39l-253 -316h232q20 0 33 -13zM214.5 574q-12.5 10 -15.5 25q-1 3 -1 9
q0 4 2 16l19 135q3 18 18.5 31.5t35.5 13.5q17 0 31.5 -11t19.5 -30q1 -4 1 -12q0 -10 -2 -17l-34 -131q-11 -39 -46 -39q-16 0 -28.5 10z" />
    <glyph glyph-name="i.loclTRK.loclTRK" horiz-adv-x="257" 
d="M91 4.5q-15 15.5 -15 38.5v405q0 23 15 38.5t38 15.5q22 0 37 -15.5t15 -38.5v-405q0 -23 -15 -38.5t-38 -15.5q-22 0 -37 15.5zM178.5 722q20.5 -20 20.5 -48t-20.5 -48t-49.5 -20t-49.5 20t-20.5 48t20.5 48t49.5 20t49.5 -20z" />
    <glyph glyph-name="c.ordn" horiz-adv-x="368" 
d="M118 258.5q-38 21.5 -60.5 59t-22.5 82.5t22.5 82.5t60.5 59t84 21.5q36 0 67 -14t51 -39q11 -13 11 -27q0 -16 -11 -26.5t-26 -10.5t-28 13q-30 28 -64 28q-35 0 -58.5 -25t-23.5 -62t23.5 -62t58.5 -25q34 0 64 28q14 14 28 14q15 0 26 -11t11 -27q0 -14 -11 -27
q-20 -25 -51.5 -39t-66.5 -14q-46 0 -84 21.5z" />
    <glyph glyph-name="d.ordn" horiz-adv-x="421" 
d="M352 710q12 -12 12 -30v-402q0 -17 -11.5 -29t-29.5 -12q-17 0 -29 11.5t-12 28.5q-17 -19 -42 -29.5t-55 -10.5q-42 0 -76.5 21t-54 58.5t-19.5 83.5t19.5 83.5t54 58.5t76.5 21q29 0 53 -9.5t41 -27.5v154q0 18 12 30t31 12q18 0 30 -12zM258 336.5q22 24.5 22 62.5
q0 39 -21.5 63.5t-56.5 24.5t-58.5 -25t-23.5 -62t23.5 -62.5t58.5 -25.5q34 0 56 24.5z" />
    <glyph glyph-name="e.ordn" horiz-adv-x="381" 
d="M303.5 522.5q41.5 -40.5 41.5 -102.5v-8q0 -16 -11.5 -27t-27.5 -11h-187q7 -31 29.5 -48t56.5 -17q27 0 56 15q5 2 14.5 7t15.5 5q15 0 25.5 -10.5t10.5 -25.5q0 -19 -16 -29q-45 -34 -106 -34q-48 0 -87 21.5t-61 58.5t-22 83q0 45 22 82.5t59.5 59t82.5 21.5
q63 0 104.5 -40.5zM147 477.5q-20 -16.5 -27 -45.5h144q-1 28 -20.5 45t-48.5 17q-28 0 -48 -16.5z" />
    <glyph glyph-name="egrave.ordn" horiz-adv-x="381" 
d="M112 681q-7 10 -7 23q0 16 11.5 28t28.5 12q25 0 38 -25l35 -65q6 -9 6 -19q0 -14 -10.5 -24.5t-25.5 -10.5q-18 0 -31 17zM303.5 522.5q41.5 -40.5 41.5 -102.5v-8q0 -16 -11.5 -27t-27.5 -11h-187q7 -31 29.5 -48t56.5 -17q27 0 56 15q5 2 14.5 7t15.5 5
q15 0 25.5 -10.5t10.5 -25.5q0 -19 -16 -29q-45 -34 -106 -34q-48 0 -87 21.5t-61 58.5t-22 83q0 45 22 82.5t59.5 59t82.5 21.5q63 0 104.5 -40.5zM147 477.5q-20 -16.5 -27 -45.5h144q-1 28 -20.5 45t-48.5 17q-28 0 -48 -16.5z" />
    <glyph glyph-name="g.ordn" horiz-adv-x="421" 
d="M352 550.5q12 -12.5 12 -31.5v-237q0 -72 -45.5 -115t-121.5 -43q-72 0 -126 40q-20 14 -20 34q0 15 11.5 26t27.5 11q10 0 26 -11q32 -24 75 -24q41 0 64.5 21.5t23.5 58.5v15q-34 -36 -93 -36q-65 0 -108 43.5t-43 110.5q0 65 42 107.5t108 42.5q58 0 93 -33
q4 14 15.5 23.5t27.5 9.5q19 0 31 -12.5zM258 354q22 23 22 58t-22 57t-57 22t-58 -22t-23 -55q0 -35 23.5 -59t58.5 -24q34 0 56 23z" />
    <glyph glyph-name="h.ordn" horiz-adv-x="392" 
d="M308.5 528.5q31.5 -34.5 31.5 -91.5v-157q0 -18 -12 -30t-30 -12q-19 0 -31 12t-12 30v145q0 28 -15.5 44.5t-40.5 16.5t-41 -17t-16 -44v-145q0 -18 -12 -30t-30 -12q-19 0 -31 12t-12 30v400q0 18 12 30t31 12q18 0 30 -12t12 -30v-149q34 32 83 32q52 0 83.5 -34.5z
" />
    <glyph glyph-name="i.ordn" horiz-adv-x="195" 
d="M135.5 702.5q15.5 -14.5 15.5 -36.5t-15.5 -36.5t-38.5 -14.5q-22 0 -37 14.5t-15 36.5t15 36.5t37 14.5q23 0 38.5 -14.5zM128 551q12 -12 12 -31v-241q0 -19 -12 -30.5t-30 -11.5t-30 11.5t-12 30.5v241q0 19 11.5 31t30.5 12q18 0 30 -12z" />
    <glyph glyph-name="l.ordn" horiz-adv-x="198" 
d="M129 710q12 -12 12 -30v-401q0 -18 -11.5 -30t-29.5 -12q-19 0 -31 11.5t-12 30.5v401q0 18 12 30t31 12q17 0 29 -12z" />
    <glyph glyph-name="m.ordn" horiz-adv-x="586" 
d="M502 529q31 -34 31 -92v-158q0 -18 -11.5 -30t-30.5 -12q-18 0 -30 12t-12 30v146q0 28 -14.5 44.5t-40.5 16.5q-25 0 -40.5 -16.5t-15.5 -42.5v-148q0 -18 -12 -30t-30 -12q-19 0 -31 12t-12 30v146q0 28 -14.5 44.5t-40.5 16.5t-41 -16.5t-15 -44.5v-146q0 -18 -12 -30
t-30 -12q-19 0 -31 12t-12 30v241q0 19 12.5 31t30.5 12q14 0 25 -8t15 -21q32 29 81 29q62 0 93 -45q18 21 45 33t58 12q54 0 85 -34z" />
    <glyph glyph-name="n.ordn" horiz-adv-x="392" 
d="M308.5 528.5q31.5 -34.5 31.5 -91.5v-158q0 -18 -12 -30t-30 -12q-19 0 -31 11.5t-12 30.5v146q0 27 -15.5 44t-40.5 17t-41 -17t-16 -44v-146q0 -18 -12 -30t-30 -12q-19 0 -31 11.5t-12 30.5v241q0 19 12.5 31t30.5 12q14 0 25 -8t15 -22q33 30 83 30q54 0 85.5 -34.5z
" />
    <glyph glyph-name="r.ordn" horiz-adv-x="257" 
d="M240.5 552q11.5 -11 11.5 -29q0 -17 -10 -27.5t-29 -11.5q-33 -3 -52 -26t-19 -59v-119q0 -18 -12 -30.5t-30 -12.5q-19 0 -31 12t-12 31v239q0 19 12.5 31.5t30.5 12.5q16 0 27 -9.5t14 -23.5q28 33 69 33q19 0 30.5 -11z" />
    <glyph glyph-name="s.ordn" horiz-adv-x="311" 
d="M94 248q-28 11 -47 28q-16 15 -16 30q0 14 10 24t24 10q11 0 21 -8q37 -27 68 -27q17 0 26.5 7t9.5 19q0 10 -6.5 16.5t-23.5 14.5l-32 13q-43 17 -63 39.5t-20 54.5q0 42 31 68t81 26q27 0 51.5 -8.5t40.5 -21.5q17 -13 19 -30q1 -15 -9 -25t-24 -10q-12 0 -22 8
q-28 18 -54 18q-33 0 -33 -22q0 -10 6.5 -15.5t22.5 -13.5l32 -14q48 -20 67 -41t19 -52q0 -46 -33.5 -72.5t-85.5 -26.5q-32 0 -60 11z" />
    <glyph glyph-name="y.ss01.ordn" horiz-adv-x="397" 
d="M328 551q12 -12 12 -31v-244q0 -70 -41 -111t-111 -41q-65 0 -111 35q-20 14 -20 34q0 16 11 27t25 11q10 0 26 -9q31 -22 66 -22q34 0 52 19t18 54v21q-33 -31 -82 -31q-52 0 -84 34.5t-32 91.5v131q0 19 12.5 31t30.5 12t30 -12t12 -31v-119q0 -27 15.5 -44.5
t40.5 -17.5t41 17t16 44v120q0 19 12 31t31 12q18 0 30 -12z" />
    <glyph glyph-name="t.ordn" horiz-adv-x="265" 
d="M237.5 302.5q10.5 -10.5 10.5 -25.5q0 -20 -17 -31q-15 -9 -46 -9q-59 0 -91 29t-32 87v131h-15q-16 0 -27 10.5t-11 25.5t11 25.5t27 10.5h15v36q0 19 12 31t30 12t30.5 -12t12.5 -31v-36h54q16 0 26.5 -10t10.5 -26q0 -15 -10.5 -25.5t-26.5 -10.5h-54v-122
q0 -26 13 -37.5t39 -11.5h12q16 0 26.5 -10.5z" />
    <glyph glyph-name="u.ordn" horiz-adv-x="387" 
d="M323 551q12 -12 12 -31v-139q0 -64 -39.5 -104t-101.5 -40t-101.5 40t-39.5 104v139q0 19 12 31t30 12q19 0 30.5 -12t11.5 -31v-145q0 -27 16 -44t41 -17t40.5 17t15.5 44v145q0 19 12 31t30 12q19 0 31 -12z" />
    <glyph glyph-name="uacute.ordn" horiz-adv-x="387" 
d="M172.5 610.5q-10.5 10.5 -10.5 24.5q0 10 6 19l35 65q13 25 38 25q17 0 28.5 -12t11.5 -28q0 -13 -7 -23l-45 -64q-13 -17 -31 -17q-15 0 -25.5 10.5zM322.5 550.5q12.5 -12.5 12.5 -31.5v-138q0 -64 -39.5 -104t-101.5 -40t-101.5 40t-39.5 104v138q0 19 12 31.5
t30 12.5t30 -12.5t12 -31.5v-144q0 -27 16 -44t41 -17t40.5 17t15.5 44v144q0 19 12 31.5t30 12.5t30.5 -12.5z" />
    <glyph glyph-name="y.ordn" horiz-adv-x="360" 
d="M330.5 550.5q12.5 -12.5 12.5 -30.5q0 -8 -5 -20l-130 -284q-21 -47 -54 -69.5t-80 -22.5q-23 0 -38 9q-19 11 -19 32q0 15 11.5 25.5t27.5 10.5l16 -1q41 0 59 42l8 19l-98 239q-4 9 -4 20q0 18 12.5 30.5t29.5 12.5q28 0 40 -28l67 -184l75 184q12 28 40 28
q17 0 29.5 -12.5z" />
    <glyph glyph-name="z.ordn" horiz-adv-x="299" 
d="M279.5 305.5q10.5 -10.5 10.5 -24.5q0 -16 -10.5 -26.5t-26.5 -10.5h-202q-16 0 -26.5 10.5t-10.5 26.5q0 12 14 31l145 172h-113q-16 0 -27 10.5t-11 25.5t11 25.5t27 10.5h186q16 0 26.5 -10.5t10.5 -25.5q0 -8 -3 -15t-11 -17l-144 -172h128q16 0 26.5 -10.5z" />
    <glyph glyph-name="a.ss01" horiz-adv-x="631" 
d="M540 486q15 -16 15 -39v-404q0 -23 -15.5 -38.5t-38.5 -15.5t-38.5 15.5t-15.5 38.5v14q-28 -32 -70 -50t-92 -18q-68 0 -123 33t-86 91.5t-31 131.5t31 131.5t86 92t123 33.5q52 0 95.5 -19.5t70.5 -53.5v18q0 23 15 39t37 16t37 -16zM410 129.5q41 44.5 41 115.5
q0 72 -41 116.5t-107 44.5q-43 0 -77.5 -21t-54 -57.5t-19.5 -82.5q0 -69 42.5 -114.5t108.5 -45.5t107 44.5z" />
    <glyph glyph-name="aacute.ss01" horiz-adv-x="631" 
d="M540 486q15 -16 15 -39v-404q0 -23 -15.5 -38.5t-38.5 -15.5t-38.5 15.5t-15.5 38.5v14q-28 -32 -70 -50t-92 -18q-68 0 -123 33t-86 91.5t-31 131.5t31 131.5t86 92t123 33.5q52 0 95.5 -19.5t70.5 -53.5v18q0 23 15 39t37 16t37 -16zM410 129.5q41 44.5 41 115.5
q0 72 -41 116.5t-107 44.5q-43 0 -77.5 -21t-54 -57.5t-19.5 -82.5q0 -69 42.5 -114.5t108.5 -45.5t107 44.5zM296 578q-14 14 -13 33q0 10 7 24l54 125q6 13 20 22t30 9q22 0 37 -15.5t15 -38.5q0 -13 -8 -28l-67 -118q-17 -27 -40 -27q-21 0 -35 14z" />
    <glyph glyph-name="abreve.ss01" horiz-adv-x="631" 
d="M540 486q15 -16 15 -39v-404q0 -23 -15.5 -38.5t-38.5 -15.5t-38.5 15.5t-15.5 38.5v14q-28 -32 -70 -50t-92 -18q-68 0 -123 33t-86 91.5t-31 131.5t31 131.5t86 92t123 33.5q52 0 95.5 -19.5t70.5 -53.5v18q0 23 15 39t37 16t37 -16zM410 129.5q41 44.5 41 115.5
q0 72 -41 116.5t-107 44.5q-43 0 -77.5 -21t-54 -57.5t-19.5 -82.5q0 -69 42.5 -114.5t108.5 -45.5t107 44.5zM232 597.5q-37 20.5 -59.5 54t-22.5 70.5q0 19 12 32t30 13q34 0 42 -37q4 -31 26 -50.5t51 -19.5q30 0 51.5 19.5t26.5 50.5q4 17 14.5 27t26.5 10
q18 0 30.5 -13t12.5 -32q0 -38 -22 -71.5t-59 -53.5t-81 -20q-42 0 -79 20.5z" />
    <glyph glyph-name="acircumflex.ss01" horiz-adv-x="631" 
d="M540 486q15 -16 15 -39v-404q0 -23 -15.5 -38.5t-38.5 -15.5t-38.5 15.5t-15.5 38.5v14q-28 -32 -70 -50t-92 -18q-68 0 -123 33t-86 91.5t-31 131.5t31 131.5t86 92t123 33.5q52 0 95.5 -19.5t70.5 -53.5v18q0 23 15 39t37 16t37 -16zM410 129.5q41 44.5 41 115.5
q0 72 -41 116.5t-107 44.5q-43 0 -77.5 -21t-54 -57.5t-19.5 -82.5q0 -69 42.5 -114.5t108.5 -45.5t107 44.5zM465 608q0 -18 -12.5 -30t-29.5 -12q-19 0 -31 14l-81 93l-82 -93q-5 -6 -13 -10t-17 -4q-17 0 -29.5 12t-12.5 30q0 17 12 30l102 130q16 19 40 19t39 -19
l103 -130q12 -15 12 -30z" />
    <glyph glyph-name="adieresis.ss01" horiz-adv-x="631" 
d="M540 486q15 -16 15 -39v-404q0 -23 -15.5 -38.5t-38.5 -15.5t-38.5 15.5t-15.5 38.5v14q-28 -32 -70 -50t-92 -18q-68 0 -123 33t-86 91.5t-31 131.5t31 131.5t86 92t123 33.5q52 0 95.5 -19.5t70.5 -53.5v18q0 23 15 39t37 16t37 -16zM410 129.5q41 44.5 41 115.5
q0 72 -41 116.5t-107 44.5q-43 0 -77.5 -21t-54 -57.5t-19.5 -82.5q0 -69 42.5 -114.5t108.5 -45.5t107 44.5zM247 721q19 -19 19 -47q0 -26 -19.5 -45.5t-47.5 -19.5q-27 0 -47.5 19.5t-20.5 45.5q0 27 20 46.5t48 19.5q29 0 48 -19zM471.5 721q19.5 -19 19.5 -47
q0 -26 -20 -45.5t-48 -19.5q-27 0 -47.5 19.5t-20.5 45.5q0 27 20 46.5t48 19.5q29 0 48.5 -19z" />
    <glyph glyph-name="agrave.ss01" horiz-adv-x="631" 
d="M540 486q15 -16 15 -39v-404q0 -23 -15.5 -38.5t-38.5 -15.5t-38.5 15.5t-15.5 38.5v14q-28 -32 -70 -50t-92 -18q-68 0 -123 33t-86 91.5t-31 131.5t31 131.5t86 92t123 33.5q52 0 95.5 -19.5t70.5 -53.5v18q0 23 15 39t37 16t37 -16zM410 129.5q41 44.5 41 115.5
q0 72 -41 116.5t-107 44.5q-43 0 -77.5 -21t-54 -57.5t-19.5 -82.5q0 -69 42.5 -114.5t108.5 -45.5t107 44.5zM251 591l-67 118q-8 15 -8 28q0 23 15 38.5t37 15.5q16 0 30 -9t20 -22l54 -125q7 -14 7 -24q1 -19 -13 -33t-35 -14q-23 0 -40 27z" />
    <glyph glyph-name="amacron.ss01" horiz-adv-x="631" 
d="M540 486q15 -16 15 -39v-404q0 -23 -15.5 -38.5t-38.5 -15.5t-38.5 15.5t-15.5 38.5v14q-28 -32 -70 -50t-92 -18q-68 0 -123 33t-86 91.5t-31 131.5t31 131.5t86 92t123 33.5q52 0 95.5 -19.5t70.5 -53.5v18q0 23 15 39t37 16t37 -16zM410 129.5q41 44.5 41 115.5
q0 72 -41 116.5t-107 44.5q-43 0 -77.5 -21t-54 -57.5t-19.5 -82.5q0 -69 42.5 -114.5t108.5 -45.5t107 44.5zM448.5 704q12.5 -12 12.5 -30t-12.5 -30t-31.5 -12h-212q-19 0 -31.5 12t-12.5 30t12.5 30t31.5 12h212q19 0 31.5 -12z" />
    <glyph glyph-name="aogonek.ss01" horiz-adv-x="631" 
d="M540 486q15 -16 15 -39v-404q0 -23 -15.5 -38.5t-38.5 -15.5t-38.5 15.5t-15.5 38.5v14q-28 -32 -70 -50t-92 -18q-68 0 -123 33t-86 91.5t-31 131.5t31 131.5t86 92t123 33.5q52 0 95.5 -19.5t70.5 -53.5v18q0 23 15 39t37 16t37 -16zM410 129.5q41 44.5 41 115.5
q0 72 -41 116.5t-107 44.5q-43 0 -77.5 -21t-54 -57.5t-19.5 -82.5q0 -69 42.5 -114.5t108.5 -45.5t107 44.5zM400 -164.5q-31 26.5 -31 71.5q0 35 19.5 61.5t63.5 61.5q23 18 39.5 27t30.5 9q13 0 23 -9t10 -21q0 -22 -24 -40q-29 -22 -46 -39.5t-17 -36.5
q0 -14 11.5 -22.5t32.5 -8.5l25 1q15 0 24.5 -10t9.5 -26q0 -29 -32 -38q-20 -7 -57 -7q-51 0 -82 26.5z" />
    <glyph glyph-name="aring.ss01" horiz-adv-x="631" 
d="M540 486q15 -16 15 -39v-404q0 -23 -15.5 -38.5t-38.5 -15.5t-38.5 15.5t-15.5 38.5v14q-28 -32 -70 -50t-92 -18q-68 0 -123 33t-86 91.5t-31 131.5t31 131.5t86 92t123 33.5q52 0 95.5 -19.5t70.5 -53.5v18q0 23 15 39t37 16t37 -16zM410 129.5q41 44.5 41 115.5
q0 72 -41 116.5t-107 44.5q-43 0 -77.5 -21t-54 -57.5t-19.5 -82.5q0 -69 42.5 -114.5t108.5 -45.5t107 44.5zM395 755q34 -33 34 -82t-34 -82t-85 -33q-50 0 -84 33t-34 82t34 82t84 33q51 0 85 -33zM278 706q-13 -13 -13 -33q0 -19 13 -32t33 -13t32.5 13t12.5 32
t-13 32.5t-32 13.5q-20 0 -33 -13z" />
    <glyph glyph-name="atilde.ss01" horiz-adv-x="631" 
d="M540 486q15 -16 15 -39v-404q0 -23 -15.5 -38.5t-38.5 -15.5t-38.5 15.5t-15.5 38.5v14q-28 -32 -70 -50t-92 -18q-68 0 -123 33t-86 91.5t-31 131.5t31 131.5t86 92t123 33.5q52 0 95.5 -19.5t70.5 -53.5v18q0 23 15 39t37 16t37 -16zM410 129.5q41 44.5 41 115.5
q0 72 -41 116.5t-107 44.5q-43 0 -77.5 -21t-54 -57.5t-19.5 -82.5q0 -69 42.5 -114.5t108.5 -45.5t107 44.5zM316 612l-27 20q-16 13 -24 17.5t-17 4.5q-12 0 -19 -8t-9 -22q-3 -17 -14 -27t-27 -10q-19 0 -31 13.5t-12 34.5q0 51 28 82.5t72 31.5q36 0 70 -24l26 -20
q19 -14 26.5 -18t15.5 -4q23 0 28 30q3 17 14 27t27 10q19 0 31 -13.5t12 -34.5q0 -50 -28 -82.5t-71 -32.5q-38 0 -71 25z" />
    <glyph glyph-name="y.ss01" horiz-adv-x="585" 
d="M494 486.5q15 -15.5 15 -38.5v-412q0 -71 -28.5 -122t-79 -78t-116.5 -27q-55 0 -103 18t-85 50q-21 16 -21 38q0 20 14 34.5t34 14.5q16 0 34 -15q52 -44 118 -44q57 0 92.5 31t35.5 93v41q-27 -27 -63.5 -42t-79.5 -15q-83 0 -132 53.5t-49 143.5v238q0 23 15 38.5
t37 15.5q23 0 38 -15.5t15 -38.5v-224q0 -52 29 -83.5t77 -31.5q50 0 81.5 31.5t31.5 81.5v226q0 23 15 38.5t38 15.5q22 0 37 -15.5z" />
    <glyph glyph-name="yacute.ss01" horiz-adv-x="585" 
d="M494 486.5q15 -15.5 15 -38.5v-412q0 -71 -28.5 -122t-79 -78t-116.5 -27q-55 0 -103 18t-85 50q-21 16 -21 38q0 20 14 34.5t34 14.5q16 0 34 -15q52 -44 118 -44q57 0 92.5 31t35.5 93v41q-27 -27 -63.5 -42t-79.5 -15q-83 0 -132 53.5t-49 143.5v238q0 23 15 38.5
t37 15.5q23 0 38 -15.5t15 -38.5v-224q0 -52 29 -83.5t77 -31.5q50 0 81.5 31.5t31.5 81.5v226q0 23 15 38.5t38 15.5q22 0 37 -15.5zM278 578q-14 14 -13 33q0 10 7 24l54 125q6 13 20 22t30 9q22 0 37 -15.5t15 -38.5q0 -13 -8 -28l-67 -118q-17 -27 -40 -27q-21 0 -35 14
z" />
    <glyph glyph-name="ycircumflex.ss01" horiz-adv-x="585" 
d="M494 486.5q15 -15.5 15 -38.5v-412q0 -71 -28.5 -122t-79 -78t-116.5 -27q-55 0 -103 18t-85 50q-21 16 -21 38q0 20 14 34.5t34 14.5q16 0 34 -15q52 -44 118 -44q57 0 92.5 31t35.5 93v41q-27 -27 -63.5 -42t-79.5 -15q-83 0 -132 53.5t-49 143.5v238q0 23 15 38.5
t37 15.5q23 0 38 -15.5t15 -38.5v-224q0 -52 29 -83.5t77 -31.5q50 0 81.5 31.5t31.5 81.5v226q0 23 15 38.5t38 15.5q22 0 37 -15.5zM447 608q0 -18 -12.5 -30t-29.5 -12q-19 0 -31 14l-81 93l-82 -93q-5 -6 -13 -10t-17 -4q-17 0 -29.5 12t-12.5 30q0 17 12 30l102 130
q16 19 40 19t39 -19l103 -130q12 -15 12 -30z" />
    <glyph glyph-name="ydieresis.ss01" horiz-adv-x="585" 
d="M494 486.5q15 -15.5 15 -38.5v-412q0 -71 -28.5 -122t-79 -78t-116.5 -27q-55 0 -103 18t-85 50q-21 16 -21 38q0 20 14 34.5t34 14.5q16 0 34 -15q52 -44 118 -44q57 0 92.5 31t35.5 93v41q-27 -27 -63.5 -42t-79.5 -15q-83 0 -132 53.5t-49 143.5v238q0 23 15 38.5
t37 15.5q23 0 38 -15.5t15 -38.5v-224q0 -52 29 -83.5t77 -31.5q50 0 81.5 31.5t31.5 81.5v226q0 23 15 38.5t38 15.5q22 0 37 -15.5zM229 721q19 -19 19 -47q0 -26 -19.5 -45.5t-47.5 -19.5q-27 0 -47.5 19.5t-20.5 45.5q0 27 20 46.5t48 19.5q29 0 48 -19zM453.5 721
q19.5 -19 19.5 -47q0 -26 -20 -45.5t-48 -19.5q-27 0 -47.5 19.5t-20.5 45.5q0 27 20 46.5t48 19.5q29 0 48.5 -19z" />
    <glyph glyph-name="ygrave.ss01" horiz-adv-x="585" 
d="M494 486.5q15 -15.5 15 -38.5v-412q0 -71 -28.5 -122t-79 -78t-116.5 -27q-55 0 -103 18t-85 50q-21 16 -21 38q0 20 14 34.5t34 14.5q16 0 34 -15q52 -44 118 -44q57 0 92.5 31t35.5 93v41q-27 -27 -63.5 -42t-79.5 -15q-83 0 -132 53.5t-49 143.5v238q0 23 15 38.5
t37 15.5q23 0 38 -15.5t15 -38.5v-224q0 -52 29 -83.5t77 -31.5q50 0 81.5 31.5t31.5 81.5v226q0 23 15 38.5t38 15.5q22 0 37 -15.5zM233 591l-67 118q-8 15 -8 28q0 23 15 38.5t37 15.5q16 0 30 -9t20 -22l54 -125q7 -14 7 -24q1 -19 -13 -33t-35 -14q-23 0 -40 27z" />
    <glyph glyph-name="ordfeminine" unicode="&#xaa;" horiz-adv-x="367" 
d="M280 528q35 -35 35 -98v-150q0 -18 -12 -30.5t-30 -12.5q-15 0 -26 8t-15 22q-35 -30 -88 -30q-49 0 -78 25.5t-29 68.5t31 67t86 24h76v14q0 54 -59 54q-29 0 -60 -21q-11 -8 -23 -8q-15 0 -25.5 10.5t-10.5 25.5q0 20 21 33q47 33 108 33q64 0 99 -35zM212.5 316.5
q17.5 16.5 17.5 41.5v10h-62q-21 0 -33 -9t-12 -25t12 -25t33 -9q27 0 44.5 16.5z" />
    <glyph glyph-name="ordmasculine" unicode="&#xba;" horiz-adv-x="404" 
d="M286 540.5q38 -21.5 60.5 -59t22.5 -82.5t-22.5 -82t-60.5 -58.5t-84 -21.5t-84.5 21.5t-60.5 58.5t-22 82t22 82.5t60.5 59t84.5 21.5t84 -21.5zM142 462q-23 -24 -23 -63q0 -38 23 -62t60 -24q36 0 59 24t23 62t-22.5 62.5t-59.5 24.5t-60 -24z" />
    <glyph glyph-name="ordfeminine.ss01" horiz-adv-x="420" 
d="M352.5 551.5q10.5 -11.5 10.5 -27.5v-249q0 -16 -10.5 -27t-26.5 -11t-27 11t-11 27v6q-17 -21 -42.5 -32.5t-57.5 -11.5q-67 0 -110 46t-43 117q0 46 19.5 83.5t54.5 58.5t78 21q32 0 58 -11.5t43 -31.5v4q0 16 11 27.5t27 11.5t26.5 -11.5zM261 337.5q22 23.5 22 62.5
t-22 62.5t-60 23.5q-36 0 -58.5 -23.5t-22.5 -61.5q0 -39 22.5 -63t59.5 -24t59 23.5z" />
    <glyph glyph-name="uni0410" unicode="&#x410;" horiz-adv-x="663" 
d="M629 40q0 -21 -15 -36t-37 -15q-35 0 -50 37l-41 93h-311l-39 -93q-14 -37 -50 -37q-22 0 -37 15t-15 36q0 14 8 30l239 565q15 36 50 36q36 0 51 -36l239 -565q8 -19 8 -30zM212 209h236l-117 307z" />
    <glyph glyph-name="uni0411" unicode="&#x411;" horiz-adv-x="618" 
d="M499 646q14 -14 14 -34t-14.5 -33.5t-34.5 -13.5h-275v-176h177q63 0 111.5 -24.5t75.5 -68.5t27 -101t-27 -101.5t-75.5 -69t-111.5 -24.5h-228q-23 0 -39 15.5t-16 39.5v550q0 24 16 39.5t39 15.5h326q21 0 35 -14zM189 298v-205h168q54 0 85 27t31 75t-31 75.5
t-85 27.5h-168z" />
    <glyph glyph-name="uni0412" unicode="&#x412;" horiz-adv-x="618" 
d="M547.5 297q32.5 -44 32.5 -105q0 -56 -27 -100t-75.5 -68t-111.5 -24h-228q-24 0 -39.5 15.5t-15.5 39.5v550q0 24 15.5 39.5t39.5 15.5h176q58 0 103 -22t70 -62t25 -92q0 -38 -14 -69.5t-41 -54.5q58 -19 90.5 -63zM187 567v-178h117q47 0 74 23.5t27 66.5
q0 42 -26.5 65t-74.5 23h-117zM441.5 120q30.5 27 30.5 75t-30.5 75.5t-84.5 27.5h-170v-205h170q54 0 84.5 27z" />
    <glyph glyph-name="uni0413" unicode="&#x413;" horiz-adv-x="516" 
d="M484 646q14 -14 14 -34t-14 -33.5t-35 -13.5h-260v-522q0 -23 -15 -38.5t-38 -15.5t-38 15.5t-15 38.5v562q0 24 16 39.5t39 15.5h311q21 0 35 -14z" />
    <glyph glyph-name="uni0403" unicode="&#x403;" horiz-adv-x="516" 
d="M484 646q14 -14 14 -34t-14 -33.5t-35 -13.5h-260v-522q0 -23 -15 -38.5t-38 -15.5t-38 15.5t-15 38.5v562q0 24 16 39.5t39 15.5h311q21 0 35 -14zM254.5 738q-11.5 14 -11.5 32q0 10 5 22l58 112q15 28 48 28q22 0 37 -16t15 -37q0 -17 -10 -31l-67 -102
q-8 -12 -19.5 -17.5t-22.5 -5.5q-21 1 -32.5 15z" />
    <glyph glyph-name="uni0490" unicode="&#x490;" horiz-adv-x="494" 
d="M455 776.5q15 -15.5 15 -38.5v-119q0 -23 -16 -38.5t-39 -15.5h-226v-522q0 -23 -15 -38.5t-38 -15.5t-38 15.5t-15 38.5v562q0 24 16 39.5t39 15.5h226v78q0 23 15 38.5t38 15.5t38 -15.5z" />
    <glyph glyph-name="uni0414" unicode="&#x414;" horiz-adv-x="709" 
d="M663.5 79.5q15.5 -15.5 15.5 -38.5v-139q0 -23 -15 -38.5t-38 -15.5t-38 15.5t-15 38.5v98h-445v-98q0 -23 -15 -38.5t-38 -15.5t-38 15.5t-15 38.5v139q0 23 16 38.5t39 15.5h2q68 67 100 181.5t32 289.5v39q0 24 15.5 39.5t39.5 15.5h275q23 0 39 -15.5t16 -39.5v-510
h29q23 0 38.5 -15.5zM281 281q-29 -114 -89 -186h298v470h-178q-2 -170 -31 -284z" />
    <glyph glyph-name="uni0415" unicode="&#x415;" horiz-adv-x="569" 
d="M97.5 14.5q-14.5 14.5 -14.5 36.5v558q0 22 14.5 36.5t36.5 14.5h339q21 0 35 -14t14 -34t-14 -33.5t-35 -13.5h-284v-169h205q20 0 33.5 -13t13.5 -33t-13.5 -33t-33.5 -13h-205v-209h296q21 0 35 -13.5t14 -33.5t-14 -34t-35 -14h-351q-22 0 -36.5 14.5z" />
    <glyph glyph-name="uni0400" unicode="&#x400;" horiz-adv-x="569" 
d="M97.5 14.5q-14.5 14.5 -14.5 36.5v558q0 22 14.5 36.5t36.5 14.5h339q21 0 35 -14t14 -34t-14 -33.5t-35 -13.5h-284v-169h205q20 0 33.5 -13t13.5 -33t-13.5 -33t-33.5 -13h-205v-209h296q21 0 35 -13.5t14 -33.5t-14 -34t-35 -14h-351q-22 0 -36.5 14.5zM261.5 728.5
q-11.5 5.5 -19.5 17.5l-67 102q-10 14 -10 31q0 21 15.5 37t36.5 16q33 0 48 -28l58 -112q5 -12 5 -22q0 -18 -11.5 -32t-32.5 -15q-11 0 -22.5 5.5z" />
    <glyph glyph-name="uni0401" unicode="&#x401;" horiz-adv-x="569" 
d="M97.5 14.5q-14.5 14.5 -14.5 36.5v558q0 22 14.5 36.5t36.5 14.5h339q21 0 35 -14t14 -34t-14 -33.5t-35 -13.5h-284v-169h205q20 0 33.5 -13t13.5 -33t-13.5 -33t-33.5 -13h-205v-209h296q21 0 35 -13.5t14 -33.5t-14 -34t-35 -14h-351q-22 0 -36.5 14.5zM128.5 766.5
q-20.5 19.5 -20.5 45.5q0 27 20.5 46t47.5 19q28 0 47.5 -18.5t19.5 -46.5q0 -26 -19.5 -45.5t-47.5 -19.5q-27 0 -47.5 19.5zM373.5 765.5q-20.5 19.5 -20.5 45.5q0 27 20.5 46.5t46.5 19.5q29 0 48.5 -19t19.5 -47q0 -26 -20 -45.5t-48 -19.5q-26 0 -46.5 19.5z" />
    <glyph glyph-name="uni0416" unicode="&#x416;" horiz-adv-x="989" 
d="M399 391q18 -19 18 -39q0 -21 -17 -39l-263 -298q-25 -26 -48 -26q-20 0 -34.5 15t-14.5 35q0 19 11 31l251 282l-223 235q-14 15 -14 35q0 21 13.5 35t33.5 14q13 0 22 -4.5t19 -14.5zM533 655.5q15 -15.5 15 -38.5v-574q0 -23 -15 -38.5t-38 -15.5t-38 15.5t-15 38.5
v574q0 23 15 38.5t38 15.5t38 -15.5zM950 39q0 -20 -14.5 -35t-34.5 -15q-24 0 -47 26l-265 298q-17 20 -17 39q0 20 18 39l247 261q10 10 19 14.5t22 4.5q20 0 34 -14t14 -35q0 -18 -15 -35l-223 -236l251 -281q11 -12 11 -31z" />
    <glyph glyph-name="uni0417" unicode="&#x417;" horiz-adv-x="585" 
d="M514 290q28 -42 28 -97q0 -58 -31.5 -104.5t-87 -73t-125.5 -26.5t-130 28.5t-99 80.5q-13 17 -13 33q0 20 15 34t35 14t37 -18q66 -75 154 -75q61 0 99.5 31.5t38.5 80.5q0 45 -32 72.5t-83 27.5h-92q-20 0 -33.5 13t-13.5 33q0 19 13.5 32t33.5 13h66q46 0 73 24.5
t27 65.5q0 43 -29.5 69t-77.5 26q-37 0 -69.5 -15t-58.5 -44q-16 -18 -37 -18q-20 0 -34.5 14t-14.5 34q0 17 14 34q34 43 87.5 67.5t112.5 24.5q61 0 109.5 -24t76.5 -66.5t28 -94.5q0 -41 -17 -74.5t-48 -57.5q50 -22 78 -64z" />
    <glyph glyph-name="uni0418" unicode="&#x418;" horiz-adv-x="720" 
d="M622 656q15 -15 15 -37v-576q0 -23 -15 -38.5t-38 -15.5t-38 15.5t-15 38.5v427l-352 -459q-16 -22 -43 -22q-22 0 -37.5 15t-15.5 37v576q0 23 15 38.5t38 15.5t38 -15.5t15 -38.5v-430l349 457q10 14 20.5 20.5t26.5 6.5q22 0 37 -15z" />
    <glyph glyph-name="uni0419" unicode="&#x419;" horiz-adv-x="720" 
d="M622 656q15 -15 15 -37v-576q0 -23 -15 -38.5t-38 -15.5t-38 15.5t-15 38.5v427l-352 -459q-16 -22 -43 -22q-22 0 -37.5 15t-15.5 37v576q0 23 15 38.5t38 15.5t38 -15.5t15 -38.5v-430l349 457q10 14 20.5 20.5t26.5 6.5q22 0 37 -15zM273.5 747.5q-36.5 18.5 -59 49
t-22.5 65.5q0 18 12 30.5t30 12.5q28 0 41 -35q9 -29 29 -45t47 -16q28 0 48.5 16t28.5 45q12 35 40 35q18 0 30 -12.5t12 -30.5q0 -34 -22 -65t-59 -49.5t-78 -18.5t-77.5 18.5z" />
    <glyph glyph-name="uni040D" unicode="&#x40d;" horiz-adv-x="720" 
d="M622 656q15 -15 15 -37v-576q0 -23 -15 -38.5t-38 -15.5t-38 15.5t-15 38.5v427l-352 -459q-16 -22 -43 -22q-22 0 -37.5 15t-15.5 37v576q0 23 15 38.5t38 15.5t38 -15.5t15 -38.5v-430l349 457q10 14 20.5 20.5t26.5 6.5q22 0 37 -15zM313.5 728.5
q-11.5 5.5 -19.5 17.5l-67 102q-10 14 -10 31q0 21 15.5 37t36.5 16q33 0 48 -28l58 -112q5 -12 5 -22q0 -18 -11.5 -32t-32.5 -15q-11 0 -22.5 5.5z" />
    <glyph glyph-name="uni041A" unicode="&#x41a;" horiz-adv-x="645" 
d="M174 655.5q15 -15.5 15 -38.5v-574q0 -23 -15 -38.5t-38 -15.5t-38 15.5t-15 38.5v574q0 23 15 38.5t38 15.5t38 -15.5zM604 38q0 -20 -14.5 -34.5t-34.5 -14.5q-23 0 -43 21l-283 306q-16 18 -16 36q0 17 16 35l263 265q19 19 39 19t34 -14t14 -34t-18 -39l-231 -232
l257 -279q17 -17 17 -35z" />
    <glyph glyph-name="uni040C" unicode="&#x40c;" horiz-adv-x="645" 
d="M174 655.5q15 -15.5 15 -38.5v-574q0 -23 -15 -38.5t-38 -15.5t-38 15.5t-15 38.5v574q0 23 15 38.5t38 15.5t38 -15.5zM604 38q0 -20 -14.5 -34.5t-34.5 -14.5q-23 0 -43 21l-283 306q-16 18 -16 36q0 17 16 35l263 265q19 19 39 19t34 -14t14 -34t-18 -39l-231 -232
l257 -279q17 -17 17 -35zM308.5 738q-11.5 14 -11.5 32q0 10 5 22l58 112q15 28 48 28q22 0 37 -16t15 -37q0 -17 -10 -31l-67 -102q-8 -12 -19.5 -17.5t-22.5 -5.5q-21 1 -32.5 15z" />
    <glyph glyph-name="uni041B" unicode="&#x41b;" horiz-adv-x="654" 
d="M555.5 644.5q15.5 -15.5 15.5 -39.5v-562q0 -23 -15 -38.5t-38 -15.5t-38 15.5t-15 38.5v522h-194q-3 -485 -192 -560q-25 -13 -45 -13t-34 13.5t-14 33.5q0 17 9.5 29.5t26.5 18.5q74 26 109.5 139t35.5 326v53q0 24 16 39.5t39 15.5h295q23 0 38.5 -15.5z" />
    <glyph glyph-name="uni041C" unicode="&#x41c;" horiz-adv-x="792" 
d="M694.5 655.5q14.5 -15.5 14.5 -38.5v-574q0 -23 -15 -38.5t-38 -15.5t-38 15.5t-15 38.5v402l-154 -242q-12 -19 -24.5 -27t-28.5 -8q-17 0 -29.5 8t-23.5 27l-154 242v-402q0 -23 -15 -38.5t-38 -15.5t-38 15.5t-15 38.5v574q0 23 14.5 38.5t36.5 15.5q18 0 30.5 -9.5
t27.5 -33.5l204 -320l204 320q15 24 27.5 33.5t30.5 9.5q22 0 36.5 -15.5z" />
    <glyph glyph-name="uni041D" unicode="&#x41d;" horiz-adv-x="710" 
d="M98 4.5q-15 15.5 -15 38.5v574q0 23 15 38.5t38 15.5t38 -15.5t15 -38.5v-220h332v220q0 23 15 38.5t38 15.5t38 -15.5t15 -38.5v-574q0 -23 -15 -38.5t-38 -15.5t-38 15.5t-15 38.5v259h-332v-259q0 -23 -15 -38.5t-38 -15.5t-38 15.5z" />
    <glyph glyph-name="uni041E" unicode="&#x41e;" horiz-adv-x="780" 
d="M564 625.5q80 -45.5 126 -123.5t46 -172t-46 -172t-125.5 -123.5t-175.5 -45.5t-175 45.5t-125 123.5t-46 172t46 172t125 123.5t175 45.5q95 0 175 -45.5zM268 542.5q-54 -31.5 -84.5 -87t-30.5 -124.5q0 -70 30.5 -126t84.5 -87.5t122 -31.5q67 0 121 32t85 87.5
t31 125.5q0 69 -31 124.5t-85 87t-121 31.5q-68 0 -122 -31.5z" />
    <glyph glyph-name="uni041F" unicode="&#x41f;" horiz-adv-x="686" 
d="M98 4.5q-15 15.5 -15 38.5v562q0 24 15.5 39.5t39.5 15.5h410q23 0 39 -15.5t16 -39.5v-562q0 -23 -15 -38.5t-38 -15.5t-38 15.5t-15 38.5v522h-308v-522q0 -23 -15 -38.5t-38 -15.5t-38 15.5z" />
    <glyph glyph-name="uni0420" unicode="&#x420;" horiz-adv-x="583" 
d="M98 4.5q-15 15.5 -15 38.5v562q0 24 15.5 39.5t39.5 15.5h185q66 0 117 -25t79 -71t28 -106q0 -59 -28 -105.5t-79 -72t-117 -25.5h-134v-212q0 -23 -15 -38.5t-38 -15.5t-38 15.5zM322 349q54 0 85 29t31 79t-31 79.5t-85 29.5h-133v-217h133z" />
    <glyph glyph-name="uni0421" unicode="&#x421;" horiz-adv-x="717" 
d="M214.5 34q-79.5 45 -125.5 123t-46 173t46 173t125.5 123t175.5 45q76 0 144 -30.5t113 -84.5q17 -23 17 -42q0 -20 -14.5 -34t-34.5 -14q-24 0 -42 21q-72 87 -182 87q-68 0 -122 -31.5t-85 -87.5t-31 -125t31 -125t85 -87.5t122 -31.5q108 0 181 87q18 21 43 21
q20 0 34.5 -14t14.5 -34q0 -18 -18 -42q-44 -54 -111.5 -84.5t-144.5 -30.5q-96 0 -175.5 45z" />
    <glyph glyph-name="uni0422" unicode="&#x422;" horiz-adv-x="583" 
d="M253 4.5q-15 15.5 -15 38.5v522h-178q-21 0 -35 13.5t-14 33.5t14 34t35 14h463q21 0 35 -14t14 -34t-14 -33.5t-35 -13.5h-179v-522q0 -23 -15 -38.5t-38 -15.5t-38 15.5z" />
    <glyph glyph-name="uni0423" unicode="&#x423;" horiz-adv-x="620" 
d="M569 647q16 -16 16 -39q0 -13 -8 -28l-208 -450q-34 -71 -85 -106t-124 -35q-38 0 -63 9q-15 5 -23.5 16.5t-8.5 27.5q0 20 14 33.5t36 13.5l29 -1q47 0 74.5 16.5t46.5 55.5l1 3l-210 417q-8 13 -8 29q0 22 16 38t38 16q33 0 51 -33l171 -353l156 353q7 16 20.5 24.5
t30.5 8.5q22 0 38 -16z" />
    <glyph glyph-name="uni040E" unicode="&#x40e;" horiz-adv-x="620" 
d="M569 647q16 -16 16 -39q0 -13 -8 -28l-208 -450q-34 -71 -85 -106t-124 -35q-38 0 -63 9q-15 5 -23.5 16.5t-8.5 27.5q0 20 14 33.5t36 13.5l29 -1q47 0 74.5 16.5t46.5 55.5l1 3l-210 417q-8 13 -8 29q0 22 16 38t38 16q33 0 51 -33l171 -353l156 353q7 16 20.5 24.5
t30.5 8.5q22 0 38 -16zM225.5 747.5q-36.5 18.5 -59 49t-22.5 65.5q0 18 12 30.5t30 12.5q28 0 41 -35q9 -29 29 -45t47 -16q28 0 48.5 16t28.5 45q12 35 40 35q18 0 30 -12.5t12 -30.5q0 -34 -22 -65t-59 -49.5t-78 -18.5t-77.5 18.5z" />
    <glyph glyph-name="uni0424" unicode="&#x424;" horiz-adv-x="817" 
d="M735 190.5q-39 -62.5 -109.5 -97.5t-164.5 -35v-52q0 -23 -15 -38.5t-38 -15.5t-38 15.5t-15 38.5v52q-93 1 -163.5 35.5t-109.5 97t-39 144.5t38.5 143.5t109 95.5t164.5 35v45q0 23 15.5 39t37.5 16q23 0 38 -16t15 -39v-45q94 0 164.5 -34.5t109.5 -96t39 -143.5
t-39 -144.5zM204.5 200q54.5 -48 150.5 -49v365q-96 -1 -150.5 -50t-54.5 -134q0 -84 54.5 -132zM612 199q55 48 55 133q0 86 -55 135t-151 49v-365q96 0 151 48z" />
    <glyph glyph-name="uni0425" unicode="&#x425;" horiz-adv-x="606" 
d="M565 40q0 -21 -15 -36t-37 -15q-26 0 -42 22l-168 238l-168 -238q-14 -22 -42 -22q-22 0 -37 15t-15 36q0 19 15 38l185 260l-170 244q-15 21 -15 39q0 21 15 35.5t37 14.5q27 0 43 -22l152 -223l155 223q16 22 43 22q22 0 36.5 -14.5t14.5 -35.5q0 -20 -15 -40
l-171 -243l185 -261q14 -21 14 -37z" />
    <glyph glyph-name="uni0427" unicode="&#x427;" horiz-adv-x="633" 
d="M535 655.5q15 -15.5 15 -38.5v-574q0 -23 -15 -38.5t-38 -15.5t-38 15.5t-15 38.5v198q-62 -20 -128 -20q-83 0 -145 32.5t-95 92.5t-33 141v130q0 23 15 38.5t38 15.5t38 -15.5t15 -38.5v-121q0 -83 45.5 -130t125.5 -47q62 0 124 24v274q0 23 15 38.5t38 15.5t38 -15.5
z" />
    <glyph glyph-name="uni0426" unicode="&#x426;" horiz-adv-x="711" 
d="M583 655.5q15 -15.5 15 -38.5v-522h29q23 0 39 -15.5t16 -38.5v-139q0 -23 -15 -38.5t-38 -15.5t-38 15.5t-15 38.5v98h-438q-23 0 -39 15.5t-16 39.5v562q0 23 15 38.5t38 15.5t38 -15.5t15 -38.5v-522h303v522q0 23 15 38.5t38 15.5t38 -15.5z" />
    <glyph glyph-name="uni0428" unicode="&#x428;" horiz-adv-x="1030" 
d="M932 655.5q15 -15.5 15 -38.5v-562q0 -24 -16 -39.5t-39 -15.5h-754q-23 0 -39 15.5t-16 39.5v562q0 23 15 38.5t38 15.5t38 -15.5t15 -38.5v-522h273v522q0 23 15 38.5t38 15.5t38 -15.5t15 -38.5v-522h273v522q0 23 15 38.5t38 15.5t38 -15.5z" />
    <glyph glyph-name="uni0429" unicode="&#x429;" horiz-adv-x="1060" 
d="M932 655.5q15 -15.5 15 -38.5v-522h29q23 0 39 -15.5t16 -38.5v-139q0 -23 -15 -38.5t-38 -15.5t-38 15.5t-15 38.5v98h-787q-23 0 -39 15.5t-16 39.5v562q0 23 15 38.5t38 15.5t38 -15.5t15 -38.5v-522h273v522q0 23 15 38.5t38 15.5t38 -15.5t15 -38.5v-522h273v522
q0 23 15 38.5t38 15.5t38 -15.5z" />
    <glyph glyph-name="uni040F" unicode="&#x40f;" horiz-adv-x="686" 
d="M588 655.5q15 -15.5 15 -38.5v-562q0 -24 -15.5 -39.5t-39.5 -15.5h-152v-98q0 -23 -15 -38.5t-38 -15.5t-38 15.5t-15 38.5v98h-152q-23 0 -39 15.5t-16 39.5v562q0 23 15 38.5t38 15.5t38 -15.5t15 -38.5v-522h308v522q0 23 15 38.5t38 15.5t38 -15.5z" />
    <glyph glyph-name="uni042C" unicode="&#x42c;" horiz-adv-x="624" 
d="M174 655.5q15 -15.5 15 -38.5v-201h160q69 0 121.5 -26.5t81 -74t28.5 -107.5q0 -61 -28.5 -108t-81 -73.5t-121.5 -26.5h-211q-23 0 -39 15.5t-16 39.5v562q0 23 15 38.5t38 15.5t38 -15.5zM189 322v-228h160q58 0 90 31.5t32 82.5t-32 82.5t-90 31.5h-160z" />
    <glyph glyph-name="uni042A" unicode="&#x42a;" horiz-adv-x="643" 
d="M118 15.5q-16 15.5 -16 39.5v510h-69q-21 0 -35 13.5t-14 33.5t14 34t35 14h120q24 0 39.5 -15.5t15.5 -39.5v-189h159q68 0 120.5 -26t81.5 -73.5t29 -108.5q0 -62 -28.5 -109t-81 -73t-121.5 -26h-210q-23 0 -39 15.5zM367 94q56 0 89 31t33 83q0 53 -33 83.5t-89 30.5
h-159v-228h159z" />
    <glyph glyph-name="uni042B" unicode="&#x42b;" horiz-adv-x="896" 
d="M174 655.5q15 -15.5 15 -38.5v-201h160q69 0 121.5 -26.5t81 -74t28.5 -107.5q0 -61 -28.5 -108t-81 -73.5t-121.5 -26.5h-211q-23 0 -39 15.5t-16 39.5v562q0 23 15 38.5t38 15.5t38 -15.5zM189 322v-228h160q58 0 90 31.5t32 82.5t-32 82.5t-90 31.5h-160zM722 4.5
q-15 15.5 -15 38.5v574q0 23 15 38.5t38 15.5t38 -15.5t15 -38.5v-574q0 -23 -15 -38.5t-38 -15.5t-38 15.5z" />
    <glyph glyph-name="uni0409" unicode="&#x409;" horiz-adv-x="1006" 
d="M851 390q52 -26 81 -73.5t29 -108.5q0 -62 -28.5 -109t-81 -73t-120.5 -26h-211q-23 0 -39 15.5t-16 39.5v510h-194q-3 -485 -192 -560q-25 -13 -45 -13t-34 13.5t-14 33.5q0 17 9.5 29.5t26.5 18.5q74 25 109.5 138.5t35.5 326.5v53q0 24 16 39.5t39 15.5h295
q23 0 38.5 -15.5t15.5 -39.5v-189h160q68 0 120 -26zM819 125q33 31 33 83q0 53 -33 83.5t-89 30.5h-159v-228h159q56 0 89 31z" />
    <glyph glyph-name="uni040A" unicode="&#x40a;" horiz-adv-x="1048" 
d="M98 4.5q-15 15.5 -15 38.5v574q0 23 15 38.5t38 15.5t38 -15.5t15 -38.5v-217h318v217q0 23 15 38.5t38 15.5t38 -15.5t15 -38.5v-207h159q68 0 120.5 -26t81.5 -72.5t29 -106.5q0 -61 -29 -107.5t-81.5 -72t-120.5 -25.5h-210q-24 0 -39.5 15.5t-15.5 39.5v249h-318
v-261q0 -23 -15 -38.5t-38 -15.5t-38 15.5zM772 94q56 0 89 30t33 80q0 51 -33 81.5t-89 30.5h-159v-222h159z" />
    <glyph glyph-name="uni0405" unicode="&#x405;" horiz-adv-x="559" 
d="M163.5 16.5q-59.5 27.5 -97.5 73.5q-16 18 -16 37q0 21 14.5 34.5t34.5 13.5q19 0 32 -14q29 -35 68 -56t85 -21q52 0 83 25t31 67q0 32 -20.5 52.5t-76.5 46.5l-73 34q-80 37 -117 80.5t-37 102.5q0 52 27.5 92.5t75.5 63.5t108 23q59 0 104.5 -21.5t76.5 -56.5
q16 -17 16 -38q0 -19 -15 -33t-34 -14q-16 0 -32 14q-54 54 -119 54q-45 0 -72.5 -21.5t-27.5 -58.5q0 -30 18.5 -49t73.5 -45l74 -34q84 -39 121 -82.5t37 -105.5q0 -57 -28.5 -100t-78.5 -67t-114 -24q-62 0 -121.5 27.5z" />
    <glyph glyph-name="uni0404" unicode="&#x404;" horiz-adv-x="717" 
d="M649.5 180q14.5 -14 14.5 -34q0 -18 -18 -42q-44 -54 -111.5 -84.5t-144.5 -30.5q-96 0 -175.5 45t-125.5 123t-46 173t46 173t125.5 123t175.5 45q76 0 144 -30.5t113 -84.5q17 -23 17 -42q0 -20 -14.5 -34t-34.5 -14q-24 0 -42 21q-72 87 -182 87q-85 0 -147.5 -49.5
t-82.5 -128.5h280q21 0 34 -13t13 -33t-13 -33t-34 -13h-287q6 -63 38 -112.5t84 -77.5t115 -28q108 0 181 87q18 21 43 21q20 0 34.5 -14z" />
    <glyph glyph-name="uni042D" unicode="&#x42d;" horiz-adv-x="717" 
d="M502.5 626q79.5 -45 125.5 -123t46 -173t-46 -173t-125.5 -123t-175.5 -45q-77 0 -144.5 30.5t-111.5 84.5q-18 24 -18 42q0 20 14.5 34t34.5 14q25 0 43 -21q73 -87 181 -87q63 0 115 28t84 77.5t38 112.5h-287q-20 0 -33.5 13t-13.5 33t13.5 33t33.5 13h280
q-20 79 -82.5 128.5t-147.5 49.5q-110 0 -182 -87q-18 -21 -42 -21q-20 0 -34.5 14t-14.5 34q0 19 17 42q45 54 113 84.5t144 30.5q96 0 175.5 -45z" />
    <glyph glyph-name="uni0406" unicode="&#x406;" horiz-adv-x="272" 
d="M174 655.5q15 -15.5 15 -38.5v-574q0 -23 -15 -38.5t-38 -15.5t-38 15.5t-15 38.5v574q0 23 15 38.5t38 15.5t38 -15.5z" />
    <glyph glyph-name="uni0407" unicode="&#x407;" horiz-adv-x="272" 
d="M174 655.5q15 -15.5 15 -38.5v-574q0 -23 -15 -38.5t-38 -15.5t-38 15.5t-15 38.5v574q0 23 15 38.5t38 15.5t38 -15.5zM-34.5 766.5q-20.5 19.5 -20.5 45.5q0 27 20.5 46t47.5 19q28 0 47.5 -18.5t19.5 -46.5q0 -26 -19.5 -45.5t-47.5 -19.5q-27 0 -47.5 19.5z
M210.5 765.5q-20.5 19.5 -20.5 45.5q0 27 20.5 46.5t46.5 19.5q29 0 48.5 -19t19.5 -47q0 -26 -20 -45.5t-48 -19.5q-26 0 -46.5 19.5z" />
    <glyph glyph-name="uni0408" unicode="&#x408;" horiz-adv-x="381" 
d="M45 -3q-15 5 -24.5 18t-9.5 29q0 20 14.5 34t36.5 14q9 0 27 -2q13 -3 31 -3q34 0 53 21.5t19 59.5v449q0 23 15 38.5t38 15.5t38 -15.5t15 -38.5v-453q0 -85 -48.5 -130t-140.5 -45q-41 0 -64 8z" />
    <glyph glyph-name="uni040B" unicode="&#x40b;" horiz-adv-x="794" 
d="M650 337.5q65 -70.5 65 -192.5v-102q0 -23 -15 -38.5t-38 -15.5t-38 15.5t-15 38.5v97q0 86 -36.5 128t-112.5 42q-57 0 -116 -19v-248q0 -23 -15 -38.5t-38 -15.5t-38 15.5t-15 38.5v522h-178q-21 0 -35 13.5t-14 33.5t14 34t35 14h463q21 0 35 -14t14 -34t-14 -33.5
t-35 -13.5h-179v-177q62 20 126 20q115 0 180 -70.5z" />
    <glyph glyph-name="uni042E" unicode="&#x42e;" horiz-adv-x="1067" 
d="M851.5 625.5q79.5 -45.5 125.5 -123.5t46 -172t-46 -172t-125.5 -123.5t-174.5 -45.5q-90 0 -165 41t-121.5 112.5t-53.5 159.5h-148v-259q0 -23 -15 -38.5t-38 -15.5t-38 15.5t-15 38.5v574q0 23 15 38.5t38 15.5t38 -15.5t15 -38.5v-220h153q15 79 62.5 141.5
t118.5 97.5t154 35q95 0 174.5 -45.5zM798.5 118q53.5 32 84.5 88t31 125t-31 124.5t-84.5 87t-120.5 31.5t-121 -31.5t-85 -87t-31 -124.5t31 -125t85 -88t121 -32t120.5 32z" />
    <glyph glyph-name="uni042F" unicode="&#x42f;" horiz-adv-x="627" 
d="M529 644.5q16 -15.5 16 -39.5v-562q0 -23 -15 -38.5t-38 -15.5t-38 15.5t-15 38.5v184h-121q-13 0 -33 2l-144 -217q-15 -23 -43 -23q-22 0 -37 15.5t-15 37.5q0 16 12 34l125 183q-50 28 -77.5 75.5t-27.5 109.5q0 64 30 113t84.5 76t125.5 27h172q23 0 39 -15.5z
M439 566h-122q-58 0 -94 -33.5t-36 -88.5t35.5 -89t94.5 -34h122v245z" />
    <glyph glyph-name="uni0402" unicode="&#x402;" horiz-adv-x="762" 
d="M253 4.5q-15 15.5 -15 39.5v521h-178q-21 0 -35 13.5t-14 33.5t14 34t35 14h463q21 0 35 -14t14 -34t-14 -33.5t-35 -13.5h-179v-156h138q70 0 123.5 -26t82.5 -74t29 -110q0 -68 -39 -119.5t-111 -77.5q-16 -6 -30 -9.5t-26 -3.5q-21 0 -36 15t-15 35q0 34 40 50
q108 30 108 115q0 50 -34 80.5t-92 30.5h-138v-271q0 -24 -15 -39.5t-38 -15.5t-38 15.5z" />
    <glyph glyph-name="uni0462" unicode="&#x462;" horiz-adv-x="624" 
d="M470.5 372q52.5 -25 81 -70t28.5 -104t-28.5 -104t-81 -69.5t-121.5 -24.5h-211q-23 0 -39 15.5t-16 39.5v436h-40q-20 0 -33 13t-13 32t13 31.5t33 12.5h40v51q0 24 15 40t38 16t38 -16t15 -39v-52h231q19 0 32 -12.5t13 -31.5t-13 -32t-32 -13h-231v-94h161
q68 0 120.5 -25zM438 122.5q33 28.5 33 75.5t-33 76t-88 29h-161v-209h161q55 0 88 28.5z" />
    <glyph glyph-name="uni0472" unicode="&#x472;" horiz-adv-x="780" 
d="M564 625.5q80 -45.5 126 -123.5t46 -172t-46 -172t-125.5 -123.5t-175.5 -45.5t-175 45.5t-125 123.5t-46 172t46 172t125 123.5t175 45.5q95 0 175 -45.5zM240.5 524q-62.5 -50 -80.5 -132q60 27 118 27q29 0 53.5 -5t59.5 -15q34 -10 59.5 -15t53.5 -5q57 0 113 24
q-21 77 -83 124t-145 47q-86 0 -148.5 -50zM506 115q52 29 84 80t36 115q-62 -28 -122 -28q-30 0 -56 5.5t-60 15.5q-36 10 -59.5 15t-50.5 5q-59 0 -123 -29q8 -61 40 -108t82.5 -73.5t111.5 -26.5q65 0 117 29z" />
    <glyph glyph-name="uni0474" unicode="&#x474;" horiz-adv-x="684" 
d="M681 657.5q17 -13.5 17 -36.5q0 -19 -12 -32t-33 -15q-2 -1 -6 -1q-24 -2 -40 -17t-30 -48l-200 -482q-15 -37 -49 -37q-17 0 -30 9.5t-20 27.5l-234 557q-10 22 -10 36q0 22 15.5 37t38.5 15q36 0 51 -37l189 -468l158 393q23 59 58 85.5t92 26.5q28 0 45 -13.5z" />
    <glyph glyph-name="uni0492" unicode="&#x492;" horiz-adv-x="505" 
d="M474 646q14 -14 14 -34t-14 -33.5t-35 -13.5h-243v-197h194q21 0 35 -14t14 -34t-14 -34t-35 -14h-194v-229q0 -23 -15 -38.5t-38 -15.5t-38 15.5t-15 38.5v229h-53q-20 0 -34 14t-14 34t14 34t34 14h53v237q0 24 16 39.5t39 15.5h294q21 0 35 -14z" />
    <glyph glyph-name="uni0496" unicode="&#x496;" horiz-adv-x="984" 
d="M399 391q18 -19 18 -39q0 -21 -17 -39l-263 -298q-25 -26 -48 -26q-20 0 -34.5 15t-14.5 35q0 19 11 31l251 282l-223 235q-14 15 -14 35q0 21 13.5 35t33.5 14q13 0 22 -4.5t19 -14.5zM533 655.5q15 -15.5 15 -38.5v-574q0 -23 -15 -38.5t-38 -15.5t-38 15.5t-15 38.5
v574q0 23 15 38.5t38 15.5t38 -15.5zM956.5 78.5q15.5 -15.5 15.5 -39.5v-137q0 -23 -14.5 -38.5t-37.5 -15.5t-38 15t-15 39v88q-20 4 -36 25l-244 300q-15 19 -15 38q0 20 16 36l256 265q9 10 18 13.5t21 3.5q20 0 34 -14.5t14 -34.5q0 -18 -15 -35l-230 -238l210 -255h22
q23 0 38.5 -15.5z" />
    <glyph glyph-name="uni0498" unicode="&#x498;" horiz-adv-x="585" 
d="M514 290q28 -42 28 -97q0 -58 -31.5 -104.5t-87 -73t-125.5 -26.5t-130 28.5t-99 80.5q-13 17 -13 33q0 20 15 34t35 14t37 -18q66 -75 154 -75q61 0 99.5 31.5t38.5 80.5q0 45 -32 72.5t-83 27.5h-92q-20 0 -33.5 13t-13.5 33q0 19 13.5 32t33.5 13h66q46 0 73 24.5
t27 65.5q0 43 -29.5 69t-77.5 26q-37 0 -69.5 -15t-58.5 -44q-16 -18 -37 -18q-20 0 -34.5 14t-14.5 34q0 17 14 34q34 43 87.5 67.5t112.5 24.5q61 0 109.5 -24t76.5 -66.5t28 -94.5q0 -41 -17 -74.5t-48 -57.5q50 -22 78 -64zM186 -183q-28 11 -28 36q0 16 11 27t27 11
q8 0 18.5 -1.5t20.5 -1.5q27 0 45.5 12.5t18.5 35.5q0 17 -6 30t-16 27q-3 4 -9.5 12.5t-10 15.5t-3.5 13q0 14 8.5 22t24.5 8q22 0 46 -21.5t40.5 -53t16.5 -59.5q0 -55 -40 -88t-105 -33q-41 0 -59 8z" />
    <glyph glyph-name="uni049A" unicode="&#x49a;" horiz-adv-x="651" 
d="M174 655.5q15 -15.5 15 -38.5v-574q0 -23 -15 -38.5t-38 -15.5t-38 15.5t-15 38.5v574q0 23 15 38.5t38 15.5t38 -15.5zM624.5 78.5q15.5 -15.5 15.5 -39.5v-137q0 -23 -15 -38.5t-37 -15.5q-23 0 -38 15t-15 39v87q-25 0 -42 21l-261 301q-17 21 -17 42q0 20 19 39
l260 260q9 12 18.5 15.5t20.5 3.5q20 0 34 -14.5t14 -34.5q0 -19 -15 -34l-236 -238l221 -256h34q24 0 39.5 -15.5z" />
    <glyph glyph-name="uni04A0" unicode="&#x4a0;" horiz-adv-x="676" 
d="M635 36q0 -20 -14.5 -34.5t-34.5 -14.5q-22 0 -42 21l-283 306q-16 18 -16 36q0 17 16 35l263 265q19 19 39 19t34 -14t14 -34t-18 -39l-231 -232l257 -279q16 -16 16 -35zM205 644.5q16 -15.5 16 -39.5v-562q0 -23 -15 -38.5t-38 -15.5t-38 15.5t-15 38.5v523h-72
q-21 0 -35 13.5t-14 33.5t14 33.5t35 13.5h123q23 0 39 -15.5z" />
    <glyph glyph-name="uni04A2" unicode="&#x4a2;" horiz-adv-x="740" 
d="M612 655.5q15 -15.5 15 -38.5v-522h29q24 0 39.5 -15.5t15.5 -38.5v-139q0 -23 -15 -38.5t-38 -15.5t-38 15.5t-15 38.5v98h-29q-23 0 -39 15.5t-16 39.5v247h-332v-259q0 -23 -15 -38.5t-38 -15.5t-38 15.5t-15 38.5v574q0 23 15 38.5t38 15.5t38 -15.5t15 -38.5v-220
h332v220q0 23 15 38.5t38 15.5t38 -15.5z" />
    <glyph glyph-name="uni04AA" unicode="&#x4aa;" horiz-adv-x="717" 
d="M214.5 34q-79.5 45 -125.5 123t-46 173t46 173t125.5 123t175.5 45q76 0 144 -30.5t113 -84.5q17 -23 17 -42q0 -20 -14.5 -34t-34.5 -14q-24 0 -42 21q-72 87 -182 87q-68 0 -122 -31.5t-85 -87.5t-31 -125t31 -125t85 -87.5t122 -31.5q108 0 181 87q18 21 43 21
q20 0 34.5 -14t14.5 -34q0 -18 -18 -42q-44 -54 -111.5 -84.5t-144.5 -30.5q-96 0 -175.5 45zM282 -183q-28 11 -28 36q0 16 11 27t27 11q8 0 18.5 -1.5t20.5 -1.5q27 0 45.5 12.5t18.5 35.5q0 17 -6 30t-16 27q-3 4 -9.5 12.5t-10 15.5t-3.5 13q0 14 8.5 22t24.5 8
q22 0 46 -21.5t40.5 -53t16.5 -59.5q0 -55 -40 -88t-105 -33q-41 0 -59 8z" />
    <glyph glyph-name="uni04AE" unicode="&#x4ae;" horiz-adv-x="621" 
d="M566 583l-203 -330v-210q0 -23 -15 -38.5t-38 -15.5t-38 15.5t-15 38.5v212l-202 328q-12 20 -12 38q0 22 15 36t37 14q18 0 29.5 -7t21.5 -24l164 -278l165 278q10 16 22 23.5t29 7.5q22 0 37 -14.5t15 -36.5q0 -18 -12 -37z" />
    <glyph glyph-name="uni04B0" unicode="&#x4b0;" horiz-adv-x="633" 
d="M570 588l-190 -305h137q20 0 34 -14t14 -34t-14 -33.5t-34 -13.5h-147v-145q0 -23 -15 -38.5t-38 -15.5t-38 15.5t-15 38.5v145h-147q-20 0 -34 13.5t-14 33.5t14 34t34 14h136l-190 305q-9 14 -9 32q0 22 15 36.5t36 14.5q33 0 52 -32l160 -270l159 270q19 32 52 32
q22 0 37 -15t15 -36q0 -16 -10 -32z" />
    <glyph glyph-name="uni04B2" unicode="&#x4b2;" horiz-adv-x="609" 
d="M596.5 78.5q15.5 -15.5 15.5 -39.5v-137q0 -23 -14.5 -38.5t-37.5 -15.5t-38 15t-15 39l1 87q-24 3 -37 22l-168 238l-168 -238q-14 -22 -42 -22q-22 0 -37 15t-15 36q0 19 15 38l185 260l-170 244q-15 21 -15 39q0 21 15 35.5t37 14.5q27 0 43 -22l152 -223l155 223
q16 22 43 22q22 0 36.5 -14.5t14.5 -35.5q0 -20 -15 -40l-171 -243l173 -244h19q23 0 38.5 -15.5z" />
    <glyph glyph-name="uni04B6" unicode="&#x4b6;" horiz-adv-x="663" 
d="M618.5 79.5q15.5 -15.5 15.5 -38.5v-139q0 -23 -15 -38.5t-38 -15.5t-38 15.5t-15 38.5v98h-29q-23 0 -39 15.5t-16 39.5v186q-63 -20 -128 -20q-80 0 -142 31t-96.5 90.5t-34.5 144.5v130q0 23 15 38.5t38 15.5t38 -15.5t15 -38.5v-121q0 -86 46.5 -131.5t124.5 -45.5
q60 0 124 24v274q0 23 15 38.5t38 15.5t38 -15.5t15 -38.5v-522h29q24 0 39.5 -15.5z" />
    <glyph glyph-name="uni04BA" unicode="&#x4ba;" horiz-adv-x="634" 
d="M490.5 359q65.5 -70 65.5 -194v-122q0 -23 -15 -38.5t-38 -15.5t-38 15.5t-15 38.5v119q0 85 -37 127t-113 42q-54 0 -111 -19v-269q0 -23 -15 -38.5t-38 -15.5t-38 15.5t-15 38.5v574q0 23 15 38.5t38 15.5t38 -15.5t15 -38.5v-208q60 20 121 20q115 0 180.5 -70z" />
    <glyph glyph-name="uni04C0" unicode="&#x4c0;" horiz-adv-x="272" 
d="M174 655.5q15 -15.5 15 -38.5v-574q0 -23 -15 -38.5t-38 -15.5t-38 15.5t-15 38.5v574q0 23 15 38.5t38 15.5t38 -15.5z" />
    <glyph glyph-name="uni04C1" unicode="&#x4c1;" horiz-adv-x="989" 
d="M399 391q18 -19 18 -39q0 -21 -17 -39l-263 -298q-25 -26 -48 -26q-20 0 -34.5 15t-14.5 35q0 19 11 31l251 282l-223 235q-14 15 -14 35q0 21 13.5 35t33.5 14q13 0 22 -4.5t19 -14.5zM533 655.5q15 -15.5 15 -38.5v-574q0 -23 -15 -38.5t-38 -15.5t-38 15.5t-15 38.5
v574q0 23 15 38.5t38 15.5t38 -15.5zM950 39q0 -20 -14.5 -35t-34.5 -15q-24 0 -47 26l-265 298q-17 20 -17 39q0 20 18 39l247 261q10 10 19 14.5t22 4.5q20 0 34 -14t14 -35q0 -18 -15 -35l-223 -236l251 -281q11 -12 11 -31zM417.5 747.5q-36.5 18.5 -59 49t-22.5 65.5
q0 18 12 30.5t30 12.5q28 0 41 -35q9 -29 29 -45t47 -16q28 0 48.5 16t28.5 45q12 35 40 35q18 0 30 -12.5t12 -30.5q0 -34 -22 -65t-59 -49.5t-78 -18.5t-77.5 18.5z" />
    <glyph glyph-name="uni04D0" unicode="&#x4d0;" horiz-adv-x="663" 
d="M629 40q0 -21 -15 -36t-37 -15q-35 0 -50 37l-41 93h-311l-39 -93q-14 -37 -50 -37q-22 0 -37 15t-15 36q0 14 8 30l239 565q15 36 50 36q36 0 51 -36l239 -565q8 -19 8 -30zM212 209h236l-117 307zM253.5 747.5q-36.5 18.5 -59 49t-22.5 65.5q0 18 12 30.5t30 12.5
q28 0 41 -35q9 -29 29 -45t47 -16q28 0 48.5 16t28.5 45q12 35 40 35q18 0 30 -12.5t12 -30.5q0 -34 -22 -65t-59 -49.5t-78 -18.5t-77.5 18.5z" />
    <glyph glyph-name="uni04D6" unicode="&#x4d6;" horiz-adv-x="569" 
d="M97.5 14.5q-14.5 14.5 -14.5 36.5v558q0 22 14.5 36.5t36.5 14.5h339q21 0 35 -14t14 -34t-14 -33.5t-35 -13.5h-284v-169h205q20 0 33.5 -13t13.5 -33t-13.5 -33t-33.5 -13h-205v-209h296q21 0 35 -13.5t14 -33.5t-14 -34t-35 -14h-351q-22 0 -36.5 14.5zM207.5 747.5
q-36.5 18.5 -59 49t-22.5 65.5q0 18 12 30.5t30 12.5q28 0 41 -35q9 -29 29 -45t47 -16q28 0 48.5 16t28.5 45q12 35 40 35q18 0 30 -12.5t12 -30.5q0 -34 -22 -65t-59 -49.5t-78 -18.5t-77.5 18.5z" />
    <glyph glyph-name="uni04D8" unicode="&#x4d8;" horiz-adv-x="732" 
d="M521.5 626q77.5 -45 122 -122.5t44.5 -171.5t-45.5 -173t-123.5 -124.5t-172 -45.5q-86 0 -155.5 38.5t-109 106.5t-39.5 152q0 16 2 28q2 22 15.5 36.5t33.5 14.5h484q-7 60 -38 108t-80 74.5t-109 26.5q-54 0 -102 -22t-82 -63q-12 -14 -22 -20t-23 -6
q-20 0 -33.5 13.5t-13.5 33.5q0 17 18 38q49 60 115 91.5t143 31.5q93 0 170.5 -45zM495.5 137.5q61.5 51.5 78.5 134.5h-427q0 -53 26 -95.5t72 -66.5t105 -24q84 0 145.5 51.5z" />
    <glyph glyph-name="uni04E2" unicode="&#x4e2;" horiz-adv-x="720" 
d="M622 656q15 -15 15 -37v-576q0 -23 -15 -38.5t-38 -15.5t-38 15.5t-15 38.5v427l-352 -459q-16 -22 -43 -22q-22 0 -37.5 15t-15.5 37v576q0 23 15 38.5t38 15.5t38 -15.5t15 -38.5v-430l349 457q10 14 20.5 20.5t26.5 6.5q22 0 37 -15zM498.5 836q12.5 -12 12.5 -30
t-12.5 -30.5t-30.5 -12.5h-233q-19 0 -31.5 12.5t-12.5 30.5t12.5 30t31.5 12h233q18 0 30.5 -12z" />
    <glyph glyph-name="uni04E6" unicode="&#x4e6;" horiz-adv-x="780" 
d="M564 625.5q80 -45.5 126 -123.5t46 -172t-46 -172t-125.5 -123.5t-175.5 -45.5t-175 45.5t-125 123.5t-46 172t46 172t125 123.5t175 45.5q95 0 175 -45.5zM268 542.5q-54 -31.5 -84.5 -87t-30.5 -124.5q0 -70 30.5 -126t84.5 -87.5t122 -31.5q67 0 121 32t85 87.5
t31 125.5q0 69 -31 124.5t-85 87t-121 31.5q-68 0 -122 -31.5zM219.5 766.5q-20.5 19.5 -20.5 45.5q0 27 20.5 46t47.5 19q28 0 47.5 -18.5t19.5 -46.5q0 -26 -19.5 -45.5t-47.5 -19.5q-27 0 -47.5 19.5zM464.5 765.5q-20.5 19.5 -20.5 45.5q0 27 20.5 46.5t46.5 19.5
q29 0 48.5 -19t19.5 -47q0 -26 -20 -45.5t-48 -19.5q-26 0 -46.5 19.5z" />
    <glyph glyph-name="uni04E8" unicode="&#x4e8;" horiz-adv-x="780" 
d="M564 625.5q80 -45.5 126 -123.5t46 -172t-46 -172t-125.5 -123.5t-175.5 -45.5t-175 45.5t-125 123.5t-46 172t46 172t125 123.5t175 45.5q95 0 175 -45.5zM242 525q-62 -49 -81 -129h458q-20 80 -82 129t-147 49q-86 0 -148 -49zM504.5 114q51.5 28 83.5 77.5t38 112.5
h-472q6 -63 38 -113t83.5 -77.5t114.5 -27.5t114.5 28z" />
    <glyph glyph-name="uni04EE" unicode="&#x4ee;" horiz-adv-x="620" 
d="M569 647q16 -16 16 -39q0 -13 -8 -28l-208 -450q-34 -71 -85 -106t-124 -35q-38 0 -63 9q-15 5 -23.5 16.5t-8.5 27.5q0 20 14 33.5t36 13.5l29 -1q47 0 74.5 16.5t46.5 55.5l1 3l-210 417q-8 13 -8 29q0 22 16 38t38 16q33 0 51 -33l171 -353l156 353q7 16 20.5 24.5
t30.5 8.5q22 0 38 -16zM450.5 836q12.5 -12 12.5 -30t-12.5 -30.5t-30.5 -12.5h-233q-19 0 -31.5 12.5t-12.5 30.5t12.5 30t31.5 12h233q18 0 30.5 -12z" />
    <glyph glyph-name="uni04F2" unicode="&#x4f2;" horiz-adv-x="620" 
d="M569 647q16 -16 16 -39q0 -13 -8 -28l-208 -450q-34 -71 -85 -106t-124 -35q-38 0 -63 9q-15 5 -23.5 16.5t-8.5 27.5q0 20 14 33.5t36 13.5l29 -1q47 0 74.5 16.5t46.5 55.5l1 3l-210 417q-8 13 -8 29q0 22 16 38t38 16q33 0 51 -33l171 -353l156 353q7 16 20.5 24.5
t30.5 8.5q22 0 38 -16zM180.5 738q-11.5 14 -11.5 32q0 10 5 22l58 112q15 28 48 28q22 0 37 -16t15 -37q0 -17 -10 -31l-67 -102q-8 -12 -19.5 -17.5t-22.5 -5.5q-21 1 -32.5 15zM378.5 738q-11.5 14 -11.5 32q0 10 5 22l58 112q15 28 48 28q22 0 37 -16t15 -37
q0 -17 -10 -31l-67 -102q-8 -12 -19.5 -17.5t-22.5 -5.5q-21 1 -32.5 15z" />
    <glyph glyph-name="uni0414.loclBGR" horiz-adv-x="761" 
d="M720.5 79.5q15.5 -15.5 15.5 -38.5v-127q0 -24 -15 -39.5t-38 -15.5t-38 15.5t-15 39.5v86h-499v-86q0 -24 -15 -39.5t-38 -15.5t-38 15.5t-15 39.5v127q0 23 15.5 38.5t39.5 15.5h29l221 540q15 36 51 36q35 0 50 -36l221 -540h29q24 0 39.5 -15.5zM221 95h320l-160 415
z" />
    <glyph glyph-name="uni041B.loclBGR" horiz-adv-x="669" 
d="M634 40q0 -21 -15 -36t-37 -15q-35 0 -50 37l-198 469l-198 -469q-15 -37 -50 -37q-22 0 -37 15t-15 36q0 15 8 30l242 565q15 36 50 36t51 -36l242 -565q7 -15 7 -30z" />
    <glyph glyph-name="uni0410.ordn" horiz-adv-x="432" 
d="M409 280q0 -18 -13 -30.5t-31 -12.5q-14 0 -25 7.5t-16 21.5l-18 45h-180l-18 -45q-12 -29 -42 -29q-18 0 -30.5 12.5t-12.5 30.5q0 10 5 20l146 338q13 30 42 30q14 0 25 -8t17 -23l146 -337q5 -10 5 -20zM152 376h128l-64 168z" />
    <glyph glyph-name="uni0413.ordn" horiz-adv-x="344" 
d="M324.5 649q11.5 -11 11.5 -27q0 -17 -11.5 -28.5t-28.5 -11.5h-149v-301q0 -19 -11.5 -31.5t-30.5 -12.5t-31 12.5t-12 31.5v334q0 20 13 32.5t32 12.5h189q17 0 28.5 -11z" />
    <glyph glyph-name="uni0415.ordn" horiz-adv-x="378" 
d="M333.5 649q11.5 -11 11.5 -27q0 -17 -11.5 -28t-28.5 -11h-157v-86h118q15 0 25 -10t10 -24q0 -15 -10 -24.5t-25 -9.5h-118v-108h165q17 0 28.5 -11t11.5 -28q0 -16 -11.5 -27t-28.5 -11h-206q-19 0 -32 13t-13 32v326q0 20 13 32.5t32 12.5h198q17 0 28.5 -11z" />
    <glyph glyph-name="uni0419.ordn" horiz-adv-x="487" 
d="M163 728q-33 25 -33 56q0 14 9.5 23.5t22.5 9.5q20 0 29 -19q17 -32 46 -32q14 0 26 8t20 24q10 19 29 19q13 0 22.5 -10t9.5 -23q0 -32 -32 -56.5t-75 -24.5q-41 0 -74 25zM412.5 654.5q12.5 -12.5 12.5 -30.5v-343q0 -19 -12 -31.5t-31 -12.5t-31 12.5t-12 31.5v228
l-195 -250q-18 -22 -39 -22q-18 0 -30.5 12.5t-12.5 30.5v343q0 19 12.5 31.5t30.5 12.5q19 0 31 -12.5t12 -31.5v-231l196 253q18 22 38 22q18 0 30.5 -12.5z" />
    <glyph glyph-name="uni041C.ordn" horiz-adv-x="529" 
d="M455 654.5q12 -12.5 12 -30.5v-345q0 -18 -11.5 -30t-30.5 -12t-31 12t-12 30v209l-83 -130q-14 -20 -34 -20q-22 0 -35 20l-83 130v-209q0 -18 -11.5 -30t-30.5 -12t-31 12t-12 30v346q0 18 12.5 30t30.5 12q22 0 35 -21l124 -190l122 186q18 25 39 25q18 0 30 -12.5z
" />
    <glyph glyph-name="uni041E.ordn" horiz-adv-x="506" 
d="M363.5 638.5q50.5 -28.5 80 -78t29.5 -108.5t-29.5 -108.5t-80 -78t-111.5 -28.5t-111 28.5t-79 77.5t-29 109t29 109t79 77.5t111 28.5t111.5 -28.5zM157 550q-37 -38 -37 -98t37 -98t96 -38q58 0 95.5 38.5t37.5 97.5t-37.5 97.5t-95.5 38.5q-59 0 -96 -38z" />
    <glyph glyph-name="uni0423.ordn" horiz-adv-x="410" 
d="M363.5 654.5q12.5 -12.5 12.5 -30.5q0 -10 -7 -27l-114 -264q-41 -96 -144 -96q-26 0 -42 6q-12 4 -19 13.5t-7 21.5q0 17 12 28t29 11l17 -1q46 0 67 33l-121 249q-8 17 -8 26q0 18 13 30.5t31 12.5q27 0 42 -32l88 -192l78 191q13 33 42 33q18 0 30.5 -12.5z" />
    <glyph glyph-name="uni0425.ordn" horiz-adv-x="372" 
d="M354 280q0 -18 -12.5 -30.5t-30.5 -12.5q-22 0 -36 21l-90 132l-89 -132q-14 -21 -36 -21q-18 0 -31 12.5t-13 30.5q0 13 11 29l108 151l-96 135q-11 17 -11 29q0 18 12.5 30.5t30.5 12.5q23 0 36 -20l82 -122l81 121q13 21 37 21q18 0 30.5 -12.5t12.5 -30.5
q0 -15 -11 -29l-100 -141l104 -145q11 -16 11 -29z" />
    <glyph glyph-name="uni042B.ordn" horiz-adv-x="595" 
d="M135 654.5q12 -12.5 12 -31.5v-342q0 -19 -12 -31.5t-30 -12.5q-19 0 -31 12.5t-12 31.5v342q0 19 12 31.5t31 12.5q18 0 30 -12.5zM316 654.5q12 -12.5 12 -31.5v-106h84q67 0 109 -38t42 -99t-41.5 -98.5t-109.5 -37.5h-125q-19 0 -32 13t-13 32v334q0 19 12 31.5
t31 12.5t31 -12.5zM328 442v-123h84q29 0 46.5 17t17.5 45t-17.5 44.5t-46.5 16.5h-84z" />
    <glyph glyph-name="uni042E.ordn" horiz-adv-x="692" 
d="M549.5 638.5q50.5 -28.5 80 -78t29.5 -108.5t-29.5 -108.5t-80 -78t-111.5 -28.5q-56 0 -102.5 24.5t-76.5 67t-36 95.5h-76v-143q0 -19 -12 -31.5t-30 -12.5q-19 0 -31 12.5t-12 31.5v342q0 19 12 31.5t31 12.5q18 0 30 -12.5t12 -31.5v-122h79q17 73 75 119.5t137 46.5
q61 0 111.5 -28.5zM534 354.5q38 38.5 38 97.5t-38 97.5t-96 38.5t-95.5 -38.5t-37.5 -97.5t37.5 -97.5t95.5 -38.5t96 38.5z" />
    <glyph glyph-name="uni042F.ordn" horiz-adv-x="419" 
d="M344.5 647.5q12.5 -12.5 12.5 -31.5v-336q0 -19 -12 -31t-30 -12q-19 0 -31 12.5t-12 30.5v92h-61q-12 0 -18 1l-86 -118q-6 -8 -15 -13t-19 -5q-19 0 -31.5 12t-12.5 30q0 16 10 27l72 94q-28 20 -43.5 50t-15.5 67q0 64 44 103.5t115 39.5h102q19 0 31.5 -12.5z
M272 585h-62q-32 0 -52 -19t-20 -50t20 -50.5t52 -19.5h62v139z" />
    <glyph glyph-name="uni0409.ss01" horiz-adv-x="971" 
d="M816 390q52 -26 81 -73.5t29 -108.5q0 -62 -28.5 -109t-81 -73t-120.5 -26h-133q-23 0 -38.5 12t-25.5 38l-175 440l-188 -464q-14 -37 -50 -37q-22 0 -37 15t-15 36q0 15 8 30l231 563q16 38 51 38q36 0 51 -36l89 -219h232q68 0 120 -26zM784 125q33 31 33 83
q0 53 -33 83.5t-89 30.5h-193l93 -228h100q56 0 89 31z" />
    <glyph glyph-name="uni0430" unicode="&#x430;" horiz-adv-x="536" 
d="M412.5 448q53.5 -54 53.5 -151v-255q0 -23 -14.5 -38t-37.5 -15q-22 0 -37 15t-15 38v6q-56 -59 -151 -59q-77 0 -124 39t-47 103t49 102t132 38h139v32q0 50 -27.5 77.5t-77.5 27.5q-63 0 -109 -46q-19 -16 -36 -16q-19 0 -32.5 13.5t-13.5 30.5q0 22 21 43q31 33 78 51
t101 18q95 0 148.5 -54zM323 103.5q37 33.5 37 82.5v9h-126q-43 0 -65 -15.5t-22 -44.5q0 -30 23.5 -47.5t62.5 -17.5q53 0 90 33.5z" />
    <glyph glyph-name="uni0431" unicode="&#x431;" horiz-adv-x="620" 
d="M457 448q55 -33 87 -89.5t32 -122.5q0 -68 -34 -124.5t-93 -89t-130 -32.5q-76 0 -134 35.5t-90 99.5t-32 148v59q0 111 30 186t95 124.5t175 81.5l90 25q24 7 32 7q19 0 32.5 -13.5t13.5 -33.5q0 -37 -43 -49l-95 -27q-113 -32 -165 -86t-56 -144q30 37 73 57.5t92 20.5
q65 0 120 -33zM394 106q34 20 54 54t20 75t-20 75.5t-54 54t-75 19.5t-75 -19.5t-54 -54t-20 -75.5q0 -40 20 -74.5t54 -54.5t75 -20t75 20z" />
    <glyph glyph-name="uni0432" unicode="&#x432;" horiz-adv-x="552" 
d="M487 216q20 -30 20 -70q0 -64 -48 -105t-124 -41h-199q-23 0 -38.5 15.5t-15.5 38.5v383q0 23 15.5 38.5t38.5 15.5h172q75 0 120 -36t45 -96q0 -61 -44 -97q38 -16 58 -46zM184 296h123q32 0 49.5 14t17.5 40q0 53 -67 53h-123v-107zM387 106.5q22 17.5 22 46.5
q0 28 -22 44.5t-60 16.5h-143v-125h143q38 0 60 17.5z" />
    <glyph glyph-name="uni0433" unicode="&#x433;" horiz-adv-x="448" 
d="M97 4.5q-15 15.5 -15 38.5v394q0 23 15.5 38.5t38.5 15.5h258q20 0 33.5 -13t13.5 -33q0 -19 -13.5 -32t-33.5 -13h-207v-357q0 -23 -15 -38.5t-37 -15.5q-23 0 -38 15.5z" />
    <glyph glyph-name="uni0453" unicode="&#x453;" horiz-adv-x="448" 
d="M97 4.5q-15 15.5 -15 38.5v394q0 23 15.5 38.5t38.5 15.5h258q20 0 33.5 -13t13.5 -33q0 -19 -13.5 -32t-33.5 -13h-207v-357q0 -23 -15 -38.5t-37 -15.5q-23 0 -38 15.5zM230 578q-14 14 -13 33q0 10 7 24l54 125q6 13 20 22t30 9q22 0 37 -15.5t15 -38.5q0 -13 -8 -28
l-67 -118q-17 -27 -40 -27q-21 0 -35 14z" />
    <glyph glyph-name="uni0491" unicode="&#x491;" horiz-adv-x="459" 
d="M430.5 613.5q14.5 -15.5 14.5 -38.5v-121q0 -23 -15.5 -38.5t-38.5 -15.5h-204v-357q0 -23 -15 -38.5t-37 -15.5q-23 0 -38 15.5t-15 38.5v394q0 23 15.5 38.5t38.5 15.5h204v84q0 23 15 38.5t38 15.5t37.5 -15.5z" />
    <glyph glyph-name="uni0434" unicode="&#x434;" horiz-adv-x="643" 
d="M593.5 75.5q15.5 -15.5 15.5 -38.5v-135q0 -24 -15 -39t-38 -15t-38 15.5t-15 38.5v98h-363v-98q0 -24 -15 -39t-38 -15t-38 15.5t-15 38.5v135q0 23 15.5 38.5t38.5 15.5h9q47 51 67.5 132.5t20.5 214.5v1q0 22 15.5 37t38.5 15h231q23 0 38.5 -15.5t15.5 -38.5v-346h31
q23 0 38.5 -15.5zM270 210.5q-19 -74.5 -60 -119.5h209v309h-129q-1 -115 -20 -189.5z" />
    <glyph glyph-name="uni0435" unicode="&#x435;" horiz-adv-x="570" 
d="M415 472.5q52 -29.5 81.5 -81.5t29.5 -117v-5q0 -27 -16 -42.5t-44 -15.5h-314q11 -60 53 -94.5t107 -34.5t115 38q15 10 27 10q19 0 31.5 -12.5t12.5 -31.5q0 -14 -6 -24t-20 -20q-71 -53 -163 -53q-75 0 -135 33.5t-94.5 91.5t-34.5 131q0 71 33.5 130t91.5 93t128 34
q65 0 117 -29.5zM204 380q-38 -33 -50 -87h267q-2 54 -36.5 87t-89.5 33q-53 0 -91 -33z" />
    <glyph glyph-name="uni0450" unicode="&#x450;" horiz-adv-x="570" 
d="M415 472.5q52 -29.5 81.5 -81.5t29.5 -117v-5q0 -27 -16 -42.5t-44 -15.5h-314q11 -60 53 -94.5t107 -34.5t115 38q15 10 27 10q19 0 31.5 -12.5t12.5 -31.5q0 -14 -6 -24t-20 -20q-71 -53 -163 -53q-75 0 -135 33.5t-94.5 91.5t-34.5 131q0 71 33.5 130t91.5 93t128 34
q65 0 117 -29.5zM204 380q-38 -33 -50 -87h267q-2 54 -36.5 87t-89.5 33q-53 0 -91 -33zM237 591l-67 118q-8 15 -8 28q0 23 15 38.5t37 15.5q16 0 30 -9t20 -22l54 -125q7 -14 7 -24q1 -19 -13 -33t-35 -14q-23 0 -40 27z" />
    <glyph glyph-name="uni0451" unicode="&#x451;" horiz-adv-x="570" 
d="M415 472.5q52 -29.5 81.5 -81.5t29.5 -117v-5q0 -27 -16 -42.5t-44 -15.5h-314q11 -60 53 -94.5t107 -34.5t115 38q15 10 27 10q19 0 31.5 -12.5t12.5 -31.5q0 -14 -6 -24t-20 -20q-71 -53 -163 -53q-75 0 -135 33.5t-94.5 91.5t-34.5 131q0 71 33.5 130t91.5 93t128 34
q65 0 117 -29.5zM204 380q-38 -33 -50 -87h267q-2 54 -36.5 87t-89.5 33q-53 0 -91 -33zM233 721q19 -19 19 -47q0 -26 -19.5 -45.5t-47.5 -19.5q-27 0 -47.5 19.5t-20.5 45.5q0 27 20 46.5t48 19.5q29 0 48 -19zM457.5 721q19.5 -19 19.5 -47q0 -26 -20 -45.5t-48 -19.5
q-27 0 -47.5 19.5t-20.5 45.5q0 27 20 46.5t48 19.5q29 0 48.5 -19z" />
    <glyph glyph-name="uni0436" unicode="&#x436;" horiz-adv-x="810" 
d="M312 303q17 -18 17 -38q0 -18 -15 -36l-186 -221q-14 -19 -38 -19q-22 0 -36.5 14t-14.5 34q0 18 13 34l165 196l-143 149q-17 18 -17 38t14 33.5t34 14.5q24 0 43 -20zM443 486.5q15 -15.5 15 -38.5v-405q0 -24 -15 -39t-37 -15q-23 0 -38 15.5t-15 38.5v405
q0 23 15 38.5t38 15.5q22 0 37 -15.5zM770 37q0 -20 -14.5 -34t-36.5 -14q-23 0 -39 19l-185 221q-16 19 -16 36q0 19 18 38l164 179q19 20 42 20q21 -1 35 -14.5t14 -33.5q0 -18 -17 -38l-144 -149l165 -196q14 -19 14 -34z" />
    <glyph glyph-name="uni0437" unicode="&#x437;" horiz-adv-x="503" 
d="M429 206q20 -31 20 -69q0 -67 -57 -107.5t-150 -40.5q-53 0 -98 15.5t-74 43.5q-23 20 -23 40q0 19 14 32.5t34 13.5q9 0 16 -3t17 -10q42 -39 113 -39q49 0 76 18t27 50q0 31 -24 47.5t-68 16.5h-53q-18 0 -30.5 12t-12.5 30t12.5 30t30.5 12h51q35 0 54 14.5t19 40.5
q0 56 -87 56q-63 0 -103 -32q-17 -13 -33 -13q-19 0 -32.5 13.5t-13.5 32.5q0 11 5 20.5t18 19.5q28 24 71 38t91 14q87 0 138 -37.5t51 -101.5q0 -33 -14 -60.5t-40 -46.5q35 -19 55 -50z" />
    <glyph glyph-name="uni0438" unicode="&#x438;" horiz-adv-x="603" 
d="M507 486.5q15 -15.5 15 -38.5v-405q0 -23 -15 -38.5t-38 -15.5q-22 0 -37 15.5t-15 38.5v272l-235 -299q-23 -27 -48 -27q-22 0 -37 15.5t-15 38.5v405q0 23 15 38.5t38 15.5q22 0 37 -15.5t15 -38.5v-279l235 305q11 15 22.5 21.5t25.5 6.5q22 0 37 -15.5z" />
    <glyph glyph-name="uni0439" unicode="&#x439;" horiz-adv-x="603" 
d="M507 486.5q15 -15.5 15 -38.5v-405q0 -23 -15 -38.5t-38 -15.5q-22 0 -37 15.5t-15 38.5v272l-235 -299q-23 -27 -48 -27q-22 0 -37 15.5t-15 38.5v405q0 23 15 38.5t38 15.5q22 0 37 -15.5t15 -38.5v-279l235 305q11 15 22.5 21.5t25.5 6.5q22 0 37 -15.5zM225 597.5
q-37 20.5 -59.5 54t-22.5 70.5q0 19 12 32t30 13q34 0 42 -37q4 -31 26 -50.5t51 -19.5q30 0 51.5 19.5t26.5 50.5q4 17 14.5 27t26.5 10q18 0 30.5 -13t12.5 -32q0 -38 -22 -71.5t-59 -53.5t-81 -20q-42 0 -79 20.5z" />
    <glyph glyph-name="uni045D" unicode="&#x45d;" horiz-adv-x="603" 
d="M507 486.5q15 -15.5 15 -38.5v-405q0 -23 -15 -38.5t-38 -15.5q-22 0 -37 15.5t-15 38.5v272l-235 -299q-23 -27 -48 -27q-22 0 -37 15.5t-15 38.5v405q0 23 15 38.5t38 15.5q22 0 37 -15.5t15 -38.5v-279l235 305q11 15 22.5 21.5t25.5 6.5q22 0 37 -15.5zM244 591
l-67 118q-8 15 -8 28q0 23 15 38.5t37 15.5q16 0 30 -9t20 -22l54 -125q7 -14 7 -24q1 -19 -13 -33t-35 -14q-23 0 -40 27z" />
    <glyph glyph-name="uni043A" unicode="&#x43a;" horiz-adv-x="542" 
d="M172 486.5q15 -15.5 15 -38.5v-405q0 -23 -15 -38.5t-37 -15.5q-23 0 -38 15.5t-15 38.5v405q0 23 15 38.5t38 15.5q22 0 37 -15.5zM506 38q0 -20 -14.5 -34.5t-35.5 -14.5q-24 0 -37 16l-192 223q-15 20 -15 37q0 21 17 39l174 182q13 16 37 16q21 -1 35 -15t14 -34
q0 -22 -15 -37l-147 -152l166 -191q13 -18 13 -35z" />
    <glyph glyph-name="uni045C" unicode="&#x45c;" horiz-adv-x="542" 
d="M172 486.5q15 -15.5 15 -38.5v-405q0 -23 -15 -38.5t-37 -15.5q-23 0 -38 15.5t-15 38.5v405q0 23 15 38.5t38 15.5q22 0 37 -15.5zM506 38q0 -20 -14.5 -34.5t-35.5 -14.5q-24 0 -37 16l-192 223q-15 20 -15 37q0 21 17 39l174 182q13 16 37 16q21 -1 35 -15t14 -34
q0 -22 -15 -37l-147 -152l166 -191q13 -18 13 -35zM264 578q-14 14 -13 33q0 10 7 24l54 125q6 13 20 22t30 9q22 0 37 -15.5t15 -38.5q0 -13 -8 -28l-67 -118q-17 -27 -40 -27q-21 0 -35 14z" />
    <glyph glyph-name="uni043B" unicode="&#x43b;" horiz-adv-x="574" 
d="M476.5 475.5q15.5 -15.5 15.5 -38.5v-394q0 -23 -15 -38.5t-37 -15.5t-37 15.5t-15 38.5v357h-148v-48q0 -284 -158 -351q-22 -8 -36 -8q-20 0 -34 14t-14 34q0 16 8.5 26.5t25.5 18.5q53 23 78 93.5t25 213.5v44q0 23 15.5 38.5t38.5 15.5h249q23 0 38.5 -15.5z" />
    <glyph glyph-name="uni043C" unicode="&#x43c;" horiz-adv-x="698" 
d="M97 4.5q-15 15.5 -15 38.5v405q0 23 15 38.5t38 15.5q25 0 42 -22l172 -229l172 229q17 22 42 22q23 0 38 -15.5t15 -38.5v-405q0 -23 -15 -38.5t-38 -15.5q-22 0 -37 15.5t-15 38.5v255l-126 -162q-14 -17 -36 -17t-36 17l-126 162v-255q0 -23 -15 -38.5t-37 -15.5
q-23 0 -38 15.5z" />
    <glyph glyph-name="uni043D" unicode="&#x43d;" horiz-adv-x="592" 
d="M496 486.5q15 -15.5 15 -38.5v-406q0 -22 -15 -37.5t-38 -15.5q-22 0 -37 15.5t-15 37.5v170h-219v-170q0 -23 -15 -38t-37 -15q-23 0 -38 15t-15 38v406q0 23 15 38.5t38 15.5q22 0 37 -15.5t15 -38.5v-145h219v145q0 23 15 38.5t37 15.5q23 0 38 -15.5z" />
    <glyph glyph-name="uni043E" unicode="&#x43e;" horiz-adv-x="609" 
d="M436 468q60 -34 94.5 -93t34.5 -129t-34.5 -129t-94.5 -93.5t-132 -34.5q-71 0 -130.5 34.5t-94 93.5t-34.5 129q0 71 34.5 129.5t94 92.5t130.5 34q72 0 132 -34zM227 385q-35 -21 -55 -58t-20 -82t20 -81.5t54.5 -57t77.5 -20.5t78 21t55 57.5t20 80.5q0 45 -20 81.5
t-54.5 58t-77.5 21.5t-78 -21z" />
    <glyph glyph-name="uni043F" unicode="&#x43f;" horiz-adv-x="586" 
d="M97 4q-15 15 -15 37v397q0 23 15 38t37 15h317q23 0 38 -15t15 -38v-397q0 -22 -15.5 -37t-38.5 -15q-22 0 -37 15t-15 37v359h-211v-359q0 -22 -15 -37t-38 -15q-22 0 -37 15z" />
    </font>
</defs>
</svg>
