<?xml version="1.0" standalone="no"?>
<!DOCTYPE svg PUBLIC "-//W3C//DTD SVG 1.1//EN" "http://www.w3.org/Graphics/SVG/1.1/DTD/svg11.dtd" >
<svg xmlns="http://www.w3.org/2000/svg" xmlns:xlink="http://www.w3.org/1999/xlink" version="1.1">
<metadata>
Created by FontForge 20190801 at Fri Mar  3 11:33:16 2017
 By Jimmy Wärting
Copyright (c) 2016 by Jakob Runge and Lisa Fischbach, under exclusive license to TypeMates. All rights reserved.
</metadata>
<defs>
<font id="CeraRoundPro-Bold" horiz-adv-x="560" >
  <font-face 
    font-family="Cera Round Pro"
    font-weight="700"
    font-stretch="normal"
    units-per-em="1000"
    panose-1="0 0 8 0 0 0 0 0 0 0"
    ascent="808"
    descent="-192"
    x-height="495"
    cap-height="672"
    bbox="-174 -254 1371 1032"
    underline-thickness="87"
    underline-position="-100"
    unicode-range="U+0020-FB02"
  />
<missing-glyph horiz-adv-x="713" 
d="M618.5 641q18.5 -19 18.5 -47v-528q0 -28 -18.5 -47t-46.5 -19h-431q-28 0 -46.5 19t-18.5 47v528q0 28 18.5 47t46.5 19h431q28 0 46.5 -19zM545 576h-379l379 -499v499z" />
    <glyph glyph-name="fi" unicode="fi" horiz-adv-x="626" 
d="M244 621q-19 -20 -19 -57v-69h62q25 0 41 -16t16 -41t-16 -41t-41 -16h-62v-324q0 -30 -19 -49.5t-48 -19.5t-48.5 20t-19.5 49v324h-22q-25 0 -41.5 16t-16.5 41t16.5 41t41.5 16h22v81q0 88 49 137t135 49q38 0 64 -13q16 -7 25 -21t9 -33q0 -25 -16 -40t-43 -15l-16 1
q-34 0 -53 -20zM443.5 8q-19.5 20 -19.5 49v381q0 29 19.5 48.5t48.5 19.5t48 -19.5t19 -48.5v-381q0 -29 -19.5 -49t-48.5 -20q-28 0 -47.5 20zM551 733q25 -24 25 -58q0 -33 -25 -57t-59 -24q-35 0 -60 23.5t-25 57.5t25 58t60 24q34 0 59 -24z" />
    <glyph glyph-name="fl" unicode="fl" horiz-adv-x="626" 
d="M244 621q-19 -20 -19 -57v-69h62q25 0 41 -16t16 -41t-16 -41t-41 -16h-62v-324q0 -30 -19 -49.5t-48 -19.5t-48.5 20t-19.5 49v324h-22q-25 0 -41.5 16t-16.5 41t16.5 41t41.5 16h22v81q0 88 49 137t135 49q38 0 64 -13q16 -7 25 -21t9 -33q0 -25 -16 -40t-43 -15l-16 1
q-34 0 -53 -20zM443.5 8q-19.5 20 -19.5 49v636q0 29 19.5 49t48.5 20q28 0 47.5 -20t19.5 -49v-636q0 -29 -19.5 -49t-47.5 -20q-29 0 -48.5 20z" />
    <glyph glyph-name=".notdef" horiz-adv-x="713" 
d="M618.5 641q18.5 -19 18.5 -47v-528q0 -28 -18.5 -47t-46.5 -19h-431q-28 0 -46.5 19t-18.5 47v528q0 28 18.5 47t46.5 19h431q28 0 46.5 -19zM545 576h-379l379 -499v499z" />
    <glyph glyph-name="space" unicode=" " horiz-adv-x="280" 
 />
    <glyph glyph-name="A" unicode="A" horiz-adv-x="662" 
d="M628 53q0 -27 -19 -46t-47 -19q-44 0 -64 48l-28 68h-279l-28 -68q-19 -48 -63 -48q-28 0 -47.5 19t-19.5 46q0 14 8 36l226 537q18 46 64 46t64 -46l225 -537q8 -19 8 -36zM235 215h190l-94 258z" />
    <glyph glyph-name="Aacute" unicode="&#xc1;" horiz-adv-x="662" 
d="M628 53q0 -27 -19 -46t-47 -19q-44 0 -64 48l-28 68h-279l-28 -68q-19 -48 -63 -48q-28 0 -47.5 19t-19.5 46q0 14 8 36l226 537q18 46 64 46t64 -46l225 -537q8 -19 8 -36zM235 215h190l-94 258zM305.5 738.5q-15.5 18.5 -15.5 42.5q0 14 6 26l52 100q10 19 26 27t33 8
q29 0 48.5 -20.5t19.5 -46.5q0 -23 -14 -40l-64 -90q-11 -15 -25 -20.5t-25 -5.5q-26 1 -41.5 19.5z" />
    <glyph glyph-name="Abreve" unicode="&#x102;" horiz-adv-x="662" 
d="M628 53q0 -27 -19 -46t-47 -19q-44 0 -64 48l-28 68h-279l-28 -68q-19 -48 -63 -48q-28 0 -47.5 19t-19.5 46q0 14 8 36l226 537q18 46 64 46t64 -46l225 -537q8 -19 8 -36zM235 215h190l-94 258zM249.5 745q-38.5 19 -62.5 51t-24 67q0 23 15 37.5t37 14.5q16 0 28 -9
t22 -29q21 -49 66 -49q23 0 39.5 12.5t25.5 36.5q19 38 51 38q22 0 36.5 -14.5t14.5 -37.5q0 -35 -23.5 -67t-62.5 -51t-81 -19q-43 0 -81.5 19z" />
    <glyph glyph-name="Acircumflex" unicode="&#xc2;" horiz-adv-x="662" 
d="M628 53q0 -27 -19 -46t-47 -19q-44 0 -64 48l-28 68h-279l-28 -68q-19 -48 -63 -48q-28 0 -47.5 19t-19.5 46q0 14 8 36l226 537q18 46 64 46t64 -46l225 -537q8 -19 8 -36zM235 215h190l-94 258zM494.5 793.5q6.5 -9.5 6.5 -21.5q0 -21 -14.5 -35.5t-34.5 -14.5
q-21 0 -39 16l-83 76l-83 -76q-18 -16 -39 -16q-20 0 -34.5 14.5t-14.5 35.5q0 12 6.5 21.5t23.5 25.5l94 92q22 20 47 20q26 0 47 -20l94 -92q17 -16 23.5 -25.5z" />
    <glyph glyph-name="Adieresis" unicode="&#xc4;" horiz-adv-x="662" 
d="M628 53q0 -27 -19 -46t-47 -19q-44 0 -64 48l-28 68h-279l-28 -68q-19 -48 -63 -48q-28 0 -47.5 19t-19.5 46q0 14 8 36l226 537q18 46 64 46t64 -46l225 -537q8 -19 8 -36zM235 215h190l-94 258zM146 760.5q-25 23.5 -25 53.5q0 33 24.5 55.5t56.5 22.5q33 0 57 -22.5
t24 -55.5q0 -31 -24 -54t-57 -23q-31 0 -56 23.5zM404 759.5q-25 23.5 -25 53.5q0 33 24.5 56t56.5 23q33 0 57 -23t24 -56q0 -31 -24 -54t-57 -23q-31 0 -56 23.5z" />
    <glyph glyph-name="Agrave" unicode="&#xc0;" horiz-adv-x="662" 
d="M628 53q0 -27 -19 -46t-47 -19q-44 0 -64 48l-28 68h-279l-28 -68q-19 -48 -63 -48q-28 0 -47.5 19t-19.5 46q0 14 8 36l226 537q18 46 64 46t64 -46l225 -537q8 -19 8 -36zM235 215h190l-94 258zM291 724.5q-14 5.5 -25 20.5l-64 90q-14 19 -14 40q0 27 19.5 47t48.5 20
q17 0 33 -8t26 -27l52 -100q6 -12 6 -26q0 -24 -15.5 -42.5t-41.5 -19.5q-11 0 -25 5.5z" />
    <glyph glyph-name="Amacron" unicode="&#x100;" horiz-adv-x="662" 
d="M628 53q0 -27 -19 -46t-47 -19q-44 0 -64 48l-28 68h-279l-28 -68q-19 -48 -63 -48q-28 0 -47.5 19t-19.5 46q0 14 8 36l226 537q18 46 64 46t64 -46l225 -537q8 -19 8 -36zM235 215h190l-94 258zM484.5 848q15.5 -15 15.5 -38t-15.5 -38t-38.5 -15h-229q-23 0 -39 15.5
t-16 37.5t16 37.5t39 15.5h229q23 0 38.5 -15z" />
    <glyph glyph-name="Aogonek" unicode="&#x104;" horiz-adv-x="662" 
d="M628 53q0 -27 -19 -46t-47 -19q-44 0 -64 48l-28 68h-279l-28 -68q-19 -48 -63 -48q-28 0 -47.5 19t-19.5 46q0 14 8 36l226 537q18 46 64 46t64 -46l225 -537q8 -19 8 -36zM235 215h190l-94 258zM455.5 -164q-32.5 28 -32.5 75q0 36 21 66t69 69q46 37 72 37
q16 0 28.5 -11.5t12.5 -26.5q0 -23 -21 -41q-27 -23 -41.5 -40t-14.5 -32q0 -12 9 -19t26 -7l16 1q19 0 30 -12t11 -32q0 -18 -10 -30.5t-28 -17.5q-28 -7 -60 -7q-55 0 -87.5 28z" />
    <glyph glyph-name="Aring" unicode="&#xc5;" horiz-adv-x="662" 
d="M628 53q0 -27 -19 -46t-47 -19q-44 0 -64 48l-28 68h-279l-28 -68q-19 -48 -63 -48q-28 0 -47.5 19t-19.5 46q0 14 8 36l226 537q18 46 64 46t64 -46l225 -537q8 -19 8 -36zM235 215h190l-94 258zM421 884.5q36 -34.5 36 -86.5q0 -53 -36 -88t-91 -35q-54 0 -90 35
t-36 88q0 52 36 86.5t90 34.5q55 0 91 -34.5zM302 827.5q-12 -11.5 -12 -29.5t12 -30t29 -12t29 12t12 30q0 17 -12 29t-29 12t-29 -11.5z" />
    <glyph glyph-name="Atilde" unicode="&#xc3;" horiz-adv-x="662" 
d="M628 53q0 -27 -19 -46t-47 -19q-44 0 -64 48l-28 68h-279l-28 -68q-19 -48 -63 -48q-28 0 -47.5 19t-19.5 46q0 14 8 36l226 537q18 46 64 46t64 -46l225 -537q8 -19 8 -36zM235 215h190l-94 258zM146 732.5q-15 15.5 -15 41.5q0 57 33 93t84 36q37 0 74 -21l31 -18
q13 -7 24 -12t20 -5q24 0 30 27q5 17 18 27t32 10q25 0 39.5 -15.5t14.5 -41.5q0 -57 -32.5 -93t-84.5 -36q-37 0 -74 21l-30 17q-17 9 -26.5 13t-18.5 4q-12 0 -19 -6.5t-11 -20.5q-5 -17 -17.5 -26.5t-31.5 -9.5q-25 0 -40 15.5z" />
    <glyph glyph-name="AE" unicode="&#xc6;" horiz-adv-x="853" 
d="M802.5 104.5q17.5 -17.5 17.5 -43.5t-18 -43.5t-44 -17.5h-246q-25 0 -42.5 15t-22.5 38l-5 33h-248l-31 -60q-8 -18 -23 -28t-33 -10q-29 0 -48 18t-19 46q0 18 8 32l272 530q12 24 29 35t42 11h355q27 0 44.5 -17.5t17.5 -43.5t-18 -43.5t-44 -17.5h-247l22 -134h148
q25 0 41.5 -16.5t16.5 -41.5q0 -24 -16.5 -40.5t-41.5 -16.5h-129l28 -167h190q27 0 44.5 -17.5zM251 197h172l-43 269z" />
    <glyph glyph-name="AEacute" unicode="&#x1fc;" horiz-adv-x="853" 
d="M802.5 104.5q17.5 -17.5 17.5 -43.5t-18 -43.5t-44 -17.5h-246q-25 0 -42.5 15t-22.5 38l-5 33h-248l-31 -60q-8 -18 -23 -28t-33 -10q-29 0 -48 18t-19 46q0 18 8 32l272 530q12 24 29 35t42 11h355q27 0 44.5 -17.5t17.5 -43.5t-18 -43.5t-44 -17.5h-247l22 -134h148
q25 0 41.5 -16.5t16.5 -41.5q0 -24 -16.5 -40.5t-41.5 -16.5h-129l28 -167h190q27 0 44.5 -17.5zM251 197h172l-43 269zM395.5 738.5q-15.5 18.5 -15.5 42.5q0 14 6 26l52 100q10 19 26 27t33 8q29 0 48.5 -20.5t19.5 -46.5q0 -23 -14 -40l-64 -90q-11 -15 -25 -20.5
t-25 -5.5q-26 1 -41.5 19.5z" />
    <glyph glyph-name="B" unicode="B" horiz-adv-x="620" 
d="M556 295q31 -42 31 -101q0 -56 -28 -100.5t-77.5 -69t-112.5 -24.5h-225q-30 0 -49.5 19.5t-19.5 49.5v522q0 30 19.5 49.5t49.5 19.5h165q61 0 108.5 -23.5t74 -65t26.5 -95.5q0 -73 -49 -119q56 -20 87 -62zM206 544v-151h93q40 0 63 20.5t23 55.5t-23 55t-63 20h-93z
M428 137.5q25 21.5 25 61.5q0 39 -25 61t-69 22h-153v-166h153q44 0 69 21.5z" />
    <glyph glyph-name="C" unicode="C" horiz-adv-x="720" 
d="M211.5 33.5q-80.5 45.5 -127 123.5t-46.5 173t46.5 173t127.5 123.5t178 45.5q76 0 143.5 -30.5t111.5 -83.5q21 -24 21 -50q0 -25 -18.5 -43t-44.5 -18q-29 0 -52 26q-64 74 -161 74q-61 0 -109.5 -28t-76 -77.5t-27.5 -112.5q0 -62 27.5 -111.5t76 -77t109.5 -27.5
q95 0 160 74q24 26 53 26q26 0 44 -18t18 -43t-21 -50q-44 -53 -111.5 -83.5t-143.5 -30.5q-97 0 -177.5 45.5z" />
    <glyph glyph-name="Cacute" unicode="&#x106;" horiz-adv-x="720" 
d="M211.5 33.5q-80.5 45.5 -127 123.5t-46.5 173t46.5 173t127.5 123.5t178 45.5q76 0 143.5 -30.5t111.5 -83.5q21 -24 21 -50q0 -25 -18.5 -43t-44.5 -18q-29 0 -52 26q-64 74 -161 74q-61 0 -109.5 -28t-76 -77.5t-27.5 -112.5q0 -62 27.5 -111.5t76 -77t109.5 -27.5
q95 0 160 74q24 26 53 26q26 0 44 -18t18 -43t-21 -50q-44 -53 -111.5 -83.5t-143.5 -30.5q-97 0 -177.5 45.5zM363.5 745.5q-15.5 18.5 -15.5 42.5q0 14 6 26l52 100q10 19 26 27t33 8q29 0 48.5 -20.5t19.5 -46.5q0 -23 -14 -40l-64 -90q-11 -15 -25 -20.5t-25 -5.5
q-26 1 -41.5 19.5z" />
    <glyph glyph-name="Ccaron" unicode="&#x10c;" horiz-adv-x="720" 
d="M211.5 33.5q-80.5 45.5 -127 123.5t-46.5 173t46.5 173t127.5 123.5t178 45.5q76 0 143.5 -30.5t111.5 -83.5q21 -24 21 -50q0 -25 -18.5 -43t-44.5 -18q-29 0 -52 26q-64 74 -161 74q-61 0 -109.5 -28t-76 -77.5t-27.5 -112.5q0 -62 27.5 -111.5t76 -77t109.5 -27.5
q95 0 160 74q24 26 53 26q26 0 44 -18t18 -43t-21 -50q-44 -53 -111.5 -83.5t-143.5 -30.5q-97 0 -177.5 45.5zM544.5 923.5q14.5 -14.5 14.5 -35.5q0 -12 -6.5 -21.5t-23.5 -25.5l-94 -92q-21 -20 -47 -20q-25 0 -47 20l-94 92q-17 16 -23.5 25.5t-6.5 21.5q0 21 14.5 35.5
t34.5 14.5q21 0 39 -16l83 -76l83 76q18 16 39 16q20 0 34.5 -14.5z" />
    <glyph glyph-name="Ccedilla" unicode="&#xc7;" horiz-adv-x="720" 
d="M211.5 33.5q-80.5 45.5 -127 123.5t-46.5 173t46.5 173t127.5 123.5t178 45.5q76 0 143.5 -30.5t111.5 -83.5q21 -24 21 -50q0 -25 -18.5 -43t-44.5 -18q-29 0 -52 26q-64 74 -161 74q-61 0 -109.5 -28t-76 -77.5t-27.5 -112.5q0 -62 27.5 -111.5t76 -77t109.5 -27.5
q95 0 160 74q24 26 53 26q26 0 44 -18t18 -43t-21 -50q-44 -53 -111.5 -83.5t-143.5 -30.5q-97 0 -177.5 45.5zM277 -183q-32 14 -32 43q0 20 14 34t34 14l32 -1q26 0 42 10t16 30q0 27 -21 54q-2 3 -9 12t-10.5 17t-3.5 15q0 16 12 25.5t30 9.5q25 0 52 -22.5t45 -56
t18 -64.5q0 -59 -42 -94t-112 -35q-41 0 -65 9z" />
    <glyph glyph-name="Ccircumflex" unicode="&#x108;" horiz-adv-x="720" 
d="M211.5 33.5q-80.5 45.5 -127 123.5t-46.5 173t46.5 173t127.5 123.5t178 45.5q76 0 143.5 -30.5t111.5 -83.5q21 -24 21 -50q0 -25 -18.5 -43t-44.5 -18q-29 0 -52 26q-64 74 -161 74q-61 0 -109.5 -28t-76 -77.5t-27.5 -112.5q0 -62 27.5 -111.5t76 -77t109.5 -27.5
q95 0 160 74q24 26 53 26q26 0 44 -18t18 -43t-21 -50q-44 -53 -111.5 -83.5t-143.5 -30.5q-97 0 -177.5 45.5zM552.5 800.5q6.5 -9.5 6.5 -21.5q0 -21 -14.5 -35.5t-34.5 -14.5q-21 0 -39 16l-83 76l-83 -76q-18 -16 -39 -16q-20 0 -34.5 14.5t-14.5 35.5q0 12 6.5 21.5
t23.5 25.5l94 92q22 20 47 20q26 0 47 -20l94 -92q17 -16 23.5 -25.5z" />
    <glyph glyph-name="Cdotaccent" unicode="&#x10a;" horiz-adv-x="720" 
d="M211.5 33.5q-80.5 45.5 -127 123.5t-46.5 173t46.5 173t127.5 123.5t178 45.5q76 0 143.5 -30.5t111.5 -83.5q21 -24 21 -50q0 -25 -18.5 -43t-44.5 -18q-29 0 -52 26q-64 74 -161 74q-61 0 -109.5 -28t-76 -77.5t-27.5 -112.5q0 -62 27.5 -111.5t76 -77t109.5 -27.5
q95 0 160 74q24 26 53 26q26 0 44 -18t18 -43t-21 -50q-44 -53 -111.5 -83.5t-143.5 -30.5q-97 0 -177.5 45.5zM448 879.5q25 -23.5 25 -57.5t-25 -57.5t-59 -23.5q-35 0 -60 23.5t-25 57.5t25 57.5t60 23.5q34 0 59 -23.5z" />
    <glyph glyph-name="D" unicode="D" horiz-adv-x="690" 
d="M479.5 619q81.5 -41 126.5 -115.5t45 -171.5t-45.5 -172.5t-127.5 -117.5t-186 -42h-148q-30 0 -49.5 19.5t-19.5 49.5v522q0 30 19.5 49.5t49.5 19.5h148q106 0 187.5 -41zM210 538v-416h81q66 0 116.5 26t78 73.5t27.5 110.5q0 95 -59.5 150.5t-162.5 55.5h-81z" />
    <glyph glyph-name="Eth" unicode="&#xd0;" horiz-adv-x="690" 
d="M479.5 619q81.5 -41 126.5 -115.5t45 -171.5t-45.5 -172.5t-127.5 -117.5t-186 -42h-148q-30 0 -49.5 19.5t-19.5 49.5v188h-28q-26 0 -44 16t-18 41q0 24 18 40t44 16h28v221q0 30 19.5 49.5t49.5 19.5h148q106 0 187.5 -41zM407.5 148q50.5 26 78 73.5t27.5 110.5
q0 95 -59.5 150.5t-162.5 55.5h-81v-168h54q26 0 44 -16t18 -40q0 -25 -18 -41t-44 -16h-54v-135h81q66 0 116.5 26z" />
    <glyph glyph-name="Dcaron" unicode="&#x10e;" horiz-adv-x="690" 
d="M479.5 619q81.5 -41 126.5 -115.5t45 -171.5t-45.5 -172.5t-127.5 -117.5t-186 -42h-148q-30 0 -49.5 19.5t-19.5 49.5v522q0 30 19.5 49.5t49.5 19.5h148q106 0 187.5 -41zM210 538v-416h81q66 0 116.5 26t78 73.5t27.5 110.5q0 95 -59.5 150.5t-162.5 55.5h-81z
M452.5 916.5q14.5 -14.5 14.5 -35.5q0 -12 -6.5 -21.5t-23.5 -25.5l-94 -92q-21 -20 -47 -20q-25 0 -47 20l-94 92q-17 16 -23.5 25.5t-6.5 21.5q0 21 14.5 35.5t34.5 14.5q21 0 39 -16l83 -76l83 76q18 16 39 16q20 0 34.5 -14.5z" />
    <glyph glyph-name="Dcroat" unicode="&#x110;" horiz-adv-x="690" 
d="M479.5 619q81.5 -41 126.5 -115.5t45 -171.5t-45.5 -172.5t-127.5 -117.5t-186 -42h-148q-30 0 -49.5 19.5t-19.5 49.5v188h-28q-26 0 -44 16t-18 41q0 24 18 40t44 16h28v221q0 30 19.5 49.5t49.5 19.5h148q106 0 187.5 -41zM407.5 148q50.5 26 78 73.5t27.5 110.5
q0 95 -59.5 150.5t-162.5 55.5h-81v-168h54q26 0 44 -16t18 -40q0 -25 -18 -41t-44 -16h-54v-135h81q66 0 116.5 26z" />
    <glyph glyph-name="E" unicode="E" horiz-adv-x="572" 
d="M94.5 19.5q-19.5 19.5 -19.5 47.5v526q0 29 19.5 48t47.5 19h323q27 0 44.5 -17.5t17.5 -43.5t-18 -43.5t-44 -17.5h-255v-134h175q25 0 42 -16.5t17 -41.5q0 -24 -17 -40.5t-42 -16.5h-175v-167h267q27 0 44.5 -17.5t17.5 -43.5t-18 -43.5t-44 -17.5h-335
q-28 0 -47.5 19.5z" />
    <glyph glyph-name="Eacute" unicode="&#xc9;" horiz-adv-x="572" 
d="M94.5 19.5q-19.5 19.5 -19.5 47.5v526q0 29 19.5 48t47.5 19h323q27 0 44.5 -17.5t17.5 -43.5t-18 -43.5t-44 -17.5h-255v-134h175q25 0 42 -16.5t17 -41.5q0 -24 -17 -40.5t-42 -16.5h-175v-167h267q27 0 44.5 -17.5t17.5 -43.5t-18 -43.5t-44 -17.5h-335
q-28 0 -47.5 19.5zM268.5 738.5q-15.5 18.5 -15.5 42.5q0 14 6 26l52 100q10 19 26 27t33 8q29 0 48.5 -20.5t19.5 -46.5q0 -23 -14 -40l-64 -90q-11 -15 -25 -20.5t-25 -5.5q-26 1 -41.5 19.5z" />
    <glyph glyph-name="Ebreve" unicode="&#x114;" horiz-adv-x="572" 
d="M94.5 19.5q-19.5 19.5 -19.5 47.5v526q0 29 19.5 48t47.5 19h323q27 0 44.5 -17.5t17.5 -43.5t-18 -43.5t-44 -17.5h-255v-134h175q25 0 42 -16.5t17 -41.5q0 -24 -17 -40.5t-42 -16.5h-175v-167h267q27 0 44.5 -17.5t17.5 -43.5t-18 -43.5t-44 -17.5h-335
q-28 0 -47.5 19.5zM212.5 745q-38.5 19 -62.5 51t-24 67q0 23 15 37.5t37 14.5q16 0 28 -9t22 -29q21 -49 66 -49q23 0 39.5 12.5t25.5 36.5q19 38 51 38q22 0 36.5 -14.5t14.5 -37.5q0 -35 -23.5 -67t-62.5 -51t-81 -19q-43 0 -81.5 19z" />
    <glyph glyph-name="Ecaron" unicode="&#x11a;" horiz-adv-x="572" 
d="M94.5 19.5q-19.5 19.5 -19.5 47.5v526q0 29 19.5 48t47.5 19h323q27 0 44.5 -17.5t17.5 -43.5t-18 -43.5t-44 -17.5h-255v-134h175q25 0 42 -16.5t17 -41.5q0 -24 -17 -40.5t-42 -16.5h-175v-167h267q27 0 44.5 -17.5t17.5 -43.5t-18 -43.5t-44 -17.5h-335
q-28 0 -47.5 19.5zM449.5 916.5q14.5 -14.5 14.5 -35.5q0 -12 -6.5 -21.5t-23.5 -25.5l-94 -92q-21 -20 -47 -20q-25 0 -47 20l-94 92q-17 16 -23.5 25.5t-6.5 21.5q0 21 14.5 35.5t34.5 14.5q21 0 39 -16l83 -76l83 76q18 16 39 16q20 0 34.5 -14.5z" />
    <glyph glyph-name="Ecircumflex" unicode="&#xca;" horiz-adv-x="572" 
d="M94.5 19.5q-19.5 19.5 -19.5 47.5v526q0 29 19.5 48t47.5 19h323q27 0 44.5 -17.5t17.5 -43.5t-18 -43.5t-44 -17.5h-255v-134h175q25 0 42 -16.5t17 -41.5q0 -24 -17 -40.5t-42 -16.5h-175v-167h267q27 0 44.5 -17.5t17.5 -43.5t-18 -43.5t-44 -17.5h-335
q-28 0 -47.5 19.5zM457.5 793.5q6.5 -9.5 6.5 -21.5q0 -21 -14.5 -35.5t-34.5 -14.5q-21 0 -39 16l-83 76l-83 -76q-18 -16 -39 -16q-20 0 -34.5 14.5t-14.5 35.5q0 12 6.5 21.5t23.5 25.5l94 92q22 20 47 20q26 0 47 -20l94 -92q17 -16 23.5 -25.5z" />
    <glyph glyph-name="Edieresis" unicode="&#xcb;" horiz-adv-x="572" 
d="M94.5 19.5q-19.5 19.5 -19.5 47.5v526q0 29 19.5 48t47.5 19h323q27 0 44.5 -17.5t17.5 -43.5t-18 -43.5t-44 -17.5h-255v-134h175q25 0 42 -16.5t17 -41.5q0 -24 -17 -40.5t-42 -16.5h-175v-167h267q27 0 44.5 -17.5t17.5 -43.5t-18 -43.5t-44 -17.5h-335
q-28 0 -47.5 19.5zM109 760.5q-25 23.5 -25 53.5q0 33 24.5 55.5t56.5 22.5q33 0 57 -22.5t24 -55.5q0 -31 -24 -54t-57 -23q-31 0 -56 23.5zM367 759.5q-25 23.5 -25 53.5q0 33 24.5 56t56.5 23q33 0 57 -23t24 -56q0 -31 -24 -54t-57 -23q-31 0 -56 23.5z" />
    <glyph glyph-name="Edotaccent" unicode="&#x116;" horiz-adv-x="572" 
d="M94.5 19.5q-19.5 19.5 -19.5 47.5v526q0 29 19.5 48t47.5 19h323q27 0 44.5 -17.5t17.5 -43.5t-18 -43.5t-44 -17.5h-255v-134h175q25 0 42 -16.5t17 -41.5q0 -24 -17 -40.5t-42 -16.5h-175v-167h267q27 0 44.5 -17.5t17.5 -43.5t-18 -43.5t-44 -17.5h-335
q-28 0 -47.5 19.5zM353 872.5q25 -23.5 25 -57.5t-25 -57.5t-59 -23.5q-35 0 -60 23.5t-25 57.5t25 57.5t60 23.5q34 0 59 -23.5z" />
    <glyph glyph-name="Egrave" unicode="&#xc8;" horiz-adv-x="572" 
d="M94.5 19.5q-19.5 19.5 -19.5 47.5v526q0 29 19.5 48t47.5 19h323q27 0 44.5 -17.5t17.5 -43.5t-18 -43.5t-44 -17.5h-255v-134h175q25 0 42 -16.5t17 -41.5q0 -24 -17 -40.5t-42 -16.5h-175v-167h267q27 0 44.5 -17.5t17.5 -43.5t-18 -43.5t-44 -17.5h-335
q-28 0 -47.5 19.5zM254 724.5q-14 5.5 -25 20.5l-64 90q-14 19 -14 40q0 27 19.5 47t48.5 20q17 0 33 -8t26 -27l52 -100q6 -12 6 -26q0 -24 -15.5 -42.5t-41.5 -19.5q-11 0 -25 5.5z" />
    <glyph glyph-name="Emacron" unicode="&#x112;" horiz-adv-x="572" 
d="M94.5 19.5q-19.5 19.5 -19.5 47.5v526q0 29 19.5 48t47.5 19h323q27 0 44.5 -17.5t17.5 -43.5t-18 -43.5t-44 -17.5h-255v-134h175q25 0 42 -16.5t17 -41.5q0 -24 -17 -40.5t-42 -16.5h-175v-167h267q27 0 44.5 -17.5t17.5 -43.5t-18 -43.5t-44 -17.5h-335
q-28 0 -47.5 19.5zM447.5 848q15.5 -15 15.5 -38t-15.5 -38t-38.5 -15h-229q-23 0 -39 15.5t-16 37.5t16 37.5t39 15.5h229q23 0 38.5 -15z" />
    <glyph glyph-name="Eogonek" unicode="&#x118;" horiz-adv-x="573" 
d="M527.5 -105q11.5 -12 11.5 -32q0 -17 -10 -30t-29 -18q-28 -7 -60 -7q-54 0 -87 27.5t-33 72.5q0 41 46 92h-224q-28 0 -47.5 19.5t-19.5 47.5v526q0 29 19.5 48t47.5 19h323q27 0 44.5 -17.5t17.5 -43.5t-18 -43.5t-44 -17.5h-255v-134h175q25 0 42 -16.5t17 -41.5
q0 -24 -17 -40.5t-42 -16.5h-175v-167h267q27 0 44.5 -17.5t17.5 -43.5q0 -13 -4 -21q-2 -11 -15 -24l-38 -33q-21 -18 -28.5 -29t-7.5 -22q0 -12 9.5 -19t26.5 -7l15 1q19 0 30.5 -12z" />
    <glyph glyph-name="F" unicode="F" horiz-adv-x="534" 
d="M94 7.5q-19 19.5 -19 49.5v534q0 30 19.5 49.5t49.5 19.5h311q27 0 44.5 -17.5t17.5 -43.5t-18 -43.5t-44 -17.5h-245v-165h191q27 0 44.5 -17.5t17.5 -43.5t-18 -43.5t-44 -17.5h-191v-194q0 -29 -19 -49t-48 -20q-30 0 -49 19.5z" />
    <glyph glyph-name="G" unicode="G" horiz-adv-x="747" 
d="M212 33q-81 45 -127.5 123.5t-46.5 173.5t46.5 173.5t127.5 123.5t179 45q67 0 130 -25t104 -68q22 -20 31.5 -37t9.5 -34q0 -25 -18.5 -43t-43.5 -18q-16 0 -29 7t-28 23q-34 36 -72 53t-86 17q-62 0 -110 -27.5t-75 -76.5t-27 -113q0 -65 28 -115t78 -78t114 -28
q55 0 100 20.5t74 58.5v57h-126q-27 0 -45 16.5t-18 41.5t18 42t45 17h192q30 0 49.5 -19.5t19.5 -49.5v-85q0 -43 -21 -75q-45 -66 -125.5 -105.5t-168.5 -39.5q-98 0 -179 45z" />
    <glyph glyph-name="Gbreve" unicode="&#x11e;" horiz-adv-x="747" 
d="M212 33q-81 45 -127.5 123.5t-46.5 173.5t46.5 173.5t127.5 123.5t179 45q67 0 130 -25t104 -68q22 -20 31.5 -37t9.5 -34q0 -25 -18.5 -43t-43.5 -18q-16 0 -29 7t-28 23q-34 36 -72 53t-86 17q-62 0 -110 -27.5t-75 -76.5t-27 -113q0 -65 28 -115t78 -78t114 -28
q55 0 100 20.5t74 58.5v57h-126q-27 0 -45 16.5t-18 41.5t18 42t45 17h192q30 0 49.5 -19.5t19.5 -49.5v-85q0 -43 -21 -75q-45 -66 -125.5 -105.5t-168.5 -39.5q-98 0 -179 45zM306.5 745q-38.5 19 -62.5 51t-24 67q0 23 15 37.5t37 14.5q16 0 28 -9t22 -29q21 -49 66 -49
q23 0 39.5 12.5t25.5 36.5q19 38 51 38q22 0 36.5 -14.5t14.5 -37.5q0 -35 -23.5 -67t-62.5 -51t-81 -19q-43 0 -81.5 19z" />
    <glyph glyph-name="Gcircumflex" unicode="&#x11c;" horiz-adv-x="747" 
d="M212 33q-81 45 -127.5 123.5t-46.5 173.5t46.5 173.5t127.5 123.5t179 45q67 0 130 -25t104 -68q22 -20 31.5 -37t9.5 -34q0 -25 -18.5 -43t-43.5 -18q-16 0 -29 7t-28 23q-34 36 -72 53t-86 17q-62 0 -110 -27.5t-75 -76.5t-27 -113q0 -65 28 -115t78 -78t114 -28
q55 0 100 20.5t74 58.5v57h-126q-27 0 -45 16.5t-18 41.5t18 42t45 17h192q30 0 49.5 -19.5t19.5 -49.5v-85q0 -43 -21 -75q-45 -66 -125.5 -105.5t-168.5 -39.5q-98 0 -179 45zM551.5 793.5q6.5 -9.5 6.5 -21.5q0 -21 -14.5 -35.5t-34.5 -14.5q-21 0 -39 16l-83 76l-83 -76
q-18 -16 -39 -16q-20 0 -34.5 14.5t-14.5 35.5q0 12 6.5 21.5t23.5 25.5l94 92q22 20 47 20q26 0 47 -20l94 -92q17 -16 23.5 -25.5z" />
    <glyph glyph-name="Gcommaaccent" unicode="&#x122;" horiz-adv-x="747" 
d="M212 33q-81 45 -127.5 123.5t-46.5 173.5t46.5 173.5t127.5 123.5t179 45q67 0 130 -25t104 -68q22 -20 31.5 -37t9.5 -34q0 -25 -18.5 -43t-43.5 -18q-16 0 -29 7t-28 23q-34 36 -72 53t-86 17q-62 0 -110 -27.5t-75 -76.5t-27 -113q0 -65 28 -115t78 -78t114 -28
q55 0 100 20.5t74 58.5v57h-126q-27 0 -45 16.5t-18 41.5t18 42t45 17h192q30 0 49.5 -19.5t19.5 -49.5v-85q0 -43 -21 -75q-45 -66 -125.5 -105.5t-168.5 -39.5q-98 0 -179 45zM316.5 -237q-17.5 17 -17.5 39q0 15 5 33q7 35 7 58q0 28 20 47.5t48 19.5t47.5 -19.5
t19.5 -47.5q0 -32 -10.5 -64.5t-26.5 -51.5q-22 -31 -52 -31q-23 0 -40.5 17z" />
    <glyph glyph-name="Gdotaccent" unicode="&#x120;" horiz-adv-x="747" 
d="M212 33q-81 45 -127.5 123.5t-46.5 173.5t46.5 173.5t127.5 123.5t179 45q67 0 130 -25t104 -68q22 -20 31.5 -37t9.5 -34q0 -25 -18.5 -43t-43.5 -18q-16 0 -29 7t-28 23q-34 36 -72 53t-86 17q-62 0 -110 -27.5t-75 -76.5t-27 -113q0 -65 28 -115t78 -78t114 -28
q55 0 100 20.5t74 58.5v57h-126q-27 0 -45 16.5t-18 41.5t18 42t45 17h192q30 0 49.5 -19.5t19.5 -49.5v-85q0 -43 -21 -75q-45 -66 -125.5 -105.5t-168.5 -39.5q-98 0 -179 45zM447 872.5q25 -23.5 25 -57.5t-25 -57.5t-59 -23.5q-35 0 -60 23.5t-25 57.5t25 57.5t60 23.5
q34 0 59 -23.5z" />
    <glyph glyph-name="H" unicode="H" horiz-adv-x="712" 
d="M94.5 8q-19.5 20 -19.5 50v544q0 30 19 50t49 20q29 0 48 -20t19 -50v-195h292v196q0 30 19 49.5t49 19.5q29 0 48 -19.5t19 -49.5v-545q0 -30 -19 -50t-48 -20t-48.5 20t-19.5 50v227h-292v-227q0 -30 -19 -50t-48 -20t-48.5 20z" />
    <glyph glyph-name="Hbar" unicode="&#x126;" horiz-adv-x="732" 
d="M104.5 8q-19.5 20 -19.5 49v379h-43q-25 0 -41 16t-16 40q0 25 16 41t41 16h43v54q0 29 19.5 49t47.5 20q29 0 48.5 -20t19.5 -49v-54h292v54q0 29 19 49t48 20t48.5 -20t19.5 -49v-54h43q25 0 41 -16t16 -41q0 -24 -16 -40t-41 -16h-43v-379q0 -29 -19.5 -49t-48.5 -20
q-28 0 -47.5 20t-19.5 49v157h-292v-157q0 -29 -19.5 -49t-48.5 -20q-28 0 -47.5 20zM512 330v106h-292v-106h292z" />
    <glyph glyph-name="Hcircumflex" unicode="&#x124;" horiz-adv-x="712" 
d="M94.5 8q-19.5 20 -19.5 50v544q0 30 19 50t49 20q29 0 48 -20t19 -50v-195h292v196q0 30 19 49.5t49 19.5q29 0 48 -19.5t19 -49.5v-545q0 -30 -19 -50t-48 -20t-48.5 20t-19.5 50v227h-292v-227q0 -30 -19 -50t-48 -20t-48.5 20zM519.5 793.5q6.5 -9.5 6.5 -21.5
q0 -21 -14.5 -35.5t-34.5 -14.5q-21 0 -39 16l-83 76l-83 -76q-18 -16 -39 -16q-20 0 -34.5 14.5t-14.5 35.5q0 12 6.5 21.5t23.5 25.5l94 92q22 20 47 20q26 0 47 -20l94 -92q17 -16 23.5 -25.5z" />
    <glyph glyph-name="I" unicode="I" horiz-adv-x="285" 
d="M94 7.5q-19 19.5 -19 49.5v546q0 30 19 49.5t49 19.5q29 0 48 -20t19 -49v-546q0 -29 -19 -49t-48 -20q-30 0 -49 19.5z" />
    <glyph glyph-name="IJ" unicode="&#x132;" horiz-adv-x="673" 
d="M94 7.5q-19 19.5 -19 49.5v546q0 30 19 49.5t49 19.5q29 0 48 -20t19 -49v-546q0 -29 -19 -49t-48 -20q-30 0 -49 19.5zM329 -3q-17 8 -28 23.5t-11 33.5q0 26 18 43t45 17l23 -1q16 -2 25 -2q29 0 45.5 17.5t16.5 48.5v426q0 30 19 49.5t49 19.5q29 0 48 -20t19 -49
v-427q0 -93 -52 -140.5t-155 -47.5q-38 0 -62 9z" />
    <glyph glyph-name="Iacute" unicode="&#xcd;" horiz-adv-x="285" 
d="M94 7.5q-19 19.5 -19 49.5v546q0 30 19 49.5t49 19.5q29 0 48 -20t19 -49v-546q0 -29 -19 -49t-48 -20q-30 0 -49 19.5zM117.5 738.5q-15.5 18.5 -15.5 42.5q0 14 6 26l52 100q10 19 26 27t33 8q29 0 48.5 -20.5t19.5 -46.5q0 -23 -14 -40l-64 -90q-11 -15 -25 -20.5
t-25 -5.5q-26 1 -41.5 19.5z" />
    <glyph glyph-name="Ibreve" unicode="&#x12c;" horiz-adv-x="285" 
d="M94 7.5q-19 19.5 -19 49.5v546q0 30 19 49.5t49 19.5q29 0 48 -20t19 -49v-546q0 -29 -19 -49t-48 -20q-30 0 -49 19.5zM61.5 745q-38.5 19 -62.5 51t-24 67q0 23 15 37.5t37 14.5q16 0 28 -9t22 -29q21 -49 66 -49q23 0 39.5 12.5t25.5 36.5q19 38 51 38
q22 0 36.5 -14.5t14.5 -37.5q0 -35 -23.5 -67t-62.5 -51t-81 -19q-43 0 -81.5 19z" />
    <glyph glyph-name="Icircumflex" unicode="&#xce;" horiz-adv-x="285" 
d="M94 7.5q-19 19.5 -19 49.5v546q0 30 19 49.5t49 19.5q29 0 48 -20t19 -49v-546q0 -29 -19 -49t-48 -20q-30 0 -49 19.5zM306.5 793.5q6.5 -9.5 6.5 -21.5q0 -21 -14.5 -35.5t-34.5 -14.5q-21 0 -39 16l-83 76l-83 -76q-18 -16 -39 -16q-20 0 -34.5 14.5t-14.5 35.5
q0 12 6.5 21.5t23.5 25.5l94 92q22 20 47 20q26 0 47 -20l94 -92q17 -16 23.5 -25.5z" />
    <glyph glyph-name="Idieresis" unicode="&#xcf;" horiz-adv-x="285" 
d="M94 7.5q-19 19.5 -19 49.5v546q0 30 19 49.5t49 19.5q29 0 48 -20t19 -49v-546q0 -29 -19 -49t-48 -20q-30 0 -49 19.5zM-42 760.5q-25 23.5 -25 53.5q0 33 24.5 55.5t56.5 22.5q33 0 57 -22.5t24 -55.5q0 -31 -24 -54t-57 -23q-31 0 -56 23.5zM216 759.5
q-25 23.5 -25 53.5q0 33 24.5 56t56.5 23q33 0 57 -23t24 -56q0 -31 -24 -54t-57 -23q-31 0 -56 23.5z" />
    <glyph glyph-name="Idotaccent" unicode="&#x130;" horiz-adv-x="285" 
d="M94 7.5q-19 19.5 -19 49.5v546q0 30 19 49.5t49 19.5q29 0 48 -20t19 -49v-546q0 -29 -19 -49t-48 -20q-30 0 -49 19.5zM202 872.5q25 -23.5 25 -57.5t-25 -57.5t-59 -23.5q-35 0 -60 23.5t-25 57.5t25 57.5t60 23.5q34 0 59 -23.5z" />
    <glyph glyph-name="Igrave" unicode="&#xcc;" horiz-adv-x="285" 
d="M94 7.5q-19 19.5 -19 49.5v546q0 30 19 49.5t49 19.5q29 0 48 -20t19 -49v-546q0 -29 -19 -49t-48 -20q-30 0 -49 19.5zM103 724.5q-14 5.5 -25 20.5l-64 90q-14 19 -14 40q0 27 19.5 47t48.5 20q17 0 33 -8t26 -27l52 -100q6 -12 6 -26q0 -24 -15.5 -42.5t-41.5 -19.5
q-11 0 -25 5.5z" />
    <glyph glyph-name="Imacron" unicode="&#x12a;" horiz-adv-x="285" 
d="M94 7.5q-19 19.5 -19 49.5v546q0 30 19 49.5t49 19.5q29 0 48 -20t19 -49v-546q0 -29 -19 -49t-48 -20q-30 0 -49 19.5zM296.5 848q15.5 -15 15.5 -38t-15.5 -38t-38.5 -15h-229q-23 0 -39 15.5t-16 37.5t16 37.5t39 15.5h229q23 0 38.5 -15z" />
    <glyph glyph-name="Iogonek" unicode="&#x12e;" horiz-adv-x="285" 
d="M94 7.5q-19 19.5 -19 49.5v546q0 30 19 49.5t49 19.5q29 0 48 -20t19 -49v-546q0 -29 -19 -49t-48 -20q-30 0 -49 19.5zM39.5 -164q-32.5 28 -32.5 75q0 36 21 66t69 69q46 37 72 37q16 0 28.5 -11.5t12.5 -26.5q0 -23 -21 -41q-27 -23 -41.5 -40t-14.5 -32q0 -12 9 -19
t26 -7l16 1q19 0 30 -12t11 -32q0 -18 -10 -30.5t-28 -17.5q-28 -7 -60 -7q-55 0 -87.5 28z" />
    <glyph glyph-name="Itilde" unicode="&#x128;" horiz-adv-x="285" 
d="M94 7.5q-19 19.5 -19 49.5v546q0 30 19 49.5t49 19.5q29 0 48 -20t19 -49v-546q0 -29 -19 -49t-48 -20q-30 0 -49 19.5zM-42 732.5q-15 15.5 -15 41.5q0 57 33 93t84 36q37 0 74 -21l31 -18q13 -7 24 -12t20 -5q24 0 30 27q5 17 18 27t32 10q25 0 39.5 -15.5t14.5 -41.5
q0 -57 -32.5 -93t-84.5 -36q-37 0 -74 21l-30 17q-17 9 -26.5 13t-18.5 4q-12 0 -19 -6.5t-11 -20.5q-5 -17 -17.5 -26.5t-31.5 -9.5q-25 0 -40 15.5z" />
    <glyph glyph-name="J" unicode="J" horiz-adv-x="388" 
d="M44 -3q-17 8 -28 23.5t-11 33.5q0 26 18 43t45 17l23 -1q16 -2 25 -2q29 0 45.5 17.5t16.5 48.5v426q0 30 19 49.5t49 19.5q29 0 48 -20t19 -49v-427q0 -93 -52 -140.5t-155 -47.5q-38 0 -62 9z" />
    <glyph glyph-name="Jcircumflex" unicode="&#x134;" horiz-adv-x="388" 
d="M44 -3q-17 8 -28 23.5t-11 33.5q0 26 18 43t45 17l23 -1q16 -2 25 -2q29 0 45.5 17.5t16.5 48.5v426q0 30 19 49.5t49 19.5q29 0 48 -20t19 -49v-427q0 -93 -52 -140.5t-155 -47.5q-38 0 -62 9zM391.5 793.5q6.5 -9.5 6.5 -21.5q0 -21 -14.5 -35.5t-34.5 -14.5
q-21 0 -39 16l-83 76l-83 -76q-18 -16 -39 -16q-20 0 -34.5 14.5t-14.5 35.5q0 12 6.5 21.5t23.5 25.5l94 92q22 20 47 20q26 0 47 -20l94 -92q17 -16 23.5 -25.5z" />
    <glyph glyph-name="K" unicode="K" horiz-adv-x="670" 
d="M190.5 652q19.5 -20 19.5 -49v-546q0 -29 -19.5 -49t-47.5 -20q-29 0 -48.5 20t-19.5 49v546q0 30 19 49.5t49 19.5q28 0 47.5 -20zM623 52q0 -26 -19 -45t-44 -19q-31 0 -54 28l-251 289q-18 21 -18 45q0 22 19 43l238 257q12 12 23 17t26 5q25 0 43 -18.5t18 -44.5
q0 -24 -20 -45l-199 -215l221 -256q17 -20 17 -41z" />
    <glyph glyph-name="Kcommaaccent" unicode="&#x136;" horiz-adv-x="670" 
d="M190.5 652q19.5 -20 19.5 -49v-546q0 -29 -19.5 -49t-47.5 -20q-29 0 -48.5 20t-19.5 49v546q0 30 19 49.5t49 19.5q28 0 47.5 -20zM623 52q0 -26 -19 -45t-44 -19q-31 0 -54 28l-251 289q-18 21 -18 45q0 22 19 43l238 257q12 12 23 17t26 5q25 0 43 -18.5t18 -44.5
q0 -24 -20 -45l-199 -215l221 -256q17 -20 17 -41zM267.5 -237q-17.5 17 -17.5 39q0 15 5 33q7 35 7 58q0 28 20 47.5t48 19.5t47.5 -19.5t19.5 -47.5q0 -32 -10.5 -64.5t-26.5 -51.5q-22 -31 -52 -31q-23 0 -40.5 17z" />
    <glyph glyph-name="L" unicode="L" horiz-adv-x="523" 
d="M94.5 19.5q-19.5 19.5 -19.5 49.5v534q0 28 19.5 48.5t48.5 20.5t48 -20t19 -49v-481h235q27 0 44.5 -17.5t17.5 -43.5t-17.5 -43.5t-44.5 -17.5h-301q-30 0 -49.5 19.5z" />
    <glyph glyph-name="Lacute" unicode="&#x139;" horiz-adv-x="523" 
d="M94.5 19.5q-19.5 19.5 -19.5 49.5v534q0 28 19.5 48.5t48.5 20.5t48 -20t19 -49v-481h235q27 0 44.5 -17.5t17.5 -43.5t-17.5 -43.5t-44.5 -17.5h-301q-30 0 -49.5 19.5zM117.5 738.5q-15.5 18.5 -15.5 42.5q0 14 6 26l52 100q10 19 26 27t33 8q29 0 48.5 -20.5
t19.5 -46.5q0 -23 -14 -40l-64 -90q-11 -15 -25 -20.5t-25 -5.5q-26 1 -41.5 19.5z" />
    <glyph glyph-name="Lcaron" unicode="&#x13d;" horiz-adv-x="523" 
d="M94.5 19.5q-19.5 19.5 -19.5 49.5v534q0 28 19.5 48.5t48.5 20.5t48 -20t19 -49v-481h235q27 0 44.5 -17.5t17.5 -43.5t-17.5 -43.5t-44.5 -17.5h-301q-30 0 -49.5 19.5zM384 522.5q-18 17.5 -18 43.5q0 8 1 12l17 112q3 24 21.5 42t45.5 18t47.5 -19t20.5 -48
q0 -11 -5 -26l-32 -111q-15 -41 -56 -41q-24 0 -42 17.5z" />
    <glyph glyph-name="Lcommaaccent" unicode="&#x13b;" horiz-adv-x="523" 
d="M94.5 19.5q-19.5 19.5 -19.5 49.5v534q0 28 19.5 48.5t48.5 20.5t48 -20t19 -49v-481h235q27 0 44.5 -17.5t17.5 -43.5t-17.5 -43.5t-44.5 -17.5h-301q-30 0 -49.5 19.5zM217.5 -237q-17.5 17 -17.5 39q0 15 5 33q7 35 7 58q0 28 20 47.5t48 19.5t47.5 -19.5t19.5 -47.5
q0 -32 -10.5 -64.5t-26.5 -51.5q-22 -31 -52 -31q-23 0 -40.5 17z" />
    <glyph glyph-name="Ldot" unicode="&#x13f;" horiz-adv-x="524" 
d="M94.5 19.5q-19.5 19.5 -19.5 49.5v534q0 28 19.5 48.5t48.5 20.5t48 -20t19 -49v-481h235q27 0 44.5 -17.5t17.5 -43.5t-17.5 -43.5t-44.5 -17.5h-301q-30 0 -49.5 19.5zM338 312q-27 27 -27 66t27 66t67 27q39 0 65.5 -27t26.5 -66t-26.5 -66t-65.5 -27q-40 0 -67 27z
" />
    <glyph glyph-name="Lslash" unicode="&#x141;" horiz-adv-x="524" 
d="M489.5 104.5q17.5 -17.5 17.5 -43.5t-17.5 -43.5t-44.5 -17.5h-301q-30 0 -49.5 19.5t-19.5 49.5v134q-9 -4 -21 -4q-24 0 -41 15.5t-17 39.5q0 20 10.5 34t33.5 24l35 16v275q0 28 19.5 48.5t48.5 20.5t48 -20t19 -49v-220l125 56q14 6 26 6q23 0 39.5 -15.5t16.5 -39.5
q0 -20 -10 -33.5t-33 -24.5l-164 -74v-136h235q27 0 44.5 -17.5z" />
    <glyph glyph-name="M" unicode="M" horiz-adv-x="796" 
d="M702 652q19 -20 19 -50v-545q0 -29 -19.5 -49t-47.5 -20q-29 0 -48.5 20t-19.5 49v326l-124 -195q-14 -23 -29 -33t-35 -10q-19 0 -34.5 10t-29.5 33l-124 197v-328q0 -29 -19.5 -49t-47.5 -20q-29 0 -48.5 20t-19.5 49v545q0 30 19 50t47 20q22 0 38 -11.5t33 -40.5
l186 -295l186 295q18 29 33.5 40.5t37.5 11.5q28 0 47 -20z" />
    <glyph glyph-name="N" unicode="N" horiz-adv-x="712" 
d="M617.5 652q19.5 -20 19.5 -49v-547q0 -29 -19 -48.5t-47 -19.5q-22 0 -36 10t-31 31l-294 378v-350q0 -29 -19.5 -49t-47.5 -20q-29 0 -48.5 20t-19.5 49v547q0 29 19 48.5t47 19.5q23 0 36.5 -10t32.5 -34l293 -375l-1 350q0 29 19.5 49t48.5 20q28 0 47.5 -20z" />
    <glyph glyph-name="Nacute" unicode="&#x143;" horiz-adv-x="712" 
d="M617.5 652q19.5 -20 19.5 -49v-547q0 -29 -19 -48.5t-47 -19.5q-22 0 -36 10t-31 31l-294 378v-350q0 -29 -19.5 -49t-47.5 -20q-29 0 -48.5 20t-19.5 49v547q0 29 19 48.5t47 19.5q23 0 36.5 -10t32.5 -34l293 -375l-1 350q0 29 19.5 49t48.5 20q28 0 47.5 -20z
M330.5 738.5q-15.5 18.5 -15.5 42.5q0 14 6 26l52 100q10 19 26 27t33 8q29 0 48.5 -20.5t19.5 -46.5q0 -23 -14 -40l-64 -90q-11 -15 -25 -20.5t-25 -5.5q-26 1 -41.5 19.5z" />
    <glyph glyph-name="Ncaron" unicode="&#x147;" horiz-adv-x="712" 
d="M617.5 652q19.5 -20 19.5 -49v-547q0 -29 -19 -48.5t-47 -19.5q-22 0 -36 10t-31 31l-294 378v-350q0 -29 -19.5 -49t-47.5 -20q-29 0 -48.5 20t-19.5 49v547q0 29 19 48.5t47 19.5q23 0 36.5 -10t32.5 -34l293 -375l-1 350q0 29 19.5 49t48.5 20q28 0 47.5 -20z
M511.5 916.5q14.5 -14.5 14.5 -35.5q0 -12 -6.5 -21.5t-23.5 -25.5l-94 -92q-21 -20 -47 -20q-25 0 -47 20l-94 92q-17 16 -23.5 25.5t-6.5 21.5q0 21 14.5 35.5t34.5 14.5q21 0 39 -16l83 -76l83 76q18 16 39 16q20 0 34.5 -14.5z" />
    <glyph glyph-name="Ncommaaccent" unicode="&#x145;" horiz-adv-x="712" 
d="M617.5 652q19.5 -20 19.5 -49v-547q0 -29 -19 -48.5t-47 -19.5q-22 0 -36 10t-31 31l-294 378v-350q0 -29 -19.5 -49t-47.5 -20q-29 0 -48.5 20t-19.5 49v547q0 29 19 48.5t47 19.5q23 0 36.5 -10t32.5 -34l293 -375l-1 350q0 29 19.5 49t48.5 20q28 0 47.5 -20z
M291.5 -237q-17.5 17 -17.5 39q0 15 5 33q7 35 7 58q0 28 20 47.5t48 19.5t47.5 -19.5t19.5 -47.5q0 -32 -10.5 -64.5t-26.5 -51.5q-22 -31 -52 -31q-23 0 -40.5 17z" />
    <glyph glyph-name="Eng" unicode="&#x14a;" horiz-adv-x="713" 
d="M638 103v-109q0 -91 -48.5 -138.5t-141.5 -47.5q-38 0 -59 12q-32 18 -32 53q0 27 18.5 45t47.5 18h9q34 0 52.5 17t18.5 49v28l-293 377v-350q0 -29 -19.5 -49t-47.5 -20q-29 0 -48.5 20t-19.5 49v547q0 29 19 48.5t47 19.5q23 0 36.5 -10t32.5 -34l293 -375l-1 350
q0 29 19.5 49t48.5 20q28 0 47.5 -20t19.5 -49v-500h1z" />
    <glyph glyph-name="Ntilde" unicode="&#xd1;" horiz-adv-x="712" 
d="M617.5 652q19.5 -20 19.5 -49v-547q0 -29 -19 -48.5t-47 -19.5q-22 0 -36 10t-31 31l-294 378v-350q0 -29 -19.5 -49t-47.5 -20q-29 0 -48.5 20t-19.5 49v547q0 29 19 48.5t47 19.5q23 0 36.5 -10t32.5 -34l293 -375l-1 350q0 29 19.5 49t48.5 20q28 0 47.5 -20z
M171 732.5q-15 15.5 -15 41.5q0 57 33 93t84 36q37 0 74 -21l31 -18q13 -7 24 -12t20 -5q24 0 30 27q5 17 18 27t32 10q25 0 39.5 -15.5t14.5 -41.5q0 -57 -32.5 -93t-84.5 -36q-37 0 -74 21l-30 17q-17 9 -26.5 13t-18.5 4q-12 0 -19 -6.5t-11 -20.5q-5 -17 -17.5 -26.5
t-31.5 -9.5q-25 0 -40 15.5z" />
    <glyph glyph-name="O" unicode="O" horiz-adv-x="778" 
d="M565.5 626.5q80.5 -45.5 127.5 -124t47 -172.5t-47 -172.5t-127.5 -124t-177.5 -45.5t-177 45.5t-126.5 123.5t-46.5 173t46.5 173t126.5 123.5t177 45.5t177.5 -45.5zM279.5 519.5q-48.5 -27.5 -75.5 -77t-27 -112.5t27 -112.5t75.5 -77t109.5 -27.5t109 28t75.5 77.5
t27.5 111.5t-27.5 111.5t-75.5 77.5t-109 28t-109.5 -27.5z" />
    <glyph glyph-name="Oacute" unicode="&#xd3;" horiz-adv-x="778" 
d="M565.5 626.5q80.5 -45.5 127.5 -124t47 -172.5t-47 -172.5t-127.5 -124t-177.5 -45.5t-177 45.5t-126.5 123.5t-46.5 173t46.5 173t126.5 123.5t177 45.5t177.5 -45.5zM279.5 519.5q-48.5 -27.5 -75.5 -77t-27 -112.5t27 -112.5t75.5 -77t109.5 -27.5t109 28t75.5 77.5
t27.5 111.5t-27.5 111.5t-75.5 77.5t-109 28t-109.5 -27.5zM363.5 738.5q-15.5 18.5 -15.5 42.5q0 14 6 26l52 100q10 19 26 27t33 8q29 0 48.5 -20.5t19.5 -46.5q0 -23 -14 -40l-64 -90q-11 -15 -25 -20.5t-25 -5.5q-26 1 -41.5 19.5z" />
    <glyph glyph-name="Obreve" unicode="&#x14e;" horiz-adv-x="778" 
d="M565.5 626.5q80.5 -45.5 127.5 -124t47 -172.5t-47 -172.5t-127.5 -124t-177.5 -45.5t-177 45.5t-126.5 123.5t-46.5 173t46.5 173t126.5 123.5t177 45.5t177.5 -45.5zM279.5 519.5q-48.5 -27.5 -75.5 -77t-27 -112.5t27 -112.5t75.5 -77t109.5 -27.5t109 28t75.5 77.5
t27.5 111.5t-27.5 111.5t-75.5 77.5t-109 28t-109.5 -27.5zM307.5 745q-38.5 19 -62.5 51t-24 67q0 23 15 37.5t37 14.5q16 0 28 -9t22 -29q21 -49 66 -49q23 0 39.5 12.5t25.5 36.5q19 38 51 38q22 0 36.5 -14.5t14.5 -37.5q0 -35 -23.5 -67t-62.5 -51t-81 -19
q-43 0 -81.5 19z" />
    <glyph glyph-name="Ocircumflex" unicode="&#xd4;" horiz-adv-x="778" 
d="M565.5 626.5q80.5 -45.5 127.5 -124t47 -172.5t-47 -172.5t-127.5 -124t-177.5 -45.5t-177 45.5t-126.5 123.5t-46.5 173t46.5 173t126.5 123.5t177 45.5t177.5 -45.5zM279.5 519.5q-48.5 -27.5 -75.5 -77t-27 -112.5t27 -112.5t75.5 -77t109.5 -27.5t109 28t75.5 77.5
t27.5 111.5t-27.5 111.5t-75.5 77.5t-109 28t-109.5 -27.5zM552.5 793.5q6.5 -9.5 6.5 -21.5q0 -21 -14.5 -35.5t-34.5 -14.5q-21 0 -39 16l-83 76l-83 -76q-18 -16 -39 -16q-20 0 -34.5 14.5t-14.5 35.5q0 12 6.5 21.5t23.5 25.5l94 92q22 20 47 20q26 0 47 -20l94 -92
q17 -16 23.5 -25.5z" />
    <glyph glyph-name="Odieresis" unicode="&#xd6;" horiz-adv-x="778" 
d="M565.5 626.5q80.5 -45.5 127.5 -124t47 -172.5t-47 -172.5t-127.5 -124t-177.5 -45.5t-177 45.5t-126.5 123.5t-46.5 173t46.5 173t126.5 123.5t177 45.5t177.5 -45.5zM279.5 519.5q-48.5 -27.5 -75.5 -77t-27 -112.5t27 -112.5t75.5 -77t109.5 -27.5t109 28t75.5 77.5
t27.5 111.5t-27.5 111.5t-75.5 77.5t-109 28t-109.5 -27.5zM204 760.5q-25 23.5 -25 53.5q0 33 24.5 55.5t56.5 22.5q33 0 57 -22.5t24 -55.5q0 -31 -24 -54t-57 -23q-31 0 -56 23.5zM462 759.5q-25 23.5 -25 53.5q0 33 24.5 56t56.5 23q33 0 57 -23t24 -56q0 -31 -24 -54
t-57 -23q-31 0 -56 23.5z" />
    <glyph glyph-name="Ograve" unicode="&#xd2;" horiz-adv-x="778" 
d="M565.5 626.5q80.5 -45.5 127.5 -124t47 -172.5t-47 -172.5t-127.5 -124t-177.5 -45.5t-177 45.5t-126.5 123.5t-46.5 173t46.5 173t126.5 123.5t177 45.5t177.5 -45.5zM279.5 519.5q-48.5 -27.5 -75.5 -77t-27 -112.5t27 -112.5t75.5 -77t109.5 -27.5t109 28t75.5 77.5
t27.5 111.5t-27.5 111.5t-75.5 77.5t-109 28t-109.5 -27.5zM349 724.5q-14 5.5 -25 20.5l-64 90q-14 19 -14 40q0 27 19.5 47t48.5 20q17 0 33 -8t26 -27l52 -100q6 -12 6 -26q0 -24 -15.5 -42.5t-41.5 -19.5q-11 0 -25 5.5z" />
    <glyph glyph-name="Ohungarumlaut" unicode="&#x150;" horiz-adv-x="778" 
d="M565.5 626.5q80.5 -45.5 127.5 -124t47 -172.5t-47 -172.5t-127.5 -124t-177.5 -45.5t-177 45.5t-126.5 123.5t-46.5 173t46.5 173t126.5 123.5t177 45.5t177.5 -45.5zM279.5 519.5q-48.5 -27.5 -75.5 -77t-27 -112.5t27 -112.5t75.5 -77t109.5 -27.5t109 28t75.5 77.5
t27.5 111.5t-27.5 111.5t-75.5 77.5t-109 28t-109.5 -27.5zM249.5 738.5q-15.5 18.5 -15.5 42.5q0 14 6 26l52 100q10 19 26 27t33 8q29 0 48.5 -20.5t19.5 -46.5q0 -23 -14 -40l-64 -90q-11 -15 -25 -20.5t-25 -5.5q-26 1 -41.5 19.5zM464.5 738.5q-15.5 18.5 -15.5 42.5
q0 14 6 26l52 100q10 19 26 27t33 8q29 0 48.5 -20.5t19.5 -46.5q0 -23 -14 -40l-64 -90q-11 -15 -25 -20.5t-25 -5.5q-26 1 -41.5 19.5z" />
    <glyph glyph-name="Omacron" unicode="&#x14c;" horiz-adv-x="778" 
d="M565.5 626.5q80.5 -45.5 127.5 -124t47 -172.5t-47 -172.5t-127.5 -124t-177.5 -45.5t-177 45.5t-126.5 123.5t-46.5 173t46.5 173t126.5 123.5t177 45.5t177.5 -45.5zM279.5 519.5q-48.5 -27.5 -75.5 -77t-27 -112.5t27 -112.5t75.5 -77t109.5 -27.5t109 28t75.5 77.5
t27.5 111.5t-27.5 111.5t-75.5 77.5t-109 28t-109.5 -27.5zM542.5 848q15.5 -15 15.5 -38t-15.5 -38t-38.5 -15h-229q-23 0 -39 15.5t-16 37.5t16 37.5t39 15.5h229q23 0 38.5 -15z" />
    <glyph glyph-name="Oslash" unicode="&#xd8;" horiz-adv-x="779" 
d="M722.5 437.5q17.5 -51.5 17.5 -107.5q0 -94 -47 -172.5t-127.5 -124t-176.5 -45.5q-112 0 -200 60l-39 -39q-21 -21 -46 -21q-22 0 -38.5 17t-16.5 40q0 25 19 44l38 38q-32 43 -49.5 94.5t-17.5 108.5q0 95 46.5 173t126.5 123.5t177 45.5q111 0 201 -60l39 39
q21 21 46 21q22 0 38.5 -17t16.5 -40q0 -25 -19 -44l-38 -38q32 -44 49.5 -95.5zM197 218l305 306q-52 29 -112 29q-63 0 -113 -28.5t-78 -79.5t-28 -115q0 -62 26 -112zM501.5 135.5q49.5 28.5 77.5 79.5t28 115q0 61 -26 111l-304 -305q49 -29 113 -29q62 0 111.5 28.5z
" />
    <glyph glyph-name="Oslashacute" unicode="&#x1fe;" horiz-adv-x="779" 
d="M722.5 437.5q17.5 -51.5 17.5 -107.5q0 -94 -47 -172.5t-127.5 -124t-176.5 -45.5q-112 0 -200 60l-39 -39q-21 -21 -46 -21q-22 0 -38.5 17t-16.5 40q0 25 19 44l38 38q-32 43 -49.5 94.5t-17.5 108.5q0 95 46.5 173t126.5 123.5t177 45.5q111 0 201 -60l39 39
q21 21 46 21q22 0 38.5 -17t16.5 -40q0 -25 -19 -44l-38 -38q32 -44 49.5 -95.5zM197 218l305 306q-52 29 -112 29q-63 0 -113 -28.5t-78 -79.5t-28 -115q0 -62 26 -112zM501.5 135.5q49.5 28.5 77.5 79.5t28 115q0 61 -26 111l-304 -305q49 -29 113 -29q62 0 111.5 28.5z
M364.5 738.5q-15.5 18.5 -15.5 42.5q0 14 6 26l52 100q10 19 26 27t33 8q29 0 48.5 -20.5t19.5 -46.5q0 -23 -14 -40l-64 -90q-11 -15 -25 -20.5t-25 -5.5q-26 1 -41.5 19.5z" />
    <glyph glyph-name="Otilde" unicode="&#xd5;" horiz-adv-x="778" 
d="M565.5 626.5q80.5 -45.5 127.5 -124t47 -172.5t-47 -172.5t-127.5 -124t-177.5 -45.5t-177 45.5t-126.5 123.5t-46.5 173t46.5 173t126.5 123.5t177 45.5t177.5 -45.5zM279.5 519.5q-48.5 -27.5 -75.5 -77t-27 -112.5t27 -112.5t75.5 -77t109.5 -27.5t109 28t75.5 77.5
t27.5 111.5t-27.5 111.5t-75.5 77.5t-109 28t-109.5 -27.5zM204 732.5q-15 15.5 -15 41.5q0 57 33 93t84 36q37 0 74 -21l31 -18q13 -7 24 -12t20 -5q24 0 30 27q5 17 18 27t32 10q25 0 39.5 -15.5t14.5 -41.5q0 -57 -32.5 -93t-84.5 -36q-37 0 -74 21l-30 17
q-17 9 -26.5 13t-18.5 4q-12 0 -19 -6.5t-11 -20.5q-5 -17 -17.5 -26.5t-31.5 -9.5q-25 0 -40 15.5z" />
    <glyph glyph-name="OE" unicode="&#x152;" horiz-adv-x="1098" 
d="M1046.5 104.5q17.5 -17.5 17.5 -43.5t-18 -43.5t-44 -17.5h-335q-28 0 -47.5 19.5t-19.5 47.5v2q-39 -39 -94 -60t-119 -21q-97 0 -177 45t-126 123t-46 174q0 95 46 173.5t126 123.5t178 45q63 0 118 -21t94 -59v1q0 29 19.5 48t47.5 19h323q27 0 44.5 -17.5t17.5 -43.5
t-18 -43.5t-44 -17.5h-255v-134h175q25 0 42 -16.5t17 -41.5q0 -24 -17 -40.5t-42 -16.5h-175v-167h267q27 0 44.5 -17.5zM491.5 137.5q46.5 24.5 75 68.5t33.5 100v46q-5 57 -33.5 101.5t-75 69t-103.5 24.5q-61 0 -109 -28t-75 -77.5t-27 -112.5q0 -62 27 -111.5t75 -77
t109 -27.5q57 0 103.5 24.5z" />
    <glyph glyph-name="P" unicode="P" horiz-adv-x="593" 
d="M94.5 8q-19.5 20 -19.5 49v534q0 30 19.5 49.5t49.5 19.5h180q70 0 123.5 -26.5t83.5 -75t30 -111.5q0 -62 -30 -111t-84 -76t-123 -27h-114v-176q0 -29 -19.5 -49t-47.5 -20q-29 0 -48.5 20zM323 351q46 0 73 26t27 70q0 43 -27 68.5t-73 25.5h-113v-190h113z" />
    <glyph glyph-name="Thorn" unicode="&#xde;" horiz-adv-x="593" 
d="M190.5 652q19.5 -20 19.5 -49v-44h114q70 0 123.5 -27t83.5 -76t30 -112t-30 -112t-84 -76.5t-123 -27.5h-114v-71q0 -29 -19.5 -49t-47.5 -20q-29 0 -48.5 20t-19.5 49v546q0 30 19 49.5t49 19.5q28 0 47.5 -20zM210 440v-194h113q46 0 73 26.5t27 70.5t-27 70.5
t-73 26.5h-113z" />
    <glyph glyph-name="Q" unicode="Q" horiz-adv-x="778" 
d="M1051.5 -118q15.5 -14 15.5 -39q0 -37 -36 -50q-34 -14 -93 -14q-136 0 -249 58t-190 168q-54 -17 -111 -17q-97 0 -177 45.5t-126.5 123.5t-46.5 173t46.5 173t126.5 123.5t177 45.5t177.5 -45.5t127.5 -124t47 -172.5q0 -80 -34.5 -149.5t-94.5 -116.5q67 -88 152 -129
t198 -41q18 0 30 1t19 1q26 0 41.5 -14zM204 218.5q27 -49.5 75.5 -77.5t109.5 -28t109 28t75.5 77.5t27.5 111.5t-27.5 111.5t-76 77.5t-109.5 28t-109 -27.5t-75 -77t-27 -112.5q0 -62 27 -111.5z" />
    <glyph glyph-name="R" unicode="R" horiz-adv-x="640" 
d="M596 50q0 -25 -18.5 -43.5t-44.5 -18.5q-36 0 -60 35l-148 210h-1h-114v-176q0 -29 -19.5 -49t-47.5 -20q-29 0 -48.5 20t-19.5 49v535q0 29 19.5 48.5t49.5 19.5h180q70 0 123.5 -26.5t83.5 -75t30 -110.5q0 -59 -27 -106.5t-76 -75.5l119 -165q19 -28 19 -51zM210 352
h113q46 0 73 25.5t27 69.5q0 43 -27 68.5t-73 25.5h-113v-189z" />
    <glyph glyph-name="Racute" unicode="&#x154;" horiz-adv-x="640" 
d="M596 50q0 -25 -18.5 -43.5t-44.5 -18.5q-36 0 -60 35l-148 210h-1h-114v-176q0 -29 -19.5 -49t-47.5 -20q-29 0 -48.5 20t-19.5 49v535q0 29 19.5 48.5t49.5 19.5h180q70 0 123.5 -26.5t83.5 -75t30 -110.5q0 -59 -27 -106.5t-76 -75.5l119 -165q19 -28 19 -51zM210 352
h113q46 0 73 25.5t27 69.5q0 43 -27 68.5t-73 25.5h-113v-189zM248.5 738.5q-15.5 18.5 -15.5 42.5q0 14 6 26l52 100q10 19 26 27t33 8q29 0 48.5 -20.5t19.5 -46.5q0 -23 -14 -40l-64 -90q-11 -15 -25 -20.5t-25 -5.5q-26 1 -41.5 19.5z" />
    <glyph glyph-name="Rcaron" unicode="&#x158;" horiz-adv-x="640" 
d="M596 50q0 -25 -18.5 -43.5t-44.5 -18.5q-36 0 -60 35l-148 210h-1h-114v-176q0 -29 -19.5 -49t-47.5 -20q-29 0 -48.5 20t-19.5 49v535q0 29 19.5 48.5t49.5 19.5h180q70 0 123.5 -26.5t83.5 -75t30 -110.5q0 -59 -27 -106.5t-76 -75.5l119 -165q19 -28 19 -51zM210 352
h113q46 0 73 25.5t27 69.5q0 43 -27 68.5t-73 25.5h-113v-189zM429.5 916.5q14.5 -14.5 14.5 -35.5q0 -12 -6.5 -21.5t-23.5 -25.5l-94 -92q-21 -20 -47 -20q-25 0 -47 20l-94 92q-17 16 -23.5 25.5t-6.5 21.5q0 21 14.5 35.5t34.5 14.5q21 0 39 -16l83 -76l83 76
q18 16 39 16q20 0 34.5 -14.5z" />
    <glyph glyph-name="Rcommaaccent" unicode="&#x156;" horiz-adv-x="640" 
d="M596 50q0 -25 -18.5 -43.5t-44.5 -18.5q-36 0 -60 35l-148 210h-1h-114v-176q0 -29 -19.5 -49t-47.5 -20q-29 0 -48.5 20t-19.5 49v535q0 29 19.5 48.5t49.5 19.5h180q70 0 123.5 -26.5t83.5 -75t30 -110.5q0 -59 -27 -106.5t-76 -75.5l119 -165q19 -28 19 -51zM210 352
h113q46 0 73 25.5t27 69.5q0 43 -27 68.5t-73 25.5h-113v-189zM251.5 -237q-17.5 17 -17.5 39q0 15 5 33q7 35 7 58q0 28 20 47.5t48 19.5t47.5 -19.5t19.5 -47.5q0 -32 -10.5 -64.5t-26.5 -51.5q-22 -31 -52 -31q-23 0 -40.5 17z" />
    <glyph glyph-name="S" unicode="S" horiz-adv-x="559" 
d="M167.5 12.5q-58.5 24.5 -95.5 64.5q-25 25 -25 52q1 26 19 43t43 17q21 0 35 -13q66 -68 141 -68q44 0 69 19.5t25 53.5q0 27 -17.5 43.5t-66.5 38.5l-71 32q-81 37 -120.5 82.5t-39.5 107.5q0 55 28.5 97.5t78.5 66t112 23.5q66 0 112 -23.5t73 -54.5q18 -19 18 -43
q0 -25 -19 -42.5t-43 -17.5q-20 0 -37 14q-25 22 -48.5 34.5t-55.5 12.5q-37 0 -59.5 -17t-22.5 -47q0 -24 16 -39.5t61 -36.5l75 -33q85 -38 124 -82.5t39 -110.5q0 -60 -30 -105t-82.5 -69t-118.5 -24q-59 0 -117.5 24.5z" />
    <glyph glyph-name="Sacute" unicode="&#x15a;" horiz-adv-x="559" 
d="M167.5 12.5q-58.5 24.5 -95.5 64.5q-25 25 -25 52q1 26 19 43t43 17q21 0 35 -13q66 -68 141 -68q44 0 69 19.5t25 53.5q0 27 -17.5 43.5t-66.5 38.5l-71 32q-81 37 -120.5 82.5t-39.5 107.5q0 55 28.5 97.5t78.5 66t112 23.5q66 0 112 -23.5t73 -54.5q18 -19 18 -43
q0 -25 -19 -42.5t-43 -17.5q-20 0 -37 14q-25 22 -48.5 34.5t-55.5 12.5q-37 0 -59.5 -17t-22.5 -47q0 -24 16 -39.5t61 -36.5l75 -33q85 -38 124 -82.5t39 -110.5q0 -60 -30 -105t-82.5 -69t-118.5 -24q-59 0 -117.5 24.5zM254.5 738.5q-15.5 18.5 -15.5 42.5q0 14 6 26
l52 100q10 19 26 27t33 8q29 0 48.5 -20.5t19.5 -46.5q0 -23 -14 -40l-64 -90q-11 -15 -25 -20.5t-25 -5.5q-26 1 -41.5 19.5z" />
    <glyph glyph-name="Scaron" unicode="&#x160;" horiz-adv-x="559" 
d="M167.5 12.5q-58.5 24.5 -95.5 64.5q-25 25 -25 52q1 26 19 43t43 17q21 0 35 -13q66 -68 141 -68q44 0 69 19.5t25 53.5q0 27 -17.5 43.5t-66.5 38.5l-71 32q-81 37 -120.5 82.5t-39.5 107.5q0 55 28.5 97.5t78.5 66t112 23.5q66 0 112 -23.5t73 -54.5q18 -19 18 -43
q0 -25 -19 -42.5t-43 -17.5q-20 0 -37 14q-25 22 -48.5 34.5t-55.5 12.5q-37 0 -59.5 -17t-22.5 -47q0 -24 16 -39.5t61 -36.5l75 -33q85 -38 124 -82.5t39 -110.5q0 -60 -30 -105t-82.5 -69t-118.5 -24q-59 0 -117.5 24.5zM435.5 916.5q14.5 -14.5 14.5 -35.5
q0 -12 -6.5 -21.5t-23.5 -25.5l-94 -92q-21 -20 -47 -20q-25 0 -47 20l-94 92q-17 16 -23.5 25.5t-6.5 21.5q0 21 14.5 35.5t34.5 14.5q21 0 39 -16l83 -76l83 76q18 16 39 16q20 0 34.5 -14.5z" />
    <glyph glyph-name="Scedilla" unicode="&#x15e;" horiz-adv-x="559" 
d="M167.5 12.5q-58.5 24.5 -95.5 64.5q-25 25 -25 52q1 26 19 43t43 17q21 0 35 -13q66 -68 141 -68q44 0 69 19.5t25 53.5q0 27 -17.5 43.5t-66.5 38.5l-71 32q-81 37 -120.5 82.5t-39.5 107.5q0 55 28.5 97.5t78.5 66t112 23.5q66 0 112 -23.5t73 -54.5q18 -19 18 -43
q0 -25 -19 -42.5t-43 -17.5q-20 0 -37 14q-25 22 -48.5 34.5t-55.5 12.5q-37 0 -59.5 -17t-22.5 -47q0 -24 16 -39.5t61 -36.5l75 -33q85 -38 124 -82.5t39 -110.5q0 -60 -30 -105t-82.5 -69t-118.5 -24q-59 0 -117.5 24.5zM168 -183q-32 14 -32 43q0 20 14 34t34 14l32 -1
q26 0 42 10t16 30q0 27 -21 54q-2 3 -9 12t-10.5 17t-3.5 15q0 16 12 25.5t30 9.5q25 0 52 -22.5t45 -56t18 -64.5q0 -59 -42 -94t-112 -35q-41 0 -65 9z" />
    <glyph glyph-name="Scircumflex" unicode="&#x15c;" horiz-adv-x="559" 
d="M167.5 12.5q-58.5 24.5 -95.5 64.5q-25 25 -25 52q1 26 19 43t43 17q21 0 35 -13q66 -68 141 -68q44 0 69 19.5t25 53.5q0 27 -17.5 43.5t-66.5 38.5l-71 32q-81 37 -120.5 82.5t-39.5 107.5q0 55 28.5 97.5t78.5 66t112 23.5q66 0 112 -23.5t73 -54.5q18 -19 18 -43
q0 -25 -19 -42.5t-43 -17.5q-20 0 -37 14q-25 22 -48.5 34.5t-55.5 12.5q-37 0 -59.5 -17t-22.5 -47q0 -24 16 -39.5t61 -36.5l75 -33q85 -38 124 -82.5t39 -110.5q0 -60 -30 -105t-82.5 -69t-118.5 -24q-59 0 -117.5 24.5zM443.5 793.5q6.5 -9.5 6.5 -21.5
q0 -21 -14.5 -35.5t-34.5 -14.5q-21 0 -39 16l-83 76l-83 -76q-18 -16 -39 -16q-20 0 -34.5 14.5t-14.5 35.5q0 12 6.5 21.5t23.5 25.5l94 92q22 20 47 20q26 0 47 -20l94 -92q17 -16 23.5 -25.5z" />
    <glyph glyph-name="Scommaaccent" unicode="&#x218;" horiz-adv-x="559" 
d="M167.5 12.5q-58.5 24.5 -95.5 64.5q-25 25 -25 52q1 26 19 43t43 17q21 0 35 -13q66 -68 141 -68q44 0 69 19.5t25 53.5q0 27 -17.5 43.5t-66.5 38.5l-71 32q-81 37 -120.5 82.5t-39.5 107.5q0 55 28.5 97.5t78.5 66t112 23.5q66 0 112 -23.5t73 -54.5q18 -19 18 -43
q0 -25 -19 -42.5t-43 -17.5q-20 0 -37 14q-25 22 -48.5 34.5t-55.5 12.5q-37 0 -59.5 -17t-22.5 -47q0 -24 16 -39.5t61 -36.5l75 -33q85 -38 124 -82.5t39 -110.5q0 -60 -30 -105t-82.5 -69t-118.5 -24q-59 0 -117.5 24.5zM220.5 -237q-17.5 17 -17.5 39q0 15 5 33
q7 35 7 58q0 28 20 47.5t48 19.5t47.5 -19.5t19.5 -47.5q0 -32 -10.5 -64.5t-26.5 -51.5q-22 -31 -52 -31q-23 0 -40.5 17z" />
    <glyph glyph-name="uni1E9E" unicode="&#x1e9e;" horiz-adv-x="730" 
d="M644.5 346.5q47.5 -58.5 47.5 -138.5q0 -63 -29.5 -113t-81.5 -78.5t-117 -28.5q-35 0 -69 9.5t-62 25.5q-50 30 -50 68q0 25 17 41.5t42 16.5q11 0 19.5 -3.5t15 -7.5t8.5 -5q34 -21 71 -21q44 0 71.5 27.5t27.5 71.5q0 48 -35 74t-102 26q-27 0 -46 17.5t-19 44.5
q0 23 21 45l97 120h-261v-481q0 -29 -19.5 -49t-47.5 -20q-29 0 -48.5 20t-19.5 49v534q0 30 19.5 49.5t49.5 19.5h447q25 0 42 -17t17 -42q0 -13 -6.5 -26t-20.5 -30l-101 -124q75 -16 122.5 -74.5z" />
    <glyph glyph-name="uni018F" unicode="&#x18f;" horiz-adv-x="733" 
d="M525 626.5q78 -45.5 123.5 -123.5t45.5 -172t-46 -172.5t-126 -124.5t-175 -46q-88 0 -158.5 39t-110.5 108t-40 155q0 14 1 24q1 26 19.5 44.5t43.5 18.5h451q-14 77 -68.5 124t-132.5 47q-48 0 -90.5 -19.5t-74.5 -55.5q-24 -28 -53 -28q-26 0 -43 17.5t-17 43.5
q0 23 21 47q104 119 257 119q95 0 173 -45.5zM475 153.5q53 40.5 72 107.5h-377q4 -66 53.5 -107t125.5 -41q73 0 126 40.5z" />
    <glyph glyph-name="T" unicode="T" horiz-adv-x="585" 
d="M244.5 8q-19.5 20 -19.5 49v481h-157q-26 0 -44 17.5t-18 43.5t18 43.5t44 17.5h449q27 0 44.5 -17.5t17.5 -43.5t-18 -43.5t-44 -17.5h-157v-481q0 -29 -19.5 -49t-48.5 -20q-28 0 -47.5 20z" />
    <glyph glyph-name="Tbar" unicode="&#x166;" horiz-adv-x="585" 
d="M244.5 8q-19.5 20 -19.5 49v170h-127q-24 0 -40.5 16.5t-16.5 40.5t16.5 40t40.5 16h127v198h-157q-26 0 -44 17.5t-18 43.5t18 43.5t44 17.5h449q27 0 44.5 -17.5t17.5 -43.5t-18 -43.5t-44 -17.5h-157v-198h127q25 0 41 -15.5t16 -40.5q0 -24 -16 -40.5t-41 -16.5h-127
v-170q0 -29 -19.5 -49t-48.5 -20q-28 0 -47.5 20z" />
    <glyph glyph-name="Tcaron" unicode="&#x164;" horiz-adv-x="585" 
d="M244.5 8q-19.5 20 -19.5 49v481h-157q-26 0 -44 17.5t-18 43.5t18 43.5t44 17.5h449q27 0 44.5 -17.5t17.5 -43.5t-18 -43.5t-44 -17.5h-157v-481q0 -29 -19.5 -49t-48.5 -20q-28 0 -47.5 20zM448.5 916.5q14.5 -14.5 14.5 -35.5q0 -12 -6.5 -21.5t-23.5 -25.5l-94 -92
q-21 -20 -47 -20q-25 0 -47 20l-94 92q-17 16 -23.5 25.5t-6.5 21.5q0 21 14.5 35.5t34.5 14.5q21 0 39 -16l83 -76l83 76q18 16 39 16q20 0 34.5 -14.5z" />
    <glyph glyph-name="uni0162" unicode="&#x162;" horiz-adv-x="585" 
d="M244.5 8q-19.5 20 -19.5 49v481h-157q-26 0 -44 17.5t-18 43.5t18 43.5t44 17.5h449q27 0 44.5 -17.5t17.5 -43.5t-18 -43.5t-44 -17.5h-157v-481q0 -29 -19.5 -49t-48.5 -20q-28 0 -47.5 20zM201 -183q-32 14 -32 43q0 20 14 34t34 14l32 -1q26 0 42 10t16 30
q0 27 -21 54q-2 3 -9 12t-10.5 17t-3.5 15q0 16 12 25.5t30 9.5q25 0 52 -22.5t45 -56t18 -64.5q0 -59 -42 -94t-112 -35q-41 0 -65 9z" />
    <glyph glyph-name="U" unicode="U" horiz-adv-x="700" 
d="M203.5 24q-63.5 36 -98.5 100.5t-35 148.5v330q0 29 19.5 49t48.5 20q28 0 47.5 -20t19.5 -49v-340q0 -69 39 -109.5t106 -40.5t106 40.5t39 109.5v340q0 29 19.5 49t48.5 20q28 0 47.5 -20t19.5 -49v-330q0 -84 -35 -148.5t-98.5 -100.5t-146.5 -36t-146.5 36z" />
    <glyph glyph-name="Uacute" unicode="&#xda;" horiz-adv-x="700" 
d="M203.5 24q-63.5 36 -98.5 100.5t-35 148.5v330q0 29 19.5 49t48.5 20q28 0 47.5 -20t19.5 -49v-340q0 -69 39 -109.5t106 -40.5t106 40.5t39 109.5v340q0 29 19.5 49t48.5 20q28 0 47.5 -20t19.5 -49v-330q0 -84 -35 -148.5t-98.5 -100.5t-146.5 -36t-146.5 36z
M324.5 738.5q-15.5 18.5 -15.5 42.5q0 14 6 26l52 100q10 19 26 27t33 8q29 0 48.5 -20.5t19.5 -46.5q0 -23 -14 -40l-64 -90q-11 -15 -25 -20.5t-25 -5.5q-26 1 -41.5 19.5z" />
    <glyph glyph-name="Ubreve" unicode="&#x16c;" horiz-adv-x="700" 
d="M203.5 24q-63.5 36 -98.5 100.5t-35 148.5v330q0 29 19.5 49t48.5 20q28 0 47.5 -20t19.5 -49v-340q0 -69 39 -109.5t106 -40.5t106 40.5t39 109.5v340q0 29 19.5 49t48.5 20q28 0 47.5 -20t19.5 -49v-330q0 -84 -35 -148.5t-98.5 -100.5t-146.5 -36t-146.5 36z
M268.5 745q-38.5 19 -62.5 51t-24 67q0 23 15 37.5t37 14.5q16 0 28 -9t22 -29q21 -49 66 -49q23 0 39.5 12.5t25.5 36.5q19 38 51 38q22 0 36.5 -14.5t14.5 -37.5q0 -35 -23.5 -67t-62.5 -51t-81 -19q-43 0 -81.5 19z" />
    <glyph glyph-name="Ucircumflex" unicode="&#xdb;" horiz-adv-x="700" 
d="M203.5 24q-63.5 36 -98.5 100.5t-35 148.5v330q0 29 19.5 49t48.5 20q28 0 47.5 -20t19.5 -49v-340q0 -69 39 -109.5t106 -40.5t106 40.5t39 109.5v340q0 29 19.5 49t48.5 20q28 0 47.5 -20t19.5 -49v-330q0 -84 -35 -148.5t-98.5 -100.5t-146.5 -36t-146.5 36z
M513.5 793.5q6.5 -9.5 6.5 -21.5q0 -21 -14.5 -35.5t-34.5 -14.5q-21 0 -39 16l-83 76l-83 -76q-18 -16 -39 -16q-20 0 -34.5 14.5t-14.5 35.5q0 12 6.5 21.5t23.5 25.5l94 92q22 20 47 20q26 0 47 -20l94 -92q17 -16 23.5 -25.5z" />
    <glyph glyph-name="Udieresis" unicode="&#xdc;" horiz-adv-x="700" 
d="M203.5 24q-63.5 36 -98.5 100.5t-35 148.5v330q0 29 19.5 49t48.5 20q28 0 47.5 -20t19.5 -49v-340q0 -69 39 -109.5t106 -40.5t106 40.5t39 109.5v340q0 29 19.5 49t48.5 20q28 0 47.5 -20t19.5 -49v-330q0 -84 -35 -148.5t-98.5 -100.5t-146.5 -36t-146.5 36z
M165 760.5q-25 23.5 -25 53.5q0 33 24.5 55.5t56.5 22.5q33 0 57 -22.5t24 -55.5q0 -31 -24 -54t-57 -23q-31 0 -56 23.5zM423 759.5q-25 23.5 -25 53.5q0 33 24.5 56t56.5 23q33 0 57 -23t24 -56q0 -31 -24 -54t-57 -23q-31 0 -56 23.5z" />
    <glyph glyph-name="Ugrave" unicode="&#xd9;" horiz-adv-x="700" 
d="M203.5 24q-63.5 36 -98.5 100.5t-35 148.5v330q0 29 19.5 49t48.5 20q28 0 47.5 -20t19.5 -49v-340q0 -69 39 -109.5t106 -40.5t106 40.5t39 109.5v340q0 29 19.5 49t48.5 20q28 0 47.5 -20t19.5 -49v-330q0 -84 -35 -148.5t-98.5 -100.5t-146.5 -36t-146.5 36z
M310 724.5q-14 5.5 -25 20.5l-64 90q-14 19 -14 40q0 27 19.5 47t48.5 20q17 0 33 -8t26 -27l52 -100q6 -12 6 -26q0 -24 -15.5 -42.5t-41.5 -19.5q-11 0 -25 5.5z" />
    <glyph glyph-name="Uhungarumlaut" unicode="&#x170;" horiz-adv-x="700" 
d="M203.5 24q-63.5 36 -98.5 100.5t-35 148.5v330q0 29 19.5 49t48.5 20q28 0 47.5 -20t19.5 -49v-340q0 -69 39 -109.5t106 -40.5t106 40.5t39 109.5v340q0 29 19.5 49t48.5 20q28 0 47.5 -20t19.5 -49v-330q0 -84 -35 -148.5t-98.5 -100.5t-146.5 -36t-146.5 36z
M210.5 738.5q-15.5 18.5 -15.5 42.5q0 14 6 26l52 100q10 19 26 27t33 8q29 0 48.5 -20.5t19.5 -46.5q0 -23 -14 -40l-64 -90q-11 -15 -25 -20.5t-25 -5.5q-26 1 -41.5 19.5zM425.5 738.5q-15.5 18.5 -15.5 42.5q0 14 6 26l52 100q10 19 26 27t33 8q29 0 48.5 -20.5
t19.5 -46.5q0 -23 -14 -40l-64 -90q-11 -15 -25 -20.5t-25 -5.5q-26 1 -41.5 19.5z" />
    <glyph glyph-name="Umacron" unicode="&#x16a;" horiz-adv-x="700" 
d="M203.5 24q-63.5 36 -98.5 100.5t-35 148.5v330q0 29 19.5 49t48.5 20q28 0 47.5 -20t19.5 -49v-340q0 -69 39 -109.5t106 -40.5t106 40.5t39 109.5v340q0 29 19.5 49t48.5 20q28 0 47.5 -20t19.5 -49v-330q0 -84 -35 -148.5t-98.5 -100.5t-146.5 -36t-146.5 36z
M503.5 848q15.5 -15 15.5 -38t-15.5 -38t-38.5 -15h-229q-23 0 -39 15.5t-16 37.5t16 37.5t39 15.5h229q23 0 38.5 -15z" />
    <glyph glyph-name="Uogonek" unicode="&#x172;" horiz-adv-x="700" 
d="M345 -165.5q-33 26.5 -33 69.5q0 23 14 46t39 41q-20 -2 -26 -2q-77 0 -138.5 36.5t-96 101.5t-34.5 146v330q0 29 19.5 49t48.5 20q28 0 47.5 -20t19.5 -49v-340q0 -69 39 -109.5t106 -40.5t106 40.5t39 109.5v340q0 29 19.5 49t48.5 20q28 0 47.5 -20t19.5 -49v-330
q0 -67 -24.5 -125t-70.5 -99l-33 -29q-33 -30 -47.5 -49t-14.5 -38q0 -28 34 -28q5 0 9 1t6 1q19 0 30.5 -12t11.5 -32q0 -17 -10 -29.5t-27 -17.5q-26 -8 -61 -8q-55 0 -88 26.5z" />
    <glyph glyph-name="Uring" unicode="&#x16e;" horiz-adv-x="700" 
d="M203.5 24q-63.5 36 -98.5 100.5t-35 148.5v330q0 29 19.5 49t48.5 20q28 0 47.5 -20t19.5 -49v-340q0 -69 39 -109.5t106 -40.5t106 40.5t39 109.5v340q0 29 19.5 49t48.5 20q28 0 47.5 -20t19.5 -49v-330q0 -84 -35 -148.5t-98.5 -100.5t-146.5 -36t-146.5 36z
M440 884.5q36 -34.5 36 -86.5q0 -53 -36 -88t-91 -35q-54 0 -90 35t-36 88q0 52 36 86.5t90 34.5q55 0 91 -34.5zM321 827.5q-12 -11.5 -12 -29.5t12 -30t29 -12t29 12t12 30q0 17 -12 29t-29 12t-29 -11.5z" />
    <glyph glyph-name="Utilde" unicode="&#x168;" horiz-adv-x="700" 
d="M203.5 24q-63.5 36 -98.5 100.5t-35 148.5v330q0 29 19.5 49t48.5 20q28 0 47.5 -20t19.5 -49v-340q0 -69 39 -109.5t106 -40.5t106 40.5t39 109.5v340q0 29 19.5 49t48.5 20q28 0 47.5 -20t19.5 -49v-330q0 -84 -35 -148.5t-98.5 -100.5t-146.5 -36t-146.5 36z
M165 732.5q-15 15.5 -15 41.5q0 57 33 93t84 36q37 0 74 -21l31 -18q13 -7 24 -12t20 -5q24 0 30 27q5 17 18 27t32 10q25 0 39.5 -15.5t14.5 -41.5q0 -57 -32.5 -93t-84.5 -36q-37 0 -74 21l-30 17q-17 9 -26.5 13t-18.5 4q-12 0 -19 -6.5t-11 -20.5q-5 -17 -17.5 -26.5
t-31.5 -9.5q-25 0 -40 15.5z" />
    <glyph glyph-name="V" unicode="V" horiz-adv-x="662" 
d="M609 653q19 -19 19 -46q0 -21 -8 -36l-225 -537q-19 -46 -64 -46q-46 0 -64 46l-226 537q-8 18 -8 36q0 27 19.5 46t47.5 19q44 0 63 -48l168 -413l167 413q20 48 64 48q28 0 47 -19z" />
    <glyph glyph-name="W" unicode="W" horiz-adv-x="1036" 
d="M977.5 652.5q19.5 -19.5 19.5 -47.5q0 -15 -7 -33l-202 -538q-8 -22 -24.5 -34t-38.5 -12q-46 0 -63 46l-144 399l-144 -399q-8 -22 -24 -34t-38 -12q-23 0 -39.5 12t-24.5 34l-202 538q-8 19 -8 33q0 28 20 47.5t48 19.5q22 0 38.5 -12t23.5 -32l145 -402l139 395
q8 24 25.5 37.5t40.5 13.5t40.5 -13.5t25.5 -37.5l140 -395l143 401q8 21 24.5 33t38.5 12q28 0 47.5 -19.5z" />
    <glyph glyph-name="Wacute" unicode="&#x1e82;" horiz-adv-x="1036" 
d="M977.5 652.5q19.5 -19.5 19.5 -47.5q0 -15 -7 -33l-202 -538q-8 -22 -24.5 -34t-38.5 -12q-46 0 -63 46l-144 399l-144 -399q-8 -22 -24 -34t-38 -12q-23 0 -39.5 12t-24.5 34l-202 538q-8 19 -8 33q0 28 20 47.5t48 19.5q22 0 38.5 -12t23.5 -32l145 -402l139 395
q8 24 25.5 37.5t40.5 13.5t40.5 -13.5t25.5 -37.5l140 -395l143 401q8 21 24.5 33t38.5 12q28 0 47.5 -19.5zM492.5 738.5q-15.5 18.5 -15.5 42.5q0 14 6 26l52 100q10 19 26 27t33 8q29 0 48.5 -20.5t19.5 -46.5q0 -23 -14 -40l-64 -90q-11 -15 -25 -20.5t-25 -5.5
q-26 1 -41.5 19.5z" />
    <glyph glyph-name="Wcircumflex" unicode="&#x174;" horiz-adv-x="1036" 
d="M977.5 652.5q19.5 -19.5 19.5 -47.5q0 -15 -7 -33l-202 -538q-8 -22 -24.5 -34t-38.5 -12q-46 0 -63 46l-144 399l-144 -399q-8 -22 -24 -34t-38 -12q-23 0 -39.5 12t-24.5 34l-202 538q-8 19 -8 33q0 28 20 47.5t48 19.5q22 0 38.5 -12t23.5 -32l145 -402l139 395
q8 24 25.5 37.5t40.5 13.5t40.5 -13.5t25.5 -37.5l140 -395l143 401q8 21 24.5 33t38.5 12q28 0 47.5 -19.5zM681.5 793.5q6.5 -9.5 6.5 -21.5q0 -21 -14.5 -35.5t-34.5 -14.5q-21 0 -39 16l-83 76l-83 -76q-18 -16 -39 -16q-20 0 -34.5 14.5t-14.5 35.5q0 12 6.5 21.5
t23.5 25.5l94 92q22 20 47 20q26 0 47 -20l94 -92q17 -16 23.5 -25.5z" />
    <glyph glyph-name="Wdieresis" unicode="&#x1e84;" horiz-adv-x="1036" 
d="M977.5 652.5q19.5 -19.5 19.5 -47.5q0 -15 -7 -33l-202 -538q-8 -22 -24.5 -34t-38.5 -12q-46 0 -63 46l-144 399l-144 -399q-8 -22 -24 -34t-38 -12q-23 0 -39.5 12t-24.5 34l-202 538q-8 19 -8 33q0 28 20 47.5t48 19.5q22 0 38.5 -12t23.5 -32l145 -402l139 395
q8 24 25.5 37.5t40.5 13.5t40.5 -13.5t25.5 -37.5l140 -395l143 401q8 21 24.5 33t38.5 12q28 0 47.5 -19.5zM333 760.5q-25 23.5 -25 53.5q0 33 24.5 55.5t56.5 22.5q33 0 57 -22.5t24 -55.5q0 -31 -24 -54t-57 -23q-31 0 -56 23.5zM591 759.5q-25 23.5 -25 53.5
q0 33 24.5 56t56.5 23q33 0 57 -23t24 -56q0 -31 -24 -54t-57 -23q-31 0 -56 23.5z" />
    <glyph glyph-name="Wgrave" unicode="&#x1e80;" horiz-adv-x="1036" 
d="M977.5 652.5q19.5 -19.5 19.5 -47.5q0 -15 -7 -33l-202 -538q-8 -22 -24.5 -34t-38.5 -12q-46 0 -63 46l-144 399l-144 -399q-8 -22 -24 -34t-38 -12q-23 0 -39.5 12t-24.5 34l-202 538q-8 19 -8 33q0 28 20 47.5t48 19.5q22 0 38.5 -12t23.5 -32l145 -402l139 395
q8 24 25.5 37.5t40.5 13.5t40.5 -13.5t25.5 -37.5l140 -395l143 401q8 21 24.5 33t38.5 12q28 0 47.5 -19.5zM478 724.5q-14 5.5 -25 20.5l-64 90q-14 19 -14 40q0 27 19.5 47t48.5 20q17 0 33 -8t26 -27l52 -100q6 -12 6 -26q0 -24 -15.5 -42.5t-41.5 -19.5q-11 0 -25 5.5z
" />
    <glyph glyph-name="X" unicode="X" horiz-adv-x="613" 
d="M574 53q0 -26 -19.5 -45.5t-47.5 -19.5q-16 0 -30 7.5t-24 21.5l-146 207l-147 -207q-21 -29 -55 -29q-27 0 -46.5 19.5t-19.5 46.5q0 21 19 49l167 233l-153 221q-19 28 -19 52q0 26 19.5 44.5t46.5 18.5q35 0 56 -30l132 -194l135 193q22 31 56 31q28 0 47 -19t19 -45
q0 -25 -20 -54l-155 -218l167 -236q18 -26 18 -47z" />
    <glyph glyph-name="Y" unicode="Y" horiz-adv-x="625" 
d="M570 563l-190 -312v-194q0 -29 -19.5 -49t-48.5 -20q-28 0 -47.5 20t-19.5 49v194l-189 312q-15 22 -15 45q0 27 19 45.5t47 18.5q22 0 37 -9.5t27 -30.5l142 -246l142 246q11 21 26.5 30.5t36.5 9.5q28 0 47 -18.5t19 -46.5q0 -23 -14 -44z" />
    <glyph glyph-name="Yacute" unicode="&#xdd;" horiz-adv-x="625" 
d="M570 563l-190 -312v-194q0 -29 -19.5 -49t-48.5 -20q-28 0 -47.5 20t-19.5 49v194l-189 312q-15 22 -15 45q0 27 19 45.5t47 18.5q22 0 37 -9.5t27 -30.5l142 -246l142 246q11 21 26.5 30.5t36.5 9.5q28 0 47 -18.5t19 -46.5q0 -23 -14 -44zM285.5 738.5
q-15.5 18.5 -15.5 42.5q0 14 6 26l52 100q10 19 26 27t33 8q29 0 48.5 -20.5t19.5 -46.5q0 -23 -14 -40l-64 -90q-11 -15 -25 -20.5t-25 -5.5q-26 1 -41.5 19.5z" />
    <glyph glyph-name="Ycircumflex" unicode="&#x176;" horiz-adv-x="625" 
d="M570 563l-190 -312v-194q0 -29 -19.5 -49t-48.5 -20q-28 0 -47.5 20t-19.5 49v194l-189 312q-15 22 -15 45q0 27 19 45.5t47 18.5q22 0 37 -9.5t27 -30.5l142 -246l142 246q11 21 26.5 30.5t36.5 9.5q28 0 47 -18.5t19 -46.5q0 -23 -14 -44zM474.5 793.5
q6.5 -9.5 6.5 -21.5q0 -21 -14.5 -35.5t-34.5 -14.5q-21 0 -39 16l-83 76l-83 -76q-18 -16 -39 -16q-20 0 -34.5 14.5t-14.5 35.5q0 12 6.5 21.5t23.5 25.5l94 92q22 20 47 20q26 0 47 -20l94 -92q17 -16 23.5 -25.5z" />
    <glyph glyph-name="Ydieresis" unicode="&#x178;" horiz-adv-x="625" 
d="M570 563l-190 -312v-194q0 -29 -19.5 -49t-48.5 -20q-28 0 -47.5 20t-19.5 49v194l-189 312q-15 22 -15 45q0 27 19 45.5t47 18.5q22 0 37 -9.5t27 -30.5l142 -246l142 246q11 21 26.5 30.5t36.5 9.5q28 0 47 -18.5t19 -46.5q0 -23 -14 -44zM126 760.5q-25 23.5 -25 53.5
q0 33 24.5 55.5t56.5 22.5q33 0 57 -22.5t24 -55.5q0 -31 -24 -54t-57 -23q-31 0 -56 23.5zM384 759.5q-25 23.5 -25 53.5q0 33 24.5 56t56.5 23q33 0 57 -23t24 -56q0 -31 -24 -54t-57 -23q-31 0 -56 23.5z" />
    <glyph glyph-name="Ygrave" unicode="&#x1ef2;" horiz-adv-x="625" 
d="M570 563l-190 -312v-194q0 -29 -19.5 -49t-48.5 -20q-28 0 -47.5 20t-19.5 49v194l-189 312q-15 22 -15 45q0 27 19 45.5t47 18.5q22 0 37 -9.5t27 -30.5l142 -246l142 246q11 21 26.5 30.5t36.5 9.5q28 0 47 -18.5t19 -46.5q0 -23 -14 -44zM271 724.5q-14 5.5 -25 20.5
l-64 90q-14 19 -14 40q0 27 19.5 47t48.5 20q17 0 33 -8t26 -27l52 -100q6 -12 6 -26q0 -24 -15.5 -42.5t-41.5 -19.5q-11 0 -25 5.5z" />
    <glyph glyph-name="Z" unicode="Z" horiz-adv-x="588" 
d="M550.5 104.5q17.5 -17.5 17.5 -43.5t-18 -43.5t-44 -17.5h-423q-27 0 -45 17.5t-18 43.5q0 18 18 42l334 435h-254q-27 0 -45 17.5t-18 43.5t18 43.5t45 17.5h379q26 0 44 -17.5t18 -43.5q0 -19 -17 -43l-334 -434h298q27 0 44.5 -17.5z" />
    <glyph glyph-name="Zacute" unicode="&#x179;" horiz-adv-x="588" 
d="M550.5 104.5q17.5 -17.5 17.5 -43.5t-18 -43.5t-44 -17.5h-423q-27 0 -45 17.5t-18 43.5q0 18 18 42l334 435h-254q-27 0 -45 17.5t-18 43.5t18 43.5t45 17.5h379q26 0 44 -17.5t18 -43.5q0 -19 -17 -43l-334 -434h298q27 0 44.5 -17.5zM273.5 738.5
q-15.5 18.5 -15.5 42.5q0 14 6 26l52 100q10 19 26 27t33 8q29 0 48.5 -20.5t19.5 -46.5q0 -23 -14 -40l-64 -90q-11 -15 -25 -20.5t-25 -5.5q-26 1 -41.5 19.5z" />
    <glyph glyph-name="Zcaron" unicode="&#x17d;" horiz-adv-x="588" 
d="M550.5 104.5q17.5 -17.5 17.5 -43.5t-18 -43.5t-44 -17.5h-423q-27 0 -45 17.5t-18 43.5q0 18 18 42l334 435h-254q-27 0 -45 17.5t-18 43.5t18 43.5t45 17.5h379q26 0 44 -17.5t18 -43.5q0 -19 -17 -43l-334 -434h298q27 0 44.5 -17.5zM454.5 916.5
q14.5 -14.5 14.5 -35.5q0 -12 -6.5 -21.5t-23.5 -25.5l-94 -92q-21 -20 -47 -20q-25 0 -47 20l-94 92q-17 16 -23.5 25.5t-6.5 21.5q0 21 14.5 35.5t34.5 14.5q21 0 39 -16l83 -76l83 76q18 16 39 16q20 0 34.5 -14.5z" />
    <glyph glyph-name="Zdotaccent" unicode="&#x17b;" horiz-adv-x="588" 
d="M550.5 104.5q17.5 -17.5 17.5 -43.5t-18 -43.5t-44 -17.5h-423q-27 0 -45 17.5t-18 43.5q0 18 18 42l334 435h-254q-27 0 -45 17.5t-18 43.5t18 43.5t45 17.5h379q26 0 44 -17.5t18 -43.5q0 -19 -17 -43l-334 -434h298q27 0 44.5 -17.5zM358 872.5q25 -23.5 25 -57.5
t-25 -57.5t-59 -23.5q-35 0 -60 23.5t-25 57.5t25 57.5t60 23.5q34 0 59 -23.5z" />
    <glyph glyph-name="uni021A" unicode="&#x21a;" horiz-adv-x="585" 
d="M244.5 8q-19.5 20 -19.5 49v481h-157q-26 0 -44 17.5t-18 43.5t18 43.5t44 17.5h449q27 0 44.5 -17.5t17.5 -43.5t-18 -43.5t-44 -17.5h-157v-481q0 -29 -19.5 -49t-48.5 -20q-28 0 -47.5 20zM227.5 -237q-17.5 17 -17.5 39q0 15 5 33q7 35 7 58q0 28 20 47.5t48 19.5
t47.5 -19.5t19.5 -47.5q0 -32 -10.5 -64.5t-26.5 -51.5q-22 -31 -52 -31q-23 0 -40.5 17z" />
    <glyph glyph-name="Iacute_J.loclNLD" horiz-adv-x="673" 
d="M94 7.5q-19 19.5 -19 49.5v546q0 30 19 49.5t49 19.5q29 0 48 -20t19 -49v-546q0 -29 -19 -49t-48 -20q-30 0 -49 19.5zM117.5 738.5q-15.5 18.5 -15.5 42.5q0 14 6 26l52 100q10 19 26 27t33 8q29 0 48.5 -20.5t19.5 -46.5q0 -23 -14 -40l-64 -90q-11 -15 -25 -20.5
t-25 -5.5q-26 1 -41.5 19.5zM329 -3q-17 8 -28 23.5t-11 33.5q0 26 18 43t45 17l23 -1q16 -2 25 -2q29 0 45.5 17.5t16.5 48.5v426q0 30 19 49.5t49 19.5q29 0 48 -20t19 -49v-427q0 -93 -52 -140.5t-155 -47.5q-38 0 -62 9zM487.5 738.5q-15.5 18.5 -15.5 42.5q0 14 6 26
l52 100q10 19 26 27t33 8q29 0 48.5 -20.5t19.5 -46.5q0 -23 -14 -40l-64 -90q-11 -15 -25 -20.5t-25 -5.5q-26 1 -41.5 19.5z" />
    <glyph glyph-name="Cacute.loclPLK" horiz-adv-x="720" 
d="M211.5 33.5q-80.5 45.5 -127 123.5t-46.5 173t46.5 173t127.5 123.5t178 45.5q76 0 143.5 -30.5t111.5 -83.5q21 -24 21 -50q0 -25 -18.5 -43t-44.5 -18q-29 0 -52 26q-64 74 -161 74q-61 0 -109.5 -28t-76 -77.5t-27.5 -112.5q0 -62 27.5 -111.5t76 -77t109.5 -27.5
q95 0 160 74q24 26 53 26q26 0 44 -18t18 -43t-21 -50q-44 -53 -111.5 -83.5t-143.5 -30.5q-97 0 -177.5 45.5zM356.5 740.5q-17.5 17.5 -17.5 42.5q0 6 2 16l25 96q7 30 26.5 42.5t40.5 12.5q27 0 47 -19.5t20 -47.5q0 -16 -7 -31l-41 -92q-18 -37 -55 -37
q-23 0 -40.5 17.5z" />
    <glyph glyph-name="Nacute.loclPLK" horiz-adv-x="712" 
d="M617.5 652q19.5 -20 19.5 -49v-547q0 -29 -19 -48.5t-47 -19.5q-22 0 -36 10t-31 31l-294 378v-350q0 -29 -19.5 -49t-47.5 -20q-29 0 -48.5 20t-19.5 49v547q0 29 19 48.5t47 19.5q23 0 36.5 -10t32.5 -34l293 -375l-1 350q0 29 19.5 49t48.5 20q28 0 47.5 -20z
M323.5 733.5q-17.5 17.5 -17.5 42.5q0 6 2 16l25 96q7 30 26.5 42.5t40.5 12.5q27 0 47 -19.5t20 -47.5q0 -16 -7 -31l-41 -92q-18 -37 -55 -37q-23 0 -40.5 17.5z" />
    <glyph glyph-name="Oacute.loclPLK" horiz-adv-x="778" 
d="M565.5 626.5q80.5 -45.5 127.5 -124t47 -172.5t-47 -172.5t-127.5 -124t-177.5 -45.5t-177 45.5t-126.5 123.5t-46.5 173t46.5 173t126.5 123.5t177 45.5t177.5 -45.5zM279.5 519.5q-48.5 -27.5 -75.5 -77t-27 -112.5t27 -112.5t75.5 -77t109.5 -27.5t109 28t75.5 77.5
t27.5 111.5t-27.5 111.5t-75.5 77.5t-109 28t-109.5 -27.5zM356.5 733.5q-17.5 17.5 -17.5 42.5q0 6 2 16l25 96q7 30 26.5 42.5t40.5 12.5q27 0 47 -19.5t20 -47.5q0 -16 -7 -31l-41 -92q-18 -37 -55 -37q-23 0 -40.5 17.5z" />
    <glyph glyph-name="Sacute.loclPLK" horiz-adv-x="559" 
d="M167.5 12.5q-58.5 24.5 -95.5 64.5q-25 25 -25 52q1 26 19 43t43 17q21 0 35 -13q66 -68 141 -68q44 0 69 19.5t25 53.5q0 27 -17.5 43.5t-66.5 38.5l-71 32q-81 37 -120.5 82.5t-39.5 107.5q0 55 28.5 97.5t78.5 66t112 23.5q66 0 112 -23.5t73 -54.5q18 -19 18 -43
q0 -25 -19 -42.5t-43 -17.5q-20 0 -37 14q-25 22 -48.5 34.5t-55.5 12.5q-37 0 -59.5 -17t-22.5 -47q0 -24 16 -39.5t61 -36.5l75 -33q85 -38 124 -82.5t39 -110.5q0 -60 -30 -105t-82.5 -69t-118.5 -24q-59 0 -117.5 24.5zM247.5 733.5q-17.5 17.5 -17.5 42.5q0 6 2 16
l25 96q7 30 26.5 42.5t40.5 12.5q27 0 47 -19.5t20 -47.5q0 -16 -7 -31l-41 -92q-18 -37 -55 -37q-23 0 -40.5 17.5z" />
    <glyph glyph-name="Zacute.loclPLK" horiz-adv-x="588" 
d="M550.5 104.5q17.5 -17.5 17.5 -43.5t-18 -43.5t-44 -17.5h-423q-27 0 -45 17.5t-18 43.5q0 18 18 42l334 435h-254q-27 0 -45 17.5t-18 43.5t18 43.5t45 17.5h379q26 0 44 -17.5t18 -43.5q0 -19 -17 -43l-334 -434h298q27 0 44.5 -17.5zM266.5 733.5
q-17.5 17.5 -17.5 42.5q0 6 2 16l25 96q7 30 26.5 42.5t40.5 12.5q27 0 47 -19.5t20 -47.5q0 -16 -7 -31l-41 -92q-18 -37 -55 -37q-23 0 -40.5 17.5z" />
    <glyph glyph-name="Idotaccent.loclTRK" horiz-adv-x="285" 
d="M94 7.5q-19 19.5 -19 49.5v546q0 30 19 49.5t49 19.5q29 0 48 -20t19 -49v-546q0 -29 -19 -49t-48 -20q-30 0 -49 19.5zM202 872.5q25 -23.5 25 -57.5t-25 -57.5t-59 -23.5q-35 0 -60 23.5t-25 57.5t25 57.5t60 23.5q34 0 59 -23.5z" />
    <glyph glyph-name="A.ordn" horiz-adv-x="429" 
d="M413 289q0 -22 -15.5 -37.5t-37.5 -15.5q-17 0 -30 9t-19 26l-14 36h-165l-14 -36q-6 -17 -19 -26t-30 -9q-22 0 -37.5 15.5t-15.5 37.5q0 13 6 24l143 321q15 34 50 34t50 -35l143 -320q5 -11 5 -24zM162 384h105l-52 141z" />
    <glyph glyph-name="C.ordn" horiz-adv-x="470" 
d="M138.5 264.5q-50.5 28.5 -80 78t-29.5 109.5t29.5 109.5t80.5 78t113 28.5q52 0 97 -21t71 -58q13 -18 13 -34q0 -20 -14 -34.5t-34 -14.5q-11 0 -20 6t-17 13.5t-11 10.5q-36 36 -85 36q-52 0 -84.5 -34t-32.5 -87t32.5 -86t84.5 -33q48 0 85 36q3 3 12.5 12t18 13.5
t17.5 4.5q20 0 34 -14.5t14 -34.5q0 -16 -13 -33q-28 -38 -72.5 -59t-96.5 -21q-62 0 -112.5 28.5z" />
    <glyph glyph-name="D.ordn" horiz-adv-x="455" 
d="M317 634q52 -26 80.5 -73t28.5 -108q0 -60 -29 -107.5t-81 -74.5t-117 -27h-87q-24 0 -40 16t-16 39v306q0 23 16 39t40 16h87q66 0 118 -26zM160 566v-229h39q54 0 87 32t33 84q0 53 -32 83t-88 30h-39z" />
    <glyph glyph-name="E.ordn" horiz-adv-x="380" 
d="M335 646.5q14 -13.5 14 -33.5t-14 -33.5t-34 -13.5h-141v-65h103q18 0 30 -12t12 -29t-12 -28.5t-30 -11.5h-103v-83h149q20 0 34 -13t14 -33t-14 -33.5t-34 -13.5h-198q-24 0 -39.5 15.5t-15.5 38.5v308q0 23 15.5 38.5t39.5 15.5h190q20 0 34 -13.5z" />
    <glyph glyph-name="Egrave.ordn" horiz-adv-x="380" 
d="M165 713l-43 53q-11 14 -11 30q0 20 14 34.5t34 14.5q28 0 42 -25l35 -60q6 -12 6 -21q0 -17 -12 -30t-31 -13q-21 0 -34 17zM335 646.5q14 -13.5 14 -33.5t-14 -33.5t-34 -13.5h-141v-65h103q18 0 30 -12t12 -29t-12 -28.5t-30 -11.5h-103v-83h149q20 0 34 -13t14 -33
t-14 -33.5t-34 -13.5h-198q-24 0 -39.5 15.5t-15.5 38.5v308q0 23 15.5 38.5t39.5 15.5h190q20 0 34 -13.5z" />
    <glyph glyph-name="G.ordn" horiz-adv-x="486" 
d="M139 264.5q-51 28.5 -80.5 78t-29.5 109.5t29.5 109.5t81 78t114.5 28.5q92 0 151 -61q18 -19 18 -39t-14.5 -34.5t-34.5 -14.5q-17 0 -37 18q-36 35 -85 35q-53 0 -85 -33t-32 -87q0 -56 33.5 -89.5t89.5 -33.5q29 0 54 11t41 30v22h-68q-17 0 -29.5 12t-12.5 30
t12 29.5t30 11.5h119q23 0 37.5 -15t14.5 -38v-34q0 -39 -22 -67q-27 -38 -77.5 -61.5t-103.5 -23.5q-63 0 -114 28.5z" />
    <glyph glyph-name="H.ordn" horiz-adv-x="477" 
d="M406.5 653q14.5 -15 14.5 -38v-326q0 -24 -14.5 -38.5t-37.5 -14.5t-37.5 14.5t-14.5 38.5v124h-157v-124q0 -24 -14.5 -38.5t-36.5 -14.5q-23 0 -38 14.5t-15 38.5v326q0 23 15 38t38 15q22 0 36.5 -15t14.5 -38v-108h157v108q0 23 14.5 38t37.5 15t37.5 -15z" />
    <glyph glyph-name="I.ordn" horiz-adv-x="216" 
d="M145 653q15 -15 15 -38v-326q0 -23 -15 -38t-37 -15q-23 0 -37.5 15t-14.5 38v326q0 23 14.5 38t37.5 15q22 0 37 -15z" />
    <glyph glyph-name="L.ordn" horiz-adv-x="348" 
d="M145.5 653q14.5 -15 14.5 -38v-278h134q20 0 33.5 -13t13.5 -33t-13.5 -33.5t-33.5 -13.5h-183q-24 0 -39.5 15.5t-15.5 39.5v316q0 23 15 38t38 15q22 0 36.5 -15z" />
    <glyph glyph-name="M.ordn" horiz-adv-x="531" 
d="M460.5 653q14.5 -15 14.5 -37v-328q0 -23 -14.5 -37.5t-36.5 -14.5q-23 0 -38 15t-15 37v164l-66 -98q-15 -21 -39 -21t-40 21l-66 98v-164q0 -22 -15 -37t-37 -15t-37 15t-15 37v328q0 22 15 37t37 15q27 0 45 -27l113 -168l111 166q19 29 47 29q22 0 36.5 -15z" />
    <glyph glyph-name="N.ordn" horiz-adv-x="477" 
d="M406.5 653.5q14.5 -14.5 14.5 -37.5v-327q0 -23 -15 -38t-36 -15q-13 0 -24.5 7.5t-25.5 23.5l-160 202v-181q0 -22 -14.5 -37t-36.5 -15q-23 0 -38 14.5t-15 37.5v328q0 22 15.5 37t36.5 15q13 0 24 -8t25 -24l160 -196v176q0 23 15 37.5t37 14.5q23 0 37.5 -14.5z" />
    <glyph glyph-name="O.ordn" horiz-adv-x="504" 
d="M364 639.5q51 -28.5 81 -78t30 -109.5t-29.5 -109.5t-81 -78t-113.5 -28.5t-112.5 28.5t-80 78t-29.5 109.5t29.5 109.5t80.5 78t112 28.5q62 0 113 -28.5zM167.5 538.5q-32.5 -33.5 -32.5 -86.5t32.5 -86.5t84.5 -33.5t85 33.5t33 86.5q0 52 -33.5 86t-84.5 34
q-52 0 -84.5 -33.5z" />
    <glyph glyph-name="R.ordn" horiz-adv-x="424" 
d="M399 289q0 -22 -15.5 -37.5t-38.5 -15.5q-22 0 -36 18l-96 123h-53v-88q0 -23 -14.5 -38t-37.5 -15q-22 0 -37 15t-15 38v315q0 24 16 40t40 16h105q71 0 114.5 -39t43.5 -102q0 -36 -15 -64.5t-42 -47.5l67 -84q14 -17 14 -34zM160 467h57q24 0 38.5 14t14.5 37
t-14.5 37t-38.5 14h-57v-102z" />
    <glyph glyph-name="S.ordn" horiz-adv-x="356" 
d="M96 253q-38 17 -64 48q-12 15 -12 34q0 20 14 33.5t34 13.5t34 -14q36 -36 77 -36q20 0 32.5 8.5t12.5 23.5q0 13 -10.5 22t-33.5 17l-44 17q-49 18 -76.5 49.5t-27.5 75.5q0 55 40.5 89t103.5 34q43 0 76 -16.5t52 -43.5q10 -13 10 -28q0 -19 -14 -33.5t-34 -14.5
q-9 0 -17 3.5t-19 13.5q-25 23 -53 23q-17 0 -27.5 -7t-10.5 -21q0 -12 9 -20.5t28 -14.5l48 -18q53 -18 79.5 -48.5t26.5 -75.5q0 -60 -42 -95.5t-109 -35.5q-45 0 -83 17z" />
    <glyph glyph-name="T.ordn" horiz-adv-x="378" 
d="M361.5 646.5q13.5 -13.5 13.5 -33.5t-13.5 -33.5t-34.5 -13.5h-86v-277q0 -23 -14.5 -38t-37.5 -15q-22 0 -37 15t-15 38v277h-86q-21 0 -34.5 13.5t-13.5 33.5t13.5 33.5t34.5 13.5h276q21 0 34.5 -13.5z" />
    <glyph glyph-name="U.ordn" horiz-adv-x="467" 
d="M400.5 653q14.5 -15 14.5 -38v-195q0 -53 -23.5 -95t-64.5 -65.5t-93 -23.5t-93.5 23.5t-65 65.5t-23.5 95v195q0 23 15 38t37 15t37 -15t15 -38v-204q0 -35 21.5 -57t56.5 -22q34 0 55.5 22t21.5 57v204q0 23 15 38t38 15q22 0 36.5 -15z" />
    <glyph glyph-name="Uacute.ordn" horiz-adv-x="467" 
d="M208.5 708.5q-11.5 12.5 -11.5 29.5q0 8 6 22l35 60q14 25 42 25q20 0 34 -14.5t14 -34.5q0 -16 -11 -30l-43 -53q-13 -17 -34 -17q-20 0 -31.5 12.5zM140.5 259.5q-41.5 23.5 -65 65t-23.5 95.5v197q0 22 15 36.5t37 14.5t37 -14.5t15 -36.5v-206q0 -35 21.5 -57
t56.5 -22q34 0 55.5 22t21.5 57v206q0 22 15 36.5t38 14.5q22 0 36.5 -14.5t14.5 -36.5v-197q0 -54 -23.5 -95.5t-65 -65t-92.5 -23.5q-52 0 -93.5 23.5z" />
    <glyph glyph-name="Y.ordn" horiz-adv-x="409" 
d="M369 583l-113 -192v-102q0 -23 -14.5 -38t-36.5 -15t-37 15t-15 38v101l-114 193q-12 21 -12 35q0 20 15 35t36 15q30 0 46 -29l80 -140l81 140q16 29 45 29q22 0 36.5 -14.5t14.5 -35.5q0 -16 -12 -35z" />
    <glyph glyph-name="Z.ordn" horiz-adv-x="381" 
d="M355 324q14 -13 14 -33t-14 -33.5t-35 -13.5h-257q-20 0 -34 13.5t-14 34.5q0 17 13 34l193 240h-139q-21 0 -35 13.5t-14 33.5t14 33.5t35 13.5h230q20 0 34 -13.5t14 -34.5q0 -15 -13 -34l-184 -241h157q21 0 35 -13z" />
    <glyph glyph-name="a" unicode="a" horiz-adv-x="545" 
d="M426 450.5q56 -55.5 56 -156.5v-238q0 -29 -18.5 -48t-46.5 -19q-24 0 -42 14.5t-23 37.5q-56 -53 -145 -53q-76 0 -123.5 41t-47.5 107q0 67 50 105.5t137 38.5h124v22q0 41 -24 64t-69 23q-52 0 -95 -37q-21 -16 -40 -16q-25 0 -41.5 16t-16.5 39q0 28 28 54
q31 29 78 45t101 16q102 0 158 -55.5zM317 115q30 28 30 70v6h-106q-69 0 -69 -50q0 -25 19 -39.5t52 -14.5q44 0 74 28z" />
    <glyph glyph-name="aacute" unicode="&#xe1;" horiz-adv-x="545" 
d="M426 450.5q56 -55.5 56 -156.5v-238q0 -29 -18.5 -48t-46.5 -19q-24 0 -42 14.5t-23 37.5q-56 -53 -145 -53q-76 0 -123.5 41t-47.5 107q0 67 50 105.5t137 38.5h124v22q0 41 -24 64t-69 23q-52 0 -95 -37q-21 -16 -40 -16q-25 0 -41.5 16t-16.5 39q0 28 28 54
q31 29 78 45t101 16q102 0 158 -55.5zM317 115q30 28 30 70v6h-106q-69 0 -69 -50q0 -25 19 -39.5t52 -14.5q44 0 74 28zM246 581q-17 19 -15 44q0 12 8 30l47 107q8 18 25.5 28.5t36.5 10.5q29 0 48 -20t19 -48q0 -19 -11 -37l-62 -103q-9 -14 -22.5 -22.5t-28.5 -8.5
q-28 0 -45 19z" />
    <glyph glyph-name="abreve" unicode="&#x103;" horiz-adv-x="545" 
d="M426 450.5q56 -55.5 56 -156.5v-238q0 -29 -18.5 -48t-46.5 -19q-24 0 -42 14.5t-23 37.5q-56 -53 -145 -53q-76 0 -123.5 41t-47.5 107q0 67 50 105.5t137 38.5h124v22q0 41 -24 64t-69 23q-52 0 -95 -37q-21 -16 -40 -16q-25 0 -41.5 16t-16.5 39q0 28 28 54
q31 29 78 45t101 16q102 0 158 -55.5zM317 115q30 28 30 70v6h-106q-69 0 -69 -50q0 -25 19 -39.5t52 -14.5q44 0 74 28zM186.5 593q-39.5 20 -63 53.5t-23.5 71.5q0 23 15 39t37 16q40 0 52 -41q6 -26 24 -41.5t43 -15.5t42.5 15.5t23.5 41.5q12 41 51 41q22 0 37.5 -16
t15.5 -39q0 -38 -23 -71.5t-62 -53.5t-85 -20q-45 0 -84.5 20z" />
    <glyph glyph-name="acircumflex" unicode="&#xe2;" horiz-adv-x="545" 
d="M426 450.5q56 -55.5 56 -156.5v-238q0 -29 -18.5 -48t-46.5 -19q-24 0 -42 14.5t-23 37.5q-56 -53 -145 -53q-76 0 -123.5 41t-47.5 107q0 67 50 105.5t137 38.5h124v22q0 41 -24 64t-69 23q-52 0 -95 -37q-21 -16 -40 -16q-25 0 -41.5 16t-16.5 39q0 28 28 54
q31 29 78 45t101 16q102 0 158 -55.5zM317 115q30 28 30 70v6h-106q-69 0 -69 -50q0 -25 19 -39.5t52 -14.5q44 0 74 28zM430 636q4 -8 4 -20q0 -22 -15.5 -36t-35.5 -14q-19 0 -34 15l-78 82l-79 -82q-15 -15 -34 -15q-20 0 -35.5 14t-15.5 36q0 12 4 20t13 19l96 115
q20 23 51 23q30 0 50 -23l96 -115q9 -11 13 -19z" />
    <glyph glyph-name="adieresis" unicode="&#xe4;" horiz-adv-x="545" 
d="M426 450.5q56 -55.5 56 -156.5v-238q0 -29 -18.5 -48t-46.5 -19q-24 0 -42 14.5t-23 37.5q-56 -53 -145 -53q-76 0 -123.5 41t-47.5 107q0 67 50 105.5t137 38.5h124v22q0 41 -24 64t-69 23q-52 0 -95 -37q-21 -16 -40 -16q-25 0 -41.5 16t-16.5 39q0 28 28 54
q31 29 78 45t101 16q102 0 158 -55.5zM317 115q30 28 30 70v6h-106q-69 0 -69 -50q0 -25 19 -39.5t52 -14.5q44 0 74 28zM209.5 731.5q23.5 -22.5 23.5 -56.5q0 -31 -24 -54t-57 -23q-32 0 -56.5 23.5t-24.5 53.5q0 33 24 56t57 23q34 0 57.5 -22.5zM447 731.5
q23 -22.5 23 -56.5q0 -32 -23.5 -54.5t-57.5 -22.5q-31 0 -55.5 23.5t-24.5 53.5q0 33 23.5 56t56.5 23q35 0 58 -22.5z" />
    <glyph glyph-name="agrave" unicode="&#xe0;" horiz-adv-x="545" 
d="M426 450.5q56 -55.5 56 -156.5v-238q0 -29 -18.5 -48t-46.5 -19q-24 0 -42 14.5t-23 37.5q-56 -53 -145 -53q-76 0 -123.5 41t-47.5 107q0 67 50 105.5t137 38.5h124v22q0 41 -24 64t-69 23q-52 0 -95 -37q-21 -16 -40 -16q-25 0 -41.5 16t-16.5 39q0 28 28 54
q31 29 78 45t101 16q102 0 158 -55.5zM317 115q30 28 30 70v6h-106q-69 0 -69 -50q0 -25 19 -39.5t52 -14.5q44 0 74 28zM221.5 570.5q-13.5 8.5 -22.5 22.5l-62 103q-11 18 -11 37q0 28 19 48t48 20q19 0 36.5 -10.5t25.5 -28.5l47 -107q8 -18 8 -30q2 -25 -15 -44t-45 -19
q-15 0 -28.5 8.5z" />
    <glyph glyph-name="amacron" unicode="&#x101;" horiz-adv-x="545" 
d="M426 450.5q56 -55.5 56 -156.5v-238q0 -29 -18.5 -48t-46.5 -19q-24 0 -42 14.5t-23 37.5q-56 -53 -145 -53q-76 0 -123.5 41t-47.5 107q0 67 50 105.5t137 38.5h124v22q0 41 -24 64t-69 23q-52 0 -95 -37q-21 -16 -40 -16q-25 0 -41.5 16t-16.5 39q0 28 28 54
q31 29 78 45t101 16q102 0 158 -55.5zM317 115q30 28 30 70v6h-106q-69 0 -69 -50q0 -25 19 -39.5t52 -14.5q44 0 74 28zM414 713q16 -15 16 -38t-16 -38t-40 -15h-206q-24 0 -40 15t-16 38t16 38t40 15h206q24 0 40 -15z" />
    <glyph glyph-name="aogonek" unicode="&#x105;" horiz-adv-x="545" 
d="M426 450.5q56 -55.5 56 -156.5v-238q0 -29 -18.5 -48t-46.5 -19q-24 0 -42 14.5t-23 37.5q-56 -53 -145 -53q-76 0 -123.5 41t-47.5 107q0 67 50 105.5t137 38.5h124v22q0 41 -24 64t-69 23q-52 0 -95 -37q-21 -16 -40 -16q-25 0 -41.5 16t-16.5 39q0 28 28 54
q31 29 78 45t101 16q102 0 158 -55.5zM317 115q30 28 30 70v6h-106q-69 0 -69 -50q0 -25 19 -39.5t52 -14.5q44 0 74 28zM311.5 -164q-32.5 28 -32.5 75q0 36 21 66t69 69q46 37 72 37q16 0 28.5 -11.5t12.5 -26.5q0 -23 -21 -41q-27 -23 -41.5 -40t-14.5 -32q0 -12 9 -19
t26 -7l16 1q19 0 30 -12t11 -32q0 -18 -10 -30.5t-28 -17.5q-28 -7 -60 -7q-55 0 -87.5 28z" />
    <glyph glyph-name="aring" unicode="&#xe5;" horiz-adv-x="545" 
d="M426 450.5q56 -55.5 56 -156.5v-238q0 -29 -18.5 -48t-46.5 -19q-24 0 -42 14.5t-23 37.5q-56 -53 -145 -53q-76 0 -123.5 41t-47.5 107q0 67 50 105.5t137 38.5h124v22q0 41 -24 64t-69 23q-52 0 -95 -37q-21 -16 -40 -16q-25 0 -41.5 16t-16.5 39q0 28 28 54
q31 29 78 45t101 16q102 0 158 -55.5zM317 115q30 28 30 70v6h-106q-69 0 -69 -50q0 -25 19 -39.5t52 -14.5q44 0 74 28zM361 760.5q36 -34.5 36 -87.5t-36 -88t-91 -35q-54 0 -90 35t-36 88q0 52 36 87t90 35q55 0 91 -34.5zM242 702.5q-12 -11.5 -12 -29.5t11.5 -29.5
t29.5 -11.5q17 0 29 12t12 29q0 18 -12 29.5t-29 11.5t-29 -11.5z" />
    <glyph glyph-name="atilde" unicode="&#xe3;" horiz-adv-x="545" 
d="M426 450.5q56 -55.5 56 -156.5v-238q0 -29 -18.5 -48t-46.5 -19q-24 0 -42 14.5t-23 37.5q-56 -53 -145 -53q-76 0 -123.5 41t-47.5 107q0 67 50 105.5t137 38.5h124v22q0 41 -24 64t-69 23q-52 0 -95 -37q-21 -16 -40 -16q-25 0 -41.5 16t-16.5 39q0 28 28 54
q31 29 78 45t101 16q102 0 158 -55.5zM317 115q30 28 30 70v6h-106q-69 0 -69 -50q0 -25 19 -39.5t52 -14.5q44 0 74 28zM278 602l-28 18q-3 2 -12 8.5t-15 9t-12 2.5q-12 0 -19 -7t-11 -21q-5 -18 -18 -28t-32 -10q-24 0 -38.5 16t-14.5 42q0 58 32.5 93.5t83.5 35.5
q36 0 71 -23l28 -18q16 -11 24.5 -15t17.5 -4q11 0 17 6.5t10 21.5q4 17 17.5 27t32.5 10q25 0 39 -16t14 -42q0 -57 -31.5 -93t-80.5 -36q-40 0 -75 23z" />
    <glyph glyph-name="ae" unicode="&#xe6;" horiz-adv-x="878" 
d="M727 476q53 -30 83 -82.5t30 -118.5v-7q0 -32 -20 -51.5t-53 -19.5h-282q14 -45 49.5 -69t89.5 -24q61 0 102 29q15 9 29 9q23 0 39 -15.5t16 -38.5q0 -17 -8 -29.5t-26 -24.5q-67 -46 -156 -46q-66 0 -120 26.5t-88 73.5q-29 -48 -79 -74t-116 -26q-83 0 -132 40.5
t-49 108.5q0 69 50.5 109t136.5 40h124v16q0 41 -24 64t-68 23q-52 0 -96 -37q-21 -16 -40 -16q-24 0 -41 16.5t-17 39.5q0 27 29 53q31 29 77 45t101 16q54 0 96 -19t68 -54q34 35 78.5 54t97.5 19q66 0 119 -30zM523.5 367q-32.5 -30 -42.5 -81h228q1 49 -28.5 80
t-77.5 31q-47 0 -79.5 -30zM317 115.5q30 27.5 30 68.5v13h-106q-34 0 -51.5 -13.5t-17.5 -38.5q0 -26 19 -41.5t51 -15.5q45 0 75 27.5z" />
    <glyph glyph-name="aeacute" unicode="&#x1fd;" horiz-adv-x="878" 
d="M727 476q53 -30 83 -82.5t30 -118.5v-7q0 -32 -20 -51.5t-53 -19.5h-282q14 -45 49.5 -69t89.5 -24q61 0 102 29q15 9 29 9q23 0 39 -15.5t16 -38.5q0 -17 -8 -29.5t-26 -24.5q-67 -46 -156 -46q-66 0 -120 26.5t-88 73.5q-29 -48 -79 -74t-116 -26q-83 0 -132 40.5
t-49 108.5q0 69 50.5 109t136.5 40h124v16q0 41 -24 64t-68 23q-52 0 -96 -37q-21 -16 -40 -16q-24 0 -41 16.5t-17 39.5q0 27 29 53q31 29 77 45t101 16q54 0 96 -19t68 -54q34 35 78.5 54t97.5 19q66 0 119 -30zM523.5 367q-32.5 -30 -42.5 -81h228q1 49 -28.5 80
t-77.5 31q-47 0 -79.5 -30zM317 115.5q30 27.5 30 68.5v13h-106q-34 0 -51.5 -13.5t-17.5 -38.5q0 -26 19 -41.5t51 -15.5q45 0 75 27.5zM407 581q-17 19 -15 44q0 12 8 30l47 107q8 18 25.5 28.5t36.5 10.5q29 0 48 -20t19 -48q0 -19 -11 -37l-62 -103q-9 -14 -22.5 -22.5
t-28.5 -8.5q-28 0 -45 19z" />
    <glyph glyph-name="b" unicode="b" horiz-adv-x="629" 
d="M473.5 472.5q54.5 -33.5 85.5 -92.5t31 -133t-31 -133t-85.5 -92.5t-123.5 -33.5q-48 0 -86.5 16.5t-64.5 46.5q-2 -28 -20.5 -45.5t-44.5 -17.5q-28 0 -47.5 20t-19.5 49v636q0 29 19.5 49t48.5 20t48 -19.5t19 -49.5v-246q26 28 64 43.5t84 15.5q69 0 123.5 -33.5z
M417 149.5q36 38.5 36 98.5q0 59 -36.5 97.5t-91.5 38.5t-90 -38t-35 -99t34.5 -98.5t90.5 -37.5t92 38.5z" />
    <glyph glyph-name="c" unicode="c" horiz-adv-x="552" 
d="M170 22.5q-61 34.5 -96 94.5t-35 131t35 130.5t96 93.5t134 34q62 0 116.5 -27t83.5 -71q12 -19 12 -36q0 -25 -17.5 -42.5t-42.5 -17.5q-29 0 -46 21q-42 50 -104 50q-57 0 -93.5 -38t-36.5 -97q0 -60 36.5 -98t93.5 -38q59 0 104 50q18 21 46 21q25 0 42.5 -17.5
t17.5 -42.5q0 -17 -11 -34q-31 -48 -83.5 -74.5t-117.5 -26.5q-73 0 -134 34.5z" />
    <glyph glyph-name="cacute" unicode="&#x107;" horiz-adv-x="552" 
d="M170 22.5q-61 34.5 -96 94.5t-35 131t35 130.5t96 93.5t134 34q62 0 116.5 -27t83.5 -71q12 -19 12 -36q0 -25 -17.5 -42.5t-42.5 -17.5q-29 0 -46 21q-42 50 -104 50q-57 0 -93.5 -38t-36.5 -97q0 -60 36.5 -98t93.5 -38q59 0 104 50q18 21 46 21q25 0 42.5 -17.5
t17.5 -42.5q0 -17 -11 -34q-31 -48 -83.5 -74.5t-117.5 -26.5q-73 0 -134 34.5zM279 581q-17 19 -15 44q0 12 8 30l47 107q8 18 25.5 28.5t36.5 10.5q29 0 48 -20t19 -48q0 -19 -11 -37l-62 -103q-9 -14 -22.5 -22.5t-28.5 -8.5q-28 0 -45 19z" />
    <glyph glyph-name="ccaron" unicode="&#x10d;" horiz-adv-x="552" 
d="M170 22.5q-61 34.5 -96 94.5t-35 131t35 130.5t96 93.5t134 34q62 0 116.5 -27t83.5 -71q12 -19 12 -36q0 -25 -17.5 -42.5t-42.5 -17.5q-29 0 -46 21q-42 50 -104 50q-57 0 -93.5 -38t-36.5 -97q0 -60 36.5 -98t93.5 -38q59 0 104 50q18 21 46 21q25 0 42.5 -17.5
t17.5 -42.5q0 -17 -11 -34q-31 -48 -83.5 -74.5t-117.5 -26.5q-73 0 -134 34.5zM451.5 780q15.5 -14 15.5 -36q0 -12 -4 -20t-13 -19l-96 -115q-20 -23 -50 -23q-31 0 -51 23l-96 115q-9 11 -13 19t-4 20q0 22 15.5 36t35.5 14q19 0 34 -15l79 -82l78 82q15 15 34 15
q20 0 35.5 -14z" />
    <glyph glyph-name="ccedilla" unicode="&#xe7;" horiz-adv-x="552" 
d="M170 22.5q-61 34.5 -96 94.5t-35 131t35 130.5t96 93.5t134 34q62 0 116.5 -27t83.5 -71q12 -19 12 -36q0 -25 -17.5 -42.5t-42.5 -17.5q-29 0 -46 21q-42 50 -104 50q-57 0 -93.5 -38t-36.5 -97q0 -60 36.5 -98t93.5 -38q59 0 104 50q18 21 46 21q25 0 42.5 -17.5
t17.5 -42.5q0 -17 -11 -34q-31 -48 -83.5 -74.5t-117.5 -26.5q-73 0 -134 34.5zM192 -183q-32 14 -32 43q0 20 14 34t34 14l32 -1q26 0 42 10t16 30q0 27 -21 54q-2 3 -9 12t-10.5 17t-3.5 15q0 16 12 25.5t30 9.5q25 0 52 -22.5t45 -56t18 -64.5q0 -59 -42 -94t-112 -35
q-41 0 -65 9z" />
    <glyph glyph-name="ccircumflex" unicode="&#x109;" horiz-adv-x="552" 
d="M170 22.5q-61 34.5 -96 94.5t-35 131t35 130.5t96 93.5t134 34q62 0 116.5 -27t83.5 -71q12 -19 12 -36q0 -25 -17.5 -42.5t-42.5 -17.5q-29 0 -46 21q-42 50 -104 50q-57 0 -93.5 -38t-36.5 -97q0 -60 36.5 -98t93.5 -38q59 0 104 50q18 21 46 21q25 0 42.5 -17.5
t17.5 -42.5q0 -17 -11 -34q-31 -48 -83.5 -74.5t-117.5 -26.5q-73 0 -134 34.5zM463 636q4 -8 4 -20q0 -22 -15.5 -36t-35.5 -14q-19 0 -34 15l-78 82l-79 -82q-15 -15 -34 -15q-20 0 -35.5 14t-15.5 36q0 12 4 20t13 19l96 115q20 23 51 23q30 0 50 -23l96 -115
q9 -11 13 -19z" />
    <glyph glyph-name="cdotaccent" unicode="&#x10b;" horiz-adv-x="552" 
d="M170 22.5q-61 34.5 -96 94.5t-35 131t35 130.5t96 93.5t134 34q62 0 116.5 -27t83.5 -71q12 -19 12 -36q0 -25 -17.5 -42.5t-42.5 -17.5q-29 0 -46 21q-42 50 -104 50q-57 0 -93.5 -38t-36.5 -97q0 -60 36.5 -98t93.5 -38q59 0 104 50q18 21 46 21q25 0 42.5 -17.5
t17.5 -42.5q0 -17 -11 -34q-31 -48 -83.5 -74.5t-117.5 -26.5q-73 0 -134 34.5zM363 733q25 -24 25 -58q0 -33 -25 -57t-59 -24q-35 0 -60 23.5t-25 57.5t25 58t60 24q34 0 59 -24z" />
    <glyph glyph-name="d" unicode="d" horiz-adv-x="629" 
d="M543 742.5q19 -19.5 19 -49.5v-637q0 -29 -19 -48.5t-47 -19.5q-26 0 -45 18.5t-21 44.5q-26 -30 -64.5 -46.5t-86.5 -16.5q-69 0 -123.5 33.5t-85.5 92.5t-31 133t31 133t85.5 92.5t123.5 33.5q46 0 84 -15.5t64 -43.5v246q0 29 19.5 49t48.5 20t48 -19.5zM394.5 148.5
q34.5 37.5 34.5 98.5t-35 99t-90 38t-91.5 -38.5t-36.5 -97.5q0 -60 36 -98.5t92 -38.5t90.5 37.5z" />
    <glyph glyph-name="eth" unicode="&#xf0;" horiz-adv-x="573" 
d="M508 338q26 -56 26 -111q0 -68 -32 -122.5t-88 -85.5t-126 -31q-71 0 -128 30t-89 83t-32 119q0 63 30.5 114.5t83.5 81t118 29.5h10l-62 84l-99 -49q-18 -8 -30 -8q-21 0 -36.5 15.5t-15.5 37.5q0 15 8 27.5t21 19.5l88 44l-32 44q-13 21 -13 39q0 26 19 44.5t44 18.5
q32 0 53 -30l45 -59l118 58q15 8 30 8q21 0 36.5 -15.5t15.5 -37.5q0 -14 -8 -27t-21 -20l-106 -52l80 -105q66 -88 92 -144zM366.5 140q31.5 32 31.5 81t-31.5 80.5t-80.5 31.5t-80 -31.5t-31 -81.5q0 -49 31 -80.5t80 -31.5t80.5 32z" />
    <glyph glyph-name="dcaron" unicode="&#x10f;" horiz-adv-x="792" 
d="M543 742.5q19 -19.5 19 -49.5v-637q0 -29 -19 -48.5t-47 -19.5q-26 0 -45 18.5t-21 44.5q-26 -30 -64.5 -46.5t-86.5 -16.5q-69 0 -123.5 33.5t-85.5 92.5t-31 133t31 133t85.5 92.5t123.5 33.5q46 0 84 -15.5t64 -43.5v246q0 29 19.5 49t48.5 20t48 -19.5zM394.5 148.5
q34.5 37.5 34.5 98.5t-35 99t-90 38t-91.5 -38.5t-36.5 -97.5q0 -60 36 -98.5t92 -38.5t90.5 37.5zM657 552.5q-18 17.5 -18 43.5q0 8 1 12l17 112q3 24 21.5 42t45.5 18t47.5 -19t20.5 -48q0 -11 -5 -26l-32 -111q-15 -41 -56 -41q-24 0 -42 17.5z" />
    <glyph glyph-name="dcroat" unicode="&#x111;" horiz-adv-x="636" 
d="M631 646.5q16 -15.5 16 -39.5t-15.5 -39t-39.5 -15h-31v-496q0 -30 -18.5 -49.5t-46.5 -19.5q-27 0 -45.5 18.5t-20.5 46.5q-26 -31 -66.5 -48t-88.5 -17q-68 0 -122 31.5t-84.5 87t-30.5 125.5t30.5 125.5t84.5 87.5t121 32q47 0 86.5 -16.5t66.5 -47.5v140h-156
q-24 0 -39.5 15t-15.5 39t15.5 39.5t39.5 15.5h156v31q0 29 19 49t48 20t48 -19.5t19 -49.5v-31h31q23 0 39 -15.5zM394.5 137.5q34.5 35.5 34.5 93.5q0 59 -35 95.5t-91 36.5q-55 0 -91 -37t-36 -94t35.5 -93.5t91.5 -36.5q57 0 91.5 35.5z" />
    <glyph glyph-name="e" unicode="e" horiz-adv-x="569" 
d="M416.5 476q53.5 -30 84 -83t30.5 -119v-3q0 -31 -20.5 -50t-53.5 -19h-282q12 -47 48 -72.5t91 -25.5q57 0 103 29q15 9 29 9q23 0 39 -15.5t16 -38.5q0 -17 -8 -29.5t-26 -24.5q-69 -46 -157 -46q-77 0 -139 34t-97 93t-35 132q0 72 33.5 131.5t92.5 93.5t131 34
q67 0 120.5 -30zM217.5 370q-31.5 -27 -42.5 -73h225q-2 45 -31 72.5t-76 27.5q-44 0 -75.5 -27z" />
    <glyph glyph-name="eacute" unicode="&#xe9;" horiz-adv-x="569" 
d="M416.5 476q53.5 -30 84 -83t30.5 -119v-3q0 -31 -20.5 -50t-53.5 -19h-282q12 -47 48 -72.5t91 -25.5q57 0 103 29q15 9 29 9q23 0 39 -15.5t16 -38.5q0 -17 -8 -29.5t-26 -24.5q-69 -46 -157 -46q-77 0 -139 34t-97 93t-35 132q0 72 33.5 131.5t92.5 93.5t131 34
q67 0 120.5 -30zM217.5 370q-31.5 -27 -42.5 -73h225q-2 45 -31 72.5t-76 27.5q-44 0 -75.5 -27zM273 581q-17 19 -15 44q0 12 8 30l47 107q8 18 25.5 28.5t36.5 10.5q29 0 48 -20t19 -48q0 -19 -11 -37l-62 -103q-9 -14 -22.5 -22.5t-28.5 -8.5q-28 0 -45 19z" />
    <glyph glyph-name="ebreve" unicode="&#x115;" horiz-adv-x="569" 
d="M416.5 476q53.5 -30 84 -83t30.5 -119v-3q0 -31 -20.5 -50t-53.5 -19h-282q12 -47 48 -72.5t91 -25.5q57 0 103 29q15 9 29 9q23 0 39 -15.5t16 -38.5q0 -17 -8 -29.5t-26 -24.5q-69 -46 -157 -46q-77 0 -139 34t-97 93t-35 132q0 72 33.5 131.5t92.5 93.5t131 34
q67 0 120.5 -30zM217.5 370q-31.5 -27 -42.5 -73h225q-2 45 -31 72.5t-76 27.5q-44 0 -75.5 -27zM213.5 593q-39.5 20 -63 53.5t-23.5 71.5q0 23 15 39t37 16q40 0 52 -41q6 -26 24 -41.5t43 -15.5t42.5 15.5t23.5 41.5q12 41 51 41q22 0 37.5 -16t15.5 -39q0 -38 -23 -71.5
t-62 -53.5t-85 -20q-45 0 -84.5 20z" />
    <glyph glyph-name="ecaron" unicode="&#x11b;" horiz-adv-x="569" 
d="M416.5 476q53.5 -30 84 -83t30.5 -119v-3q0 -31 -20.5 -50t-53.5 -19h-282q12 -47 48 -72.5t91 -25.5q57 0 103 29q15 9 29 9q23 0 39 -15.5t16 -38.5q0 -17 -8 -29.5t-26 -24.5q-69 -46 -157 -46q-77 0 -139 34t-97 93t-35 132q0 72 33.5 131.5t92.5 93.5t131 34
q67 0 120.5 -30zM217.5 370q-31.5 -27 -42.5 -73h225q-2 45 -31 72.5t-76 27.5q-44 0 -75.5 -27zM445.5 780q15.5 -14 15.5 -36q0 -12 -4 -20t-13 -19l-96 -115q-20 -23 -50 -23q-31 0 -51 23l-96 115q-9 11 -13 19t-4 20q0 22 15.5 36t35.5 14q19 0 34 -15l79 -82l78 82
q15 15 34 15q20 0 35.5 -14z" />
    <glyph glyph-name="ecircumflex" unicode="&#xea;" horiz-adv-x="569" 
d="M416.5 476q53.5 -30 84 -83t30.5 -119v-3q0 -31 -20.5 -50t-53.5 -19h-282q12 -47 48 -72.5t91 -25.5q57 0 103 29q15 9 29 9q23 0 39 -15.5t16 -38.5q0 -17 -8 -29.5t-26 -24.5q-69 -46 -157 -46q-77 0 -139 34t-97 93t-35 132q0 72 33.5 131.5t92.5 93.5t131 34
q67 0 120.5 -30zM217.5 370q-31.5 -27 -42.5 -73h225q-2 45 -31 72.5t-76 27.5q-44 0 -75.5 -27zM457 636q4 -8 4 -20q0 -22 -15.5 -36t-35.5 -14q-19 0 -34 15l-78 82l-79 -82q-15 -15 -34 -15q-20 0 -35.5 14t-15.5 36q0 12 4 20t13 19l96 115q20 23 51 23q30 0 50 -23
l96 -115q9 -11 13 -19z" />
    <glyph glyph-name="edieresis" unicode="&#xeb;" horiz-adv-x="569" 
d="M416.5 476q53.5 -30 84 -83t30.5 -119v-3q0 -31 -20.5 -50t-53.5 -19h-282q12 -47 48 -72.5t91 -25.5q57 0 103 29q15 9 29 9q23 0 39 -15.5t16 -38.5q0 -17 -8 -29.5t-26 -24.5q-69 -46 -157 -46q-77 0 -139 34t-97 93t-35 132q0 72 33.5 131.5t92.5 93.5t131 34
q67 0 120.5 -30zM217.5 370q-31.5 -27 -42.5 -73h225q-2 45 -31 72.5t-76 27.5q-44 0 -75.5 -27zM236.5 731.5q23.5 -22.5 23.5 -56.5q0 -31 -24 -54t-57 -23q-32 0 -56.5 23.5t-24.5 53.5q0 33 24 56t57 23q34 0 57.5 -22.5zM474 731.5q23 -22.5 23 -56.5
q0 -32 -23.5 -54.5t-57.5 -22.5q-31 0 -55.5 23.5t-24.5 53.5q0 33 23.5 56t56.5 23q35 0 58 -22.5z" />
    <glyph glyph-name="edotaccent" unicode="&#x117;" horiz-adv-x="569" 
d="M416.5 476q53.5 -30 84 -83t30.5 -119v-3q0 -31 -20.5 -50t-53.5 -19h-282q12 -47 48 -72.5t91 -25.5q57 0 103 29q15 9 29 9q23 0 39 -15.5t16 -38.5q0 -17 -8 -29.5t-26 -24.5q-69 -46 -157 -46q-77 0 -139 34t-97 93t-35 132q0 72 33.5 131.5t92.5 93.5t131 34
q67 0 120.5 -30zM217.5 370q-31.5 -27 -42.5 -73h225q-2 45 -31 72.5t-76 27.5q-44 0 -75.5 -27zM357 733q25 -24 25 -58q0 -33 -25 -57t-59 -24q-35 0 -60 23.5t-25 57.5t25 58t60 24q34 0 59 -24z" />
    <glyph glyph-name="egrave" unicode="&#xe8;" horiz-adv-x="569" 
d="M416.5 476q53.5 -30 84 -83t30.5 -119v-3q0 -31 -20.5 -50t-53.5 -19h-282q12 -47 48 -72.5t91 -25.5q57 0 103 29q15 9 29 9q23 0 39 -15.5t16 -38.5q0 -17 -8 -29.5t-26 -24.5q-69 -46 -157 -46q-77 0 -139 34t-97 93t-35 132q0 72 33.5 131.5t92.5 93.5t131 34
q67 0 120.5 -30zM217.5 370q-31.5 -27 -42.5 -73h225q-2 45 -31 72.5t-76 27.5q-44 0 -75.5 -27zM248.5 570.5q-13.5 8.5 -22.5 22.5l-62 103q-11 18 -11 37q0 28 19 48t48 20q19 0 36.5 -10.5t25.5 -28.5l47 -107q8 -18 8 -30q2 -25 -15 -44t-45 -19q-15 0 -28.5 8.5z" />
    <glyph glyph-name="emacron" unicode="&#x113;" horiz-adv-x="569" 
d="M416.5 476q53.5 -30 84 -83t30.5 -119v-3q0 -31 -20.5 -50t-53.5 -19h-282q12 -47 48 -72.5t91 -25.5q57 0 103 29q15 9 29 9q23 0 39 -15.5t16 -38.5q0 -17 -8 -29.5t-26 -24.5q-69 -46 -157 -46q-77 0 -139 34t-97 93t-35 132q0 72 33.5 131.5t92.5 93.5t131 34
q67 0 120.5 -30zM217.5 370q-31.5 -27 -42.5 -73h225q-2 45 -31 72.5t-76 27.5q-44 0 -75.5 -27zM441 713q16 -15 16 -38t-16 -38t-40 -15h-206q-24 0 -40 15t-16 38t16 38t40 15h206q24 0 40 -15z" />
    <glyph glyph-name="eogonek" unicode="&#x119;" horiz-adv-x="569" 
d="M416.5 476q53.5 -30 84 -83t30.5 -119v-3q0 -31 -20.5 -50t-53.5 -19h-282q12 -47 48 -72.5t91 -25.5q57 0 103 29q15 9 29 9q23 0 39 -15.5t16 -38.5q0 -17 -8 -29.5t-26 -24.5l-36 -27q-31 -22 -46.5 -38t-15.5 -34q0 -13 10 -21.5t26 -8.5q5 0 9 1t6 1q19 0 30.5 -12
t11.5 -32q0 -17 -10 -30t-29 -18q-28 -7 -60 -7q-54 0 -87 28t-33 74q0 39 35 80q-69 7 -123.5 42t-85 91t-30.5 124q0 72 33.5 131.5t92.5 93.5t131 34q67 0 120.5 -30zM217.5 370q-31.5 -27 -42.5 -73h225q-2 45 -31 72.5t-76 27.5q-44 0 -75.5 -27z" />
    <glyph glyph-name="f" unicode="f" horiz-adv-x="342" 
d="M244 621q-19 -20 -19 -57v-69h62q25 0 41 -16t16 -41t-16 -41t-41 -16h-62v-324q0 -30 -19 -49.5t-48 -19.5t-48.5 20t-19.5 49v324h-22q-25 0 -41.5 16t-16.5 41t16.5 41t41.5 16h22v81q0 88 49 137t135 49q38 0 64 -13q16 -7 25 -21t9 -33q0 -25 -16 -40t-43 -15l-16 1
q-34 0 -53 -20z" />
    <glyph glyph-name="g" unicode="g" horiz-adv-x="631" 
d="M545 486.5q19 -19.5 19 -48.5v-383q0 -117 -67.5 -182t-188.5 -65q-61 0 -115.5 17.5t-97.5 51.5q-28 20 -28 49q0 25 18 43t43 18q17 0 36 -13q63 -44 133 -44q62 0 97 31t35 86v27q-54 -59 -151 -59q-69 0 -123 31.5t-84 87.5t-30 127t30 127t84 87t123 31
q50 0 89 -16.5t65 -46.5q1 27 20.5 45t45.5 18q28 0 47 -19.5zM396.5 166q34.5 37 34.5 97q0 58 -34 93t-91 35q-56 0 -92 -36t-36 -93q0 -58 36 -95.5t92 -37.5t90.5 37z" />
    <glyph glyph-name="gbreve" unicode="&#x11f;" horiz-adv-x="631" 
d="M545 486.5q19 -19.5 19 -48.5v-383q0 -117 -67.5 -182t-188.5 -65q-61 0 -115.5 17.5t-97.5 51.5q-28 20 -28 49q0 25 18 43t43 18q17 0 36 -13q63 -44 133 -44q62 0 97 31t35 86v27q-54 -59 -151 -59q-69 0 -123 31.5t-84 87.5t-30 127t30 127t84 87t123 31
q50 0 89 -16.5t65 -46.5q1 27 20.5 45t45.5 18q28 0 47 -19.5zM396.5 166q34.5 37 34.5 97q0 58 -34 93t-91 35q-56 0 -92 -36t-36 -93q0 -58 36 -95.5t92 -37.5t90.5 37zM224.5 593q-39.5 20 -63 53.5t-23.5 71.5q0 23 15 39t37 16q40 0 52 -41q6 -26 24 -41.5t43 -15.5
t42.5 15.5t23.5 41.5q12 41 51 41q22 0 37.5 -16t15.5 -39q0 -38 -23 -71.5t-62 -53.5t-85 -20q-45 0 -84.5 20z" />
    <glyph glyph-name="gcircumflex" unicode="&#x11d;" horiz-adv-x="631" 
d="M545 486.5q19 -19.5 19 -48.5v-383q0 -117 -67.5 -182t-188.5 -65q-61 0 -115.5 17.5t-97.5 51.5q-28 20 -28 49q0 25 18 43t43 18q17 0 36 -13q63 -44 133 -44q62 0 97 31t35 86v27q-54 -59 -151 -59q-69 0 -123 31.5t-84 87.5t-30 127t30 127t84 87t123 31
q50 0 89 -16.5t65 -46.5q1 27 20.5 45t45.5 18q28 0 47 -19.5zM396.5 166q34.5 37 34.5 97q0 58 -34 93t-91 35q-56 0 -92 -36t-36 -93q0 -58 36 -95.5t92 -37.5t90.5 37zM468 636q4 -8 4 -20q0 -22 -15.5 -36t-35.5 -14q-19 0 -34 15l-78 82l-79 -82q-15 -15 -34 -15
q-20 0 -35.5 14t-15.5 36q0 12 4 20t13 19l96 115q20 23 51 23q30 0 50 -23l96 -115q9 -11 13 -19z" />
    <glyph glyph-name="gcommaaccent" unicode="&#x123;" horiz-adv-x="631" 
d="M545 486.5q19 -19.5 19 -48.5v-383q0 -117 -67.5 -182t-188.5 -65q-61 0 -115.5 17.5t-97.5 51.5q-28 20 -28 49q0 25 18 43t43 18q17 0 36 -13q63 -44 133 -44q62 0 97 31t35 86v27q-54 -59 -151 -59q-69 0 -123 31.5t-84 87.5t-30 127t30 127t84 87t123 31
q50 0 89 -16.5t65 -46.5q1 27 20.5 45t45.5 18q28 0 47 -19.5zM396.5 166q34.5 37 34.5 97q0 58 -34 93t-91 35q-56 0 -92 -36t-36 -93q0 -58 36 -95.5t92 -37.5t90.5 37zM263 578.5q-19 18.5 -19 46.5q0 33 9 74.5t21 70.5q21 48 62 48q23 0 40 -16.5t17 -40.5q0 -9 -3 -22
t-4 -18q-11 -60 -11 -96q0 -27 -19.5 -46t-46.5 -19t-46 18.5z" />
    <glyph glyph-name="gdotaccent" unicode="&#x121;" horiz-adv-x="631" 
d="M545 486.5q19 -19.5 19 -48.5v-383q0 -117 -67.5 -182t-188.5 -65q-61 0 -115.5 17.5t-97.5 51.5q-28 20 -28 49q0 25 18 43t43 18q17 0 36 -13q63 -44 133 -44q62 0 97 31t35 86v27q-54 -59 -151 -59q-69 0 -123 31.5t-84 87.5t-30 127t30 127t84 87t123 31
q50 0 89 -16.5t65 -46.5q1 27 20.5 45t45.5 18q28 0 47 -19.5zM396.5 166q34.5 37 34.5 97q0 58 -34 93t-91 35q-56 0 -92 -36t-36 -93q0 -58 36 -95.5t92 -37.5t90.5 37zM368 733q25 -24 25 -58q0 -33 -25 -57t-59 -24q-35 0 -60 23.5t-25 57.5t25 58t60 24q34 0 59 -24z
" />
    <glyph glyph-name="h" unicode="h" horiz-adv-x="585" 
d="M471.5 451.5q50.5 -54.5 50.5 -144.5v-250q0 -30 -19 -49.5t-48 -19.5q-28 0 -47.5 20t-19.5 49v231q0 43 -25.5 69.5t-66.5 26.5t-67.5 -26.5t-26.5 -69.5v-231q0 -30 -19 -49.5t-48 -19.5t-48.5 20t-19.5 49v636q0 29 19.5 49t48.5 20t48 -19.5t19 -49.5v-241
q26 26 60.5 40t75.5 14q83 0 133.5 -54.5z" />
    <glyph glyph-name="hbar" unicode="&#x127;" horiz-adv-x="593" 
d="M479.5 422.5q50.5 -54.5 50.5 -144.5v-221q0 -30 -19 -49.5t-48 -19.5t-48.5 20t-19.5 49v202q0 43 -25 69.5t-66 26.5q-42 0 -68.5 -26.5t-26.5 -69.5v-202q0 -29 -19.5 -49t-47.5 -20t-47.5 20t-19.5 49v494h-30q-24 0 -40.5 16t-16.5 40t16.5 39.5t40.5 15.5h30v31
q0 30 19 49.5t48 19.5q28 0 47.5 -20t19.5 -49v-31h142q24 0 40 -15.5t16 -39.5t-16 -40t-40 -16h-142v-128q26 26 60.5 40t75.5 14q84 0 134.5 -54.5z" />
    <glyph glyph-name="hcircumflex" unicode="&#x125;" horiz-adv-x="585" 
d="M471.5 451.5q50.5 -54.5 50.5 -144.5v-250q0 -30 -19 -49.5t-48 -19.5q-28 0 -47.5 20t-19.5 49v231q0 43 -25.5 69.5t-66.5 26.5t-67.5 -26.5t-26.5 -69.5v-231q0 -30 -19 -49.5t-48 -19.5t-48.5 20t-19.5 49v636q0 29 19.5 49t48.5 20t48 -19.5t19 -49.5v-241
q26 26 60.5 40t75.5 14q83 0 133.5 -54.5zM365.5 883.5q6.5 -9.5 6.5 -21.5q0 -21 -14.5 -35.5t-34.5 -14.5q-21 0 -39 16l-83 76l-83 -76q-18 -16 -39 -16q-20 0 -34.5 14.5t-14.5 35.5q0 12 6.5 21.5t23.5 25.5l94 92q22 20 47 20q26 0 47 -20l94 -92q17 -16 23.5 -25.5z
" />
    <glyph glyph-name="i" unicode="i" horiz-adv-x="269" 
d="M86.5 8q-19.5 20 -19.5 49v381q0 29 19.5 48.5t48.5 19.5t48 -19.5t19 -48.5v-381q0 -29 -19.5 -49t-48.5 -20q-28 0 -47.5 20zM194 733q25 -24 25 -58q0 -33 -25 -57t-59 -24q-35 0 -60 23.5t-25 57.5t25 58t60 24q34 0 59 -24z" />
    <glyph glyph-name="dotlessi" unicode="&#x131;" horiz-adv-x="269" 
d="M86.5 8q-19.5 20 -19.5 49v381q0 29 19.5 48.5t48.5 19.5t48 -19.5t19 -48.5v-381q0 -29 -19.5 -49t-48.5 -20q-28 0 -47.5 20z" />
    <glyph glyph-name="iacute" unicode="&#xed;" horiz-adv-x="269" 
d="M86.5 8q-19.5 20 -19.5 49v381q0 29 19.5 48.5t48.5 19.5t48 -19.5t19 -48.5v-381q0 -29 -19.5 -49t-48.5 -20q-28 0 -47.5 20zM108.5 582.5q-16.5 15.5 -18.5 37.5q-1 3 -1 9q0 1 3 22l28 114q6 22 25.5 36t39.5 14q25 0 44 -16t23 -41q1 -3 1 -11q0 -10 -5 -27
l-43 -112q-8 -18 -23 -29.5t-33 -11.5q-24 0 -40.5 15.5z" />
    <glyph glyph-name="ibreve" unicode="&#x12d;" horiz-adv-x="269" 
d="M86.5 8q-19.5 20 -19.5 49v381q0 29 19.5 48.5t48.5 19.5t48 -19.5t19 -48.5v-381q0 -29 -19.5 -49t-48.5 -20q-28 0 -47.5 20zM50.5 593q-39.5 20 -63 53.5t-23.5 71.5q0 23 15 39t37 16q40 0 52 -41q6 -26 24 -41.5t43 -15.5t42.5 15.5t23.5 41.5q12 41 51 41
q22 0 37.5 -16t15.5 -39q0 -38 -23 -71.5t-62 -53.5t-85 -20q-45 0 -84.5 20z" />
    <glyph glyph-name="icircumflex" unicode="&#xee;" horiz-adv-x="269" 
d="M86.5 8q-19.5 20 -19.5 49v381q0 29 19.5 48.5t48.5 19.5t48 -19.5t19 -48.5v-381q0 -29 -19.5 -49t-48.5 -20q-28 0 -47.5 20zM294 636q4 -8 4 -20q0 -22 -15.5 -36t-35.5 -14q-19 0 -34 15l-78 82l-79 -82q-15 -15 -34 -15q-20 0 -35.5 14t-15.5 36q0 12 4 20t13 19
l96 115q20 23 51 23q30 0 50 -23l96 -115q9 -11 13 -19z" />
    <glyph glyph-name="idieresis" unicode="&#xef;" horiz-adv-x="269" 
d="M86.5 8q-19.5 20 -19.5 49v381q0 29 19.5 48.5t48.5 19.5t48 -19.5t19 -48.5v-381q0 -29 -19.5 -49t-48.5 -20q-28 0 -47.5 20zM-32 621q-24 23 -24 55t23.5 55t57.5 23t57.5 -22.5t23.5 -55.5q0 -32 -24 -55t-57 -23t-57 23zM188 621q-24 23 -24 55t23.5 55t57.5 23
t57 -22.5t23 -55.5q0 -32 -23.5 -55t-56.5 -23t-57 23z" />
    <glyph glyph-name="igrave" unicode="&#xec;" horiz-adv-x="269" 
d="M86.5 8q-19.5 20 -19.5 49v381q0 29 19.5 48.5t48.5 19.5t48 -19.5t19 -48.5v-381q0 -29 -19.5 -49t-48.5 -20q-28 0 -47.5 20zM85.5 582.5q-11.5 11.5 -16.5 28.5l-33 115q-3 12 -3 22q0 28 19.5 47.5t46.5 19.5q12 0 18 -2q18 -5 32.5 -20t17.5 -34l18 -115q1 -6 1 -18
q0 -25 -16.5 -43t-42.5 -18q-5 0 -15 2q-15 4 -26.5 15.5z" />
    <glyph glyph-name="ij" unicode="&#x133;" horiz-adv-x="538" 
d="M86.5 8q-19.5 20 -19.5 49v381q0 29 19.5 48.5t48.5 19.5t48 -19.5t19 -48.5v-381q0 -29 -19.5 -49t-48.5 -20q-28 0 -47.5 20zM194 733q25 -24 25 -58q0 -33 -25 -57t-59 -24q-35 0 -60 23.5t-25 57.5t25 58t60 24q34 0 59 -24zM231 -183q-19 8 -30 22t-11 33
q0 25 16 41.5t41 16.5l13 -1q40 0 58 19.5t18 69.5v420q0 29 19.5 48.5t48.5 19.5t48 -19.5t19 -48.5v-444q0 -90 -49.5 -138t-135.5 -48q-28 0 -55 9zM463 733q25 -24 25 -58q0 -33 -25 -57t-59 -24q-35 0 -60 23.5t-25 57.5t25 58t60 24q34 0 59 -24z" />
    <glyph glyph-name="imacron" unicode="&#x12b;" horiz-adv-x="269" 
d="M86.5 8q-19.5 20 -19.5 49v381q0 29 19.5 48.5t48.5 19.5t48 -19.5t19 -48.5v-381q0 -29 -19.5 -49t-48.5 -20q-28 0 -47.5 20zM256 713q15 -15 15 -38t-15 -38t-38 -15h-165q-23 0 -38.5 15t-15.5 38t15.5 38t38.5 15h165q23 0 38 -15z" />
    <glyph glyph-name="iogonek" unicode="&#x12f;" horiz-adv-x="269" 
d="M86.5 8q-19.5 20 -19.5 49v381q0 29 19.5 48.5t48.5 19.5t48 -19.5t19 -48.5v-381q0 -29 -19.5 -49t-48.5 -20q-28 0 -47.5 20zM194 733q25 -24 25 -58q0 -33 -25 -57t-59 -24q-35 0 -60 23.5t-25 57.5t25 58t60 24q34 0 59 -24zM31.5 -164q-32.5 28 -32.5 75q0 36 21 66
t69 69q46 37 72 37q16 0 28.5 -11.5t12.5 -26.5q0 -23 -21 -41q-27 -23 -41.5 -40t-14.5 -32q0 -12 9 -19t26 -7l16 1q19 0 30 -12t11 -32q0 -18 -10 -30.5t-28 -17.5q-28 -7 -60 -7q-55 0 -87.5 28z" />
    <glyph glyph-name="itilde" unicode="&#x129;" horiz-adv-x="269" 
d="M86.5 8q-19.5 20 -19.5 49v381q0 29 19.5 48.5t48.5 19.5t48 -19.5t19 -48.5v-381q0 -29 -19.5 -49t-48.5 -20q-28 0 -47.5 20zM137 605l-20 15q-20 17 -32 17t-18 -6.5t-10 -21.5q-5 -17 -18 -27t-32 -10q-24 0 -38.5 16t-14.5 42q0 57 31.5 93t80.5 36q32 0 67 -26
l20 -15q12 -10 19 -13.5t14 -3.5q11 0 17.5 6.5t9.5 20.5q5 17 18 27.5t32 10.5q25 0 39 -16t14 -42q0 -58 -30.5 -93.5t-80.5 -35.5q-33 0 -68 26z" />
    <glyph glyph-name="j" unicode="j" horiz-adv-x="269" 
d="M-38 -183q-19 8 -30 22t-11 33q0 25 16 41.5t41 16.5l13 -1q40 0 58 19.5t18 69.5v420q0 29 19.5 48.5t48.5 19.5t48 -19.5t19 -48.5v-444q0 -90 -49.5 -138t-135.5 -48q-28 0 -55 9zM194 733q25 -24 25 -58q0 -33 -25 -57t-59 -24q-35 0 -60 23.5t-25 57.5t25 58t60 24
q34 0 59 -24z" />
    <glyph glyph-name="uni0237" unicode="&#x237;" horiz-adv-x="269" 
d="M-38 -183q-19 8 -30 22t-11 33q0 25 16 41.5t41 16.5l13 -1q40 0 58 19.5t18 69.5v420q0 29 19.5 48.5t48.5 19.5t48 -19.5t19 -48.5v-444q0 -90 -49.5 -138t-135.5 -48q-28 0 -55 9z" />
    <glyph glyph-name="jcircumflex" unicode="&#x135;" horiz-adv-x="269" 
d="M-38 -183q-19 8 -30 22t-11 33q0 25 16 41.5t41 16.5l13 -1q40 0 58 19.5t18 69.5v420q0 29 19.5 48.5t48.5 19.5t48 -19.5t19 -48.5v-444q0 -90 -49.5 -138t-135.5 -48q-28 0 -55 9zM294 636q4 -8 4 -20q0 -22 -15.5 -36t-35.5 -14q-19 0 -34 15l-78 82l-79 -82
q-15 -15 -34 -15q-20 0 -35.5 14t-15.5 36q0 12 4 20t13 19l96 115q20 23 51 23q30 0 50 -23l96 -115q9 -11 13 -19z" />
    <glyph glyph-name="k" unicode="k" 
d="M183 742.5q19 -19.5 19 -49.5v-636q0 -30 -19 -49.5t-48 -19.5t-48.5 20t-19.5 49v636q0 29 19.5 49t48.5 20t48 -19.5zM525 50q0 -26 -17.5 -44t-43.5 -18q-31 0 -50 25l-169 208q-21 28 -21 49q0 13 5.5 24.5t18.5 25.5l158 165q20 21 47 21q26 0 44 -17.5t18 -42.5
q0 -26 -22 -48l-126 -128l142 -178q16 -20 16 -42z" />
    <glyph glyph-name="kcommaaccent" unicode="&#x137;" 
d="M183 742.5q19 -19.5 19 -49.5v-636q0 -30 -19 -49.5t-48 -19.5t-48.5 20t-19.5 49v636q0 29 19.5 49t48.5 20t48 -19.5zM525 50q0 -26 -17.5 -44t-43.5 -18q-31 0 -50 25l-169 208q-21 28 -21 49q0 13 5.5 24.5t18.5 25.5l158 165q20 21 47 21q26 0 44 -17.5t18 -42.5
q0 -26 -22 -48l-126 -128l142 -178q16 -20 16 -42zM219.5 -237q-17.5 17 -17.5 39q0 15 5 33q7 35 7 58q0 28 20 47.5t48 19.5t47.5 -19.5t19.5 -47.5q0 -32 -10.5 -64.5t-26.5 -51.5q-22 -31 -52 -31q-23 0 -40.5 17z" />
    <glyph glyph-name="l" unicode="l" horiz-adv-x="269" 
d="M86.5 8q-19.5 20 -19.5 49v636q0 29 19.5 49t48.5 20q28 0 47.5 -20t19.5 -49v-636q0 -29 -19.5 -49t-47.5 -20q-29 0 -48.5 20z" />
    <glyph glyph-name="lacute" unicode="&#x13a;" horiz-adv-x="269" 
d="M86.5 8q-19.5 20 -19.5 49v636q0 29 19.5 49t48.5 20q28 0 47.5 -20t19.5 -49v-636q0 -29 -19.5 -49t-47.5 -20q-29 0 -48.5 20zM109.5 828.5q-15.5 18.5 -15.5 42.5q0 14 6 26l52 100q10 19 26 27t33 8q29 0 48.5 -20.5t19.5 -46.5q0 -23 -14 -40l-64 -90
q-11 -15 -25 -20.5t-25 -5.5q-26 1 -41.5 19.5z" />
    <glyph glyph-name="lcaron" unicode="&#x13e;" horiz-adv-x="433" 
d="M86.5 8q-19.5 20 -19.5 49v636q0 29 19.5 49t48.5 20q28 0 47.5 -20t19.5 -49v-636q0 -29 -19.5 -49t-47.5 -20q-29 0 -48.5 20zM297 552.5q-18 17.5 -18 43.5q0 8 1 12l17 112q3 24 21.5 42t45.5 18t47.5 -19t20.5 -48q0 -11 -5 -26l-32 -111q-15 -41 -56 -41
q-24 0 -42 17.5z" />
    <glyph glyph-name="lcommaaccent" unicode="&#x13c;" horiz-adv-x="269" 
d="M86.5 8q-19.5 20 -19.5 49v636q0 29 19.5 49t48.5 20q28 0 47.5 -20t19.5 -49v-636q0 -29 -19.5 -49t-47.5 -20q-29 0 -48.5 20zM70.5 -237q-17.5 17 -17.5 39q0 15 5 33q7 35 7 58q0 28 20 47.5t48 19.5t47.5 -19.5t19.5 -47.5q0 -32 -10.5 -64.5t-26.5 -51.5
q-22 -31 -52 -31q-23 0 -40.5 17z" />
    <glyph glyph-name="ldot" unicode="&#x140;" horiz-adv-x="411" 
d="M86.5 8q-19.5 20 -19.5 49v636q0 29 19.5 49t48.5 20q28 0 47.5 -20t19.5 -49v-636q0 -29 -19.5 -49t-47.5 -20q-29 0 -48.5 20zM271 254q-27 27 -27 66t27 66t67 27q39 0 65.5 -27t26.5 -66t-26.5 -66t-65.5 -27q-40 0 -67 27z" />
    <glyph glyph-name="lslash" unicode="&#x142;" horiz-adv-x="331" 
d="M301 422q17 -17 17 -39q0 -17 -9 -31.5t-26 -21.5l-57 -26v-247q0 -29 -19 -49t-48 -20q-28 0 -47.5 20t-19.5 49v197h-1q-10 -6 -26 -6q-23 0 -40 16.5t-17 38.5q0 17 9.5 32t25.5 22l49 22v314q0 29 19 49t48 20t48 -20t19 -49v-264l9 4q11 6 26 6q23 0 40 -17z" />
    <glyph glyph-name="m" unicode="m" horiz-adv-x="892" 
d="M779.5 452.5q50.5 -53.5 50.5 -145.5v-250q0 -30 -19 -49.5t-48 -19.5t-48.5 20t-19.5 49v231q0 44 -23.5 70t-64.5 26q-40 0 -65.5 -26t-25.5 -67v-234q0 -30 -19 -49.5t-48 -19.5t-48.5 20t-19.5 49v231q0 44 -24 70t-64 26q-41 0 -66 -26t-25 -70v-231
q0 -30 -19 -49.5t-48 -19.5t-48.5 20t-19.5 49v381q0 29 19 48.5t48 19.5q23 0 40 -13.5t23 -36.5q53 50 134 50q48 0 85.5 -18t61.5 -53q30 33 73 52t92 19q86 0 136.5 -53.5z" />
    <glyph glyph-name="n" unicode="n" horiz-adv-x="585" 
d="M471.5 452q50.5 -54 50.5 -145v-250q0 -30 -19 -49.5t-48 -19.5q-28 0 -47.5 20t-19.5 49v232q0 43 -25.5 69.5t-66.5 26.5t-67.5 -27t-26.5 -69v-232q0 -30 -19 -49.5t-48 -19.5t-48.5 20t-19.5 49v381q0 29 19 48.5t48 19.5q23 0 40.5 -14t22.5 -37q27 24 62.5 37.5
t76.5 13.5q85 0 135.5 -54z" />
    <glyph glyph-name="nacute" unicode="&#x144;" horiz-adv-x="585" 
d="M471.5 452q50.5 -54 50.5 -145v-250q0 -30 -19 -49.5t-48 -19.5q-28 0 -47.5 20t-19.5 49v232q0 43 -25.5 69.5t-66.5 26.5t-67.5 -27t-26.5 -69v-232q0 -30 -19 -49.5t-48 -19.5t-48.5 20t-19.5 49v381q0 29 19 48.5t48 19.5q23 0 40.5 -14t22.5 -37q27 24 62.5 37.5
t76.5 13.5q85 0 135.5 -54zM256 581q-17 19 -15 44q0 12 8 30l47 107q8 18 25.5 28.5t36.5 10.5q29 0 48 -20t19 -48q0 -19 -11 -37l-62 -103q-9 -14 -22.5 -22.5t-28.5 -8.5q-28 0 -45 19z" />
    <glyph glyph-name="ncaron" unicode="&#x148;" horiz-adv-x="585" 
d="M471.5 452q50.5 -54 50.5 -145v-250q0 -30 -19 -49.5t-48 -19.5q-28 0 -47.5 20t-19.5 49v232q0 43 -25.5 69.5t-66.5 26.5t-67.5 -27t-26.5 -69v-232q0 -30 -19 -49.5t-48 -19.5t-48.5 20t-19.5 49v381q0 29 19 48.5t48 19.5q23 0 40.5 -14t22.5 -37q27 24 62.5 37.5
t76.5 13.5q85 0 135.5 -54zM428.5 780q15.5 -14 15.5 -36q0 -12 -4 -20t-13 -19l-96 -115q-20 -23 -50 -23q-31 0 -51 23l-96 115q-9 11 -13 19t-4 20q0 22 15.5 36t35.5 14q19 0 34 -15l79 -82l78 82q15 15 34 15q20 0 35.5 -14z" />
    <glyph glyph-name="ncommaaccent" unicode="&#x146;" horiz-adv-x="585" 
d="M471.5 452q50.5 -54 50.5 -145v-250q0 -30 -19 -49.5t-48 -19.5q-28 0 -47.5 20t-19.5 49v232q0 43 -25.5 69.5t-66.5 26.5t-67.5 -27t-26.5 -69v-232q0 -30 -19 -49.5t-48 -19.5t-48.5 20t-19.5 49v381q0 29 19 48.5t48 19.5q23 0 40.5 -14t22.5 -37q27 24 62.5 37.5
t76.5 13.5q85 0 135.5 -54zM232.5 -237q-17.5 17 -17.5 39q0 15 5 33q7 35 7 58q0 28 20 47.5t48 19.5t47.5 -19.5t19.5 -47.5q0 -32 -10.5 -64.5t-26.5 -51.5q-22 -31 -52 -31q-23 0 -40.5 17z" />
    <glyph glyph-name="eng" unicode="&#x14b;" horiz-adv-x="585" 
d="M471.5 452q50.5 -54 50.5 -145v-313q0 -86 -51 -136t-133 -50q-32 0 -57 9q-19 7 -29.5 21.5t-10.5 33.5q0 25 16.5 41.5t41.5 16.5l12 -1q37 0 57 19t20 58v283q0 43 -25.5 69.5t-66.5 26.5t-67.5 -27t-26.5 -69v-232q0 -30 -19 -49.5t-48 -19.5t-48.5 20t-19.5 49v381
q0 29 19 48.5t48 19.5q23 0 40.5 -14t22.5 -37q27 24 62.5 37.5t76.5 13.5q85 0 135.5 -54z" />
    <glyph glyph-name="ntilde" unicode="&#xf1;" horiz-adv-x="585" 
d="M471.5 452q50.5 -54 50.5 -145v-250q0 -30 -19 -49.5t-48 -19.5q-28 0 -47.5 20t-19.5 49v232q0 43 -25.5 69.5t-66.5 26.5t-67.5 -27t-26.5 -69v-232q0 -30 -19 -49.5t-48 -19.5t-48.5 20t-19.5 49v381q0 29 19 48.5t48 19.5q23 0 40.5 -14t22.5 -37q27 24 62.5 37.5
t76.5 13.5q85 0 135.5 -54zM288 602l-28 18q-3 2 -12 8.5t-15 9t-12 2.5q-12 0 -19 -7t-11 -21q-5 -18 -18 -28t-32 -10q-24 0 -38.5 16t-14.5 42q0 58 32.5 93.5t83.5 35.5q36 0 71 -23l28 -18q16 -11 24.5 -15t17.5 -4q11 0 17 6.5t10 21.5q4 17 17.5 27t32.5 10
q25 0 39 -16t14 -42q0 -57 -31.5 -93t-80.5 -36q-40 0 -75 23z" />
    <glyph glyph-name="o" unicode="o" horiz-adv-x="608" 
d="M438 471.5q61 -34.5 96.5 -93.5t35.5 -130t-35.5 -130.5t-97 -94t-134.5 -34.5t-133.5 34.5t-95.5 94t-35 130.5t35 130.5t96 93.5t134 34t134 -34.5zM212 344.5q-36 -38.5 -36 -97.5q0 -58 36 -96t92 -38q55 0 91.5 38t36.5 96t-36.5 97t-91.5 39q-56 0 -92 -38.5z" />
    <glyph glyph-name="oacute" unicode="&#xf3;" horiz-adv-x="608" 
d="M438 471.5q61 -34.5 96.5 -93.5t35.5 -130t-35.5 -130.5t-97 -94t-134.5 -34.5t-133.5 34.5t-95.5 94t-35 130.5t35 130.5t96 93.5t134 34t134 -34.5zM212 344.5q-36 -38.5 -36 -97.5q0 -58 36 -96t92 -38q55 0 91.5 38t36.5 96t-36.5 97t-91.5 39q-56 0 -92 -38.5z
M279 581q-17 19 -15 44q0 12 8 30l47 107q8 18 25.5 28.5t36.5 10.5q29 0 48 -20t19 -48q0 -19 -11 -37l-62 -103q-9 -14 -22.5 -22.5t-28.5 -8.5q-28 0 -45 19z" />
    <glyph glyph-name="obreve" unicode="&#x14f;" horiz-adv-x="608" 
d="M438 471.5q61 -34.5 96.5 -93.5t35.5 -130t-35.5 -130.5t-97 -94t-134.5 -34.5t-133.5 34.5t-95.5 94t-35 130.5t35 130.5t96 93.5t134 34t134 -34.5zM212 344.5q-36 -38.5 -36 -97.5q0 -58 36 -96t92 -38q55 0 91.5 38t36.5 96t-36.5 97t-91.5 39q-56 0 -92 -38.5z
M219.5 593q-39.5 20 -63 53.5t-23.5 71.5q0 23 15 39t37 16q40 0 52 -41q6 -26 24 -41.5t43 -15.5t42.5 15.5t23.5 41.5q12 41 51 41q22 0 37.5 -16t15.5 -39q0 -38 -23 -71.5t-62 -53.5t-85 -20q-45 0 -84.5 20z" />
    <glyph glyph-name="ocircumflex" unicode="&#xf4;" horiz-adv-x="608" 
d="M438 471.5q61 -34.5 96.5 -93.5t35.5 -130t-35.5 -130.5t-97 -94t-134.5 -34.5t-133.5 34.5t-95.5 94t-35 130.5t35 130.5t96 93.5t134 34t134 -34.5zM212 344.5q-36 -38.5 -36 -97.5q0 -58 36 -96t92 -38q55 0 91.5 38t36.5 96t-36.5 97t-91.5 39q-56 0 -92 -38.5z
M463 636q4 -8 4 -20q0 -22 -15.5 -36t-35.5 -14q-19 0 -34 15l-78 82l-79 -82q-15 -15 -34 -15q-20 0 -35.5 14t-15.5 36q0 12 4 20t13 19l96 115q20 23 51 23q30 0 50 -23l96 -115q9 -11 13 -19z" />
    <glyph glyph-name="odieresis" unicode="&#xf6;" horiz-adv-x="608" 
d="M438 471.5q61 -34.5 96.5 -93.5t35.5 -130t-35.5 -130.5t-97 -94t-134.5 -34.5t-133.5 34.5t-95.5 94t-35 130.5t35 130.5t96 93.5t134 34t134 -34.5zM212 344.5q-36 -38.5 -36 -97.5q0 -58 36 -96t92 -38q55 0 91.5 38t36.5 96t-36.5 97t-91.5 39q-56 0 -92 -38.5z
M242.5 731.5q23.5 -22.5 23.5 -56.5q0 -31 -24 -54t-57 -23q-32 0 -56.5 23.5t-24.5 53.5q0 33 24 56t57 23q34 0 57.5 -22.5zM480 731.5q23 -22.5 23 -56.5q0 -32 -23.5 -54.5t-57.5 -22.5q-31 0 -55.5 23.5t-24.5 53.5q0 33 23.5 56t56.5 23q35 0 58 -22.5z" />
    <glyph glyph-name="ograve" unicode="&#xf2;" horiz-adv-x="608" 
d="M438 471.5q61 -34.5 96.5 -93.5t35.5 -130t-35.5 -130.5t-97 -94t-134.5 -34.5t-133.5 34.5t-95.5 94t-35 130.5t35 130.5t96 93.5t134 34t134 -34.5zM212 344.5q-36 -38.5 -36 -97.5q0 -58 36 -96t92 -38q55 0 91.5 38t36.5 96t-36.5 97t-91.5 39q-56 0 -92 -38.5z
M254.5 570.5q-13.5 8.5 -22.5 22.5l-62 103q-11 18 -11 37q0 28 19 48t48 20q19 0 36.5 -10.5t25.5 -28.5l47 -107q8 -18 8 -30q2 -25 -15 -44t-45 -19q-15 0 -28.5 8.5z" />
    <glyph glyph-name="ohungarumlaut" unicode="&#x151;" horiz-adv-x="608" 
d="M438 471.5q61 -34.5 96.5 -93.5t35.5 -130t-35.5 -130.5t-97 -94t-134.5 -34.5t-133.5 34.5t-95.5 94t-35 130.5t35 130.5t96 93.5t134 34t134 -34.5zM212 344.5q-36 -38.5 -36 -97.5q0 -58 36 -96t92 -38q55 0 91.5 38t36.5 96t-36.5 97t-91.5 39q-56 0 -92 -38.5z
M188 581q-17 19 -15 44q0 12 8 30l47 107q8 18 25.5 28.5t36.5 10.5q29 0 48 -20t19 -48q0 -19 -11 -37l-62 -103q-9 -14 -22.5 -22.5t-28.5 -8.5q-28 0 -45 19zM380 581q-17 19 -15 44q0 12 8 30l47 107q8 18 25.5 28.5t36.5 10.5q29 0 48 -20t19 -48q0 -19 -11 -37
l-62 -103q-9 -14 -22.5 -22.5t-28.5 -8.5q-28 0 -45 19z" />
    <glyph glyph-name="omacron" unicode="&#x14d;" horiz-adv-x="608" 
d="M438 471.5q61 -34.5 96.5 -93.5t35.5 -130t-35.5 -130.5t-97 -94t-134.5 -34.5t-133.5 34.5t-95.5 94t-35 130.5t35 130.5t96 93.5t134 34t134 -34.5zM212 344.5q-36 -38.5 -36 -97.5q0 -58 36 -96t92 -38q55 0 91.5 38t36.5 96t-36.5 97t-91.5 39q-56 0 -92 -38.5z
M447 713q16 -15 16 -38t-16 -38t-40 -15h-206q-24 0 -40 15t-16 38t16 38t40 15h206q24 0 40 -15z" />
    <glyph glyph-name="oslash" unicode="&#xf8;" horiz-adv-x="612" 
d="M529 390q43 -65 43 -143q0 -70 -35.5 -129.5t-97 -94.5t-134.5 -35q-78 0 -140 39l-28 -28q-20 -21 -45 -21q-23 0 -40 16.5t-17 40.5q0 23 22 44l26 26q-42 64 -42 142q0 72 35 131.5t96 93.5t134 34q75 0 140 -38l28 28q20 20 43 20q24 0 41 -16.5t17 -40.5
q0 -23 -20 -43zM205.5 351.5q-38.5 -40.5 -38.5 -104.5q0 -35 12 -62l192 192q-28 15 -65 15q-62 0 -100.5 -40.5zM405.5 143q39.5 41 39.5 104q0 35 -12 62l-193 -192q29 -15 65 -15q61 0 100.5 41z" />
    <glyph glyph-name="oslashacute" unicode="&#x1ff;" horiz-adv-x="612" 
d="M529 390q43 -65 43 -143q0 -70 -35.5 -129.5t-97 -94.5t-134.5 -35q-78 0 -140 39l-28 -28q-20 -21 -45 -21q-23 0 -40 16.5t-17 40.5q0 23 22 44l26 26q-42 64 -42 142q0 72 35 131.5t96 93.5t134 34q75 0 140 -38l28 28q20 20 43 20q24 0 41 -16.5t17 -40.5
q0 -23 -20 -43zM205.5 351.5q-38.5 -40.5 -38.5 -104.5q0 -35 12 -62l192 192q-28 15 -65 15q-62 0 -100.5 -40.5zM405.5 143q39.5 41 39.5 104q0 35 -12 62l-193 -192q29 -15 65 -15q61 0 100.5 41zM282 581q-17 19 -15 44q0 12 8 30l47 107q8 18 25.5 28.5t36.5 10.5
q29 0 48 -20t19 -48q0 -19 -11 -37l-62 -103q-9 -14 -22.5 -22.5t-28.5 -8.5q-28 0 -45 19z" />
    <glyph glyph-name="otilde" unicode="&#xf5;" horiz-adv-x="608" 
d="M438 471.5q61 -34.5 96.5 -93.5t35.5 -130t-35.5 -130.5t-97 -94t-134.5 -34.5t-133.5 34.5t-95.5 94t-35 130.5t35 130.5t96 93.5t134 34t134 -34.5zM212 344.5q-36 -38.5 -36 -97.5q0 -58 36 -96t92 -38q55 0 91.5 38t36.5 96t-36.5 97t-91.5 39q-56 0 -92 -38.5z
M311 602l-28 18q-3 2 -12 8.5t-15 9t-12 2.5q-12 0 -19 -7t-11 -21q-5 -18 -18 -28t-32 -10q-24 0 -38.5 16t-14.5 42q0 58 32.5 93.5t83.5 35.5q36 0 71 -23l28 -18q16 -11 24.5 -15t17.5 -4q11 0 17 6.5t10 21.5q4 17 17.5 27t32.5 10q25 0 39 -16t14 -42q0 -57 -31.5 -93
t-80.5 -36q-40 0 -75 23z" />
    <glyph glyph-name="oe" unicode="&#x153;" horiz-adv-x="942" 
d="M789.5 476q53.5 -30 84 -83t30.5 -119v-3q0 -31 -20 -50t-53 -19h-279q11 -47 46 -72.5t90 -25.5q59 0 102 29q15 9 29 9q23 0 39 -15.5t16 -38.5q0 -17 -8 -29.5t-26 -24.5q-67 -46 -156 -46q-61 0 -112 24t-85 67q-32 -43 -80 -67t-106 -24q-72 0 -132 34.5t-95 94
t-35 130.5t35 130.5t95 94t132 34.5q58 0 105.5 -23.5t79.5 -66.5q33 43 80.5 66.5t102.5 23.5q67 0 120.5 -30zM593.5 370.5q-30.5 -26.5 -41.5 -73.5h221q-2 45 -31 72.5t-75 27.5q-43 0 -73.5 -26.5zM390.5 150q34.5 38 34.5 97q0 60 -34.5 98t-87.5 38q-55 0 -91 -38.5
t-36 -97.5t36 -97t91 -38q53 0 87.5 38z" />
    <glyph glyph-name="p" unicode="p" horiz-adv-x="629" 
d="M473.5 473q54.5 -33 85.5 -92t31 -133t-31 -133.5t-85.5 -93t-123.5 -33.5q-46 0 -84 15.5t-64 44.5v-172q0 -29 -19 -48.5t-48 -19.5t-48.5 19.5t-19.5 48.5v564q0 29 19.5 48t47.5 19q27 0 45 -18t20 -46q26 30 64.5 46.5t86.5 16.5q69 0 123.5 -33zM417 149.5
q36 38.5 36 97.5q0 60 -36 98.5t-92 38.5t-90.5 -37.5t-34.5 -98.5t35 -99t90 -38q56 0 92 38.5z" />
    <glyph glyph-name="thorn" unicode="&#xfe;" horiz-adv-x="629" 
d="M473.5 473q54.5 -33 85.5 -92t31 -133t-31 -133.5t-85.5 -93t-123.5 -33.5q-46 0 -84 15.5t-64 44.5v-172q0 -29 -19 -48.5t-48 -19.5t-48.5 19.5t-19.5 48.5v817q0 29 19.5 49t48.5 20t48 -19.5t19 -49.5v-246q26 29 64 44t84 15q69 0 123.5 -33zM417 149.5
q36 38.5 36 97.5q0 60 -36 98.5t-92 38.5t-90.5 -37.5t-34.5 -98.5t35 -99t90 -38q56 0 92 38.5z" />
    <glyph glyph-name="q" unicode="q" horiz-adv-x="629" 
d="M543 486.5q19 -19.5 19 -48.5v-562q0 -29 -19 -48.5t-48 -19.5t-48.5 19.5t-19.5 48.5v172q-26 -29 -64 -44.5t-84 -15.5q-69 0 -123.5 33.5t-85.5 93t-31 133.5t31 133t85.5 92t123.5 33q48 0 86.5 -16.5t64.5 -46.5q2 27 21 45t45 18q28 0 47 -19.5zM394 149
q35 38 35 99t-34.5 98.5t-90.5 37.5t-92 -38.5t-36 -98.5q0 -59 36 -97.5t92 -38.5q55 0 90 38z" />
    <glyph glyph-name="r" unicode="r" horiz-adv-x="388" 
d="M364 484.5q17 -16.5 17 -44.5q0 -27 -17 -44.5t-46 -20.5q-54 -4 -85 -37.5t-31 -90.5v-190q0 -30 -19 -49.5t-48 -19.5t-48.5 20t-19.5 49v381q0 29 19 48.5t48 19.5q26 0 44.5 -17.5t20.5 -43.5q24 27 55 41.5t66 14.5q27 0 44 -16.5z" />
    <glyph glyph-name="racute" unicode="&#x155;" horiz-adv-x="388" 
d="M364 484.5q17 -16.5 17 -44.5q0 -27 -17 -44.5t-46 -20.5q-54 -4 -85 -37.5t-31 -90.5v-190q0 -30 -19 -49.5t-48 -19.5t-48.5 20t-19.5 49v381q0 29 19 48.5t48 19.5q26 0 44.5 -17.5t20.5 -43.5q24 27 55 41.5t66 14.5q27 0 44 -16.5zM166 581q-17 19 -15 44q0 12 8 30
l47 107q8 18 25.5 28.5t36.5 10.5q29 0 48 -20t19 -48q0 -19 -11 -37l-62 -103q-9 -14 -22.5 -22.5t-28.5 -8.5q-28 0 -45 19z" />
    <glyph glyph-name="rcaron" unicode="&#x159;" horiz-adv-x="388" 
d="M364 484.5q17 -16.5 17 -44.5q0 -27 -17 -44.5t-46 -20.5q-54 -4 -85 -37.5t-31 -90.5v-190q0 -30 -19 -49.5t-48 -19.5t-48.5 20t-19.5 49v381q0 29 19 48.5t48 19.5q26 0 44.5 -17.5t20.5 -43.5q24 27 55 41.5t66 14.5q27 0 44 -16.5zM338.5 780q15.5 -14 15.5 -36
q0 -12 -4 -20t-13 -19l-96 -115q-20 -23 -50 -23q-31 0 -51 23l-96 115q-9 11 -13 19t-4 20q0 22 15.5 36t35.5 14q19 0 34 -15l79 -82l78 82q15 15 34 15q20 0 35.5 -14z" />
    <glyph glyph-name="rcommaaccent" unicode="&#x157;" horiz-adv-x="388" 
d="M364 484.5q17 -16.5 17 -44.5q0 -27 -17 -44.5t-46 -20.5q-54 -4 -85 -37.5t-31 -90.5v-190q0 -30 -19 -49.5t-48 -19.5t-48.5 20t-19.5 49v381q0 29 19 48.5t48 19.5q26 0 44.5 -17.5t20.5 -43.5q24 27 55 41.5t66 14.5q27 0 44 -16.5zM69.5 -237q-17.5 17 -17.5 39
q0 15 5 33q7 35 7 58q0 28 20 47.5t48 19.5t47.5 -19.5t19.5 -47.5q0 -32 -10.5 -64.5t-26.5 -51.5q-22 -31 -52 -31q-23 0 -40.5 17z" />
    <glyph glyph-name="s" unicode="s" horiz-adv-x="455" 
d="M126 7q-47 19 -81 52q-19 16 -19 42q0 23 16.5 40t39.5 17q20 0 39 -15q51 -44 108 -44q27 0 45 10.5t18 30.5q0 16 -11.5 24.5t-39.5 20.5l-53 22q-68 28 -101.5 62t-33.5 89q0 70 50.5 109.5t131.5 39.5q44 0 85 -14t71 -39q24 -18 24 -46q0 -23 -16 -39.5t-39 -16.5
q-15 0 -36 14q-43 30 -90 30q-25 0 -39 -9t-14 -26q0 -14 11.5 -23.5t40.5 -20.5l48 -20q72 -29 105.5 -62.5t33.5 -88.5q0 -74 -54.5 -116t-138.5 -42q-54 0 -101 19z" />
    <glyph glyph-name="sacute" unicode="&#x15b;" horiz-adv-x="455" 
d="M126 7q-47 19 -81 52q-19 16 -19 42q0 23 16.5 40t39.5 17q20 0 39 -15q51 -44 108 -44q27 0 45 10.5t18 30.5q0 16 -11.5 24.5t-39.5 20.5l-53 22q-68 28 -101.5 62t-33.5 89q0 70 50.5 109.5t131.5 39.5q44 0 85 -14t71 -39q24 -18 24 -46q0 -23 -16 -39.5t-39 -16.5
q-15 0 -36 14q-43 30 -90 30q-25 0 -39 -9t-14 -26q0 -14 11.5 -23.5t40.5 -20.5l48 -20q72 -29 105.5 -62.5t33.5 -88.5q0 -74 -54.5 -116t-138.5 -42q-54 0 -101 19zM207 581q-17 19 -15 44q0 12 8 30l47 107q8 18 25.5 28.5t36.5 10.5q29 0 48 -20t19 -48q0 -19 -11 -37
l-62 -103q-9 -14 -22.5 -22.5t-28.5 -8.5q-28 0 -45 19z" />
    <glyph glyph-name="scaron" unicode="&#x161;" horiz-adv-x="455" 
d="M126 7q-47 19 -81 52q-19 16 -19 42q0 23 16.5 40t39.5 17q20 0 39 -15q51 -44 108 -44q27 0 45 10.5t18 30.5q0 16 -11.5 24.5t-39.5 20.5l-53 22q-68 28 -101.5 62t-33.5 89q0 70 50.5 109.5t131.5 39.5q44 0 85 -14t71 -39q24 -18 24 -46q0 -23 -16 -39.5t-39 -16.5
q-15 0 -36 14q-43 30 -90 30q-25 0 -39 -9t-14 -26q0 -14 11.5 -23.5t40.5 -20.5l48 -20q72 -29 105.5 -62.5t33.5 -88.5q0 -74 -54.5 -116t-138.5 -42q-54 0 -101 19zM379.5 780q15.5 -14 15.5 -36q0 -12 -4 -20t-13 -19l-96 -115q-20 -23 -50 -23q-31 0 -51 23l-96 115
q-9 11 -13 19t-4 20q0 22 15.5 36t35.5 14q19 0 34 -15l79 -82l78 82q15 15 34 15q20 0 35.5 -14z" />
    <glyph glyph-name="scedilla" unicode="&#x15f;" horiz-adv-x="455" 
d="M126 7q-47 19 -81 52q-19 16 -19 42q0 23 16.5 40t39.5 17q20 0 39 -15q51 -44 108 -44q27 0 45 10.5t18 30.5q0 16 -11.5 24.5t-39.5 20.5l-53 22q-68 28 -101.5 62t-33.5 89q0 70 50.5 109.5t131.5 39.5q44 0 85 -14t71 -39q24 -18 24 -46q0 -23 -16 -39.5t-39 -16.5
q-15 0 -36 14q-43 30 -90 30q-25 0 -39 -9t-14 -26q0 -14 11.5 -23.5t40.5 -20.5l48 -20q72 -29 105.5 -62.5t33.5 -88.5q0 -74 -54.5 -116t-138.5 -42q-54 0 -101 19zM118 -183q-32 14 -32 43q0 20 14 34t34 14l32 -1q26 0 42 10t16 30q0 27 -21 54q-2 3 -9 12t-10.5 17
t-3.5 15q0 16 12 25.5t30 9.5q25 0 52 -22.5t45 -56t18 -64.5q0 -59 -42 -94t-112 -35q-41 0 -65 9z" />
    <glyph glyph-name="scircumflex" unicode="&#x15d;" horiz-adv-x="455" 
d="M126 7q-47 19 -81 52q-19 16 -19 42q0 23 16.5 40t39.5 17q20 0 39 -15q51 -44 108 -44q27 0 45 10.5t18 30.5q0 16 -11.5 24.5t-39.5 20.5l-53 22q-68 28 -101.5 62t-33.5 89q0 70 50.5 109.5t131.5 39.5q44 0 85 -14t71 -39q24 -18 24 -46q0 -23 -16 -39.5t-39 -16.5
q-15 0 -36 14q-43 30 -90 30q-25 0 -39 -9t-14 -26q0 -14 11.5 -23.5t40.5 -20.5l48 -20q72 -29 105.5 -62.5t33.5 -88.5q0 -74 -54.5 -116t-138.5 -42q-54 0 -101 19zM391 636q4 -8 4 -20q0 -22 -15.5 -36t-35.5 -14q-19 0 -34 15l-78 82l-79 -82q-15 -15 -34 -15
q-20 0 -35.5 14t-15.5 36q0 12 4 20t13 19l96 115q20 23 51 23q30 0 50 -23l96 -115q9 -11 13 -19z" />
    <glyph glyph-name="scommaaccent" unicode="&#x219;" horiz-adv-x="455" 
d="M126 7q-47 19 -81 52q-19 16 -19 42q0 23 16.5 40t39.5 17q20 0 39 -15q51 -44 108 -44q27 0 45 10.5t18 30.5q0 16 -11.5 24.5t-39.5 20.5l-53 22q-68 28 -101.5 62t-33.5 89q0 70 50.5 109.5t131.5 39.5q44 0 85 -14t71 -39q24 -18 24 -46q0 -23 -16 -39.5t-39 -16.5
q-15 0 -36 14q-43 30 -90 30q-25 0 -39 -9t-14 -26q0 -14 11.5 -23.5t40.5 -20.5l48 -20q72 -29 105.5 -62.5t33.5 -88.5q0 -74 -54.5 -116t-138.5 -42q-54 0 -101 19zM170.5 -237q-17.5 17 -17.5 39q0 15 5 33q7 35 7 58q0 28 20 47.5t48 19.5t47.5 -19.5t19.5 -47.5
q0 -32 -10.5 -64.5t-26.5 -51.5q-22 -31 -52 -31q-23 0 -40.5 17z" />
    <glyph glyph-name="germandbls" unicode="&#xdf;" horiz-adv-x="650" 
d="M354.5 -0.5q-39.5 11.5 -68.5 32.5q-13 8 -20.5 21t-7.5 27q0 23 17 39.5t40 16.5q11 0 32 -10q48 -24 90 -24q57 0 57 42q0 12 -5.5 20.5t-21 19.5t-51.5 32q-56 34 -79 61.5t-23 60.5q0 29 18 73l34 87q14 34 14 66q0 36 -20.5 56t-57.5 20q-48 0 -75 -33t-27 -91v-459
q0 -29 -19 -49t-47 -20t-47.5 20t-19.5 49v465q0 113 63.5 176.5t176.5 63.5q95 0 152 -44t57 -118q0 -41 -17 -83l-39 -100q-13 -31 -13 -48q0 -14 5.5 -23.5t22 -22t52.5 -34.5q54 -33 76 -65.5t22 -77.5q0 -72 -51 -115t-137 -43q-43 0 -82.5 11.5z" />
    <glyph glyph-name="uni0259" unicode="&#x259;" horiz-adv-x="569" 
d="M398 473q62 -34 97 -93t35 -132q0 -72 -33.5 -131.5t-92.5 -93.5t-131 -34q-67 0 -120.5 30t-84 83t-30.5 119v3q0 31 20.5 50t53.5 19h282q-12 47 -48 72.5t-91 25.5q-57 0 -103 -29q-15 -9 -29 -9q-23 0 -39 15.5t-16 38.5q0 17 8 29.5t26 24.5q69 46 157 46
q77 0 139 -34zM351.5 125q31.5 27 42.5 73h-225q2 -45 31 -72.5t76 -27.5q44 0 75.5 27z" />
    <glyph glyph-name="t" unicode="t" horiz-adv-x="416" 
d="M380 95q16 -15 16 -40q0 -18 -9 -32t-25 -22q-31 -13 -70 -13q-97 0 -147.5 47.5t-50.5 138.5v207h-28q-25 0 -41.5 16t-16.5 41t16.5 41t41.5 16h28v68q0 29 19 48.5t49 19.5q29 0 48 -19.5t19 -48.5v-68h91q25 0 41 -16t16 -41t-16 -41t-41 -16h-91v-195q0 -41 21 -59
t68 -18l19 1q27 0 43 -15z" />
    <glyph glyph-name="tbar" unicode="&#x167;" horiz-adv-x="431" 
d="M390 95q16 -15 16 -40q0 -19 -9 -33t-25 -21q-27 -13 -76 -13q-97 0 -147.5 47.5t-50.5 138.5v23h-26q-23 0 -38.5 15.5t-15.5 38.5t15.5 38.5t38.5 15.5h26v81h-26q-23 0 -38.5 15.5t-15.5 38.5t15.5 38.5t38.5 15.5h26v69q0 29 19 48.5t49 19.5q29 0 48 -19.5t19 -48.5
v-69h100q23 0 38.5 -15.5t15.5 -38.5t-15.5 -38.5t-38.5 -15.5h-100v-81h100q23 0 38.5 -15.5t15.5 -38.5t-15.5 -38.5t-38.5 -15.5h-100v-11q0 -41 21 -59t68 -18l25 1q27 0 43 -15z" />
    <glyph glyph-name="tcaron" unicode="&#x165;" horiz-adv-x="416" 
d="M380 95q16 -15 16 -40q0 -18 -9 -32t-25 -22q-31 -13 -70 -13q-97 0 -147.5 47.5t-50.5 138.5v207h-28q-25 0 -41.5 16t-16.5 41t16.5 41t41.5 16h28v68q0 29 19 48.5t49 19.5q29 0 48 -19.5t19 -48.5v-68h91q25 0 41 -16t16 -41t-16 -41t-41 -16h-91v-195q0 -41 21 -59
t68 -18l19 1q27 0 43 -15zM327 552.5q-18 17.5 -18 43.5q0 8 1 12l17 112q3 24 21.5 42t45.5 18t47.5 -19t20.5 -48q0 -11 -5 -26l-32 -111q-15 -41 -56 -41q-24 0 -42 17.5z" />
    <glyph glyph-name="uni0163" unicode="&#x163;" horiz-adv-x="416" 
d="M380 95q16 -15 16 -40q0 -18 -9 -32t-25 -22q-31 -13 -70 -13q-97 0 -147.5 47.5t-50.5 138.5v207h-28q-25 0 -41.5 16t-16.5 41t16.5 41t41.5 16h28v68q0 29 19 48.5t49 19.5q29 0 48 -19.5t19 -48.5v-68h91q25 0 41 -16t16 -41t-16 -41t-41 -16h-91v-195q0 -41 21 -59
t68 -18l19 1q27 0 43 -15zM113 -183q-32 14 -32 43q0 20 14 34t34 14l32 -1q26 0 42 10t16 30q0 27 -21 54q-2 3 -9 12t-10.5 17t-3.5 15q0 16 12 25.5t30 9.5q25 0 52 -22.5t45 -56t18 -64.5q0 -59 -42 -94t-112 -35q-41 0 -65 9z" />
    <glyph glyph-name="u" unicode="u" horiz-adv-x="580" 
d="M172 17q-52 29 -81 81.5t-29 119.5v220q0 29 19.5 48.5t48.5 19.5t48 -19.5t19 -48.5v-231q0 -41 26.5 -68t67.5 -27q40 0 66 27t26 68v231q0 29 19 48.5t49 19.5q29 0 48 -19.5t19 -48.5v-220q0 -67 -29 -119.5t-80.5 -81.5t-117.5 -29q-67 0 -119 29z" />
    <glyph glyph-name="uacute" unicode="&#xfa;" horiz-adv-x="580" 
d="M172 17q-52 29 -81 81.5t-29 119.5v220q0 29 19.5 48.5t48.5 19.5t48 -19.5t19 -48.5v-231q0 -41 26.5 -68t67.5 -27q40 0 66 27t26 68v231q0 29 19 48.5t49 19.5q29 0 48 -19.5t19 -48.5v-220q0 -67 -29 -119.5t-80.5 -81.5t-117.5 -29q-67 0 -119 29zM265 581
q-17 19 -15 44q0 12 8 30l47 107q8 18 25.5 28.5t36.5 10.5q29 0 48 -20t19 -48q0 -19 -11 -37l-62 -103q-9 -14 -22.5 -22.5t-28.5 -8.5q-28 0 -45 19z" />
    <glyph glyph-name="ubreve" unicode="&#x16d;" horiz-adv-x="580" 
d="M172 17q-52 29 -81 81.5t-29 119.5v220q0 29 19.5 48.5t48.5 19.5t48 -19.5t19 -48.5v-231q0 -41 26.5 -68t67.5 -27q40 0 66 27t26 68v231q0 29 19 48.5t49 19.5q29 0 48 -19.5t19 -48.5v-220q0 -67 -29 -119.5t-80.5 -81.5t-117.5 -29q-67 0 -119 29zM205.5 593
q-39.5 20 -63 53.5t-23.5 71.5q0 23 15 39t37 16q40 0 52 -41q6 -26 24 -41.5t43 -15.5t42.5 15.5t23.5 41.5q12 41 51 41q22 0 37.5 -16t15.5 -39q0 -38 -23 -71.5t-62 -53.5t-85 -20q-45 0 -84.5 20z" />
    <glyph glyph-name="uni01D4" unicode="&#x1d4;" horiz-adv-x="580" 
d="M172 17q-52 29 -81 81.5t-29 119.5v220q0 29 19.5 48.5t48.5 19.5t48 -19.5t19 -48.5v-231q0 -41 26.5 -68t67.5 -27q40 0 66 27t26 68v231q0 29 19 48.5t49 19.5q29 0 48 -19.5t19 -48.5v-220q0 -67 -29 -119.5t-80.5 -81.5t-117.5 -29q-67 0 -119 29zM437.5 780
q15.5 -14 15.5 -36q0 -12 -4 -20t-13 -19l-96 -115q-20 -23 -50 -23q-31 0 -51 23l-96 115q-9 11 -13 19t-4 20q0 22 15.5 36t35.5 14q19 0 34 -15l79 -82l78 82q15 15 34 15q20 0 35.5 -14z" />
    <glyph glyph-name="ucircumflex" unicode="&#xfb;" horiz-adv-x="580" 
d="M172 17q-52 29 -81 81.5t-29 119.5v220q0 29 19.5 48.5t48.5 19.5t48 -19.5t19 -48.5v-231q0 -41 26.5 -68t67.5 -27q40 0 66 27t26 68v231q0 29 19 48.5t49 19.5q29 0 48 -19.5t19 -48.5v-220q0 -67 -29 -119.5t-80.5 -81.5t-117.5 -29q-67 0 -119 29zM449 636
q4 -8 4 -20q0 -22 -15.5 -36t-35.5 -14q-19 0 -34 15l-78 82l-79 -82q-15 -15 -34 -15q-20 0 -35.5 14t-15.5 36q0 12 4 20t13 19l96 115q20 23 51 23q30 0 50 -23l96 -115q9 -11 13 -19z" />
    <glyph glyph-name="udieresis" unicode="&#xfc;" horiz-adv-x="580" 
d="M172 17q-52 29 -81 81.5t-29 119.5v220q0 29 19.5 48.5t48.5 19.5t48 -19.5t19 -48.5v-231q0 -41 26.5 -68t67.5 -27q40 0 66 27t26 68v231q0 29 19 48.5t49 19.5q29 0 48 -19.5t19 -48.5v-220q0 -67 -29 -119.5t-80.5 -81.5t-117.5 -29q-67 0 -119 29zM228.5 731.5
q23.5 -22.5 23.5 -56.5q0 -31 -24 -54t-57 -23q-32 0 -56.5 23.5t-24.5 53.5q0 33 24 56t57 23q34 0 57.5 -22.5zM466 731.5q23 -22.5 23 -56.5q0 -32 -23.5 -54.5t-57.5 -22.5q-31 0 -55.5 23.5t-24.5 53.5q0 33 23.5 56t56.5 23q35 0 58 -22.5z" />
    <glyph glyph-name="ugrave" unicode="&#xf9;" horiz-adv-x="580" 
d="M172 17q-52 29 -81 81.5t-29 119.5v220q0 29 19.5 48.5t48.5 19.5t48 -19.5t19 -48.5v-231q0 -41 26.5 -68t67.5 -27q40 0 66 27t26 68v231q0 29 19 48.5t49 19.5q29 0 48 -19.5t19 -48.5v-220q0 -67 -29 -119.5t-80.5 -81.5t-117.5 -29q-67 0 -119 29zM240.5 570.5
q-13.5 8.5 -22.5 22.5l-62 103q-11 18 -11 37q0 28 19 48t48 20q19 0 36.5 -10.5t25.5 -28.5l47 -107q8 -18 8 -30q2 -25 -15 -44t-45 -19q-15 0 -28.5 8.5z" />
    <glyph glyph-name="uhungarumlaut" unicode="&#x171;" horiz-adv-x="580" 
d="M172 17q-52 29 -81 81.5t-29 119.5v220q0 29 19.5 48.5t48.5 19.5t48 -19.5t19 -48.5v-231q0 -41 26.5 -68t67.5 -27q40 0 66 27t26 68v231q0 29 19 48.5t49 19.5q29 0 48 -19.5t19 -48.5v-220q0 -67 -29 -119.5t-80.5 -81.5t-117.5 -29q-67 0 -119 29zM174 581
q-17 19 -15 44q0 12 8 30l47 107q8 18 25.5 28.5t36.5 10.5q29 0 48 -20t19 -48q0 -19 -11 -37l-62 -103q-9 -14 -22.5 -22.5t-28.5 -8.5q-28 0 -45 19zM366 581q-17 19 -15 44q0 12 8 30l47 107q8 18 25.5 28.5t36.5 10.5q29 0 48 -20t19 -48q0 -19 -11 -37l-62 -103
q-9 -14 -22.5 -22.5t-28.5 -8.5q-28 0 -45 19z" />
    <glyph glyph-name="umacron" unicode="&#x16b;" horiz-adv-x="580" 
d="M172 17q-52 29 -81 81.5t-29 119.5v220q0 29 19.5 48.5t48.5 19.5t48 -19.5t19 -48.5v-231q0 -41 26.5 -68t67.5 -27q40 0 66 27t26 68v231q0 29 19 48.5t49 19.5q29 0 48 -19.5t19 -48.5v-220q0 -67 -29 -119.5t-80.5 -81.5t-117.5 -29q-67 0 -119 29zM433 713
q16 -15 16 -38t-16 -38t-40 -15h-206q-24 0 -40 15t-16 38t16 38t40 15h206q24 0 40 -15z" />
    <glyph glyph-name="uni021B" unicode="&#x21b;" horiz-adv-x="416" 
d="M380 95q16 -15 16 -40q0 -18 -9 -32t-25 -22q-31 -13 -70 -13q-97 0 -147.5 47.5t-50.5 138.5v207h-28q-25 0 -41.5 16t-16.5 41t16.5 41t41.5 16h28v68q0 29 19 48.5t49 19.5q29 0 48 -19.5t19 -48.5v-68h91q25 0 41 -16t16 -41t-16 -41t-41 -16h-91v-195q0 -41 21 -59
t68 -18l19 1q27 0 43 -15zM165.5 -237q-17.5 17 -17.5 39q0 15 5 33q7 35 7 58q0 28 20 47.5t48 19.5t47.5 -19.5t19.5 -47.5q0 -32 -10.5 -64.5t-26.5 -51.5q-22 -31 -52 -31q-23 0 -40.5 17z" />
    <glyph glyph-name="uogonek" unicode="&#x173;" horiz-adv-x="580" 
d="M499 486.5q19 -19.5 19 -48.5v-220q0 -57 -21.5 -104t-59.5 -78l-51 -49q-20 -18 -27.5 -30.5t-7.5 -24.5q0 -13 9.5 -20t26.5 -7q5 0 9 1t6 1q19 0 30.5 -12t11.5 -32q0 -17 -10 -29.5t-29 -18.5q-28 -7 -59 -7q-55 0 -88 27.5t-33 72.5q0 41 37 82q-90 9 -145 71.5
t-55 156.5v220q0 29 19.5 48.5t48.5 19.5t48 -19.5t19 -48.5v-231q0 -41 26.5 -68t67.5 -27q40 0 66 27t26 68v231q0 29 19 48.5t49 19.5q29 0 48 -19.5z" />
    <glyph glyph-name="uring" unicode="&#x16f;" horiz-adv-x="580" 
d="M172 17q-52 29 -81 81.5t-29 119.5v220q0 29 19.5 48.5t48.5 19.5t48 -19.5t19 -48.5v-231q0 -41 26.5 -68t67.5 -27q40 0 66 27t26 68v231q0 29 19 48.5t49 19.5q29 0 48 -19.5t19 -48.5v-220q0 -67 -29 -119.5t-80.5 -81.5t-117.5 -29q-67 0 -119 29zM380 760.5
q36 -34.5 36 -87.5t-36 -88t-91 -35q-54 0 -90 35t-36 88q0 52 36 87t90 35q55 0 91 -34.5zM261 702.5q-12 -11.5 -12 -29.5t11.5 -29.5t29.5 -11.5q17 0 29 12t12 29q0 18 -12 29.5t-29 11.5t-29 -11.5z" />
    <glyph glyph-name="utilde" unicode="&#x169;" horiz-adv-x="580" 
d="M172 17q-52 29 -81 81.5t-29 119.5v220q0 29 19.5 48.5t48.5 19.5t48 -19.5t19 -48.5v-231q0 -41 26.5 -68t67.5 -27q40 0 66 27t26 68v231q0 29 19 48.5t49 19.5q29 0 48 -19.5t19 -48.5v-220q0 -67 -29 -119.5t-80.5 -81.5t-117.5 -29q-67 0 -119 29zM297 602l-28 18
q-3 2 -12 8.5t-15 9t-12 2.5q-12 0 -19 -7t-11 -21q-5 -18 -18 -28t-32 -10q-24 0 -38.5 16t-14.5 42q0 58 32.5 93.5t83.5 35.5q36 0 71 -23l28 -18q16 -11 24.5 -15t17.5 -4q11 0 17 6.5t10 21.5q4 17 17.5 27t32.5 10q25 0 39 -16t14 -42q0 -57 -31.5 -93t-80.5 -36
q-40 0 -75 23z" />
    <glyph glyph-name="v" unicode="v" horiz-adv-x="559" 
d="M518.5 486.5q19.5 -19.5 19.5 -45.5q0 -15 -10 -36l-186 -375q-10 -20 -26 -31t-36 -11t-36 11t-26 31l-186 375q-11 21 -11 36q0 26 19.5 45.5t46.5 19.5q40 0 59 -38l134 -276l133 276q19 38 60 38q26 0 45.5 -19.5z" />
    <glyph glyph-name="w" unicode="w" horiz-adv-x="856" 
d="M819 487q19 -19 19 -46q0 -18 -7 -33l-172 -378q-10 -20 -25.5 -31t-35.5 -11t-36 11t-25 31l-109 251l-109 -251q-20 -42 -61 -42q-20 0 -35.5 11t-25.5 31l-172 378q-7 15 -7 33q0 27 19 46t46 19q19 0 35 -10t24 -27l120 -263l101 250q21 50 65 50t64 -50l102 -251
l120 264q8 17 24 27t35 10q27 0 46 -19z" />
    <glyph glyph-name="wacute" unicode="&#x1e83;" horiz-adv-x="856" 
d="M819 487q19 -19 19 -46q0 -18 -7 -33l-172 -378q-10 -20 -25.5 -31t-35.5 -11t-36 11t-25 31l-109 251l-109 -251q-20 -42 -61 -42q-20 0 -35.5 11t-25.5 31l-172 378q-7 15 -7 33q0 27 19 46t46 19q19 0 35 -10t24 -27l120 -263l101 250q21 50 65 50t64 -50l102 -251
l120 264q8 17 24 27t35 10q27 0 46 -19zM403 581q-17 19 -15 44q0 12 8 30l47 107q8 18 25.5 28.5t36.5 10.5q29 0 48 -20t19 -48q0 -19 -11 -37l-62 -103q-9 -14 -22.5 -22.5t-28.5 -8.5q-28 0 -45 19z" />
    <glyph glyph-name="wcircumflex" unicode="&#x175;" horiz-adv-x="856" 
d="M819 487q19 -19 19 -46q0 -18 -7 -33l-172 -378q-10 -20 -25.5 -31t-35.5 -11t-36 11t-25 31l-109 251l-109 -251q-20 -42 -61 -42q-20 0 -35.5 11t-25.5 31l-172 378q-7 15 -7 33q0 27 19 46t46 19q19 0 35 -10t24 -27l120 -263l101 250q21 50 65 50t64 -50l102 -251
l120 264q8 17 24 27t35 10q27 0 46 -19zM587 636q4 -8 4 -20q0 -22 -15.5 -36t-35.5 -14q-19 0 -34 15l-78 82l-79 -82q-15 -15 -34 -15q-20 0 -35.5 14t-15.5 36q0 12 4 20t13 19l96 115q20 23 51 23q30 0 50 -23l96 -115q9 -11 13 -19z" />
    <glyph glyph-name="wdieresis" unicode="&#x1e85;" horiz-adv-x="856" 
d="M819 487q19 -19 19 -46q0 -18 -7 -33l-172 -378q-10 -20 -25.5 -31t-35.5 -11t-36 11t-25 31l-109 251l-109 -251q-20 -42 -61 -42q-20 0 -35.5 11t-25.5 31l-172 378q-7 15 -7 33q0 27 19 46t46 19q19 0 35 -10t24 -27l120 -263l101 250q21 50 65 50t64 -50l102 -251
l120 264q8 17 24 27t35 10q27 0 46 -19zM366.5 731.5q23.5 -22.5 23.5 -56.5q0 -31 -24 -54t-57 -23q-32 0 -56.5 23.5t-24.5 53.5q0 33 24 56t57 23q34 0 57.5 -22.5zM604 731.5q23 -22.5 23 -56.5q0 -32 -23.5 -54.5t-57.5 -22.5q-31 0 -55.5 23.5t-24.5 53.5
q0 33 23.5 56t56.5 23q35 0 58 -22.5z" />
    <glyph glyph-name="wgrave" unicode="&#x1e81;" horiz-adv-x="856" 
d="M819 487q19 -19 19 -46q0 -18 -7 -33l-172 -378q-10 -20 -25.5 -31t-35.5 -11t-36 11t-25 31l-109 251l-109 -251q-20 -42 -61 -42q-20 0 -35.5 11t-25.5 31l-172 378q-7 15 -7 33q0 27 19 46t46 19q19 0 35 -10t24 -27l120 -263l101 250q21 50 65 50t64 -50l102 -251
l120 264q8 17 24 27t35 10q27 0 46 -19zM378.5 570.5q-13.5 8.5 -22.5 22.5l-62 103q-11 18 -11 37q0 28 19 48t48 20q19 0 36.5 -10.5t25.5 -28.5l47 -107q8 -18 8 -30q2 -25 -15 -44t-45 -19q-15 0 -28.5 8.5z" />
    <glyph glyph-name="x" unicode="x" horiz-adv-x="531" 
d="M491 53q0 -27 -18.5 -46t-46.5 -19q-31 0 -56 30l-105 134l-105 -134q-24 -30 -55 -30q-28 0 -47 19t-19 46q0 23 21 50l120 149l-108 139q-12 17 -17 28t-5 22q0 27 19 46t47 19q33 0 54 -29l96 -124l98 124q23 29 55 29q27 0 46 -19t19 -46q0 -24 -22 -50l-110 -138
l119 -150q20 -26 20 -50z" />
    <glyph glyph-name="y" unicode="y" horiz-adv-x="559" 
d="M518.5 486.5q19.5 -19.5 19.5 -45.5q0 -16 -8 -31l-218 -447q-40 -82 -88 -118.5t-115 -36.5q-33 0 -57 11q-16 7 -25 21.5t-9 31.5q0 25 17.5 41.5t43.5 16.5l12 -1q33 0 55.5 15t38.5 48l18 40l-171 377q-9 18 -9 32q0 26 19.5 45.5t46.5 19.5q20 0 36 -10t23 -28
l131 -293l134 293q8 17 24 27.5t36 10.5q26 0 45.5 -19.5z" />
    <glyph glyph-name="yacute" unicode="&#xfd;" horiz-adv-x="559" 
d="M518.5 486.5q19.5 -19.5 19.5 -45.5q0 -16 -8 -31l-218 -447q-40 -82 -88 -118.5t-115 -36.5q-33 0 -57 11q-16 7 -25 21.5t-9 31.5q0 25 17.5 41.5t43.5 16.5l12 -1q33 0 55.5 15t38.5 48l18 40l-171 377q-9 18 -9 32q0 26 19.5 45.5t46.5 19.5q20 0 36 -10t23 -28
l131 -293l134 293q8 17 24 27.5t36 10.5q26 0 45.5 -19.5zM253 581q-17 19 -15 44q0 12 8 30l47 107q8 18 25.5 28.5t36.5 10.5q29 0 48 -20t19 -48q0 -19 -11 -37l-62 -103q-9 -14 -22.5 -22.5t-28.5 -8.5q-28 0 -45 19z" />
    <glyph glyph-name="ycircumflex" unicode="&#x177;" horiz-adv-x="559" 
d="M518.5 486.5q19.5 -19.5 19.5 -45.5q0 -16 -8 -31l-218 -447q-40 -82 -88 -118.5t-115 -36.5q-33 0 -57 11q-16 7 -25 21.5t-9 31.5q0 25 17.5 41.5t43.5 16.5l12 -1q33 0 55.5 15t38.5 48l18 40l-171 377q-9 18 -9 32q0 26 19.5 45.5t46.5 19.5q20 0 36 -10t23 -28
l131 -293l134 293q8 17 24 27.5t36 10.5q26 0 45.5 -19.5zM437 636q4 -8 4 -20q0 -22 -15.5 -36t-35.5 -14q-19 0 -34 15l-78 82l-79 -82q-15 -15 -34 -15q-20 0 -35.5 14t-15.5 36q0 12 4 20t13 19l96 115q20 23 51 23q30 0 50 -23l96 -115q9 -11 13 -19z" />
    <glyph glyph-name="ydieresis" unicode="&#xff;" horiz-adv-x="559" 
d="M518.5 486.5q19.5 -19.5 19.5 -45.5q0 -16 -8 -31l-218 -447q-40 -82 -88 -118.5t-115 -36.5q-33 0 -57 11q-16 7 -25 21.5t-9 31.5q0 25 17.5 41.5t43.5 16.5l12 -1q33 0 55.5 15t38.5 48l18 40l-171 377q-9 18 -9 32q0 26 19.5 45.5t46.5 19.5q20 0 36 -10t23 -28
l131 -293l134 293q8 17 24 27.5t36 10.5q26 0 45.5 -19.5zM216.5 731.5q23.5 -22.5 23.5 -56.5q0 -31 -24 -54t-57 -23q-32 0 -56.5 23.5t-24.5 53.5q0 33 24 56t57 23q34 0 57.5 -22.5zM454 731.5q23 -22.5 23 -56.5q0 -32 -23.5 -54.5t-57.5 -22.5q-31 0 -55.5 23.5
t-24.5 53.5q0 33 23.5 56t56.5 23q35 0 58 -22.5z" />
    <glyph glyph-name="ygrave" unicode="&#x1ef3;" horiz-adv-x="559" 
d="M518.5 486.5q19.5 -19.5 19.5 -45.5q0 -16 -8 -31l-218 -447q-40 -82 -88 -118.5t-115 -36.5q-33 0 -57 11q-16 7 -25 21.5t-9 31.5q0 25 17.5 41.5t43.5 16.5l12 -1q33 0 55.5 15t38.5 48l18 40l-171 377q-9 18 -9 32q0 26 19.5 45.5t46.5 19.5q20 0 36 -10t23 -28
l131 -293l134 293q8 17 24 27.5t36 10.5q26 0 45.5 -19.5zM228.5 570.5q-13.5 8.5 -22.5 22.5l-62 103q-11 18 -11 37q0 28 19 48t48 20q19 0 36.5 -10.5t25.5 -28.5l47 -107q8 -18 8 -30q2 -25 -15 -44t-45 -19q-15 0 -28.5 8.5z" />
    <glyph glyph-name="z" unicode="z" horiz-adv-x="468" 
d="M443.5 98q16.5 -16 16.5 -41q0 -24 -16.5 -40.5t-41.5 -16.5h-326q-24 0 -40.5 16.5t-16.5 40.5q0 13 5 23.5t18 25.5l228 275h-180q-25 0 -41.5 16t-16.5 41t16.5 41t41.5 16h303q25 0 41.5 -16t16.5 -40t-19 -46l-230 -279h200q25 0 41.5 -16z" />
    <glyph glyph-name="zacute" unicode="&#x17a;" horiz-adv-x="468" 
d="M443.5 98q16.5 -16 16.5 -41q0 -24 -16.5 -40.5t-41.5 -16.5h-326q-24 0 -40.5 16.5t-16.5 40.5q0 13 5 23.5t18 25.5l228 275h-180q-25 0 -41.5 16t-16.5 41t16.5 41t41.5 16h303q25 0 41.5 -16t16.5 -40t-19 -46l-230 -279h200q25 0 41.5 -16zM213 581q-17 19 -15 44
q0 12 8 30l47 107q8 18 25.5 28.5t36.5 10.5q29 0 48 -20t19 -48q0 -19 -11 -37l-62 -103q-9 -14 -22.5 -22.5t-28.5 -8.5q-28 0 -45 19z" />
    <glyph glyph-name="zcaron" unicode="&#x17e;" horiz-adv-x="468" 
d="M443.5 98q16.5 -16 16.5 -41q0 -24 -16.5 -40.5t-41.5 -16.5h-326q-24 0 -40.5 16.5t-16.5 40.5q0 13 5 23.5t18 25.5l228 275h-180q-25 0 -41.5 16t-16.5 41t16.5 41t41.5 16h303q25 0 41.5 -16t16.5 -40t-19 -46l-230 -279h200q25 0 41.5 -16zM385.5 780
q15.5 -14 15.5 -36q0 -12 -4 -20t-13 -19l-96 -115q-20 -23 -50 -23q-31 0 -51 23l-96 115q-9 11 -13 19t-4 20q0 22 15.5 36t35.5 14q19 0 34 -15l79 -82l78 82q15 15 34 15q20 0 35.5 -14z" />
    <glyph glyph-name="zdotaccent" unicode="&#x17c;" horiz-adv-x="468" 
d="M443.5 98q16.5 -16 16.5 -41q0 -24 -16.5 -40.5t-41.5 -16.5h-326q-24 0 -40.5 16.5t-16.5 40.5q0 13 5 23.5t18 25.5l228 275h-180q-25 0 -41.5 16t-16.5 41t16.5 41t41.5 16h303q25 0 41.5 -16t16.5 -40t-19 -46l-230 -279h200q25 0 41.5 -16zM297 733q25 -24 25 -58
q0 -33 -25 -57t-59 -24q-35 0 -60 23.5t-25 57.5t25 58t60 24q34 0 59 -24z" />
    <glyph glyph-name="iacute_j.loclNLD" horiz-adv-x="538" 
d="M86.5 8q-19.5 20 -19.5 49v381q0 29 19.5 48.5t48.5 19.5t48 -19.5t19 -48.5v-381q0 -29 -19.5 -49t-48.5 -20q-28 0 -47.5 20zM108.5 582.5q-16.5 15.5 -18.5 37.5q-1 3 -1 9q0 1 3 22l28 114q6 22 25.5 36t39.5 14q25 0 44 -16t23 -41q1 -3 1 -11q0 -10 -5 -27
l-43 -112q-8 -18 -23 -29.5t-33 -11.5q-24 0 -40.5 15.5zM231 -183q-19 8 -30 22t-11 33q0 25 16 41.5t41 16.5l13 -1q40 0 58 19.5t18 69.5v420q0 29 19.5 48.5t48.5 19.5t48 -19.5t19 -48.5v-444q0 -90 -49.5 -138t-135.5 -48q-28 0 -55 9zM377.5 582.5
q-16.5 15.5 -18.5 37.5q-1 3 -1 9q0 1 3 22l28 114q6 22 25.5 36t39.5 14q25 0 44 -16t23 -41q1 -3 1 -11q0 -10 -5 -27l-43 -112q-8 -18 -23 -29.5t-33 -11.5q-24 0 -40.5 15.5z" />
    <glyph glyph-name="cacute.loclPLK" horiz-adv-x="552" 
d="M170 22.5q-61 34.5 -96 94.5t-35 131t35 130.5t96 93.5t134 34q62 0 116.5 -27t83.5 -71q12 -19 12 -36q0 -25 -17.5 -42.5t-42.5 -17.5q-29 0 -46 21q-42 50 -104 50q-57 0 -93.5 -38t-36.5 -97q0 -60 36.5 -98t93.5 -38q59 0 104 50q18 21 46 21q25 0 42.5 -17.5
t17.5 -42.5q0 -17 -11 -34q-31 -48 -83.5 -74.5t-117.5 -26.5q-73 0 -134 34.5zM313 565q-22 0 -38 13.5t-20 34.5q-1 4 -1 13q0 12 1 18l18 115q3 19 17.5 34t32.5 20q6 2 18 2q23 0 40.5 -14t23.5 -36q2 -12 2 -17q0 -10 -3 -22l-33 -115q-5 -17 -16.5 -28.5t-26.5 -15.5
q-10 -2 -15 -2z" />
    <glyph glyph-name="nacute.loclPLK" horiz-adv-x="585" 
d="M471.5 452q50.5 -54 50.5 -145v-250q0 -30 -19 -49.5t-48 -19.5q-28 0 -47.5 20t-19.5 49v232q0 43 -25.5 69.5t-66.5 26.5t-67.5 -27t-26.5 -69v-232q0 -30 -19 -49.5t-48 -19.5t-48.5 20t-19.5 49v381q0 29 19 48.5t48 19.5q23 0 40.5 -14t22.5 -37q27 24 62.5 37.5
t76.5 13.5q85 0 135.5 -54zM290 565q-22 0 -38 13.5t-20 34.5q-1 4 -1 13q0 12 1 18l18 115q3 19 17.5 34t32.5 20q6 2 18 2q23 0 40.5 -14t23.5 -36q2 -12 2 -17q0 -10 -3 -22l-33 -115q-5 -17 -16.5 -28.5t-26.5 -15.5q-10 -2 -15 -2z" />
    <glyph glyph-name="oacute.loclPLK" horiz-adv-x="608" 
d="M438 471.5q61 -34.5 96.5 -93.5t35.5 -130t-35.5 -130.5t-97 -94t-134.5 -34.5t-133.5 34.5t-95.5 94t-35 130.5t35 130.5t96 93.5t134 34t134 -34.5zM212 344.5q-36 -38.5 -36 -97.5q0 -58 36 -96t92 -38q55 0 91.5 38t36.5 96t-36.5 97t-91.5 39q-56 0 -92 -38.5z
M313 565q-22 0 -38 13.5t-20 34.5q-1 4 -1 13q0 12 1 18l18 115q3 19 17.5 34t32.5 20q6 2 18 2q23 0 40.5 -14t23.5 -36q2 -12 2 -17q0 -10 -3 -22l-33 -115q-5 -17 -16.5 -28.5t-26.5 -15.5q-10 -2 -15 -2z" />
    <glyph glyph-name="sacute.loclPLK" horiz-adv-x="455" 
d="M126 7q-47 19 -81 52q-19 16 -19 42q0 23 16.5 40t39.5 17q20 0 39 -15q51 -44 108 -44q27 0 45 10.5t18 30.5q0 16 -11.5 24.5t-39.5 20.5l-53 22q-68 28 -101.5 62t-33.5 89q0 70 50.5 109.5t131.5 39.5q44 0 85 -14t71 -39q24 -18 24 -46q0 -23 -16 -39.5t-39 -16.5
q-15 0 -36 14q-43 30 -90 30q-25 0 -39 -9t-14 -26q0 -14 11.5 -23.5t40.5 -20.5l48 -20q72 -29 105.5 -62.5t33.5 -88.5q0 -74 -54.5 -116t-138.5 -42q-54 0 -101 19zM241 565q-22 0 -38 13.5t-20 34.5q-1 4 -1 13q0 12 1 18l18 115q3 19 17.5 34t32.5 20q6 2 18 2
q23 0 40.5 -14t23.5 -36q2 -12 2 -17q0 -10 -3 -22l-33 -115q-5 -17 -16.5 -28.5t-26.5 -15.5q-10 -2 -15 -2z" />
    <glyph glyph-name="zacute.loclPLK" horiz-adv-x="468" 
d="M443.5 98q16.5 -16 16.5 -41q0 -24 -16.5 -40.5t-41.5 -16.5h-326q-24 0 -40.5 16.5t-16.5 40.5q0 13 5 23.5t18 25.5l228 275h-180q-25 0 -41.5 16t-16.5 41t16.5 41t41.5 16h303q25 0 41.5 -16t16.5 -40t-19 -46l-230 -279h200q25 0 41.5 -16zM247 565q-22 0 -38 13.5
t-20 34.5q-1 4 -1 13q0 12 1 18l18 115q3 19 17.5 34t32.5 20q6 2 18 2q23 0 40.5 -14t23.5 -36q2 -12 2 -17q0 -10 -3 -22l-33 -115q-5 -17 -16.5 -28.5t-26.5 -15.5q-10 -2 -15 -2z" />
    <glyph glyph-name="i.loclTRK.loclTRK" horiz-adv-x="269" 
d="M86.5 8q-19.5 20 -19.5 49v381q0 29 19.5 48.5t48.5 19.5t48 -19.5t19 -48.5v-381q0 -29 -19.5 -49t-48.5 -20q-28 0 -47.5 20zM194 733q25 -24 25 -58q0 -33 -25 -57t-59 -24q-35 0 -60 23.5t-25 57.5t25 58t60 24q34 0 59 -24z" />
    <glyph glyph-name="c.ordn" horiz-adv-x="366" 
d="M114.5 259q-39.5 22 -62 59.5t-22.5 82.5q0 46 22.5 83.5t62 59.5t86.5 22q35 0 68.5 -15.5t53.5 -40.5q12 -15 12 -31q0 -19 -13 -32.5t-32 -13.5q-9 0 -16 3.5t-19 12.5q-25 23 -54 23t-47.5 -20t-18.5 -51t18.5 -51t47.5 -20q28 0 54 23q19 17 35 17q19 0 32 -13.5
t13 -32.5q0 -16 -12 -31q-21 -26 -54 -41t-68 -15q-47 0 -86.5 22z" />
    <glyph glyph-name="d.ordn" horiz-adv-x="418" 
d="M353.5 707.5q14.5 -14.5 14.5 -37.5v-382q0 -22 -14.5 -36.5t-36.5 -14.5q-17 0 -30 9.5t-18 24.5q-32 -35 -89 -35q-43 0 -77 21t-53.5 59t-19.5 85t19.5 84.5t53.5 58.5t77 21q51 0 84 -30v135q0 23 15 37.5t37 14.5q23 0 37.5 -14.5zM247.5 349q18.5 20 18.5 51
q0 32 -18 52.5t-47 20.5q-28 0 -47 -20.5t-19 -51.5t19 -51.5t47 -20.5t46.5 20z" />
    <glyph glyph-name="e.ordn" horiz-adv-x="377" 
d="M273.5 546.5q34.5 -18.5 54 -51t19.5 -72.5v-6q0 -20 -13.5 -33t-33.5 -13h-169q7 -24 26 -37t49 -13q27 0 53 13q7 3 15.5 6.5t13.5 3.5q17 0 29.5 -12.5t12.5 -29.5q0 -25 -23 -37q-20 -14 -47.5 -21.5t-55.5 -7.5q-49 0 -89 21.5t-62.5 59.5t-22.5 84t22 83.5t60.5 59
t84.5 21.5q42 0 76.5 -18.5zM152 472.5q-16 -13.5 -23 -38.5h122q-2 24 -18 38t-41 14q-24 0 -40 -13.5z" />
    <glyph glyph-name="egrave.ordn" horiz-adv-x="377" 
d="M107 677q-9 12 -9 27q0 19 13.5 34t33.5 15q30 0 45 -27l33 -62q6 -9 6 -20q0 -17 -12 -30.5t-31 -13.5q-8 0 -18 4.5t-17 14.5zM273.5 546.5q34.5 -18.5 54 -51t19.5 -72.5v-6q0 -20 -13.5 -33t-33.5 -13h-169q7 -24 26 -37t49 -13q27 0 53 13q7 3 15.5 6.5t13.5 3.5
q17 0 29.5 -12.5t12.5 -29.5q0 -25 -23 -37q-20 -14 -47.5 -21.5t-55.5 -7.5q-49 0 -89 21.5t-62.5 59.5t-22.5 84t22 83.5t60.5 59t84.5 21.5q42 0 76.5 -18.5zM152 472.5q-16 -13.5 -23 -38.5h122q-2 24 -18 38t-41 14q-24 0 -40 -13.5z" />
    <glyph glyph-name="g.ordn" horiz-adv-x="418" 
d="M353 550q15 -15 15 -37v-225q0 -75 -47 -120t-125 -45q-34 0 -66.5 9.5t-57.5 26.5q-26 17 -26 41q0 19 13.5 32.5t32.5 13.5q14 0 31 -11q28 -19 66 -19q35 0 55 18t20 49v14q-31 -29 -85 -29q-66 0 -107.5 41.5t-41.5 108.5q0 65 41 106t108 41q55 0 88 -31
q6 14 19 22.5t30 8.5q22 0 37 -15zM247.5 370q18.5 19 18.5 48q0 28 -18 46t-47 18t-47.5 -17.5t-18.5 -45.5q0 -29 19 -48.5t47 -19.5t46.5 19z" />
    <glyph glyph-name="h.ordn" horiz-adv-x="398" 
d="M320 530q32 -35 32 -92v-149q0 -22 -14.5 -37t-37.5 -15q-22 0 -37 15t-15 37v134q0 22 -13 35.5t-34 13.5t-34 -13.5t-13 -35.5v-134q0 -22 -14.5 -37t-37.5 -15q-22 0 -37 15t-15 37v381q0 23 15 37.5t37 14.5q23 0 37.5 -14.5t14.5 -37.5v-133q33 28 81 28
q53 0 85 -35z" />
    <glyph glyph-name="i.ordn" horiz-adv-x="202" 
d="M145.5 710.5q18.5 -17.5 18.5 -43.5q0 -25 -19 -42.5t-45 -17.5t-44 17.5t-18 42.5q0 26 18 43.5t44 17.5q27 0 45.5 -17.5zM138.5 550.5q14.5 -14.5 14.5 -37.5v-225q0 -22 -14.5 -37t-36.5 -15t-37 15t-15 37v225q0 23 14.5 37.5t37.5 14.5q22 0 36.5 -14.5z" />
    <glyph glyph-name="l.ordn" horiz-adv-x="204" 
d="M138.5 707.5q14.5 -14.5 14.5 -37.5v-382q0 -23 -14.5 -37.5t-36.5 -14.5t-37 15t-15 37v382q0 23 15 37.5t37 14.5t36.5 -14.5z" />
    <glyph glyph-name="m.ordn" horiz-adv-x="592" 
d="M512.5 531q32.5 -34 32.5 -93v-150q0 -22 -14.5 -37t-36.5 -15t-37 15t-15 37v135q0 23 -12.5 36t-34.5 13q-21 0 -33 -13t-12 -36v-135q0 -22 -15 -37t-37 -15t-37 15t-15 37v135q0 22 -12.5 35.5t-33.5 13.5q-22 0 -34 -13t-12 -36v-135q0 -22 -15 -37t-37 -15t-37 15
t-15 37v225q0 23 15 37.5t37 14.5q33 0 47 -28q33 28 81 28q60 0 92 -40q19 19 46 29.5t57 10.5q55 0 87.5 -34z" />
    <glyph glyph-name="n.ordn" horiz-adv-x="398" 
d="M319.5 530.5q32.5 -34.5 32.5 -92.5v-150q0 -22 -14.5 -37t-37.5 -15q-22 0 -37 15t-15 37v135q0 22 -13 35.5t-34 13.5t-34 -13.5t-13 -35.5v-135q0 -22 -14.5 -37t-37.5 -15q-22 0 -37 15t-15 37v225q0 23 15 37.5t37 14.5q16 0 28.5 -7.5t18.5 -21.5q34 29 83 29
q55 0 87.5 -34.5z" />
    <glyph glyph-name="r.ordn" horiz-adv-x="266" 
d="M252 552.5q13 -12.5 13 -34.5q0 -21 -12 -34t-34 -14q-32 -3 -48.5 -23.5t-16.5 -56.5v-101q0 -23 -15 -38t-37 -15t-37 15.5t-15 37.5v224q0 22 15 37t38 15q16 0 28.5 -8t18.5 -22q27 30 66 30q23 0 36 -12.5z" />
    <glyph glyph-name="s.ordn" horiz-adv-x="303" 
d="M88 246.5q-30 10.5 -49 27.5q-18 17 -18 35q0 16 12 27.5t28 11.5q10 0 22 -7q21 -12 36.5 -18t31.5 -6q28 0 28 19q0 8 -5 12.5t-18 9.5l-32 12q-47 17 -68 40t-21 57q0 45 32.5 72t85.5 27q29 0 54 -8t42 -21q21 -15 21 -35q1 -17 -10.5 -29t-28.5 -12q-11 0 -23 7
q-25 17 -51 17q-25 0 -25 -17q0 -7 5 -11t18 -10l31 -12q50 -18 70.5 -39.5t20.5 -54.5q0 -48 -35.5 -76.5t-91.5 -28.5q-32 0 -62 10.5z" />
    <glyph glyph-name="y.ss01.ordn" horiz-adv-x="403" 
d="M338 550.5q14 -14.5 14 -37.5v-226q0 -76 -43 -120t-118 -44q-68 0 -114 32q-28 16 -28 43q0 19 13.5 32.5t30.5 13.5q14 0 28 -9q32 -19 63 -19q65 0 65 66v17q-34 -29 -80 -29q-53 0 -85.5 35.5t-32.5 93.5v114q0 23 15 37.5t37 14.5q23 0 37 -14.5t14 -37.5v-99
q0 -22 13.5 -36.5t34.5 -14.5q20 0 33.5 14t13.5 36v100q0 23 14.5 37.5t37.5 14.5t37 -14.5z" />
    <glyph glyph-name="t.ordn" horiz-adv-x="278" 
d="M250 316q13 -13 13 -32q0 -23 -19 -36q-19 -12 -52 -12q-65 0 -99.5 32t-34.5 94v110h-9q-19 0 -32 12.5t-13 30.5q0 19 13 31.5t32 12.5h9v26q0 23 14.5 38t37.5 15t37.5 -15t14.5 -38v-26h46q19 0 32 -12.5t13 -31.5q0 -18 -13 -30.5t-32 -12.5h-46v-100q0 -43 48 -43
h8q19 0 32 -13z" />
    <glyph glyph-name="u.ordn" horiz-adv-x="394" 
d="M333.5 550.5q14.5 -14.5 14.5 -37.5v-125q0 -67 -42 -109.5t-108 -42.5q-67 0 -109 42.5t-42 109.5v125q0 23 14.5 37.5t37.5 14.5q22 0 36.5 -14.5t14.5 -37.5v-132q0 -22 13.5 -36t34.5 -14q20 0 33 14t13 36v132q0 23 14.5 37.5t37.5 14.5t37.5 -14.5z" />
    <glyph glyph-name="uacute.ordn" horiz-adv-x="394" 
d="M171.5 613.5q-11.5 13.5 -11.5 30.5q0 10 5 20l33 62q15 27 45 27q20 0 33.5 -15t13.5 -34q0 -15 -9 -27l-44 -58q-7 -10 -17 -14.5t-18 -4.5q-19 0 -30.5 13.5zM333 550q15 -15 15 -37v-125q0 -67 -42 -109.5t-108 -42.5q-67 0 -109 42.5t-42 109.5v125q0 23 15 37.5
t37 14.5t36.5 -15t14.5 -37v-132q0 -22 13.5 -36t34.5 -14q20 0 33 14t13 36v132q0 23 15 37.5t37 14.5t37 -15z" />
    <glyph glyph-name="y.ordn" horiz-adv-x="367" 
d="M336 550.5q15 -14.5 15 -36.5q0 -14 -6 -24l-123 -265q-24 -52 -59 -76.5t-86 -24.5q-27 0 -41 10q-21 13 -21 38q0 19 13.5 31.5t33.5 12.5h11q36 0 54 38l5 11l-93 224q-5 15 -5 25q0 22 15 36.5t36 14.5q36 0 48 -34l56 -157l63 157q6 16 19 25t29 9q21 0 36 -14.5z
" />
    <glyph glyph-name="z.ordn" horiz-adv-x="307" 
d="M290 318.5q13 -12.5 13 -30.5q0 -19 -13 -31.5t-32 -12.5h-202q-19 0 -31.5 12.5t-12.5 31.5q0 16 17 36l128 148h-94q-19 0 -32 12.5t-13 30.5q0 19 13 31.5t32 12.5h187q19 0 32 -12.5t13 -31.5q0 -9 -4 -17t-13 -20l-127 -147h107q19 0 32 -12.5z" />
    <glyph glyph-name="a.ss01" horiz-adv-x="629" 
d="M543 486.5q19 -19.5 19 -48.5v-381q0 -29 -19 -49t-48 -20q-26 0 -45 17.5t-22 43.5q-26 -29 -64 -45t-85 -16q-69 0 -123.5 33.5t-85.5 92.5t-31 133t31 133t85.5 92.5t123.5 33.5q47 0 86 -16t65 -46q2 27 21 44.5t45 17.5q28 0 47 -19.5zM394.5 148.5
q34.5 37.5 34.5 98.5t-35 99t-90 38t-91.5 -39t-36.5 -98t36 -97.5t92 -38.5t90.5 37.5z" />
    <glyph glyph-name="aacute.ss01" horiz-adv-x="629" 
d="M543 486.5q19 -19.5 19 -48.5v-381q0 -29 -19 -49t-48 -20q-26 0 -45 17.5t-22 43.5q-26 -29 -64 -45t-85 -16q-69 0 -123.5 33.5t-85.5 92.5t-31 133t31 133t85.5 92.5t123.5 33.5q47 0 86 -16t65 -46q2 27 21 44.5t45 17.5q28 0 47 -19.5zM394.5 148.5
q34.5 37.5 34.5 98.5t-35 99t-90 38t-91.5 -39t-36.5 -98t36 -97.5t92 -38.5t90.5 37.5zM287 581q-17 19 -15 44q0 12 8 30l47 107q8 18 25.5 28.5t36.5 10.5q29 0 48 -20t19 -48q0 -19 -11 -37l-62 -103q-9 -14 -22.5 -22.5t-28.5 -8.5q-28 0 -45 19z" />
    <glyph glyph-name="abreve.ss01" horiz-adv-x="629" 
d="M543 486.5q19 -19.5 19 -48.5v-381q0 -29 -19 -49t-48 -20q-26 0 -45 17.5t-22 43.5q-26 -29 -64 -45t-85 -16q-69 0 -123.5 33.5t-85.5 92.5t-31 133t31 133t85.5 92.5t123.5 33.5q47 0 86 -16t65 -46q2 27 21 44.5t45 17.5q28 0 47 -19.5zM394.5 148.5
q34.5 37.5 34.5 98.5t-35 99t-90 38t-91.5 -39t-36.5 -98t36 -97.5t92 -38.5t90.5 37.5zM227.5 593q-39.5 20 -63 53.5t-23.5 71.5q0 23 15 39t37 16q40 0 52 -41q6 -26 24 -41.5t43 -15.5t42.5 15.5t23.5 41.5q12 41 51 41q22 0 37.5 -16t15.5 -39q0 -38 -23 -71.5
t-62 -53.5t-85 -20q-45 0 -84.5 20z" />
    <glyph glyph-name="acircumflex.ss01" horiz-adv-x="629" 
d="M543 486.5q19 -19.5 19 -48.5v-381q0 -29 -19 -49t-48 -20q-26 0 -45 17.5t-22 43.5q-26 -29 -64 -45t-85 -16q-69 0 -123.5 33.5t-85.5 92.5t-31 133t31 133t85.5 92.5t123.5 33.5q47 0 86 -16t65 -46q2 27 21 44.5t45 17.5q28 0 47 -19.5zM394.5 148.5
q34.5 37.5 34.5 98.5t-35 99t-90 38t-91.5 -39t-36.5 -98t36 -97.5t92 -38.5t90.5 37.5zM471 636q4 -8 4 -20q0 -22 -15.5 -36t-35.5 -14q-19 0 -34 15l-78 82l-79 -82q-15 -15 -34 -15q-20 0 -35.5 14t-15.5 36q0 12 4 20t13 19l96 115q20 23 51 23q30 0 50 -23l96 -115
q9 -11 13 -19z" />
    <glyph glyph-name="adieresis.ss01" horiz-adv-x="629" 
d="M543 486.5q19 -19.5 19 -48.5v-381q0 -29 -19 -49t-48 -20q-26 0 -45 17.5t-22 43.5q-26 -29 -64 -45t-85 -16q-69 0 -123.5 33.5t-85.5 92.5t-31 133t31 133t85.5 92.5t123.5 33.5q47 0 86 -16t65 -46q2 27 21 44.5t45 17.5q28 0 47 -19.5zM394.5 148.5
q34.5 37.5 34.5 98.5t-35 99t-90 38t-91.5 -39t-36.5 -98t36 -97.5t92 -38.5t90.5 37.5zM250.5 731.5q23.5 -22.5 23.5 -56.5q0 -31 -24 -54t-57 -23q-32 0 -56.5 23.5t-24.5 53.5q0 33 24 56t57 23q34 0 57.5 -22.5zM488 731.5q23 -22.5 23 -56.5q0 -32 -23.5 -54.5
t-57.5 -22.5q-31 0 -55.5 23.5t-24.5 53.5q0 33 23.5 56t56.5 23q35 0 58 -22.5z" />
    <glyph glyph-name="agrave.ss01" horiz-adv-x="629" 
d="M543 486.5q19 -19.5 19 -48.5v-381q0 -29 -19 -49t-48 -20q-26 0 -45 17.5t-22 43.5q-26 -29 -64 -45t-85 -16q-69 0 -123.5 33.5t-85.5 92.5t-31 133t31 133t85.5 92.5t123.5 33.5q47 0 86 -16t65 -46q2 27 21 44.5t45 17.5q28 0 47 -19.5zM394.5 148.5
q34.5 37.5 34.5 98.5t-35 99t-90 38t-91.5 -39t-36.5 -98t36 -97.5t92 -38.5t90.5 37.5zM262.5 570.5q-13.5 8.5 -22.5 22.5l-62 103q-11 18 -11 37q0 28 19 48t48 20q19 0 36.5 -10.5t25.5 -28.5l47 -107q8 -18 8 -30q2 -25 -15 -44t-45 -19q-15 0 -28.5 8.5z" />
    <glyph glyph-name="amacron.ss01" horiz-adv-x="629" 
d="M543 486.5q19 -19.5 19 -48.5v-381q0 -29 -19 -49t-48 -20q-26 0 -45 17.5t-22 43.5q-26 -29 -64 -45t-85 -16q-69 0 -123.5 33.5t-85.5 92.5t-31 133t31 133t85.5 92.5t123.5 33.5q47 0 86 -16t65 -46q2 27 21 44.5t45 17.5q28 0 47 -19.5zM394.5 148.5
q34.5 37.5 34.5 98.5t-35 99t-90 38t-91.5 -39t-36.5 -98t36 -97.5t92 -38.5t90.5 37.5zM455 713q16 -15 16 -38t-16 -38t-40 -15h-206q-24 0 -40 15t-16 38t16 38t40 15h206q24 0 40 -15z" />
    <glyph glyph-name="aogonek.ss01" horiz-adv-x="629" 
d="M543 486.5q19 -19.5 19 -48.5v-381q0 -29 -19 -49t-48 -20q-26 0 -45 17.5t-22 43.5q-26 -29 -64 -45t-85 -16q-69 0 -123.5 33.5t-85.5 92.5t-31 133t31 133t85.5 92.5t123.5 33.5q47 0 86 -16t65 -46q2 27 21 44.5t45 17.5q28 0 47 -19.5zM394.5 148.5
q34.5 37.5 34.5 98.5t-35 99t-90 38t-91.5 -39t-36.5 -98t36 -97.5t92 -38.5t90.5 37.5zM391.5 -164q-32.5 28 -32.5 75q0 36 21 66t69 69q46 37 72 37q16 0 28.5 -11.5t12.5 -26.5q0 -23 -21 -41q-27 -23 -41.5 -40t-14.5 -32q0 -12 9 -19t26 -7l16 1q19 0 30 -12t11 -32
q0 -18 -10 -30.5t-28 -17.5q-28 -7 -60 -7q-55 0 -87.5 28z" />
    <glyph glyph-name="aring.ss01" horiz-adv-x="629" 
d="M543 486.5q19 -19.5 19 -48.5v-381q0 -29 -19 -49t-48 -20q-26 0 -45 17.5t-22 43.5q-26 -29 -64 -45t-85 -16q-69 0 -123.5 33.5t-85.5 92.5t-31 133t31 133t85.5 92.5t123.5 33.5q47 0 86 -16t65 -46q2 27 21 44.5t45 17.5q28 0 47 -19.5zM394.5 148.5
q34.5 37.5 34.5 98.5t-35 99t-90 38t-91.5 -39t-36.5 -98t36 -97.5t92 -38.5t90.5 37.5zM402 760.5q36 -34.5 36 -87.5t-36 -88t-91 -35q-54 0 -90 35t-36 88q0 52 36 87t90 35q55 0 91 -34.5zM283 702.5q-12 -11.5 -12 -29.5t11.5 -29.5t29.5 -11.5q17 0 29 12t12 29
q0 18 -12 29.5t-29 11.5t-29 -11.5z" />
    <glyph glyph-name="atilde.ss01" horiz-adv-x="629" 
d="M543 486.5q19 -19.5 19 -48.5v-381q0 -29 -19 -49t-48 -20q-26 0 -45 17.5t-22 43.5q-26 -29 -64 -45t-85 -16q-69 0 -123.5 33.5t-85.5 92.5t-31 133t31 133t85.5 92.5t123.5 33.5q47 0 86 -16t65 -46q2 27 21 44.5t45 17.5q28 0 47 -19.5zM394.5 148.5
q34.5 37.5 34.5 98.5t-35 99t-90 38t-91.5 -39t-36.5 -98t36 -97.5t92 -38.5t90.5 37.5zM319 602l-28 18q-3 2 -12 8.5t-15 9t-12 2.5q-12 0 -19 -7t-11 -21q-5 -18 -18 -28t-32 -10q-24 0 -38.5 16t-14.5 42q0 58 32.5 93.5t83.5 35.5q36 0 71 -23l28 -18q16 -11 24.5 -15
t17.5 -4q11 0 17 6.5t10 21.5q4 17 17.5 27t32.5 10q25 0 39 -16t14 -42q0 -57 -31.5 -93t-80.5 -36q-40 0 -75 23z" />
    <glyph glyph-name="y.ss01" horiz-adv-x="592" 
d="M505 486.5q19 -19.5 19 -48.5v-388q0 -113 -64 -177.5t-172 -64.5q-54 0 -104 16t-86 44q-33 21 -33 52q0 25 18 43t43 18q17 0 38 -14q52 -37 110 -37q52 0 84 26.5t32 82.5v31q-26 -26 -61 -39.5t-76 -13.5q-83 0 -133.5 54.5t-50.5 145.5v221q0 29 19 48.5t48 19.5
t48 -19.5t19 -48.5v-202q0 -43 25.5 -70t66.5 -27q42 0 68.5 26.5t26.5 69.5v203q0 29 19 48.5t48 19.5t48 -19.5z" />
    <glyph glyph-name="yacute.ss01" horiz-adv-x="592" 
d="M505 486.5q19 -19.5 19 -48.5v-388q0 -113 -64 -177.5t-172 -64.5q-54 0 -104 16t-86 44q-33 21 -33 52q0 25 18 43t43 18q17 0 38 -14q52 -37 110 -37q52 0 84 26.5t32 82.5v31q-26 -26 -61 -39.5t-76 -13.5q-83 0 -133.5 54.5t-50.5 145.5v221q0 29 19 48.5t48 19.5
t48 -19.5t19 -48.5v-202q0 -43 25.5 -70t66.5 -27q42 0 68.5 26.5t26.5 69.5v203q0 29 19 48.5t48 19.5t48 -19.5zM271 581q-17 19 -15 44q0 12 8 30l47 107q8 18 25.5 28.5t36.5 10.5q29 0 48 -20t19 -48q0 -19 -11 -37l-62 -103q-9 -14 -22.5 -22.5t-28.5 -8.5
q-28 0 -45 19z" />
    <glyph glyph-name="ycircumflex.ss01" horiz-adv-x="592" 
d="M505 486.5q19 -19.5 19 -48.5v-388q0 -113 -64 -177.5t-172 -64.5q-54 0 -104 16t-86 44q-33 21 -33 52q0 25 18 43t43 18q17 0 38 -14q52 -37 110 -37q52 0 84 26.5t32 82.5v31q-26 -26 -61 -39.5t-76 -13.5q-83 0 -133.5 54.5t-50.5 145.5v221q0 29 19 48.5t48 19.5
t48 -19.5t19 -48.5v-202q0 -43 25.5 -70t66.5 -27q42 0 68.5 26.5t26.5 69.5v203q0 29 19 48.5t48 19.5t48 -19.5zM455 636q4 -8 4 -20q0 -22 -15.5 -36t-35.5 -14q-19 0 -34 15l-78 82l-79 -82q-15 -15 -34 -15q-20 0 -35.5 14t-15.5 36q0 12 4 20t13 19l96 115
q20 23 51 23q30 0 50 -23l96 -115q9 -11 13 -19z" />
    <glyph glyph-name="ydieresis.ss01" horiz-adv-x="592" 
d="M505 486.5q19 -19.5 19 -48.5v-388q0 -113 -64 -177.5t-172 -64.5q-54 0 -104 16t-86 44q-33 21 -33 52q0 25 18 43t43 18q17 0 38 -14q52 -37 110 -37q52 0 84 26.5t32 82.5v31q-26 -26 -61 -39.5t-76 -13.5q-83 0 -133.5 54.5t-50.5 145.5v221q0 29 19 48.5t48 19.5
t48 -19.5t19 -48.5v-202q0 -43 25.5 -70t66.5 -27q42 0 68.5 26.5t26.5 69.5v203q0 29 19 48.5t48 19.5t48 -19.5zM234.5 731.5q23.5 -22.5 23.5 -56.5q0 -31 -24 -54t-57 -23q-32 0 -56.5 23.5t-24.5 53.5q0 33 24 56t57 23q34 0 57.5 -22.5zM472 731.5q23 -22.5 23 -56.5
q0 -32 -23.5 -54.5t-57.5 -22.5q-31 0 -55.5 23.5t-24.5 53.5q0 33 23.5 56t56.5 23q35 0 58 -22.5z" />
    <glyph glyph-name="ygrave.ss01" horiz-adv-x="592" 
d="M505 486.5q19 -19.5 19 -48.5v-388q0 -113 -64 -177.5t-172 -64.5q-54 0 -104 16t-86 44q-33 21 -33 52q0 25 18 43t43 18q17 0 38 -14q52 -37 110 -37q52 0 84 26.5t32 82.5v31q-26 -26 -61 -39.5t-76 -13.5q-83 0 -133.5 54.5t-50.5 145.5v221q0 29 19 48.5t48 19.5
t48 -19.5t19 -48.5v-202q0 -43 25.5 -70t66.5 -27q42 0 68.5 26.5t26.5 69.5v203q0 29 19 48.5t48 19.5t48 -19.5zM246.5 570.5q-13.5 8.5 -22.5 22.5l-62 103q-11 18 -11 37q0 28 19 48t48 20q19 0 36.5 -10.5t25.5 -28.5l47 -107q8 -18 8 -30q2 -25 -15 -44t-45 -19
q-15 0 -28.5 8.5z" />
    <glyph glyph-name="ordfeminine" unicode="&#xaa;" horiz-adv-x="371" 
d="M288 529q37 -36 37 -101v-139q0 -22 -15 -37.5t-37 -15.5q-15 0 -28 8t-19 21q-35 -29 -86 -29q-49 0 -78.5 27t-29.5 71t32 68t90 24h67v11q0 42 -50 42q-26 0 -54 -17q-16 -8 -26 -8q-18 0 -30.5 12.5t-12.5 30.5q0 25 26 39q24 16 50 22.5t59 6.5q68 0 105 -36z
M207.5 323q13.5 13 13.5 35v9h-49q-16 0 -25.5 -7.5t-9.5 -21.5q0 -13 9 -20.5t26 -7.5q22 0 35.5 13z" />
    <glyph glyph-name="ordmasculine" unicode="&#xba;" horiz-adv-x="400" 
d="M286 543q39 -22 62 -59.5t23 -82.5t-23 -83t-62 -60t-86 -22t-86 22t-61.5 60t-22.5 83t22.5 82.5t61.5 59.5t86 22t86 -22zM151.5 452.5q-18.5 -19.5 -18.5 -51.5t18.5 -51.5t48.5 -19.5t48.5 19.5t18.5 51.5t-18.5 51.5t-48.5 19.5t-48.5 -19.5z" />
    <glyph glyph-name="ordfeminine.ss01" horiz-adv-x="418" 
d="M354 551.5q13 -13.5 13 -33.5v-234q0 -20 -13.5 -34t-32.5 -14q-18 0 -31 11.5t-15 28.5q-32 -40 -93 -40q-67 0 -109.5 46.5t-42.5 118.5t42.5 118t108.5 46q62 0 94 -40q2 18 15 29t31 11q20 0 33 -13.5zM249 349.5q18 19.5 18 51.5t-18 51.5t-48 19.5t-48 -19.5
t-18 -50.5q0 -32 18.5 -52t47.5 -20q30 0 48 19.5z" />
    <glyph glyph-name="uni0410" unicode="&#x410;" horiz-adv-x="662" 
d="M628 53q0 -27 -19 -46t-47 -19q-44 0 -64 48l-28 68h-279l-28 -68q-19 -48 -63 -48q-28 0 -47.5 19t-19.5 46q0 14 8 36l226 537q18 46 64 46t64 -46l225 -537q8 -19 8 -36zM235 215h190l-94 258z" />
    <glyph glyph-name="uni0411" unicode="&#x411;" horiz-adv-x="621" 
d="M500 642.5q18 -17.5 18 -43.5t-18 -43.5t-45 -17.5h-244v-145h159q64 0 113.5 -24.5t76.5 -68.5t27 -101q0 -58 -27.5 -103.5t-76.5 -70.5t-113 -25h-225q-30 0 -49.5 19.5t-19.5 49.5v522q0 30 19.5 49.5t49.5 19.5h310q27 0 45 -17.5zM211 282v-166h149q44 0 69 21.5
t25 61.5q0 39 -25 61t-69 22h-149z" />
    <glyph glyph-name="uni0412" unicode="&#x412;" horiz-adv-x="620" 
d="M556 295q31 -42 31 -101q0 -56 -28 -100.5t-77.5 -69t-112.5 -24.5h-225q-30 0 -49.5 19.5t-19.5 49.5v522q0 30 19.5 49.5t49.5 19.5h165q61 0 108.5 -23.5t74 -65t26.5 -95.5q0 -73 -49 -119q56 -20 87 -62zM206 544v-151h93q40 0 63 20.5t23 55.5t-23 55t-63 20h-93z
M428 137.5q25 21.5 25 61.5q0 39 -25 61t-69 22h-153v-166h153q44 0 69 21.5z" />
    <glyph glyph-name="uni0413" unicode="&#x413;" horiz-adv-x="525" 
d="M490.5 642.5q17.5 -17.5 17.5 -43.5t-18 -43.5t-44 -17.5h-235v-481q0 -29 -19.5 -49t-48.5 -20q-28 0 -47.5 20t-19.5 49v534q0 30 19.5 49.5t49.5 19.5h301q27 0 44.5 -17.5z" />
    <glyph glyph-name="uni0403" unicode="&#x403;" horiz-adv-x="525" 
d="M490.5 642.5q17.5 -17.5 17.5 -43.5t-18 -43.5t-44 -17.5h-235v-481q0 -29 -19.5 -49t-48.5 -20q-28 0 -47.5 20t-19.5 49v534q0 30 19.5 49.5t49.5 19.5h301q27 0 44.5 -17.5zM254.5 738.5q-15.5 18.5 -15.5 42.5q0 14 6 26l52 100q10 19 26 27t33 8q29 0 48.5 -20.5
t19.5 -46.5q0 -23 -14 -40l-64 -90q-11 -15 -25 -20.5t-25 -5.5q-26 1 -41.5 19.5z" />
    <glyph glyph-name="uni0490" unicode="&#x490;" horiz-adv-x="499" 
d="M455.5 773q19.5 -20 19.5 -49v-117q0 -29 -20 -49t-49 -20h-195v-481q0 -29 -19.5 -49t-48.5 -20q-28 0 -47.5 20t-19.5 49v534q0 30 19.5 49.5t49.5 19.5h195v64q0 29 19 49t48 20t48.5 -20z" />
    <glyph glyph-name="uni0414" unicode="&#x414;" horiz-adv-x="727" 
d="M682.5 102q19.5 -20 19.5 -49v-137q0 -29 -19.5 -49t-47.5 -20q-29 0 -48.5 20t-19.5 49v84h-411v-84q0 -29 -19.5 -49t-47.5 -20q-29 0 -48.5 20t-19.5 49v137q0 28 18 47.5t45 21.5q62 67 91 171t29 258v40q0 30 20 49.5t49 19.5h272q30 0 49.5 -19.5t19.5 -49.5v-469
h19q30 0 49.5 -20zM304.5 293q-26.5 -102 -81.5 -171h256v416h-146q-2 -143 -28.5 -245z" />
    <glyph glyph-name="uni0415" unicode="&#x415;" horiz-adv-x="572" 
d="M94.5 19.5q-19.5 19.5 -19.5 47.5v526q0 29 19.5 48t47.5 19h323q27 0 44.5 -17.5t17.5 -43.5t-18 -43.5t-44 -17.5h-255v-134h175q25 0 42 -16.5t17 -41.5q0 -24 -17 -40.5t-42 -16.5h-175v-167h267q27 0 44.5 -17.5t17.5 -43.5t-18 -43.5t-44 -17.5h-335
q-28 0 -47.5 19.5z" />
    <glyph glyph-name="uni0400" unicode="&#x400;" horiz-adv-x="572" 
d="M94.5 19.5q-19.5 19.5 -19.5 47.5v526q0 29 19.5 48t47.5 19h323q27 0 44.5 -17.5t17.5 -43.5t-18 -43.5t-44 -17.5h-255v-134h175q25 0 42 -16.5t17 -41.5q0 -24 -17 -40.5t-42 -16.5h-175v-167h267q27 0 44.5 -17.5t17.5 -43.5t-18 -43.5t-44 -17.5h-335
q-28 0 -47.5 19.5zM254 724.5q-14 5.5 -25 20.5l-64 90q-14 19 -14 40q0 27 19.5 47t48.5 20q17 0 33 -8t26 -27l52 -100q6 -12 6 -26q0 -24 -15.5 -42.5t-41.5 -19.5q-11 0 -25 5.5z" />
    <glyph glyph-name="uni0401" unicode="&#x401;" horiz-adv-x="572" 
d="M94.5 19.5q-19.5 19.5 -19.5 47.5v526q0 29 19.5 48t47.5 19h323q27 0 44.5 -17.5t17.5 -43.5t-18 -43.5t-44 -17.5h-255v-134h175q25 0 42 -16.5t17 -41.5q0 -24 -17 -40.5t-42 -16.5h-175v-167h267q27 0 44.5 -17.5t17.5 -43.5t-18 -43.5t-44 -17.5h-335
q-28 0 -47.5 19.5zM109 760.5q-25 23.5 -25 53.5q0 33 24.5 55.5t56.5 22.5q33 0 57 -22.5t24 -55.5q0 -31 -24 -54t-57 -23q-31 0 -56 23.5zM367 759.5q-25 23.5 -25 53.5q0 33 24.5 56t56.5 23q33 0 57 -23t24 -56q0 -31 -24 -54t-57 -23q-31 0 -56 23.5z" />
    <glyph glyph-name="uni0416" unicode="&#x416;" horiz-adv-x="1014" 
d="M393 395q19 -22 19 -45q0 -27 -19 -47l-239 -284q-26 -31 -57 -31q-25 0 -44 19.5t-19 45.5q0 21 15 39l218 257l-196 216q-18 21 -18 44q0 26 18 44.5t43 18.5q15 0 27.5 -6t24.5 -19zM555.5 652q19.5 -20 19.5 -49v-546q0 -29 -19.5 -49t-48.5 -20q-28 0 -47.5 20
t-19.5 49v546q0 29 19.5 49t47.5 20q29 0 48.5 -20zM981 53q0 -26 -19 -45.5t-45 -19.5q-31 0 -56 31l-240 284q-19 24 -19 47t19 45l228 252q12 13 24.5 19t27.5 6q25 0 43 -18.5t18 -44.5q0 -23 -18 -44l-198 -215l220 -258q15 -19 15 -39z" />
    <glyph glyph-name="uni0417" unicode="&#x417;" horiz-adv-x="588" 
d="M524.5 286.5q25.5 -39.5 25.5 -91.5q0 -59 -32.5 -106.5t-89.5 -74t-129 -26.5q-71 0 -130.5 27.5t-99.5 78.5q-15 19 -15 39q0 26 18 44t44 18t44 -21q58 -61 138 -61q53 0 85.5 24.5t32.5 64.5q0 36 -26 58t-67 22h-81q-24 0 -40.5 16t-16.5 40t16.5 39.5t40.5 15.5h53
q38 0 61.5 21t23.5 55q0 35 -26 56.5t-67 21.5q-66 0 -115 -52q-19 -20 -45 -20q-25 0 -43 17.5t-18 42.5q0 22 15 41q35 45 90 70.5t117 25.5q63 0 115 -25.5t81.5 -70t29.5 -99.5q0 -80 -61 -128q46 -23 71.5 -62.5z" />
    <glyph glyph-name="uni0418" unicode="&#x418;" horiz-adv-x="722" 
d="M628.5 652.5q19.5 -19.5 19.5 -48.5v-547q0 -29 -19.5 -49t-48.5 -20q-28 0 -47.5 20t-19.5 49v366l-314 -406q-23 -29 -56 -29q-28 0 -47.5 20t-19.5 48v547q0 29 19.5 49t47.5 20q29 0 48.5 -20t19.5 -49v-368l305 397q16 21 29.5 30.5t35.5 9.5q28 0 47.5 -19.5z" />
    <glyph glyph-name="uni0419" unicode="&#x419;" horiz-adv-x="722" 
d="M628.5 652.5q19.5 -19.5 19.5 -48.5v-547q0 -29 -19.5 -49t-48.5 -20q-28 0 -47.5 20t-19.5 49v366l-314 -406q-23 -29 -56 -29q-28 0 -47.5 20t-19.5 48v547q0 29 19.5 49t47.5 20q29 0 48.5 -20t19.5 -49v-368l305 397q16 21 29.5 30.5t35.5 9.5q28 0 47.5 -19.5z
M272.5 745q-38.5 19 -62.5 51t-24 67q0 23 15 37.5t37 14.5q16 0 28 -9t22 -29q21 -49 66 -49q23 0 39.5 12.5t25.5 36.5q19 38 51 38q22 0 36.5 -14.5t14.5 -37.5q0 -35 -23.5 -67t-62.5 -51t-81 -19q-43 0 -81.5 19z" />
    <glyph glyph-name="uni040D" unicode="&#x40d;" horiz-adv-x="722" 
d="M628.5 652.5q19.5 -19.5 19.5 -48.5v-547q0 -29 -19.5 -49t-48.5 -20q-28 0 -47.5 20t-19.5 49v366l-314 -406q-23 -29 -56 -29q-28 0 -47.5 20t-19.5 48v547q0 29 19.5 49t47.5 20q29 0 48.5 -20t19.5 -49v-368l305 397q16 21 29.5 30.5t35.5 9.5q28 0 47.5 -19.5z
M314 724.5q-14 5.5 -25 20.5l-64 90q-14 19 -14 40q0 27 19.5 47t48.5 20q17 0 33 -8t26 -27l52 -100q6 -12 6 -26q0 -24 -15.5 -42.5t-41.5 -19.5q-11 0 -25 5.5z" />
    <glyph glyph-name="uni041A" unicode="&#x41a;" horiz-adv-x="662" 
d="M191.5 652q19.5 -20 19.5 -49v-546q0 -29 -19.5 -49t-47.5 -20q-29 0 -48.5 20t-19.5 49v546q0 30 19 49.5t49 19.5q28 0 47.5 -20zM624 52q0 -26 -19 -45t-44 -19q-31 0 -54 28l-251 289q-18 21 -18 45q0 22 19 43l238 257q12 12 23 17t26 5q25 0 43 -18.5t18 -44.5
q0 -24 -20 -45l-199 -215l221 -256q17 -20 17 -41z" />
    <glyph glyph-name="uni040C" unicode="&#x40c;" horiz-adv-x="662" 
d="M191.5 652q19.5 -20 19.5 -49v-546q0 -29 -19.5 -49t-47.5 -20q-29 0 -48.5 20t-19.5 49v546q0 30 19 49.5t49 19.5q28 0 47.5 -20zM624 52q0 -26 -19 -45t-44 -19q-31 0 -54 28l-251 289q-18 21 -18 45q0 22 19 43l238 257q12 12 23 17t26 5q25 0 43 -18.5t18 -44.5
q0 -24 -20 -45l-199 -215l221 -256q17 -20 17 -41zM310.5 738.5q-15.5 18.5 -15.5 42.5q0 14 6 26l52 100q10 19 26 27t33 8q29 0 48.5 -20.5t19.5 -46.5q0 -23 -14 -40l-64 -90q-11 -15 -25 -20.5t-25 -5.5q-26 1 -41.5 19.5z" />
    <glyph glyph-name="uni041B" unicode="&#x41b;" horiz-adv-x="661" 
d="M566.5 640.5q19.5 -19.5 19.5 -49.5v-534q0 -29 -19.5 -49t-47.5 -20q-29 0 -48.5 20t-19.5 49v481h-165q-2 -223 -44.5 -350t-128.5 -174q-36 -24 -71 -24q-27 0 -44 16.5t-17 42.5q0 45 44 61q70 24 101 124.5t31 303.5v53q0 30 19.5 49.5t49.5 19.5h291
q30 0 49.5 -19.5z" />
    <glyph glyph-name="uni041C" unicode="&#x41c;" horiz-adv-x="796" 
d="M702 652q19 -20 19 -50v-545q0 -29 -19.5 -49t-47.5 -20q-29 0 -48.5 20t-19.5 49v326l-124 -195q-14 -23 -29 -33t-35 -10q-19 0 -34.5 10t-29.5 33l-124 197v-328q0 -29 -19.5 -49t-47.5 -20q-29 0 -48.5 20t-19.5 49v545q0 30 19 50t47 20q22 0 38 -11.5t33 -40.5
l186 -295l186 295q18 29 33.5 40.5t37.5 11.5q28 0 47 -20z" />
    <glyph glyph-name="uni041D" unicode="&#x41d;" horiz-adv-x="712" 
d="M94.5 8q-19.5 20 -19.5 50v544q0 30 19 50t49 20q29 0 48 -20t19 -50v-195h292v196q0 30 19 49.5t49 19.5q29 0 48 -19.5t19 -49.5v-545q0 -30 -19 -50t-48 -20t-48.5 20t-19.5 50v227h-292v-227q0 -30 -19 -50t-48 -20t-48.5 20z" />
    <glyph glyph-name="uni041E" unicode="&#x41e;" horiz-adv-x="778" 
d="M565.5 626.5q80.5 -45.5 127.5 -124t47 -172.5t-47 -172.5t-127.5 -124t-177.5 -45.5t-177 45.5t-126.5 123.5t-46.5 173t46.5 173t126.5 123.5t177 45.5t177.5 -45.5zM279.5 519.5q-48.5 -27.5 -75.5 -77t-27 -112.5t27 -112.5t75.5 -77t109.5 -27.5t109 28t75.5 77.5
t27.5 111.5t-27.5 111.5t-75.5 77.5t-109 28t-109.5 -27.5z" />
    <glyph glyph-name="uni041F" unicode="&#x41f;" horiz-adv-x="690" 
d="M94.5 8q-19.5 20 -19.5 49v534q0 30 19.5 49.5t49.5 19.5h402q29 0 49 -19.5t20 -49.5v-534q0 -29 -19.5 -49t-48.5 -20q-28 0 -47.5 20t-19.5 49v481h-270v-481q0 -29 -19.5 -49t-47.5 -20q-29 0 -48.5 20z" />
    <glyph glyph-name="uni0420" unicode="&#x420;" horiz-adv-x="593" 
d="M94.5 8q-19.5 20 -19.5 49v534q0 30 19.5 49.5t49.5 19.5h180q70 0 123.5 -26.5t83.5 -75t30 -111.5q0 -62 -30 -111t-84 -76t-123 -27h-114v-176q0 -29 -19.5 -49t-47.5 -20q-29 0 -48.5 20zM323 351q46 0 73 26t27 70q0 43 -27 68.5t-73 25.5h-113v-190h113z" />
    <glyph glyph-name="uni0421" unicode="&#x421;" horiz-adv-x="720" 
d="M211.5 33.5q-80.5 45.5 -127 123.5t-46.5 173t46.5 173t127.5 123.5t178 45.5q76 0 143.5 -30.5t111.5 -83.5q21 -24 21 -50q0 -25 -18.5 -43t-44.5 -18q-29 0 -52 26q-64 74 -161 74q-61 0 -109.5 -28t-76 -77.5t-27.5 -112.5q0 -62 27.5 -111.5t76 -77t109.5 -27.5
q95 0 160 74q24 26 53 26q26 0 44 -18t18 -43t-21 -50q-44 -53 -111.5 -83.5t-143.5 -30.5q-97 0 -177.5 45.5z" />
    <glyph glyph-name="uni0422" unicode="&#x422;" horiz-adv-x="585" 
d="M244.5 8q-19.5 20 -19.5 49v481h-157q-26 0 -44 17.5t-18 43.5t18 43.5t44 17.5h449q27 0 44.5 -17.5t17.5 -43.5t-18 -43.5t-44 -17.5h-157v-481q0 -29 -19.5 -49t-48.5 -20q-28 0 -47.5 20z" />
    <glyph glyph-name="uni0423" unicode="&#x423;" horiz-adv-x="631" 
d="M578.5 646q20.5 -21 20.5 -50q0 -16 -10 -37l-199 -425q-35 -74 -90 -110t-135 -36q-42 0 -69 12q-35 18 -35 54q0 26 18 43t46 17l18 -1q44 0 70.5 14.5t43.5 46.5l-203 385q-10 20 -10 38q0 29 20.5 49.5t49.5 20.5q42 0 65 -43l152 -304l133 304q8 20 25.5 31.5
t39.5 11.5q29 0 49.5 -21z" />
    <glyph glyph-name="uni040E" unicode="&#x40e;" horiz-adv-x="631" 
d="M578.5 646q20.5 -21 20.5 -50q0 -16 -10 -37l-199 -425q-35 -74 -90 -110t-135 -36q-42 0 -69 12q-35 18 -35 54q0 26 18 43t46 17l18 -1q44 0 70.5 14.5t43.5 46.5l-203 385q-10 20 -10 38q0 29 20.5 49.5t49.5 20.5q42 0 65 -43l152 -304l133 304q8 20 25.5 31.5
t39.5 11.5q29 0 49.5 -21zM228.5 745q-38.5 19 -62.5 51t-24 67q0 23 15 37.5t37 14.5q16 0 28 -9t22 -29q21 -49 66 -49q23 0 39.5 12.5t25.5 36.5q19 38 51 38q22 0 36.5 -14.5t14.5 -37.5q0 -35 -23.5 -67t-62.5 -51t-81 -19q-43 0 -81.5 19z" />
    <glyph glyph-name="uni0424" unicode="&#x424;" horiz-adv-x="838" 
d="M760.5 188.5q-38.5 -63.5 -109.5 -98.5t-165 -36v-40q0 -30 -19 -49.5t-48 -19.5t-48.5 19.5t-19.5 49.5v40q-94 1 -164.5 36.5t-109.5 99t-39 146.5q0 82 38.5 144.5t109 97t165.5 35.5v34q0 30 19.5 49.5t48.5 19.5t48 -19.5t19 -49.5v-34q95 0 166 -34.5t109 -97
t38 -145.5q0 -84 -38.5 -147.5zM218.5 213.5q47.5 -42.5 132.5 -43.5v328q-84 -1 -132 -45t-48 -121q0 -76 47.5 -118.5zM619 213q48 43 48 119q0 77 -48.5 121.5t-132.5 44.5v-328q85 0 133 43z" />
    <glyph glyph-name="uni0425" unicode="&#x425;" horiz-adv-x="613" 
d="M574 53q0 -26 -19.5 -45.5t-47.5 -19.5q-16 0 -30 7.5t-24 21.5l-146 207l-147 -207q-21 -29 -55 -29q-27 0 -46.5 19.5t-19.5 46.5q0 21 19 49l167 233l-153 221q-19 28 -19 52q0 26 19.5 44.5t46.5 18.5q35 0 56 -30l132 -194l135 193q22 31 56 31q28 0 47 -19t19 -45
q0 -25 -20 -54l-155 -218l167 -236q18 -26 18 -47z" />
    <glyph glyph-name="uni0427" unicode="&#x427;" horiz-adv-x="643" 
d="M549.5 652q19.5 -20 19.5 -49v-546q0 -29 -19.5 -49t-48.5 -20q-28 0 -47.5 20t-19.5 49v166q-59 -16 -116 -16q-85 0 -148 32.5t-97.5 92.5t-34.5 141v130q0 29 19.5 49t48.5 20q28 0 47.5 -20t19.5 -49v-117q0 -73 40 -114t110 -41q53 0 111 21v251q0 29 19 49t48 20
t48.5 -20z" />
    <glyph glyph-name="uni0426" unicode="&#x426;" horiz-adv-x="726" 
d="M593.5 652q19.5 -20 19.5 -49v-481h18q30 0 49.5 -20t19.5 -49v-137q0 -29 -19.5 -49t-47.5 -20q-29 0 -48.5 20t-19.5 49v84h-420q-30 0 -49.5 19.5t-19.5 49.5v534q0 29 19.5 49t47.5 20q29 0 48.5 -20t19.5 -49v-481h267v481q0 29 19 49t48 20t48.5 -20z" />
    <glyph glyph-name="uni0428" unicode="&#x428;" horiz-adv-x="1037" 
d="M942.5 652q19.5 -20 19.5 -49v-534q0 -30 -19.5 -49.5t-49.5 -19.5h-748q-30 0 -49.5 19.5t-19.5 49.5v534q0 29 19.5 49t47.5 20q29 0 48.5 -20t19.5 -49v-481h241v481q0 29 19.5 49t47.5 20q29 0 48.5 -20t19.5 -49v-481h240v481q0 29 19.5 49t48.5 20q28 0 47.5 -20z
" />
    <glyph glyph-name="uni0429" unicode="&#x429;" horiz-adv-x="1075" 
d="M942.5 652q19.5 -20 19.5 -49v-481h19q30 0 49.5 -20t19.5 -49v-137q0 -29 -19.5 -49t-47.5 -20q-29 0 -48.5 20t-19.5 49v84h-770q-30 0 -49.5 19.5t-19.5 49.5v534q0 29 19.5 49t47.5 20q29 0 48.5 -20t19.5 -49v-481h241v481q0 29 19.5 49t47.5 20q29 0 48.5 -20
t19.5 -49v-481h240v481q0 29 19.5 49t48.5 20q28 0 47.5 -20z" />
    <glyph glyph-name="uni040F" unicode="&#x40f;" horiz-adv-x="690" 
d="M595.5 652q19.5 -20 19.5 -49v-534q0 -30 -19.5 -49.5t-49.5 -19.5h-133v-84q0 -29 -19.5 -49t-47.5 -20q-29 0 -48.5 20t-19.5 49v84h-133q-30 0 -49.5 19.5t-19.5 49.5v534q0 29 19.5 49t47.5 20q29 0 48.5 -20t19.5 -49v-481h269v481q0 29 19.5 49t48.5 20
q28 0 47.5 -20z" />
    <glyph glyph-name="uni042C" unicode="&#x42c;" horiz-adv-x="626" 
d="M191.5 652q19.5 -20 19.5 -49v-170h135q71 0 125.5 -27.5t85 -77t30.5 -111.5q0 -63 -30 -112.5t-84.5 -77t-126.5 -27.5h-201q-30 0 -49.5 19.5t-19.5 49.5v534q0 29 19 49t48 20t48.5 -20zM211 315v-196h135q49 0 76 26.5t27 70.5q0 45 -27 72t-76 27h-135z" />
    <glyph glyph-name="uni042A" unicode="&#x42a;" horiz-adv-x="647" 
d="M116.5 19.5q-19.5 19.5 -19.5 49.5v469h-52q-27 0 -45 17.5t-18 43.5t18 43.5t45 17.5h118q29 0 49 -19.5t20 -49.5v-158h135q70 0 125 -27.5t85.5 -76.5t30.5 -112q0 -64 -30 -113.5t-85 -76.5t-126 -27h-201q-30 0 -49.5 19.5zM367 119q47 0 75 26.5t28 70.5
q0 45 -28 72t-75 27h-135v-196h135z" />
    <glyph glyph-name="uni042B" unicode="&#x42b;" horiz-adv-x="911" 
d="M191.5 652q19.5 -20 19.5 -49v-170h135q71 0 125.5 -27.5t85 -77t30.5 -111.5q0 -63 -30 -112.5t-84.5 -77t-126.5 -27.5h-201q-30 0 -49.5 19.5t-19.5 49.5v534q0 29 19 49t48 20t48.5 -20zM211 315v-196h135q49 0 76 26.5t27 70.5q0 45 -27 72t-76 27h-135zM720 7.5
q-19 19.5 -19 49.5v546q0 30 19 49.5t49 19.5q29 0 48 -20t19 -49v-546q0 -29 -19 -49t-48 -20q-30 0 -49 19.5z" />
    <glyph glyph-name="uni0409" unicode="&#x409;" horiz-adv-x="1001" 
d="M846.5 405.5q54.5 -27.5 85 -76.5t30.5 -112q0 -64 -30 -113.5t-85 -76.5t-126 -27h-201q-30 0 -49.5 19.5t-19.5 49.5v469h-165q-2 -222 -44.5 -349.5t-128.5 -174.5q-36 -24 -71 -24q-27 0 -44 16.5t-17 42.5q0 45 44 61q70 24 101 125t31 303v53q0 30 19.5 49.5
t49.5 19.5h291q30 0 49.5 -19.5t19.5 -49.5v-158h135q71 0 125.5 -27.5zM796 145.5q28 26.5 28 70.5q0 45 -28 72t-75 27h-135v-196h135q47 0 75 26.5z" />
    <glyph glyph-name="uni040A" unicode="&#x40a;" horiz-adv-x="1040" 
d="M95.5 8q-19.5 20 -19.5 49v546q0 29 19.5 49t47.5 20q29 0 48.5 -20t19.5 -49v-195h279v195q0 29 19.5 49t48.5 20q28 0 47.5 -20t19.5 -49v-173h135q71 0 126 -27t85.5 -76t30.5 -112q0 -64 -30.5 -112.5t-85.5 -75.5t-126 -27h-201q-29 0 -49 19.5t-20 49.5v218h-279
v-230q0 -29 -19.5 -49t-48.5 -20q-28 0 -47.5 20zM760 119q48 0 76 25.5t28 69.5t-28.5 70.5t-75.5 26.5h-135v-192h135z" />
    <glyph glyph-name="uni0405" unicode="&#x405;" horiz-adv-x="559" 
d="M167.5 12.5q-58.5 24.5 -95.5 64.5q-25 25 -25 52q1 26 19 43t43 17q21 0 35 -13q66 -68 141 -68q44 0 69 19.5t25 53.5q0 27 -17.5 43.5t-66.5 38.5l-71 32q-81 37 -120.5 82.5t-39.5 107.5q0 55 28.5 97.5t78.5 66t112 23.5q66 0 112 -23.5t73 -54.5q18 -19 18 -43
q0 -25 -19 -42.5t-43 -17.5q-20 0 -37 14q-25 22 -48.5 34.5t-55.5 12.5q-37 0 -59.5 -17t-22.5 -47q0 -24 16 -39.5t61 -36.5l75 -33q85 -38 124 -82.5t39 -110.5q0 -60 -30 -105t-82.5 -69t-118.5 -24q-59 0 -117.5 24.5z" />
    <glyph glyph-name="uni0404" unicode="&#x404;" horiz-adv-x="720" 
d="M647 195q18 -18 18 -43t-21 -50q-44 -53 -111.5 -83.5t-143.5 -30.5q-97 0 -177.5 45.5t-127 123.5t-46.5 173t46.5 173t127.5 123.5t178 45.5q76 0 143.5 -30.5t111.5 -83.5q21 -24 21 -50q0 -25 -18.5 -43t-44.5 -18q-29 0 -52 26q-64 74 -161 74q-73 0 -127 -39
t-75 -104h235q26 0 42.5 -16.5t16.5 -41.5q0 -24 -16.5 -40.5t-42.5 -16.5h-243q13 -79 70.5 -127.5t139.5 -48.5q95 0 160 74q24 26 53 26q26 0 44 -18z" />
    <glyph glyph-name="uni042D" unicode="&#x42d;" horiz-adv-x="720" 
d="M508 626.5q81 -45.5 127.5 -123.5t46.5 -173t-46.5 -173t-127 -123.5t-177.5 -45.5q-76 0 -143.5 30.5t-111.5 83.5q-21 25 -21 50t18 43t44 18q29 0 53 -26q65 -74 160 -74q82 0 139.5 48.5t70.5 127.5h-243q-26 0 -42.5 16.5t-16.5 40.5q0 25 16.5 41.5t42.5 16.5h235
q-21 65 -75 104t-127 39q-97 0 -161 -74q-23 -26 -52 -26q-26 0 -44.5 18t-18.5 43q0 26 21 50q44 53 111.5 83.5t143.5 30.5q97 0 178 -45.5z" />
    <glyph glyph-name="uni0406" unicode="&#x406;" horiz-adv-x="285" 
d="M191.5 652q19.5 -20 19.5 -49v-546q0 -29 -19.5 -49t-48.5 -20q-28 0 -47.5 20t-19.5 49v546q0 29 19 49t48 20t48.5 -20z" />
    <glyph glyph-name="uni0407" unicode="&#x407;" horiz-adv-x="285" 
d="M191.5 652q19.5 -20 19.5 -49v-546q0 -29 -19.5 -49t-48.5 -20q-28 0 -47.5 20t-19.5 49v546q0 29 19 49t48 20t48.5 -20zM-42 760.5q-25 23.5 -25 53.5q0 33 24.5 55.5t56.5 22.5q33 0 57 -22.5t24 -55.5q0 -31 -24 -54t-57 -23q-31 0 -56 23.5zM216 759.5
q-25 23.5 -25 53.5q0 33 24.5 56t56.5 23q33 0 57 -23t24 -56q0 -31 -24 -54t-57 -23q-31 0 -56 23.5z" />
    <glyph glyph-name="uni0408" unicode="&#x408;" horiz-adv-x="388" 
d="M44 -3q-17 8 -28 23.5t-11 33.5q0 26 18 43t45 17l23 -1q16 -2 25 -2q29 0 45.5 17.5t16.5 48.5v426q0 30 19 49.5t49 19.5q29 0 48 -20t19 -49v-427q0 -93 -52 -140.5t-155 -47.5q-38 0 -62 9z" />
    <glyph glyph-name="uni040B" unicode="&#x40b;" horiz-adv-x="798" 
d="M608 381q58 -33 89.5 -94t31.5 -144v-86q0 -29 -19.5 -49t-47.5 -20q-29 0 -48.5 20t-19.5 49v81q0 77 -33 114.5t-103 37.5q-47 0 -98 -14v-219q0 -29 -19.5 -49t-48.5 -20q-28 0 -47.5 20t-19.5 49v481h-157q-26 0 -44 17.5t-18 43.5t18 43.5t44 17.5h449
q27 0 44.5 -17.5t17.5 -43.5t-18 -43.5t-44 -17.5h-157v-140q59 16 112 16q78 0 136 -33z" />
    <glyph glyph-name="uni042E" unicode="&#x42e;" horiz-adv-x="1058" 
d="M846.5 626.5q80.5 -45.5 127 -124t46.5 -172.5t-46.5 -172.5t-127 -124t-176.5 -45.5q-88 0 -162 38.5t-121.5 106t-57.5 152.5h-118v-228q0 -29 -19.5 -49t-48.5 -20q-28 0 -47.5 20t-19.5 49v546q0 29 19 49t48 20t48.5 -20t19.5 -49v-196h123q17 77 65 137t118.5 94
t152.5 34q96 0 176.5 -45.5zM778 141q48 28 75.5 77.5t27.5 111.5t-27.5 111.5t-75.5 77.5t-108 28t-108 -28t-75.5 -77.5t-27.5 -111.5t27.5 -111.5t75.5 -77.5t108 -28t108 28z" />
    <glyph glyph-name="uni042F" unicode="&#x42f;" horiz-adv-x="636" 
d="M542.5 640.5q19.5 -19.5 19.5 -49.5v-534q0 -29 -19.5 -49t-48.5 -20q-28 0 -47.5 20t-19.5 49v146h-98q-13 0 -37 2l-122 -189q-18 -28 -53 -28q-27 0 -46.5 20t-19.5 48q0 20 15 43l101 151q-44 30 -68.5 77t-24.5 105q0 67 32 119t90 80.5t133 28.5h164
q30 0 49.5 -19.5zM427 541h-100q-51 0 -83 -30t-32 -79t32 -79.5t83 -30.5h100v219z" />
    <glyph glyph-name="uni0402" unicode="&#x402;" horiz-adv-x="768" 
d="M244 8q-19 20 -19 50v480h-157q-26 0 -44 17.5t-18 43.5t18 43.5t44 17.5h449q27 0 44.5 -17.5t17.5 -43.5t-18 -43.5t-44 -17.5h-157v-123h125q72 0 127.5 -27t86 -75.5t30.5 -111.5q0 -67 -39.5 -120t-109.5 -80q-34 -12 -55 -12q-27 0 -46.5 18t-19.5 42t13.5 39
t35.5 26q83 30 83 95q0 39 -28.5 63t-76.5 24h-126v-238q0 -30 -19.5 -50t-48.5 -20t-48 20z" />
    <glyph glyph-name="uni0462" unicode="&#x462;" horiz-adv-x="626" 
d="M474 379q54 -25 83.5 -71.5t29.5 -107.5q0 -92 -65 -146t-176 -54h-201q-30 0 -49.5 19.5t-19.5 49.5v414h-30q-24 0 -40 16t-16 40t16 39.5t40 15.5h29v40q0 30 19 50t49 20q29 0 48.5 -20t19.5 -50v-40h214q24 0 40 -15.5t16 -39.5t-16 -40t-40 -16h-214v-79h137
q72 0 126 -25zM422 141.5q27 22.5 27 60.5t-27 61t-73 23h-138v-167h138q46 0 73 22.5z" />
    <glyph glyph-name="uni0472" unicode="&#x472;" horiz-adv-x="778" 
d="M565.5 626.5q80.5 -45.5 127.5 -124t47 -172.5t-47 -172.5t-127.5 -124t-177.5 -45.5t-177 45.5t-126.5 123.5t-46.5 173t46.5 173t126.5 123.5t177 45.5t177.5 -45.5zM261.5 507.5q-53.5 -39.5 -73.5 -105.5q50 23 100 23q26 0 47.5 -4.5t54.5 -13.5q30 -9 53 -13.5
t48 -4.5q46 0 97 21q-22 63 -75.5 100t-124.5 37q-73 0 -126.5 -39.5zM530 163.5q58 50.5 69 131.5q-56 -25 -108 -25q-26 0 -48.5 4.5t-54.5 13.5q-31 9 -53 13.5t-47 4.5q-53 0 -107 -25q15 -76 71 -122t136 -46q84 0 142 50.5z" />
    <glyph glyph-name="uni0474" unicode="&#x474;" horiz-adv-x="680" 
d="M675.5 654.5q20.5 -17.5 20.5 -46.5q0 -22 -13 -38.5t-35 -20.5q-2 0 -5.5 -1t-5.5 -2q-20 -3 -33 -16t-26 -45l-185 -449q-9 -23 -25 -35.5t-37 -12.5t-37.5 12.5t-25.5 35.5l-224 527q-11 25 -11 42q0 28 20 47.5t48 19.5q45 0 63 -47l167 -409l132 334
q25 65 61.5 93.5t96.5 28.5q34 0 54.5 -17.5z" />
    <glyph glyph-name="uni0492" unicode="&#x492;" horiz-adv-x="513" 
d="M220 538v-165h163q27 0 45 -17.5t18 -43.5t-18 -43.5t-45 -17.5h-163v-194q0 -29 -19.5 -49t-48.5 -20q-28 0 -47.5 20t-19.5 49v194h-38q-26 0 -44 17.5t-18 43.5t18 43.5t44 17.5h38v218q0 30 19.5 49.5t49.5 19.5h280q27 0 44.5 -17.5t17.5 -43.5t-18 -43.5t-44 -17.5
h-214z" />
    <glyph glyph-name="uni0496" unicode="&#x496;" horiz-adv-x="1015" 
d="M393 395q19 -22 19 -45q0 -25 -19 -47l-239 -284q-26 -31 -57 -31q-25 0 -44 19.5t-19 45.5q0 21 15 39l218 257l-196 216q-18 21 -18 44q0 26 18 44.5t43 18.5q15 0 27.5 -6t24.5 -19zM555.5 652q19.5 -20 19.5 -49v-546q0 -29 -19.5 -49t-48.5 -20q-28 0 -47.5 20
t-19.5 49v546q0 29 19.5 49t47.5 20q29 0 48.5 -20zM984 101q20 -20 20 -49v-136q0 -29 -19 -49t-48 -20t-48.5 19.5t-19.5 49.5v74q-25 6 -40 29l-208 284q-18 26 -18 49q0 24 19 44l235 254q11 12 22.5 17t26.5 5q25 0 43 -18.5t18 -44.5q0 -23 -18 -44l-206 -220
l170 -224h22q29 0 49 -20z" />
    <glyph glyph-name="uni0498" unicode="&#x498;" horiz-adv-x="588" 
d="M524.5 286.5q25.5 -39.5 25.5 -91.5q0 -59 -32.5 -106.5t-89.5 -74t-129 -26.5q-71 0 -130.5 27.5t-99.5 78.5q-15 19 -15 39q0 26 18 44t44 18t44 -21q58 -61 138 -61q53 0 85.5 24.5t32.5 64.5q0 36 -26 58t-67 22h-81q-24 0 -40.5 16t-16.5 40t16.5 39.5t40.5 15.5h53
q38 0 61.5 21t23.5 55q0 35 -26 56.5t-67 21.5q-66 0 -115 -52q-19 -20 -45 -20q-25 0 -43 17.5t-18 42.5q0 22 15 41q35 45 90 70.5t117 25.5q63 0 115 -25.5t81.5 -70t29.5 -99.5q0 -80 -61 -128q46 -23 71.5 -62.5zM187 -183q-32 14 -32 43q0 20 14 34t34 14l32 -1
q26 0 42 10t16 30q0 27 -21 54q-2 3 -9 12t-10.5 17t-3.5 15q0 16 12 25.5t30 9.5q25 0 52 -22.5t45 -56t18 -64.5q0 -59 -42 -94t-112 -35q-41 0 -65 9z" />
    <glyph glyph-name="uni049A" unicode="&#x49a;" horiz-adv-x="674" 
d="M191.5 652q19.5 -20 19.5 -49v-546q0 -29 -19.5 -49t-48.5 -20q-28 0 -47.5 20t-19.5 49v546q0 29 19 49t48 20t48.5 -20zM643.5 101q19.5 -20 19.5 -49v-136q0 -29 -19 -49t-48 -20t-48 19.5t-19 49.5v72q-30 4 -47 28l-223 284q-20 27 -20 51q0 25 21 47l232 252
q20 22 49 22q25 0 43 -18.5t18 -44.5q0 -24 -18 -43l-204 -220l180 -225h34q30 0 49.5 -20z" />
    <glyph glyph-name="uni04A0" unicode="&#x4a0;" horiz-adv-x="692" 
d="M659 50q0 -26 -19 -45t-44 -19q-31 0 -54 28l-250 289q-18 19 -18 45q0 24 18 43l239 257q21 22 48 22q26 0 44 -18.5t18 -44.5q0 -22 -20 -45l-200 -215l221 -256q17 -20 17 -41zM226 640.5q20 -19.5 20 -49.5v-534q0 -29 -19.5 -49t-48.5 -20q-28 0 -47.5 20t-19.5 49
v482h-56q-27 0 -45 17.5t-18 43.5t18 43t45 17h122q29 0 49 -19.5z" />
    <glyph glyph-name="uni04A2" unicode="&#x4a2;" horiz-adv-x="751" 
d="M618.5 652q19.5 -20 19.5 -49v-481h19q29 0 49 -20t20 -49v-137q0 -29 -19.5 -49t-48.5 -20t-48 20t-19 49v84h-19q-30 0 -49.5 19.5t-19.5 49.5v216h-292v-228q0 -29 -19.5 -49t-48.5 -20q-28 0 -47.5 20t-19.5 49v546q0 29 19.5 49t47.5 20q29 0 48.5 -20t19.5 -49
v-196h292v196q0 29 19 49t48 20t48.5 -20z" />
    <glyph glyph-name="uni04AA" unicode="&#x4aa;" horiz-adv-x="720" 
d="M211.5 33.5q-80.5 45.5 -127 123.5t-46.5 173t46.5 173t127.5 123.5t178 45.5q76 0 143.5 -30.5t111.5 -83.5q21 -24 21 -50q0 -25 -18.5 -43t-44.5 -18q-29 0 -52 26q-64 74 -161 74q-61 0 -109.5 -28t-76 -77.5t-27.5 -112.5q0 -62 27.5 -111.5t76 -77t109.5 -27.5
q95 0 160 74q24 26 53 26q26 0 44 -18t18 -43t-21 -50q-44 -53 -111.5 -83.5t-143.5 -30.5q-97 0 -177.5 45.5zM277 -183q-32 14 -32 43q0 20 14 34t34 14l32 -1q26 0 42 10t16 30q0 27 -21 54q-2 3 -9 12t-10.5 17t-3.5 15q0 16 12 25.5t30 9.5q25 0 52 -22.5t45 -56
t18 -64.5q0 -59 -42 -94t-112 -35q-41 0 -65 9z" />
    <glyph glyph-name="uni04AE" unicode="&#x4ae;" horiz-adv-x="625" 
d="M570 563l-190 -312v-194q0 -29 -19.5 -49t-48.5 -20q-28 0 -47.5 20t-19.5 49v194l-189 312q-15 22 -15 45q0 27 19 45.5t47 18.5q22 0 37 -9.5t27 -30.5l142 -246l142 246q11 21 26.5 30.5t36.5 9.5q28 0 47 -18.5t19 -46.5q0 -23 -14 -44z" />
    <glyph glyph-name="uni04B0" unicode="&#x4b0;" horiz-adv-x="642" 
d="M577 565l-173 -280h111q26 0 44 -17t18 -43t-18 -43.5t-44 -17.5h-127v-107q0 -29 -19.5 -49t-47.5 -20q-29 0 -48.5 20t-19.5 49v107h-126q-26 0 -44 17.5t-18 43.5q0 25 18 42.5t44 17.5h111l-173 280q-13 22 -13 42q0 28 19 46.5t46 18.5q22 0 37.5 -10t27.5 -31
l139 -241l139 241q23 41 64 41q28 0 47 -19t19 -46q0 -20 -13 -42z" />
    <glyph glyph-name="uni04B2" unicode="&#x4b2;" horiz-adv-x="623" 
d="M609.5 101q19.5 -20 19.5 -49v-136q0 -29 -19 -49t-48 -20t-48 19.5t-19 49.5v73q-28 7 -42 28l-146 207l-147 -207q-21 -29 -55 -29q-27 0 -46.5 19.5t-19.5 46.5q0 21 19 49l167 233l-153 221q-19 28 -19 52q0 26 19.5 44.5t46.5 18.5q35 0 56 -30l132 -194l135 193
q22 31 56 31q28 0 47 -19t19 -45q0 -25 -20 -54l-155 -218l152 -215h19q30 0 49.5 -20z" />
    <glyph glyph-name="uni04B6" unicode="&#x4b6;" horiz-adv-x="682" 
d="M636.5 102q19.5 -20 19.5 -49v-137q0 -29 -19.5 -49t-47.5 -20q-29 0 -48.5 20t-19.5 49v84h-18q-30 0 -49.5 19.5t-19.5 49.5v154q-56 -16 -116 -16q-82 0 -145.5 31t-99 91t-35.5 144v130q0 29 19.5 49t48.5 20q28 0 47.5 -20t19.5 -49v-117q0 -75 41 -115t109 -40
q51 0 111 21v251q0 29 19 49t48 20t48.5 -20t19.5 -49v-481h19q29 0 48.5 -20z" />
    <glyph glyph-name="uni04BA" unicode="&#x4ba;" horiz-adv-x="646" 
d="M456 411q58 -33 89.5 -94.5t31.5 -144.5v-115q0 -29 -19.5 -49t-47.5 -20q-29 0 -48.5 20t-19.5 49v110q0 78 -33 115t-103 37q-45 0 -95 -14v-248q0 -29 -19.5 -49t-48.5 -20q-28 0 -47.5 20t-19.5 49v546q0 29 19 49t48 20t48.5 -20t19.5 -49v-175q58 16 109 16
q78 0 136 -33z" />
    <glyph glyph-name="uni04C0" unicode="&#x4c0;" horiz-adv-x="285" 
d="M191.5 652q19.5 -20 19.5 -49v-546q0 -29 -19.5 -49t-48.5 -20q-28 0 -47.5 20t-19.5 49v546q0 29 19 49t48 20t48.5 -20z" />
    <glyph glyph-name="uni04C1" unicode="&#x4c1;" horiz-adv-x="1014" 
d="M393 395q19 -22 19 -45q0 -27 -19 -47l-239 -284q-26 -31 -57 -31q-25 0 -44 19.5t-19 45.5q0 21 15 39l218 257l-196 216q-18 21 -18 44q0 26 18 44.5t43 18.5q15 0 27.5 -6t24.5 -19zM555.5 652q19.5 -20 19.5 -49v-546q0 -29 -19.5 -49t-48.5 -20q-28 0 -47.5 20
t-19.5 49v546q0 29 19.5 49t47.5 20q29 0 48.5 -20zM981 53q0 -26 -19 -45.5t-45 -19.5q-31 0 -56 31l-240 284q-19 24 -19 47t19 45l228 252q12 13 24.5 19t27.5 6q25 0 43 -18.5t18 -44.5q0 -23 -18 -44l-198 -215l220 -258q15 -19 15 -39zM425.5 745q-38.5 19 -62.5 51
t-24 67q0 23 15 37.5t37 14.5q16 0 28 -9t22 -29q21 -49 66 -49q23 0 39.5 12.5t25.5 36.5q19 38 51 38q22 0 36.5 -14.5t14.5 -37.5q0 -35 -23.5 -67t-62.5 -51t-81 -19q-43 0 -81.5 19z" />
    <glyph glyph-name="uni04D0" unicode="&#x4d0;" horiz-adv-x="662" 
d="M628 53q0 -27 -19 -46t-47 -19q-44 0 -64 48l-28 68h-279l-28 -68q-19 -48 -63 -48q-28 0 -47.5 19t-19.5 46q0 14 8 36l226 537q18 46 64 46t64 -46l225 -537q8 -19 8 -36zM235 215h190l-94 258zM249.5 745q-38.5 19 -62.5 51t-24 67q0 23 15 37.5t37 14.5q16 0 28 -9
t22 -29q21 -49 66 -49q23 0 39.5 12.5t25.5 36.5q19 38 51 38q22 0 36.5 -14.5t14.5 -37.5q0 -35 -23.5 -67t-62.5 -51t-81 -19q-43 0 -81.5 19z" />
    <glyph glyph-name="uni04D6" unicode="&#x4d6;" horiz-adv-x="572" 
d="M94.5 19.5q-19.5 19.5 -19.5 47.5v526q0 29 19.5 48t47.5 19h323q27 0 44.5 -17.5t17.5 -43.5t-18 -43.5t-44 -17.5h-255v-134h175q25 0 42 -16.5t17 -41.5q0 -24 -17 -40.5t-42 -16.5h-175v-167h267q27 0 44.5 -17.5t17.5 -43.5t-18 -43.5t-44 -17.5h-335
q-28 0 -47.5 19.5zM205.5 745q-38.5 19 -62.5 51t-24 67q0 23 15 37.5t37 14.5q16 0 28 -9t22 -29q21 -49 66 -49q23 0 39.5 12.5t25.5 36.5q19 38 51 38q22 0 36.5 -14.5t14.5 -37.5q0 -35 -23.5 -67t-62.5 -51t-81 -19q-43 0 -81.5 19z" />
    <glyph glyph-name="uni04D8" unicode="&#x4d8;" horiz-adv-x="733" 
d="M525 626.5q78 -45.5 123.5 -123.5t45.5 -172t-46 -172.5t-126 -124.5t-175 -46q-88 0 -158.5 39t-110.5 108t-40 155q0 14 1 24q1 26 19.5 44.5t43.5 18.5h451q-14 77 -68.5 124t-132.5 47q-48 0 -90.5 -19.5t-74.5 -55.5q-24 -28 -53 -28q-26 0 -43 17.5t-17 43.5
q0 23 21 47q104 119 257 119q95 0 173 -45.5zM475 153.5q53 40.5 72 107.5h-377q4 -66 53.5 -107t125.5 -41q73 0 126 40.5z" />
    <glyph glyph-name="uni04E2" unicode="&#x4e2;" horiz-adv-x="722" 
d="M628.5 652.5q19.5 -19.5 19.5 -48.5v-547q0 -29 -19.5 -49t-48.5 -20q-28 0 -47.5 20t-19.5 49v366l-314 -406q-23 -29 -56 -29q-28 0 -47.5 20t-19.5 48v547q0 29 19.5 49t47.5 20q29 0 48.5 -20t19.5 -49v-368l305 397q16 21 29.5 30.5t35.5 9.5q28 0 47.5 -19.5z
M507.5 848q15.5 -15 15.5 -38t-15.5 -38t-38.5 -15h-229q-23 0 -39 15.5t-16 37.5t16 37.5t39 15.5h229q23 0 38.5 -15z" />
    <glyph glyph-name="uni04E6" unicode="&#x4e6;" horiz-adv-x="778" 
d="M565.5 626.5q80.5 -45.5 127.5 -124t47 -172.5t-47 -172.5t-127.5 -124t-177.5 -45.5t-177 45.5t-126.5 123.5t-46.5 173t46.5 173t126.5 123.5t177 45.5t177.5 -45.5zM279.5 519.5q-48.5 -27.5 -75.5 -77t-27 -112.5t27 -112.5t75.5 -77t109.5 -27.5t109 28t75.5 77.5
t27.5 111.5t-27.5 111.5t-75.5 77.5t-109 28t-109.5 -27.5zM204 760.5q-25 23.5 -25 53.5q0 33 24.5 55.5t56.5 22.5q33 0 57 -22.5t24 -55.5q0 -31 -24 -54t-57 -23q-31 0 -56 23.5zM462 759.5q-25 23.5 -25 53.5q0 33 24.5 56t56.5 23q33 0 57 -23t24 -56q0 -31 -24 -54
t-57 -23q-31 0 -56 23.5z" />
    <glyph glyph-name="uni04E8" unicode="&#x4e8;" horiz-adv-x="778" 
d="M565.5 626.5q80.5 -45.5 127.5 -124t47 -172.5t-47 -172.5t-127.5 -124t-177.5 -45.5t-177 45.5t-126.5 123.5t-46.5 173t46.5 173t126.5 123.5t177 45.5t177.5 -45.5zM262 508.5q-54 -38.5 -74 -104.5h402q-21 65 -75 104t-126 39q-73 0 -127 -38.5zM527.5 162
q57.5 49 70.5 127h-418q13 -79 70 -127.5t139 -48.5q81 0 138.5 49z" />
    <glyph glyph-name="uni04EE" unicode="&#x4ee;" horiz-adv-x="631" 
d="M578.5 646q20.5 -21 20.5 -50q0 -16 -10 -37l-199 -425q-35 -74 -90 -110t-135 -36q-42 0 -69 12q-35 18 -35 54q0 26 18 43t46 17l18 -1q44 0 70.5 14.5t43.5 46.5l-203 385q-10 20 -10 38q0 29 20.5 49.5t49.5 20.5q42 0 65 -43l152 -304l133 304q8 20 25.5 31.5
t39.5 11.5q29 0 49.5 -21zM463.5 848q15.5 -15 15.5 -38t-15.5 -38t-38.5 -15h-229q-23 0 -39 15.5t-16 37.5t16 37.5t39 15.5h229q23 0 38.5 -15z" />
    <glyph glyph-name="uni04F2" unicode="&#x4f2;" horiz-adv-x="631" 
d="M578.5 646q20.5 -21 20.5 -50q0 -16 -10 -37l-199 -425q-35 -74 -90 -110t-135 -36q-42 0 -69 12q-35 18 -35 54q0 26 18 43t46 17l18 -1q44 0 70.5 14.5t43.5 46.5l-203 385q-10 20 -10 38q0 29 20.5 49.5t49.5 20.5q42 0 65 -43l152 -304l133 304q8 20 25.5 31.5
t39.5 11.5q29 0 49.5 -21zM170.5 738.5q-15.5 18.5 -15.5 42.5q0 14 6 26l52 100q10 19 26 27t33 8q29 0 48.5 -20.5t19.5 -46.5q0 -23 -14 -40l-64 -90q-11 -15 -25 -20.5t-25 -5.5q-26 1 -41.5 19.5zM385.5 738.5q-15.5 18.5 -15.5 42.5q0 14 6 26l52 100q10 19 26 27
t33 8q29 0 48.5 -20.5t19.5 -46.5q0 -23 -14 -40l-64 -90q-11 -15 -25 -20.5t-25 -5.5q-26 1 -41.5 19.5z" />
    <glyph glyph-name="uni0414.loclBGR" horiz-adv-x="770" 
d="M727.5 102q19.5 -20 19.5 -49v-125q0 -30 -19.5 -49.5t-48.5 -19.5t-48 19.5t-19 49.5v72h-454v-72q0 -30 -19.5 -49.5t-48.5 -19.5t-48 19.5t-19 49.5v125q0 29 19.5 49t49.5 20h21l207 504q20 46 65 46q46 0 64 -46l207 -504h22q30 0 49.5 -20zM256 122h258l-129 349z
" />
    <glyph glyph-name="uni041B.loclBGR" horiz-adv-x="674" 
d="M640 53q0 -27 -19 -46t-47 -19q-44 0 -64 48l-173 410l-174 -410q-20 -48 -63 -48q-28 0 -47.5 19t-19.5 46q0 15 8 36l231 537q19 46 65 46q45 0 64 -46l231 -537q8 -17 8 -36z" />
    <glyph glyph-name="uni0410.ordn" horiz-adv-x="429" 
d="M413 289q0 -22 -15.5 -37.5t-37.5 -15.5q-17 0 -30 9t-19 26l-14 36h-165l-14 -36q-6 -17 -19 -26t-30 -9q-22 0 -37.5 15.5t-15.5 37.5q0 13 6 24l143 321q15 34 50 34t50 -35l143 -320q5 -11 5 -24zM162 384h105l-52 141z" />
    <glyph glyph-name="uni0413.ordn" horiz-adv-x="349" 
d="M327 646.5q14 -13.5 14 -33.5t-14 -33.5t-34 -13.5h-133v-276q0 -23 -14.5 -38.5t-36.5 -15.5q-23 0 -38 15.5t-15 38.5v315q0 24 15.5 39.5t39.5 15.5h182q20 0 34 -13.5z" />
    <glyph glyph-name="uni0415.ordn" horiz-adv-x="380" 
d="M335 646.5q14 -13.5 14 -33.5t-14 -33.5t-34 -13.5h-141v-65h103q18 0 30 -12t12 -29t-12 -28.5t-30 -11.5h-103v-83h149q20 0 34 -13t14 -33t-14 -33.5t-34 -13.5h-198q-24 0 -39.5 15.5t-15.5 38.5v308q0 23 15.5 38.5t39.5 15.5h190q20 0 34 -13.5z" />
    <glyph glyph-name="uni0419.ordn" horiz-adv-x="486" 
d="M181.5 712.5q-26.5 12.5 -43.5 32t-17 40.5q0 16 11 27t27 11q20 0 32 -18q20 -29 45 -28q25 -1 44 28q12 18 32 18q16 0 27 -11t11 -27q0 -21 -16.5 -41t-43 -32t-54.5 -12t-54.5 12.5zM414.5 653q14.5 -15 14.5 -38v-326q0 -22 -15 -37.5t-37 -15.5t-37 15t-15 38v188
l-171 -215q-20 -26 -46 -26q-22 0 -37 15.5t-15 37.5v326q0 23 15.5 38t37.5 15t36.5 -15t14.5 -38v-192l172 219q11 14 22 20t24 6q22 0 36.5 -15z" />
    <glyph glyph-name="uni041C.ordn" horiz-adv-x="531" 
d="M460.5 653q14.5 -15 14.5 -37v-328q0 -23 -14.5 -37.5t-36.5 -14.5q-23 0 -38 15t-15 37v164l-66 -98q-15 -21 -39 -21t-40 21l-66 98v-164q0 -22 -15 -37t-37 -15t-37 15t-15 37v328q0 22 15 37t37 15q27 0 45 -27l113 -168l111 166q19 29 47 29q22 0 36.5 -15z" />
    <glyph glyph-name="uni041E.ordn" horiz-adv-x="504" 
d="M364 639.5q51 -28.5 81 -78t30 -109.5t-29.5 -109.5t-81 -78t-113.5 -28.5t-112.5 28.5t-80 78t-29.5 109.5t29.5 109.5t80.5 78t112 28.5q62 0 113 -28.5zM167.5 538.5q-32.5 -33.5 -32.5 -86.5t32.5 -86.5t84.5 -33.5t85 33.5t33 86.5q0 52 -33.5 86t-84.5 34
q-52 0 -84.5 -33.5z" />
    <glyph glyph-name="uni0423.ordn" horiz-adv-x="417" 
d="M369.5 652.5q15.5 -15.5 15.5 -36.5q0 -10 -8 -29l-107 -248q-43 -103 -155 -103q-34 0 -52 9q-25 13 -25 41q0 21 13.5 34t34.5 13l11 -1q45 0 64 26l-116 229q-8 17 -8 29q0 21 15 36.5t37 15.5q32 0 50 -37l78 -162l65 161q16 38 50 38q22 0 37.5 -15.5z" />
    <glyph glyph-name="uni0425.ordn" horiz-adv-x="388" 
d="M352 326q15 -19 15 -38q0 -21 -15 -36.5t-37 -15.5q-27 0 -45 27l-77 111l-78 -111q-18 -27 -45 -27q-22 0 -37 15.5t-15 36.5q0 19 15 38l99 133l-88 119q-15 20 -15 38q0 21 15 36.5t37 15.5q28 0 44 -25l73 -106l71 104q18 27 45 27q22 0 37.5 -15.5t15.5 -36.5
q0 -19 -16 -38l-93 -126z" />
    <glyph glyph-name="uni042B.ordn" horiz-adv-x="605" 
d="M145.5 652.5q14.5 -15.5 14.5 -38.5v-324q0 -23 -14.5 -38.5t-36.5 -15.5q-23 0 -38 15.5t-15 38.5v324q0 23 15 38.5t38 15.5q22 0 36.5 -15.5zM334 652.5q15 -15.5 15 -38.5v-86h69q70 0 114 -40t44 -103t-43.5 -102t-114.5 -39h-118q-24 0 -39.5 15.5t-15.5 39.5v315
q0 23 15 38.5t37 15.5t37 -15.5zM349 437v-102h70q24 0 38 14t14 37t-14 37t-38 14h-70z" />
    <glyph glyph-name="uni042E.ordn" horiz-adv-x="684" 
d="M544 639q51 -29 81 -78.5t30 -108.5q0 -60 -30 -109.5t-81 -78t-112 -28.5q-54 0 -100 23t-76.5 63t-39.5 91h-56v-123q0 -23 -14.5 -38.5t-36.5 -15.5q-23 0 -38 15.5t-15 38.5v324q0 23 15 38t38 15q22 0 36.5 -15t14.5 -38v-107h60q17 71 75.5 116t136.5 45
q61 0 112 -29zM516.5 366q33.5 34 33.5 86t-33.5 86t-84.5 34t-84 -34t-33 -86q0 -53 32.5 -86.5t84.5 -33.5q51 0 84.5 34z" />
    <glyph glyph-name="uni042F.ordn" horiz-adv-x="425" 
d="M354 645q15 -15 15 -38v-318q0 -23 -15 -38t-37 -15q-23 0 -37.5 15t-14.5 38v68h-47h-13l-78 -100q-18 -21 -41 -21q-22 0 -37.5 14.5t-15.5 35.5q0 19 14 35l58 72q-27 21 -41.5 50.5t-14.5 65.5q0 67 47.5 109t121.5 42h98q23 0 38 -15zM265 569h-48
q-28 0 -45.5 -16.5t-17.5 -43.5q0 -28 17.5 -45t45.5 -17h48v122z" />
    <glyph glyph-name="uni0409.ss01" horiz-adv-x="960" 
d="M805.5 405.5q54.5 -27.5 85 -76.5t30.5 -112q0 -64 -30 -113.5t-85 -76.5t-126 -27h-129q-53 0 -77 62l-147 378l-164 -404q-19 -48 -63 -48q-28 0 -47.5 19t-19.5 46q0 15 8 36l219 532q22 51 67 51q46 0 64 -46l78 -193h211q71 0 125.5 -27.5zM755 145.5
q28 26.5 28 70.5q0 45 -28 72t-75 27h-164l79 -196h85q47 0 75 26.5z" />
    <glyph glyph-name="uni0430" unicode="&#x430;" horiz-adv-x="545" 
d="M426 450.5q56 -55.5 56 -156.5v-238q0 -29 -18.5 -48t-46.5 -19q-24 0 -42 14.5t-23 37.5q-56 -53 -145 -53q-76 0 -123.5 41t-47.5 107q0 67 50 105.5t137 38.5h124v22q0 41 -24 64t-69 23q-52 0 -95 -37q-21 -16 -40 -16q-25 0 -41.5 16t-16.5 39q0 28 28 54
q31 29 78 45t101 16q102 0 158 -55.5zM317 115q30 28 30 70v6h-106q-69 0 -69 -50q0 -25 19 -39.5t52 -14.5q44 0 74 28z" />
    <glyph glyph-name="uni0431" unicode="&#x431;" horiz-adv-x="615" 
d="M460.5 449q53.5 -33 85 -89.5t31.5 -123.5q0 -70 -34 -126t-93.5 -88.5t-132.5 -32.5q-79 0 -138.5 36t-92 102t-32.5 154v46q0 114 30.5 192.5t96.5 128t173 77.5l85 22q31 8 39 8q24 0 41 -17.5t17 -42.5q0 -22 -14.5 -38t-40.5 -23l-91 -24q-96 -25 -142.5 -70.5
t-52.5 -121.5q59 64 148 64q64 0 117.5 -33zM403 148q36 36 36 88t-36 87.5t-88 35.5t-87.5 -35.5t-35.5 -87.5t36 -88t87 -36q52 0 88 36z" />
    <glyph glyph-name="uni0432" unicode="&#x432;" horiz-adv-x="555" 
d="M497 217.5q19 -29.5 19 -67.5q0 -43 -22.5 -77.5t-62.5 -53.5t-91 -19h-199q-30 0 -49.5 19.5t-19.5 49.5v357q0 29 19.5 49t49.5 20h165q79 0 127.5 -38t48.5 -100q0 -56 -40 -93q36 -17 55 -46.5zM201 303h102q26 0 40 11t14 32q0 41 -54 41h-102v-84zM375 123
q17 14 17 37q0 22 -17 35t-46 13h-128v-99h128q29 0 46 14z" />
    <glyph glyph-name="uni0433" unicode="&#x433;" horiz-adv-x="455" 
d="M91.5 8q-19.5 20 -19.5 49v369q0 29 19.5 49t49.5 20h249q25 0 41.5 -16t16.5 -41t-16.5 -41t-41.5 -16h-183v-324q0 -29 -19.5 -49t-47.5 -20q-29 0 -48.5 20z" />
    <glyph glyph-name="uni0453" unicode="&#x453;" horiz-adv-x="455" 
d="M91.5 8q-19.5 20 -19.5 49v369q0 29 19.5 49t49.5 20h249q25 0 41.5 -16t16.5 -41t-16.5 -41t-41.5 -16h-183v-324q0 -29 -19.5 -49t-47.5 -20q-29 0 -48.5 20zM222 581q-17 19 -15 44q0 12 8 30l47 107q8 18 25.5 28.5t36.5 10.5q29 0 48 -20t19 -48q0 -19 -11 -37
l-62 -103q-9 -14 -22.5 -22.5t-28.5 -8.5q-28 0 -45 19z" />
    <glyph glyph-name="uni0491" unicode="&#x491;" horiz-adv-x="470" 
d="M435.5 616q19.5 -20 19.5 -49v-118q0 -29 -19.5 -48.5t-49.5 -19.5h-179v-324q0 -29 -19.5 -49t-47.5 -20q-29 0 -48.5 20t-19.5 49v369q0 29 19.5 49t49.5 20h179v72q0 29 19.5 49t48.5 20q28 0 47.5 -20z" />
    <glyph glyph-name="uni0434" unicode="&#x434;" horiz-adv-x="665" 
d="M617.5 94.5q19.5 -19.5 19.5 -48.5v-130q0 -30 -19 -49.5t-48 -19.5q-28 0 -47.5 20t-19.5 49v84h-340v-84q0 -30 -19 -49.5t-48 -19.5t-48.5 20t-19.5 49v130q0 29 19.5 48.5t49.5 19.5h5q44 51 63 124t19 191v1q0 28 19.5 46.5t48.5 18.5h229q29 0 48.5 -20t19.5 -49
v-312h20q29 0 48.5 -19.5zM299 221q-18 -65 -55 -107h171v267h-97q-1 -95 -19 -160z" />
    <glyph glyph-name="uni0435" unicode="&#x435;" horiz-adv-x="569" 
d="M416.5 476q53.5 -30 84 -83t30.5 -119v-3q0 -31 -20.5 -50t-53.5 -19h-282q12 -47 48 -72.5t91 -25.5q57 0 103 29q15 9 29 9q23 0 39 -15.5t16 -38.5q0 -17 -8 -29.5t-26 -24.5q-69 -46 -157 -46q-77 0 -139 34t-97 93t-35 132q0 72 33.5 131.5t92.5 93.5t131 34
q67 0 120.5 -30zM217.5 370q-31.5 -27 -42.5 -73h225q-2 45 -31 72.5t-76 27.5q-44 0 -75.5 -27z" />
    <glyph glyph-name="uni0450" unicode="&#x450;" horiz-adv-x="569" 
d="M416.5 476q53.5 -30 84 -83t30.5 -119v-3q0 -31 -20.5 -50t-53.5 -19h-282q12 -47 48 -72.5t91 -25.5q57 0 103 29q15 9 29 9q23 0 39 -15.5t16 -38.5q0 -17 -8 -29.5t-26 -24.5q-69 -46 -157 -46q-77 0 -139 34t-97 93t-35 132q0 72 33.5 131.5t92.5 93.5t131 34
q67 0 120.5 -30zM217.5 370q-31.5 -27 -42.5 -73h225q-2 45 -31 72.5t-76 27.5q-44 0 -75.5 -27zM248.5 570.5q-13.5 8.5 -22.5 22.5l-62 103q-11 18 -11 37q0 28 19 48t48 20q19 0 36.5 -10.5t25.5 -28.5l47 -107q8 -18 8 -30q2 -25 -15 -44t-45 -19q-15 0 -28.5 8.5z" />
    <glyph glyph-name="uni0451" unicode="&#x451;" horiz-adv-x="569" 
d="M416.5 476q53.5 -30 84 -83t30.5 -119v-3q0 -31 -20.5 -50t-53.5 -19h-282q12 -47 48 -72.5t91 -25.5q57 0 103 29q15 9 29 9q23 0 39 -15.5t16 -38.5q0 -17 -8 -29.5t-26 -24.5q-69 -46 -157 -46q-77 0 -139 34t-97 93t-35 132q0 72 33.5 131.5t92.5 93.5t131 34
q67 0 120.5 -30zM217.5 370q-31.5 -27 -42.5 -73h225q-2 45 -31 72.5t-76 27.5q-44 0 -75.5 -27zM236.5 731.5q23.5 -22.5 23.5 -56.5q0 -31 -24 -54t-57 -23q-32 0 -56.5 23.5t-24.5 53.5q0 33 24 56t57 23q34 0 57.5 -22.5zM474 731.5q23 -22.5 23 -56.5
q0 -32 -23.5 -54.5t-57.5 -22.5q-31 0 -55.5 23.5t-24.5 53.5q0 33 23.5 56t56.5 23q35 0 58 -22.5z" />
    <glyph glyph-name="uni0436" unicode="&#x436;" horiz-adv-x="845" 
d="M310 316q23 -27 23 -49q0 -20 -20 -48l-160 -207q-16 -24 -48 -24q-26 0 -44 18t-18 44q0 21 15 41l135 177l-120 131q-20 21 -20 47t18.5 43t46.5 17q26 0 45 -23zM801 50q0 -26 -18 -44t-44 -18q-30 0 -48 24l-160 207q-20 28 -20 48q0 22 23 49l147 167q19 23 45 23
q28 0 46.5 -17t18.5 -43q0 -24 -20 -47l-121 -131l136 -177q15 -24 15 -41zM471 486.5q19 -19.5 19 -48.5v-381q0 -30 -19 -49.5t-48 -19.5t-48.5 20t-19.5 49v381q0 29 19.5 48.5t48.5 19.5t48 -19.5z" />
    <glyph glyph-name="uni0437" unicode="&#x437;" horiz-adv-x="508" 
d="M444.5 204.5q18.5 -30.5 18.5 -67.5q0 -67 -60 -108t-158 -41q-51 0 -96.5 14t-74.5 39q-29 22 -29 50q0 24 16.5 40.5t41.5 16.5q18 0 35 -12q40 -32 107 -32q42 0 64 13.5t22 38.5q0 23 -18.5 35.5t-53.5 12.5h-48q-22 0 -36.5 14.5t-14.5 35.5q0 22 14.5 36t36.5 14
h43q27 0 42 11.5t15 31.5q0 43 -73 43q-58 0 -98 -27q-19 -13 -36 -13q-24 0 -41 17t-17 41q0 28 31 51q28 22 70.5 34.5t92.5 12.5q93 0 148 -39t55 -106q0 -64 -50 -106q33 -20 51.5 -50.5z" />
    <glyph glyph-name="uni0438" unicode="&#x438;" horiz-adv-x="609" 
d="M518 486.5q19 -19.5 19 -48.5v-381q0 -29 -19.5 -49t-47.5 -20t-47.5 20t-19.5 49v217l-204 -253q-14 -17 -28.5 -25t-31.5 -8q-28 0 -47.5 20t-19.5 49v381q0 29 19.5 48.5t48.5 19.5t48 -19.5t19 -48.5v-220l203 255q14 17 28.5 25t31.5 8q29 0 48 -19.5z" />
    <glyph glyph-name="uni0439" unicode="&#x439;" horiz-adv-x="609" 
d="M518 486.5q19 -19.5 19 -48.5v-381q0 -29 -19.5 -49t-47.5 -20t-47.5 20t-19.5 49v217l-204 -253q-14 -17 -28.5 -25t-31.5 -8q-28 0 -47.5 20t-19.5 49v381q0 29 19.5 48.5t48.5 19.5t48 -19.5t19 -48.5v-220l203 255q14 17 28.5 25t31.5 8q29 0 48 -19.5zM224.5 593
q-39.5 20 -63 53.5t-23.5 71.5q0 23 15 39t37 16q40 0 52 -41q6 -26 24 -41.5t43 -15.5t42.5 15.5t23.5 41.5q12 41 51 41q22 0 37.5 -16t15.5 -39q0 -38 -23 -71.5t-62 -53.5t-85 -20q-45 0 -84.5 20z" />
    <glyph glyph-name="uni045D" unicode="&#x45d;" horiz-adv-x="609" 
d="M518 486.5q19 -19.5 19 -48.5v-381q0 -29 -19.5 -49t-47.5 -20t-47.5 20t-19.5 49v217l-204 -253q-14 -17 -28.5 -25t-31.5 -8q-28 0 -47.5 20t-19.5 49v381q0 29 19.5 48.5t48.5 19.5t48 -19.5t19 -48.5v-220l203 255q14 17 28.5 25t31.5 8q29 0 48 -19.5zM259.5 570.5
q-13.5 8.5 -22.5 22.5l-62 103q-11 18 -11 37q0 28 19 48t48 20q19 0 36.5 -10.5t25.5 -28.5l47 -107q8 -18 8 -30q2 -25 -15 -44t-45 -19q-15 0 -28.5 8.5z" />
    <glyph glyph-name="uni043A" unicode="&#x43a;" horiz-adv-x="564" 
d="M527 50q0 -26 -18 -44t-44 -18q-31 0 -47 22l-169 209q-20 26 -20 48q0 23 24 50l157 169q18 20 43 20q27 0 46 -17.5t19 -43.5t-20 -46l-126 -133l139 -174q16 -20 16 -42zM188 486.5q19 -19.5 19 -48.5v-381q0 -29 -19.5 -49t-47.5 -20q-29 0 -48.5 20t-19.5 49v381
q0 29 19.5 48.5t48.5 19.5t48 -19.5z" />
    <glyph glyph-name="uni045C" unicode="&#x45c;" horiz-adv-x="564" 
d="M527 50q0 -26 -18 -44t-44 -18q-31 0 -47 22l-169 209q-20 26 -20 48q0 23 24 50l157 169q18 20 43 20q27 0 46 -17.5t19 -43.5t-20 -46l-126 -133l139 -174q16 -20 16 -42zM188 486.5q19 -19.5 19 -48.5v-381q0 -29 -19.5 -49t-47.5 -20q-29 0 -48.5 20t-19.5 49v381
q0 29 19.5 48.5t48.5 19.5t48 -19.5zM268 581q-17 19 -15 44q0 12 8 30l47 107q8 18 25.5 28.5t36.5 10.5q29 0 48 -20t19 -48q0 -19 -11 -37l-62 -103q-9 -14 -22.5 -22.5t-28.5 -8.5q-28 0 -45 19z" />
    </font>
</defs>
</svg>
