<?xml version="1.0" standalone="no"?>
<!DOCTYPE svg PUBLIC "-//W3C//DTD SVG 1.1//EN" "http://www.w3.org/Graphics/SVG/1.1/DTD/svg11.dtd" >
<svg xmlns="http://www.w3.org/2000/svg" xmlns:xlink="http://www.w3.org/1999/xlink" version="1.1">
<metadata>
Created by FontForge 20190801 at Fri Mar  3 11:33:16 2017
 By Jimmy Wärting
Copyright (c) 2016 by Jakob Runge and Lisa Fischbach, under exclusive license to TypeMates. All rights reserved.
</metadata>
<defs>
<font id="CeraRoundPro-Regular" horiz-adv-x="560" >
  <font-face 
    font-family="Cera Round Pro"
    font-weight="400"
    font-stretch="normal"
    units-per-em="1000"
    panose-1="0 0 5 0 0 0 0 0 0 0"
    ascent="808"
    descent="-192"
    x-height="487"
    cap-height="671"
    bbox="-138.667 -236 1304 1013"
    underline-thickness="65"
    underline-position="-100"
    unicode-range="U+0020-FB02"
  />
<missing-glyph horiz-adv-x="707" 
d="M604.5 648.5q11.5 -11.5 11.5 -28.5v-580q0 -17 -11.5 -28.5t-28.5 -11.5h-446q-16 0 -27.5 11.5t-11.5 28.5v580q0 17 11.5 28.5t27.5 11.5h446q17 0 28.5 -11.5zM558 607h-411l411 -555v555z" />
    <glyph glyph-name="fi" unicode="fi" horiz-adv-x="564" 
d="M196.5 667.5q-22.5 -23.5 -22.5 -69.5v-111h96q15 0 25 -10t10 -24q0 -15 -10 -25t-25 -10h-96v-389q0 -17 -11 -28.5t-27 -11.5t-27.5 11.5t-11.5 28.5v389h-44q-15 0 -25 10t-10 25q0 14 10 24t25 10h44v116q0 74 41.5 116t114.5 42q29 0 49 -7q27 -7 27 -35
q0 -14 -9 -22t-25 -8q-6 0 -13.5 1t-18.5 1q-44 0 -66.5 -23.5zM413.5 0.5q-10.5 11.5 -10.5 28.5v429q0 17 11 28.5t28 11.5q16 0 27 -11.5t11 -28.5v-429q0 -16 -11.5 -28t-28.5 -12q-16 0 -26.5 11.5zM481.5 711.5q16.5 -16.5 16.5 -38.5q0 -23 -16.5 -39t-39.5 -16
t-40 16t-17 39q0 22 17 38.5t40 16.5t39.5 -16.5z" />
    <glyph glyph-name="fl" unicode="fl" horiz-adv-x="564" 
d="M196.5 667.5q-22.5 -23.5 -22.5 -69.5v-111h96q15 0 25 -10t10 -24q0 -15 -10 -25t-25 -10h-96v-389q0 -17 -11 -28.5t-27 -11.5t-27.5 11.5t-11.5 28.5v389h-44q-15 0 -25 10t-10 25q0 14 10 24t25 10h44v116q0 74 41.5 116t114.5 42q29 0 49 -7q27 -7 27 -35
q0 -14 -9 -22t-25 -8q-6 0 -13.5 1t-18.5 1q-44 0 -66.5 -23.5zM414 0.5q-11 11.5 -11 28.5v692q0 17 11 28.5t28 11.5q16 0 27 -11.5t11 -28.5v-692q0 -17 -11 -28.5t-27 -11.5q-17 0 -28 11.5z" />
    <glyph glyph-name=".notdef" horiz-adv-x="707" 
d="M604.5 648.5q11.5 -11.5 11.5 -28.5v-580q0 -17 -11.5 -28.5t-28.5 -11.5h-446q-16 0 -27.5 11.5t-11.5 28.5v580q0 17 11.5 28.5t27.5 11.5h446q17 0 28.5 -11.5zM558 607h-411l411 -555v555z" />
    <glyph glyph-name="space" unicode=" " horiz-adv-x="280" 
 />
    <glyph glyph-name="A" unicode="A" horiz-adv-x="664" 
d="M629 27q0 -15 -11.5 -26.5t-26.5 -11.5q-25 0 -38 26l-53 119h-339l-50 -119q-11 -26 -37 -26q-16 0 -27 11.5t-11 26.5q0 10 6 25l253 592q12 27 37 27t37 -27l253 -592q7 -14 7 -25zM190 204h280l-138 350z" />
    <glyph glyph-name="Aacute" unicode="&#xc1;" horiz-adv-x="664" 
d="M629 27q0 -15 -11.5 -26.5t-26.5 -11.5q-25 0 -38 26l-53 119h-339l-50 -119q-11 -26 -37 -26q-16 0 -27 11.5t-11 26.5q0 10 6 25l253 592q12 27 37 27t37 -27l253 -592q7 -14 7 -25zM190 204h280l-138 350zM322.5 738q-8.5 10 -8.5 23q0 6 4 16l65 125q5 10 14 15.5
t20 5.5q17 0 28.5 -11.5t11.5 -27.5q0 -13 -7 -24l-71 -113q-12 -21 -34 -20q-14 1 -22.5 11z" />
    <glyph glyph-name="Abreve" unicode="&#x102;" horiz-adv-x="664" 
d="M629 27q0 -15 -11.5 -26.5t-26.5 -11.5q-25 0 -38 26l-53 119h-339l-50 -119q-11 -26 -37 -26q-16 0 -27 11.5t-11 26.5q0 10 6 25l253 592q12 27 37 27t37 -27l253 -592q7 -14 7 -25zM190 204h280l-138 350zM258.5 750q-34.5 18 -55.5 47.5t-21 63.5q0 14 9.5 24
t22.5 10q25 0 32 -32q7 -33 30.5 -52t55.5 -19q34 0 57 19.5t30 51.5q6 32 31 32q14 0 23.5 -10t9.5 -24q0 -34 -21 -63.5t-55.5 -47.5t-74.5 -18q-39 0 -73.5 18z" />
    <glyph glyph-name="Acircumflex" unicode="&#xc2;" horiz-adv-x="664" 
d="M629 27q0 -15 -11.5 -26.5t-26.5 -11.5q-25 0 -38 26l-53 119h-339l-50 -119q-11 -26 -37 -26q-16 0 -27 11.5t-11 26.5q0 10 6 25l253 592q12 27 37 27t37 -27l253 -592q7 -14 7 -25zM190 204h280l-138 350zM487 750q0 -13 -8.5 -21.5t-20.5 -8.5q-11 0 -23 10l-104 99
l-104 -99q-12 -10 -22 -10q-13 0 -21.5 8.5t-8.5 21.5q0 11 11 22l123 124q10 10 22 10q13 0 23 -10l122 -124q11 -11 11 -22z" />
    <glyph glyph-name="Adieresis" unicode="&#xc4;" horiz-adv-x="664" 
d="M629 27q0 -15 -11.5 -26.5t-26.5 -11.5q-25 0 -38 26l-53 119h-339l-50 -119q-11 -26 -37 -26q-16 0 -27 11.5t-11 26.5q0 10 6 25l253 592q12 27 37 27t37 -27l253 -592q7 -14 7 -25zM190 204h280l-138 350zM176.5 772.5q-16.5 15.5 -16.5 37.5t16.5 37.5t38.5 15.5
q23 0 39 -15.5t16 -37.5t-16 -37.5t-39 -15.5q-22 0 -38.5 15.5zM409.5 771.5q-16.5 15.5 -16.5 37.5t16.5 38t38.5 16q23 0 39 -16t16 -38t-16 -37.5t-39 -15.5q-22 0 -38.5 15.5z" />
    <glyph glyph-name="Agrave" unicode="&#xc0;" horiz-adv-x="664" 
d="M629 27q0 -15 -11.5 -26.5t-26.5 -11.5q-25 0 -38 26l-53 119h-339l-50 -119q-11 -26 -37 -26q-16 0 -27 11.5t-11 26.5q0 10 6 25l253 592q12 27 37 27t37 -27l253 -592q7 -14 7 -25zM190 204h280l-138 350zM285 747l-71 113q-7 11 -7 24q0 17 11.5 28t28.5 11
q11 0 20 -5.5t14 -15.5l65 -125q4 -10 4 -16q0 -13 -8.5 -23t-22.5 -11q-22 -1 -34 20z" />
    <glyph glyph-name="Amacron" unicode="&#x100;" horiz-adv-x="664" 
d="M629 27q0 -15 -11.5 -26.5t-26.5 -11.5q-25 0 -38 26l-53 119h-339l-50 -119q-11 -26 -37 -26q-16 0 -27 11.5t-11 26.5q0 10 6 25l253 592q12 27 37 27t37 -27l253 -592q7 -14 7 -25zM190 204h280l-138 350zM473.5 824q9.5 -9 9.5 -22q0 -14 -9.5 -23t-23.5 -9h-237
q-14 0 -23.5 9.5t-9.5 22.5t9.5 22t23.5 9h237q14 0 23.5 -9z" />
    <glyph glyph-name="Aogonek" unicode="&#x104;" horiz-adv-x="664" 
d="M629 27q0 -15 -11.5 -26.5t-26.5 -11.5q-25 0 -38 26l-53 119h-339l-50 -119q-11 -26 -37 -26q-16 0 -27 11.5t-11 26.5q0 10 6 25l253 592q12 27 37 27t37 -27l253 -592q7 -14 7 -25zM190 204h280l-138 350zM488 -165.5q-29 25.5 -29 68.5q0 34 19 57.5t60 55.5
q43 34 66 34q11 0 18 -7t7 -16q0 -22 -26 -38q-71 -44 -71 -80q0 -16 13.5 -26.5t38.5 -10.5q11 0 19.5 1t14.5 1q12 0 19.5 -8t7.5 -21q0 -21 -25 -29q-23 -7 -55 -7q-48 0 -77 25.5z" />
    <glyph glyph-name="Aring" unicode="&#xc5;" horiz-adv-x="664" 
d="M629 27q0 -15 -11.5 -26.5t-26.5 -11.5q-25 0 -38 26l-53 119h-339l-50 -119q-11 -26 -37 -26q-16 0 -27 11.5t-11 26.5q0 10 6 25l253 592q12 27 37 27t37 -27l253 -592q7 -14 7 -25zM190 204h280l-138 350zM410.5 883q32.5 -31 32.5 -77t-32.5 -77t-79.5 -31
q-46 0 -78 31.5t-32 76.5q0 46 32 77t78 31q47 0 79.5 -31zM296.5 842.5q-14.5 -14.5 -14.5 -36.5q0 -21 14.5 -35.5t35.5 -14.5q22 0 36 14.5t14 35.5q0 22 -14 36.5t-36 14.5q-21 0 -35.5 -14.5z" />
    <glyph glyph-name="Atilde" unicode="&#xc3;" horiz-adv-x="664" 
d="M629 27q0 -15 -11.5 -26.5t-26.5 -11.5q-25 0 -38 26l-53 119h-339l-50 -119q-11 -26 -37 -26q-16 0 -27 11.5t-11 26.5q0 10 6 25l253 592q12 27 37 27t37 -27l253 -592q7 -14 7 -25zM190 204h280l-138 350zM177 751.5q-10 10.5 -10 25.5q0 44 25 72.5t62 28.5
q35 0 70 -23l34 -22q16 -11 24.5 -15.5t18.5 -4.5q27 0 29 31q1 15 10 24.5t22 9.5q15 0 25 -10.5t10 -25.5q0 -43 -25 -72t-62 -29q-35 0 -70 23l-34 22q-6 3 -14.5 9t-15 8.5t-13.5 2.5q-28 0 -30 -31q-1 -15 -9.5 -24.5t-22.5 -9.5t-24 10.5z" />
    <glyph glyph-name="AE" unicode="&#xc6;" horiz-adv-x="822" 
d="M775.5 60q10.5 -10 10.5 -25q0 -14 -10.5 -24.5t-25.5 -10.5h-250q-15 0 -26 9t-13 23l-17 102h-276l-61 -116q-15 -29 -38 -29q-16 0 -26.5 10.5t-10.5 25.5q0 10 5 20l307 589q6 12 17 19t24 7h353q15 0 25.5 -10.5t10.5 -24.5q0 -15 -10.5 -25t-25.5 -10h-291l34 -202
h177q15 0 25.5 -10t10.5 -25q0 -14 -10.5 -24.5t-25.5 -10.5h-165l42 -248h215q15 0 25.5 -10zM205 204h227l-55 337z" />
    <glyph glyph-name="AEacute" unicode="&#x1fc;" horiz-adv-x="822" 
d="M775.5 60q10.5 -10 10.5 -25q0 -14 -10.5 -24.5t-25.5 -10.5h-250q-15 0 -26 9t-13 23l-17 102h-276l-61 -116q-15 -29 -38 -29q-16 0 -26.5 10.5t-10.5 25.5q0 10 5 20l307 589q6 12 17 19t24 7h353q15 0 25.5 -10.5t10.5 -24.5q0 -15 -10.5 -25t-25.5 -10h-291l34 -202
h177q15 0 25.5 -10t10.5 -25q0 -14 -10.5 -24.5t-25.5 -10.5h-165l42 -248h215q15 0 25.5 -10zM205 204h227l-55 337zM407.5 738q-8.5 10 -8.5 23q0 6 4 16l65 125q5 10 14 15.5t20 5.5q17 0 28.5 -11.5t11.5 -27.5q0 -13 -7 -24l-71 -113q-12 -21 -34 -20q-14 1 -22.5 11z
" />
    <glyph glyph-name="B" unicode="B" horiz-adv-x="616" 
d="M538 300q34 -45 34 -110q0 -56 -26 -99.5t-73.5 -67t-109.5 -23.5h-231q-18 0 -29.5 12t-11.5 29v578q0 17 11.5 29t29.5 12h186q85 0 136.5 -46t51.5 -121q0 -41 -16.5 -74t-46.5 -56q61 -18 95 -63zM169 590v-205h141q54 0 85 27t31 76q0 48 -30.5 75t-85.5 27h-141z
M455.5 102.5q36.5 32.5 36.5 89.5t-36.5 89.5t-100.5 32.5h-186v-244h186q64 0 100.5 32.5z" />
    <glyph glyph-name="C" unicode="C" horiz-adv-x="715" 
d="M217.5 34.5q-78.5 45.5 -124 123.5t-45.5 172t45.5 172t124 123.5t173.5 45.5q76 0 144 -31t113 -87q15 -19 15 -33t-11 -24.5t-26 -10.5q-20 0 -33 16q-78 98 -201 98q-74 0 -134 -35.5t-94.5 -97t-34.5 -136.5t34.5 -136.5t94.5 -97t134 -35.5q121 0 201 98
q13 16 33 16q15 0 26 -10.5t11 -24.5t-15 -33q-43 -55 -111.5 -86.5t-145.5 -31.5q-95 0 -173.5 45.5z" />
    <glyph glyph-name="Cacute" unicode="&#x106;" horiz-adv-x="715" 
d="M217.5 34.5q-78.5 45.5 -124 123.5t-45.5 172t45.5 172t124 123.5t173.5 45.5q76 0 144 -31t113 -87q15 -19 15 -33t-11 -24.5t-26 -10.5q-20 0 -33 16q-78 98 -201 98q-74 0 -134 -35.5t-94.5 -97t-34.5 -136.5t34.5 -136.5t94.5 -97t134 -35.5q121 0 201 98
q13 16 33 16q15 0 26 -10.5t11 -24.5t-15 -33q-43 -55 -111.5 -86.5t-145.5 -31.5q-95 0 -173.5 45.5zM381.5 738q-8.5 10 -8.5 23q0 6 4 16l65 125q5 10 14 15.5t20 5.5q17 0 28.5 -11.5t11.5 -27.5q0 -13 -7 -24l-71 -113q-12 -21 -34 -20q-14 1 -22.5 11z" />
    <glyph glyph-name="Ccaron" unicode="&#x10c;" horiz-adv-x="715" 
d="M217.5 34.5q-78.5 45.5 -124 123.5t-45.5 172t45.5 172t124 123.5t173.5 45.5q76 0 144 -31t113 -87q15 -19 15 -33t-11 -24.5t-26 -10.5q-20 0 -33 16q-78 98 -201 98q-74 0 -134 -35.5t-94.5 -97t-34.5 -136.5t34.5 -136.5t94.5 -97t134 -35.5q121 0 201 98
q13 16 33 16q15 0 26 -10.5t11 -24.5t-15 -33q-43 -55 -111.5 -86.5t-145.5 -31.5q-95 0 -173.5 45.5zM538.5 897.5q8.5 -8.5 8.5 -21.5q0 -11 -11 -22l-122 -124q-10 -10 -23 -10q-12 0 -22 10l-123 124q-11 11 -11 22q0 13 8.5 21.5t21.5 8.5q10 0 22 -10l104 -99l104 99
q12 10 23 10q12 0 20.5 -8.5z" />
    <glyph glyph-name="Ccedilla" unicode="&#xc7;" horiz-adv-x="715" 
d="M217.5 34.5q-78.5 45.5 -124 123.5t-45.5 172t45.5 172t124 123.5t173.5 45.5q76 0 144 -31t113 -87q15 -19 15 -33t-11 -24.5t-26 -10.5q-20 0 -33 16q-78 98 -201 98q-74 0 -134 -35.5t-94.5 -97t-34.5 -136.5t34.5 -136.5t94.5 -97t134 -35.5q121 0 201 98
q13 16 33 16q15 0 26 -10.5t11 -24.5t-15 -33q-43 -55 -111.5 -86.5t-145.5 -31.5q-95 0 -173.5 45.5zM286 -184q-24 10 -24 29q0 13 8.5 21.5t21.5 8.5q8 0 19.5 -2t25.5 -2q29 0 49 14.5t20 40.5q0 31 -23 60q-4 5 -11 12.5t-10 13.5t-3 12q0 11 7 18t20 7q18 0 39.5 -20
t36 -49.5t14.5 -55.5q0 -51 -38 -83t-97 -32q-36 0 -55 7z" />
    <glyph glyph-name="Ccircumflex" unicode="&#x108;" horiz-adv-x="715" 
d="M217.5 34.5q-78.5 45.5 -124 123.5t-45.5 172t45.5 172t124 123.5t173.5 45.5q76 0 144 -31t113 -87q15 -19 15 -33t-11 -24.5t-26 -10.5q-20 0 -33 16q-78 98 -201 98q-74 0 -134 -35.5t-94.5 -97t-34.5 -136.5t34.5 -136.5t94.5 -97t134 -35.5q121 0 201 98
q13 16 33 16q15 0 26 -10.5t11 -24.5t-15 -33q-43 -55 -111.5 -86.5t-145.5 -31.5q-95 0 -173.5 45.5zM546 750q0 -13 -8.5 -21.5t-20.5 -8.5q-11 0 -23 10l-104 99l-104 -99q-12 -10 -22 -10q-13 0 -21.5 8.5t-8.5 21.5q0 11 11 22l123 124q10 10 22 10q13 0 23 -10
l122 -124q11 -11 11 -22z" />
    <glyph glyph-name="Cdotaccent" unicode="&#x10a;" horiz-adv-x="715" 
d="M217.5 34.5q-78.5 45.5 -124 123.5t-45.5 172t45.5 172t124 123.5t173.5 45.5q76 0 144 -31t113 -87q15 -19 15 -33t-11 -24.5t-26 -10.5q-20 0 -33 16q-78 98 -201 98q-74 0 -134 -35.5t-94.5 -97t-34.5 -136.5t34.5 -136.5t94.5 -97t134 -35.5q121 0 201 98
q13 16 33 16q15 0 26 -10.5t11 -24.5t-15 -33q-43 -55 -111.5 -86.5t-145.5 -31.5q-95 0 -173.5 45.5zM430.5 848.5q16.5 -16.5 16.5 -38.5q0 -23 -16.5 -39t-39.5 -16t-40 16t-17 39q0 22 17 38.5t40 16.5t39.5 -16.5z" />
    <glyph glyph-name="D" unicode="D" horiz-adv-x="694" 
d="M475.5 619.5q81.5 -40.5 126 -115t44.5 -173.5q0 -98 -45 -173t-126.5 -116.5t-187.5 -41.5h-155q-18 0 -29.5 12t-11.5 29v578q0 17 11.5 29t29.5 12h155q107 0 188.5 -40.5zM169 590v-520h117q83 0 146.5 32.5t98 91.5t34.5 137t-34.5 136.5t-97.5 90.5t-147 32h-117z
" />
    <glyph glyph-name="Eth" unicode="&#xd0;" horiz-adv-x="694" 
d="M475.5 619.5q81.5 -40.5 126 -115t44.5 -173.5q0 -98 -45 -173t-126.5 -116.5t-187.5 -41.5h-155q-18 0 -29.5 12t-11.5 29v233h-63q-15 0 -25.5 9.5t-10.5 23.5t10.5 23.5t25.5 9.5h63v279q0 17 11.5 29t29.5 12h155q107 0 188.5 -40.5zM432.5 102.5q63.5 32.5 98 91.5
t34.5 137t-34.5 136.5t-97.5 90.5t-147 32h-117v-250h98q16 0 26 -9.5t10 -23.5t-10 -23.5t-26 -9.5h-98v-204h117q83 0 146.5 32.5z" />
    <glyph glyph-name="Dcaron" unicode="&#x10e;" horiz-adv-x="694" 
d="M475.5 619.5q81.5 -40.5 126 -115t44.5 -173.5q0 -98 -45 -173t-126.5 -116.5t-187.5 -41.5h-155q-18 0 -29.5 12t-11.5 29v578q0 17 11.5 29t29.5 12h155q107 0 188.5 -40.5zM169 590v-520h117q83 0 146.5 32.5t98 91.5t34.5 137t-34.5 136.5t-97.5 90.5t-147 32h-117z
M432.5 897.5q8.5 -8.5 8.5 -21.5q0 -11 -11 -22l-122 -124q-10 -10 -23 -10q-12 0 -22 10l-123 124q-11 11 -11 22q0 13 8.5 21.5t21.5 8.5q10 0 22 -10l104 -99l104 99q12 10 23 10q12 0 20.5 -8.5z" />
    <glyph glyph-name="Dcroat" unicode="&#x110;" horiz-adv-x="694" 
d="M475.5 619.5q81.5 -40.5 126 -115t44.5 -173.5q0 -98 -45 -173t-126.5 -116.5t-187.5 -41.5h-155q-18 0 -29.5 12t-11.5 29v233h-63q-15 0 -25.5 9.5t-10.5 23.5t10.5 23.5t25.5 9.5h63v279q0 17 11.5 29t29.5 12h155q107 0 188.5 -40.5zM432.5 102.5q63.5 32.5 98 91.5
t34.5 137t-34.5 136.5t-97.5 90.5t-147 32h-117v-250h98q16 0 26 -9.5t10 -23.5t-10 -23.5t-26 -9.5h-98v-204h117q83 0 146.5 32.5z" />
    <glyph glyph-name="E" unicode="E" horiz-adv-x="566" 
d="M101 10.5q-10 10.5 -10 25.5v588q0 15 10 25.5t26 10.5h355q15 0 25.5 -10.5t10.5 -24.5q0 -15 -10.5 -25t-25.5 -10h-313v-202h233q15 0 25.5 -10t10.5 -25q0 -14 -10.5 -24.5t-25.5 -10.5h-233v-248h325q15 0 25.5 -10t10.5 -25q0 -14 -10.5 -24.5t-25.5 -10.5h-367
q-16 0 -26 10.5z" />
    <glyph glyph-name="Eacute" unicode="&#xc9;" horiz-adv-x="566" 
d="M101 10.5q-10 10.5 -10 25.5v588q0 15 10 25.5t26 10.5h355q15 0 25.5 -10.5t10.5 -24.5q0 -15 -10.5 -25t-25.5 -10h-313v-202h233q15 0 25.5 -10t10.5 -25q0 -14 -10.5 -24.5t-25.5 -10.5h-233v-248h325q15 0 25.5 -10t10.5 -25q0 -14 -10.5 -24.5t-25.5 -10.5h-367
q-16 0 -26 10.5zM293.5 738q-8.5 10 -8.5 23q0 6 4 16l65 125q5 10 14 15.5t20 5.5q17 0 28.5 -11.5t11.5 -27.5q0 -13 -7 -24l-71 -113q-12 -21 -34 -20q-14 1 -22.5 11z" />
    <glyph glyph-name="Ebreve" unicode="&#x114;" horiz-adv-x="566" 
d="M101 10.5q-10 10.5 -10 25.5v588q0 15 10 25.5t26 10.5h355q15 0 25.5 -10.5t10.5 -24.5q0 -15 -10.5 -25t-25.5 -10h-313v-202h233q15 0 25.5 -10t10.5 -25q0 -14 -10.5 -24.5t-25.5 -10.5h-233v-248h325q15 0 25.5 -10t10.5 -25q0 -14 -10.5 -24.5t-25.5 -10.5h-367
q-16 0 -26 10.5zM229.5 750q-34.5 18 -55.5 47.5t-21 63.5q0 14 9.5 24t22.5 10q25 0 32 -32q7 -33 30.5 -52t55.5 -19q34 0 57 19.5t30 51.5q6 32 31 32q14 0 23.5 -10t9.5 -24q0 -34 -21 -63.5t-55.5 -47.5t-74.5 -18q-39 0 -73.5 18z" />
    <glyph glyph-name="Ecaron" unicode="&#x11a;" horiz-adv-x="566" 
d="M101 10.5q-10 10.5 -10 25.5v588q0 15 10 25.5t26 10.5h355q15 0 25.5 -10.5t10.5 -24.5q0 -15 -10.5 -25t-25.5 -10h-313v-202h233q15 0 25.5 -10t10.5 -25q0 -14 -10.5 -24.5t-25.5 -10.5h-233v-248h325q15 0 25.5 -10t10.5 -25q0 -14 -10.5 -24.5t-25.5 -10.5h-367
q-16 0 -26 10.5zM450.5 897.5q8.5 -8.5 8.5 -21.5q0 -11 -11 -22l-122 -124q-10 -10 -23 -10q-12 0 -22 10l-123 124q-11 11 -11 22q0 13 8.5 21.5t21.5 8.5q10 0 22 -10l104 -99l104 99q12 10 23 10q12 0 20.5 -8.5z" />
    <glyph glyph-name="Ecircumflex" unicode="&#xca;" horiz-adv-x="566" 
d="M101 10.5q-10 10.5 -10 25.5v588q0 15 10 25.5t26 10.5h355q15 0 25.5 -10.5t10.5 -24.5q0 -15 -10.5 -25t-25.5 -10h-313v-202h233q15 0 25.5 -10t10.5 -25q0 -14 -10.5 -24.5t-25.5 -10.5h-233v-248h325q15 0 25.5 -10t10.5 -25q0 -14 -10.5 -24.5t-25.5 -10.5h-367
q-16 0 -26 10.5zM458 750q0 -13 -8.5 -21.5t-20.5 -8.5q-11 0 -23 10l-104 99l-104 -99q-12 -10 -22 -10q-13 0 -21.5 8.5t-8.5 21.5q0 11 11 22l123 124q10 10 22 10q13 0 23 -10l122 -124q11 -11 11 -22z" />
    <glyph glyph-name="Edieresis" unicode="&#xcb;" horiz-adv-x="566" 
d="M101 10.5q-10 10.5 -10 25.5v588q0 15 10 25.5t26 10.5h355q15 0 25.5 -10.5t10.5 -24.5q0 -15 -10.5 -25t-25.5 -10h-313v-202h233q15 0 25.5 -10t10.5 -25q0 -14 -10.5 -24.5t-25.5 -10.5h-233v-248h325q15 0 25.5 -10t10.5 -25q0 -14 -10.5 -24.5t-25.5 -10.5h-367
q-16 0 -26 10.5zM147.5 772.5q-16.5 15.5 -16.5 37.5t16.5 37.5t38.5 15.5q23 0 39 -15.5t16 -37.5t-16 -37.5t-39 -15.5q-22 0 -38.5 15.5zM380.5 771.5q-16.5 15.5 -16.5 37.5t16.5 38t38.5 16q23 0 39 -16t16 -38t-16 -37.5t-39 -15.5q-22 0 -38.5 15.5z" />
    <glyph glyph-name="Edotaccent" unicode="&#x116;" horiz-adv-x="566" 
d="M101 10.5q-10 10.5 -10 25.5v588q0 15 10 25.5t26 10.5h355q15 0 25.5 -10.5t10.5 -24.5q0 -15 -10.5 -25t-25.5 -10h-313v-202h233q15 0 25.5 -10t10.5 -25q0 -14 -10.5 -24.5t-25.5 -10.5h-233v-248h325q15 0 25.5 -10t10.5 -25q0 -14 -10.5 -24.5t-25.5 -10.5h-367
q-16 0 -26 10.5zM342.5 848.5q16.5 -16.5 16.5 -38.5q0 -23 -16.5 -39t-39.5 -16t-40 16t-17 39q0 22 17 38.5t40 16.5t39.5 -16.5z" />
    <glyph glyph-name="Egrave" unicode="&#xc8;" horiz-adv-x="566" 
d="M101 10.5q-10 10.5 -10 25.5v588q0 15 10 25.5t26 10.5h355q15 0 25.5 -10.5t10.5 -24.5q0 -15 -10.5 -25t-25.5 -10h-313v-202h233q15 0 25.5 -10t10.5 -25q0 -14 -10.5 -24.5t-25.5 -10.5h-233v-248h325q15 0 25.5 -10t10.5 -25q0 -14 -10.5 -24.5t-25.5 -10.5h-367
q-16 0 -26 10.5zM256 747l-71 113q-7 11 -7 24q0 17 11.5 28t28.5 11q11 0 20 -5.5t14 -15.5l65 -125q4 -10 4 -16q0 -13 -8.5 -23t-22.5 -11q-22 -1 -34 20z" />
    <glyph glyph-name="Emacron" unicode="&#x112;" horiz-adv-x="566" 
d="M101 10.5q-10 10.5 -10 25.5v588q0 15 10 25.5t26 10.5h355q15 0 25.5 -10.5t10.5 -24.5q0 -15 -10.5 -25t-25.5 -10h-313v-202h233q15 0 25.5 -10t10.5 -25q0 -14 -10.5 -24.5t-25.5 -10.5h-233v-248h325q15 0 25.5 -10t10.5 -25q0 -14 -10.5 -24.5t-25.5 -10.5h-367
q-16 0 -26 10.5zM444.5 824q9.5 -9 9.5 -22q0 -14 -9.5 -23t-23.5 -9h-237q-14 0 -23.5 9.5t-9.5 22.5t9.5 22t23.5 9h237q14 0 23.5 -9z" />
    <glyph glyph-name="Eogonek" unicode="&#x118;" horiz-adv-x="566" 
d="M520.5 -134q7.5 -8 7.5 -20q0 -23 -24 -30q-23 -7 -54 -7q-48 0 -77.5 24t-29.5 63q0 55 67 104h-283q-16 0 -26 10.5t-10 25.5v588q0 15 10 25.5t26 10.5h355q15 0 25.5 -10.5t10.5 -24.5q0 -15 -10.5 -25t-25.5 -10h-313v-202h233q15 0 25.5 -10t10.5 -25
q0 -14 -10.5 -24.5t-25.5 -10.5h-233v-248h325q15 0 25.5 -10t10.5 -25q0 -10 -5 -18.5t-14 -12.5l-43 -31q-31 -23 -41.5 -36.5t-10.5 -28.5q0 -16 14 -26t37 -10q11 0 20 1t15 1q11 0 18.5 -8z" />
    <glyph glyph-name="F" unicode="F" horiz-adv-x="524" 
d="M102 1q-11 12 -11 29v589q0 17 11.5 29t29.5 12h340q15 0 25.5 -10.5t10.5 -24.5q0 -15 -10.5 -25t-25.5 -10h-303v-227h246q15 0 25.5 -10.5t10.5 -24.5q0 -15 -10.5 -25.5t-25.5 -10.5h-246v-262q0 -17 -11.5 -29t-27.5 -12q-17 0 -28 12z" />
    <glyph glyph-name="G" unicode="G" horiz-adv-x="746" 
d="M217.5 34q-78.5 45 -124 123t-45.5 173t45.5 173t124 123t173.5 45q77 0 148 -33t112 -89q12 -16 12 -29q0 -14 -11 -24.5t-26 -10.5q-10 0 -18.5 4t-17.5 15q-45 50 -92 72.5t-107 22.5q-74 0 -134 -35t-94 -96t-34 -137q0 -77 34.5 -139t95.5 -97.5t136 -35.5
q69 0 127 29.5t93 82.5v95h-188q-17 0 -29 10.5t-12 24.5q0 15 12 25t29 10h225q17 0 29 -11.5t12 -29.5v-107q0 -29 -16 -54q-46 -67 -122.5 -106t-163.5 -39q-95 0 -173.5 45z" />
    <glyph glyph-name="Gbreve" unicode="&#x11e;" horiz-adv-x="746" 
d="M217.5 34q-78.5 45 -124 123t-45.5 173t45.5 173t124 123t173.5 45q77 0 148 -33t112 -89q12 -16 12 -29q0 -14 -11 -24.5t-26 -10.5q-10 0 -18.5 4t-17.5 15q-45 50 -92 72.5t-107 22.5q-74 0 -134 -35t-94 -96t-34 -137q0 -77 34.5 -139t95.5 -97.5t136 -35.5
q69 0 127 29.5t93 82.5v95h-188q-17 0 -29 10.5t-12 24.5q0 15 12 25t29 10h225q17 0 29 -11.5t12 -29.5v-107q0 -29 -16 -54q-46 -67 -122.5 -106t-163.5 -39q-95 0 -173.5 45zM319.5 750q-34.5 18 -55.5 47.5t-21 63.5q0 14 9.5 24t22.5 10q25 0 32 -32q7 -33 30.5 -52
t55.5 -19q34 0 57 19.5t30 51.5q6 32 31 32q14 0 23.5 -10t9.5 -24q0 -34 -21 -63.5t-55.5 -47.5t-74.5 -18q-39 0 -73.5 18z" />
    <glyph glyph-name="Gcircumflex" unicode="&#x11c;" horiz-adv-x="746" 
d="M217.5 34q-78.5 45 -124 123t-45.5 173t45.5 173t124 123t173.5 45q77 0 148 -33t112 -89q12 -16 12 -29q0 -14 -11 -24.5t-26 -10.5q-10 0 -18.5 4t-17.5 15q-45 50 -92 72.5t-107 22.5q-74 0 -134 -35t-94 -96t-34 -137q0 -77 34.5 -139t95.5 -97.5t136 -35.5
q69 0 127 29.5t93 82.5v95h-188q-17 0 -29 10.5t-12 24.5q0 15 12 25t29 10h225q17 0 29 -11.5t12 -29.5v-107q0 -29 -16 -54q-46 -67 -122.5 -106t-163.5 -39q-95 0 -173.5 45zM548 750q0 -13 -8.5 -21.5t-20.5 -8.5q-11 0 -23 10l-104 99l-104 -99q-12 -10 -22 -10
q-13 0 -21.5 8.5t-8.5 21.5q0 11 11 22l123 124q10 10 22 10q13 0 23 -10l122 -124q11 -11 11 -22z" />
    <glyph glyph-name="Gcommaaccent" unicode="&#x122;" horiz-adv-x="746" 
d="M217.5 34q-78.5 45 -124 123t-45.5 173t45.5 173t124 123t173.5 45q77 0 148 -33t112 -89q12 -16 12 -29q0 -14 -11 -24.5t-26 -10.5q-10 0 -18.5 4t-17.5 15q-45 50 -92 72.5t-107 22.5q-74 0 -134 -35t-94 -96t-34 -137q0 -77 34.5 -139t95.5 -97.5t136 -35.5
q69 0 127 29.5t93 82.5v95h-188q-17 0 -29 10.5t-12 24.5q0 15 12 25t29 10h225q17 0 29 -11.5t12 -29.5v-107q0 -29 -16 -54q-46 -67 -122.5 -106t-163.5 -39q-95 0 -173.5 45zM349.5 -211q-10.5 10 -10.5 22q0 5 4 21q9 36 9 82q0 16 11.5 27.5t27.5 11.5t27.5 -11.5
t11.5 -27.5q0 -51 -20 -101q-6 -17 -16 -25.5t-21 -8.5q-13 0 -23.5 10z" />
    <glyph glyph-name="Gdotaccent" unicode="&#x120;" horiz-adv-x="746" 
d="M217.5 34q-78.5 45 -124 123t-45.5 173t45.5 173t124 123t173.5 45q77 0 148 -33t112 -89q12 -16 12 -29q0 -14 -11 -24.5t-26 -10.5q-10 0 -18.5 4t-17.5 15q-45 50 -92 72.5t-107 22.5q-74 0 -134 -35t-94 -96t-34 -137q0 -77 34.5 -139t95.5 -97.5t136 -35.5
q69 0 127 29.5t93 82.5v95h-188q-17 0 -29 10.5t-12 24.5q0 15 12 25t29 10h225q17 0 29 -11.5t12 -29.5v-107q0 -29 -16 -54q-46 -67 -122.5 -106t-163.5 -39q-95 0 -173.5 45zM432.5 848.5q16.5 -16.5 16.5 -38.5q0 -23 -16.5 -39t-39.5 -16t-40 16t-17 39q0 22 17 38.5
t40 16.5t39.5 -16.5z" />
    <glyph glyph-name="H" unicode="H" horiz-adv-x="708" 
d="M102 0.5q-11 11.5 -11 28.5v602q0 17 11 28.5t28 11.5q16 0 27.5 -11.5t11.5 -28.5v-243h370v243q0 17 11.5 28.5t27.5 11.5q17 0 28 -11.5t11 -28.5v-602q0 -17 -11 -28.5t-28 -11.5q-16 0 -27.5 11.5t-11.5 28.5v289h-370v-289q0 -17 -11.5 -28.5t-27.5 -11.5
q-17 0 -28 11.5z" />
    <glyph glyph-name="Hbar" unicode="&#x126;" horiz-adv-x="719" 
d="M106.5 1q-11.5 12 -11.5 29v430h-69q-14 0 -24 9.5t-10 23.5t10 23.5t24 9.5h69v104q0 17 11.5 29t27.5 12q17 0 28 -12t11 -29v-104h371v104q0 17 11.5 29t27.5 12q17 0 28 -12t11 -29v-104h69q15 0 24.5 -9.5t9.5 -23.5t-9.5 -23.5t-24.5 -9.5h-69v-430q0 -17 -11 -29
t-28 -12q-16 0 -27.5 12t-11.5 29v223h-371v-223q0 -17 -11 -29t-28 -12q-16 0 -27.5 12zM544 324v136h-371v-136h371z" />
    <glyph glyph-name="Hcircumflex" unicode="&#x124;" horiz-adv-x="708" 
d="M102 0.5q-11 11.5 -11 28.5v602q0 17 11 28.5t28 11.5q16 0 27.5 -11.5t11.5 -28.5v-243h370v243q0 17 11.5 28.5t27.5 11.5q17 0 28 -11.5t11 -28.5v-602q0 -17 -11 -28.5t-28 -11.5q-16 0 -27.5 11.5t-11.5 28.5v289h-370v-289q0 -17 -11.5 -28.5t-27.5 -11.5
q-17 0 -28 11.5zM509 750q0 -13 -8.5 -21.5t-20.5 -8.5q-11 0 -23 10l-104 99l-104 -99q-12 -10 -22 -10q-13 0 -21.5 8.5t-8.5 21.5q0 11 11 22l123 124q10 10 22 10q13 0 23 -10l122 -124q11 -11 11 -22z" />
    <glyph glyph-name="I" unicode="I" horiz-adv-x="259" 
d="M102 1q-11 12 -11 29v600q0 17 11 29t28 12q16 0 27.5 -12t11.5 -29v-600q0 -17 -11.5 -29t-27.5 -12q-17 0 -28 12z" />
    <glyph glyph-name="IJ" unicode="&#x132;" horiz-adv-x="632" 
d="M102 1q-11 12 -11 29v600q0 17 11 29t28 12q16 0 27.5 -12t11.5 -29v-600q0 -17 -11.5 -29t-27.5 -12q-17 0 -28 12zM305 -4q-13 4 -21 14t-8 23q0 16 11 26.5t28 10.5q14 0 29 -3q5 0 15.5 -1.5t21.5 -1.5q40 0 61.5 25t21.5 71v470q0 17 11 29t28 12t28 -12t11 -29
v-477q0 -79 -44.5 -121.5t-127.5 -42.5q-40 0 -65 7z" />
    <glyph glyph-name="Iacute" unicode="&#xcd;" horiz-adv-x="259" 
d="M102 1q-11 12 -11 29v600q0 17 11 29t28 12q16 0 27.5 -12t11.5 -29v-600q0 -17 -11.5 -29t-27.5 -12q-17 0 -28 12zM121.5 738q-8.5 10 -8.5 23q0 6 4 16l65 125q5 10 14 15.5t20 5.5q17 0 28.5 -11.5t11.5 -27.5q0 -13 -7 -24l-71 -113q-12 -21 -34 -20q-14 1 -22.5 11
z" />
    <glyph glyph-name="Ibreve" unicode="&#x12c;" horiz-adv-x="259" 
d="M102 1q-11 12 -11 29v600q0 17 11 29t28 12q16 0 27.5 -12t11.5 -29v-600q0 -17 -11.5 -29t-27.5 -12q-17 0 -28 12zM57.5 750q-34.5 18 -55.5 47.5t-21 63.5q0 14 9.5 24t22.5 10q25 0 32 -32q7 -33 30.5 -52t55.5 -19q34 0 57 19.5t30 51.5q6 32 31 32q14 0 23.5 -10
t9.5 -24q0 -34 -21 -63.5t-55.5 -47.5t-74.5 -18q-39 0 -73.5 18z" />
    <glyph glyph-name="Icircumflex" unicode="&#xce;" horiz-adv-x="259" 
d="M102 1q-11 12 -11 29v600q0 17 11 29t28 12q16 0 27.5 -12t11.5 -29v-600q0 -17 -11.5 -29t-27.5 -12q-17 0 -28 12zM286 750q0 -13 -8.5 -21.5t-20.5 -8.5q-11 0 -23 10l-104 99l-104 -99q-12 -10 -22 -10q-13 0 -21.5 8.5t-8.5 21.5q0 11 11 22l123 124q10 10 22 10
q13 0 23 -10l122 -124q11 -11 11 -22z" />
    <glyph glyph-name="Idieresis" unicode="&#xcf;" horiz-adv-x="259" 
d="M102 1q-11 12 -11 29v600q0 17 11 29t28 12q16 0 27.5 -12t11.5 -29v-600q0 -17 -11.5 -29t-27.5 -12q-17 0 -28 12zM-24.5 772.5q-16.5 15.5 -16.5 37.5t16.5 37.5t38.5 15.5q23 0 39 -15.5t16 -37.5t-16 -37.5t-39 -15.5q-22 0 -38.5 15.5zM208.5 771.5
q-16.5 15.5 -16.5 37.5t16.5 38t38.5 16q23 0 39 -16t16 -38t-16 -37.5t-39 -15.5q-22 0 -38.5 15.5z" />
    <glyph glyph-name="Idotaccent" unicode="&#x130;" horiz-adv-x="259" 
d="M102 1q-11 12 -11 29v600q0 17 11 29t28 12q16 0 27.5 -12t11.5 -29v-600q0 -17 -11.5 -29t-27.5 -12q-17 0 -28 12zM170.5 848.5q16.5 -16.5 16.5 -38.5q0 -23 -16.5 -39t-39.5 -16t-40 16t-17 39q0 22 17 38.5t40 16.5t39.5 -16.5z" />
    <glyph glyph-name="Igrave" unicode="&#xcc;" horiz-adv-x="259" 
d="M102 1q-11 12 -11 29v600q0 17 11 29t28 12q16 0 27.5 -12t11.5 -29v-600q0 -17 -11.5 -29t-27.5 -12q-17 0 -28 12zM84 747l-71 113q-7 11 -7 24q0 17 11.5 28t28.5 11q11 0 20 -5.5t14 -15.5l65 -125q4 -10 4 -16q0 -13 -8.5 -23t-22.5 -11q-22 -1 -34 20z" />
    <glyph glyph-name="Imacron" unicode="&#x12a;" horiz-adv-x="259" 
d="M102 1q-11 12 -11 29v600q0 17 11 29t28 12q16 0 27.5 -12t11.5 -29v-600q0 -17 -11.5 -29t-27.5 -12q-17 0 -28 12zM272.5 824q9.5 -9 9.5 -22q0 -14 -9.5 -23t-23.5 -9h-237q-14 0 -23.5 9.5t-9.5 22.5t9.5 22t23.5 9h237q14 0 23.5 -9z" />
    <glyph glyph-name="Iogonek" unicode="&#x12e;" horiz-adv-x="259" 
d="M102 1q-11 12 -11 29v600q0 17 11 29t28 12q16 0 27.5 -12t11.5 -29v-600q0 -17 -11.5 -29t-27.5 -12q-17 0 -28 12zM28 -165.5q-29 25.5 -29 68.5q0 34 19 57.5t60 55.5q43 34 66 34q11 0 18 -7t7 -16q0 -22 -26 -38q-71 -44 -71 -80q0 -16 13.5 -26.5t38.5 -10.5
q11 0 19.5 1t14.5 1q12 0 19.5 -8t7.5 -21q0 -21 -25 -29q-23 -7 -55 -7q-48 0 -77 25.5z" />
    <glyph glyph-name="Itilde" unicode="&#x128;" horiz-adv-x="259" 
d="M102 1q-11 12 -11 29v600q0 17 11 29t28 12q16 0 27.5 -12t11.5 -29v-600q0 -17 -11.5 -29t-27.5 -12q-17 0 -28 12zM-24 751.5q-10 10.5 -10 25.5q0 44 25 72.5t62 28.5q35 0 70 -23l34 -22q16 -11 24.5 -15.5t18.5 -4.5q27 0 29 31q1 15 10 24.5t22 9.5q15 0 25 -10.5
t10 -25.5q0 -43 -25 -72t-62 -29q-35 0 -70 23l-34 22q-6 3 -14.5 9t-15 8.5t-13.5 2.5q-28 0 -30 -31q-1 -15 -9.5 -24.5t-22.5 -9.5t-24 10.5z" />
    <glyph glyph-name="J" unicode="J" horiz-adv-x="373" 
d="M46 -4q-13 4 -21 14t-8 23q0 16 11 26.5t28 10.5q14 0 29 -3q5 0 15.5 -1.5t21.5 -1.5q40 0 61.5 25t21.5 71v470q0 17 11 29t28 12t28 -12t11 -29v-477q0 -79 -44.5 -121.5t-127.5 -42.5q-40 0 -65 7z" />
    <glyph glyph-name="Jcircumflex" unicode="&#x134;" horiz-adv-x="373" 
d="M46 -4q-13 4 -21 14t-8 23q0 16 11 26.5t28 10.5q14 0 29 -3q5 0 15.5 -1.5t21.5 -1.5q40 0 61.5 25t21.5 71v470q0 17 11 29t28 12t28 -12t11 -29v-477q0 -79 -44.5 -121.5t-127.5 -42.5q-40 0 -65 7zM390 750q0 -13 -8.5 -21.5t-20.5 -8.5q-11 0 -23 10l-104 99
l-104 -99q-12 -10 -22 -10q-13 0 -21.5 8.5t-8.5 21.5q0 11 11 22l123 124q10 10 22 10q13 0 23 -10l122 -124q11 -11 11 -22z" />
    <glyph glyph-name="K" unicode="K" horiz-adv-x="633" 
d="M157.5 659q11.5 -12 11.5 -29v-600q0 -17 -11.5 -29t-27.5 -12q-17 0 -28 12t-11 29v600q0 17 11 29t28 12q16 0 27.5 -12zM585 24q0 -14 -10.5 -24.5t-25.5 -10.5t-31 16l-315 322q-12 14 -12 27t13 28l286 273q17 16 30 16q15 0 25.5 -10.5t10.5 -24.5q0 -15 -17 -31
l-262 -251l293 -301q15 -12 15 -29z" />
    <glyph glyph-name="Kcommaaccent" unicode="&#x136;" horiz-adv-x="633" 
d="M157.5 659q11.5 -12 11.5 -29v-600q0 -17 -11.5 -29t-27.5 -12q-17 0 -28 12t-11 29v600q0 17 11 29t28 12q16 0 27.5 -12zM585 24q0 -14 -10.5 -24.5t-25.5 -10.5t-31 16l-315 322q-12 14 -12 27t13 28l286 273q17 16 30 16q15 0 25.5 -10.5t10.5 -24.5q0 -15 -17 -31
l-262 -251l293 -301q15 -12 15 -29zM260.5 -211q-10.5 10 -10.5 22q0 5 4 21q9 36 9 82q0 16 11.5 27.5t27.5 11.5t27.5 -11.5t11.5 -27.5q0 -51 -20 -101q-6 -17 -16 -25.5t-21 -8.5q-13 0 -23.5 10z" />
    <glyph glyph-name="L" unicode="L" horiz-adv-x="506" 
d="M102.5 12q-11.5 12 -11.5 29v589q0 17 11 29t28 12q16 0 27.5 -12t11.5 -29v-560h281q16 0 26 -10t10 -25q0 -14 -10 -24.5t-26 -10.5h-318q-18 0 -29.5 12z" />
    <glyph glyph-name="Lacute" unicode="&#x139;" horiz-adv-x="506" 
d="M102.5 12q-11.5 12 -11.5 29v589q0 17 11 29t28 12q16 0 27.5 -12t11.5 -29v-560h281q16 0 26 -10t10 -25q0 -14 -10 -24.5t-26 -10.5h-318q-18 0 -29.5 12zM120.5 738q-8.5 10 -8.5 23q0 6 4 16l65 125q5 10 14 15.5t20 5.5q17 0 28.5 -11.5t11.5 -27.5q0 -13 -7 -24
l-71 -113q-12 -21 -34 -20q-14 1 -22.5 11z" />
    <glyph glyph-name="Lcaron" unicode="&#x13d;" horiz-adv-x="506" 
d="M102.5 12q-11.5 12 -11.5 29v589q0 17 11 29t28 12q16 0 27.5 -12t11.5 -29v-560h281q16 0 26 -10t10 -25q0 -14 -10 -24.5t-26 -10.5h-318q-18 0 -29.5 12zM370.5 515.5q-10.5 12.5 -7.5 31.5l21 146q2 17 13.5 27.5t27.5 10.5t28 -10.5t12 -28.5q0 -3 -2 -13l-32 -147
q-2 -10 -10.5 -19.5t-23.5 -9.5q-16 0 -26.5 12.5z" />
    <glyph glyph-name="Lcommaaccent" unicode="&#x13b;" horiz-adv-x="506" 
d="M102.5 12q-11.5 12 -11.5 29v589q0 17 11 29t28 12q16 0 27.5 -12t11.5 -29v-560h281q16 0 26 -10t10 -25q0 -14 -10 -24.5t-26 -10.5h-318q-18 0 -29.5 12zM235.5 -211q-10.5 10 -10.5 22q0 5 4 21q9 36 9 82q0 16 11.5 27.5t27.5 11.5t27.5 -11.5t11.5 -27.5
q0 -51 -20 -101q-6 -17 -16 -25.5t-21 -8.5q-13 0 -23.5 10z" />
    <glyph glyph-name="Ldot" unicode="&#x13f;" horiz-adv-x="506" 
d="M102.5 12q-11.5 12 -11.5 29v589q0 17 11 29t28 12q16 0 27.5 -12t11.5 -29v-560h281q16 0 26 -10t10 -25q0 -14 -10 -24.5t-26 -10.5h-318q-18 0 -29.5 12zM338.5 323.5q-18.5 18.5 -18.5 44.5t18.5 44.5t44.5 18.5t44.5 -18.5t18.5 -44.5t-18.5 -44.5t-44.5 -18.5
t-44.5 18.5z" />
    <glyph glyph-name="Lslash" unicode="&#x141;" horiz-adv-x="506" 
d="M476 60q10 -10 10 -25q0 -14 -10 -24.5t-26 -10.5h-318q-18 0 -29.5 12t-11.5 29v213l-29 -13q-12 -5 -20 -5q-15 0 -24.5 8.5t-9.5 22.5q0 24 25 35l58 26v302q0 17 11 29t28 12q16 0 27.5 -12t11.5 -29v-274l171 78q12 5 20 5q14 0 23.5 -8.5t9.5 -22.5q0 -25 -24 -34
l-200 -91v-213h281q16 0 26 -10z" />
    <glyph glyph-name="M" unicode="M" horiz-adv-x="788" 
d="M687 659.5q10 -11.5 10 -28.5v-602q0 -17 -11 -28.5t-28 -11.5q-16 0 -27.5 11.5t-11.5 28.5v474l-183 -286q-18 -28 -42 -28q-13 0 -23 6.5t-19 21.5l-183 286v-474q0 -17 -11.5 -28.5t-27.5 -11.5q-17 0 -28 11.5t-11 28.5v602q0 17 10 28.5t26 11.5q14 0 23.5 -7.5
t21.5 -26.5l222 -345l221 345q13 19 22.5 26.5t23.5 7.5q16 0 26 -11.5z" />
    <glyph glyph-name="N" unicode="N" horiz-adv-x="708" 
d="M606 659q11 -12 11 -29v-603q0 -15 -11 -26.5t-27 -11.5q-19 0 -34 20l-376 504v-483q0 -17 -11.5 -29t-27.5 -12q-17 0 -28 12t-11 29v603q0 15 11.5 26.5t27.5 11.5q10 0 18.5 -6t18.5 -20l373 -498l-1 483q0 17 11.5 29t27.5 12q17 0 28 -12z" />
    <glyph glyph-name="Nacute" unicode="&#x143;" horiz-adv-x="708" 
d="M606 659q11 -12 11 -29v-603q0 -15 -11 -26.5t-27 -11.5q-19 0 -34 20l-376 504v-483q0 -17 -11.5 -29t-27.5 -12q-17 0 -28 12t-11 29v603q0 15 11.5 26.5t27.5 11.5q10 0 18.5 -6t18.5 -20l373 -498l-1 483q0 17 11.5 29t27.5 12q17 0 28 -12zM344.5 738
q-8.5 10 -8.5 23q0 6 4 16l65 125q5 10 14 15.5t20 5.5q17 0 28.5 -11.5t11.5 -27.5q0 -13 -7 -24l-71 -113q-12 -21 -34 -20q-14 1 -22.5 11z" />
    <glyph glyph-name="Ncaron" unicode="&#x147;" horiz-adv-x="708" 
d="M606 659q11 -12 11 -29v-603q0 -15 -11 -26.5t-27 -11.5q-19 0 -34 20l-376 504v-483q0 -17 -11.5 -29t-27.5 -12q-17 0 -28 12t-11 29v603q0 15 11.5 26.5t27.5 11.5q10 0 18.5 -6t18.5 -20l373 -498l-1 483q0 17 11.5 29t27.5 12q17 0 28 -12zM501.5 897.5
q8.5 -8.5 8.5 -21.5q0 -11 -11 -22l-122 -124q-10 -10 -23 -10q-12 0 -22 10l-123 124q-11 11 -11 22q0 13 8.5 21.5t21.5 8.5q10 0 22 -10l104 -99l104 99q12 10 23 10q12 0 20.5 -8.5z" />
    <glyph glyph-name="Ncommaaccent" unicode="&#x145;" horiz-adv-x="708" 
d="M606 659q11 -12 11 -29v-603q0 -15 -11 -26.5t-27 -11.5q-19 0 -34 20l-376 504v-483q0 -17 -11.5 -29t-27.5 -12q-17 0 -28 12t-11 29v603q0 15 11.5 26.5t27.5 11.5q10 0 18.5 -6t18.5 -20l373 -498l-1 483q0 17 11.5 29t27.5 12q17 0 28 -12zM310.5 -211
q-10.5 10 -10.5 22q0 5 4 21q9 36 9 82q0 16 11.5 27.5t27.5 11.5t27.5 -11.5t11.5 -27.5q0 -51 -20 -101q-6 -17 -16 -25.5t-21 -8.5q-13 0 -23.5 10z" />
    <glyph glyph-name="Eng" unicode="&#x14a;" horiz-adv-x="708" 
d="M606 659q11 -12 11 -29v-663q0 -76 -41 -117t-119 -41q-31 0 -44 4q-12 4 -19.5 13t-7.5 20q0 15 10.5 25t24.5 10h20q51 0 74.5 21.5t23.5 69.5v45l-370 496v-483q0 -17 -11.5 -29t-27.5 -12q-17 0 -28 12t-11 29v603q0 15 11.5 26.5t27.5 11.5q10 0 18.5 -6t18.5 -20
l373 -498l-1 483q0 17 11.5 29t27.5 12q17 0 28 -12z" />
    <glyph glyph-name="Ntilde" unicode="&#xd1;" horiz-adv-x="708" 
d="M606 659q11 -12 11 -29v-603q0 -15 -11 -26.5t-27 -11.5q-19 0 -34 20l-376 504v-483q0 -17 -11.5 -29t-27.5 -12q-17 0 -28 12t-11 29v603q0 15 11.5 26.5t27.5 11.5q10 0 18.5 -6t18.5 -20l373 -498l-1 483q0 17 11.5 29t27.5 12q17 0 28 -12zM199 751.5
q-10 10.5 -10 25.5q0 44 25 72.5t62 28.5q35 0 70 -23l34 -22q16 -11 24.5 -15.5t18.5 -4.5q27 0 29 31q1 15 10 24.5t22 9.5q15 0 25 -10.5t10 -25.5q0 -43 -25 -72t-62 -29q-35 0 -70 23l-34 22q-6 3 -14.5 9t-15 8.5t-13.5 2.5q-28 0 -30 -31q-1 -15 -9.5 -24.5
t-22.5 -9.5t-24 10.5z" />
    <glyph glyph-name="O" unicode="O" horiz-adv-x="781" 
d="M563 625.5q79 -45.5 124.5 -123.5t45.5 -172t-45.5 -172t-124.5 -123.5t-173 -45.5q-95 0 -173 45.5t-123.5 123.5t-45.5 172t45.5 172t123.5 123.5t173 45.5q94 0 173 -45.5zM257 564q-60 -35 -94 -96t-34 -137t34 -138t94 -97t134 -35q73 0 133 35.5t94 97t34 137.5
q0 75 -34 136.5t-94 96.5t-133 35q-74 0 -134 -35z" />
    <glyph glyph-name="Oacute" unicode="&#xd3;" horiz-adv-x="781" 
d="M563 625.5q79 -45.5 124.5 -123.5t45.5 -172t-45.5 -172t-124.5 -123.5t-173 -45.5q-95 0 -173 45.5t-123.5 123.5t-45.5 172t45.5 172t123.5 123.5t173 45.5q94 0 173 -45.5zM257 564q-60 -35 -94 -96t-34 -137t34 -138t94 -97t134 -35q73 0 133 35.5t94 97t34 137.5
q0 75 -34 136.5t-94 96.5t-133 35q-74 0 -134 -35zM381.5 738q-8.5 10 -8.5 23q0 6 4 16l65 125q5 10 14 15.5t20 5.5q17 0 28.5 -11.5t11.5 -27.5q0 -13 -7 -24l-71 -113q-12 -21 -34 -20q-14 1 -22.5 11z" />
    <glyph glyph-name="Obreve" unicode="&#x14e;" horiz-adv-x="781" 
d="M563 625.5q79 -45.5 124.5 -123.5t45.5 -172t-45.5 -172t-124.5 -123.5t-173 -45.5q-95 0 -173 45.5t-123.5 123.5t-45.5 172t45.5 172t123.5 123.5t173 45.5q94 0 173 -45.5zM257 564q-60 -35 -94 -96t-34 -137t34 -138t94 -97t134 -35q73 0 133 35.5t94 97t34 137.5
q0 75 -34 136.5t-94 96.5t-133 35q-74 0 -134 -35zM317.5 750q-34.5 18 -55.5 47.5t-21 63.5q0 14 9.5 24t22.5 10q25 0 32 -32q7 -33 30.5 -52t55.5 -19q34 0 57 19.5t30 51.5q6 32 31 32q14 0 23.5 -10t9.5 -24q0 -34 -21 -63.5t-55.5 -47.5t-74.5 -18q-39 0 -73.5 18z
" />
    <glyph glyph-name="Ocircumflex" unicode="&#xd4;" horiz-adv-x="781" 
d="M563 625.5q79 -45.5 124.5 -123.5t45.5 -172t-45.5 -172t-124.5 -123.5t-173 -45.5q-95 0 -173 45.5t-123.5 123.5t-45.5 172t45.5 172t123.5 123.5t173 45.5q94 0 173 -45.5zM257 564q-60 -35 -94 -96t-34 -137t34 -138t94 -97t134 -35q73 0 133 35.5t94 97t34 137.5
q0 75 -34 136.5t-94 96.5t-133 35q-74 0 -134 -35zM546 750q0 -13 -8.5 -21.5t-20.5 -8.5q-11 0 -23 10l-104 99l-104 -99q-12 -10 -22 -10q-13 0 -21.5 8.5t-8.5 21.5q0 11 11 22l123 124q10 10 22 10q13 0 23 -10l122 -124q11 -11 11 -22z" />
    <glyph glyph-name="Odieresis" unicode="&#xd6;" horiz-adv-x="781" 
d="M563 625.5q79 -45.5 124.5 -123.5t45.5 -172t-45.5 -172t-124.5 -123.5t-173 -45.5q-95 0 -173 45.5t-123.5 123.5t-45.5 172t45.5 172t123.5 123.5t173 45.5q94 0 173 -45.5zM257 564q-60 -35 -94 -96t-34 -137t34 -138t94 -97t134 -35q73 0 133 35.5t94 97t34 137.5
q0 75 -34 136.5t-94 96.5t-133 35q-74 0 -134 -35zM235.5 772.5q-16.5 15.5 -16.5 37.5t16.5 37.5t38.5 15.5q23 0 39 -15.5t16 -37.5t-16 -37.5t-39 -15.5q-22 0 -38.5 15.5zM468.5 771.5q-16.5 15.5 -16.5 37.5t16.5 38t38.5 16q23 0 39 -16t16 -38t-16 -37.5t-39 -15.5
q-22 0 -38.5 15.5z" />
    <glyph glyph-name="Ograve" unicode="&#xd2;" horiz-adv-x="781" 
d="M563 625.5q79 -45.5 124.5 -123.5t45.5 -172t-45.5 -172t-124.5 -123.5t-173 -45.5q-95 0 -173 45.5t-123.5 123.5t-45.5 172t45.5 172t123.5 123.5t173 45.5q94 0 173 -45.5zM257 564q-60 -35 -94 -96t-34 -137t34 -138t94 -97t134 -35q73 0 133 35.5t94 97t34 137.5
q0 75 -34 136.5t-94 96.5t-133 35q-74 0 -134 -35zM344 747l-71 113q-7 11 -7 24q0 17 11.5 28t28.5 11q11 0 20 -5.5t14 -15.5l65 -125q4 -10 4 -16q0 -13 -8.5 -23t-22.5 -11q-22 -1 -34 20z" />
    <glyph glyph-name="Ohungarumlaut" unicode="&#x150;" horiz-adv-x="781" 
d="M563 625.5q79 -45.5 124.5 -123.5t45.5 -172t-45.5 -172t-124.5 -123.5t-173 -45.5q-95 0 -173 45.5t-123.5 123.5t-45.5 172t45.5 172t123.5 123.5t173 45.5q94 0 173 -45.5zM257 564q-60 -35 -94 -96t-34 -137t34 -138t94 -97t134 -35q73 0 133 35.5t94 97t34 137.5
q0 75 -34 136.5t-94 96.5t-133 35q-74 0 -134 -35zM285.5 738q-8.5 10 -8.5 23q0 6 4 16l65 125q5 10 14 15.5t20 5.5q17 0 28.5 -11.5t11.5 -27.5q0 -13 -7 -24l-71 -113q-12 -21 -34 -20q-14 1 -22.5 11zM466.5 738q-8.5 10 -8.5 23q0 6 4 16l65 125q5 10 14 15.5t20 5.5
q17 0 28.5 -11.5t11.5 -27.5q0 -13 -7 -24l-71 -113q-12 -21 -34 -20q-14 1 -22.5 11z" />
    <glyph glyph-name="Omacron" unicode="&#x14c;" horiz-adv-x="781" 
d="M563 625.5q79 -45.5 124.5 -123.5t45.5 -172t-45.5 -172t-124.5 -123.5t-173 -45.5q-95 0 -173 45.5t-123.5 123.5t-45.5 172t45.5 172t123.5 123.5t173 45.5q94 0 173 -45.5zM257 564q-60 -35 -94 -96t-34 -137t34 -138t94 -97t134 -35q73 0 133 35.5t94 97t34 137.5
q0 75 -34 136.5t-94 96.5t-133 35q-74 0 -134 -35zM532.5 824q9.5 -9 9.5 -22q0 -14 -9.5 -23t-23.5 -9h-237q-14 0 -23.5 9.5t-9.5 22.5t9.5 22t23.5 9h237q14 0 23.5 -9z" />
    <glyph glyph-name="Oslash" unicode="&#xd8;" horiz-adv-x="783" 
d="M714 447q20 -56 20 -117q0 -94 -45.5 -172t-124.5 -123.5t-173 -45.5q-61 0 -116.5 19.5t-100.5 55.5l-63 -63q-12 -12 -27 -12q-13 0 -23 10t-10 23q0 15 12 27l63 63q-37 45 -57 100.5t-20 117.5q0 94 45.5 172t123.5 123.5t173 45.5q62 0 117.5 -20t99.5 -56l64 64
q12 12 27 12q14 0 23.5 -9.5t9.5 -23.5q0 -15 -11 -26l-64 -65q37 -44 57 -100zM179 165l379 379q-71 58 -166 58q-74 0 -135 -35.5t-95.5 -97.5t-34.5 -138q0 -95 52 -166zM526.5 94q60.5 36 95 98.5t34.5 138.5q0 93 -52 164l-379 -380q71 -57 167 -57q74 0 134.5 36z" />
    <glyph glyph-name="Oslashacute" unicode="&#x1fe;" horiz-adv-x="783" 
d="M714 447q20 -56 20 -117q0 -94 -45.5 -172t-124.5 -123.5t-173 -45.5q-61 0 -116.5 19.5t-100.5 55.5l-63 -63q-12 -12 -27 -12q-13 0 -23 10t-10 23q0 15 12 27l63 63q-37 45 -57 100.5t-20 117.5q0 94 45.5 172t123.5 123.5t173 45.5q62 0 117.5 -20t99.5 -56l64 64
q12 12 27 12q14 0 23.5 -9.5t9.5 -23.5q0 -15 -11 -26l-64 -65q37 -44 57 -100zM179 165l379 379q-71 58 -166 58q-74 0 -135 -35.5t-95.5 -97.5t-34.5 -138q0 -95 52 -166zM526.5 94q60.5 36 95 98.5t34.5 138.5q0 93 -52 164l-379 -380q71 -57 167 -57q74 0 134.5 36z
M382.5 738q-8.5 10 -8.5 23q0 6 4 16l65 125q5 10 14 15.5t20 5.5q17 0 28.5 -11.5t11.5 -27.5q0 -13 -7 -24l-71 -113q-12 -21 -34 -20q-14 1 -22.5 11z" />
    <glyph glyph-name="Otilde" unicode="&#xd5;" horiz-adv-x="781" 
d="M563 625.5q79 -45.5 124.5 -123.5t45.5 -172t-45.5 -172t-124.5 -123.5t-173 -45.5q-95 0 -173 45.5t-123.5 123.5t-45.5 172t45.5 172t123.5 123.5t173 45.5q94 0 173 -45.5zM257 564q-60 -35 -94 -96t-34 -137t34 -138t94 -97t134 -35q73 0 133 35.5t94 97t34 137.5
q0 75 -34 136.5t-94 96.5t-133 35q-74 0 -134 -35zM236 751.5q-10 10.5 -10 25.5q0 44 25 72.5t62 28.5q35 0 70 -23l34 -22q16 -11 24.5 -15.5t18.5 -4.5q27 0 29 31q1 15 10 24.5t22 9.5q15 0 25 -10.5t10 -25.5q0 -43 -25 -72t-62 -29q-35 0 -70 23l-34 22q-6 3 -14.5 9
t-15 8.5t-13.5 2.5q-28 0 -30 -31q-1 -15 -9.5 -24.5t-22.5 -9.5t-24 10.5z" />
    <glyph glyph-name="OE" unicode="&#x152;" horiz-adv-x="1127" 
d="M1080.5 60q10.5 -10 10.5 -25q0 -14 -10.5 -24.5t-25.5 -10.5h-367q-16 0 -26 10.5t-10 25.5v90q-41 -64 -111 -100.5t-153 -36.5q-94 0 -172 45t-123 123t-45 173t45 173t123 123t173 45q83 0 152.5 -36.5t110.5 -100.5v90q0 15 10 25.5t26 10.5h355q15 0 25.5 -10.5
t10.5 -24.5q0 -15 -10.5 -25t-25.5 -10h-313v-202h233q15 0 25.5 -10t10.5 -25q0 -14 -10.5 -24.5t-25.5 -10.5h-233v-248h325q15 0 25.5 -10zM523 96q60 35 94.5 96.5t34.5 137.5t-34.5 137.5t-94.5 96.5t-134 35q-73 0 -132.5 -35t-93.5 -96.5t-34 -137.5t34 -137.5
t93.5 -96.5t132.5 -35q74 0 134 35z" />
    <glyph glyph-name="P" unicode="P" horiz-adv-x="573" 
d="M102 1q-11 12 -11 29v589q0 17 11.5 29t29.5 12h191q62 0 110 -24t74.5 -67.5t26.5 -99.5q0 -57 -26.5 -101t-74.5 -68t-110 -24h-154v-246q0 -17 -11.5 -29t-27.5 -12q-17 0 -28 12zM321 346q62 0 97 32.5t35 89.5q0 56 -35.5 89t-96.5 33h-152v-244h152z" />
    <glyph glyph-name="Thorn" unicode="&#xde;" horiz-adv-x="573" 
d="M157.5 659q11.5 -12 11.5 -29v-88h154q63 0 111 -24.5t74 -69t26 -102.5t-26 -103t-74 -69.5t-111 -24.5h-154v-119q0 -17 -11.5 -29t-27.5 -12q-17 0 -28 12t-11 29v600q0 17 11 29t28 12q16 0 27.5 -12zM169 472v-253h152q62 0 97 33.5t35 92.5t-35 93t-97 34h-152z
" />
    <glyph glyph-name="Q" unicode="Q" horiz-adv-x="781" 
d="M1034.5 -141.5q9.5 -8.5 9.5 -22.5q0 -27 -36 -33q-33 -6 -74 -6q-128 0 -233 55t-181 162q-62 -25 -130 -25q-95 0 -173 45.5t-123.5 123.5t-45.5 172t45.5 172t123.5 123.5t173 45.5q94 0 173 -45.5t124.5 -123.5t45.5 -172q0 -87 -40 -161.5t-109 -121.5
q71 -93 159.5 -138t200.5 -45q15 0 39 2l25 1q17 0 26.5 -8.5zM163 193.5q34 -61.5 94 -97t134 -35.5q73 0 133 35.5t94 97t34 136.5q0 76 -34 137.5t-94 96.5t-134 35t-133.5 -35t-93.5 -96t-34 -137t34 -137.5z" />
    <glyph glyph-name="R" unicode="R" horiz-adv-x="622" 
d="M589 24q0 -14 -10.5 -24.5t-26.5 -10.5q-17 0 -34 21l-199 267h-150v-248q0 -17 -11.5 -28.5t-27.5 -11.5q-17 0 -28 11.5t-11 28.5v591q0 17 11.5 28.5t28.5 11.5h192q62 0 110 -24t74.5 -67.5t26.5 -99.5q0 -66 -35 -113t-96 -67l173 -235q13 -16 13 -30zM169 347h151
q62 0 97.5 32.5t35.5 88.5t-36 89t-97 33h-151v-243z" />
    <glyph glyph-name="Racute" unicode="&#x154;" horiz-adv-x="622" 
d="M589 24q0 -14 -10.5 -24.5t-26.5 -10.5q-17 0 -34 21l-199 267h-150v-248q0 -17 -11.5 -28.5t-27.5 -11.5q-17 0 -28 11.5t-11 28.5v591q0 17 11.5 28.5t28.5 11.5h192q62 0 110 -24t74.5 -67.5t26.5 -99.5q0 -66 -35 -113t-96 -67l173 -235q13 -16 13 -30zM169 347h151
q62 0 97.5 32.5t35.5 88.5t-36 89t-97 33h-151v-243zM252.5 738q-8.5 10 -8.5 23q0 6 4 16l65 125q5 10 14 15.5t20 5.5q17 0 28.5 -11.5t11.5 -27.5q0 -13 -7 -24l-71 -113q-12 -21 -34 -20q-14 1 -22.5 11z" />
    <glyph glyph-name="Rcaron" unicode="&#x158;" horiz-adv-x="622" 
d="M589 24q0 -14 -10.5 -24.5t-26.5 -10.5q-17 0 -34 21l-199 267h-150v-248q0 -17 -11.5 -28.5t-27.5 -11.5q-17 0 -28 11.5t-11 28.5v591q0 17 11.5 28.5t28.5 11.5h192q62 0 110 -24t74.5 -67.5t26.5 -99.5q0 -66 -35 -113t-96 -67l173 -235q13 -16 13 -30zM169 347h151
q62 0 97.5 32.5t35.5 88.5t-36 89t-97 33h-151v-243zM409.5 897.5q8.5 -8.5 8.5 -21.5q0 -11 -11 -22l-122 -124q-10 -10 -23 -10q-12 0 -22 10l-123 124q-11 11 -11 22q0 13 8.5 21.5t21.5 8.5q10 0 22 -10l104 -99l104 99q12 10 23 10q12 0 20.5 -8.5z" />
    <glyph glyph-name="Rcommaaccent" unicode="&#x156;" horiz-adv-x="622" 
d="M589 24q0 -14 -10.5 -24.5t-26.5 -10.5q-17 0 -34 21l-199 267h-150v-248q0 -17 -11.5 -28.5t-27.5 -11.5q-17 0 -28 11.5t-11 28.5v591q0 17 11.5 28.5t28.5 11.5h192q62 0 110 -24t74.5 -67.5t26.5 -99.5q0 -66 -35 -113t-96 -67l173 -235q13 -16 13 -30zM169 347h151
q62 0 97.5 32.5t35.5 88.5t-36 89t-97 33h-151v-243zM258.5 -211q-10.5 10 -10.5 22q0 5 4 21q9 36 9 82q0 16 11.5 27.5t27.5 11.5t27.5 -11.5t11.5 -27.5q0 -51 -20 -101q-6 -17 -16 -25.5t-21 -8.5q-13 0 -23.5 10z" />
    <glyph glyph-name="S" unicode="S" horiz-adv-x="558" 
d="M160 19.5q-60 30.5 -99 82.5q-9 11 -9 24q0 15 11 25.5t26 10.5q18 0 30 -15q68 -86 164 -86q60 0 96.5 30.5t36.5 79.5q0 37 -23 61.5t-87 54.5l-74 35q-79 37 -114 79t-35 98q0 49 26 88t71.5 61.5t101.5 22.5q111 0 182 -79q14 -15 14 -32q0 -13 -11.5 -24t-25.5 -11
t-27 13q-55 61 -133 61q-53 0 -85 -26.5t-32 -69.5q0 -24 9 -41t31.5 -33t65.5 -37l73 -35q83 -40 118.5 -82.5t35.5 -101.5q0 -53 -27 -95t-75.5 -65.5t-110.5 -23.5q-64 0 -124 30.5z" />
    <glyph glyph-name="Sacute" unicode="&#x15a;" horiz-adv-x="558" 
d="M160 19.5q-60 30.5 -99 82.5q-9 11 -9 24q0 15 11 25.5t26 10.5q18 0 30 -15q68 -86 164 -86q60 0 96.5 30.5t36.5 79.5q0 37 -23 61.5t-87 54.5l-74 35q-79 37 -114 79t-35 98q0 49 26 88t71.5 61.5t101.5 22.5q111 0 182 -79q14 -15 14 -32q0 -13 -11.5 -24t-25.5 -11
t-27 13q-55 61 -133 61q-53 0 -85 -26.5t-32 -69.5q0 -24 9 -41t31.5 -33t65.5 -37l73 -35q83 -40 118.5 -82.5t35.5 -101.5q0 -53 -27 -95t-75.5 -65.5t-110.5 -23.5q-64 0 -124 30.5zM271.5 738q-8.5 10 -8.5 23q0 6 4 16l65 125q5 10 14 15.5t20 5.5q17 0 28.5 -11.5
t11.5 -27.5q0 -13 -7 -24l-71 -113q-12 -21 -34 -20q-14 1 -22.5 11z" />
    <glyph glyph-name="Scaron" unicode="&#x160;" horiz-adv-x="558" 
d="M160 19.5q-60 30.5 -99 82.5q-9 11 -9 24q0 15 11 25.5t26 10.5q18 0 30 -15q68 -86 164 -86q60 0 96.5 30.5t36.5 79.5q0 37 -23 61.5t-87 54.5l-74 35q-79 37 -114 79t-35 98q0 49 26 88t71.5 61.5t101.5 22.5q111 0 182 -79q14 -15 14 -32q0 -13 -11.5 -24t-25.5 -11
t-27 13q-55 61 -133 61q-53 0 -85 -26.5t-32 -69.5q0 -24 9 -41t31.5 -33t65.5 -37l73 -35q83 -40 118.5 -82.5t35.5 -101.5q0 -53 -27 -95t-75.5 -65.5t-110.5 -23.5q-64 0 -124 30.5zM428.5 897.5q8.5 -8.5 8.5 -21.5q0 -11 -11 -22l-122 -124q-10 -10 -23 -10
q-12 0 -22 10l-123 124q-11 11 -11 22q0 13 8.5 21.5t21.5 8.5q10 0 22 -10l104 -99l104 99q12 10 23 10q12 0 20.5 -8.5z" />
    <glyph glyph-name="Scedilla" unicode="&#x15e;" horiz-adv-x="558" 
d="M160 19.5q-60 30.5 -99 82.5q-9 11 -9 24q0 15 11 25.5t26 10.5q18 0 30 -15q68 -86 164 -86q60 0 96.5 30.5t36.5 79.5q0 37 -23 61.5t-87 54.5l-74 35q-79 37 -114 79t-35 98q0 49 26 88t71.5 61.5t101.5 22.5q111 0 182 -79q14 -15 14 -32q0 -13 -11.5 -24t-25.5 -11
t-27 13q-55 61 -133 61q-53 0 -85 -26.5t-32 -69.5q0 -24 9 -41t31.5 -33t65.5 -37l73 -35q83 -40 118.5 -82.5t35.5 -101.5q0 -53 -27 -95t-75.5 -65.5t-110.5 -23.5q-64 0 -124 30.5zM177 -184q-24 10 -24 29q0 13 8.5 21.5t21.5 8.5q8 0 19.5 -2t25.5 -2q29 0 49 14.5
t20 40.5q0 31 -23 60q-4 5 -11 12.5t-10 13.5t-3 12q0 11 7 18t20 7q18 0 39.5 -20t36 -49.5t14.5 -55.5q0 -51 -38 -83t-97 -32q-36 0 -55 7z" />
    <glyph glyph-name="Scircumflex" unicode="&#x15c;" horiz-adv-x="558" 
d="M160 19.5q-60 30.5 -99 82.5q-9 11 -9 24q0 15 11 25.5t26 10.5q18 0 30 -15q68 -86 164 -86q60 0 96.5 30.5t36.5 79.5q0 37 -23 61.5t-87 54.5l-74 35q-79 37 -114 79t-35 98q0 49 26 88t71.5 61.5t101.5 22.5q111 0 182 -79q14 -15 14 -32q0 -13 -11.5 -24t-25.5 -11
t-27 13q-55 61 -133 61q-53 0 -85 -26.5t-32 -69.5q0 -24 9 -41t31.5 -33t65.5 -37l73 -35q83 -40 118.5 -82.5t35.5 -101.5q0 -53 -27 -95t-75.5 -65.5t-110.5 -23.5q-64 0 -124 30.5zM436 750q0 -13 -8.5 -21.5t-20.5 -8.5q-11 0 -23 10l-104 99l-104 -99q-12 -10 -22 -10
q-13 0 -21.5 8.5t-8.5 21.5q0 11 11 22l123 124q10 10 22 10q13 0 23 -10l122 -124q11 -11 11 -22z" />
    <glyph glyph-name="Scommaaccent" unicode="&#x218;" horiz-adv-x="558" 
d="M160 19.5q-60 30.5 -99 82.5q-9 11 -9 24q0 15 11 25.5t26 10.5q18 0 30 -15q68 -86 164 -86q60 0 96.5 30.5t36.5 79.5q0 37 -23 61.5t-87 54.5l-74 35q-79 37 -114 79t-35 98q0 49 26 88t71.5 61.5t101.5 22.5q111 0 182 -79q14 -15 14 -32q0 -13 -11.5 -24t-25.5 -11
t-27 13q-55 61 -133 61q-53 0 -85 -26.5t-32 -69.5q0 -24 9 -41t31.5 -33t65.5 -37l73 -35q83 -40 118.5 -82.5t35.5 -101.5q0 -53 -27 -95t-75.5 -65.5t-110.5 -23.5q-64 0 -124 30.5zM248.5 -211q-10.5 10 -10.5 22q0 5 4 21q9 36 9 82q0 16 11.5 27.5t27.5 11.5
t27.5 -11.5t11.5 -27.5q0 -51 -20 -101q-6 -17 -16 -25.5t-21 -8.5q-13 0 -23.5 10z" />
    <glyph glyph-name="uni1E9E" unicode="&#x1e9e;" horiz-adv-x="710" 
d="M569 374.5q43 -29.5 67 -75t24 -99.5q0 -59 -28.5 -107.5t-78 -76t-109.5 -27.5q-71 0 -135 41q-23 15 -32 26t-9 24q0 16 9.5 26t25.5 10q9 0 15 -3t11 -7t7 -6q50 -39 105 -39q60 0 99 39.5t39 100.5q0 66 -46 105t-123 39q-16 0 -27 10t-11 25q0 10 7 21l134 189h-344
v-560q0 -17 -11.5 -29t-27.5 -12q-17 0 -28 12t-11 29v589q0 17 11.5 29t29.5 12h446q14 0 24.5 -10.5t10.5 -24.5q0 -12 -10 -26l-131 -188q54 -7 97 -36.5z" />
    <glyph glyph-name="uni018F" unicode="&#x18f;" horiz-adv-x="733" 
d="M519 626q76 -45 120 -122.5t44 -171.5t-45 -172.5t-122 -124.5t-169 -46q-85 0 -153 38t-107 105t-39 150q0 17 2 32q2 18 12 28.5t25 10.5h514q-4 70 -38 126t-89.5 88t-123.5 32q-59 0 -112.5 -25t-89.5 -70q-11 -13 -19 -18t-18 -5q-16 0 -25.5 9t-9.5 25q0 7 3 13
t11 16q47 61 115.5 94t145.5 33q92 0 168 -45zM466 89.5q53 28.5 87.5 79t44.5 114.5h-472q-2 -63 26 -114t80 -79.5t118 -28.5q63 0 116 28.5z" />
    <glyph glyph-name="T" unicode="T" horiz-adv-x="581" 
d="M262.5 1q-11.5 12 -11.5 29v560h-199q-16 0 -26.5 10t-10.5 25q0 14 10.5 24.5t26.5 10.5h478q15 0 25.5 -10.5t10.5 -24.5q0 -15 -10.5 -25t-25.5 -10h-201v-560q0 -17 -11 -29t-28 -12q-16 0 -27.5 12z" />
    <glyph glyph-name="Tbar" unicode="&#x166;" horiz-adv-x="581" 
d="M262.5 1q-11.5 12 -11.5 29v230h-164q-15 0 -24.5 9.5t-9.5 23.5t9.5 23.5t24.5 9.5h164v264h-199q-16 0 -26.5 10t-10.5 25q0 14 10.5 24.5t26.5 10.5h478q15 0 25.5 -10.5t10.5 -24.5q0 -15 -10.5 -25t-25.5 -10h-201v-264h165q15 0 25 -9.5t10 -23.5t-10 -23.5
t-25 -9.5h-165v-230q0 -17 -11 -29t-28 -12q-16 0 -27.5 12z" />
    <glyph glyph-name="Tcaron" unicode="&#x164;" horiz-adv-x="581" 
d="M262.5 1q-11.5 12 -11.5 29v560h-199q-16 0 -26.5 10t-10.5 25q0 14 10.5 24.5t26.5 10.5h478q15 0 25.5 -10.5t10.5 -24.5q0 -15 -10.5 -25t-25.5 -10h-201v-560q0 -17 -11 -29t-28 -12q-16 0 -27.5 12zM438.5 897.5q8.5 -8.5 8.5 -21.5q0 -11 -11 -22l-122 -124
q-10 -10 -23 -10q-12 0 -22 10l-123 124q-11 11 -11 22q0 13 8.5 21.5t21.5 8.5q10 0 22 -10l104 -99l104 99q12 10 23 10q12 0 20.5 -8.5z" />
    <glyph glyph-name="uni0162" unicode="&#x162;" horiz-adv-x="581" 
d="M262.5 1q-11.5 12 -11.5 29v560h-199q-16 0 -26.5 10t-10.5 25q0 14 10.5 24.5t26.5 10.5h478q15 0 25.5 -10.5t10.5 -24.5q0 -15 -10.5 -25t-25.5 -10h-201v-560q0 -17 -11 -29t-28 -12q-16 0 -27.5 12zM221 -184q-24 10 -24 29q0 13 8.5 21.5t21.5 8.5q8 0 19.5 -2
t25.5 -2q29 0 49 14.5t20 40.5q0 31 -23 60q-4 5 -11 12.5t-10 13.5t-3 12q0 11 7 18t20 7q18 0 39.5 -20t36 -49.5t14.5 -55.5q0 -51 -38 -83t-97 -32q-36 0 -55 7z" />
    <glyph glyph-name="U" unicode="U" horiz-adv-x="689" 
d="M205.5 22.5q-59.5 33.5 -91.5 95t-32 144.5v368q0 17 11.5 29t27.5 12q17 0 28 -12t11 -29v-373q0 -91 49.5 -143.5t135.5 -52.5q85 0 134 52.5t49 143.5v373q0 17 11.5 29t27.5 12q17 0 28 -12t11 -29v-368q0 -82 -32.5 -144t-91.5 -95.5t-137 -33.5q-80 0 -139.5 33.5z
" />
    <glyph glyph-name="Uacute" unicode="&#xda;" horiz-adv-x="689" 
d="M205.5 22.5q-59.5 33.5 -91.5 95t-32 144.5v368q0 17 11.5 29t27.5 12q17 0 28 -12t11 -29v-373q0 -91 49.5 -143.5t135.5 -52.5q85 0 134 52.5t49 143.5v373q0 17 11.5 29t27.5 12q17 0 28 -12t11 -29v-368q0 -82 -32.5 -144t-91.5 -95.5t-137 -33.5q-80 0 -139.5 33.5z
M334.5 738q-8.5 10 -8.5 23q0 6 4 16l65 125q5 10 14 15.5t20 5.5q17 0 28.5 -11.5t11.5 -27.5q0 -13 -7 -24l-71 -113q-12 -21 -34 -20q-14 1 -22.5 11z" />
    <glyph glyph-name="Ubreve" unicode="&#x16c;" horiz-adv-x="689" 
d="M205.5 22.5q-59.5 33.5 -91.5 95t-32 144.5v368q0 17 11.5 29t27.5 12q17 0 28 -12t11 -29v-373q0 -91 49.5 -143.5t135.5 -52.5q85 0 134 52.5t49 143.5v373q0 17 11.5 29t27.5 12q17 0 28 -12t11 -29v-368q0 -82 -32.5 -144t-91.5 -95.5t-137 -33.5q-80 0 -139.5 33.5z
M270.5 750q-34.5 18 -55.5 47.5t-21 63.5q0 14 9.5 24t22.5 10q25 0 32 -32q7 -33 30.5 -52t55.5 -19q34 0 57 19.5t30 51.5q6 32 31 32q14 0 23.5 -10t9.5 -24q0 -34 -21 -63.5t-55.5 -47.5t-74.5 -18q-39 0 -73.5 18z" />
    <glyph glyph-name="Ucircumflex" unicode="&#xdb;" horiz-adv-x="689" 
d="M205.5 22.5q-59.5 33.5 -91.5 95t-32 144.5v368q0 17 11.5 29t27.5 12q17 0 28 -12t11 -29v-373q0 -91 49.5 -143.5t135.5 -52.5q85 0 134 52.5t49 143.5v373q0 17 11.5 29t27.5 12q17 0 28 -12t11 -29v-368q0 -82 -32.5 -144t-91.5 -95.5t-137 -33.5q-80 0 -139.5 33.5z
M499 750q0 -13 -8.5 -21.5t-20.5 -8.5q-11 0 -23 10l-104 99l-104 -99q-12 -10 -22 -10q-13 0 -21.5 8.5t-8.5 21.5q0 11 11 22l123 124q10 10 22 10q13 0 23 -10l122 -124q11 -11 11 -22z" />
    <glyph glyph-name="Udieresis" unicode="&#xdc;" horiz-adv-x="689" 
d="M205.5 22.5q-59.5 33.5 -91.5 95t-32 144.5v368q0 17 11.5 29t27.5 12q17 0 28 -12t11 -29v-373q0 -91 49.5 -143.5t135.5 -52.5q85 0 134 52.5t49 143.5v373q0 17 11.5 29t27.5 12q17 0 28 -12t11 -29v-368q0 -82 -32.5 -144t-91.5 -95.5t-137 -33.5q-80 0 -139.5 33.5z
M188.5 772.5q-16.5 15.5 -16.5 37.5t16.5 37.5t38.5 15.5q23 0 39 -15.5t16 -37.5t-16 -37.5t-39 -15.5q-22 0 -38.5 15.5zM421.5 771.5q-16.5 15.5 -16.5 37.5t16.5 38t38.5 16q23 0 39 -16t16 -38t-16 -37.5t-39 -15.5q-22 0 -38.5 15.5z" />
    <glyph glyph-name="Ugrave" unicode="&#xd9;" horiz-adv-x="689" 
d="M205.5 22.5q-59.5 33.5 -91.5 95t-32 144.5v368q0 17 11.5 29t27.5 12q17 0 28 -12t11 -29v-373q0 -91 49.5 -143.5t135.5 -52.5q85 0 134 52.5t49 143.5v373q0 17 11.5 29t27.5 12q17 0 28 -12t11 -29v-368q0 -82 -32.5 -144t-91.5 -95.5t-137 -33.5q-80 0 -139.5 33.5z
M297 747l-71 113q-7 11 -7 24q0 17 11.5 28t28.5 11q11 0 20 -5.5t14 -15.5l65 -125q4 -10 4 -16q0 -13 -8.5 -23t-22.5 -11q-22 -1 -34 20z" />
    <glyph glyph-name="Uhungarumlaut" unicode="&#x170;" horiz-adv-x="689" 
d="M205.5 22.5q-59.5 33.5 -91.5 95t-32 144.5v368q0 17 11.5 29t27.5 12q17 0 28 -12t11 -29v-373q0 -91 49.5 -143.5t135.5 -52.5q85 0 134 52.5t49 143.5v373q0 17 11.5 29t27.5 12q17 0 28 -12t11 -29v-368q0 -82 -32.5 -144t-91.5 -95.5t-137 -33.5q-80 0 -139.5 33.5z
M238.5 738q-8.5 10 -8.5 23q0 6 4 16l65 125q5 10 14 15.5t20 5.5q17 0 28.5 -11.5t11.5 -27.5q0 -13 -7 -24l-71 -113q-12 -21 -34 -20q-14 1 -22.5 11zM419.5 738q-8.5 10 -8.5 23q0 6 4 16l65 125q5 10 14 15.5t20 5.5q17 0 28.5 -11.5t11.5 -27.5q0 -13 -7 -24l-71 -113
q-12 -21 -34 -20q-14 1 -22.5 11z" />
    <glyph glyph-name="Umacron" unicode="&#x16a;" horiz-adv-x="689" 
d="M205.5 22.5q-59.5 33.5 -91.5 95t-32 144.5v368q0 17 11.5 29t27.5 12q17 0 28 -12t11 -29v-373q0 -91 49.5 -143.5t135.5 -52.5q85 0 134 52.5t49 143.5v373q0 17 11.5 29t27.5 12q17 0 28 -12t11 -29v-368q0 -82 -32.5 -144t-91.5 -95.5t-137 -33.5q-80 0 -139.5 33.5z
M485.5 824q9.5 -9 9.5 -22q0 -14 -9.5 -23t-23.5 -9h-237q-14 0 -23.5 9.5t-9.5 22.5t9.5 22t23.5 9h237q14 0 23.5 -9z" />
    <glyph glyph-name="Uogonek" unicode="&#x172;" horiz-adv-x="689" 
d="M354 -167q-29 24 -29 63q0 23 18 50t49 49q-27 -6 -47 -6q-80 0 -139.5 33.5t-91.5 95t-32 144.5v368q0 17 11.5 29t27.5 12q17 0 28 -12t11 -29v-373q0 -91 49.5 -143.5t135.5 -52.5q85 0 134 52.5t49 143.5v373q0 17 11.5 29t27.5 12q17 0 28 -12t11 -29v-368
q0 -66 -22.5 -121t-65.5 -93l-36 -32q-5 -5 -30 -27.5t-37 -43t-12 -39.5q0 -17 12 -26t35 -9q11 0 19.5 1.5t14.5 1.5q11 0 18.5 -8t7.5 -20q0 -22 -22 -29q-22 -8 -56 -8q-49 0 -78 24z" />
    <glyph glyph-name="Uring" unicode="&#x16e;" horiz-adv-x="689" 
d="M205.5 22.5q-59.5 33.5 -91.5 95t-32 144.5v368q0 17 11.5 29t27.5 12q17 0 28 -12t11 -29v-373q0 -91 49.5 -143.5t135.5 -52.5q85 0 134 52.5t49 143.5v373q0 17 11.5 29t27.5 12q17 0 28 -12t11 -29v-368q0 -82 -32.5 -144t-91.5 -95.5t-137 -33.5q-80 0 -139.5 33.5z
M422.5 883q32.5 -31 32.5 -77t-32.5 -77t-79.5 -31q-46 0 -78 31.5t-32 76.5q0 46 32 77t78 31q47 0 79.5 -31zM308.5 842.5q-14.5 -14.5 -14.5 -36.5q0 -21 14.5 -35.5t35.5 -14.5q22 0 36 14.5t14 35.5q0 22 -14 36.5t-36 14.5q-21 0 -35.5 -14.5z" />
    <glyph glyph-name="Utilde" unicode="&#x168;" horiz-adv-x="689" 
d="M205.5 22.5q-59.5 33.5 -91.5 95t-32 144.5v368q0 17 11.5 29t27.5 12q17 0 28 -12t11 -29v-373q0 -91 49.5 -143.5t135.5 -52.5q85 0 134 52.5t49 143.5v373q0 17 11.5 29t27.5 12q17 0 28 -12t11 -29v-368q0 -82 -32.5 -144t-91.5 -95.5t-137 -33.5q-80 0 -139.5 33.5z
M189 751.5q-10 10.5 -10 25.5q0 44 25 72.5t62 28.5q35 0 70 -23l34 -22q16 -11 24.5 -15.5t18.5 -4.5q27 0 29 31q1 15 10 24.5t22 9.5q15 0 25 -10.5t10 -25.5q0 -43 -25 -72t-62 -29q-35 0 -70 23l-34 22q-6 3 -14.5 9t-15 8.5t-13.5 2.5q-28 0 -30 -31
q-1 -15 -9.5 -24.5t-22.5 -9.5t-24 10.5z" />
    <glyph glyph-name="V" unicode="V" horiz-adv-x="664" 
d="M617.5 659.5q11.5 -11.5 11.5 -26.5q0 -11 -7 -25l-253 -592q-12 -27 -37 -27t-37 27l-253 592q-6 15 -6 25q0 16 11 27t27 11q26 0 37 -26l221 -540l221 540q13 26 38 26q15 0 26.5 -11.5z" />
    <glyph glyph-name="W" unicode="W" horiz-adv-x="1066" 
d="M1000.5 660q10.5 -11 10.5 -28q0 -11 -5 -25l-213 -592q-5 -12 -14.5 -19t-22.5 -7q-27 0 -37 26l-186 527l-185 -527q-5 -12 -14.5 -19t-22.5 -7t-23 7t-14 19l-215 592q-5 14 -5 25q0 17 11 28t28 11q13 0 22.5 -7t14.5 -19l182 -516l184 515q5 12 14.5 19.5t22.5 7.5
t22.5 -7.5t14.5 -19.5l184 -514l181 515q5 12 15 19t22 7q18 0 28.5 -11z" />
    <glyph glyph-name="Wacute" unicode="&#x1e82;" horiz-adv-x="1066" 
d="M1000.5 660q10.5 -11 10.5 -28q0 -11 -5 -25l-213 -592q-5 -12 -14.5 -19t-22.5 -7q-27 0 -37 26l-186 527l-185 -527q-5 -12 -14.5 -19t-22.5 -7t-23 7t-14 19l-215 592q-5 14 -5 25q0 17 11 28t28 11q13 0 22.5 -7t14.5 -19l182 -516l184 515q5 12 14.5 19.5t22.5 7.5
t22.5 -7.5t14.5 -19.5l184 -514l181 515q5 12 15 19t22 7q18 0 28.5 -11zM523.5 738q-8.5 10 -8.5 23q0 6 4 16l65 125q5 10 14 15.5t20 5.5q17 0 28.5 -11.5t11.5 -27.5q0 -13 -7 -24l-71 -113q-12 -21 -34 -20q-14 1 -22.5 11z" />
    <glyph glyph-name="Wcircumflex" unicode="&#x174;" horiz-adv-x="1066" 
d="M1000.5 660q10.5 -11 10.5 -28q0 -11 -5 -25l-213 -592q-5 -12 -14.5 -19t-22.5 -7q-27 0 -37 26l-186 527l-185 -527q-5 -12 -14.5 -19t-22.5 -7t-23 7t-14 19l-215 592q-5 14 -5 25q0 17 11 28t28 11q13 0 22.5 -7t14.5 -19l182 -516l184 515q5 12 14.5 19.5t22.5 7.5
t22.5 -7.5t14.5 -19.5l184 -514l181 515q5 12 15 19t22 7q18 0 28.5 -11zM688 750q0 -13 -8.5 -21.5t-20.5 -8.5q-11 0 -23 10l-104 99l-104 -99q-12 -10 -22 -10q-13 0 -21.5 8.5t-8.5 21.5q0 11 11 22l123 124q10 10 22 10q13 0 23 -10l122 -124q11 -11 11 -22z" />
    <glyph glyph-name="Wdieresis" unicode="&#x1e84;" horiz-adv-x="1066" 
d="M1000.5 660q10.5 -11 10.5 -28q0 -11 -5 -25l-213 -592q-5 -12 -14.5 -19t-22.5 -7q-27 0 -37 26l-186 527l-185 -527q-5 -12 -14.5 -19t-22.5 -7t-23 7t-14 19l-215 592q-5 14 -5 25q0 17 11 28t28 11q13 0 22.5 -7t14.5 -19l182 -516l184 515q5 12 14.5 19.5t22.5 7.5
t22.5 -7.5t14.5 -19.5l184 -514l181 515q5 12 15 19t22 7q18 0 28.5 -11zM377.5 772.5q-16.5 15.5 -16.5 37.5t16.5 37.5t38.5 15.5q23 0 39 -15.5t16 -37.5t-16 -37.5t-39 -15.5q-22 0 -38.5 15.5zM610.5 771.5q-16.5 15.5 -16.5 37.5t16.5 38t38.5 16q23 0 39 -16t16 -38
t-16 -37.5t-39 -15.5q-22 0 -38.5 15.5z" />
    <glyph glyph-name="Wgrave" unicode="&#x1e80;" horiz-adv-x="1066" 
d="M1000.5 660q10.5 -11 10.5 -28q0 -11 -5 -25l-213 -592q-5 -12 -14.5 -19t-22.5 -7q-27 0 -37 26l-186 527l-185 -527q-5 -12 -14.5 -19t-22.5 -7t-23 7t-14 19l-215 592q-5 14 -5 25q0 17 11 28t28 11q13 0 22.5 -7t14.5 -19l182 -516l184 515q5 12 14.5 19.5t22.5 7.5
t22.5 -7.5t14.5 -19.5l184 -514l181 515q5 12 15 19t22 7q18 0 28.5 -11zM486 747l-71 113q-7 11 -7 24q0 17 11.5 28t28.5 11q11 0 20 -5.5t14 -15.5l65 -125q4 -10 4 -16q0 -13 -8.5 -23t-22.5 -11q-22 -1 -34 20z" />
    <glyph glyph-name="X" unicode="X" horiz-adv-x="599" 
d="M556 27q0 -16 -11 -27t-27 -11q-19 0 -30 16l-188 269l-188 -269q-11 -16 -31 -16q-16 0 -27 11t-11 27q0 13 11 27l202 285l-186 267q-11 14 -11 27q0 16 11 27t27 11q20 0 31 -16l172 -252l173 252q10 16 30 16q16 0 27 -11t11 -27q0 -13 -11 -27l-185 -267l200 -285
q11 -14 11 -27z" />
    <glyph glyph-name="Y" unicode="Y" horiz-adv-x="617" 
d="M562 604l-215 -349v-225q0 -17 -11.5 -29t-27.5 -12q-17 0 -28 12t-11 29v227l-213 347q-11 17 -11 30q0 16 11.5 26.5t28.5 10.5q13 0 21.5 -5t16.5 -18l186 -306l186 306q9 13 17 18t21 5q16 0 27.5 -11t11.5 -27q0 -13 -10 -29z" />
    <glyph glyph-name="Yacute" unicode="&#xdd;" horiz-adv-x="617" 
d="M562 604l-215 -349v-225q0 -17 -11.5 -29t-27.5 -12q-17 0 -28 12t-11 29v227l-213 347q-11 17 -11 30q0 16 11.5 26.5t28.5 10.5q13 0 21.5 -5t16.5 -18l186 -306l186 306q9 13 17 18t21 5q16 0 27.5 -11t11.5 -27q0 -13 -10 -29zM295.5 738q-8.5 10 -8.5 23q0 6 4 16
l65 125q5 10 14 15.5t20 5.5q17 0 28.5 -11.5t11.5 -27.5q0 -13 -7 -24l-71 -113q-12 -21 -34 -20q-14 1 -22.5 11z" />
    <glyph glyph-name="Ycircumflex" unicode="&#x176;" horiz-adv-x="617" 
d="M562 604l-215 -349v-225q0 -17 -11.5 -29t-27.5 -12q-17 0 -28 12t-11 29v227l-213 347q-11 17 -11 30q0 16 11.5 26.5t28.5 10.5q13 0 21.5 -5t16.5 -18l186 -306l186 306q9 13 17 18t21 5q16 0 27.5 -11t11.5 -27q0 -13 -10 -29zM460 750q0 -13 -8.5 -21.5t-20.5 -8.5
q-11 0 -23 10l-104 99l-104 -99q-12 -10 -22 -10q-13 0 -21.5 8.5t-8.5 21.5q0 11 11 22l123 124q10 10 22 10q13 0 23 -10l122 -124q11 -11 11 -22z" />
    <glyph glyph-name="Ydieresis" unicode="&#x178;" horiz-adv-x="617" 
d="M562 604l-215 -349v-225q0 -17 -11.5 -29t-27.5 -12q-17 0 -28 12t-11 29v227l-213 347q-11 17 -11 30q0 16 11.5 26.5t28.5 10.5q13 0 21.5 -5t16.5 -18l186 -306l186 306q9 13 17 18t21 5q16 0 27.5 -11t11.5 -27q0 -13 -10 -29zM149.5 772.5q-16.5 15.5 -16.5 37.5
t16.5 37.5t38.5 15.5q23 0 39 -15.5t16 -37.5t-16 -37.5t-39 -15.5q-22 0 -38.5 15.5zM382.5 771.5q-16.5 15.5 -16.5 37.5t16.5 38t38.5 16q23 0 39 -16t16 -38t-16 -37.5t-39 -15.5q-22 0 -38.5 15.5z" />
    <glyph glyph-name="Ygrave" unicode="&#x1ef2;" horiz-adv-x="617" 
d="M562 604l-215 -349v-225q0 -17 -11.5 -29t-27.5 -12q-17 0 -28 12t-11 29v227l-213 347q-11 17 -11 30q0 16 11.5 26.5t28.5 10.5q13 0 21.5 -5t16.5 -18l186 -306l186 306q9 13 17 18t21 5q16 0 27.5 -11t11.5 -27q0 -13 -10 -29zM258 747l-71 113q-7 11 -7 24
q0 17 11.5 28t28.5 11q11 0 20 -5.5t14 -15.5l65 -125q4 -10 4 -16q0 -13 -8.5 -23t-22.5 -11q-22 -1 -34 20z" />
    <glyph glyph-name="Z" unicode="Z" horiz-adv-x="589" 
d="M548.5 60q10.5 -10 10.5 -25q0 -14 -10.5 -24.5t-25.5 -10.5h-454q-16 0 -26.5 10.5t-10.5 24.5q0 8 13 27l401 528h-338q-16 0 -26 10t-10 25t10.5 25t25.5 10h410q15 0 25.5 -10.5t10.5 -24.5q0 -11 -12 -26l-402 -529h383q15 0 25.5 -10z" />
    <glyph glyph-name="Zacute" unicode="&#x179;" horiz-adv-x="589" 
d="M548.5 60q10.5 -10 10.5 -25q0 -14 -10.5 -24.5t-25.5 -10.5h-454q-16 0 -26.5 10.5t-10.5 24.5q0 8 13 27l401 528h-338q-16 0 -26 10t-10 25t10.5 25t25.5 10h410q15 0 25.5 -10.5t10.5 -24.5q0 -11 -12 -26l-402 -529h383q15 0 25.5 -10zM290.5 738q-8.5 10 -8.5 23
q0 6 4 16l65 125q5 10 14 15.5t20 5.5q17 0 28.5 -11.5t11.5 -27.5q0 -13 -7 -24l-71 -113q-12 -21 -34 -20q-14 1 -22.5 11z" />
    <glyph glyph-name="Zcaron" unicode="&#x17d;" horiz-adv-x="589" 
d="M548.5 60q10.5 -10 10.5 -25q0 -14 -10.5 -24.5t-25.5 -10.5h-454q-16 0 -26.5 10.5t-10.5 24.5q0 8 13 27l401 528h-338q-16 0 -26 10t-10 25t10.5 25t25.5 10h410q15 0 25.5 -10.5t10.5 -24.5q0 -11 -12 -26l-402 -529h383q15 0 25.5 -10zM447.5 897.5
q8.5 -8.5 8.5 -21.5q0 -11 -11 -22l-122 -124q-10 -10 -23 -10q-12 0 -22 10l-123 124q-11 11 -11 22q0 13 8.5 21.5t21.5 8.5q10 0 22 -10l104 -99l104 99q12 10 23 10q12 0 20.5 -8.5z" />
    <glyph glyph-name="Zdotaccent" unicode="&#x17b;" horiz-adv-x="589" 
d="M548.5 60q10.5 -10 10.5 -25q0 -14 -10.5 -24.5t-25.5 -10.5h-454q-16 0 -26.5 10.5t-10.5 24.5q0 8 13 27l401 528h-338q-16 0 -26 10t-10 25t10.5 25t25.5 10h410q15 0 25.5 -10.5t10.5 -24.5q0 -11 -12 -26l-402 -529h383q15 0 25.5 -10zM339.5 848.5
q16.5 -16.5 16.5 -38.5q0 -23 -16.5 -39t-39.5 -16t-40 16t-17 39q0 22 17 38.5t40 16.5t39.5 -16.5z" />
    <glyph glyph-name="uni021A" unicode="&#x21a;" horiz-adv-x="581" 
d="M262.5 1q-11.5 12 -11.5 29v560h-199q-16 0 -26.5 10t-10.5 25q0 14 10.5 24.5t26.5 10.5h478q15 0 25.5 -10.5t10.5 -24.5q0 -15 -10.5 -25t-25.5 -10h-201v-560q0 -17 -11 -29t-28 -12q-16 0 -27.5 12zM246.5 -211q-10.5 10 -10.5 22q0 5 4 21q9 36 9 82
q0 16 11.5 27.5t27.5 11.5t27.5 -11.5t11.5 -27.5q0 -51 -20 -101q-6 -17 -16 -25.5t-21 -8.5q-13 0 -23.5 10z" />
    <glyph glyph-name="Iacute_J.loclNLD" horiz-adv-x="632" 
d="M102 1q-11 12 -11 29v600q0 17 11 29t28 12q16 0 27.5 -12t11.5 -29v-600q0 -17 -11.5 -29t-27.5 -12q-17 0 -28 12zM121.5 738q-8.5 10 -8.5 23q0 6 4 16l65 125q5 10 14 15.5t20 5.5q17 0 28.5 -11.5t11.5 -27.5q0 -13 -7 -24l-71 -113q-12 -21 -34 -20q-14 1 -22.5 11
zM305 -4q-13 4 -21 14t-8 23q0 16 11 26.5t28 10.5q14 0 29 -3q5 0 15.5 -1.5t21.5 -1.5q40 0 61.5 25t21.5 71v470q0 17 11 29t28 12t28 -12t11 -29v-477q0 -79 -44.5 -121.5t-127.5 -42.5q-40 0 -65 7zM484.5 738q-8.5 10 -8.5 23q0 6 4 16l65 125q5 10 14 15.5t20 5.5
q17 0 28.5 -11.5t11.5 -27.5q0 -13 -7 -24l-71 -113q-12 -21 -34 -20q-14 1 -22.5 11z" />
    <glyph glyph-name="Cacute.loclPLK" horiz-adv-x="715" 
d="M217.5 34.5q-78.5 45.5 -124 123.5t-45.5 172t45.5 172t124 123.5t173.5 45.5q76 0 144 -31t113 -87q15 -19 15 -33t-11 -24.5t-26 -10.5q-20 0 -33 16q-78 98 -201 98q-74 0 -134 -35.5t-94.5 -97t-34.5 -136.5t34.5 -136.5t94.5 -97t134 -35.5q121 0 201 98
q13 16 33 16q15 0 26 -10.5t11 -24.5t-15 -33q-43 -55 -111.5 -86.5t-145.5 -31.5q-95 0 -173.5 45.5zM365.5 730.5q-9.5 10.5 -9.5 26.5q0 10 2 16l35 122q5 16 15.5 23.5t22.5 7.5q15 0 27 -11t12 -29q0 -11 -4 -20l-41 -117q-6 -14 -15.5 -21.5t-19.5 -7.5
q-15 0 -24.5 10.5z" />
    <glyph glyph-name="Nacute.loclPLK" horiz-adv-x="708" 
d="M606 659q11 -12 11 -29v-603q0 -15 -11 -26.5t-27 -11.5q-19 0 -34 20l-376 504v-483q0 -17 -11.5 -29t-27.5 -12q-17 0 -28 12t-11 29v603q0 15 11.5 26.5t27.5 11.5q10 0 18.5 -6t18.5 -20l373 -498l-1 483q0 17 11.5 29t27.5 12q17 0 28 -12zM328.5 730.5
q-9.5 10.5 -9.5 26.5q0 10 2 16l35 122q5 16 15.5 23.5t22.5 7.5q15 0 27 -11t12 -29q0 -11 -4 -20l-41 -117q-6 -14 -15.5 -21.5t-19.5 -7.5q-15 0 -24.5 10.5z" />
    <glyph glyph-name="Oacute.loclPLK" horiz-adv-x="781" 
d="M563 625.5q79 -45.5 124.5 -123.5t45.5 -172t-45.5 -172t-124.5 -123.5t-173 -45.5q-95 0 -173 45.5t-123.5 123.5t-45.5 172t45.5 172t123.5 123.5t173 45.5q94 0 173 -45.5zM257 564q-60 -35 -94 -96t-34 -137t34 -138t94 -97t134 -35q73 0 133 35.5t94 97t34 137.5
q0 75 -34 136.5t-94 96.5t-133 35q-74 0 -134 -35zM365.5 730.5q-9.5 10.5 -9.5 26.5q0 10 2 16l35 122q5 16 15.5 23.5t22.5 7.5q15 0 27 -11t12 -29q0 -11 -4 -20l-41 -117q-6 -14 -15.5 -21.5t-19.5 -7.5q-15 0 -24.5 10.5z" />
    <glyph glyph-name="Sacute.loclPLK" horiz-adv-x="558" 
d="M160 19.5q-60 30.5 -99 82.5q-9 11 -9 24q0 15 11 25.5t26 10.5q18 0 30 -15q68 -86 164 -86q60 0 96.5 30.5t36.5 79.5q0 37 -23 61.5t-87 54.5l-74 35q-79 37 -114 79t-35 98q0 49 26 88t71.5 61.5t101.5 22.5q111 0 182 -79q14 -15 14 -32q0 -13 -11.5 -24t-25.5 -11
t-27 13q-55 61 -133 61q-53 0 -85 -26.5t-32 -69.5q0 -24 9 -41t31.5 -33t65.5 -37l73 -35q83 -40 118.5 -82.5t35.5 -101.5q0 -53 -27 -95t-75.5 -65.5t-110.5 -23.5q-64 0 -124 30.5zM255.5 730.5q-9.5 10.5 -9.5 26.5q0 10 2 16l35 122q5 16 15.5 23.5t22.5 7.5
q15 0 27 -11t12 -29q0 -11 -4 -20l-41 -117q-6 -14 -15.5 -21.5t-19.5 -7.5q-15 0 -24.5 10.5z" />
    <glyph glyph-name="Zacute.loclPLK" horiz-adv-x="589" 
d="M548.5 60q10.5 -10 10.5 -25q0 -14 -10.5 -24.5t-25.5 -10.5h-454q-16 0 -26.5 10.5t-10.5 24.5q0 8 13 27l401 528h-338q-16 0 -26 10t-10 25t10.5 25t25.5 10h410q15 0 25.5 -10.5t10.5 -24.5q0 -11 -12 -26l-402 -529h383q15 0 25.5 -10zM274.5 730.5
q-9.5 10.5 -9.5 26.5q0 10 2 16l35 122q5 16 15.5 23.5t22.5 7.5q15 0 27 -11t12 -29q0 -11 -4 -20l-41 -117q-6 -14 -15.5 -21.5t-19.5 -7.5q-15 0 -24.5 10.5z" />
    <glyph glyph-name="Idotaccent.loclTRK" horiz-adv-x="259" 
d="M102 1q-11 12 -11 29v600q0 17 11 29t28 12q16 0 27.5 -12t11.5 -29v-600q0 -17 -11.5 -29t-27.5 -12q-17 0 -28 12zM170.5 848.5q16.5 -16.5 16.5 -38.5q0 -23 -16.5 -39t-39.5 -16t-40 16t-17 39q0 22 17 38.5t40 16.5t39.5 -16.5z" />
    <glyph glyph-name="A.ordn" horiz-adv-x="434" 
d="M405 271q0 -13 -10 -23.5t-24 -10.5q-11 0 -20.5 6.5t-13.5 17.5l-22 54h-196l-22 -54q-4 -11 -13 -17.5t-20 -6.5q-14 0 -24.5 10t-10.5 24q0 8 4 16l150 355q11 25 34 25t34 -26l150 -354q4 -8 4 -16zM141 369h152l-76 193z" />
    <glyph glyph-name="C.ordn" horiz-adv-x="467" 
d="M142.5 265.5q-49.5 28.5 -78 77.5t-28.5 109t28.5 109t78 77.5t109.5 28.5q50 0 93 -19.5t69 -53.5q11 -16 11 -26q0 -13 -9 -22.5t-23 -9.5t-25 14q-45 54 -115 54q-64 0 -105.5 -43t-41.5 -109t41.5 -109t105.5 -43q67 0 115 54q11 14 25 14t23 -9t9 -23q0 -11 -11 -24
q-30 -36 -72.5 -55.5t-89.5 -19.5q-60 0 -109.5 28.5z" />
    <glyph glyph-name="D.ordn" horiz-adv-x="459" 
d="M315 634q51 -26 79.5 -73t28.5 -108t-28.5 -108.5t-80 -74t-117.5 -26.5h-92q-16 0 -27 11t-11 26v342q0 15 11 26t27 11h92q67 0 118 -26zM135 598v-293h62q70 0 113 40.5t43 107.5t-42.5 106t-113.5 39h-62z" />
    <glyph glyph-name="E.ordn" horiz-adv-x="376" 
d="M332 651.5q9 -8.5 9 -21.5t-9 -22t-22 -9h-174v-106h133q12 0 20.5 -8t8.5 -20q0 -11 -8.5 -19t-20.5 -8h-133v-133h182q13 0 22 -9t9 -22t-9 -21.5t-22 -8.5h-214q-16 0 -26.5 10.5t-10.5 25.5v344q0 15 10.5 25.5t26.5 10.5h206q13 0 22 -8.5z" />
    <glyph glyph-name="Egrave.ordn" horiz-adv-x="376" 
d="M188 715l-45 57q-8 10 -8 23q0 14 9.5 23.5t22.5 9.5q17 0 26 -15l42 -66q6 -10 6 -18q0 -11 -8.5 -19.5t-20.5 -8.5q-14 0 -24 14zM332 651.5q9 -8.5 9 -21.5t-9 -22t-22 -9h-174v-106h133q12 0 20.5 -8t8.5 -20q0 -11 -8.5 -19t-20.5 -8h-133v-133h182q13 0 22 -9
t9 -22t-9 -21.5t-22 -8.5h-214q-16 0 -26.5 10.5t-10.5 25.5v344q0 15 10.5 25.5t26.5 10.5h206q13 0 22 -8.5z" />
    <glyph glyph-name="G.ordn" horiz-adv-x="487" 
d="M142.5 265.5q-49.5 28.5 -78 77.5t-28.5 109t29 109t79 77.5t111 28.5q50 0 93 -19.5t66 -53.5q11 -16 11 -26q0 -13 -9 -22.5t-22 -9.5q-15 0 -26 14q-21 26 -50.5 40t-64.5 14q-65 0 -106 -42.5t-41 -109.5q0 -68 42 -111t108 -43q39 0 71.5 16t52.5 46v46h-106
q-12 0 -20.5 8t-8.5 20t8.5 19.5t20.5 7.5h139q14 0 24.5 -10t10.5 -25v-52q0 -25 -16 -49q-27 -40 -76 -64t-103 -24q-61 0 -110.5 28.5z" />
    <glyph glyph-name="H.ordn" horiz-adv-x="476" 
d="M399 657q10 -10 10 -24v-362q0 -14 -10 -24t-25 -10q-14 0 -24 10t-10 24v163h-205v-163q0 -14 -9.5 -24t-23.5 -10q-15 0 -25 10t-10 24v362q0 14 10 24t25 10q14 0 23.5 -10t9.5 -24v-137h205v137q0 14 10 24t24 10q15 0 25 -10z" />
    <glyph glyph-name="I.ordn" horiz-adv-x="201" 
d="M124.5 657q9.5 -10 9.5 -24v-362q0 -14 -9.5 -24t-23.5 -10t-24 10t-10 24v362q0 14 9.5 24t24.5 10q14 0 23.5 -10z" />
    <glyph glyph-name="L.ordn" horiz-adv-x="337" 
d="M125.5 657q9.5 -10 9.5 -24v-328h164q14 0 23 -9t9 -22t-9 -21.5t-23 -8.5h-196q-15 0 -25.5 10.5t-10.5 24.5v354q0 14 10 24t25 10q14 0 23.5 -10z" />
    <glyph glyph-name="M.ordn" horiz-adv-x="527" 
d="M449.5 657q9.5 -10 9.5 -24v-362q0 -15 -9 -24.5t-24 -9.5q-14 0 -24 10t-10 24v250l-99 -158q-13 -19 -29 -19q-9 0 -17 5.5t-13 13.5l-99 158v-250q0 -14 -9.5 -24t-23.5 -10q-15 0 -25 10t-10 24v363q0 14 10 23.5t25 9.5t26 -17l135 -212l132 208q15 21 31 21
q14 0 23.5 -10z" />
    <glyph glyph-name="N.ordn" horiz-adv-x="476" 
d="M399 656.5q10 -10.5 10 -26.5v-358q0 -15 -10 -25t-24 -10q-16 0 -32 20l-208 277v-263q0 -14 -9.5 -24t-23.5 -10q-15 0 -25 10t-10 24v363q0 14 10 23.5t25 9.5q7 0 14 -5t17 -17l207 -271v256q0 16 10 26.5t24 10.5q15 0 25 -10.5z" />
    <glyph glyph-name="O.ordn" horiz-adv-x="507" 
d="M363 638.5q50 -28.5 79 -78t29 -108.5t-29 -108.5t-79 -78t-110 -28.5t-110 28.5t-78.5 77.5t-28.5 109t28.5 109t78.5 77.5t110 28.5t110 -28.5zM147.5 561.5q-41.5 -42.5 -41.5 -109.5t41.5 -109.5t106.5 -42.5q64 0 106 43t42 109t-42 109t-106 43q-65 0 -106.5 -42.5
z" />
    <glyph glyph-name="R.ordn" horiz-adv-x="414" 
d="M389 271q0 -14 -9.5 -24t-23.5 -10q-18 0 -30 16l-108 151h-1h-82v-134q0 -13 -10 -23t-24 -10t-24 9.5t-10 23.5v352q0 16 11.5 27t27.5 11h111q63 0 101.5 -35t38.5 -92q0 -38 -18.5 -68t-51.5 -46l93 -125q9 -12 9 -23zM135 463h81q34 0 53.5 18.5t19.5 50.5
q0 31 -19.5 49.5t-53.5 18.5h-81v-137z" />
    <glyph glyph-name="S.ordn" horiz-adv-x="359" 
d="M96 256q-38 19 -63 52q-8 11 -8 23q0 13 10 22.5t23 9.5q14 0 24 -12q46 -51 98 -51q30 0 49 15t19 41q0 21 -15 36t-46 28l-44 18q-97 39 -97 117q0 51 37 81.5t94 30.5q44 0 77.5 -18.5t50.5 -45.5q4 -7 4 -15q0 -13 -10 -22.5t-23 -9.5t-23 11q-32 37 -75 37
q-26 0 -44 -12t-18 -37q0 -21 13.5 -34.5t40.5 -24.5l47 -20q101 -37 101 -119q0 -55 -39.5 -87.5t-99.5 -32.5q-45 0 -83 19z" />
    <glyph glyph-name="T.ordn" horiz-adv-x="380" 
d="M358 651.5q9 -8.5 9 -21.5t-9 -22.5t-23 -9.5h-111v-327q0 -14 -9.5 -24t-24.5 -10q-14 0 -24 10t-10 24v327h-110q-14 0 -23.5 9t-9.5 23q0 13 9.5 21.5t23.5 8.5h289q14 0 23 -8.5z" />
    <glyph glyph-name="U.ordn" horiz-adv-x="460" 
d="M389.5 657q9.5 -10 9.5 -24v-220q0 -51 -21.5 -91t-60 -62.5t-87.5 -22.5t-87.5 22.5t-60 62.5t-21.5 91v220q0 14 10 24t25 10q14 0 23.5 -10t9.5 -24v-226q0 -48 28 -77.5t73 -29.5t73 29.5t28 77.5v226q0 14 10 24t24 10q15 0 24.5 -10z" />
    <glyph glyph-name="Uacute.ordn" horiz-adv-x="460" 
d="M215.5 709.5q-8.5 8.5 -8.5 19.5q0 8 6 18l42 66q8 15 26 15q13 0 22.5 -9.5t9.5 -23.5q0 -11 -8 -23l-45 -57q-11 -14 -24 -14q-12 0 -20.5 8.5zM143.5 259q-38.5 22 -60.5 62t-22 92v222q0 14 10 23t25 9q14 0 23.5 -9t9.5 -23v-228q0 -49 28.5 -78t72.5 -29t72.5 29
t28.5 78v228q0 14 10 23t24 9q15 0 24.5 -9t9.5 -23v-222q0 -52 -22 -92t-60.5 -62t-86.5 -22t-86.5 22z" />
    <glyph glyph-name="Y.ordn" horiz-adv-x="402" 
d="M358 607l-123 -214v-122q0 -15 -9 -24.5t-24 -9.5t-24.5 10t-9.5 24v120l-124 216q-8 15 -8 27q0 14 9.5 23.5t24.5 9.5q18 0 29 -18l102 -177l102 177q11 18 29 18q15 0 25 -9.5t10 -23.5q0 -10 -9 -27z" />
    <glyph glyph-name="Z.ordn" horiz-adv-x="383" 
d="M352.5 296.5q9.5 -9.5 9.5 -22.5t-9.5 -21.5t-23.5 -8.5h-271q-14 0 -24 9.5t-10 23.5q0 12 8 23l233 298h-185q-14 0 -24 9.5t-10 22.5t10 21.5t24 8.5h244q14 0 23.5 -9.5t9.5 -23.5q0 -12 -8 -23l-233 -298h213q14 0 23.5 -9.5z" />
    <glyph glyph-name="a" unicode="a" horiz-adv-x="528" 
d="M399.5 445.5q50.5 -52.5 50.5 -145.5v-271q0 -17 -11 -28.5t-27 -11.5t-27.5 11.5t-11.5 28.5v28q-27 -33 -68 -50.5t-91 -17.5q-76 0 -123 37.5t-47 99.5t48 99t127 37h154v42q0 59 -31 91t-87 32q-70 0 -122 -55q-15 -15 -30 -15q-14 0 -24.5 10t-10.5 22q0 18 14 33
q31 37 77.5 56.5t100.5 19.5q89 0 139.5 -52.5zM298.5 71q34.5 18 54.5 49t20 67v12h-145q-52 0 -78.5 -17.5t-26.5 -52.5q0 -34 27.5 -55t73.5 -21q40 0 74.5 18z" />
    <glyph glyph-name="aacute" unicode="&#xe1;" horiz-adv-x="528" 
d="M399.5 445.5q50.5 -52.5 50.5 -145.5v-271q0 -17 -11 -28.5t-27 -11.5t-27.5 11.5t-11.5 28.5v28q-27 -33 -68 -50.5t-91 -17.5q-76 0 -123 37.5t-47 99.5t48 99t127 37h154v42q0 59 -31 91t-87 32q-70 0 -122 -55q-15 -15 -30 -15q-14 0 -24.5 10t-10.5 22q0 18 14 33
q31 37 77.5 56.5t100.5 19.5q89 0 139.5 -52.5zM298.5 71q34.5 18 54.5 49t20 67v12h-145q-52 0 -78.5 -17.5t-26.5 -52.5q0 -34 27.5 -55t73.5 -21q40 0 74.5 18zM253 574.5q-10 9.5 -10 23.5q0 8 5 18l63 141q5 11 14.5 17.5t22.5 6.5q15 0 26.5 -11.5t11.5 -27.5
q0 -9 -6 -21l-71 -134q-13 -22 -31 -22q-15 0 -25 9.5z" />
    <glyph glyph-name="abreve" unicode="&#x103;" horiz-adv-x="528" 
d="M399.5 445.5q50.5 -52.5 50.5 -145.5v-271q0 -17 -11 -28.5t-27 -11.5t-27.5 11.5t-11.5 28.5v28q-27 -33 -68 -50.5t-91 -17.5q-76 0 -123 37.5t-47 99.5t48 99t127 37h154v42q0 59 -31 91t-87 32q-70 0 -122 -55q-15 -15 -30 -15q-14 0 -24.5 10t-10.5 22q0 18 14 33
q31 37 77.5 56.5t100.5 19.5q89 0 139.5 -52.5zM298.5 71q34.5 18 54.5 49t20 67v12h-145q-52 0 -78.5 -17.5t-26.5 -52.5q0 -34 27.5 -55t73.5 -21q40 0 74.5 18zM184 602q-35 20 -56 53t-21 70q0 15 9 25t23 10q30 0 33 -32q3 -35 28 -58.5t59 -23.5t59 23.5t29 58.5
q1 14 10.5 23t21.5 9q14 0 23.5 -10t9.5 -25q0 -38 -20.5 -71t-56 -52.5t-76.5 -19.5q-40 0 -75 20z" />
    <glyph glyph-name="acircumflex" unicode="&#xe2;" horiz-adv-x="528" 
d="M399.5 445.5q50.5 -52.5 50.5 -145.5v-271q0 -17 -11 -28.5t-27 -11.5t-27.5 11.5t-11.5 28.5v28q-27 -33 -68 -50.5t-91 -17.5q-76 0 -123 37.5t-47 99.5t48 99t127 37h154v42q0 59 -31 91t-87 32q-70 0 -122 -55q-15 -15 -30 -15q-14 0 -24.5 10t-10.5 22q0 18 14 33
q31 37 77.5 56.5t100.5 19.5q89 0 139.5 -52.5zM298.5 71q34.5 18 54.5 49t20 67v12h-145q-52 0 -78.5 -17.5t-26.5 -52.5q0 -34 27.5 -55t73.5 -21q40 0 74.5 18zM405 599q0 -14 -10 -24t-24 -10q-8 0 -15 3.5t-11 9.5l-86 109l-85 -109q-4 -5 -11.5 -9t-14.5 -4
q-14 0 -24 10t-10 24t7 22l109 146q12 14 29 14q18 0 30 -14l108 -146q8 -10 8 -22z" />
    <glyph glyph-name="adieresis" unicode="&#xe4;" horiz-adv-x="528" 
d="M399.5 445.5q50.5 -52.5 50.5 -145.5v-271q0 -17 -11 -28.5t-27 -11.5t-27.5 11.5t-11.5 28.5v28q-27 -33 -68 -50.5t-91 -17.5q-76 0 -123 37.5t-47 99.5t48 99t127 37h154v42q0 59 -31 91t-87 32q-70 0 -122 -55q-15 -15 -30 -15q-14 0 -24.5 10t-10.5 22q0 18 14 33
q31 37 77.5 56.5t100.5 19.5q89 0 139.5 -52.5zM298.5 71q34.5 18 54.5 49t20 67v12h-145q-52 0 -78.5 -17.5t-26.5 -52.5q0 -34 27.5 -55t73.5 -21q40 0 74.5 18zM192 711.5q16 -15.5 16 -38.5q0 -22 -16 -37.5t-39 -15.5q-22 0 -38.5 16t-16.5 37q0 22 16.5 38t38.5 16
q23 0 39 -15.5zM403 711.5q16 -15.5 16 -38.5q0 -22 -16 -37.5t-39 -15.5q-22 0 -38.5 16t-16.5 37q0 22 16.5 38t38.5 16q23 0 39 -15.5z" />
    <glyph glyph-name="agrave" unicode="&#xe0;" horiz-adv-x="528" 
d="M399.5 445.5q50.5 -52.5 50.5 -145.5v-271q0 -17 -11 -28.5t-27 -11.5t-27.5 11.5t-11.5 28.5v28q-27 -33 -68 -50.5t-91 -17.5q-76 0 -123 37.5t-47 99.5t48 99t127 37h154v42q0 59 -31 91t-87 32q-70 0 -122 -55q-15 -15 -30 -15q-14 0 -24.5 10t-10.5 22q0 18 14 33
q31 37 77.5 56.5t100.5 19.5q89 0 139.5 -52.5zM298.5 71q34.5 18 54.5 49t20 67v12h-145q-52 0 -78.5 -17.5t-26.5 -52.5q0 -34 27.5 -55t73.5 -21q40 0 74.5 18zM209 587l-71 134q-6 12 -6 21q0 16 11.5 27.5t26.5 11.5q13 0 22.5 -6.5t14.5 -17.5l63 -141q5 -10 5 -18
q0 -14 -10 -23.5t-25 -9.5q-18 0 -31 22z" />
    <glyph glyph-name="amacron" unicode="&#x101;" horiz-adv-x="528" 
d="M399.5 445.5q50.5 -52.5 50.5 -145.5v-271q0 -17 -11 -28.5t-27 -11.5t-27.5 11.5t-11.5 28.5v28q-27 -33 -68 -50.5t-91 -17.5q-76 0 -123 37.5t-47 99.5t48 99t127 37h154v42q0 59 -31 91t-87 32q-70 0 -122 -55q-15 -15 -30 -15q-14 0 -24.5 10t-10.5 22q0 18 14 33
q31 37 77.5 56.5t100.5 19.5q89 0 139.5 -52.5zM298.5 71q34.5 18 54.5 49t20 67v12h-145q-52 0 -78.5 -17.5t-26.5 -52.5q0 -34 27.5 -55t73.5 -21q40 0 74.5 18zM390.5 695q9.5 -9 9.5 -22q0 -14 -9.5 -23t-23.5 -9h-217q-14 0 -23.5 9t-9.5 23q0 13 9.5 22t23.5 9h217
q14 0 23.5 -9z" />
    <glyph glyph-name="aogonek" unicode="&#x105;" horiz-adv-x="528" 
d="M399.5 445.5q50.5 -52.5 50.5 -145.5v-271q0 -17 -11 -28.5t-27 -11.5t-27.5 11.5t-11.5 28.5v28q-27 -33 -68 -50.5t-91 -17.5q-76 0 -123 37.5t-47 99.5t48 99t127 37h154v42q0 59 -31 91t-87 32q-70 0 -122 -55q-15 -15 -30 -15q-14 0 -24.5 10t-10.5 22q0 18 14 33
q31 37 77.5 56.5t100.5 19.5q89 0 139.5 -52.5zM298.5 71q34.5 18 54.5 49t20 67v12h-145q-52 0 -78.5 -17.5t-26.5 -52.5q0 -34 27.5 -55t73.5 -21q40 0 74.5 18zM309 -165.5q-29 25.5 -29 68.5q0 34 19 57.5t60 55.5q43 34 66 34q11 0 18 -7t7 -16q0 -22 -26 -38
q-71 -44 -71 -80q0 -16 13.5 -26.5t38.5 -10.5q11 0 19.5 1t14.5 1q12 0 19.5 -8t7.5 -21q0 -21 -25 -29q-23 -7 -55 -7q-48 0 -77 25.5z" />
    <glyph glyph-name="aring" unicode="&#xe5;" horiz-adv-x="528" 
d="M399.5 445.5q50.5 -52.5 50.5 -145.5v-271q0 -17 -11 -28.5t-27 -11.5t-27.5 11.5t-11.5 28.5v28q-27 -33 -68 -50.5t-91 -17.5q-76 0 -123 37.5t-47 99.5t48 99t127 37h154v42q0 59 -31 91t-87 32q-70 0 -122 -55q-15 -15 -30 -15q-14 0 -24.5 10t-10.5 22q0 18 14 33
q31 37 77.5 56.5t100.5 19.5q89 0 139.5 -52.5zM298.5 71q34.5 18 54.5 49t20 67v12h-145q-52 0 -78.5 -17.5t-26.5 -52.5q0 -34 27.5 -55t73.5 -21q40 0 74.5 18zM337.5 750q32.5 -31 32.5 -77t-32.5 -77.5t-79.5 -31.5q-46 0 -78 31.5t-32 77.5q0 45 32 76.5t78 31.5
q47 0 79.5 -31zM223.5 709.5q-14.5 -14.5 -14.5 -36.5t14 -36t36 -14t36 14t14 36t-14.5 36.5t-35.5 14.5t-35.5 -14.5z" />
    <glyph glyph-name="atilde" unicode="&#xe3;" horiz-adv-x="528" 
d="M399.5 445.5q50.5 -52.5 50.5 -145.5v-271q0 -17 -11 -28.5t-27 -11.5t-27.5 11.5t-11.5 28.5v28q-27 -33 -68 -50.5t-91 -17.5q-76 0 -123 37.5t-47 99.5t48 99t127 37h154v42q0 59 -31 91t-87 32q-70 0 -122 -55q-15 -15 -30 -15q-14 0 -24.5 10t-10.5 22q0 18 14 33
q31 37 77.5 56.5t100.5 19.5q89 0 139.5 -52.5zM298.5 71q34.5 18 54.5 49t20 67v12h-145q-52 0 -78.5 -17.5t-26.5 -52.5q0 -34 27.5 -55t73.5 -21q40 0 74.5 18zM263 622l-26 22q-18 15 -26 19.5t-16 4.5q-13 0 -20.5 -8.5t-7.5 -24.5q-1 -16 -10 -26t-23 -10
q-13 0 -22.5 11t-9.5 27q0 44 24 72.5t61 28.5t68 -26l26 -22q17 -15 25.5 -19.5t16.5 -4.5q13 0 20 8.5t8 24.5t10 26t22 10q14 0 23.5 -11t9.5 -27q0 -44 -24 -72.5t-61 -28.5t-68 26z" />
    <glyph glyph-name="ae" unicode="&#xe6;" horiz-adv-x="895" 
d="M737 469q50 -29 78.5 -80t28.5 -115v-12q0 -26 -11.5 -38.5t-35.5 -12.5h-342q11 -68 59 -109.5t118 -41.5q73 0 128 47q13 11 25 11q15 0 24.5 -9.5t9.5 -24.5q0 -10 -4 -18t-15 -17q-67 -60 -169 -60q-68 0 -124 31.5t-89 86.5q-25 -55 -78 -86.5t-124 -31.5
q-78 0 -125 38.5t-47 102.5q0 65 48 104.5t127 39.5h154v30q0 58 -31 90.5t-86 32.5q-67 0 -122 -55q-15 -15 -30 -15q-13 0 -24 10.5t-11 23.5q0 16 14 31q30 37 76.5 56.5t101.5 19.5q60 0 103 -26.5t63 -75.5q34 47 85 74.5t111 27.5q64 0 114 -29zM764 274q4 68 -36 111
t-107 43q-66 0 -111.5 -42.5t-54.5 -111.5h309zM299 72q34 18 54 48t20 66v25h-145q-105 0 -105 -73q0 -38 28 -61t74 -23q40 0 74 18z" />
    <glyph glyph-name="aeacute" unicode="&#x1fd;" horiz-adv-x="895" 
d="M737 469q50 -29 78.5 -80t28.5 -115v-12q0 -26 -11.5 -38.5t-35.5 -12.5h-342q11 -68 59 -109.5t118 -41.5q73 0 128 47q13 11 25 11q15 0 24.5 -9.5t9.5 -24.5q0 -10 -4 -18t-15 -17q-67 -60 -169 -60q-68 0 -124 31.5t-89 86.5q-25 -55 -78 -86.5t-124 -31.5
q-78 0 -125 38.5t-47 102.5q0 65 48 104.5t127 39.5h154v30q0 58 -31 90.5t-86 32.5q-67 0 -122 -55q-15 -15 -30 -15q-13 0 -24 10.5t-11 23.5q0 16 14 31q30 37 76.5 56.5t101.5 19.5q60 0 103 -26.5t63 -75.5q34 47 85 74.5t111 27.5q64 0 114 -29zM764 274q4 68 -36 111
t-107 43q-66 0 -111.5 -42.5t-54.5 -111.5h309zM299 72q34 18 54 48t20 66v25h-145q-105 0 -105 -73q0 -38 28 -61t74 -23q40 0 74 18zM420 574.5q-10 9.5 -10 23.5q0 8 5 18l63 141q5 11 14.5 17.5t22.5 6.5q15 0 26.5 -11.5t11.5 -27.5q0 -9 -6 -21l-71 -134
q-13 -22 -31 -22q-15 0 -25 9.5z" />
    <glyph glyph-name="b" unicode="b" horiz-adv-x="632" 
d="M464 465q55 -33 86.5 -91.5t31.5 -130.5q0 -71 -31.5 -129.5t-86 -91.5t-122.5 -33q-56 0 -103.5 22t-76.5 60v-42q0 -17 -11 -28.5t-27 -11.5q-17 0 -28 11.5t-11 28.5v692q0 17 11 28.5t28 11.5q16 0 27 -11.5t11 -28.5v-306q29 39 76 61t103 22q68 0 123 -33z
M418.5 84q39.5 24 62 66t22.5 94t-22.5 93.5t-62 65.5t-88.5 24q-76 0 -122.5 -50.5t-46.5 -133.5q0 -82 46.5 -132.5t122.5 -50.5q49 0 88.5 24z" />
    <glyph glyph-name="c" unicode="c" horiz-adv-x="551" 
d="M176.5 23q-58.5 34 -92.5 92.5t-34 128.5t34 128t92.5 92t128.5 34q64 0 115.5 -27.5t82.5 -74.5q7 -10 7 -21q0 -14 -10.5 -24.5t-24.5 -10.5q-16 0 -28 14q-59 73 -141 73q-49 0 -89.5 -24t-64 -66t-23.5 -93q0 -52 23 -94t63.5 -66t90.5 -24q82 0 141 73q12 13 27 13
t25.5 -10t10.5 -25q0 -10 -7 -21q-32 -46 -83 -73.5t-115 -27.5q-70 0 -128.5 34z" />
    <glyph glyph-name="cacute" unicode="&#x107;" horiz-adv-x="551" 
d="M176.5 23q-58.5 34 -92.5 92.5t-34 128.5t34 128t92.5 92t128.5 34q64 0 115.5 -27.5t82.5 -74.5q7 -10 7 -21q0 -14 -10.5 -24.5t-24.5 -10.5q-16 0 -28 14q-59 73 -141 73q-49 0 -89.5 -24t-64 -66t-23.5 -93q0 -52 23 -94t63.5 -66t90.5 -24q82 0 141 73q12 13 27 13
t25.5 -10t10.5 -25q0 -10 -7 -21q-32 -46 -83 -73.5t-115 -27.5q-70 0 -128.5 34zM298 574.5q-10 9.5 -10 23.5q0 8 5 18l63 141q5 11 14.5 17.5t22.5 6.5q15 0 26.5 -11.5t11.5 -27.5q0 -9 -6 -21l-71 -134q-13 -22 -31 -22q-15 0 -25 9.5z" />
    <glyph glyph-name="ccaron" unicode="&#x10d;" horiz-adv-x="551" 
d="M176.5 23q-58.5 34 -92.5 92.5t-34 128.5t34 128t92.5 92t128.5 34q64 0 115.5 -27.5t82.5 -74.5q7 -10 7 -21q0 -14 -10.5 -24.5t-24.5 -10.5q-16 0 -28 14q-59 73 -141 73q-49 0 -89.5 -24t-64 -66t-23.5 -93q0 -52 23 -94t63.5 -66t90.5 -24q82 0 141 73q12 13 27 13
t25.5 -10t10.5 -25q0 -10 -7 -21q-32 -46 -83 -73.5t-115 -27.5q-70 0 -128.5 34zM440 771q10 -10 10 -24q0 -12 -8 -22l-108 -146q-12 -14 -30 -14q-17 0 -29 14l-109 146q-7 8 -7 22t10 24t24 10q7 0 14.5 -4t11.5 -9l85 -109l86 109q4 6 11 9.5t15 3.5q14 0 24 -10z" />
    <glyph glyph-name="ccedilla" unicode="&#xe7;" horiz-adv-x="551" 
d="M176.5 23q-58.5 34 -92.5 92.5t-34 128.5t34 128t92.5 92t128.5 34q64 0 115.5 -27.5t82.5 -74.5q7 -10 7 -21q0 -14 -10.5 -24.5t-24.5 -10.5q-16 0 -28 14q-59 73 -141 73q-49 0 -89.5 -24t-64 -66t-23.5 -93q0 -52 23 -94t63.5 -66t90.5 -24q82 0 141 73q12 13 27 13
t25.5 -10t10.5 -25q0 -10 -7 -21q-32 -46 -83 -73.5t-115 -27.5q-70 0 -128.5 34zM189 -184q-24 10 -24 29q0 13 8.5 21.5t21.5 8.5q8 0 19.5 -2t25.5 -2q29 0 49 14.5t20 40.5q0 31 -23 60q-4 5 -11 12.5t-10 13.5t-3 12q0 11 7 18t20 7q18 0 39.5 -20t36 -49.5t14.5 -55.5
q0 -51 -38 -83t-97 -32q-36 0 -55 7z" />
    <glyph glyph-name="ccircumflex" unicode="&#x109;" horiz-adv-x="551" 
d="M176.5 23q-58.5 34 -92.5 92.5t-34 128.5t34 128t92.5 92t128.5 34q64 0 115.5 -27.5t82.5 -74.5q7 -10 7 -21q0 -14 -10.5 -24.5t-24.5 -10.5q-16 0 -28 14q-59 73 -141 73q-49 0 -89.5 -24t-64 -66t-23.5 -93q0 -52 23 -94t63.5 -66t90.5 -24q82 0 141 73q12 13 27 13
t25.5 -10t10.5 -25q0 -10 -7 -21q-32 -46 -83 -73.5t-115 -27.5q-70 0 -128.5 34zM450 599q0 -14 -10 -24t-24 -10q-8 0 -15 3.5t-11 9.5l-86 109l-85 -109q-4 -5 -11.5 -9t-14.5 -4q-14 0 -24 10t-10 24t7 22l109 146q12 14 29 14q18 0 30 -14l108 -146q8 -10 8 -22z" />
    <glyph glyph-name="cdotaccent" unicode="&#x10b;" horiz-adv-x="551" 
d="M176.5 23q-58.5 34 -92.5 92.5t-34 128.5t34 128t92.5 92t128.5 34q64 0 115.5 -27.5t82.5 -74.5q7 -10 7 -21q0 -14 -10.5 -24.5t-24.5 -10.5q-16 0 -28 14q-59 73 -141 73q-49 0 -89.5 -24t-64 -66t-23.5 -93q0 -52 23 -94t63.5 -66t90.5 -24q82 0 141 73q12 13 27 13
t25.5 -10t10.5 -25q0 -10 -7 -21q-32 -46 -83 -73.5t-115 -27.5q-70 0 -128.5 34zM343.5 711.5q16.5 -16.5 16.5 -38.5q0 -23 -16.5 -39t-39.5 -16t-40 16t-17 39q0 22 17 38.5t40 16.5t39.5 -16.5z" />
    <glyph glyph-name="d" unicode="d" horiz-adv-x="632" 
d="M537 749.5q11 -11.5 11 -28.5v-692q0 -17 -11 -28.5t-27 -11.5q-17 0 -28 11.5t-11 28.5v43q-29 -39 -76 -61t-104 -22q-68 0 -123 33t-86.5 91.5t-31.5 129.5q0 72 31.5 130t86.5 91.5t123 33.5q56 0 103.5 -22.5t76.5 -61.5v307q0 17 11 28.5t28 11.5q16 0 27 -11.5z
M425 110.5q47 50.5 47 132.5t-47 133t-123 51q-49 0 -88.5 -24t-62 -65.5t-22.5 -93.5t22.5 -94t62 -66t88.5 -24q76 0 123 50.5z" />
    <glyph glyph-name="eth" unicode="&#xf0;" horiz-adv-x="569" 
d="M496 323q22 -48 22 -101q0 -66 -30.5 -119t-84 -83.5t-119.5 -30.5t-119.5 30t-84 82t-30.5 116q0 63 29.5 114.5t81 81t114.5 29.5q30 0 60 -8l-101 140l-124 -60q-14 -7 -22 -7q-12 0 -21 9.5t-9 22.5q0 8 5 16t12 12l122 59l-54 74q-9 12 -9 25q0 15 11 25.5t26 10.5
q18 0 31 -19l62 -84l125 60q13 7 21 7q13 0 22 -9.5t9 -22.5q0 -8 -5 -16t-12 -12l-122 -59l108 -147q64 -88 86 -136zM363.5 80.5q35.5 20.5 55.5 56.5t20 80q0 68 -44 112t-111 44q-44 0 -79.5 -20.5t-55.5 -56t-20 -80.5q0 -68 44 -112t111 -44q44 0 79.5 20.5z" />
    <glyph glyph-name="dcaron" unicode="&#x10f;" horiz-adv-x="754" 
d="M537 749.5q11 -11.5 11 -28.5v-692q0 -17 -11 -28.5t-27 -11.5q-17 0 -28 11.5t-11 28.5v43q-29 -39 -76 -61t-104 -22q-68 0 -123 33t-86.5 91.5t-31.5 129.5q0 72 31.5 130t86.5 91.5t123 33.5q56 0 103.5 -22.5t76.5 -61.5v307q0 17 11 28.5t28 11.5q16 0 27 -11.5z
M425 110.5q47 50.5 47 132.5t-47 133t-123 51q-49 0 -88.5 -24t-62 -65.5t-22.5 -93.5t22.5 -94t62 -66t88.5 -24q76 0 123 50.5zM647.5 545.5q-10.5 12.5 -7.5 31.5l21 146q2 17 13.5 27.5t27.5 10.5t28 -10.5t12 -28.5q0 -3 -2 -13l-32 -147q-2 -10 -10.5 -19.5
t-23.5 -9.5q-16 0 -26.5 12.5z" />
    <glyph glyph-name="dcroat" unicode="&#x111;" horiz-adv-x="634" 
d="M623 636q10 -9 10 -23q0 -13 -10 -22.5t-24 -9.5h-53v-552q0 -17 -11 -28.5t-27 -11.5t-27 11.5t-11 28.5v45q-30 -40 -78 -62.5t-105 -22.5q-66 0 -120.5 32.5t-86 89t-31.5 125.5t31.5 126t85.5 89.5t121 32.5q57 0 105 -22.5t78 -62.5v182h-190q-14 0 -23.5 9.5
t-9.5 22.5q0 14 9.5 23t23.5 9h190v76q0 17 11 28.5t27 11.5t27 -11.5t11 -28.5v-76h53q14 0 24 -9zM423.5 107q46.5 49 46.5 129t-46.5 129.5t-122.5 49.5q-49 0 -88.5 -23t-62 -64t-22.5 -92t22 -91.5t61.5 -63.5t89.5 -23q76 0 122.5 49z" />
    <glyph glyph-name="e" unicode="e" horiz-adv-x="571" 
d="M413.5 469q50.5 -29 79 -80t28.5 -116v-5q0 -48 -47 -48h-344q8 -72 57 -116t122 -44q72 0 127 47q13 11 26 11q14 0 24 -9.5t10 -24.5q0 -10 -4 -17.5t-15 -17.5q-72 -60 -169 -60q-73 0 -132 33t-92.5 91t-33.5 130q0 70 33 128.5t90.5 92.5t125.5 34q64 0 114.5 -29z
M190.5 389.5q-44.5 -38.5 -57.5 -101.5h309q-2 62 -42 101t-103 39q-62 0 -106.5 -38.5z" />
    <glyph glyph-name="eacute" unicode="&#xe9;" horiz-adv-x="571" 
d="M413.5 469q50.5 -29 79 -80t28.5 -116v-5q0 -48 -47 -48h-344q8 -72 57 -116t122 -44q72 0 127 47q13 11 26 11q14 0 24 -9.5t10 -24.5q0 -10 -4 -17.5t-15 -17.5q-72 -60 -169 -60q-73 0 -132 33t-92.5 91t-33.5 130q0 70 33 128.5t90.5 92.5t125.5 34q64 0 114.5 -29z
M190.5 389.5q-44.5 -38.5 -57.5 -101.5h309q-2 62 -42 101t-103 39q-62 0 -106.5 -38.5zM291 574.5q-10 9.5 -10 23.5q0 8 5 18l63 141q5 11 14.5 17.5t22.5 6.5q15 0 26.5 -11.5t11.5 -27.5q0 -9 -6 -21l-71 -134q-13 -22 -31 -22q-15 0 -25 9.5z" />
    <glyph glyph-name="ebreve" unicode="&#x115;" horiz-adv-x="571" 
d="M413.5 469q50.5 -29 79 -80t28.5 -116v-5q0 -48 -47 -48h-344q8 -72 57 -116t122 -44q72 0 127 47q13 11 26 11q14 0 24 -9.5t10 -24.5q0 -10 -4 -17.5t-15 -17.5q-72 -60 -169 -60q-73 0 -132 33t-92.5 91t-33.5 130q0 70 33 128.5t90.5 92.5t125.5 34q64 0 114.5 -29z
M190.5 389.5q-44.5 -38.5 -57.5 -101.5h309q-2 62 -42 101t-103 39q-62 0 -106.5 -38.5zM222 602q-35 20 -56 53t-21 70q0 15 9 25t23 10q30 0 33 -32q3 -35 28 -58.5t59 -23.5t59 23.5t29 58.5q1 14 10.5 23t21.5 9q14 0 23.5 -10t9.5 -25q0 -38 -20.5 -71t-56 -52.5
t-76.5 -19.5q-40 0 -75 20z" />
    <glyph glyph-name="ecaron" unicode="&#x11b;" horiz-adv-x="571" 
d="M413.5 469q50.5 -29 79 -80t28.5 -116v-5q0 -48 -47 -48h-344q8 -72 57 -116t122 -44q72 0 127 47q13 11 26 11q14 0 24 -9.5t10 -24.5q0 -10 -4 -17.5t-15 -17.5q-72 -60 -169 -60q-73 0 -132 33t-92.5 91t-33.5 130q0 70 33 128.5t90.5 92.5t125.5 34q64 0 114.5 -29z
M190.5 389.5q-44.5 -38.5 -57.5 -101.5h309q-2 62 -42 101t-103 39q-62 0 -106.5 -38.5zM433 771q10 -10 10 -24q0 -12 -8 -22l-108 -146q-12 -14 -30 -14q-17 0 -29 14l-109 146q-7 8 -7 22t10 24t24 10q7 0 14.5 -4t11.5 -9l85 -109l86 109q4 6 11 9.5t15 3.5q14 0 24 -10
z" />
    <glyph glyph-name="ecircumflex" unicode="&#xea;" horiz-adv-x="571" 
d="M413.5 469q50.5 -29 79 -80t28.5 -116v-5q0 -48 -47 -48h-344q8 -72 57 -116t122 -44q72 0 127 47q13 11 26 11q14 0 24 -9.5t10 -24.5q0 -10 -4 -17.5t-15 -17.5q-72 -60 -169 -60q-73 0 -132 33t-92.5 91t-33.5 130q0 70 33 128.5t90.5 92.5t125.5 34q64 0 114.5 -29z
M190.5 389.5q-44.5 -38.5 -57.5 -101.5h309q-2 62 -42 101t-103 39q-62 0 -106.5 -38.5zM443 599q0 -14 -10 -24t-24 -10q-8 0 -15 3.5t-11 9.5l-86 109l-85 -109q-4 -5 -11.5 -9t-14.5 -4q-14 0 -24 10t-10 24t7 22l109 146q12 14 29 14q18 0 30 -14l108 -146q8 -10 8 -22z
" />
    <glyph glyph-name="edieresis" unicode="&#xeb;" horiz-adv-x="571" 
d="M413.5 469q50.5 -29 79 -80t28.5 -116v-5q0 -48 -47 -48h-344q8 -72 57 -116t122 -44q72 0 127 47q13 11 26 11q14 0 24 -9.5t10 -24.5q0 -10 -4 -17.5t-15 -17.5q-72 -60 -169 -60q-73 0 -132 33t-92.5 91t-33.5 130q0 70 33 128.5t90.5 92.5t125.5 34q64 0 114.5 -29z
M190.5 389.5q-44.5 -38.5 -57.5 -101.5h309q-2 62 -42 101t-103 39q-62 0 -106.5 -38.5zM230 711.5q16 -15.5 16 -38.5q0 -22 -16 -37.5t-39 -15.5q-22 0 -38.5 16t-16.5 37q0 22 16.5 38t38.5 16q23 0 39 -15.5zM441 711.5q16 -15.5 16 -38.5q0 -22 -16 -37.5t-39 -15.5
q-22 0 -38.5 16t-16.5 37q0 22 16.5 38t38.5 16q23 0 39 -15.5z" />
    <glyph glyph-name="edotaccent" unicode="&#x117;" horiz-adv-x="571" 
d="M413.5 469q50.5 -29 79 -80t28.5 -116v-5q0 -48 -47 -48h-344q8 -72 57 -116t122 -44q72 0 127 47q13 11 26 11q14 0 24 -9.5t10 -24.5q0 -10 -4 -17.5t-15 -17.5q-72 -60 -169 -60q-73 0 -132 33t-92.5 91t-33.5 130q0 70 33 128.5t90.5 92.5t125.5 34q64 0 114.5 -29z
M190.5 389.5q-44.5 -38.5 -57.5 -101.5h309q-2 62 -42 101t-103 39q-62 0 -106.5 -38.5zM336.5 711.5q16.5 -16.5 16.5 -38.5q0 -23 -16.5 -39t-39.5 -16t-40 16t-17 39q0 22 17 38.5t40 16.5t39.5 -16.5z" />
    <glyph glyph-name="egrave" unicode="&#xe8;" horiz-adv-x="571" 
d="M413.5 469q50.5 -29 79 -80t28.5 -116v-5q0 -48 -47 -48h-344q8 -72 57 -116t122 -44q72 0 127 47q13 11 26 11q14 0 24 -9.5t10 -24.5q0 -10 -4 -17.5t-15 -17.5q-72 -60 -169 -60q-73 0 -132 33t-92.5 91t-33.5 130q0 70 33 128.5t90.5 92.5t125.5 34q64 0 114.5 -29z
M190.5 389.5q-44.5 -38.5 -57.5 -101.5h309q-2 62 -42 101t-103 39q-62 0 -106.5 -38.5zM247 587l-71 134q-6 12 -6 21q0 16 11.5 27.5t26.5 11.5q13 0 22.5 -6.5t14.5 -17.5l63 -141q5 -10 5 -18q0 -14 -10 -23.5t-25 -9.5q-18 0 -31 22z" />
    <glyph glyph-name="emacron" unicode="&#x113;" horiz-adv-x="571" 
d="M413.5 469q50.5 -29 79 -80t28.5 -116v-5q0 -48 -47 -48h-344q8 -72 57 -116t122 -44q72 0 127 47q13 11 26 11q14 0 24 -9.5t10 -24.5q0 -10 -4 -17.5t-15 -17.5q-72 -60 -169 -60q-73 0 -132 33t-92.5 91t-33.5 130q0 70 33 128.5t90.5 92.5t125.5 34q64 0 114.5 -29z
M190.5 389.5q-44.5 -38.5 -57.5 -101.5h309q-2 62 -42 101t-103 39q-62 0 -106.5 -38.5zM428.5 695q9.5 -9 9.5 -22q0 -14 -9.5 -23t-23.5 -9h-217q-14 0 -23.5 9t-9.5 23q0 13 9.5 22t23.5 9h217q14 0 23.5 -9z" />
    <glyph glyph-name="eogonek" unicode="&#x119;" horiz-adv-x="571" 
d="M413.5 469q50.5 -29 79 -80t28.5 -116v-5q0 -48 -47 -48h-344q8 -72 57 -116t122 -44q72 0 127 47q13 11 26 11q14 0 24 -9.5t10 -24.5q0 -10 -4 -17.5t-15 -17.5q-20 -16 -31 -22l-23 -16q-7 -5 -36 -24.5t-44.5 -39t-15.5 -38.5q0 -18 14 -28t38 -10q11 0 19.5 1.5
t14.5 1.5q11 0 18.5 -8t7.5 -20q0 -23 -24 -30q-25 -7 -54 -7q-49 0 -78.5 25t-29.5 67q0 43 46 88q-71 2 -127.5 35.5t-89 91t-32.5 127.5t33 128.5t90.5 92.5t125.5 34q64 0 114.5 -29zM190.5 389.5q-44.5 -38.5 -57.5 -101.5h309q-2 62 -42 101t-103 39
q-62 0 -106.5 -38.5z" />
    <glyph glyph-name="f" unicode="f" horiz-adv-x="303" 
d="M196.5 667.5q-22.5 -23.5 -22.5 -69.5v-111h96q15 0 25 -10t10 -24q0 -15 -10 -25t-25 -10h-96v-389q0 -17 -11 -28.5t-27 -11.5t-27.5 11.5t-11.5 28.5v389h-44q-15 0 -25 10t-10 25q0 14 10 24t25 10h44v116q0 74 41.5 116t114.5 42q29 0 49 -7q27 -7 27 -35
q0 -14 -9 -22t-25 -8q-6 0 -13.5 1t-18.5 1q-44 0 -66.5 -23.5z" />
    <glyph glyph-name="g" unicode="g" horiz-adv-x="637" 
d="M542 485.5q11 -11.5 11 -28.5v-410q0 -110 -63.5 -174t-173.5 -64q-59 0 -114.5 20.5t-98.5 57.5q-12 12 -12 28q0 15 10 25.5t26 10.5q12 0 22 -8q42 -32 82 -47.5t83 -15.5q77 0 119.5 42.5t42.5 120.5v43q-29 -38 -76.5 -59.5t-104.5 -21.5q-68 0 -122.5 32t-85.5 88
t-31 126t31 126.5t85.5 88.5t122.5 32q57 0 104.5 -22.5t76.5 -61.5v43q0 17 11 28.5t28 11.5q16 0 27 -11.5zM430.5 124q46.5 48 46.5 127q0 78 -47 126t-123 48q-49 0 -88.5 -22.5t-62 -62.5t-22.5 -90t22 -89.5t61.5 -62t89.5 -22.5q77 0 123.5 48z" />
    <glyph glyph-name="gbreve" unicode="&#x11f;" horiz-adv-x="637" 
d="M542 485.5q11 -11.5 11 -28.5v-410q0 -110 -63.5 -174t-173.5 -64q-59 0 -114.5 20.5t-98.5 57.5q-12 12 -12 28q0 15 10 25.5t26 10.5q12 0 22 -8q42 -32 82 -47.5t83 -15.5q77 0 119.5 42.5t42.5 120.5v43q-29 -38 -76.5 -59.5t-104.5 -21.5q-68 0 -122.5 32t-85.5 88
t-31 126t31 126.5t85.5 88.5t122.5 32q57 0 104.5 -22.5t76.5 -61.5v43q0 17 11 28.5t28 11.5q16 0 27 -11.5zM430.5 124q46.5 48 46.5 127q0 78 -47 126t-123 48q-49 0 -88.5 -22.5t-62 -62.5t-22.5 -90t22 -89.5t61.5 -62t89.5 -22.5q77 0 123.5 48zM236 602
q-35 20 -56 53t-21 70q0 15 9 25t23 10q30 0 33 -32q3 -35 28 -58.5t59 -23.5t59 23.5t29 58.5q1 14 10.5 23t21.5 9q14 0 23.5 -10t9.5 -25q0 -38 -20.5 -71t-56 -52.5t-76.5 -19.5q-40 0 -75 20z" />
    <glyph glyph-name="gcircumflex" unicode="&#x11d;" horiz-adv-x="637" 
d="M542 485.5q11 -11.5 11 -28.5v-410q0 -110 -63.5 -174t-173.5 -64q-59 0 -114.5 20.5t-98.5 57.5q-12 12 -12 28q0 15 10 25.5t26 10.5q12 0 22 -8q42 -32 82 -47.5t83 -15.5q77 0 119.5 42.5t42.5 120.5v43q-29 -38 -76.5 -59.5t-104.5 -21.5q-68 0 -122.5 32t-85.5 88
t-31 126t31 126.5t85.5 88.5t122.5 32q57 0 104.5 -22.5t76.5 -61.5v43q0 17 11 28.5t28 11.5q16 0 27 -11.5zM430.5 124q46.5 48 46.5 127q0 78 -47 126t-123 48q-49 0 -88.5 -22.5t-62 -62.5t-22.5 -90t22 -89.5t61.5 -62t89.5 -22.5q77 0 123.5 48zM457 599
q0 -14 -10 -24t-24 -10q-8 0 -15 3.5t-11 9.5l-86 109l-85 -109q-4 -5 -11.5 -9t-14.5 -4q-14 0 -24 10t-10 24t7 22l109 146q12 14 29 14q18 0 30 -14l108 -146q8 -10 8 -22z" />
    <glyph glyph-name="gcommaaccent" unicode="&#x123;" horiz-adv-x="637" 
d="M542 485.5q11 -11.5 11 -28.5v-410q0 -110 -63.5 -174t-173.5 -64q-59 0 -114.5 20.5t-98.5 57.5q-12 12 -12 28q0 15 10 25.5t26 10.5q12 0 22 -8q42 -32 82 -47.5t83 -15.5q77 0 119.5 42.5t42.5 120.5v43q-29 -38 -76.5 -59.5t-104.5 -21.5q-68 0 -122.5 32t-85.5 88
t-31 126t31 126.5t85.5 88.5t122.5 32q57 0 104.5 -22.5t76.5 -61.5v43q0 17 11 28.5t28 11.5q16 0 27 -11.5zM430.5 124q46.5 48 46.5 127q0 78 -47 126t-123 48q-49 0 -88.5 -22.5t-62 -62.5t-22.5 -90t22 -89.5t61.5 -62t89.5 -22.5q77 0 123.5 48zM282.5 576
q-11.5 11 -11.5 28q0 31 10 81.5t20 85.5q7 29 33 29q12 0 21.5 -8.5t9.5 -23.5l-3 -21q-14 -94 -14 -143q0 -17 -11.5 -28t-26.5 -11q-16 0 -27.5 11z" />
    <glyph glyph-name="gdotaccent" unicode="&#x121;" horiz-adv-x="637" 
d="M542 485.5q11 -11.5 11 -28.5v-410q0 -110 -63.5 -174t-173.5 -64q-59 0 -114.5 20.5t-98.5 57.5q-12 12 -12 28q0 15 10 25.5t26 10.5q12 0 22 -8q42 -32 82 -47.5t83 -15.5q77 0 119.5 42.5t42.5 120.5v43q-29 -38 -76.5 -59.5t-104.5 -21.5q-68 0 -122.5 32t-85.5 88
t-31 126t31 126.5t85.5 88.5t122.5 32q57 0 104.5 -22.5t76.5 -61.5v43q0 17 11 28.5t28 11.5q16 0 27 -11.5zM430.5 124q46.5 48 46.5 127q0 78 -47 126t-123 48q-49 0 -88.5 -22.5t-62 -62.5t-22.5 -90t22 -89.5t61.5 -62t89.5 -22.5q77 0 123.5 48zM350.5 711.5
q16.5 -16.5 16.5 -38.5q0 -23 -16.5 -39t-39.5 -16t-40 16t-17 39q0 22 17 38.5t40 16.5t39.5 -16.5z" />
    <glyph glyph-name="h" unicode="h" horiz-adv-x="566" 
d="M439 446q49 -52 49 -140v-277q0 -17 -11 -28.5t-27 -11.5q-17 0 -28 11.5t-11 28.5v267q0 59 -33.5 95t-87.5 36q-56 0 -92 -37t-36 -94v-267q0 -17 -11 -28.5t-27 -11.5q-17 0 -28 11.5t-11 28.5v692q0 17 11 28.5t28 11.5q16 0 27 -11.5t11 -28.5v-289q25 32 62.5 49
t83.5 17q82 0 131 -52z" />
    <glyph glyph-name="hbar" unicode="&#x127;" horiz-adv-x="570" 
d="M442.5 432q49.5 -52 49.5 -139v-264q0 -17 -11 -28.5t-27 -11.5q-17 0 -28 11.5t-11 28.5v255q0 58 -33.5 93.5t-87.5 35.5q-57 0 -93.5 -36t-36.5 -93v-255q0 -17 -11 -28.5t-27 -11.5t-27 11.5t-11 28.5v550h-51q-15 0 -25.5 10t-10.5 24q0 15 10.5 24.5t25.5 9.5h51
v74q0 17 11 28.5t27 11.5t27 -11.5t11 -28.5v-74h171q15 0 25 -9.5t10 -24.5q0 -14 -10.5 -24t-24.5 -10h-171v-162q25 32 62.5 49.5t84.5 17.5q82 0 131.5 -52z" />
    <glyph glyph-name="hcircumflex" unicode="&#x125;" horiz-adv-x="566" 
d="M439 446q49 -52 49 -140v-277q0 -17 -11 -28.5t-27 -11.5q-17 0 -28 11.5t-11 28.5v267q0 59 -33.5 95t-87.5 36q-56 0 -92 -37t-36 -94v-267q0 -17 -11 -28.5t-27 -11.5q-17 0 -28 11.5t-11 28.5v692q0 17 11 28.5t28 11.5q16 0 27 -11.5t11 -28.5v-289q25 32 62.5 49
t83.5 17q82 0 131 -52zM317 840q0 -13 -8.5 -21.5t-20.5 -8.5q-11 0 -23 10l-104 99l-104 -99q-12 -10 -22 -10q-13 0 -21.5 8.5t-8.5 21.5q0 11 11 22l123 124q10 10 22 10q13 0 23 -10l122 -124q11 -11 11 -22z" />
    <glyph glyph-name="i" unicode="i" horiz-adv-x="246" 
d="M95.5 0.5q-10.5 11.5 -10.5 28.5v429q0 17 11 28.5t28 11.5q16 0 27 -11.5t11 -28.5v-429q0 -16 -11.5 -28t-28.5 -12q-16 0 -26.5 11.5zM163.5 711.5q16.5 -16.5 16.5 -38.5q0 -23 -16.5 -39t-39.5 -16t-40 16t-17 39q0 22 17 38.5t40 16.5t39.5 -16.5z" />
    <glyph glyph-name="dotlessi" unicode="&#x131;" horiz-adv-x="246" 
d="M95.5 0.5q-10.5 11.5 -10.5 28.5v429q0 17 11 28.5t28 11.5q16 0 27 -11.5t11 -28.5v-429q0 -16 -11.5 -28t-28.5 -12q-16 0 -26.5 11.5z" />
    <glyph glyph-name="iacute" unicode="&#xed;" horiz-adv-x="246" 
d="M95.5 0.5q-10.5 11.5 -10.5 28.5v429q0 17 11 28.5t28 11.5q16 0 27 -11.5t11 -28.5v-429q0 -16 -11.5 -28t-28.5 -12q-16 0 -26.5 11.5zM128 566q-12 0 -21.5 7.5t-11.5 19.5q0 12 2 19l38 149q5 25 32 31q14 2 27.5 -7t16.5 -25l1 -7q0 -4 -3 -15l-47 -144
q-9 -25 -26 -27q-3 -1 -8 -1z" />
    <glyph glyph-name="ibreve" unicode="&#x12d;" horiz-adv-x="246" 
d="M95.5 0.5q-10.5 11.5 -10.5 28.5v429q0 17 11 28.5t28 11.5q16 0 27 -11.5t11 -28.5v-429q0 -16 -11.5 -28t-28.5 -12q-16 0 -26.5 11.5zM49 602q-35 20 -56 53t-21 70q0 15 9 25t23 10q30 0 33 -32q3 -35 28 -58.5t59 -23.5t59 23.5t29 58.5q1 14 10.5 23t21.5 9
q14 0 23.5 -10t9.5 -25q0 -38 -20.5 -71t-56 -52.5t-76.5 -19.5q-40 0 -75 20z" />
    <glyph glyph-name="icircumflex" unicode="&#xee;" horiz-adv-x="246" 
d="M95.5 0.5q-10.5 11.5 -10.5 28.5v429q0 17 11 28.5t28 11.5q16 0 27 -11.5t11 -28.5v-429q0 -16 -11.5 -28t-28.5 -12q-16 0 -26.5 11.5zM270 599q0 -14 -10 -24t-24 -10q-8 0 -15 3.5t-11 9.5l-86 109l-85 -109q-4 -5 -11.5 -9t-14.5 -4q-14 0 -24 10t-10 24t7 22
l109 146q12 14 29 14q18 0 30 -14l108 -146q8 -10 8 -22z" />
    <glyph glyph-name="idieresis" unicode="&#xef;" horiz-adv-x="246" 
d="M95.5 0.5q-10.5 11.5 -10.5 28.5v429q0 17 11 28.5t28 11.5q16 0 27 -11.5t11 -28.5v-429q0 -16 -11.5 -28t-28.5 -12q-16 0 -26.5 11.5zM-5.5 635.5q-16.5 15.5 -16.5 37.5t16.5 38t38.5 16q23 0 39 -15.5t16 -38.5q0 -22 -16 -37.5t-39 -15.5q-22 0 -38.5 15.5z
M175.5 636q-16.5 16 -16.5 37q0 22 16.5 38t38.5 16q23 0 39 -15.5t16 -38.5q0 -22 -16 -37.5t-39 -15.5q-22 0 -38.5 16z" />
    <glyph glyph-name="igrave" unicode="&#xec;" horiz-adv-x="246" 
d="M95.5 0.5q-10.5 11.5 -10.5 28.5v429q0 17 11 28.5t28 11.5q16 0 27 -11.5t11 -28.5v-429q0 -16 -11.5 -28t-28.5 -12q-16 0 -26.5 11.5zM90 593l-34 148q-1 6 -1 13q0 6 1 8q3 13 14 21t24 8q16 0 26 -9.5t12 -23.5l24 -153q3 -10 1 -19q-3 -11 -11.5 -17.5t-19.5 -6.5
q-4 0 -12 2q-17 4 -24 29z" />
    <glyph glyph-name="ij" unicode="&#x133;" horiz-adv-x="492" 
d="M95.5 0.5q-10.5 11.5 -10.5 28.5v429q0 17 11 28.5t28 11.5q16 0 27 -11.5t11 -28.5v-429q0 -16 -11.5 -28t-28.5 -12q-16 0 -26.5 11.5zM163.5 711.5q16.5 -16.5 16.5 -38.5q0 -23 -16.5 -39t-39.5 -16t-40 16t-17 39q0 22 17 38.5t40 16.5t39.5 -16.5zM210 -188
q-15 2 -25 12t-10 23q0 14 10 23.5t25 9.5l26 -1q42 0 68.5 21t26.5 72v486q0 17 11 28.5t28 11.5q16 0 27 -11.5t11 -28.5v-491q0 -80 -43.5 -119t-117.5 -39q-19 0 -37 3zM409.5 711.5q16.5 -16.5 16.5 -38.5q0 -23 -16.5 -39t-39.5 -16t-40 16t-17 39q0 22 17 38.5
t40 16.5t39.5 -16.5z" />
    <glyph glyph-name="imacron" unicode="&#x12b;" horiz-adv-x="246" 
d="M95.5 0.5q-10.5 11.5 -10.5 28.5v429q0 17 11 28.5t28 11.5q16 0 27 -11.5t11 -28.5v-429q0 -16 -11.5 -28t-28.5 -12q-16 0 -26.5 11.5zM229.5 695q9.5 -9 9.5 -22q0 -14 -9.5 -23t-23.5 -9h-164q-13 0 -22.5 9.5t-9.5 22.5t9.5 22t22.5 9h164q14 0 23.5 -9z" />
    <glyph glyph-name="iogonek" unicode="&#x12f;" horiz-adv-x="246" 
d="M95.5 0.5q-10.5 11.5 -10.5 28.5v429q0 17 11 28.5t28 11.5q16 0 27 -11.5t11 -28.5v-429q0 -16 -11.5 -28t-28.5 -12q-16 0 -26.5 11.5zM163.5 711.5q16.5 -16.5 16.5 -38.5q0 -23 -16.5 -39t-39.5 -16t-40 16t-17 39q0 22 17 38.5t40 16.5t39.5 -16.5zM21 -165.5
q-29 25.5 -29 68.5q0 34 19 57.5t60 55.5q43 34 66 34q11 0 18 -7t7 -16q0 -22 -26 -38q-71 -44 -71 -80q0 -16 13.5 -26.5t38.5 -10.5q11 0 19.5 1t14.5 1q12 0 19.5 -8t7.5 -21q0 -21 -25 -29q-23 -7 -55 -7q-48 0 -77 25.5z" />
    <glyph glyph-name="itilde" unicode="&#x129;" horiz-adv-x="246" 
d="M95.5 0.5q-10.5 11.5 -10.5 28.5v429q0 17 11 28.5t28 11.5q16 0 27 -11.5t11 -28.5v-429q0 -16 -11.5 -28t-28.5 -12q-16 0 -26.5 11.5zM124 625l-19 18q-24 24 -38 24q-26 0 -26 -32q-1 -16 -10 -26t-23 -10q-13 0 -22.5 11t-9.5 27q0 44 24 72.5t61 28.5q31 0 64 -29
l19 -18q15 -14 22.5 -19t15.5 -5q25 0 26 32q1 16 10 26t22 10q14 0 23.5 -11t9.5 -27q0 -44 -24 -72.5t-61 -28.5q-31 0 -64 29z" />
    <glyph glyph-name="j" unicode="j" horiz-adv-x="246" 
d="M-36 -188q-15 2 -25 12t-10 23q0 14 10 23.5t25 9.5l26 -1q42 0 68.5 21t26.5 72v486q0 17 11 28.5t28 11.5q16 0 27 -11.5t11 -28.5v-491q0 -80 -43.5 -119t-117.5 -39q-19 0 -37 3zM163.5 711.5q16.5 -16.5 16.5 -38.5q0 -23 -16.5 -39t-39.5 -16t-40 16t-17 39
q0 22 17 38.5t40 16.5t39.5 -16.5z" />
    <glyph glyph-name="uni0237" unicode="&#x237;" horiz-adv-x="246" 
d="M-36 -188q-15 2 -25 12t-10 23q0 14 10 23.5t25 9.5l26 -1q42 0 68.5 21t26.5 72v486q0 17 11 28.5t28 11.5q16 0 27 -11.5t11 -28.5v-491q0 -80 -43.5 -119t-117.5 -39q-19 0 -37 3z" />
    <glyph glyph-name="jcircumflex" unicode="&#x135;" horiz-adv-x="246" 
d="M-36 -188q-15 2 -25 12t-10 23q0 14 10 23.5t25 9.5l26 -1q42 0 68.5 21t26.5 72v486q0 17 11 28.5t28 11.5q16 0 27 -11.5t11 -28.5v-491q0 -80 -43.5 -119t-117.5 -39q-19 0 -37 3zM270 599q0 -14 -10 -24t-24 -10q-8 0 -15 3.5t-11 9.5l-86 109l-85 -109
q-4 -5 -11.5 -9t-14.5 -4q-14 0 -24 10t-10 24t7 22l109 146q12 14 29 14q18 0 30 -14l108 -146q8 -10 8 -22z" />
    <glyph glyph-name="k" unicode="k" horiz-adv-x="506" 
d="M151 749.5q11 -11.5 11 -28.5v-692q0 -17 -11 -28.5t-27 -11.5q-17 0 -28 11.5t-11 28.5v692q0 17 11 28.5t28 11.5q16 0 27 -11.5zM487 26q0 -16 -11 -26.5t-27 -10.5q-18 0 -33 18l-217 237q-11 11 -11 28t11 28l195 186q5 5 13.5 8.5t15.5 3.5q16 0 27 -10.5t11 -24.5
q0 -16 -17 -32l-170 -158l201 -220q12 -10 12 -27z" />
    <glyph glyph-name="kcommaaccent" unicode="&#x137;" horiz-adv-x="506" 
d="M151 749.5q11 -11.5 11 -28.5v-692q0 -17 -11 -28.5t-27 -11.5q-17 0 -28 11.5t-11 28.5v692q0 17 11 28.5t28 11.5q16 0 27 -11.5zM487 26q0 -16 -11 -26.5t-27 -10.5q-18 0 -33 18l-217 237q-11 11 -11 28t11 28l195 186q5 5 13.5 8.5t15.5 3.5q16 0 27 -10.5t11 -24.5
q0 -16 -17 -32l-170 -158l201 -220q12 -10 12 -27zM210.5 -211q-10.5 10 -10.5 22q0 5 4 21q9 36 9 82q0 16 11.5 27.5t27.5 11.5t27.5 -11.5t11.5 -27.5q0 -51 -20 -101q-6 -17 -16 -25.5t-21 -8.5q-13 0 -23.5 10z" />
    <glyph glyph-name="l" unicode="l" horiz-adv-x="246" 
d="M96 0.5q-11 11.5 -11 28.5v692q0 17 11 28.5t28 11.5q16 0 27 -11.5t11 -28.5v-692q0 -17 -11 -28.5t-27 -11.5q-17 0 -28 11.5z" />
    <glyph glyph-name="lacute" unicode="&#x13a;" horiz-adv-x="246" 
d="M96 0.5q-11 11.5 -11 28.5v692q0 17 11 28.5t28 11.5q16 0 27 -11.5t11 -28.5v-692q0 -17 -11 -28.5t-27 -11.5q-17 0 -28 11.5zM114.5 828q-8.5 10 -8.5 23q0 6 4 16l65 125q5 10 14 15.5t20 5.5q17 0 28.5 -11.5t11.5 -27.5q0 -13 -7 -24l-71 -113q-12 -21 -34 -20
q-14 1 -22.5 11z" />
    <glyph glyph-name="lcaron" unicode="&#x13e;" horiz-adv-x="368" 
d="M96 0.5q-11 11.5 -11 28.5v692q0 17 11 28.5t28 11.5q16 0 27 -11.5t11 -28.5v-692q0 -17 -11 -28.5t-27 -11.5q-17 0 -28 11.5zM261.5 545.5q-10.5 12.5 -7.5 31.5l21 146q2 17 13.5 27.5t27.5 10.5t28 -10.5t12 -28.5q0 -3 -2 -13l-32 -147q-2 -10 -10.5 -19.5
t-23.5 -9.5q-16 0 -26.5 12.5z" />
    <glyph glyph-name="lcommaaccent" unicode="&#x13c;" horiz-adv-x="246" 
d="M96 0.5q-11 11.5 -11 28.5v692q0 17 11 28.5t28 11.5q16 0 27 -11.5t11 -28.5v-692q0 -17 -11 -28.5t-27 -11.5q-17 0 -28 11.5zM80.5 -211q-10.5 10 -10.5 22q0 5 4 21q9 36 9 82q0 16 11.5 27.5t27.5 11.5t27.5 -11.5t11.5 -27.5q0 -51 -20 -101q-6 -17 -16 -25.5
t-21 -8.5q-13 0 -23.5 10z" />
    <glyph glyph-name="ldot" unicode="&#x140;" horiz-adv-x="313" 
d="M96 0.5q-11 11.5 -11 28.5v692q0 17 11 28.5t28 11.5q16 0 27 -11.5t11 -28.5v-692q0 -17 -11 -28.5t-27 -11.5q-17 0 -28 11.5zM233.5 269.5q-18.5 18.5 -18.5 44.5t18.5 44.5t44.5 18.5t44.5 -18.5t18.5 -44.5t-18.5 -44.5t-44.5 -18.5t-44.5 18.5z" />
    <glyph glyph-name="lslash" unicode="&#x142;" horiz-adv-x="360" 
d="M293.5 425q9.5 -9 9.5 -22q0 -25 -19 -33l-73 -33v-308q0 -17 -10.5 -28.5t-27.5 -11.5q-16 0 -27.5 11.5t-11.5 28.5v282l-34 -16q-8 -4 -16 -4q-13 0 -23 9t-10 22q0 23 20 33l63 29v337q0 17 11.5 28.5t27.5 11.5q17 0 27.5 -11.5t10.5 -28.5v-311l43 20q10 4 16 4
q14 0 23.5 -9z" />
    <glyph glyph-name="m" unicode="m" horiz-adv-x="874" 
d="M748.5 446.5q47.5 -51.5 47.5 -140.5v-277q0 -17 -11 -28.5t-27 -11.5q-17 0 -28 11.5t-11 28.5v267q0 60 -31 95.5t-84 35.5q-54 0 -89.5 -35.5t-35.5 -88.5v-274q0 -17 -11 -28.5t-27 -11.5q-17 0 -28 11.5t-11 28.5v267q0 59 -32 95t-84 36q-55 0 -89.5 -36.5
t-34.5 -94.5v-267q0 -17 -11 -28.5t-27 -11.5q-17 0 -28 11.5t-11 28.5v429q0 17 11 28.5t28 11.5q16 0 27 -11.5t11 -28.5v-16q54 56 140 56q52 0 90.5 -21.5t59.5 -62.5q27 39 71 61.5t96 22.5q82 0 129.5 -51.5z" />
    <glyph glyph-name="n" unicode="n" horiz-adv-x="566" 
d="M439 446q49 -52 49 -140v-277q0 -17 -11 -28.5t-27 -11.5q-17 0 -28 11.5t-11 28.5v268q0 59 -33.5 94.5t-87.5 35.5q-56 0 -92 -36.5t-36 -93.5v-268q0 -17 -11 -28.5t-27 -11.5q-17 0 -28 11.5t-11 28.5v429q0 17 11 28.5t28 11.5q16 0 27 -11.5t11 -28.5v-18
q27 27 64 42.5t81 15.5q83 0 132 -52z" />
    <glyph glyph-name="nacute" unicode="&#x144;" horiz-adv-x="566" 
d="M439 446q49 -52 49 -140v-277q0 -17 -11 -28.5t-27 -11.5q-17 0 -28 11.5t-11 28.5v268q0 59 -33.5 94.5t-87.5 35.5q-56 0 -92 -36.5t-36 -93.5v-268q0 -17 -11 -28.5t-27 -11.5q-17 0 -28 11.5t-11 28.5v429q0 17 11 28.5t28 11.5q16 0 27 -11.5t11 -28.5v-18
q27 27 64 42.5t81 15.5q83 0 132 -52zM279 574.5q-10 9.5 -10 23.5q0 8 5 18l63 141q5 11 14.5 17.5t22.5 6.5q15 0 26.5 -11.5t11.5 -27.5q0 -9 -6 -21l-71 -134q-13 -22 -31 -22q-15 0 -25 9.5z" />
    <glyph glyph-name="ncaron" unicode="&#x148;" horiz-adv-x="566" 
d="M439 446q49 -52 49 -140v-277q0 -17 -11 -28.5t-27 -11.5q-17 0 -28 11.5t-11 28.5v268q0 59 -33.5 94.5t-87.5 35.5q-56 0 -92 -36.5t-36 -93.5v-268q0 -17 -11 -28.5t-27 -11.5q-17 0 -28 11.5t-11 28.5v429q0 17 11 28.5t28 11.5q16 0 27 -11.5t11 -28.5v-18
q27 27 64 42.5t81 15.5q83 0 132 -52zM421 771q10 -10 10 -24q0 -12 -8 -22l-108 -146q-12 -14 -30 -14q-17 0 -29 14l-109 146q-7 8 -7 22t10 24t24 10q7 0 14.5 -4t11.5 -9l85 -109l86 109q4 6 11 9.5t15 3.5q14 0 24 -10z" />
    <glyph glyph-name="ncommaaccent" unicode="&#x146;" horiz-adv-x="566" 
d="M439 446q49 -52 49 -140v-277q0 -17 -11 -28.5t-27 -11.5q-17 0 -28 11.5t-11 28.5v268q0 59 -33.5 94.5t-87.5 35.5q-56 0 -92 -36.5t-36 -93.5v-268q0 -17 -11 -28.5t-27 -11.5q-17 0 -28 11.5t-11 28.5v429q0 17 11 28.5t28 11.5q16 0 27 -11.5t11 -28.5v-18
q27 27 64 42.5t81 15.5q83 0 132 -52zM241.5 -211q-10.5 10 -10.5 22q0 5 4 21q9 36 9 82q0 16 11.5 27.5t27.5 11.5t27.5 -11.5t11.5 -27.5q0 -51 -20 -101q-6 -17 -16 -25.5t-21 -8.5q-13 0 -23.5 10z" />
    <glyph glyph-name="eng" unicode="&#x14b;" horiz-adv-x="566" 
d="M439 446q49 -52 49 -140v-339q0 -80 -43.5 -119t-117.5 -39q-19 0 -37 3q-15 2 -24.5 12t-9.5 23q0 14 9.5 23.5t24.5 9.5l26 -1q42 0 68.5 21.5t26.5 71.5v325q0 59 -33.5 94.5t-87.5 35.5q-56 0 -92 -36.5t-36 -93.5v-268q0 -17 -11 -28.5t-27 -11.5q-17 0 -28 11.5
t-11 28.5v429q0 17 11 28.5t28 11.5q16 0 27 -11.5t11 -28.5v-18q27 27 64 42.5t81 15.5q83 0 132 -52z" />
    <glyph glyph-name="ntilde" unicode="&#xf1;" horiz-adv-x="566" 
d="M439 446q49 -52 49 -140v-277q0 -17 -11 -28.5t-27 -11.5q-17 0 -28 11.5t-11 28.5v268q0 59 -33.5 94.5t-87.5 35.5q-56 0 -92 -36.5t-36 -93.5v-268q0 -17 -11 -28.5t-27 -11.5q-17 0 -28 11.5t-11 28.5v429q0 17 11 28.5t28 11.5q16 0 27 -11.5t11 -28.5v-18
q27 27 64 42.5t81 15.5q83 0 132 -52zM289 622l-26 22q-18 15 -26 19.5t-16 4.5q-13 0 -20.5 -8.5t-7.5 -24.5q-1 -16 -10 -26t-23 -10q-13 0 -22.5 11t-9.5 27q0 44 24 72.5t61 28.5t68 -26l26 -22q17 -15 25.5 -19.5t16.5 -4.5q13 0 20 8.5t8 24.5t10 26t22 10
q14 0 23.5 -11t9.5 -27q0 -44 -24 -72.5t-61 -28.5t-68 26z" />
    <glyph glyph-name="o" unicode="o" horiz-adv-x="610" 
d="M433.5 464q58.5 -34 92.5 -92t34 -128q0 -69 -34 -127.5t-93 -92.5t-129 -34t-128 34t-92 92.5t-34 127.5q0 70 34 128.5t92.5 92t128.5 33.5t128.5 -34zM214.5 403q-40.5 -24 -63 -66t-22.5 -94q0 -51 23 -92.5t63 -65.5t89 -24t89.5 24t64 65.5t23.5 92.5q0 52 -23 94
t-63.5 66t-89.5 24q-50 0 -90.5 -24z" />
    <glyph glyph-name="oacute" unicode="&#xf3;" horiz-adv-x="610" 
d="M433.5 464q58.5 -34 92.5 -92t34 -128q0 -69 -34 -127.5t-93 -92.5t-129 -34t-128 34t-92 92.5t-34 127.5q0 70 34 128.5t92.5 92t128.5 33.5t128.5 -34zM214.5 403q-40.5 -24 -63 -66t-22.5 -94q0 -51 23 -92.5t63 -65.5t89 -24t89.5 24t64 65.5t23.5 92.5q0 52 -23 94
t-63.5 66t-89.5 24q-50 0 -90.5 -24zM299 574.5q-10 9.5 -10 23.5q0 8 5 18l63 141q5 11 14.5 17.5t22.5 6.5q15 0 26.5 -11.5t11.5 -27.5q0 -9 -6 -21l-71 -134q-13 -22 -31 -22q-15 0 -25 9.5z" />
    <glyph glyph-name="obreve" unicode="&#x14f;" horiz-adv-x="610" 
d="M433.5 464q58.5 -34 92.5 -92t34 -128q0 -69 -34 -127.5t-93 -92.5t-129 -34t-128 34t-92 92.5t-34 127.5q0 70 34 128.5t92.5 92t128.5 33.5t128.5 -34zM214.5 403q-40.5 -24 -63 -66t-22.5 -94q0 -51 23 -92.5t63 -65.5t89 -24t89.5 24t64 65.5t23.5 92.5q0 52 -23 94
t-63.5 66t-89.5 24q-50 0 -90.5 -24zM230 602q-35 20 -56 53t-21 70q0 15 9 25t23 10q30 0 33 -32q3 -35 28 -58.5t59 -23.5t59 23.5t29 58.5q1 14 10.5 23t21.5 9q14 0 23.5 -10t9.5 -25q0 -38 -20.5 -71t-56 -52.5t-76.5 -19.5q-40 0 -75 20z" />
    <glyph glyph-name="ocircumflex" unicode="&#xf4;" horiz-adv-x="610" 
d="M433.5 464q58.5 -34 92.5 -92t34 -128q0 -69 -34 -127.5t-93 -92.5t-129 -34t-128 34t-92 92.5t-34 127.5q0 70 34 128.5t92.5 92t128.5 33.5t128.5 -34zM214.5 403q-40.5 -24 -63 -66t-22.5 -94q0 -51 23 -92.5t63 -65.5t89 -24t89.5 24t64 65.5t23.5 92.5q0 52 -23 94
t-63.5 66t-89.5 24q-50 0 -90.5 -24zM451 599q0 -14 -10 -24t-24 -10q-8 0 -15 3.5t-11 9.5l-86 109l-85 -109q-4 -5 -11.5 -9t-14.5 -4q-14 0 -24 10t-10 24t7 22l109 146q12 14 29 14q18 0 30 -14l108 -146q8 -10 8 -22z" />
    <glyph glyph-name="odieresis" unicode="&#xf6;" horiz-adv-x="610" 
d="M433.5 464q58.5 -34 92.5 -92t34 -128q0 -69 -34 -127.5t-93 -92.5t-129 -34t-128 34t-92 92.5t-34 127.5q0 70 34 128.5t92.5 92t128.5 33.5t128.5 -34zM214.5 403q-40.5 -24 -63 -66t-22.5 -94q0 -51 23 -92.5t63 -65.5t89 -24t89.5 24t64 65.5t23.5 92.5q0 52 -23 94
t-63.5 66t-89.5 24q-50 0 -90.5 -24zM238 711.5q16 -15.5 16 -38.5q0 -22 -16 -37.5t-39 -15.5q-22 0 -38.5 16t-16.5 37q0 22 16.5 38t38.5 16q23 0 39 -15.5zM449 711.5q16 -15.5 16 -38.5q0 -22 -16 -37.5t-39 -15.5q-22 0 -38.5 16t-16.5 37q0 22 16.5 38t38.5 16
q23 0 39 -15.5z" />
    <glyph glyph-name="ograve" unicode="&#xf2;" horiz-adv-x="610" 
d="M433.5 464q58.5 -34 92.5 -92t34 -128q0 -69 -34 -127.5t-93 -92.5t-129 -34t-128 34t-92 92.5t-34 127.5q0 70 34 128.5t92.5 92t128.5 33.5t128.5 -34zM214.5 403q-40.5 -24 -63 -66t-22.5 -94q0 -51 23 -92.5t63 -65.5t89 -24t89.5 24t64 65.5t23.5 92.5q0 52 -23 94
t-63.5 66t-89.5 24q-50 0 -90.5 -24zM255 587l-71 134q-6 12 -6 21q0 16 11.5 27.5t26.5 11.5q13 0 22.5 -6.5t14.5 -17.5l63 -141q5 -10 5 -18q0 -14 -10 -23.5t-25 -9.5q-18 0 -31 22z" />
    <glyph glyph-name="ohungarumlaut" unicode="&#x151;" horiz-adv-x="610" 
d="M433.5 464q58.5 -34 92.5 -92t34 -128q0 -69 -34 -127.5t-93 -92.5t-129 -34t-128 34t-92 92.5t-34 127.5q0 70 34 128.5t92.5 92t128.5 33.5t128.5 -34zM214.5 403q-40.5 -24 -63 -66t-22.5 -94q0 -51 23 -92.5t63 -65.5t89 -24t89.5 24t64 65.5t23.5 92.5q0 52 -23 94
t-63.5 66t-89.5 24q-50 0 -90.5 -24zM203 574.5q-10 9.5 -10 23.5q0 8 5 18l63 141q5 11 14.5 17.5t22.5 6.5q15 0 26.5 -11.5t11.5 -27.5q0 -9 -6 -21l-71 -134q-13 -22 -31 -22q-15 0 -25 9.5zM365 574.5q-10 9.5 -10 23.5q0 8 5 18l63 141q5 11 14.5 17.5t22.5 6.5
q15 0 26.5 -11.5t11.5 -27.5q0 -9 -6 -21l-71 -134q-13 -22 -31 -22q-15 0 -25 9.5z" />
    <glyph glyph-name="omacron" unicode="&#x14d;" horiz-adv-x="610" 
d="M433.5 464q58.5 -34 92.5 -92t34 -128q0 -69 -34 -127.5t-93 -92.5t-129 -34t-128 34t-92 92.5t-34 127.5q0 70 34 128.5t92.5 92t128.5 33.5t128.5 -34zM214.5 403q-40.5 -24 -63 -66t-22.5 -94q0 -51 23 -92.5t63 -65.5t89 -24t89.5 24t64 65.5t23.5 92.5q0 52 -23 94
t-63.5 66t-89.5 24q-50 0 -90.5 -24zM436.5 695q9.5 -9 9.5 -22q0 -14 -9.5 -23t-23.5 -9h-217q-14 0 -23.5 9t-9.5 23q0 13 9.5 22t23.5 9h217q14 0 23.5 -9z" />
    <glyph glyph-name="oslash" unicode="&#xf8;" horiz-adv-x="621" 
d="M513 398q52 -68 52 -155q0 -69 -34.5 -127.5t-93 -92.5t-128.5 -34q-86 0 -154 52l-48 -49q-12 -13 -26 -13t-24 10.5t-10 24.5q0 13 12 26l49 49q-25 32 -38.5 71.5t-13.5 82.5q0 70 34 128.5t92 92.5t128 34q87 0 155 -52l49 49q14 12 26 12q14 0 24.5 -10t10.5 -24
q0 -13 -13 -26zM218 406q-41 -24 -64.5 -67t-23.5 -96q0 -60 30 -107l258 259q-48 35 -108 35q-51 0 -92 -24zM401.5 79.5q41.5 24.5 65.5 67.5t24 96q0 60 -30 107l-259 -259q45 -36 107 -36q51 0 92.5 24.5z" />
    <glyph glyph-name="oslashacute" unicode="&#x1ff;" horiz-adv-x="621" 
d="M513 398q52 -68 52 -155q0 -69 -34.5 -127.5t-93 -92.5t-128.5 -34q-86 0 -154 52l-48 -49q-12 -13 -26 -13t-24 10.5t-10 24.5q0 13 12 26l49 49q-25 32 -38.5 71.5t-13.5 82.5q0 70 34 128.5t92 92.5t128 34q87 0 155 -52l49 49q14 12 26 12q14 0 24.5 -10t10.5 -24
q0 -13 -13 -26zM218 406q-41 -24 -64.5 -67t-23.5 -96q0 -60 30 -107l258 259q-48 35 -108 35q-51 0 -92 -24zM401.5 79.5q41.5 24.5 65.5 67.5t24 96q0 60 -30 107l-259 -259q45 -36 107 -36q51 0 92.5 24.5zM305 574.5q-10 9.5 -10 23.5q0 8 5 18l63 141q5 11 14.5 17.5
t22.5 6.5q15 0 26.5 -11.5t11.5 -27.5q0 -9 -6 -21l-71 -134q-13 -22 -31 -22q-15 0 -25 9.5z" />
    <glyph glyph-name="otilde" unicode="&#xf5;" horiz-adv-x="610" 
d="M433.5 464q58.5 -34 92.5 -92t34 -128q0 -69 -34 -127.5t-93 -92.5t-129 -34t-128 34t-92 92.5t-34 127.5q0 70 34 128.5t92.5 92t128.5 33.5t128.5 -34zM214.5 403q-40.5 -24 -63 -66t-22.5 -94q0 -51 23 -92.5t63 -65.5t89 -24t89.5 24t64 65.5t23.5 92.5q0 52 -23 94
t-63.5 66t-89.5 24q-50 0 -90.5 -24zM309 622l-26 22q-18 15 -26 19.5t-16 4.5q-13 0 -20.5 -8.5t-7.5 -24.5q-1 -16 -10 -26t-23 -10q-13 0 -22.5 11t-9.5 27q0 44 24 72.5t61 28.5t68 -26l26 -22q17 -15 25.5 -19.5t16.5 -4.5q13 0 20 8.5t8 24.5t10 26t22 10
q14 0 23.5 -11t9.5 -27q0 -44 -24 -72.5t-61 -28.5t-68 26z" />
    <glyph glyph-name="oe" unicode="&#x153;" horiz-adv-x="981" 
d="M823.5 469q50.5 -29 79 -80t28.5 -116v-5q0 -48 -47 -48h-337q7 -73 53.5 -116.5t118.5 -43.5q73 0 128 47q13 11 25 11q15 0 24.5 -9.5t9.5 -24.5q0 -10 -4 -17.5t-15 -17.5q-67 -60 -169 -60q-68 0 -123 32.5t-87 88.5q-30 -56 -84.5 -88.5t-121.5 -32.5
q-69 0 -127 33.5t-91.5 92t-33.5 128.5t34 128.5t92 92.5t127 34q67 0 121 -32.5t84 -89.5q31 56 84 89t117 33t114.5 -29zM603.5 390q-42.5 -38 -53.5 -102h302q-2 62 -42 101t-103 39q-61 0 -103.5 -38zM388.5 83.5q38.5 23.5 60.5 65.5t22 94q0 53 -21.5 95t-60 65.5
t-86.5 23.5q-49 0 -89 -24t-62.5 -66t-22.5 -94t22.5 -93.5t62 -65.5t88.5 -24q48 0 86.5 23.5z" />
    <glyph glyph-name="p" unicode="p" horiz-adv-x="632" 
d="M464 465q55 -33 86.5 -91t31.5 -130t-31.5 -130.5t-86.5 -91.5t-123 -33q-56 0 -103 22t-76 60v-223q0 -17 -11 -28.5t-27 -11.5q-17 0 -28 11.5t-11 28.5v612q0 17 11 28t28 11q16 0 27 -11.5t11 -27.5v-44q29 38 76 60t103 22q68 0 123 -33zM418.5 84q39.5 24 62 65.5
t22.5 93.5t-22.5 94t-62 66t-88.5 24q-76 0 -122.5 -50.5t-46.5 -132.5q0 -83 46.5 -133.5t122.5 -50.5q49 0 88.5 24z" />
    <glyph glyph-name="thorn" unicode="&#xfe;" horiz-adv-x="632" 
d="M464 465q55 -33 86.5 -91t31.5 -130t-31.5 -130.5t-86.5 -91.5t-123 -33q-56 0 -103 22t-76 60v-223q0 -17 -11 -28.5t-27 -11.5q-17 0 -28 11.5t-11 28.5v873q0 17 11 28.5t28 11.5q16 0 27 -11.5t11 -28.5v-305q29 38 76 60t103 22q68 0 123 -33zM418.5 84
q39.5 24 62 65.5t22.5 93.5t-22.5 94t-62 66t-88.5 24q-76 0 -122.5 -50.5t-46.5 -132.5q0 -83 46.5 -133.5t122.5 -50.5q49 0 88.5 24z" />
    <glyph glyph-name="q" unicode="q" horiz-adv-x="632" 
d="M537 486.5q11 -11.5 11 -28.5v-610q0 -17 -11 -28.5t-27 -11.5q-17 0 -28 11.5t-11 28.5v224q-29 -39 -76.5 -61t-103.5 -22q-68 0 -123 33.5t-86.5 91.5t-31.5 130q0 71 31.5 129.5t86.5 91.5t123 33q57 0 104 -22t76 -61v43q0 17 11 28.5t28 11.5q16 0 27 -11.5z
M425 111q47 51 47 133t-47 132.5t-123 50.5q-49 0 -88.5 -24t-62 -66t-22.5 -94t22.5 -93.5t62 -65.5t88.5 -24q76 0 123 51z" />
    <glyph glyph-name="r" unicode="r" horiz-adv-x="362" 
d="M342 481q11 -10 11 -26t-11 -26t-28 -10q-66 0 -109 -41t-43 -103v-246q0 -17 -11 -28.5t-27 -11.5q-17 0 -28 11.5t-11 28.5v429q0 17 11 28.5t28 11.5q16 0 27 -11.5t11 -28.5v-36q27 33 66.5 51t85.5 18q17 0 28 -10z" />
    <glyph glyph-name="racute" unicode="&#x155;" horiz-adv-x="362" 
d="M342 481q11 -10 11 -26t-11 -26t-28 -10q-66 0 -109 -41t-43 -103v-246q0 -17 -11 -28.5t-27 -11.5q-17 0 -28 11.5t-11 28.5v429q0 17 11 28.5t28 11.5q16 0 27 -11.5t11 -28.5v-36q27 33 66.5 51t85.5 18q17 0 28 -10zM167 574.5q-10 9.5 -10 23.5q0 8 5 18l63 141
q5 11 14.5 17.5t22.5 6.5q15 0 26.5 -11.5t11.5 -27.5q0 -9 -6 -21l-71 -134q-13 -22 -31 -22q-15 0 -25 9.5z" />
    <glyph glyph-name="rcaron" unicode="&#x159;" horiz-adv-x="362" 
d="M342 481q11 -10 11 -26t-11 -26t-28 -10q-66 0 -109 -41t-43 -103v-246q0 -17 -11 -28.5t-27 -11.5q-17 0 -28 11.5t-11 28.5v429q0 17 11 28.5t28 11.5q16 0 27 -11.5t11 -28.5v-36q27 33 66.5 51t85.5 18q17 0 28 -10zM309 771q10 -10 10 -24q0 -12 -8 -22l-108 -146
q-12 -14 -30 -14q-17 0 -29 14l-109 146q-7 8 -7 22t10 24t24 10q7 0 14.5 -4t11.5 -9l85 -109l86 109q4 6 11 9.5t15 3.5q14 0 24 -10z" />
    <glyph glyph-name="rcommaaccent" unicode="&#x157;" horiz-adv-x="362" 
d="M342 481q11 -10 11 -26t-11 -26t-28 -10q-66 0 -109 -41t-43 -103v-246q0 -17 -11 -28.5t-27 -11.5q-17 0 -28 11.5t-11 28.5v429q0 17 11 28.5t28 11.5q16 0 27 -11.5t11 -28.5v-36q27 33 66.5 51t85.5 18q17 0 28 -10zM79.5 -211q-10.5 10 -10.5 22q0 5 4 21q9 36 9 82
q0 16 11.5 27.5t27.5 11.5t27.5 -11.5t11.5 -27.5q0 -51 -20 -101q-6 -17 -16 -25.5t-21 -8.5q-13 0 -23.5 10z" />
    <glyph glyph-name="s" unicode="s" horiz-adv-x="454" 
d="M127.5 11.5q-45.5 22.5 -77.5 59.5q-10 11 -10 25q0 15 11 25.5t26 10.5q14 0 27 -11q28 -29 58 -45t66 -16q40 0 66.5 18.5t26.5 50.5q0 29 -20 44.5t-65 33.5l-47 20q-61 26 -91 56t-30 79q0 64 47 100t117 36q48 0 87.5 -18t66.5 -49q10 -11 10 -25t-10 -24t-24 -10
q-7 0 -13 3.5t-16 11.5q-21 18 -48 29t-57 11q-36 0 -58.5 -16t-22.5 -45q0 -24 18 -38.5t61 -32.5l45 -19q68 -29 98.5 -61.5t30.5 -82.5q0 -68 -49.5 -105.5t-121.5 -37.5q-56 0 -101.5 22.5z" />
    <glyph glyph-name="sacute" unicode="&#x15b;" horiz-adv-x="454" 
d="M127.5 11.5q-45.5 22.5 -77.5 59.5q-10 11 -10 25q0 15 11 25.5t26 10.5q14 0 27 -11q28 -29 58 -45t66 -16q40 0 66.5 18.5t26.5 50.5q0 29 -20 44.5t-65 33.5l-47 20q-61 26 -91 56t-30 79q0 64 47 100t117 36q48 0 87.5 -18t66.5 -49q10 -11 10 -25t-10 -24t-24 -10
q-7 0 -13 3.5t-16 11.5q-21 18 -48 29t-57 11q-36 0 -58.5 -16t-22.5 -45q0 -24 18 -38.5t61 -32.5l45 -19q68 -29 98.5 -61.5t30.5 -82.5q0 -68 -49.5 -105.5t-121.5 -37.5q-56 0 -101.5 22.5zM224 574.5q-10 9.5 -10 23.5q0 8 5 18l63 141q5 11 14.5 17.5t22.5 6.5
q15 0 26.5 -11.5t11.5 -27.5q0 -9 -6 -21l-71 -134q-13 -22 -31 -22q-15 0 -25 9.5z" />
    <glyph glyph-name="scaron" unicode="&#x161;" horiz-adv-x="454" 
d="M127.5 11.5q-45.5 22.5 -77.5 59.5q-10 11 -10 25q0 15 11 25.5t26 10.5q14 0 27 -11q28 -29 58 -45t66 -16q40 0 66.5 18.5t26.5 50.5q0 29 -20 44.5t-65 33.5l-47 20q-61 26 -91 56t-30 79q0 64 47 100t117 36q48 0 87.5 -18t66.5 -49q10 -11 10 -25t-10 -24t-24 -10
q-7 0 -13 3.5t-16 11.5q-21 18 -48 29t-57 11q-36 0 -58.5 -16t-22.5 -45q0 -24 18 -38.5t61 -32.5l45 -19q68 -29 98.5 -61.5t30.5 -82.5q0 -68 -49.5 -105.5t-121.5 -37.5q-56 0 -101.5 22.5zM366 771q10 -10 10 -24q0 -12 -8 -22l-108 -146q-12 -14 -30 -14q-17 0 -29 14
l-109 146q-7 8 -7 22t10 24t24 10q7 0 14.5 -4t11.5 -9l85 -109l86 109q4 6 11 9.5t15 3.5q14 0 24 -10z" />
    <glyph glyph-name="scedilla" unicode="&#x15f;" horiz-adv-x="454" 
d="M127.5 11.5q-45.5 22.5 -77.5 59.5q-10 11 -10 25q0 15 11 25.5t26 10.5q14 0 27 -11q28 -29 58 -45t66 -16q40 0 66.5 18.5t26.5 50.5q0 29 -20 44.5t-65 33.5l-47 20q-61 26 -91 56t-30 79q0 64 47 100t117 36q48 0 87.5 -18t66.5 -49q10 -11 10 -25t-10 -24t-24 -10
q-7 0 -13 3.5t-16 11.5q-21 18 -48 29t-57 11q-36 0 -58.5 -16t-22.5 -45q0 -24 18 -38.5t61 -32.5l45 -19q68 -29 98.5 -61.5t30.5 -82.5q0 -68 -49.5 -105.5t-121.5 -37.5q-56 0 -101.5 22.5zM127 -184q-24 10 -24 29q0 13 8.5 21.5t21.5 8.5q8 0 19.5 -2t25.5 -2
q29 0 49 14.5t20 40.5q0 31 -23 60q-4 5 -11 12.5t-10 13.5t-3 12q0 11 7 18t20 7q18 0 39.5 -20t36 -49.5t14.5 -55.5q0 -51 -38 -83t-97 -32q-36 0 -55 7z" />
    <glyph glyph-name="scircumflex" unicode="&#x15d;" horiz-adv-x="454" 
d="M127.5 11.5q-45.5 22.5 -77.5 59.5q-10 11 -10 25q0 15 11 25.5t26 10.5q14 0 27 -11q28 -29 58 -45t66 -16q40 0 66.5 18.5t26.5 50.5q0 29 -20 44.5t-65 33.5l-47 20q-61 26 -91 56t-30 79q0 64 47 100t117 36q48 0 87.5 -18t66.5 -49q10 -11 10 -25t-10 -24t-24 -10
q-7 0 -13 3.5t-16 11.5q-21 18 -48 29t-57 11q-36 0 -58.5 -16t-22.5 -45q0 -24 18 -38.5t61 -32.5l45 -19q68 -29 98.5 -61.5t30.5 -82.5q0 -68 -49.5 -105.5t-121.5 -37.5q-56 0 -101.5 22.5zM376 599q0 -14 -10 -24t-24 -10q-8 0 -15 3.5t-11 9.5l-86 109l-85 -109
q-4 -5 -11.5 -9t-14.5 -4q-14 0 -24 10t-10 24t7 22l109 146q12 14 29 14q18 0 30 -14l108 -146q8 -10 8 -22z" />
    <glyph glyph-name="scommaaccent" unicode="&#x219;" horiz-adv-x="454" 
d="M127.5 11.5q-45.5 22.5 -77.5 59.5q-10 11 -10 25q0 15 11 25.5t26 10.5q14 0 27 -11q28 -29 58 -45t66 -16q40 0 66.5 18.5t26.5 50.5q0 29 -20 44.5t-65 33.5l-47 20q-61 26 -91 56t-30 79q0 64 47 100t117 36q48 0 87.5 -18t66.5 -49q10 -11 10 -25t-10 -24t-24 -10
q-7 0 -13 3.5t-16 11.5q-21 18 -48 29t-57 11q-36 0 -58.5 -16t-22.5 -45q0 -24 18 -38.5t61 -32.5l45 -19q68 -29 98.5 -61.5t30.5 -82.5q0 -68 -49.5 -105.5t-121.5 -37.5q-56 0 -101.5 22.5zM198.5 -211q-10.5 10 -10.5 22q0 5 4 21q9 36 9 82q0 16 11.5 27.5t27.5 11.5
t27.5 -11.5t11.5 -27.5q0 -51 -20 -101q-6 -17 -16 -25.5t-21 -8.5q-13 0 -23.5 10z" />
    <glyph glyph-name="germandbls" unicode="&#xdf;" horiz-adv-x="611" 
d="M330.5 2.5q-38.5 14.5 -68.5 41.5q-13 11 -13 28q0 14 11 24.5t25 10.5q10 0 23 -10q52 -38 111 -38q41 0 63.5 16.5t22.5 45.5q0 24 -17 41t-71 49q-58 34 -82.5 62.5t-24.5 62.5q0 28 18 79l42 116q15 41 15 72q0 40 -25.5 63.5t-69.5 23.5q-60 0 -94.5 -41t-34.5 -112
v-508q0 -17 -11 -28.5t-27 -11.5t-27 11.5t-11 28.5v511q0 103 55.5 162t151.5 59q79 0 125.5 -40t46.5 -106q0 -39 -14 -78l-48 -138q-11 -33 -11 -50q0 -15 6 -25t22.5 -22.5t53.5 -34.5q61 -36 85.5 -68t24.5 -74q0 -61 -47 -99t-123 -38q-44 0 -82.5 14.5z" />
    <glyph glyph-name="uni0259" unicode="&#x259;" horiz-adv-x="571" 
d="M395 465q59 -33 92.5 -91t33.5 -130q0 -70 -33 -128.5t-90.5 -92.5t-125.5 -34q-64 0 -114.5 29t-79 80t-28.5 116v5q0 48 47 48h344q-8 72 -57 116t-122 44q-72 0 -127 -47q-13 -11 -26 -11q-14 0 -24 9.5t-10 24.5q0 10 4 17.5t15 17.5q72 60 169 60q73 0 132 -33z
M380.5 97.5q44.5 38.5 57.5 101.5h-309q2 -62 42 -101t103 -39q62 0 106.5 38.5z" />
    <glyph glyph-name="t" unicode="t" horiz-adv-x="381" 
d="M351.5 53q9.5 -8 9.5 -22q0 -27 -28 -35q-22 -7 -63 -7q-79 0 -121.5 40.5t-42.5 117.5v271h-50q-15 0 -25.5 10t-10.5 25q0 14 10.5 24t25.5 10h50v103q0 17 11.5 28.5t27.5 11.5t27 -11.5t11 -28.5v-103h121q14 0 24.5 -10t10.5 -24q0 -15 -10.5 -25t-24.5 -10h-121
v-266q0 -48 25 -70.5t78 -22.5q13 0 22.5 1t17.5 1q16 0 25.5 -8z" />
    <glyph glyph-name="tbar" unicode="&#x167;" horiz-adv-x="394" 
d="M361.5 53q9.5 -8 9.5 -22q0 -26 -28 -35q-22 -7 -63 -7q-79 0 -121.5 40.5t-42.5 117.5v72h-52q-15 0 -25 9.5t-10 23.5t10 23.5t25 9.5h52v135h-52q-15 0 -25 10t-10 24t10 23.5t25 9.5h52v103q0 17 11.5 28.5t27.5 11.5t27 -11.5t11 -28.5v-103h121q14 0 24 -9.5
t10 -23.5t-10 -24t-24 -10h-121v-135h121q14 0 24 -9.5t10 -23.5t-10 -23.5t-24 -9.5h-121v-67q0 -48 25 -70.5t78 -22.5q13 0 22.5 1t17.5 1q16 0 25.5 -8z" />
    <glyph glyph-name="tcaron" unicode="&#x165;" horiz-adv-x="381" 
d="M351.5 53q9.5 -8 9.5 -22q0 -27 -28 -35q-22 -7 -63 -7q-79 0 -121.5 40.5t-42.5 117.5v271h-50q-15 0 -25.5 10t-10.5 25q0 14 10.5 24t25.5 10h50v103q0 17 11.5 28.5t27.5 11.5t27 -11.5t11 -28.5v-103h121q14 0 24.5 -10t10.5 -24q0 -15 -10.5 -25t-24.5 -10h-121
v-266q0 -48 25 -70.5t78 -22.5q13 0 22.5 1t17.5 1q16 0 25.5 -8zM286.5 545.5q-10.5 12.5 -7.5 31.5l21 146q2 17 13.5 27.5t27.5 10.5t28 -10.5t12 -28.5q0 -3 -2 -13l-32 -147q-2 -10 -10.5 -19.5t-23.5 -9.5q-16 0 -26.5 12.5z" />
    <glyph glyph-name="uni0163" unicode="&#x163;" horiz-adv-x="381" 
d="M351.5 53q9.5 -8 9.5 -22q0 -27 -28 -35q-22 -7 -63 -7q-79 0 -121.5 40.5t-42.5 117.5v271h-50q-15 0 -25.5 10t-10.5 25q0 14 10.5 24t25.5 10h50v103q0 17 11.5 28.5t27.5 11.5t27 -11.5t11 -28.5v-103h121q14 0 24.5 -10t10.5 -24q0 -15 -10.5 -25t-24.5 -10h-121
v-266q0 -48 25 -70.5t78 -22.5q13 0 22.5 1t17.5 1q16 0 25.5 -8zM108 -184q-24 10 -24 29q0 13 8.5 21.5t21.5 8.5q8 0 19.5 -2t25.5 -2q29 0 49 14.5t20 40.5q0 31 -23 60q-4 5 -11 12.5t-10 13.5t-3 12q0 11 7 18t20 7q18 0 39.5 -20t36 -49.5t14.5 -55.5q0 -51 -38 -83
t-97 -32q-36 0 -55 7z" />
    <glyph glyph-name="u" unicode="u" 
d="M176 15q-46 26 -71.5 73t-25.5 106v264q0 17 11 28.5t27 11.5t27 -11.5t11 -28.5v-269q0 -57 35 -93t91 -36q54 0 89 36.5t35 92.5v269q0 17 11 28.5t28 11.5q16 0 27 -11.5t11 -28.5v-264q0 -59 -26 -106t-71.5 -73t-103.5 -26q-59 0 -105 26z" />
    <glyph glyph-name="uacute" unicode="&#xfa;" 
d="M176 15q-46 26 -71.5 73t-25.5 106v264q0 17 11 28.5t27 11.5t27 -11.5t11 -28.5v-269q0 -57 35 -93t91 -36q54 0 89 36.5t35 92.5v269q0 17 11 28.5t28 11.5q16 0 27 -11.5t11 -28.5v-264q0 -59 -26 -106t-71.5 -73t-103.5 -26q-59 0 -105 26zM274 574.5
q-10 9.5 -10 23.5q0 8 5 18l63 141q5 11 14.5 17.5t22.5 6.5q15 0 26.5 -11.5t11.5 -27.5q0 -9 -6 -21l-71 -134q-13 -22 -31 -22q-15 0 -25 9.5z" />
    <glyph glyph-name="ubreve" unicode="&#x16d;" 
d="M176 15q-46 26 -71.5 73t-25.5 106v264q0 17 11 28.5t27 11.5t27 -11.5t11 -28.5v-269q0 -57 35 -93t91 -36q54 0 89 36.5t35 92.5v269q0 17 11 28.5t28 11.5q16 0 27 -11.5t11 -28.5v-264q0 -59 -26 -106t-71.5 -73t-103.5 -26q-59 0 -105 26zM205 602q-35 20 -56 53
t-21 70q0 15 9 25t23 10q30 0 33 -32q3 -35 28 -58.5t59 -23.5t59 23.5t29 58.5q1 14 10.5 23t21.5 9q14 0 23.5 -10t9.5 -25q0 -38 -20.5 -71t-56 -52.5t-76.5 -19.5q-40 0 -75 20z" />
    <glyph glyph-name="uni01D4" unicode="&#x1d4;" 
d="M176 15q-46 26 -71.5 73t-25.5 106v264q0 17 11 28.5t27 11.5t27 -11.5t11 -28.5v-269q0 -57 35 -93t91 -36q54 0 89 36.5t35 92.5v269q0 17 11 28.5t28 11.5q16 0 27 -11.5t11 -28.5v-264q0 -59 -26 -106t-71.5 -73t-103.5 -26q-59 0 -105 26zM416 771q10 -10 10 -24
q0 -12 -8 -22l-108 -146q-12 -14 -30 -14q-17 0 -29 14l-109 146q-7 8 -7 22t10 24t24 10q7 0 14.5 -4t11.5 -9l85 -109l86 109q4 6 11 9.5t15 3.5q14 0 24 -10z" />
    <glyph glyph-name="ucircumflex" unicode="&#xfb;" 
d="M176 15q-46 26 -71.5 73t-25.5 106v264q0 17 11 28.5t27 11.5t27 -11.5t11 -28.5v-269q0 -57 35 -93t91 -36q54 0 89 36.5t35 92.5v269q0 17 11 28.5t28 11.5q16 0 27 -11.5t11 -28.5v-264q0 -59 -26 -106t-71.5 -73t-103.5 -26q-59 0 -105 26zM426 599q0 -14 -10 -24
t-24 -10q-8 0 -15 3.5t-11 9.5l-86 109l-85 -109q-4 -5 -11.5 -9t-14.5 -4q-14 0 -24 10t-10 24t7 22l109 146q12 14 29 14q18 0 30 -14l108 -146q8 -10 8 -22z" />
    <glyph glyph-name="udieresis" unicode="&#xfc;" 
d="M176 15q-46 26 -71.5 73t-25.5 106v264q0 17 11 28.5t27 11.5t27 -11.5t11 -28.5v-269q0 -57 35 -93t91 -36q54 0 89 36.5t35 92.5v269q0 17 11 28.5t28 11.5q16 0 27 -11.5t11 -28.5v-264q0 -59 -26 -106t-71.5 -73t-103.5 -26q-59 0 -105 26zM213 711.5
q16 -15.5 16 -38.5q0 -22 -16 -37.5t-39 -15.5q-22 0 -38.5 16t-16.5 37q0 22 16.5 38t38.5 16q23 0 39 -15.5zM424 711.5q16 -15.5 16 -38.5q0 -22 -16 -37.5t-39 -15.5q-22 0 -38.5 16t-16.5 37q0 22 16.5 38t38.5 16q23 0 39 -15.5z" />
    <glyph glyph-name="ugrave" unicode="&#xf9;" 
d="M176 15q-46 26 -71.5 73t-25.5 106v264q0 17 11 28.5t27 11.5t27 -11.5t11 -28.5v-269q0 -57 35 -93t91 -36q54 0 89 36.5t35 92.5v269q0 17 11 28.5t28 11.5q16 0 27 -11.5t11 -28.5v-264q0 -59 -26 -106t-71.5 -73t-103.5 -26q-59 0 -105 26zM230 587l-71 134
q-6 12 -6 21q0 16 11.5 27.5t26.5 11.5q13 0 22.5 -6.5t14.5 -17.5l63 -141q5 -10 5 -18q0 -14 -10 -23.5t-25 -9.5q-18 0 -31 22z" />
    <glyph glyph-name="uhungarumlaut" unicode="&#x171;" 
d="M176 15q-46 26 -71.5 73t-25.5 106v264q0 17 11 28.5t27 11.5t27 -11.5t11 -28.5v-269q0 -57 35 -93t91 -36q54 0 89 36.5t35 92.5v269q0 17 11 28.5t28 11.5q16 0 27 -11.5t11 -28.5v-264q0 -59 -26 -106t-71.5 -73t-103.5 -26q-59 0 -105 26zM178 574.5
q-10 9.5 -10 23.5q0 8 5 18l63 141q5 11 14.5 17.5t22.5 6.5q15 0 26.5 -11.5t11.5 -27.5q0 -9 -6 -21l-71 -134q-13 -22 -31 -22q-15 0 -25 9.5zM340 574.5q-10 9.5 -10 23.5q0 8 5 18l63 141q5 11 14.5 17.5t22.5 6.5q15 0 26.5 -11.5t11.5 -27.5q0 -9 -6 -21l-71 -134
q-13 -22 -31 -22q-15 0 -25 9.5z" />
    <glyph glyph-name="umacron" unicode="&#x16b;" 
d="M176 15q-46 26 -71.5 73t-25.5 106v264q0 17 11 28.5t27 11.5t27 -11.5t11 -28.5v-269q0 -57 35 -93t91 -36q54 0 89 36.5t35 92.5v269q0 17 11 28.5t28 11.5q16 0 27 -11.5t11 -28.5v-264q0 -59 -26 -106t-71.5 -73t-103.5 -26q-59 0 -105 26zM411.5 695q9.5 -9 9.5 -22
q0 -14 -9.5 -23t-23.5 -9h-217q-14 0 -23.5 9t-9.5 23q0 13 9.5 22t23.5 9h217q14 0 23.5 -9z" />
    <glyph glyph-name="uni021B" unicode="&#x21b;" horiz-adv-x="381" 
d="M351.5 53q9.5 -8 9.5 -22q0 -27 -28 -35q-22 -7 -63 -7q-79 0 -121.5 40.5t-42.5 117.5v271h-50q-15 0 -25.5 10t-10.5 25q0 14 10.5 24t25.5 10h50v103q0 17 11.5 28.5t27.5 11.5t27 -11.5t11 -28.5v-103h121q14 0 24.5 -10t10.5 -24q0 -15 -10.5 -25t-24.5 -10h-121
v-266q0 -48 25 -70.5t78 -22.5q13 0 22.5 1t17.5 1q16 0 25.5 -8zM179.5 -211q-10.5 10 -10.5 22q0 5 4 21q9 36 9 82q0 16 11.5 27.5t27.5 11.5t27.5 -11.5t11.5 -27.5q0 -51 -20 -101q-6 -17 -16 -25.5t-21 -8.5q-13 0 -23.5 10z" />
    <glyph glyph-name="uogonek" unicode="&#x173;" 
d="M471 486.5q11 -11.5 11 -28.5v-264q0 -51 -19.5 -93t-53.5 -70l-56 -47q-52 -44 -52 -76q0 -18 14.5 -27.5t38.5 -9.5q10 0 18.5 1.5t14.5 1.5q11 0 19 -8t8 -20q0 -23 -25 -30q-23 -7 -54 -7q-48 0 -77.5 24t-29.5 63q0 24 11.5 46t38.5 47q-58 0 -103 26.5t-70.5 73
t-25.5 105.5v264q0 17 11 28.5t27 11.5t27 -11.5t11 -28.5v-269q0 -57 35 -93t91 -36q54 0 89 36.5t35 92.5v269q0 17 11 28.5t28 11.5q16 0 27 -11.5z" />
    <glyph glyph-name="uring" unicode="&#x16f;" 
d="M176 15q-46 26 -71.5 73t-25.5 106v264q0 17 11 28.5t27 11.5t27 -11.5t11 -28.5v-269q0 -57 35 -93t91 -36q54 0 89 36.5t35 92.5v269q0 17 11 28.5t28 11.5q16 0 27 -11.5t11 -28.5v-264q0 -59 -26 -106t-71.5 -73t-103.5 -26q-59 0 -105 26zM358.5 750
q32.5 -31 32.5 -77t-32.5 -77.5t-79.5 -31.5q-46 0 -78 31.5t-32 77.5q0 45 32 76.5t78 31.5q47 0 79.5 -31zM244.5 709.5q-14.5 -14.5 -14.5 -36.5t14 -36t36 -14t36 14t14 36t-14.5 36.5t-35.5 14.5t-35.5 -14.5z" />
    <glyph glyph-name="utilde" unicode="&#x169;" 
d="M176 15q-46 26 -71.5 73t-25.5 106v264q0 17 11 28.5t27 11.5t27 -11.5t11 -28.5v-269q0 -57 35 -93t91 -36q54 0 89 36.5t35 92.5v269q0 17 11 28.5t28 11.5q16 0 27 -11.5t11 -28.5v-264q0 -59 -26 -106t-71.5 -73t-103.5 -26q-59 0 -105 26zM284 622l-26 22
q-18 15 -26 19.5t-16 4.5q-13 0 -20.5 -8.5t-7.5 -24.5q-1 -16 -10 -26t-23 -10q-13 0 -22.5 11t-9.5 27q0 44 24 72.5t61 28.5t68 -26l26 -22q17 -15 25.5 -19.5t16.5 -4.5q13 0 20 8.5t8 24.5t10 26t22 10q14 0 23.5 -11t9.5 -27q0 -44 -24 -72.5t-61 -28.5t-68 26z" />
    <glyph glyph-name="v" unicode="v" horiz-adv-x="539" 
d="M501.5 486.5q11.5 -11.5 11.5 -26.5q0 -9 -3 -17l-205 -430q-5 -11 -14.5 -17.5t-20.5 -6.5q-25 0 -36 24l-204 429q-3 9 -3 18q0 15 11 26.5t27 11.5q11 0 21 -6.5t15 -17.5l169 -365l169 365q5 11 14.5 17.5t21.5 6.5q15 0 26.5 -11.5z" />
    <glyph glyph-name="w" unicode="w" horiz-adv-x="850" 
d="M812 486.5q11 -11.5 11 -26.5q0 -7 -3 -15l-182 -433q-4 -10 -13.5 -16.5t-21.5 -6.5q-11 0 -20.5 6.5t-13.5 16.5l-144 359l-145 -359q-4 -10 -13.5 -16.5t-20.5 -6.5t-21 6.5t-14 16.5l-181 433q-3 8 -3 15q0 15 11 26.5t27 11.5q11 0 20.5 -7t14.5 -18l148 -354
l141 352q5 12 14.5 19.5t21.5 7.5t21.5 -7.5t14.5 -19.5l140 -353l149 355q5 11 14 18t21 7q16 0 27 -11.5z" />
    <glyph glyph-name="wacute" unicode="&#x1e83;" horiz-adv-x="850" 
d="M812 486.5q11 -11.5 11 -26.5q0 -7 -3 -15l-182 -433q-4 -10 -13.5 -16.5t-21.5 -6.5q-11 0 -20.5 6.5t-13.5 16.5l-144 359l-145 -359q-4 -10 -13.5 -16.5t-20.5 -6.5t-21 6.5t-14 16.5l-181 433q-3 8 -3 15q0 15 11 26.5t27 11.5q11 0 20.5 -7t14.5 -18l148 -354
l141 352q5 12 14.5 19.5t21.5 7.5t21.5 -7.5t14.5 -19.5l140 -353l149 355q5 11 14 18t21 7q16 0 27 -11.5zM417 574.5q-10 9.5 -10 23.5q0 8 5 18l63 141q5 11 14.5 17.5t22.5 6.5q15 0 26.5 -11.5t11.5 -27.5q0 -9 -6 -21l-71 -134q-13 -22 -31 -22q-15 0 -25 9.5z" />
    <glyph glyph-name="wcircumflex" unicode="&#x175;" horiz-adv-x="850" 
d="M812 486.5q11 -11.5 11 -26.5q0 -7 -3 -15l-182 -433q-4 -10 -13.5 -16.5t-21.5 -6.5q-11 0 -20.5 6.5t-13.5 16.5l-144 359l-145 -359q-4 -10 -13.5 -16.5t-20.5 -6.5t-21 6.5t-14 16.5l-181 433q-3 8 -3 15q0 15 11 26.5t27 11.5q11 0 20.5 -7t14.5 -18l148 -354
l141 352q5 12 14.5 19.5t21.5 7.5t21.5 -7.5t14.5 -19.5l140 -353l149 355q5 11 14 18t21 7q16 0 27 -11.5zM569 599q0 -14 -10 -24t-24 -10q-8 0 -15 3.5t-11 9.5l-86 109l-85 -109q-4 -5 -11.5 -9t-14.5 -4q-14 0 -24 10t-10 24t7 22l109 146q12 14 29 14q18 0 30 -14
l108 -146q8 -10 8 -22z" />
    <glyph glyph-name="wdieresis" unicode="&#x1e85;" horiz-adv-x="850" 
d="M812 486.5q11 -11.5 11 -26.5q0 -7 -3 -15l-182 -433q-4 -10 -13.5 -16.5t-21.5 -6.5q-11 0 -20.5 6.5t-13.5 16.5l-144 359l-145 -359q-4 -10 -13.5 -16.5t-20.5 -6.5t-21 6.5t-14 16.5l-181 433q-3 8 -3 15q0 15 11 26.5t27 11.5q11 0 20.5 -7t14.5 -18l148 -354
l141 352q5 12 14.5 19.5t21.5 7.5t21.5 -7.5t14.5 -19.5l140 -353l149 355q5 11 14 18t21 7q16 0 27 -11.5zM356 711.5q16 -15.5 16 -38.5q0 -22 -16 -37.5t-39 -15.5q-22 0 -38.5 16t-16.5 37q0 22 16.5 38t38.5 16q23 0 39 -15.5zM567 711.5q16 -15.5 16 -38.5
q0 -22 -16 -37.5t-39 -15.5q-22 0 -38.5 16t-16.5 37q0 22 16.5 38t38.5 16q23 0 39 -15.5z" />
    <glyph glyph-name="wgrave" unicode="&#x1e81;" horiz-adv-x="850" 
d="M812 486.5q11 -11.5 11 -26.5q0 -7 -3 -15l-182 -433q-4 -10 -13.5 -16.5t-21.5 -6.5q-11 0 -20.5 6.5t-13.5 16.5l-144 359l-145 -359q-4 -10 -13.5 -16.5t-20.5 -6.5t-21 6.5t-14 16.5l-181 433q-3 8 -3 15q0 15 11 26.5t27 11.5q11 0 20.5 -7t14.5 -18l148 -354
l141 352q5 12 14.5 19.5t21.5 7.5t21.5 -7.5t14.5 -19.5l140 -353l149 355q5 11 14 18t21 7q16 0 27 -11.5zM373 587l-71 134q-6 12 -6 21q0 16 11.5 27.5t26.5 11.5q13 0 22.5 -6.5t14.5 -17.5l63 -141q5 -10 5 -18q0 -14 -10 -23.5t-25 -9.5q-18 0 -31 22z" />
    <glyph glyph-name="x" unicode="x" horiz-adv-x="497" 
d="M454 26q0 -15 -11 -26t-27 -11q-18 0 -32 19l-135 182l-136 -182q-15 -19 -32 -19q-16 0 -27 11t-11 26t9 25l150 199l-135 181q-13 16 -13 30q0 15 11 26t27 11q18 0 32 -19l125 -170l126 170q12 19 32 19q16 0 27 -11t11 -26q0 -14 -13 -30l-137 -181l150 -199
q9 -10 9 -25z" />
    <glyph glyph-name="y" unicode="y" horiz-adv-x="539" 
d="M501.5 486.5q11.5 -11.5 11.5 -26.5q0 -9 -3 -17l-233 -497q-34 -71 -76.5 -104t-102.5 -33q-21 0 -39 3q-13 2 -21.5 12t-8.5 22q0 14 10.5 24t24.5 10l28 -1q37 0 64.5 20t46.5 62l25 54l-191 427q-4 10 -4 18q0 15 11.5 26.5t26.5 11.5q12 0 22 -7t14 -17l163 -366
l169 366q4 10 14 17t22 7q15 0 26.5 -11.5z" />
    <glyph glyph-name="yacute" unicode="&#xfd;" horiz-adv-x="539" 
d="M501.5 486.5q11.5 -11.5 11.5 -26.5q0 -9 -3 -17l-233 -497q-34 -71 -76.5 -104t-102.5 -33q-21 0 -39 3q-13 2 -21.5 12t-8.5 22q0 14 10.5 24t24.5 10l28 -1q37 0 64.5 20t46.5 62l25 54l-191 427q-4 10 -4 18q0 15 11.5 26.5t26.5 11.5q12 0 22 -7t14 -17l163 -366
l169 366q4 10 14 17t22 7q15 0 26.5 -11.5zM261 574.5q-10 9.5 -10 23.5q0 8 5 18l63 141q5 11 14.5 17.5t22.5 6.5q15 0 26.5 -11.5t11.5 -27.5q0 -9 -6 -21l-71 -134q-13 -22 -31 -22q-15 0 -25 9.5z" />
    <glyph glyph-name="ycircumflex" unicode="&#x177;" horiz-adv-x="539" 
d="M501.5 486.5q11.5 -11.5 11.5 -26.5q0 -9 -3 -17l-233 -497q-34 -71 -76.5 -104t-102.5 -33q-21 0 -39 3q-13 2 -21.5 12t-8.5 22q0 14 10.5 24t24.5 10l28 -1q37 0 64.5 20t46.5 62l25 54l-191 427q-4 10 -4 18q0 15 11.5 26.5t26.5 11.5q12 0 22 -7t14 -17l163 -366
l169 366q4 10 14 17t22 7q15 0 26.5 -11.5zM413 599q0 -14 -10 -24t-24 -10q-8 0 -15 3.5t-11 9.5l-86 109l-85 -109q-4 -5 -11.5 -9t-14.5 -4q-14 0 -24 10t-10 24t7 22l109 146q12 14 29 14q18 0 30 -14l108 -146q8 -10 8 -22z" />
    <glyph glyph-name="ydieresis" unicode="&#xff;" horiz-adv-x="539" 
d="M501.5 486.5q11.5 -11.5 11.5 -26.5q0 -9 -3 -17l-233 -497q-34 -71 -76.5 -104t-102.5 -33q-21 0 -39 3q-13 2 -21.5 12t-8.5 22q0 14 10.5 24t24.5 10l28 -1q37 0 64.5 20t46.5 62l25 54l-191 427q-4 10 -4 18q0 15 11.5 26.5t26.5 11.5q12 0 22 -7t14 -17l163 -366
l169 366q4 10 14 17t22 7q15 0 26.5 -11.5zM200 711.5q16 -15.5 16 -38.5q0 -22 -16 -37.5t-39 -15.5q-22 0 -38.5 16t-16.5 37q0 22 16.5 38t38.5 16q23 0 39 -15.5zM411 711.5q16 -15.5 16 -38.5q0 -22 -16 -37.5t-39 -15.5q-22 0 -38.5 16t-16.5 37q0 22 16.5 38t38.5 16
q23 0 39 -15.5z" />
    <glyph glyph-name="ygrave" unicode="&#x1ef3;" horiz-adv-x="539" 
d="M501.5 486.5q11.5 -11.5 11.5 -26.5q0 -9 -3 -17l-233 -497q-34 -71 -76.5 -104t-102.5 -33q-21 0 -39 3q-13 2 -21.5 12t-8.5 22q0 14 10.5 24t24.5 10l28 -1q37 0 64.5 20t46.5 62l25 54l-191 427q-4 10 -4 18q0 15 11.5 26.5t26.5 11.5q12 0 22 -7t14 -17l163 -366
l169 366q4 10 14 17t22 7q15 0 26.5 -11.5zM217 587l-71 134q-6 12 -6 21q0 16 11.5 27.5t26.5 11.5q13 0 22.5 -6.5t14.5 -17.5l63 -141q5 -10 5 -18q0 -14 -10 -23.5t-25 -9.5q-18 0 -31 22z" />
    <glyph glyph-name="z" unicode="z" horiz-adv-x="454" 
d="M421 58.5q10 -9.5 10 -24.5q0 -14 -10 -24t-25 -10h-333q-15 0 -25.5 10t-10.5 24q0 8 3.5 15t13.5 19l273 350h-235q-15 0 -25 10t-10 25q0 14 10 24t25 10h307q15 0 25 -10t10 -24q0 -9 -4.5 -17.5t-10.5 -15.5l-276 -352h263q15 0 25 -9.5z" />
    <glyph glyph-name="zacute" unicode="&#x17a;" horiz-adv-x="454" 
d="M421 58.5q10 -9.5 10 -24.5q0 -14 -10 -24t-25 -10h-333q-15 0 -25.5 10t-10.5 24q0 8 3.5 15t13.5 19l273 350h-235q-15 0 -25 10t-10 25q0 14 10 24t25 10h307q15 0 25 -10t10 -24q0 -9 -4.5 -17.5t-10.5 -15.5l-276 -352h263q15 0 25 -9.5zM231 574.5
q-10 9.5 -10 23.5q0 8 5 18l63 141q5 11 14.5 17.5t22.5 6.5q15 0 26.5 -11.5t11.5 -27.5q0 -9 -6 -21l-71 -134q-13 -22 -31 -22q-15 0 -25 9.5z" />
    <glyph glyph-name="zcaron" unicode="&#x17e;" horiz-adv-x="454" 
d="M421 58.5q10 -9.5 10 -24.5q0 -14 -10 -24t-25 -10h-333q-15 0 -25.5 10t-10.5 24q0 8 3.5 15t13.5 19l273 350h-235q-15 0 -25 10t-10 25q0 14 10 24t25 10h307q15 0 25 -10t10 -24q0 -9 -4.5 -17.5t-10.5 -15.5l-276 -352h263q15 0 25 -9.5zM373 771q10 -10 10 -24
q0 -12 -8 -22l-108 -146q-12 -14 -30 -14q-17 0 -29 14l-109 146q-7 8 -7 22t10 24t24 10q7 0 14.5 -4t11.5 -9l85 -109l86 109q4 6 11 9.5t15 3.5q14 0 24 -10z" />
    <glyph glyph-name="zdotaccent" unicode="&#x17c;" horiz-adv-x="454" 
d="M421 58.5q10 -9.5 10 -24.5q0 -14 -10 -24t-25 -10h-333q-15 0 -25.5 10t-10.5 24q0 8 3.5 15t13.5 19l273 350h-235q-15 0 -25 10t-10 25q0 14 10 24t25 10h307q15 0 25 -10t10 -24q0 -9 -4.5 -17.5t-10.5 -15.5l-276 -352h263q15 0 25 -9.5zM276.5 711.5
q16.5 -16.5 16.5 -38.5q0 -23 -16.5 -39t-39.5 -16t-40 16t-17 39q0 22 17 38.5t40 16.5t39.5 -16.5z" />
    <glyph glyph-name="iacute_j.loclNLD" horiz-adv-x="492" 
d="M95.5 0.5q-10.5 11.5 -10.5 28.5v429q0 17 11 28.5t28 11.5q16 0 27 -11.5t11 -28.5v-429q0 -16 -11.5 -28t-28.5 -12q-16 0 -26.5 11.5zM128 566q-12 0 -21.5 7.5t-11.5 19.5q0 12 2 19l38 149q5 25 32 31q14 2 27.5 -7t16.5 -25l1 -7q0 -4 -3 -15l-47 -144
q-9 -25 -26 -27q-3 -1 -8 -1zM210 -188q-15 2 -25 12t-10 23q0 14 10 23.5t25 9.5l26 -1q42 0 68.5 21t26.5 72v486q0 17 11 28.5t28 11.5q16 0 27 -11.5t11 -28.5v-491q0 -80 -43.5 -119t-117.5 -39q-19 0 -37 3zM374 566q-12 0 -21.5 7.5t-11.5 19.5q0 12 2 19l38 149
q5 25 32 31q14 2 27.5 -7t16.5 -25l1 -7q0 -4 -3 -15l-47 -144q-9 -25 -26 -27q-3 -1 -8 -1z" />
    <glyph glyph-name="cacute.loclPLK" horiz-adv-x="551" 
d="M176.5 23q-58.5 34 -92.5 92.5t-34 128.5t34 128t92.5 92t128.5 34q64 0 115.5 -27.5t82.5 -74.5q7 -10 7 -21q0 -14 -10.5 -24.5t-24.5 -10.5q-16 0 -28 14q-59 73 -141 73q-49 0 -89.5 -24t-64 -66t-23.5 -93q0 -52 23 -94t63.5 -66t90.5 -24q82 0 141 73q12 13 27 13
t25.5 -10t10.5 -25q0 -10 -7 -21q-32 -46 -83 -73.5t-115 -27.5q-70 0 -128.5 34zM305 562q-11 0 -19.5 6.5t-11.5 17.5l-1 7q0 4 2 12l24 153q2 14 12 23.5t26 9.5q13 0 24 -8t14 -21q2 -4 2 -8l-2 -13l-34 -148q-7 -25 -24 -29q-8 -2 -12 -2z" />
    <glyph glyph-name="nacute.loclPLK" horiz-adv-x="566" 
d="M439 446q49 -52 49 -140v-277q0 -17 -11 -28.5t-27 -11.5q-17 0 -28 11.5t-11 28.5v268q0 59 -33.5 94.5t-87.5 35.5q-56 0 -92 -36.5t-36 -93.5v-268q0 -17 -11 -28.5t-27 -11.5q-17 0 -28 11.5t-11 28.5v429q0 17 11 28.5t28 11.5q16 0 27 -11.5t11 -28.5v-18
q27 27 64 42.5t81 15.5q83 0 132 -52zM286 562q-11 0 -19.5 6.5t-11.5 17.5l-1 7q0 4 2 12l24 153q2 14 12 23.5t26 9.5q13 0 24 -8t14 -21q2 -4 2 -8l-2 -13l-34 -148q-7 -25 -24 -29q-8 -2 -12 -2z" />
    <glyph glyph-name="oacute.loclPLK" horiz-adv-x="610" 
d="M433.5 464q58.5 -34 92.5 -92t34 -128q0 -69 -34 -127.5t-93 -92.5t-129 -34t-128 34t-92 92.5t-34 127.5q0 70 34 128.5t92.5 92t128.5 33.5t128.5 -34zM214.5 403q-40.5 -24 -63 -66t-22.5 -94q0 -51 23 -92.5t63 -65.5t89 -24t89.5 24t64 65.5t23.5 92.5q0 52 -23 94
t-63.5 66t-89.5 24q-50 0 -90.5 -24zM306 562q-11 0 -19.5 6.5t-11.5 17.5l-1 7q0 4 2 12l24 153q2 14 12 23.5t26 9.5q13 0 24 -8t14 -21q2 -4 2 -8l-2 -13l-34 -148q-7 -25 -24 -29q-8 -2 -12 -2z" />
    <glyph glyph-name="sacute.loclPLK" horiz-adv-x="454" 
d="M127.5 11.5q-45.5 22.5 -77.5 59.5q-10 11 -10 25q0 15 11 25.5t26 10.5q14 0 27 -11q28 -29 58 -45t66 -16q40 0 66.5 18.5t26.5 50.5q0 29 -20 44.5t-65 33.5l-47 20q-61 26 -91 56t-30 79q0 64 47 100t117 36q48 0 87.5 -18t66.5 -49q10 -11 10 -25t-10 -24t-24 -10
q-7 0 -13 3.5t-16 11.5q-21 18 -48 29t-57 11q-36 0 -58.5 -16t-22.5 -45q0 -24 18 -38.5t61 -32.5l45 -19q68 -29 98.5 -61.5t30.5 -82.5q0 -68 -49.5 -105.5t-121.5 -37.5q-56 0 -101.5 22.5zM231 562q-11 0 -19.5 6.5t-11.5 17.5l-1 7q0 4 2 12l24 153q2 14 12 23.5
t26 9.5q13 0 24 -8t14 -21q2 -4 2 -8l-2 -13l-34 -148q-7 -25 -24 -29q-8 -2 -12 -2z" />
    <glyph glyph-name="zacute.loclPLK" horiz-adv-x="454" 
d="M421 58.5q10 -9.5 10 -24.5q0 -14 -10 -24t-25 -10h-333q-15 0 -25.5 10t-10.5 24q0 8 3.5 15t13.5 19l273 350h-235q-15 0 -25 10t-10 25q0 14 10 24t25 10h307q15 0 25 -10t10 -24q0 -9 -4.5 -17.5t-10.5 -15.5l-276 -352h263q15 0 25 -9.5zM238 562q-11 0 -19.5 6.5
t-11.5 17.5l-1 7q0 4 2 12l24 153q2 14 12 23.5t26 9.5q13 0 24 -8t14 -21q2 -4 2 -8l-2 -13l-34 -148q-7 -25 -24 -29q-8 -2 -12 -2z" />
    <glyph glyph-name="i.loclTRK.loclTRK" horiz-adv-x="246" 
d="M95.5 0.5q-10.5 11.5 -10.5 28.5v429q0 17 11 28.5t28 11.5q16 0 27 -11.5t11 -28.5v-429q0 -16 -11.5 -28t-28.5 -12q-16 0 -26.5 11.5zM163.5 711.5q16.5 -16.5 16.5 -38.5q0 -23 -16.5 -39t-39.5 -16t-40 16t-17 39q0 22 17 38.5t40 16.5t39.5 -16.5z" />
    <glyph glyph-name="c.ordn" horiz-adv-x="369" 
d="M120.5 258.5q-37.5 21.5 -59 58.5t-21.5 82t21.5 82t59 58.5t82.5 21.5q35 0 65 -13t49 -37q10 -12 10 -24t-8.5 -20.5t-19.5 -8.5q-12 0 -23 11q-33 33 -73 33q-42 0 -69.5 -30t-27.5 -73t27.5 -73t69.5 -30q40 0 73 33q9 11 23 11q11 0 19.5 -8.5t8.5 -20.5t-10 -24
q-19 -24 -49 -37t-65 -13q-45 0 -82.5 21.5z" />
    <glyph glyph-name="d.ordn" horiz-adv-x="424" 
d="M351.5 712.5q9.5 -9.5 9.5 -23.5v-421q0 -13 -9 -22t-22 -9t-22.5 9t-9.5 22v18q-18 -23 -46 -36t-62 -13q-42 0 -76.5 21.5t-54 58.5t-19.5 82t19.5 82t54 58t76.5 21q32 0 59 -12t45 -33v174q0 14 9.5 23.5t24.5 9.5q14 0 23.5 -9.5zM268.5 324.5q25.5 28.5 25.5 73.5
q0 46 -25.5 74.5t-65.5 28.5q-41 0 -69 -29.5t-28 -72.5q0 -44 28 -73.5t69 -29.5q40 0 65.5 28.5z" />
    <glyph glyph-name="e.ordn" horiz-adv-x="384" 
d="M302.5 519.5q40.5 -40.5 40.5 -102.5v-10q0 -13 -9 -21.5t-21 -8.5h-205q6 -37 32 -58t64 -21q32 0 60 17q2 1 12 7t18 6q12 0 21 -8.5t9 -20.5q0 -14 -10 -22q-44 -40 -109 -40q-46 0 -84 21.5t-59.5 58.5t-21.5 82t21 82t58 58t81 21q62 0 102.5 -40.5zM140.5 482
q-23.5 -20 -31.5 -53h168q-2 33 -23.5 53t-56.5 20q-33 0 -56.5 -20z" />
    <glyph glyph-name="egrave.ordn" horiz-adv-x="384" 
d="M118 685q-6 9 -6 19q0 14 9.5 23t22.5 9q20 0 32 -22l38 -70q5 -8 5 -17q0 -12 -8.5 -20t-19.5 -8q-16 0 -27 15zM302.5 519.5q40.5 -40.5 40.5 -102.5v-10q0 -13 -9 -21.5t-21 -8.5h-205q6 -37 32 -58t64 -21q32 0 60 17q2 1 12 7t18 6q12 0 21 -8.5t9 -20.5
q0 -14 -10 -22q-44 -40 -109 -40q-46 0 -84 21.5t-59.5 58.5t-21.5 82t21 82t58 58t81 21q62 0 102.5 -40.5zM140.5 482q-23.5 -20 -31.5 -53h168q-2 33 -23.5 53t-56.5 20q-33 0 -56.5 -20z" />
    <glyph glyph-name="g.ordn" horiz-adv-x="424" 
d="M351 550q10 -10 10 -24v-249q0 -69 -44.5 -111t-118.5 -42q-72 0 -128 44q-13 13 -13 27q0 12 9 20.5t21 8.5q9 0 22 -10q17 -14 39 -21.5t46 -7.5q46 0 73 24.5t27 67.5v16q-18 -20 -44 -31t-58 -11q-43 0 -77.5 20.5t-54.5 56.5t-20 80q0 66 42.5 109t107.5 43
q31 0 57.5 -10t44.5 -28v4q0 15 10 24.5t25 9.5q14 0 24 -10zM268.5 338.5q25.5 27.5 25.5 68.5t-25.5 66.5t-66.5 25.5t-68.5 -26t-27.5 -64q0 -41 28.5 -69.5t68.5 -28.5t65.5 27.5z" />
    <glyph glyph-name="h.ordn" horiz-adv-x="387" 
d="M297.5 526.5q30.5 -33.5 30.5 -89.5v-166q0 -14 -9 -23t-24 -9q-14 0 -23.5 9t-9.5 23v157q0 32 -18 51.5t-47 19.5t-48 -20t-19 -51v-157q0 -14 -9.5 -23t-23.5 -9q-15 0 -24.5 9t-9.5 23v418q0 14 9.5 23.5t24.5 9.5q14 0 23.5 -9.5t9.5 -23.5v-165q31 36 86 36
q51 0 81.5 -33.5z" />
    <glyph glyph-name="i.ordn" horiz-adv-x="189" 
d="M125 695q13 -12 13 -30t-13 -29.5t-31 -11.5t-30.5 11.5t-12.5 29.5t12.5 30t30.5 12t31 -12zM118.5 550.5q9.5 -9.5 9.5 -23.5v-257q0 -14 -9.5 -23.5t-23.5 -9.5t-23.5 9.5t-9.5 23.5v257q0 14 9 23.5t24 9.5q14 0 23.5 -9.5z" />
    <glyph glyph-name="l.ordn" horiz-adv-x="192" 
d="M120 712.5q9 -9.5 9 -23.5v-419q0 -14 -9 -23.5t-23 -9.5t-24 9.5t-10 23.5v419q0 14 9.5 23.5t24.5 9.5q14 0 23 -9.5z" />
    <glyph glyph-name="m.ordn" horiz-adv-x="581" 
d="M492 527q30 -33 30 -90v-167q0 -14 -9 -23.5t-24 -9.5q-13 0 -23 10t-10 23v158q0 33 -17 52t-46 19t-48 -19t-19 -49v-161q0 -14 -9.5 -23.5t-23.5 -9.5t-23.5 9.5t-9.5 23.5v158q0 33 -17.5 52t-46.5 19q-30 0 -48 -19t-18 -52v-158q0 -14 -9.5 -23.5t-23.5 -9.5
t-24 9.5t-10 23.5v257q0 14 10 23.5t24 9.5q13 0 22.5 -8.5t10.5 -21.5q32 30 82 30q32 0 56 -12.5t38 -36.5q17 23 44 36t60 13q52 0 82 -33z" />
    <glyph glyph-name="n.ordn" horiz-adv-x="387" 
d="M297.5 526.5q30.5 -33.5 30.5 -89.5v-167q0 -14 -9.5 -23.5t-23.5 -9.5t-23.5 9.5t-9.5 23.5v158q0 32 -18 51.5t-47 19.5t-48 -20t-19 -51v-158q0 -14 -9.5 -23.5t-23.5 -9.5t-24 9.5t-10 23.5v257q0 14 10 23.5t24 9.5q13 0 22.5 -9t10.5 -22q33 31 84 31
q53 0 83.5 -33.5z" />
    <glyph glyph-name="r.ordn" horiz-adv-x="249" 
d="M231 552q9 -8 9 -23q0 -29 -33 -32q-34 -3 -55.5 -28t-21.5 -61v-137q0 -14 -9.5 -24t-23.5 -10t-24 10t-10 24v255q0 14 10 24t25 10q14 0 23.5 -10t9.5 -24v-2q30 36 74 36q17 0 26 -8z" />
    <glyph glyph-name="s.ordn" horiz-adv-x="316" 
d="M99 248.5q-27 11.5 -45 29.5q-14 13 -14 26q0 11 8.5 19t19.5 8q10 0 20 -7q33 -30 68 -30q21 0 33 8.5t12 24.5q0 13 -8.5 21.5t-29.5 17.5l-31 14q-79 34 -79 91q0 39 30 64t77 25q27 0 50.5 -9t38.5 -22q14 -11 16 -25q1 -13 -7 -21t-20 -8q-11 0 -21 7q-25 21 -56 21
q-41 0 -41 -28q0 -13 8 -20t28 -17l31 -15q45 -21 63 -41.5t18 -50.5q0 -44 -31.5 -69t-79.5 -25q-31 0 -58 11.5z" />
    <glyph glyph-name="y.ss01.ordn" horiz-adv-x="392" 
d="M319 550.5q9 -9.5 9 -23.5v-261q0 -65 -38 -103.5t-104 -38.5q-63 0 -108 39q-14 11 -14 26q0 12 9 20.5t21 8.5q9 0 21 -9q31 -24 70 -24q36 0 56.5 21t20.5 59v25q-32 -34 -86 -34q-51 0 -82 33.5t-31 89.5v148q0 14 10 23.5t24 9.5t23.5 -9.5t9.5 -23.5v-139
q0 -32 18 -52t47 -20t48 20t19 51v140q0 14 9.5 23.5t23.5 9.5q15 0 24 -9.5z" />
    <glyph glyph-name="t.ordn" horiz-adv-x="252" 
d="M226 289.5q8 -8.5 8 -20.5q0 -16 -16 -25q-14 -7 -40 -7q-53 0 -83 27t-30 80v152h-20q-13 0 -22 8.5t-9 20.5t9 20.5t22 8.5h20v45q0 14 9.5 24t24.5 10q14 0 23.5 -10t9.5 -24v-45h62q13 0 21.5 -8t8.5 -21q0 -12 -8.5 -20.5t-21.5 -8.5h-62v-145q0 -29 14 -41t43 -12
h16q13 0 21 -8.5z" />
    <glyph glyph-name="u.ordn" horiz-adv-x="381" 
d="M313 550.5q9 -9.5 9 -23.5v-154q0 -60 -36.5 -98t-94.5 -38q-59 0 -96 38t-37 98v154q0 14 10 23.5t24 9.5t23.5 -9.5t9.5 -23.5v-157q0 -32 18.5 -52t47.5 -20t47 20t18 52v157q0 14 9.5 23.5t23.5 9.5q15 0 24 -9.5z" />
    <glyph glyph-name="uacute.ordn" horiz-adv-x="381" 
d="M173.5 607q-8.5 8 -8.5 20q0 9 5 17l38 70q12 22 32 22q14 0 23 -9t9 -23q0 -9 -5 -19l-47 -71q-11 -15 -27 -15q-11 0 -19.5 8zM312.5 550q9.5 -10 9.5 -24v-153q0 -60 -36.5 -98t-94.5 -38q-59 0 -96 38t-37 98v153q0 14 10 24t24 10t23.5 -10t9.5 -24v-156
q0 -32 18.5 -52t47.5 -20t47 20t18 52v156q0 14 9.5 24t23.5 10t23.5 -10z" />
    <glyph glyph-name="y.ordn" horiz-adv-x="353" 
d="M324.5 550q9.5 -10 9.5 -24q0 -7 -3 -15l-136 -303q-38 -83 -123 -83q-23 0 -36 7q-17 9 -17 26q0 12 9 20t22 8l22 -1q21 0 37 11.5t25 33.5l12 28l-103 253q-3 8 -3 15q0 14 9.5 24t23.5 10q11 0 19 -6t12 -16l78 -208l88 208q4 10 12 16t19 6q14 0 23.5 -10z" />
    <glyph glyph-name="z.ordn" horiz-adv-x="291" 
d="M269.5 293.5q8.5 -8.5 8.5 -20.5t-8.5 -20.5t-21.5 -8.5h-202q-13 0 -21.5 8.5t-8.5 20.5t12 27l161 196h-132q-13 0 -22 8.5t-9 20.5t9 20.5t22 8.5h186q13 0 21 -8.5t8 -21.5t-11 -26l-159 -196h146q13 0 21.5 -8.5z" />
    <glyph glyph-name="a.ss01" horiz-adv-x="632" 
d="M537 485.5q11 -12.5 11 -29.5v-426q0 -17 -12 -29t-29 -12q-18 0 -29.5 12t-11.5 29v36q-30 -36 -75.5 -56.5t-99.5 -20.5q-68 0 -123 33.5t-86.5 91.5t-31.5 130q0 71 31.5 129.5t86.5 91.5t123 33q57 0 104 -22t76 -61v41q0 18 11 30t28 12q16 0 27 -12.5zM425 111
q47 51 47 133t-47 132.5t-123 50.5q-49 0 -88.5 -24t-62 -66t-22.5 -94t22.5 -93.5t62 -65.5t88.5 -24q76 0 123 51z" />
    <glyph glyph-name="aacute.ss01" horiz-adv-x="632" 
d="M537 485.5q11 -12.5 11 -29.5v-426q0 -17 -12 -29t-29 -12q-18 0 -29.5 12t-11.5 29v36q-30 -36 -75.5 -56.5t-99.5 -20.5q-68 0 -123 33.5t-86.5 91.5t-31.5 130q0 71 31.5 129.5t86.5 91.5t123 33q57 0 104 -22t76 -61v41q0 18 11 30t28 12q16 0 27 -12.5zM425 111
q47 51 47 133t-47 132.5t-123 50.5q-49 0 -88.5 -24t-62 -66t-22.5 -94t22.5 -93.5t62 -65.5t88.5 -24q76 0 123 51zM305 574.5q-10 9.5 -10 23.5q0 8 5 18l63 141q5 11 14.5 17.5t22.5 6.5q15 0 26.5 -11.5t11.5 -27.5q0 -9 -6 -21l-71 -134q-13 -22 -31 -22q-15 0 -25 9.5
z" />
    <glyph glyph-name="abreve.ss01" horiz-adv-x="632" 
d="M537 485.5q11 -12.5 11 -29.5v-426q0 -17 -12 -29t-29 -12q-18 0 -29.5 12t-11.5 29v36q-30 -36 -75.5 -56.5t-99.5 -20.5q-68 0 -123 33.5t-86.5 91.5t-31.5 130q0 71 31.5 129.5t86.5 91.5t123 33q57 0 104 -22t76 -61v41q0 18 11 30t28 12q16 0 27 -12.5zM425 111
q47 51 47 133t-47 132.5t-123 50.5q-49 0 -88.5 -24t-62 -66t-22.5 -94t22.5 -93.5t62 -65.5t88.5 -24q76 0 123 51zM236 602q-35 20 -56 53t-21 70q0 15 9 25t23 10q30 0 33 -32q3 -35 28 -58.5t59 -23.5t59 23.5t29 58.5q1 14 10.5 23t21.5 9q14 0 23.5 -10t9.5 -25
q0 -38 -20.5 -71t-56 -52.5t-76.5 -19.5q-40 0 -75 20z" />
    <glyph glyph-name="acircumflex.ss01" horiz-adv-x="632" 
d="M537 485.5q11 -12.5 11 -29.5v-426q0 -17 -12 -29t-29 -12q-18 0 -29.5 12t-11.5 29v36q-30 -36 -75.5 -56.5t-99.5 -20.5q-68 0 -123 33.5t-86.5 91.5t-31.5 130q0 71 31.5 129.5t86.5 91.5t123 33q57 0 104 -22t76 -61v41q0 18 11 30t28 12q16 0 27 -12.5zM425 111
q47 51 47 133t-47 132.5t-123 50.5q-49 0 -88.5 -24t-62 -66t-22.5 -94t22.5 -93.5t62 -65.5t88.5 -24q76 0 123 51zM457 599q0 -14 -10 -24t-24 -10q-8 0 -15 3.5t-11 9.5l-86 109l-85 -109q-4 -5 -11.5 -9t-14.5 -4q-14 0 -24 10t-10 24t7 22l109 146q12 14 29 14
q18 0 30 -14l108 -146q8 -10 8 -22z" />
    <glyph glyph-name="adieresis.ss01" horiz-adv-x="632" 
d="M537 485.5q11 -12.5 11 -29.5v-426q0 -17 -12 -29t-29 -12q-18 0 -29.5 12t-11.5 29v36q-30 -36 -75.5 -56.5t-99.5 -20.5q-68 0 -123 33.5t-86.5 91.5t-31.5 130q0 71 31.5 129.5t86.5 91.5t123 33q57 0 104 -22t76 -61v41q0 18 11 30t28 12q16 0 27 -12.5zM425 111
q47 51 47 133t-47 132.5t-123 50.5q-49 0 -88.5 -24t-62 -66t-22.5 -94t22.5 -93.5t62 -65.5t88.5 -24q76 0 123 51zM244 711.5q16 -15.5 16 -38.5q0 -22 -16 -37.5t-39 -15.5q-22 0 -38.5 16t-16.5 37q0 22 16.5 38t38.5 16q23 0 39 -15.5zM455 711.5q16 -15.5 16 -38.5
q0 -22 -16 -37.5t-39 -15.5q-22 0 -38.5 16t-16.5 37q0 22 16.5 38t38.5 16q23 0 39 -15.5z" />
    <glyph glyph-name="agrave.ss01" horiz-adv-x="632" 
d="M537 485.5q11 -12.5 11 -29.5v-426q0 -17 -12 -29t-29 -12q-18 0 -29.5 12t-11.5 29v36q-30 -36 -75.5 -56.5t-99.5 -20.5q-68 0 -123 33.5t-86.5 91.5t-31.5 130q0 71 31.5 129.5t86.5 91.5t123 33q57 0 104 -22t76 -61v41q0 18 11 30t28 12q16 0 27 -12.5zM425 111
q47 51 47 133t-47 132.5t-123 50.5q-49 0 -88.5 -24t-62 -66t-22.5 -94t22.5 -93.5t62 -65.5t88.5 -24q76 0 123 51zM261 587l-71 134q-6 12 -6 21q0 16 11.5 27.5t26.5 11.5q13 0 22.5 -6.5t14.5 -17.5l63 -141q5 -10 5 -18q0 -14 -10 -23.5t-25 -9.5q-18 0 -31 22z" />
    <glyph glyph-name="amacron.ss01" horiz-adv-x="632" 
d="M537 485.5q11 -12.5 11 -29.5v-426q0 -17 -12 -29t-29 -12q-18 0 -29.5 12t-11.5 29v36q-30 -36 -75.5 -56.5t-99.5 -20.5q-68 0 -123 33.5t-86.5 91.5t-31.5 130q0 71 31.5 129.5t86.5 91.5t123 33q57 0 104 -22t76 -61v41q0 18 11 30t28 12q16 0 27 -12.5zM425 111
q47 51 47 133t-47 132.5t-123 50.5q-49 0 -88.5 -24t-62 -66t-22.5 -94t22.5 -93.5t62 -65.5t88.5 -24q76 0 123 51zM442.5 695q9.5 -9 9.5 -22q0 -14 -9.5 -23t-23.5 -9h-217q-14 0 -23.5 9t-9.5 23q0 13 9.5 22t23.5 9h217q14 0 23.5 -9z" />
    <glyph glyph-name="aogonek.ss01" horiz-adv-x="632" 
d="M537 485.5q11 -12.5 11 -29.5v-426q0 -17 -12 -29t-29 -12q-18 0 -29.5 12t-11.5 29v36q-30 -36 -75.5 -56.5t-99.5 -20.5q-68 0 -123 33.5t-86.5 91.5t-31.5 130q0 71 31.5 129.5t86.5 91.5t123 33q57 0 104 -22t76 -61v41q0 18 11 30t28 12q16 0 27 -12.5zM425 111
q47 51 47 133t-47 132.5t-123 50.5q-49 0 -88.5 -24t-62 -66t-22.5 -94t22.5 -93.5t62 -65.5t88.5 -24q76 0 123 51zM407 -165.5q-29 25.5 -29 68.5q0 34 19 57.5t60 55.5q43 34 66 34q11 0 18 -7t7 -16q0 -22 -26 -38q-71 -44 -71 -80q0 -16 13.5 -26.5t38.5 -10.5
q11 0 19.5 1t14.5 1q12 0 19.5 -8t7.5 -21q0 -21 -25 -29q-23 -7 -55 -7q-48 0 -77 25.5z" />
    <glyph glyph-name="aring.ss01" horiz-adv-x="632" 
d="M537 485.5q11 -12.5 11 -29.5v-426q0 -17 -12 -29t-29 -12q-18 0 -29.5 12t-11.5 29v36q-30 -36 -75.5 -56.5t-99.5 -20.5q-68 0 -123 33.5t-86.5 91.5t-31.5 130q0 71 31.5 129.5t86.5 91.5t123 33q57 0 104 -22t76 -61v41q0 18 11 30t28 12q16 0 27 -12.5zM425 111
q47 51 47 133t-47 132.5t-123 50.5q-49 0 -88.5 -24t-62 -66t-22.5 -94t22.5 -93.5t62 -65.5t88.5 -24q76 0 123 51zM389.5 750q32.5 -31 32.5 -77t-32.5 -77.5t-79.5 -31.5q-46 0 -78 31.5t-32 77.5q0 45 32 76.5t78 31.5q47 0 79.5 -31zM275.5 709.5
q-14.5 -14.5 -14.5 -36.5t14 -36t36 -14t36 14t14 36t-14.5 36.5t-35.5 14.5t-35.5 -14.5z" />
    <glyph glyph-name="atilde.ss01" horiz-adv-x="632" 
d="M537 485.5q11 -12.5 11 -29.5v-426q0 -17 -12 -29t-29 -12q-18 0 -29.5 12t-11.5 29v36q-30 -36 -75.5 -56.5t-99.5 -20.5q-68 0 -123 33.5t-86.5 91.5t-31.5 130q0 71 31.5 129.5t86.5 91.5t123 33q57 0 104 -22t76 -61v41q0 18 11 30t28 12q16 0 27 -12.5zM425 111
q47 51 47 133t-47 132.5t-123 50.5q-49 0 -88.5 -24t-62 -66t-22.5 -94t22.5 -93.5t62 -65.5t88.5 -24q76 0 123 51zM315 622l-26 22q-18 15 -26 19.5t-16 4.5q-13 0 -20.5 -8.5t-7.5 -24.5q-1 -16 -10 -26t-23 -10q-13 0 -22.5 11t-9.5 27q0 44 24 72.5t61 28.5t68 -26
l26 -22q17 -15 25.5 -19.5t16.5 -4.5q13 0 20 8.5t8 24.5t10 26t22 10q14 0 23.5 -11t9.5 -27q0 -44 -24 -72.5t-61 -28.5t-68 26z" />
    <glyph glyph-name="y.ss01" horiz-adv-x="578" 
d="M483 486.5q11 -11.5 11 -28.5v-435q0 -68 -27.5 -116t-75.5 -73t-109 -25q-55 0 -102 19.5t-83 55.5q-12 12 -12 27q0 14 11 25t25 11q15 0 30 -15q55 -51 128 -51q61 0 99.5 35t38.5 103v52q-27 -30 -65 -46t-83 -16q-82 0 -130.5 52t-48.5 141v256q0 17 11 28.5
t27 11.5t27 -11.5t11 -28.5v-246q0 -60 33 -96t88 -36q57 0 93.5 36t36.5 93v249q0 17 11 28.5t28 11.5q16 0 27 -11.5z" />
    <glyph glyph-name="yacute.ss01" horiz-adv-x="578" 
d="M483 486.5q11 -11.5 11 -28.5v-435q0 -68 -27.5 -116t-75.5 -73t-109 -25q-55 0 -102 19.5t-83 55.5q-12 12 -12 27q0 14 11 25t25 11q15 0 30 -15q55 -51 128 -51q61 0 99.5 35t38.5 103v52q-27 -30 -65 -46t-83 -16q-82 0 -130.5 52t-48.5 141v256q0 17 11 28.5
t27 11.5t27 -11.5t11 -28.5v-246q0 -60 33 -96t88 -36q57 0 93.5 36t36.5 93v249q0 17 11 28.5t28 11.5q16 0 27 -11.5zM284 574.5q-10 9.5 -10 23.5q0 8 5 18l63 141q5 11 14.5 17.5t22.5 6.5q15 0 26.5 -11.5t11.5 -27.5q0 -9 -6 -21l-71 -134q-13 -22 -31 -22
q-15 0 -25 9.5z" />
    <glyph glyph-name="ycircumflex.ss01" horiz-adv-x="578" 
d="M483 486.5q11 -11.5 11 -28.5v-435q0 -68 -27.5 -116t-75.5 -73t-109 -25q-55 0 -102 19.5t-83 55.5q-12 12 -12 27q0 14 11 25t25 11q15 0 30 -15q55 -51 128 -51q61 0 99.5 35t38.5 103v52q-27 -30 -65 -46t-83 -16q-82 0 -130.5 52t-48.5 141v256q0 17 11 28.5
t27 11.5t27 -11.5t11 -28.5v-246q0 -60 33 -96t88 -36q57 0 93.5 36t36.5 93v249q0 17 11 28.5t28 11.5q16 0 27 -11.5zM436 599q0 -14 -10 -24t-24 -10q-8 0 -15 3.5t-11 9.5l-86 109l-85 -109q-4 -5 -11.5 -9t-14.5 -4q-14 0 -24 10t-10 24t7 22l109 146q12 14 29 14
q18 0 30 -14l108 -146q8 -10 8 -22z" />
    <glyph glyph-name="ydieresis.ss01" horiz-adv-x="578" 
d="M483 486.5q11 -11.5 11 -28.5v-435q0 -68 -27.5 -116t-75.5 -73t-109 -25q-55 0 -102 19.5t-83 55.5q-12 12 -12 27q0 14 11 25t25 11q15 0 30 -15q55 -51 128 -51q61 0 99.5 35t38.5 103v52q-27 -30 -65 -46t-83 -16q-82 0 -130.5 52t-48.5 141v256q0 17 11 28.5
t27 11.5t27 -11.5t11 -28.5v-246q0 -60 33 -96t88 -36q57 0 93.5 36t36.5 93v249q0 17 11 28.5t28 11.5q16 0 27 -11.5zM223 711.5q16 -15.5 16 -38.5q0 -22 -16 -37.5t-39 -15.5q-22 0 -38.5 16t-16.5 37q0 22 16.5 38t38.5 16q23 0 39 -15.5zM434 711.5q16 -15.5 16 -38.5
q0 -22 -16 -37.5t-39 -15.5q-22 0 -38.5 16t-16.5 37q0 22 16.5 38t38.5 16q23 0 39 -15.5z" />
    <glyph glyph-name="ygrave.ss01" horiz-adv-x="578" 
d="M483 486.5q11 -11.5 11 -28.5v-435q0 -68 -27.5 -116t-75.5 -73t-109 -25q-55 0 -102 19.5t-83 55.5q-12 12 -12 27q0 14 11 25t25 11q15 0 30 -15q55 -51 128 -51q61 0 99.5 35t38.5 103v52q-27 -30 -65 -46t-83 -16q-82 0 -130.5 52t-48.5 141v256q0 17 11 28.5
t27 11.5t27 -11.5t11 -28.5v-246q0 -60 33 -96t88 -36q57 0 93.5 36t36.5 93v249q0 17 11 28.5t28 11.5q16 0 27 -11.5zM240 587l-71 134q-6 12 -6 21q0 16 11.5 27.5t26.5 11.5q13 0 22.5 -6.5t14.5 -17.5l63 -141q5 -10 5 -18q0 -14 -10 -23.5t-25 -9.5q-18 0 -31 22z" />
    <glyph glyph-name="ordfeminine" unicode="&#xaa;" horiz-adv-x="364" 
d="M271.5 526q33.5 -34 33.5 -94v-161q0 -14 -9.5 -24t-23.5 -10q-13 0 -22.5 9.5t-10.5 23.5q-35 -33 -91 -33q-49 0 -78 25t-29 66t30.5 65t82.5 24h85v19q0 31 -17.5 48t-49.5 17q-35 0 -66 -26q-9 -6 -20 -6q-13 0 -21.5 8t-8.5 21t16 26q50 36 107 36q59 0 92.5 -34z
M218 309.5q21 19.5 21 49.5v10h-75q-25 0 -39.5 -10.5t-14.5 -28.5q0 -19 14.5 -29.5t39.5 -10.5q33 0 54 19.5z" />
    <glyph glyph-name="ordmasculine" unicode="&#xba;" horiz-adv-x="407" 
d="M285.5 537.5q37.5 -21.5 59.5 -58.5t22 -81t-22 -81t-59.5 -58.5t-82.5 -21.5t-82.5 21.5t-59 58.5t-21.5 81t21.5 81t59 58.5t82.5 21.5t82.5 -21.5zM133 471.5q-27 -28.5 -27 -73.5t27.5 -73.5t69.5 -28.5q43 0 70.5 28.5t27.5 73.5t-27.5 73.5t-70.5 28.5t-70 -28.5z
" />
    <glyph glyph-name="ordfeminine.ss01" horiz-adv-x="423" 
d="M351.5 551q8.5 -9 8.5 -22v-262q0 -13 -8.5 -21.5t-20.5 -8.5t-20.5 9t-8.5 21v19q-17 -23 -45.5 -36t-63.5 -13q-43 0 -78 21t-55 58t-20 83t19.5 82.5t54.5 57.5t78 21q35 0 63.5 -13t46.5 -36v18q0 13 8.5 22t20.5 9t20.5 -9zM272 325.5q26 27.5 26 73.5
q0 47 -25.5 73.5t-70.5 26.5q-43 0 -69.5 -27t-26.5 -72q0 -46 27 -74t70 -28t69 27.5z" />
    <glyph glyph-name="uni0410" unicode="&#x410;" horiz-adv-x="664" 
d="M629 27q0 -15 -11.5 -26.5t-26.5 -11.5q-25 0 -38 26l-53 119h-339l-50 -119q-11 -26 -37 -26q-16 0 -27 11.5t-11 26.5q0 10 6 25l253 592q12 27 37 27t37 -27l253 -592q7 -14 7 -25zM190 204h280l-138 350z" />
    <glyph glyph-name="uni0411" unicode="&#x411;" horiz-adv-x="616" 
d="M497.5 649.5q10.5 -10.5 10.5 -24.5q0 -15 -10.5 -25t-25.5 -10h-303v-205h194q62 0 109.5 -24t73.5 -68t26 -101t-26 -100.5t-73.5 -67.5t-109.5 -24h-231q-18 0 -29.5 12t-11.5 29v578q0 17 11.5 29t29.5 12h340q15 0 25.5 -10.5zM169 314v-244h186q64 0 100.5 32.5
t36.5 89.5t-36.5 89.5t-100.5 32.5h-186z" />
    <glyph glyph-name="uni0412" unicode="&#x412;" horiz-adv-x="616" 
d="M538 300q34 -45 34 -110q0 -56 -26 -99.5t-73.5 -67t-109.5 -23.5h-231q-18 0 -29.5 12t-11.5 29v578q0 17 11.5 29t29.5 12h186q85 0 136.5 -46t51.5 -121q0 -41 -16.5 -74t-46.5 -56q61 -18 95 -63zM169 590v-205h141q54 0 85 27t31 76q0 48 -30.5 75t-85.5 27h-141z
M455.5 102.5q36.5 32.5 36.5 89.5t-36.5 89.5t-100.5 32.5h-186v-244h186q64 0 100.5 32.5z" />
    <glyph glyph-name="uni0413" unicode="&#x413;" horiz-adv-x="508" 
d="M478 650q10 -10 10 -25t-10 -25t-26 -10h-283v-560q0 -17 -11.5 -29t-27.5 -12q-17 0 -28 12t-11 29v589q0 17 11.5 29t29.5 12h320q16 0 26 -10z" />
    <glyph glyph-name="uni0403" unicode="&#x403;" horiz-adv-x="508" 
d="M478 650q10 -10 10 -25t-10 -25t-26 -10h-283v-560q0 -17 -11.5 -29t-27.5 -12q-17 0 -28 12t-11 29v589q0 17 11.5 29t29.5 12h320q16 0 26 -10zM253.5 738q-8.5 10 -8.5 23q0 6 4 16l65 125q5 10 14 15.5t20 5.5q17 0 28.5 -11.5t11.5 -27.5q0 -13 -7 -24l-71 -113
q-12 -21 -34 -20q-14 1 -22.5 11z" />
    <glyph glyph-name="uni0490" unicode="&#x490;" horiz-adv-x="489" 
d="M453.5 780q11.5 -12 11.5 -29v-120q0 -18 -12 -29.5t-29 -11.5h-255v-560q0 -17 -11.5 -29t-27.5 -12q-17 0 -28 12t-11 29v589q0 17 11.5 29t29.5 12h255v91q0 17 11 29t28 12q16 0 27.5 -12z" />
    <glyph glyph-name="uni0414" unicode="&#x414;" horiz-adv-x="691" 
d="M645.5 58.5q11.5 -11.5 11.5 -29.5v-140q0 -17 -11 -29t-28 -12q-16 0 -27.5 12t-11.5 29v111h-478v-111q0 -17 -11 -29t-28 -12q-16 0 -27.5 12t-11.5 29v140q0 18 12 29.5t29 11.5h10q73 67 108.5 192.5t35.5 318.5v38q0 17 11.5 29t28.5 12h279q17 0 29 -12t12 -29
v-549h39q17 0 28.5 -11.5zM261.5 268.5q-30.5 -125.5 -96.5 -198.5h335v520h-207q-1 -196 -31.5 -321.5z" />
    <glyph glyph-name="uni0415" unicode="&#x415;" horiz-adv-x="566" 
d="M101 10.5q-10 10.5 -10 25.5v588q0 15 10 25.5t26 10.5h355q15 0 25.5 -10.5t10.5 -24.5q0 -15 -10.5 -25t-25.5 -10h-313v-202h233q15 0 25.5 -10t10.5 -25q0 -14 -10.5 -24.5t-25.5 -10.5h-233v-248h325q15 0 25.5 -10t10.5 -25q0 -14 -10.5 -24.5t-25.5 -10.5h-367
q-16 0 -26 10.5z" />
    <glyph glyph-name="uni0400" unicode="&#x400;" horiz-adv-x="566" 
d="M101 10.5q-10 10.5 -10 25.5v588q0 15 10 25.5t26 10.5h355q15 0 25.5 -10.5t10.5 -24.5q0 -15 -10.5 -25t-25.5 -10h-313v-202h233q15 0 25.5 -10t10.5 -25q0 -14 -10.5 -24.5t-25.5 -10.5h-233v-248h325q15 0 25.5 -10t10.5 -25q0 -14 -10.5 -24.5t-25.5 -10.5h-367
q-16 0 -26 10.5zM256 747l-71 113q-7 11 -7 24q0 17 11.5 28t28.5 11q11 0 20 -5.5t14 -15.5l65 -125q4 -10 4 -16q0 -13 -8.5 -23t-22.5 -11q-22 -1 -34 20z" />
    <glyph glyph-name="uni0401" unicode="&#x401;" horiz-adv-x="566" 
d="M101 10.5q-10 10.5 -10 25.5v588q0 15 10 25.5t26 10.5h355q15 0 25.5 -10.5t10.5 -24.5q0 -15 -10.5 -25t-25.5 -10h-313v-202h233q15 0 25.5 -10t10.5 -25q0 -14 -10.5 -24.5t-25.5 -10.5h-233v-248h325q15 0 25.5 -10t10.5 -25q0 -14 -10.5 -24.5t-25.5 -10.5h-367
q-16 0 -26 10.5zM147.5 772.5q-16.5 15.5 -16.5 37.5t16.5 37.5t38.5 15.5q23 0 39 -15.5t16 -37.5t-16 -37.5t-39 -15.5q-22 0 -38.5 15.5zM380.5 771.5q-16.5 15.5 -16.5 37.5t16.5 38t38.5 16q23 0 39 -16t16 -38t-16 -37.5t-39 -15.5q-22 0 -38.5 15.5z" />
    <glyph glyph-name="uni0416" unicode="&#x416;" horiz-adv-x="965" 
d="M422 354q0 -15 -16 -32l-287 -311q-11 -12 -20 -17t-19 -5q-14 0 -24.5 11t-10.5 26t9 24l281 304l-248 254q-12 12 -12 27t10.5 25.5t24.5 10.5q16 0 29 -14l266 -271q17 -16 17 -32zM510.5 659q11.5 -12 11.5 -29v-600q0 -17 -11.5 -29t-27.5 -12t-27.5 12t-11.5 29
v600q0 17 11.5 29t27.5 12t27.5 -12zM921 26q0 -15 -10.5 -26t-24.5 -11q-10 0 -19 5t-20 17l-288 311q-16 17 -16 32q0 16 17 32l267 271q13 14 29 14q15 0 25 -10.5t10 -25.5t-12 -27l-249 -254l282 -304q9 -9 9 -24z" />
    <glyph glyph-name="uni0417" unicode="&#x417;" horiz-adv-x="582" 
d="M503.5 294.5q30.5 -43.5 30.5 -102.5q0 -58 -30.5 -104t-84.5 -72.5t-121 -26.5q-70 0 -130.5 30t-98.5 83q-10 14 -10 26q0 15 11 25.5t26 10.5q17 0 29 -16q39 -44 81 -65.5t91 -21.5q44 0 80 17.5t56.5 48t20.5 67.5q0 54 -38 87t-98 33h-104q-15 0 -25.5 10.5
t-10.5 24.5q0 15 10 25.5t26 10.5h79q53 0 83.5 28t30.5 77t-33 79t-87 30q-41 0 -77.5 -17t-62.5 -48q-15 -16 -31 -16q-14 0 -25 11t-11 26q0 7 2.5 13t9.5 14q35 42 86 65.5t109 23.5t103.5 -23t71.5 -63.5t26 -90.5q0 -42 -18 -77t-51 -58q54 -21 84.5 -64.5z" />
    <glyph glyph-name="uni0418" unicode="&#x418;" horiz-adv-x="718" 
d="M615.5 659.5q11.5 -11.5 11.5 -26.5v-603q0 -17 -11 -29t-28 -12q-16 0 -27.5 12t-11.5 29v489l-389 -514q-7 -9 -13.5 -12.5t-16.5 -3.5q-16 0 -27.5 11.5t-11.5 26.5v603q0 17 11 29t28 12q16 0 27.5 -12t11.5 -29v-489l389 514q7 9 13.5 12.5t16.5 3.5
q16 0 27.5 -11.5z" />
    <glyph glyph-name="uni0419" unicode="&#x419;" horiz-adv-x="718" 
d="M615.5 659.5q11.5 -11.5 11.5 -26.5v-603q0 -17 -11 -29t-28 -12q-16 0 -27.5 12t-11.5 29v489l-389 -514q-7 -9 -13.5 -12.5t-16.5 -3.5q-16 0 -27.5 11.5t-11.5 26.5v603q0 17 11 29t28 12q16 0 27.5 -12t11.5 -29v-489l389 514q7 9 13.5 12.5t16.5 3.5
q16 0 27.5 -11.5zM275.5 750q-34.5 18 -55.5 47.5t-21 63.5q0 14 9.5 24t22.5 10q25 0 32 -32q7 -33 30.5 -52t55.5 -19q34 0 57 19.5t30 51.5q6 32 31 32q14 0 23.5 -10t9.5 -24q0 -34 -21 -63.5t-55.5 -47.5t-74.5 -18q-39 0 -73.5 18z" />
    <glyph glyph-name="uni040D" unicode="&#x40d;" horiz-adv-x="718" 
d="M615.5 659.5q11.5 -11.5 11.5 -26.5v-603q0 -17 -11 -29t-28 -12q-16 0 -27.5 12t-11.5 29v489l-389 -514q-7 -9 -13.5 -12.5t-16.5 -3.5q-16 0 -27.5 11.5t-11.5 26.5v603q0 17 11 29t28 12q16 0 27.5 -12t11.5 -29v-489l389 514q7 9 13.5 12.5t16.5 3.5
q16 0 27.5 -11.5zM302 747l-71 113q-7 11 -7 24q0 17 11.5 28t28.5 11q11 0 20 -5.5t14 -15.5l65 -125q4 -10 4 -16q0 -13 -8.5 -23t-22.5 -11q-22 -1 -34 20z" />
    <glyph glyph-name="uni041A" unicode="&#x41a;" horiz-adv-x="628" 
d="M157.5 659q11.5 -12 11.5 -29v-600q0 -17 -11.5 -29t-27.5 -12q-17 0 -28 12t-11 29v600q0 17 11 29t28 12q16 0 27.5 -12zM585 24q0 -14 -10.5 -24.5t-25.5 -10.5t-31 16l-315 322q-12 14 -12 27t13 28l286 273q17 16 30 16q15 0 25.5 -10.5t10.5 -24.5q0 -15 -17 -31
l-262 -251l293 -301q15 -12 15 -29z" />
    <glyph glyph-name="uni040C" unicode="&#x40c;" horiz-adv-x="628" 
d="M157.5 659q11.5 -12 11.5 -29v-600q0 -17 -11.5 -29t-27.5 -12q-17 0 -28 12t-11 29v600q0 17 11 29t28 12q16 0 27.5 -12zM585 24q0 -14 -10.5 -24.5t-25.5 -10.5t-31 16l-315 322q-12 14 -12 27t13 28l286 273q17 16 30 16q15 0 25.5 -10.5t10.5 -24.5q0 -15 -17 -31
l-262 -251l293 -301q15 -12 15 -29zM306.5 738q-8.5 10 -8.5 23q0 6 4 16l65 125q5 10 14 15.5t20 5.5q17 0 28.5 -11.5t11.5 -27.5q0 -13 -7 -24l-71 -113q-12 -21 -34 -20q-14 1 -22.5 11z" />
    <glyph glyph-name="uni041B" unicode="&#x41b;" horiz-adv-x="648" 
d="M545 648q12 -12 12 -29v-589q0 -17 -11.5 -29t-27.5 -12t-27.5 12t-11.5 29v560h-223q-2 -262 -54.5 -412t-153.5 -181q-13 -4 -22 -4q-14 0 -24.5 10.5t-10.5 24.5q0 26 29 36q78 27 118 153t40 348v54q0 17 11.5 29t29.5 12h297q17 0 29 -12z" />
    <glyph glyph-name="uni041C" unicode="&#x41c;" horiz-adv-x="788" 
d="M687 659.5q10 -11.5 10 -28.5v-602q0 -17 -11 -28.5t-28 -11.5q-16 0 -27.5 11.5t-11.5 28.5v474l-183 -286q-18 -28 -42 -28q-13 0 -23 6.5t-19 21.5l-183 286v-474q0 -17 -11.5 -28.5t-27.5 -11.5q-17 0 -28 11.5t-11 28.5v602q0 17 10 28.5t26 11.5q14 0 23.5 -7.5
t21.5 -26.5l222 -345l221 345q13 19 22.5 26.5t23.5 7.5q16 0 26 -11.5z" />
    <glyph glyph-name="uni041D" unicode="&#x41d;" horiz-adv-x="708" 
d="M102 0.5q-11 11.5 -11 28.5v602q0 17 11 28.5t28 11.5q16 0 27.5 -11.5t11.5 -28.5v-243h370v243q0 17 11.5 28.5t27.5 11.5q17 0 28 -11.5t11 -28.5v-602q0 -17 -11 -28.5t-28 -11.5q-16 0 -27.5 11.5t-11.5 28.5v289h-370v-289q0 -17 -11.5 -28.5t-27.5 -11.5
q-17 0 -28 11.5z" />
    <glyph glyph-name="uni041E" unicode="&#x41e;" horiz-adv-x="781" 
d="M563 625.5q79 -45.5 124.5 -123.5t45.5 -172t-45.5 -172t-124.5 -123.5t-173 -45.5q-95 0 -173 45.5t-123.5 123.5t-45.5 172t45.5 172t123.5 123.5t173 45.5q94 0 173 -45.5zM257 564q-60 -35 -94 -96t-34 -137t34 -138t94 -97t134 -35q73 0 133 35.5t94 97t34 137.5
q0 75 -34 136.5t-94 96.5t-133 35q-74 0 -134 -35z" />
    <glyph glyph-name="uni041F" unicode="&#x41f;" horiz-adv-x="682" 
d="M102 1q-11 12 -11 29v589q0 17 11.5 29t29.5 12h418q18 0 29.5 -12t11.5 -29v-589q0 -17 -11 -29t-28 -12q-16 0 -27.5 12t-11.5 29v560h-344v-560q0 -17 -11.5 -29t-27.5 -12q-17 0 -28 12z" />
    <glyph glyph-name="uni0420" unicode="&#x420;" horiz-adv-x="573" 
d="M102 1q-11 12 -11 29v589q0 17 11.5 29t29.5 12h191q62 0 110 -24t74.5 -67.5t26.5 -99.5q0 -57 -26.5 -101t-74.5 -68t-110 -24h-154v-246q0 -17 -11.5 -29t-27.5 -12q-17 0 -28 12zM321 346q62 0 97 32.5t35 89.5q0 56 -35.5 89t-96.5 33h-152v-244h152z" />
    <glyph glyph-name="uni0421" unicode="&#x421;" horiz-adv-x="715" 
d="M217.5 34.5q-78.5 45.5 -124 123.5t-45.5 172t45.5 172t124 123.5t173.5 45.5q76 0 144 -31t113 -87q15 -19 15 -33t-11 -24.5t-26 -10.5q-20 0 -33 16q-78 98 -201 98q-74 0 -134 -35.5t-94.5 -97t-34.5 -136.5t34.5 -136.5t94.5 -97t134 -35.5q121 0 201 98
q13 16 33 16q15 0 26 -10.5t11 -24.5t-15 -33q-43 -55 -111.5 -86.5t-145.5 -31.5q-95 0 -173.5 45.5z" />
    <glyph glyph-name="uni0422" unicode="&#x422;" horiz-adv-x="581" 
d="M262.5 1q-11.5 12 -11.5 29v560h-199q-16 0 -26.5 10t-10.5 25q0 14 10.5 24.5t26.5 10.5h478q15 0 25.5 -10.5t10.5 -24.5q0 -15 -10.5 -25t-25.5 -10h-201v-560q0 -17 -11 -29t-28 -12q-16 0 -27.5 12z" />
    <glyph glyph-name="uni0423" unicode="&#x423;" horiz-adv-x="610" 
d="M560 648.5q12 -11.5 12 -27.5q0 -9 -6 -21l-218 -474q-32 -69 -80 -103t-114 -34q-33 0 -57 6q-13 3 -21 12.5t-8 22.5q0 14 11 24.5t26 10.5q7 0 17 -1t23 -1q48 0 76 18t49 59l5 11l-218 449q-5 13 -5 21q0 16 12 27.5t28 11.5q24 0 36 -24l189 -401l179 401
q10 24 36 24q16 0 28 -11.5z" />
    <glyph glyph-name="uni040E" unicode="&#x40e;" horiz-adv-x="610" 
d="M560 648.5q12 -11.5 12 -27.5q0 -9 -6 -21l-218 -474q-32 -69 -80 -103t-114 -34q-33 0 -57 6q-13 3 -21 12.5t-8 22.5q0 14 11 24.5t26 10.5q7 0 17 -1t23 -1q48 0 76 18t49 59l5 11l-218 449q-5 13 -5 21q0 16 12 27.5t28 11.5q24 0 36 -24l189 -401l179 401
q10 24 36 24q16 0 28 -11.5zM222.5 750q-34.5 18 -55.5 47.5t-21 63.5q0 14 9.5 24t22.5 10q25 0 32 -32q7 -33 30.5 -52t55.5 -19q34 0 57 19.5t30 51.5q6 32 31 32q14 0 23.5 -10t9.5 -24q0 -34 -21 -63.5t-55.5 -47.5t-74.5 -18q-39 0 -73.5 18z" />
    <glyph glyph-name="uni0424" unicode="&#x424;" horiz-adv-x="798" 
d="M710 192.5q-39 -61.5 -109.5 -96t-163.5 -34.5v-63q0 -17 -11 -29t-28 -12q-16 0 -27.5 12t-11.5 29v63q-93 0 -163.5 34.5t-109 96t-38.5 142.5q0 80 38.5 141t109 95t163.5 34v56q0 17 11.5 29t27.5 12q17 0 28 -12t11 -29v-56q93 0 164 -34t109.5 -95t38.5 -141
q0 -81 -39 -142.5zM190.5 186.5q61.5 -53.5 168.5 -53.5v401q-107 0 -168.5 -53.5t-61.5 -147.5q0 -93 61.5 -146.5zM606 186.5q62 53.5 62 146.5t-62 147t-169 54v-401q107 0 169 53.5z" />
    <glyph glyph-name="uni0425" unicode="&#x425;" horiz-adv-x="599" 
d="M556 27q0 -16 -11 -27t-27 -11q-19 0 -30 16l-188 269l-188 -269q-11 -16 -31 -16q-16 0 -27 11t-11 27q0 13 11 27l202 285l-186 267q-11 14 -11 27q0 16 11 27t27 11q20 0 31 -16l172 -252l173 252q10 16 30 16q16 0 27 -11t11 -27q0 -13 -11 -27l-185 -267l200 -285
q11 -14 11 -27z" />
    <glyph glyph-name="uni0427" unicode="&#x427;" horiz-adv-x="623" 
d="M521.5 659q11.5 -12 11.5 -29v-600q0 -17 -11.5 -29t-27.5 -12q-17 0 -28 12t-11 29v229q-67 -24 -141 -24q-124 0 -195 71t-71 194v130q0 17 11.5 29t27.5 12q17 0 28 -12t11 -29v-124q0 -94 50.5 -146.5t140.5 -52.5q34 0 71 7.5t67 20.5v295q0 17 11 29t28 12
q16 0 27.5 -12z" />
    <glyph glyph-name="uni0426" unicode="&#x426;" horiz-adv-x="697" 
d="M572.5 659q11.5 -12 11.5 -29v-560h39q17 0 29 -11.5t12 -29.5v-140q0 -17 -11.5 -29t-27.5 -12q-17 0 -28 12t-11 29v111h-454q-18 0 -29.5 12t-11.5 29v589q0 17 11 29t28 12q16 0 27.5 -12t11.5 -29v-560h337v560q0 17 11.5 29t27.5 12t27.5 -12z" />
    <glyph glyph-name="uni0428" unicode="&#x428;" horiz-adv-x="1022" 
d="M920.5 659q11.5 -12 11.5 -29v-589q0 -17 -12 -29t-29 -12h-759q-18 0 -29.5 12t-11.5 29v589q0 17 11 29t28 12q16 0 27.5 -12t11.5 -29v-560h304v560q0 17 11 29t28 12q16 0 27.5 -12t11.5 -29v-560h303v560q0 17 11.5 29t27.5 12t27.5 -12z" />
    <glyph glyph-name="uni0429" unicode="&#x429;" horiz-adv-x="1045" 
d="M920.5 659q11.5 -12 11.5 -29v-560h39q17 0 29 -11.5t12 -29.5v-140q0 -17 -11.5 -29t-27.5 -12q-17 0 -28 12t-11 29v111h-802q-18 0 -29.5 12t-11.5 29v589q0 17 11 29t28 12q16 0 27.5 -12t11.5 -29v-560h304v560q0 17 11 29t28 12q16 0 27.5 -12t11.5 -29v-560h303
v560q0 17 11.5 29t27.5 12t27.5 -12z" />
    <glyph glyph-name="uni040F" unicode="&#x40f;" horiz-adv-x="682" 
d="M580 659q11 -12 11 -29v-589q0 -17 -11.5 -29t-29.5 -12h-170v-111q0 -17 -11.5 -29t-27.5 -12q-17 0 -28 12t-11 29v111h-170q-18 0 -29.5 12t-11.5 29v589q0 17 11 29t28 12q16 0 27.5 -12t11.5 -29v-560h344v560q0 17 11.5 29t27.5 12q17 0 28 -12z" />
    <glyph glyph-name="uni042C" unicode="&#x42c;" horiz-adv-x="623" 
d="M157.5 659q11.5 -12 11.5 -29v-230h183q67 0 117 -25.5t76.5 -71t26.5 -103.5t-26.5 -103.5t-76.5 -71t-117 -25.5h-220q-18 0 -29.5 12t-11.5 29v589q0 17 11 29t28 12q16 0 27.5 -12zM169 330v-260h182q67 0 104 36t37 93q0 58 -37 94.5t-104 36.5h-182z" />
    <glyph glyph-name="uni042A" unicode="&#x42a;" horiz-adv-x="639" 
d="M119 12q-12 12 -12 29v549h-85q-15 0 -25.5 10t-10.5 25q0 14 10.5 24.5t25.5 10.5h122q18 0 29.5 -12t11.5 -29v-219h183q66 0 115.5 -25t77 -70.5t27.5 -104.5t-27.5 -104.5t-77 -70.5t-115.5 -25h-220q-17 0 -29 12zM367 70q64 0 102 35t38 94q0 60 -38 95.5
t-102 35.5h-182v-260h182z" />
    <glyph glyph-name="uni042B" unicode="&#x42b;" horiz-adv-x="882" 
d="M157.5 659q11.5 -12 11.5 -29v-230h183q67 0 117 -25.5t76.5 -71t26.5 -103.5t-26.5 -103.5t-76.5 -71t-117 -25.5h-220q-18 0 -29.5 12t-11.5 29v589q0 17 11 29t28 12q16 0 27.5 -12zM169 330v-260h182q67 0 104 36t37 93q0 58 -37 94.5t-104 36.5h-182zM725 1
q-11 12 -11 29v600q0 17 11 29t28 12q16 0 27.5 -12t11.5 -29v-600q0 -17 -11.5 -29t-27.5 -12q-17 0 -28 12z" />
    <glyph glyph-name="uni0409" unicode="&#x409;" horiz-adv-x="1010" 
d="M855 375q50 -25 77.5 -70.5t27.5 -104.5t-27.5 -104.5t-77.5 -70.5t-115 -25h-220q-17 0 -29 12t-12 29v549h-223q-1 -261 -54 -411.5t-154 -181.5q-13 -4 -22 -4q-14 0 -24.5 10.5t-10.5 24.5q0 26 29 36q78 27 118 153.5t40 347.5v54q0 17 11.5 29t29.5 12h297
q17 0 29 -12t12 -29v-219h183q65 0 115 -25zM841 105q38 35 38 94q0 60 -38 95.5t-102 35.5h-182v-260h182q64 0 102 35z" />
    <glyph glyph-name="uni040A" unicode="&#x40a;" horiz-adv-x="1055" 
d="M102 1q-11 12 -11 29v600q0 17 11 29t28 12q16 0 27.5 -12t11.5 -29v-239h354v239q0 17 11.5 29t27.5 12q17 0 28 -12t11 -29v-239h183q65 0 115 -24.5t77.5 -68.5t27.5 -102t-27.5 -102.5t-77.5 -69t-115 -24.5h-220q-17 0 -29 12t-12 29v280h-354v-291q0 -17 -11.5 -29
t-27.5 -12q-17 0 -28 12zM783 70q65 0 102.5 33.5t37.5 91.5q0 57 -38 91.5t-102 34.5h-182v-251h182z" />
    <glyph glyph-name="uni0405" unicode="&#x405;" horiz-adv-x="558" 
d="M160 19.5q-60 30.5 -99 82.5q-9 11 -9 24q0 15 11 25.5t26 10.5q18 0 30 -15q68 -86 164 -86q60 0 96.5 30.5t36.5 79.5q0 37 -23 61.5t-87 54.5l-74 35q-79 37 -114 79t-35 98q0 49 26 88t71.5 61.5t101.5 22.5q111 0 182 -79q14 -15 14 -32q0 -13 -11.5 -24t-25.5 -11
t-27 13q-55 61 -133 61q-53 0 -85 -26.5t-32 -69.5q0 -24 9 -41t31.5 -33t65.5 -37l73 -35q83 -40 118.5 -82.5t35.5 -101.5q0 -53 -27 -95t-75.5 -65.5t-110.5 -23.5q-64 0 -124 30.5z" />
    <glyph glyph-name="uni0404" unicode="&#x404;" horiz-adv-x="715" 
d="M652 164.5q11 -10.5 11 -24.5t-15 -33q-43 -55 -111.5 -86.5t-145.5 -31.5q-95 0 -173.5 45.5t-124 123.5t-45.5 172t45.5 172t124 123.5t173.5 45.5q76 0 144 -31t113 -87q15 -19 15 -33t-11 -24.5t-26 -10.5q-20 0 -33 16q-78 98 -201 98q-64 0 -118.5 -27t-90.5 -75
t-48 -109h324q15 0 25.5 -10t10.5 -25q0 -14 -10.5 -24.5t-25.5 -10.5h-330q3 -73 38 -131.5t94 -92t131 -33.5q121 0 201 98q13 16 33 16q15 0 26 -10.5z" />
    <glyph glyph-name="uni042D" unicode="&#x42d;" horiz-adv-x="715" 
d="M497.5 625.5q78.5 -45.5 124 -123.5t45.5 -172t-45.5 -172t-124 -123.5t-173.5 -45.5q-77 0 -145.5 31.5t-111.5 86.5q-15 19 -15 33t11 24.5t26 10.5q20 0 33 -16q80 -98 201 -98q72 0 131 33.5t94 92t38 131.5h-330q-15 0 -25.5 10.5t-10.5 24.5q0 15 10.5 25t25.5 10
h324q-12 61 -48 109t-90.5 75t-118.5 27q-123 0 -201 -98q-13 -16 -33 -16q-15 0 -26 10.5t-11 24.5t15 33q45 56 113 87t144 31q95 0 173.5 -45.5z" />
    <glyph glyph-name="uni0406" unicode="&#x406;" horiz-adv-x="259" 
d="M157.5 659q11.5 -12 11.5 -29v-600q0 -17 -11.5 -29t-27.5 -12q-17 0 -28 12t-11 29v600q0 17 11 29t28 12q16 0 27.5 -12z" />
    <glyph glyph-name="uni0407" unicode="&#x407;" horiz-adv-x="259" 
d="M157.5 659q11.5 -12 11.5 -29v-600q0 -17 -11.5 -29t-27.5 -12q-17 0 -28 12t-11 29v600q0 17 11 29t28 12q16 0 27.5 -12zM-25.5 772.5q-16.5 15.5 -16.5 37.5t16.5 37.5t38.5 15.5q23 0 39 -15.5t16 -37.5t-16 -37.5t-39 -15.5q-22 0 -38.5 15.5zM207.5 771.5
q-16.5 15.5 -16.5 37.5t16.5 38t38.5 16q23 0 39 -16t16 -38t-16 -37.5t-39 -15.5q-22 0 -38.5 15.5z" />
    <glyph glyph-name="uni0408" unicode="&#x408;" horiz-adv-x="373" 
d="M46 -4q-13 4 -21 14t-8 23q0 16 11 26.5t28 10.5q14 0 29 -3q5 0 15.5 -1.5t21.5 -1.5q40 0 61.5 25t21.5 71v470q0 17 11 29t28 12t28 -12t11 -29v-477q0 -79 -44.5 -121.5t-127.5 -42.5q-40 0 -65 7z" />
    <glyph glyph-name="uni040B" unicode="&#x40b;" horiz-adv-x="791" 
d="M640.5 334.5q61.5 -67.5 61.5 -188.5v-116q0 -17 -11.5 -29t-27.5 -12t-27.5 12t-11.5 29v113q0 186 -163 186q-66 0 -132 -23v-276q0 -17 -11.5 -29t-27.5 -12t-27.5 12t-11.5 29v560h-200q-15 0 -25.5 10t-10.5 25q0 14 10.5 24.5t25.5 10.5h479q15 0 25.5 -10.5
t10.5 -24.5q0 -15 -10.5 -25t-25.5 -10h-201v-211q64 23 139 23q111 0 172.5 -67.5z" />
    <glyph glyph-name="uni042E" unicode="&#x42e;" horiz-adv-x="1075" 
d="M856.5 625.5q78.5 -45.5 124 -123.5t45.5 -172t-45.5 -172t-124 -123.5t-172.5 -45.5q-92 0 -168 43.5t-121.5 119t-48.5 166.5h-177v-288q0 -17 -11.5 -29t-27.5 -12q-17 0 -28 12t-11 29v600q0 17 11 29t28 12q16 0 27.5 -12t11.5 -29v-242h182q13 81 60 145.5t118 101
t155 36.5q94 0 172.5 -45.5zM817.5 96.5q59.5 35.5 93.5 97t34 137.5q0 75 -34 136.5t-93.5 96.5t-132.5 35t-133 -35t-94 -96.5t-34 -136.5q0 -76 34 -137.5t94 -97t133 -35.5t132.5 35.5z" />
    <glyph glyph-name="uni042F" unicode="&#x42f;" horiz-adv-x="618" 
d="M516 648q12 -12 12 -29v-589q0 -17 -11.5 -29t-27.5 -12q-17 0 -28 12t-11 29v220h-143q-20 0 -29 1l-165 -243q-12 -19 -33 -19q-16 0 -27.5 12t-11.5 28q0 12 9 24l149 218q-55 24 -86.5 72t-31.5 112q0 61 28.5 107.5t79.5 72t118 25.5h180q17 0 29 -12zM450 590h-143
q-65 0 -105 -37t-40 -98t40 -98t105 -37h143v270z" />
    <glyph glyph-name="uni0402" unicode="&#x402;" horiz-adv-x="757" 
d="M262.5 1q-11.5 12 -11.5 29v560h-200q-15 0 -25.5 10t-10.5 25q0 14 10.5 24.5t25.5 10.5h479q15 0 25.5 -10.5t10.5 -24.5q0 -15 -10.5 -25t-25.5 -10h-201v-187h150q68 0 119.5 -25.5t79.5 -72t28 -107.5q0 -71 -39.5 -121t-113.5 -74q-16 -6 -30 -9.5t-25 -3.5
q-15 0 -26 11t-11 27q0 13 8 22.5t22 13.5q134 33 134 135q0 61 -40 97t-107 36h-149v-302q0 -17 -11.5 -29t-27.5 -12t-27.5 12z" />
    <glyph glyph-name="uni0462" unicode="&#x462;" horiz-adv-x="623" 
d="M467 364.5q50 -24.5 77.5 -68.5t27.5 -101t-27.5 -101.5t-77.5 -69t-115 -24.5h-220q-18 0 -29.5 12t-11.5 29v458h-51q-15 0 -25.5 9.5t-10.5 24.5q0 14 10.5 24t25.5 10h51v63q0 17 11 29t28 12q16 0 27.5 -12t11.5 -29v-63h246q14 0 24.5 -10t10.5 -24
q0 -15 -10 -24.5t-25 -9.5h-246v-110h183q65 0 115 -24.5zM453.5 104q38.5 34 38.5 90q0 57 -38.5 91t-102.5 34h-182v-249h182q64 0 102.5 34z" />
    <glyph glyph-name="uni0472" unicode="&#x472;" horiz-adv-x="781" 
d="M563 625.5q79 -45.5 124.5 -123.5t45.5 -172t-45.5 -172t-124.5 -123.5t-173 -45.5q-95 0 -173 45.5t-123.5 123.5t-45.5 172t45.5 172t123.5 123.5t173 45.5q94 0 173 -45.5zM270 571.5q-55 -27.5 -90.5 -77t-46.5 -112.5q74 31 134 31q32 0 60.5 -6t65.5 -17t65 -16.5
t59 -5.5q63 0 128 27q-20 91 -90 147.5t-165 56.5q-65 0 -120 -27.5zM522.5 95q59.5 34 94 94t35.5 135q-69 -30 -135 -30q-32 0 -59 5.5t-69 17.5q-37 11 -64.5 17t-57.5 6q-60 0 -137 -33q5 -70 40 -126t92.5 -88t127.5 -32q73 0 132.5 34z" />
    <glyph glyph-name="uni0474" unicode="&#x474;" horiz-adv-x="687" 
d="M686.5 660.5q13.5 -10.5 13.5 -26.5t-11.5 -26t-29.5 -10h-3q-27 0 -46 -16.5t-34 -51.5l-214 -514q-11 -27 -36 -27q-12 0 -22 7t-15 20l-245 587q-8 18 -8 29q0 17 11.5 28t27.5 11q14 0 24.5 -8t14.5 -21l212 -524l182 449q22 54 56 79t87 25q22 0 35.5 -10.5z" />
    <glyph glyph-name="uni0492" unicode="&#x492;" horiz-adv-x="496" 
d="M470.5 649.5q10.5 -10.5 10.5 -24.5q0 -15 -10.5 -25t-25.5 -10h-272v-227h224q15 0 25.5 -10.5t10.5 -24.5q0 -15 -10.5 -25.5t-25.5 -10.5h-224v-262q0 -17 -11 -29t-28 -12q-16 0 -27.5 12t-11.5 29v262h-67q-15 0 -25.5 10.5t-10.5 25.5q0 14 10.5 24.5t25.5 10.5h67
v256q0 17 12 29t29 12h309q15 0 25.5 -10.5z" />
    <glyph glyph-name="uni0496" unicode="&#x496;" horiz-adv-x="954" 
d="M422 354q0 -15 -16 -32l-287 -311q-11 -12 -20 -17t-19 -5q-14 0 -24.5 11t-10.5 26t9 24l281 304l-248 254q-12 12 -12 27t10.5 25.5t24.5 10.5q16 0 29 -14l266 -271q17 -16 17 -32zM510.5 659q11.5 -12 11.5 -29v-600q0 -17 -11.5 -29t-27.5 -12t-27.5 12t-11.5 29
v600q0 17 11.5 29t27.5 12t27.5 -12zM930 56q12 -12 12 -29v-138q0 -17 -11 -29t-27 -12q-17 0 -28 11.5t-11 29.5v101q-13 2 -32 21l-279 316q-11 13 -11 27q0 16 12 28l276 275q8 8 15 11t15 3q15 0 25 -10.5t10 -25.5t-12 -27l-254 -254l253 -286h18q17 0 29 -12z" />
    <glyph glyph-name="uni0498" unicode="&#x498;" horiz-adv-x="582" 
d="M503.5 294.5q30.5 -43.5 30.5 -102.5q0 -58 -30.5 -104t-84.5 -72.5t-121 -26.5q-70 0 -130.5 30t-98.5 83q-10 14 -10 26q0 15 11 25.5t26 10.5q17 0 29 -16q39 -44 81 -65.5t91 -21.5q44 0 80 17.5t56.5 48t20.5 67.5q0 54 -38 87t-98 33h-104q-15 0 -25.5 10.5
t-10.5 24.5q0 15 10 25.5t26 10.5h79q53 0 83.5 28t30.5 77t-33 79t-87 30q-41 0 -77.5 -17t-62.5 -48q-15 -16 -31 -16q-14 0 -25 11t-11 26q0 7 2.5 13t9.5 14q35 42 86 65.5t109 23.5t103.5 -23t71.5 -63.5t26 -90.5q0 -42 -18 -77t-51 -58q54 -21 84.5 -64.5zM186 -184
q-24 10 -24 29q0 13 8.5 21.5t21.5 8.5q8 0 19.5 -2t25.5 -2q29 0 49 14.5t20 40.5q0 31 -23 60q-4 5 -11 12.5t-10 13.5t-3 12q0 11 7 18t20 7q18 0 39.5 -20t36 -49.5t14.5 -55.5q0 -51 -38 -83t-97 -32q-36 0 -55 7z" />
    <glyph glyph-name="uni049A" unicode="&#x49a;" horiz-adv-x="630" 
d="M157.5 659q11.5 -12 11.5 -29v-600q0 -17 -11.5 -29t-27.5 -12q-17 0 -28 12t-11 29v600q0 17 11 29t28 12q16 0 27.5 -12zM605.5 56q11.5 -12 11.5 -29v-138q0 -18 -10.5 -29.5t-27.5 -11.5t-28 11.5t-11 29.5l1 100h-5h-1q-10 0 -16.5 4t-14.5 12l-297 317
q-15 18 -15 32q0 16 17 32l286 269q16 16 30 16q15 0 25.5 -10.5t10.5 -25.5t-12 -26l-269 -256l263 -285h33q18 0 29.5 -12z" />
    <glyph glyph-name="uni04A0" unicode="&#x4a0;" horiz-adv-x="661" 
d="M613 22q0 -14 -10.5 -24.5t-24.5 -10.5q-16 0 -32 16l-314 322q-13 13 -13 27t14 28l285 273q17 16 30 16q15 0 25.5 -10.5t10.5 -24.5q0 -15 -17 -31l-262 -251l293 -301q15 -12 15 -29zM185 648q12 -12 12 -29v-589q0 -17 -11.5 -29t-27.5 -12q-17 0 -28 12t-11 29v562
h-86q-16 0 -26.5 9.5t-10.5 24.5q0 14 10.5 24t26.5 10h123q17 0 29 -12z" />
    <glyph glyph-name="uni04A2" unicode="&#x4a2;" horiz-adv-x="730" 
d="M606 659q11 -12 11 -29v-560h39q18 0 29.5 -11.5t11.5 -29.5v-140q0 -17 -11.5 -29t-27.5 -12t-27.5 12t-11.5 29v111h-39q-17 0 -29 12t-12 29v277h-370v-288q0 -17 -11.5 -29t-27.5 -12q-17 0 -28 12t-11 29v600q0 17 11 29t28 12q16 0 27.5 -12t11.5 -29v-242h370v242
q0 17 11.5 29t27.5 12q17 0 28 -12z" />
    <glyph glyph-name="uni04AA" unicode="&#x4aa;" horiz-adv-x="715" 
d="M217.5 34.5q-78.5 45.5 -124 123.5t-45.5 172t45.5 172t124 123.5t173.5 45.5q76 0 144 -31t113 -87q15 -19 15 -33t-11 -24.5t-26 -10.5q-20 0 -33 16q-78 98 -201 98q-74 0 -134 -35.5t-94.5 -97t-34.5 -136.5t34.5 -136.5t94.5 -97t134 -35.5q121 0 201 98
q13 16 33 16q15 0 26 -10.5t11 -24.5t-15 -33q-43 -55 -111.5 -86.5t-145.5 -31.5q-95 0 -173.5 45.5zM286 -184q-24 10 -24 29q0 13 8.5 21.5t21.5 8.5q8 0 19.5 -2t25.5 -2q29 0 49 14.5t20 40.5q0 31 -23 60q-4 5 -11 12.5t-10 13.5t-3 12q0 11 7 18t20 7q18 0 39.5 -20
t36 -49.5t14.5 -55.5q0 -51 -38 -83t-97 -32q-36 0 -55 7z" />
    <glyph glyph-name="uni04AE" unicode="&#x4ae;" horiz-adv-x="617" 
d="M562 604l-215 -349v-225q0 -17 -11.5 -29t-27.5 -12q-17 0 -28 12t-11 29v227l-213 347q-11 17 -11 30q0 16 11.5 26.5t28.5 10.5q13 0 21.5 -5t16.5 -18l186 -306l186 306q9 13 17 18t21 5q16 0 27.5 -11t11.5 -27q0 -13 -10 -29z" />
    <glyph glyph-name="uni04B0" unicode="&#x4b0;" horiz-adv-x="626" 
d="M563 610l-207 -329h162q16 0 26 -10t10 -25t-10 -25t-26 -10h-166v-181q0 -17 -11.5 -29t-27.5 -12q-17 0 -28 12t-11 29v181h-166q-15 0 -25.5 10t-10.5 25q0 14 10.5 24.5t25.5 10.5h162l-208 328q-7 11 -7 24q0 16 11.5 27t26.5 11q25 0 40 -25l180 -297l179 297
q16 25 40 25q16 0 27 -11.5t11 -27.5q0 -12 -7 -22z" />
    <glyph glyph-name="uni04B2" unicode="&#x4b2;" horiz-adv-x="596" 
d="M584 56q12 -12 12 -29v-138q0 -17 -11 -29t-28 -12t-28 11.5t-11 29.5l1 100h-1q-19 0 -30 16l-188 269l-188 -269q-11 -16 -31 -16q-16 0 -27 11t-11 27q0 13 11 27l202 285l-186 267q-11 14 -11 27q0 16 11 27t27 11q20 0 31 -16l172 -252l173 252q10 16 30 16
q16 0 27 -11t11 -27q0 -13 -11 -27l-185 -267l190 -271h20q17 0 29 -12z" />
    <glyph glyph-name="uni04B6" unicode="&#x4b6;" horiz-adv-x="646" 
d="M600.5 58.5q11.5 -11.5 11.5 -29.5v-140q0 -17 -11 -29t-28 -12q-16 0 -27.5 12t-11.5 29v111h-38q-18 0 -29.5 12t-11.5 29v218q-66 -24 -141 -24q-79 0 -139 30.5t-93.5 90t-33.5 144.5v130q0 17 11.5 29t27.5 12q17 0 28 -12t11 -29v-124q0 -97 52 -148t139 -51
q32 0 69.5 7.5t68.5 20.5v295q0 17 11 29t28 12q16 0 27.5 -12t11.5 -29v-560h39q17 0 28.5 -11.5z" />
    <glyph glyph-name="uni04BA" unicode="&#x4ba;" horiz-adv-x="623" 
d="M473 347.5q62 -67.5 62 -188.5v-129q0 -17 -11.5 -29t-27.5 -12q-17 0 -28 12t-11 29v127q0 92 -41 139t-121 47q-62 0 -126 -23v-290q0 -17 -11.5 -29t-27.5 -12q-17 0 -28 12t-11 29v600q0 17 11 29t28 12q16 0 27.5 -12t11.5 -29v-238q71 23 132 23q110 0 172 -67.5z
" />
    <glyph glyph-name="uni04C0" unicode="&#x4c0;" horiz-adv-x="259" 
d="M157.5 659q11.5 -12 11.5 -29v-600q0 -17 -11.5 -29t-27.5 -12q-17 0 -28 12t-11 29v600q0 17 11 29t28 12q16 0 27.5 -12z" />
    <glyph glyph-name="uni04C1" unicode="&#x4c1;" horiz-adv-x="965" 
d="M422 354q0 -15 -16 -32l-287 -311q-11 -12 -20 -17t-19 -5q-14 0 -24.5 11t-10.5 26t9 24l281 304l-248 254q-12 12 -12 27t10.5 25.5t24.5 10.5q16 0 29 -14l266 -271q17 -16 17 -32zM510.5 659q11.5 -12 11.5 -29v-600q0 -17 -11.5 -29t-27.5 -12t-27.5 12t-11.5 29
v600q0 17 11.5 29t27.5 12t27.5 -12zM921 26q0 -15 -10.5 -26t-24.5 -11q-10 0 -19 5t-20 17l-288 311q-16 17 -16 32q0 16 17 32l267 271q13 14 29 14q15 0 25 -10.5t10 -25.5t-12 -27l-249 -254l282 -304q9 -9 9 -24zM409.5 750q-34.5 18 -55.5 47.5t-21 63.5q0 14 9.5 24
t22.5 10q25 0 32 -32q7 -33 30.5 -52t55.5 -19q34 0 57 19.5t30 51.5q6 32 31 32q14 0 23.5 -10t9.5 -24q0 -34 -21 -63.5t-55.5 -47.5t-74.5 -18q-39 0 -73.5 18z" />
    <glyph glyph-name="uni04D0" unicode="&#x4d0;" horiz-adv-x="664" 
d="M629 27q0 -15 -11.5 -26.5t-26.5 -11.5q-25 0 -38 26l-53 119h-339l-50 -119q-11 -26 -37 -26q-16 0 -27 11.5t-11 26.5q0 10 6 25l253 592q12 27 37 27t37 -27l253 -592q7 -14 7 -25zM190 204h280l-138 350zM258.5 750q-34.5 18 -55.5 47.5t-21 63.5q0 14 9.5 24
t22.5 10q25 0 32 -32q7 -33 30.5 -52t55.5 -19q34 0 57 19.5t30 51.5q6 32 31 32q14 0 23.5 -10t9.5 -24q0 -34 -21 -63.5t-55.5 -47.5t-74.5 -18q-39 0 -73.5 18z" />
    <glyph glyph-name="uni04D6" unicode="&#x4d6;" horiz-adv-x="566" 
d="M101 10.5q-10 10.5 -10 25.5v588q0 15 10 25.5t26 10.5h355q15 0 25.5 -10.5t10.5 -24.5q0 -15 -10.5 -25t-25.5 -10h-313v-202h233q15 0 25.5 -10t10.5 -25q0 -14 -10.5 -24.5t-25.5 -10.5h-233v-248h325q15 0 25.5 -10t10.5 -25q0 -14 -10.5 -24.5t-25.5 -10.5h-367
q-16 0 -26 10.5zM209.5 750q-34.5 18 -55.5 47.5t-21 63.5q0 14 9.5 24t22.5 10q25 0 32 -32q7 -33 30.5 -52t55.5 -19q34 0 57 19.5t30 51.5q6 32 31 32q14 0 23.5 -10t9.5 -24q0 -34 -21 -63.5t-55.5 -47.5t-74.5 -18q-39 0 -73.5 18z" />
    <glyph glyph-name="uni04D8" unicode="&#x4d8;" horiz-adv-x="731" 
d="M519 626q76 -45 120 -122.5t44 -171.5t-45 -172.5t-122 -124.5t-169 -46q-85 0 -153 38t-107 105t-39 150q0 17 2 32q2 18 12 28.5t25 10.5h514q-4 70 -38 126t-89.5 88t-123.5 32q-59 0 -112.5 -25t-89.5 -70q-11 -13 -19 -18t-18 -5q-16 0 -25.5 9t-9.5 25q0 7 3 13
t11 16q47 61 115.5 94t145.5 33q92 0 168 -45zM466 89.5q53 28.5 87.5 79t44.5 114.5h-472q-2 -63 26 -114t80 -79.5t118 -28.5q63 0 116 28.5z" />
    <glyph glyph-name="uni04E2" unicode="&#x4e2;" horiz-adv-x="718" 
d="M615.5 659.5q11.5 -11.5 11.5 -26.5v-603q0 -17 -11 -29t-28 -12q-16 0 -27.5 12t-11.5 29v489l-389 -514q-7 -9 -13.5 -12.5t-16.5 -3.5q-16 0 -27.5 11.5t-11.5 26.5v603q0 17 11 29t28 12q16 0 27.5 -12t11.5 -29v-489l389 514q7 9 13.5 12.5t16.5 3.5
q16 0 27.5 -11.5zM490.5 824q9.5 -9 9.5 -22q0 -14 -9.5 -23t-23.5 -9h-237q-14 0 -23.5 9.5t-9.5 22.5t9.5 22t23.5 9h237q14 0 23.5 -9z" />
    <glyph glyph-name="uni04E6" unicode="&#x4e6;" horiz-adv-x="781" 
d="M563 625.5q79 -45.5 124.5 -123.5t45.5 -172t-45.5 -172t-124.5 -123.5t-173 -45.5q-95 0 -173 45.5t-123.5 123.5t-45.5 172t45.5 172t123.5 123.5t173 45.5q94 0 173 -45.5zM257 564q-60 -35 -94 -96t-34 -137t34 -138t94 -97t134 -35q73 0 133 35.5t94 97t34 137.5
q0 75 -34 136.5t-94 96.5t-133 35q-74 0 -134 -35zM235.5 772.5q-16.5 15.5 -16.5 37.5t16.5 37.5t38.5 15.5q23 0 39 -15.5t16 -37.5t-16 -37.5t-39 -15.5q-22 0 -38.5 15.5zM468.5 771.5q-16.5 15.5 -16.5 37.5t16.5 38t38.5 16q23 0 39 -16t16 -38t-16 -37.5t-39 -15.5
q-22 0 -38.5 15.5z" />
    <glyph glyph-name="uni04E8" unicode="&#x4e8;" horiz-adv-x="781" 
d="M563 625.5q79 -45.5 124.5 -123.5t45.5 -172t-45.5 -172t-124.5 -123.5t-173 -45.5q-95 0 -173 45.5t-123.5 123.5t-45.5 172t45.5 172t123.5 123.5t173 45.5q94 0 173 -45.5zM272 572q-54 -27 -90 -74.5t-48 -109.5h513q-12 62 -48 109.5t-90 74.5t-118 27
q-65 0 -119 -27zM520.5 94.5q58.5 33.5 93.5 92t38 131.5h-523q3 -73 38 -131.5t93.5 -92t130.5 -33.5q71 0 129.5 33.5z" />
    <glyph glyph-name="uni04EE" unicode="&#x4ee;" horiz-adv-x="610" 
d="M560 648.5q12 -11.5 12 -27.5q0 -9 -6 -21l-218 -474q-32 -69 -80 -103t-114 -34q-33 0 -57 6q-13 3 -21 12.5t-8 22.5q0 14 11 24.5t26 10.5q7 0 17 -1t23 -1q48 0 76 18t49 59l5 11l-218 449q-5 13 -5 21q0 16 12 27.5t28 11.5q24 0 36 -24l189 -401l179 401
q10 24 36 24q16 0 28 -11.5zM437.5 824q9.5 -9 9.5 -22q0 -14 -9.5 -23t-23.5 -9h-237q-14 0 -23.5 9.5t-9.5 22.5t9.5 22t23.5 9h237q14 0 23.5 -9z" />
    <glyph glyph-name="uni04F2" unicode="&#x4f2;" horiz-adv-x="610" 
d="M560 648.5q12 -11.5 12 -27.5q0 -9 -6 -21l-218 -474q-32 -69 -80 -103t-114 -34q-33 0 -57 6q-13 3 -21 12.5t-8 22.5q0 14 11 24.5t26 10.5q7 0 17 -1t23 -1q48 0 76 18t49 59l5 11l-218 449q-5 13 -5 21q0 16 12 27.5t28 11.5q24 0 36 -24l189 -401l179 401
q10 24 36 24q16 0 28 -11.5zM190.5 738q-8.5 10 -8.5 23q0 6 4 16l65 125q5 10 14 15.5t20 5.5q17 0 28.5 -11.5t11.5 -27.5q0 -13 -7 -24l-71 -113q-12 -21 -34 -20q-14 1 -22.5 11zM371.5 738q-8.5 10 -8.5 23q0 6 4 16l65 125q5 10 14 15.5t20 5.5q17 0 28.5 -11.5
t11.5 -27.5q0 -13 -7 -24l-71 -113q-12 -21 -34 -20q-14 1 -22.5 11z" />
    <glyph glyph-name="uni0414.loclBGR" horiz-adv-x="752" 
d="M713.5 58.5q11.5 -11.5 11.5 -29.5v-129q0 -18 -11 -29.5t-28 -11.5t-28 11.5t-11 29.5v100h-542v-100q0 -18 -11 -29.5t-28 -11.5t-28 11.5t-11 29.5v129q0 18 12 29.5t29 11.5h36l236 574q11 27 37 27q25 0 37 -27l236 -574h34q18 0 29.5 -11.5zM187 70h379l-189 477z
" />
    <glyph glyph-name="uni041B.loclBGR" horiz-adv-x="664" 
d="M629 27q0 -15 -11.5 -26.5t-26.5 -11.5q-27 0 -38 26l-221 526l-221 -526q-11 -26 -37 -26q-16 0 -27 11.5t-11 26.5q0 10 6 25l253 592q12 27 37 27t37 -27l253 -592q7 -14 7 -25z" />
    <glyph glyph-name="uni0410.ordn" horiz-adv-x="434" 
d="M405 271q0 -13 -10 -23.5t-24 -10.5q-11 0 -20.5 6.5t-13.5 17.5l-22 54h-196l-22 -54q-4 -11 -13 -17.5t-20 -6.5q-14 0 -24.5 10t-10.5 24q0 8 4 16l150 355q11 25 34 25t34 -26l150 -354q4 -8 4 -16zM141 369h152l-76 193z" />
    <glyph glyph-name="uni0413.ordn" horiz-adv-x="340" 
d="M322.5 651.5q9.5 -8.5 9.5 -21.5q0 -14 -9.5 -23t-23.5 -9h-164v-326q0 -14 -9.5 -24.5t-23.5 -10.5q-15 0 -25 10.5t-10 24.5v353q0 14 10.5 24.5t25.5 10.5h196q14 0 23.5 -8.5z" />
    <glyph glyph-name="uni0415.ordn" horiz-adv-x="376" 
d="M332 651.5q9 -8.5 9 -21.5t-9 -22t-22 -9h-174v-106h133q12 0 20.5 -8t8.5 -20q0 -11 -8.5 -19t-20.5 -8h-133v-133h182q13 0 22 -9t9 -22t-9 -21.5t-22 -8.5h-214q-16 0 -26.5 10.5t-10.5 25.5v344q0 15 10.5 25.5t26.5 10.5h206q13 0 22 -8.5z" />
    <glyph glyph-name="uni0419.ordn" horiz-adv-x="488" 
d="M168 729q-30 24 -30 55q0 11 8 19t19 8q17 0 25 -20q7 -17 19.5 -26.5t28.5 -8.5q15 -1 28 9t19 26q8 20 26 20q11 0 18.5 -8t7.5 -19q0 -33 -29 -56t-70 -23q-40 0 -70 24zM410 657q10 -10 10 -24v-361q0 -15 -9.5 -25t-24.5 -10q-14 0 -24 10.5t-10 24.5v272l-218 -288
q-15 -19 -32 -19q-14 0 -24.5 10t-10.5 24v361q0 14 10 24.5t25 10.5q14 0 24 -10.5t10 -24.5v-271l219 287q15 19 31 19q14 0 24 -10z" />
    <glyph glyph-name="uni041C.ordn" horiz-adv-x="527" 
d="M449.5 657q9.5 -10 9.5 -24v-362q0 -15 -9 -24.5t-24 -9.5q-14 0 -24 10t-10 24v250l-99 -158q-13 -19 -29 -19q-9 0 -17 5.5t-13 13.5l-99 158v-250q0 -14 -9.5 -24t-23.5 -10q-15 0 -25 10t-10 24v363q0 14 10 23.5t25 9.5t26 -17l135 -212l132 208q15 21 31 21
q14 0 23.5 -10z" />
    <glyph glyph-name="uni041E.ordn" horiz-adv-x="507" 
d="M363 638.5q50 -28.5 79 -78t29 -108.5t-29 -108.5t-79 -78t-110 -28.5t-110 28.5t-78.5 77.5t-28.5 109t28.5 109t78.5 77.5t110 28.5t110 -28.5zM147.5 561.5q-41.5 -42.5 -41.5 -109.5t41.5 -109.5t106.5 -42.5q64 0 106 43t42 109t-42 109t-106 43q-65 0 -106.5 -42.5
z" />
    <glyph glyph-name="uni0423.ordn" horiz-adv-x="404" 
d="M358 657q10 -10 10 -24q0 -8 -6 -25l-122 -282q-19 -43 -53 -66t-79 -23q-17 0 -34 3q-11 2 -18.5 10.5t-7.5 19.5q0 13 9.5 22.5t22.5 9.5l24 -1q26 0 42.5 9.5t27.5 31.5l-124 266q-8 16 -8 25q0 14 10.5 24t23.5 10q23 0 36 -28l98 -223l90 222q12 29 34 29
q14 0 24 -10z" />
    <glyph glyph-name="uni0425.ordn" horiz-adv-x="357" 
d="M342 271q0 -13 -10 -23.5t-24 -10.5q-19 0 -28 16l-101 151l-101 -151q-10 -16 -29 -16q-13 0 -23.5 10.5t-10.5 23.5q0 11 7 21l117 169l-105 151q-7 11 -7 21q0 14 10 24t24 10q19 0 28 -16l92 -137l91 137q9 16 28 16q14 0 24 -10t10 -24q0 -10 -7 -21l-107 -154
l115 -166q7 -10 7 -21z" />
    <glyph glyph-name="uni042B.ordn" horiz-adv-x="586" 
d="M125.5 657q9.5 -10 9.5 -25v-360q0 -15 -9.5 -25t-23.5 -10q-15 0 -25 10.5t-10 24.5v360q0 14 10 24.5t25 10.5q14 0 23.5 -10zM297 656.5q10 -10.5 10 -24.5v-125h99q65 0 104.5 -36.5t39.5 -95.5t-39.5 -95t-104.5 -36h-132q-15 0 -25 10.5t-10 24.5v353q0 15 9.5 25
t24.5 10q14 0 24 -10.5zM307 447v-143h98q35 0 56 19.5t21 52.5q0 32 -21 51.5t-56 19.5h-98z" />
    <glyph glyph-name="uni042E.ordn" horiz-adv-x="699" 
d="M554 638.5q50 -28.5 79.5 -78t29.5 -108.5t-29.5 -108.5t-79.5 -78t-111 -28.5q-57 0 -104.5 26t-76.5 71t-33 100h-94v-162q0 -15 -9.5 -25t-23.5 -10q-15 0 -25 10.5t-10 24.5v360q0 14 10 24.5t25 10.5q14 0 23.5 -10t9.5 -25v-137h97q14 76 72.5 124t138.5 48
q61 0 111 -28.5zM551.5 343q42.5 43 42.5 109t-42.5 109t-107.5 43q-42 0 -76 -19.5t-53.5 -54.5t-19.5 -78q0 -66 42 -109t107 -43t107.5 43z" />
    <glyph glyph-name="uni042F.ordn" horiz-adv-x="414" 
d="M336 649.5q10 -10.5 10 -24.5v-353q0 -15 -9.5 -25t-23.5 -10q-15 0 -24.5 10t-9.5 25v114h-76q-14 0 -21 1l-94 -134q-5 -7 -12.5 -11.5t-14.5 -4.5q-15 0 -25.5 10t-10.5 24q0 11 7 21l85 116q-30 17 -46.5 47.5t-16.5 68.5q0 61 41.5 98.5t107.5 37.5h108
q15 0 25 -10.5zM279 600h-75q-37 0 -59 -21t-22 -55q0 -36 22 -57.5t59 -21.5h75v155z" />
    <glyph glyph-name="uni0409.ss01" horiz-adv-x="982" 
d="M827 375q50 -25 77.5 -70.5t27.5 -104.5t-27.5 -104.5t-77.5 -70.5t-115 -25h-138q-36 0 -50 39l-202 499l-211 -523q-11 -26 -37 -26q-16 0 -27 11.5t-11 26.5q0 10 6 25l243 592q12 27 37 27q26 0 38 -27l100 -244h252q65 0 115 -25zM813 105q38 35 38 94
q0 60 -38 95.5t-102 35.5h-222l107 -260h115q64 0 102 35z" />
    <glyph glyph-name="uni0430" unicode="&#x430;" horiz-adv-x="528" 
d="M399.5 445.5q50.5 -52.5 50.5 -145.5v-271q0 -17 -11 -28.5t-27 -11.5t-27.5 11.5t-11.5 28.5v28q-27 -33 -68 -50.5t-91 -17.5q-76 0 -123 37.5t-47 99.5t48 99t127 37h154v42q0 59 -31 91t-87 32q-70 0 -122 -55q-15 -15 -30 -15q-14 0 -24.5 10t-10.5 22q0 18 14 33
q31 37 77.5 56.5t100.5 19.5q89 0 139.5 -52.5zM298.5 71q34.5 18 54.5 49t20 67v12h-145q-52 0 -78.5 -17.5t-26.5 -52.5q0 -34 27.5 -55t73.5 -21q40 0 74.5 18z" />
    <glyph glyph-name="uni0431" unicode="&#x431;" horiz-adv-x="625" 
d="M454 447q56 -33 88.5 -89.5t32.5 -122.5q0 -67 -34 -123.5t-92 -89t-128 -32.5q-73 0 -130 34.5t-88.5 96.5t-31.5 143v73q0 109 29.5 181.5t94.5 121t177 83.5l95 28q18 6 24 6q15 0 24.5 -10t9.5 -25q0 -26 -31 -36l-99 -30q-128 -40 -185 -101.5t-61 -167.5
q32 43 80 68t103 25q66 0 122 -33zM410 84q40 23 63 63t23 88t-23 88t-63 63t-88 23q-47 0 -87 -23t-63 -63t-23 -88q0 -47 23 -87t63 -63.5t87 -23.5q48 0 88 23z" />
    <glyph glyph-name="uni0432" unicode="&#x432;" horiz-adv-x="549" 
d="M477 213q21 -30 21 -70q0 -64 -46.5 -103.5t-121.5 -39.5h-199q-17 0 -28.5 11.5t-11.5 28.5v407q0 17 11.5 28.5t28.5 11.5h179q71 0 113 -34t42 -92q0 -31 -12.5 -57t-35.5 -44q39 -17 60 -47zM168 288h143q39 0 59.5 17t20.5 49q0 64 -80 64h-143v-130zM398 89.5
q27 21.5 27 57.5q0 34 -26.5 53.5t-73.5 19.5h-157v-152h157q46 0 73 21.5z" />
    <glyph glyph-name="uni0433" unicode="&#x433;" horiz-adv-x="442" 
d="M102 0.5q-11 11.5 -11 28.5v418q0 17 11.5 28.5t28.5 11.5h267q15 0 25.5 -10t10.5 -24q0 -15 -10.5 -25t-25.5 -10h-230v-389q0 -17 -11 -28.5t-27 -11.5q-17 0 -28 11.5z" />
    <glyph glyph-name="uni0453" unicode="&#x453;" horiz-adv-x="442" 
d="M102 0.5q-11 11.5 -11 28.5v418q0 17 11.5 28.5t28.5 11.5h267q15 0 25.5 -10t10.5 -24q0 -15 -10.5 -25t-25.5 -10h-230v-389q0 -17 -11 -28.5t-27 -11.5q-17 0 -28 11.5zM238 574.5q-10 9.5 -10 23.5q0 8 5 18l63 141q5 11 14.5 17.5t22.5 6.5q15 0 26.5 -11.5
t11.5 -27.5q0 -9 -6 -21l-71 -134q-13 -22 -31 -22q-15 0 -25 9.5z" />
    <glyph glyph-name="uni0491" unicode="&#x491;" horiz-adv-x="448" 
d="M425.5 611.5q10.5 -11.5 10.5 -28.5v-125q0 -17 -11.5 -28.5t-28.5 -11.5h-228v-389q0 -17 -11 -28.5t-27 -11.5q-17 0 -28 11.5t-11 28.5v418q0 17 11.5 28.5t28.5 11.5h228v96q0 17 11.5 28.5t27.5 11.5q17 0 27.5 -11.5z" />
    <glyph glyph-name="uni0434" unicode="&#x434;" horiz-adv-x="621" 
d="M569.5 56.5q11.5 -11.5 11.5 -28.5v-140q0 -17 -11 -28.5t-27 -11.5q-17 0 -28 11.5t-11 28.5v112h-387v-112q0 -17 -11 -28.5t-27 -11.5t-27.5 11.5t-11.5 28.5v140q0 17 11.5 28.5t28.5 11.5h10q50 50 73 140.5t23 238.5v1q0 16 11.5 27.5t28.5 11.5h234
q17 0 28.5 -11.5t11.5 -28.5v-379h41q17 0 28.5 -11.5zM243 198q-19 -82 -63 -130h243v350h-160q-1 -138 -20 -220z" />
    <glyph glyph-name="uni0435" unicode="&#x435;" horiz-adv-x="571" 
d="M413.5 469q50.5 -29 79 -80t28.5 -116v-5q0 -48 -47 -48h-344q8 -72 57 -116t122 -44q72 0 127 47q13 11 26 11q14 0 24 -9.5t10 -24.5q0 -10 -4 -17.5t-15 -17.5q-72 -60 -169 -60q-73 0 -132 33t-92.5 91t-33.5 130q0 70 33 128.5t90.5 92.5t125.5 34q64 0 114.5 -29z
M190.5 389.5q-44.5 -38.5 -57.5 -101.5h309q-2 62 -42 101t-103 39q-62 0 -106.5 -38.5z" />
    <glyph glyph-name="uni0450" unicode="&#x450;" horiz-adv-x="571" 
d="M413.5 469q50.5 -29 79 -80t28.5 -116v-5q0 -48 -47 -48h-344q8 -72 57 -116t122 -44q72 0 127 47q13 11 26 11q14 0 24 -9.5t10 -24.5q0 -10 -4 -17.5t-15 -17.5q-72 -60 -169 -60q-73 0 -132 33t-92.5 91t-33.5 130q0 70 33 128.5t90.5 92.5t125.5 34q64 0 114.5 -29z
M190.5 389.5q-44.5 -38.5 -57.5 -101.5h309q-2 62 -42 101t-103 39q-62 0 -106.5 -38.5zM247 587l-71 134q-6 12 -6 21q0 16 11.5 27.5t26.5 11.5q13 0 22.5 -6.5t14.5 -17.5l63 -141q5 -10 5 -18q0 -14 -10 -23.5t-25 -9.5q-18 0 -31 22z" />
    <glyph glyph-name="uni0451" unicode="&#x451;" horiz-adv-x="571" 
d="M413.5 469q50.5 -29 79 -80t28.5 -116v-5q0 -48 -47 -48h-344q8 -72 57 -116t122 -44q72 0 127 47q13 11 26 11q14 0 24 -9.5t10 -24.5q0 -10 -4 -17.5t-15 -17.5q-72 -60 -169 -60q-73 0 -132 33t-92.5 91t-33.5 130q0 70 33 128.5t90.5 92.5t125.5 34q64 0 114.5 -29z
M190.5 389.5q-44.5 -38.5 -57.5 -101.5h309q-2 62 -42 101t-103 39q-62 0 -106.5 -38.5zM230 711.5q16 -15.5 16 -38.5q0 -22 -16 -37.5t-39 -15.5q-22 0 -38.5 16t-16.5 37q0 22 16.5 38t38.5 16q23 0 39 -15.5zM441 711.5q16 -15.5 16 -38.5q0 -22 -16 -37.5t-39 -15.5
q-22 0 -38.5 16t-16.5 37q0 22 16.5 38t38.5 16q23 0 39 -15.5z" />
    <glyph glyph-name="uni0436" unicode="&#x436;" horiz-adv-x="776" 
d="M314 290q12 -12 12 -26t-11 -27l-211 -233q-11 -15 -29 -15q-16 0 -27.5 10.5t-11.5 24.5q0 16 11 27l195 214l-167 167q-14 14 -14 31q0 14 11 24.5t25 10.5q19 0 35 -17zM416 486.5q11 -11.5 11 -28.5v-429q0 -17 -11 -28.5t-27 -11.5q-17 0 -28 11.5t-11 28.5v429
q0 17 11 28.5t28 11.5q16 0 27 -11.5zM738 24q0 -15 -11 -25t-28 -10q-14 0 -29 15l-210 233q-11 13 -11 27t12 26l181 191q17 17 35 17q15 0 25.5 -10.5t10.5 -24.5q0 -17 -13 -31l-167 -167l195 -214q10 -10 10 -27z" />
    <glyph glyph-name="uni0437" unicode="&#x437;" horiz-adv-x="498" 
d="M414.5 207q21.5 -32 21.5 -71q0 -43 -25 -76.5t-70 -52t-102 -18.5q-53 0 -98 17t-74 49q-9 10 -13 17t-4 14q0 15 10.5 25t25.5 10q9 0 16 -3.5t15 -11.5q46 -46 121 -46q56 0 87.5 22.5t31.5 62.5q0 37 -30 58t-82 21h-58q-15 0 -25 10t-10 24q0 15 10 24.5t25 9.5h60
q42 0 65 17.5t23 49.5q0 33 -25.5 50.5t-74.5 17.5q-71 0 -110 -37q-14 -13 -28 -13q-15 0 -25.5 10.5t-10.5 24.5t16 29q29 27 71.5 42t89.5 15q81 0 128.5 -36t47.5 -97q0 -34 -15 -62t-44 -46q38 -18 59.5 -50z" />
    <glyph glyph-name="uni0438" unicode="&#x438;" horiz-adv-x="598" 
d="M496 486.5q11 -11.5 11 -28.5v-429q0 -17 -11.5 -28.5t-27.5 -11.5t-27 11.5t-11 28.5v327l-265 -345q-19 -22 -36 -22q-16 0 -27 11.5t-11 28.5v429q0 17 11 28.5t28 11.5q16 0 27 -11.5t11 -28.5v-335l265 352q9 12 17.5 17.5t18.5 5.5q16 0 27 -11.5z" />
    <glyph glyph-name="uni0439" unicode="&#x439;" horiz-adv-x="598" 
d="M496 486.5q11 -11.5 11 -28.5v-429q0 -17 -11.5 -28.5t-27.5 -11.5t-27 11.5t-11 28.5v327l-265 -345q-19 -22 -36 -22q-16 0 -27 11.5t-11 28.5v429q0 17 11 28.5t28 11.5q16 0 27 -11.5t11 -28.5v-335l265 352q9 12 17.5 17.5t18.5 5.5q16 0 27 -11.5zM224 602
q-35 20 -56 53t-21 70q0 15 9 25t23 10q30 0 33 -32q3 -35 28 -58.5t59 -23.5t59 23.5t29 58.5q1 14 10.5 23t21.5 9q14 0 23.5 -10t9.5 -25q0 -38 -20.5 -71t-56 -52.5t-76.5 -19.5q-40 0 -75 20z" />
    <glyph glyph-name="uni045D" unicode="&#x45d;" horiz-adv-x="598" 
d="M496 486.5q11 -11.5 11 -28.5v-429q0 -17 -11.5 -28.5t-27.5 -11.5t-27 11.5t-11 28.5v327l-265 -345q-19 -22 -36 -22q-16 0 -27 11.5t-11 28.5v429q0 17 11 28.5t28 11.5q16 0 27 -11.5t11 -28.5v-335l265 352q9 12 17.5 17.5t18.5 5.5q16 0 27 -11.5zM249 587l-71 134
q-6 12 -6 21q0 16 11.5 27.5t26.5 11.5q13 0 22.5 -6.5t14.5 -17.5l63 -141q5 -10 5 -18q0 -14 -10 -23.5t-25 -9.5q-18 0 -31 22z" />
    <glyph glyph-name="uni043A" unicode="&#x43a;" horiz-adv-x="521" 
d="M157 486.5q11 -11.5 11 -28.5v-429q0 -17 -11 -28.5t-27 -11.5q-17 0 -28 11.5t-11 28.5v429q0 17 11 28.5t28 11.5q16 0 27 -11.5zM485 26q0 -15 -11 -26t-27 -11t-27 11l-215 236q-10 13 -10 28q0 14 11 27l191 196q11 11 27 11t27 -11t11 -26q0 -17 -11 -28l-169 -172
l192 -208q11 -9 11 -27z" />
    </font>
</defs>
</svg>
